G04 DipTrace 3.0.0.1*
G04 BottomSilk.gbr*
%MOIN*%
G04 #@! TF.FileFunction,Legend,Bot*
G04 #@! TF.Part,Single*
%ADD10C,0.009843*%
%ADD12C,0.002992*%
%ADD72C,0.00772*%
%ADD73C,0.012351*%
%ADD74C,0.009264*%
%FSLAX26Y26*%
G04*
G70*
G90*
G75*
G01*
G04 BotSilk*
%LPD*%
X2373622Y2579055D2*
D10*
X2464173D1*
Y2780000D1*
X2373622Y2612440D2*
X2464173D1*
X2373622Y2780000D2*
X2464173D1*
X2373622Y2579055D2*
Y2780000D1*
X3196916Y1383229D2*
D12*
X3223844D1*
X3195061Y1380237D2*
X3225699D1*
X3193354Y1377245D2*
X3227405D1*
X3191752Y1374253D2*
X3229008D1*
X3190202Y1371261D2*
X3230558D1*
X3188592Y1368269D2*
X3232168D1*
X3186804Y1365277D2*
X3233956D1*
X3184874Y1362285D2*
X3235886D1*
X3183041Y1359293D2*
X3237718D1*
X3181359Y1356301D2*
X3239401D1*
X3179772Y1353309D2*
X3240988D1*
X3178240Y1350317D2*
X3242520D1*
X3176727Y1347325D2*
X3244033D1*
X3175228Y1344333D2*
X3245532D1*
X3173728Y1341341D2*
X3247032D1*
X3172222Y1338349D2*
X3248538D1*
X3170630Y1335357D2*
X3250130D1*
X3168848Y1332365D2*
X3251912D1*
X3166921Y1329373D2*
X3253839D1*
X3165089Y1326381D2*
X3255671D1*
X3163407Y1323389D2*
X3257353D1*
X3161819Y1320397D2*
X3258940D1*
X3160288Y1317405D2*
X3260472D1*
X3158775Y1314413D2*
X3261985D1*
X3157264Y1311421D2*
X3206366D1*
X3214394D2*
X3263495D1*
X3155670Y1308429D2*
X3204221D1*
X3216539D2*
X3265089D1*
X3153888Y1305437D2*
X3202397D1*
X3218363D2*
X3266871D1*
X3151961Y1302445D2*
X3200750D1*
X3220009D2*
X3268799D1*
X3150129Y1299453D2*
X3199197D1*
X3221563D2*
X3270631D1*
X3148447Y1296461D2*
X3197675D1*
X3223084D2*
X3272313D1*
X3146859Y1293469D2*
X3196173D1*
X3224586D2*
X3273900D1*
X3145328Y1290477D2*
X3194672D1*
X3226088D2*
X3275432D1*
X3143815Y1287485D2*
X3193178D1*
X3227582D2*
X3276945D1*
X3142316Y1284493D2*
X3191679D1*
X3229081D2*
X3278444D1*
X3140816Y1281501D2*
X3190173D1*
X3230586D2*
X3279944D1*
X3139321Y1278509D2*
X3188581D1*
X3232178D2*
X3281438D1*
X3137823Y1275517D2*
X3186800D1*
X3233960D2*
X3282937D1*
X3136317Y1272525D2*
X3184873D1*
X3235887D2*
X3284442D1*
X3134725Y1269533D2*
X3183041D1*
X3237719D2*
X3286034D1*
X3132944Y1266541D2*
X3181359D1*
X3239401D2*
X3287816D1*
X3131017Y1263549D2*
X3179771D1*
X3240988D2*
X3289743D1*
X3129185Y1260557D2*
X3178240D1*
X3242520D2*
X3291575D1*
X3127503Y1257565D2*
X3176727D1*
X3244033D2*
X3293257D1*
X3125915Y1254573D2*
X3175228D1*
X3245532D2*
X3294844D1*
X3124384Y1251581D2*
X3173728D1*
X3247032D2*
X3296376D1*
X3122871Y1248589D2*
X3172233D1*
X3248526D2*
X3297889D1*
X3121372Y1245597D2*
X3170735D1*
X3250025D2*
X3299388D1*
X3119872Y1242605D2*
X3169229D1*
X3251530D2*
X3300888D1*
X3118377Y1239613D2*
X3167637D1*
X3253122D2*
X3302382D1*
X3116879Y1236621D2*
X3165856D1*
X3254904D2*
X3303881D1*
X3115373Y1233629D2*
X3163929D1*
X3256831D2*
X3305386D1*
X3113781Y1230637D2*
X3162097D1*
X3258663D2*
X3306978D1*
X3112000Y1227645D2*
X3160415D1*
X3260345D2*
X3308760D1*
X3110073Y1224653D2*
X3158827D1*
X3261932D2*
X3310687D1*
X3108241Y1221661D2*
X3157296D1*
X3263464D2*
X3312519D1*
X3106559Y1218669D2*
X3155783D1*
X3264977D2*
X3314201D1*
X3104971Y1215677D2*
X3154284D1*
X3266476D2*
X3315788D1*
X3103440Y1212685D2*
X3152784D1*
X3267976D2*
X3317320D1*
X3101927Y1209693D2*
X3151289D1*
X3269470D2*
X3318833D1*
X3100428Y1206701D2*
X3149791D1*
X3270969D2*
X3320332D1*
X3098928Y1203709D2*
X3148285D1*
X3272474D2*
X3321832D1*
X3097422Y1200717D2*
X3146693D1*
X3274066D2*
X3323338D1*
X3095830Y1197725D2*
X3144912D1*
X3275848D2*
X3324930D1*
X3094048Y1194733D2*
X3142985D1*
X3277775D2*
X3326712D1*
X3092121Y1191741D2*
X3141153D1*
X3279607D2*
X3328639D1*
X3090289Y1188749D2*
X3139471D1*
X3281289D2*
X3330471D1*
X3088607Y1185757D2*
X3137883D1*
X3282876D2*
X3332153D1*
X3087019Y1182765D2*
X3136352D1*
X3284408D2*
X3333740D1*
X3085488Y1179773D2*
X3134839D1*
X3285921D2*
X3335272D1*
X3083975Y1176781D2*
X3133340D1*
X3287420D2*
X3336785D1*
X3082464Y1173789D2*
X3131840D1*
X3288920D2*
X3338295D1*
X3080870Y1170797D2*
X3130345D1*
X3208884D2*
X3253764D1*
X3290414D2*
X3339889D1*
X3079088Y1167805D2*
X3128847D1*
X3208421D2*
X3252627D1*
X3291913D2*
X3341671D1*
X3077161Y1164813D2*
X3127353D1*
X3207668D2*
X3251341D1*
X3293407D2*
X3343599D1*
X3075329Y1161821D2*
X3125855D1*
X3206788D2*
X3249952D1*
X3294905D2*
X3345431D1*
X3073647Y1158829D2*
X3124349D1*
X3205883D2*
X3248510D1*
X3296399D2*
X3347113D1*
X3072059Y1155837D2*
X3122757D1*
X3204888D2*
X3247128D1*
X3297897D2*
X3348700D1*
X3070528Y1152845D2*
X3120976D1*
X3203982D2*
X3245924D1*
X3299402D2*
X3350232D1*
X3069015Y1149853D2*
X3119049D1*
X3203303D2*
X3244862D1*
X3300994D2*
X3351745D1*
X3067516Y1146861D2*
X3117217D1*
X3202624D2*
X3243702D1*
X3302764D2*
X3353244D1*
X3066016Y1143869D2*
X3115535D1*
X3201773D2*
X3242404D1*
X3304598D2*
X3354744D1*
X3064510Y1140877D2*
X3113947D1*
X3200939D2*
X3241093D1*
X3306153D2*
X3356250D1*
X3062918Y1137885D2*
X3112416D1*
X3200291D2*
X3239921D1*
X3307500D2*
X3357842D1*
X3061136Y1134893D2*
X3110903D1*
X3199625D2*
X3238871D1*
X3309037D2*
X3359624D1*
X3059209Y1131901D2*
X3109404D1*
X3198778D2*
X3237716D1*
X3310814D2*
X3361551D1*
X3057377Y1128909D2*
X3107904D1*
X3197946D2*
X3236419D1*
X3312571D2*
X3363383D1*
X3055695Y1125917D2*
X3106409D1*
X3197299D2*
X3235109D1*
X3314221D2*
X3365065D1*
X3054107Y1122925D2*
X3104911D1*
X3196632D2*
X3233936D1*
X3315796D2*
X3366652D1*
X3052576Y1119933D2*
X3103417D1*
X3195775D2*
X3232886D1*
X3317322D2*
X3368184D1*
X3051063Y1116941D2*
X3101919D1*
X3194849D2*
X3231732D1*
X3318834D2*
X3369697D1*
X3049564Y1113949D2*
X3100425D1*
X3193925D2*
X3230424D1*
X3320332D2*
X3371196D1*
X3048064Y1110957D2*
X3098927D1*
X3192924D2*
X3229020D1*
X3321832D2*
X3372696D1*
X3046569Y1107965D2*
X3097421D1*
X3192015D2*
X3227571D1*
X3323326D2*
X3374190D1*
X3045071Y1104973D2*
X3095829D1*
X3191335D2*
X3226186D1*
X3324825D2*
X3375689D1*
X3043565Y1101981D2*
X3094048D1*
X3190656D2*
X3224981D1*
X3326330D2*
X3377194D1*
X3041973Y1098989D2*
X3092121D1*
X3189805D2*
X3223918D1*
X3327922D2*
X3378786D1*
X3040192Y1095997D2*
X3090289D1*
X3188971D2*
X3222758D1*
X3329704D2*
X3380568D1*
X3038265Y1093005D2*
X3088607D1*
X3188323D2*
X3221460D1*
X3331631D2*
X3382495D1*
X3036433Y1090013D2*
X3087019D1*
X3187657D2*
X3220149D1*
X3333463D2*
X3384327D1*
X3034751Y1087021D2*
X3085488D1*
X3186799D2*
X3218977D1*
X3335145D2*
X3386009D1*
X3033163Y1084029D2*
X3083975D1*
X3185873D2*
X3217927D1*
X3336732D2*
X3387596D1*
X3031632Y1081037D2*
X3082476D1*
X3184949D2*
X3216772D1*
X3338264D2*
X3389128D1*
X3030119Y1078045D2*
X3080976D1*
X3183948D2*
X3215475D1*
X3339777D2*
X3390641D1*
X3028620Y1075053D2*
X3079481D1*
X3183039D2*
X3214165D1*
X3341276D2*
X3392140D1*
X3027120Y1072061D2*
X3077983D1*
X3182359D2*
X3212992D1*
X3342776D2*
X3393640D1*
X3025625Y1069069D2*
X3076489D1*
X3181680D2*
X3211942D1*
X3344270D2*
X3395134D1*
X3024127Y1066077D2*
X3074991D1*
X3180829D2*
X3210788D1*
X3274708D2*
X3277700D1*
X3345769D2*
X3396633D1*
X3022621Y1063085D2*
X3073485D1*
X3179995D2*
X3209480D1*
X3267229D2*
X3276677D1*
X3347274D2*
X3398138D1*
X3021029Y1060093D2*
X3071893D1*
X3179347D2*
X3208076D1*
X3260002D2*
X3275775D1*
X3348866D2*
X3399730D1*
X3019248Y1057101D2*
X3070112D1*
X3178681D2*
X3206627D1*
X3252854D2*
X3275102D1*
X3350648D2*
X3401512D1*
X3017321Y1054109D2*
X3068185D1*
X3177834D2*
X3205242D1*
X3245805D2*
X3274428D1*
X3352575D2*
X3403439D1*
X3015489Y1051117D2*
X3066353D1*
X3177002D2*
X3204037D1*
X3238840D2*
X3273579D1*
X3354407D2*
X3405271D1*
X3013807Y1048125D2*
X3064671D1*
X3176355D2*
X3202983D1*
X3231832D2*
X3272746D1*
X3356089D2*
X3406953D1*
X3012219Y1045133D2*
X3063083D1*
X3175688D2*
X3201903D1*
X3224935D2*
X3272099D1*
X3357676D2*
X3408540D1*
X3010688Y1042141D2*
X3061552D1*
X3174831D2*
X3200857D1*
X3218326D2*
X3271432D1*
X3359208D2*
X3410072D1*
X3009175Y1039149D2*
X3060039D1*
X3173905D2*
X3199908D1*
X3211876D2*
X3270586D1*
X3360721D2*
X3411585D1*
X3007676Y1036157D2*
X3058540D1*
X3172981D2*
X3269754D1*
X3362220D2*
X3413084D1*
X3006176Y1033165D2*
X3057040D1*
X3171980D2*
X3269107D1*
X3363720D2*
X3414584D1*
X3004670Y1030173D2*
X3055545D1*
X3171071D2*
X3268440D1*
X3365214D2*
X3416090D1*
X3003078Y1027181D2*
X3054047D1*
X3170391D2*
X3267594D1*
X3366713D2*
X3417682D1*
X3001296Y1024189D2*
X3052541D1*
X3169712D2*
X3266762D1*
X3368218D2*
X3419464D1*
X2999369Y1021197D2*
X3050949D1*
X3168861D2*
X3266115D1*
X3369810D2*
X3421391D1*
X2997537Y1018205D2*
X3049168D1*
X3168027D2*
X3265448D1*
X3371592D2*
X3423223D1*
X2995855Y1015213D2*
X3047241D1*
X3167379D2*
X3264602D1*
X3373519D2*
X3424905D1*
X2994267Y1012221D2*
X3045409D1*
X3166713D2*
X3263770D1*
X3375351D2*
X3426492D1*
X2992736Y1009229D2*
X3043727D1*
X3165866D2*
X3263123D1*
X3377033D2*
X3428024D1*
X2991223Y1006237D2*
X3042139D1*
X3165034D2*
X3262456D1*
X3378620D2*
X3429537D1*
X2989712Y1003245D2*
X3040608D1*
X3164387D2*
X3229714D1*
X3236400D2*
X3261610D1*
X3380152D2*
X3431047D1*
X2988118Y1000253D2*
X3039095D1*
X3163720D2*
X3223346D1*
X3234638D2*
X3260778D1*
X3381665D2*
X3432641D1*
X2986336Y997261D2*
X3037596D1*
X3162874D2*
X3216634D1*
X3233531D2*
X3260131D1*
X3383164D2*
X3434423D1*
X2984409Y994269D2*
X3036096D1*
X3162042D2*
X3209777D1*
X3232664D2*
X3259464D1*
X3384664D2*
X3436351D1*
X2982577Y991277D2*
X3034601D1*
X3161395D2*
X3202890D1*
X3231737D2*
X3258618D1*
X3386158D2*
X3438183D1*
X2980895Y988285D2*
X3033103D1*
X3160728D2*
X3195900D1*
X3230875D2*
X3257786D1*
X3387657D2*
X3439865D1*
X2979307Y985293D2*
X3031597D1*
X3159882D2*
X3188917D1*
X3230216D2*
X3257139D1*
X3389151D2*
X3441452D1*
X2977776Y982301D2*
X3030005D1*
X3159062D2*
X3181975D1*
X3229546D2*
X3256472D1*
X3390649D2*
X3442984D1*
X2976263Y979309D2*
X3028224D1*
X3158517D2*
X3174951D1*
X3228687D2*
X3255626D1*
X3392154D2*
X3444497D1*
X2974764Y976317D2*
X3026297D1*
X3158216D2*
X3167937D1*
X3227761D2*
X3254794D1*
X3393746D2*
X3445996D1*
X2973264Y973325D2*
X3024465D1*
X3158020D2*
X3161012D1*
X3226837D2*
X3254147D1*
X3395528D2*
X3447496D1*
X2971769Y970333D2*
X3022783D1*
X3225836D2*
X3253480D1*
X3397455D2*
X3448990D1*
X2970271Y967341D2*
X3021195D1*
X3224927D2*
X3252634D1*
X3399287D2*
X3450489D1*
X2968765Y964349D2*
X3019664D1*
X3224247D2*
X3251802D1*
X3400969D2*
X3451994D1*
X2967173Y961357D2*
X3018151D1*
X3223568D2*
X3251155D1*
X3402556D2*
X3453586D1*
X2965392Y958365D2*
X3016652D1*
X3222717D2*
X3250488D1*
X3404088D2*
X3455368D1*
X2963465Y955373D2*
X3015152D1*
X3221883D2*
X3249631D1*
X3405601D2*
X3457295D1*
X2961633Y952381D2*
X3013657D1*
X3221235D2*
X3248705D1*
X3407100D2*
X3459127D1*
X2959951Y949389D2*
X3012159D1*
X3220569D2*
X3247781D1*
X3408600D2*
X3460809D1*
X2958363Y946397D2*
X3010653D1*
X3219722D2*
X3246780D1*
X3410094D2*
X3462396D1*
X2956832Y943405D2*
X3009061D1*
X3218890D2*
X3245883D1*
X3411593D2*
X3463928D1*
X2955319Y940413D2*
X3007280D1*
X3218243D2*
X3245296D1*
X3413087D2*
X3465441D1*
X2953820Y937421D2*
X3005353D1*
X3217576D2*
X3244893D1*
X3414585D2*
X3466940D1*
X2952320Y934429D2*
X3003521D1*
X3216719D2*
X3244377D1*
X3416079D2*
X3468440D1*
X2950825Y931437D2*
X3001839D1*
X3215793D2*
X3243606D1*
X3417577D2*
X3469934D1*
X2949327Y928445D2*
X3000251D1*
X3214869D2*
X3242806D1*
X3419082D2*
X3471433D1*
X2947821Y925453D2*
X2998720D1*
X3213868D2*
X3242171D1*
X3420674D2*
X3472938D1*
X2946229Y922461D2*
X2997207D1*
X3212959D2*
X3241510D1*
X3422456D2*
X3474530D1*
X2944448Y919469D2*
X2995708D1*
X3212279D2*
X3240665D1*
X3424383D2*
X3476312D1*
X2942521Y916477D2*
X2994208D1*
X3211600D2*
X3239846D1*
X3426215D2*
X3478239D1*
X2940689Y913485D2*
X2992713D1*
X3210748D2*
X3239303D1*
X3427897D2*
X3480071D1*
X2939007Y910493D2*
X2991215D1*
X3209919D2*
X3239018D1*
X3429484D2*
X3481753D1*
X2937419Y907501D2*
X2989721D1*
X3209330D2*
X3238883D1*
X3431016D2*
X3483340D1*
X2935888Y904509D2*
X2988223D1*
X3193924D2*
X3250772D1*
X3432529D2*
X3484872D1*
X2934375Y901517D2*
X2986717D1*
X3194386D2*
X3250196D1*
X3434028D2*
X3486385D1*
X2932864Y898525D2*
X2985125D1*
X3195140D2*
X3249059D1*
X3435528D2*
X3487895D1*
X2931270Y895533D2*
X2983344D1*
X3196020D2*
X3247450D1*
X3437022D2*
X3489489D1*
X2929500Y892541D2*
X2981417D1*
X3196925D2*
X3245672D1*
X3438521D2*
X3491260D1*
X2927666Y889549D2*
X2979585D1*
X3197931D2*
X3243763D1*
X3440026D2*
X3493094D1*
X2926110Y886557D2*
X2977903D1*
X3198931D2*
X3241757D1*
X3441618D2*
X3494649D1*
X2924764Y883565D2*
X2976315D1*
X3199886D2*
X3239803D1*
X3443400D2*
X3495996D1*
X2923227Y880573D2*
X2974784D1*
X3200912D2*
X3237821D1*
X3445327D2*
X3497533D1*
X2921450Y877581D2*
X2973271D1*
X3201919D2*
X3235800D1*
X3447159D2*
X3499310D1*
X2919692Y874589D2*
X2971772D1*
X3202877D2*
X3233929D1*
X3448841D2*
X3501067D1*
X2918031Y871597D2*
X2970272D1*
X3203904D2*
X3232220D1*
X3450428D2*
X3502729D1*
X2916363Y868605D2*
X2968766D1*
X3204911D2*
X3230533D1*
X3451960D2*
X3504397D1*
X2914560Y865613D2*
X2967174D1*
X3205869D2*
X3228712D1*
X3453473D2*
X3506199D1*
X2912714Y862621D2*
X2965404D1*
X3206896D2*
X3226770D1*
X3454972D2*
X3508046D1*
X2911153Y859629D2*
X2963570D1*
X3207903D2*
X3224932D1*
X3456472D2*
X3509607D1*
X2909805Y856637D2*
X2962014D1*
X3208861D2*
X3223236D1*
X3457966D2*
X3510955D1*
X2908267Y853645D2*
X2960668D1*
X3209876D2*
X3221555D1*
X3459465D2*
X3512493D1*
X2906490Y850653D2*
X2959131D1*
X3210778D2*
X3219744D1*
X3460970D2*
X3514270D1*
X2904732Y847661D2*
X2957354D1*
X3211357D2*
X3217874D1*
X3462562D2*
X3516027D1*
X2903083Y844669D2*
X2955596D1*
X3211672D2*
X3216255D1*
X3464344D2*
X3517677D1*
X2901508Y841677D2*
X2953947D1*
X3211876D2*
X3214868D1*
X3466271D2*
X3519252D1*
X2899982Y838685D2*
X2952372D1*
X3468103D2*
X3520778D1*
X2898470Y835693D2*
X2950846D1*
X3469785D2*
X3522290D1*
X2896960Y832701D2*
X2949346D1*
X3471361D2*
X3523800D1*
X2895366Y829709D2*
X2947952D1*
X3472787D2*
X3525393D1*
X2893584Y826717D2*
X2946837D1*
X3473916D2*
X3527175D1*
X2891657Y823725D2*
X2946113D1*
X3474644D2*
X3529103D1*
X2889825Y820733D2*
X3530935D1*
X2888143Y817741D2*
X3532617D1*
X2886555Y814749D2*
X3534204D1*
X2885024Y811757D2*
X3535736D1*
X2883523Y808765D2*
X3537237D1*
X2882129Y805773D2*
X3538631D1*
X2881022Y802781D2*
X3539738D1*
X2880349Y799789D2*
X3540411D1*
X2880011Y796797D2*
X3540749D1*
X2879860Y793805D2*
X3540899D1*
X2879800Y790813D2*
X3540960D1*
X2879777Y787821D2*
X3540983D1*
X2879768Y784829D2*
X3540992D1*
X2879777Y781837D2*
X3540983D1*
X2879890Y778845D2*
X3540870D1*
X2880352Y775853D2*
X3540408D1*
X2881375Y772861D2*
X3539385D1*
X2882756Y769869D2*
X3538004D1*
X730065Y1354489D2*
X759985D1*
X728568Y1351497D2*
X761482D1*
X726831Y1348505D2*
X763220D1*
X725096Y1345513D2*
X764954D1*
X723445Y1342521D2*
X766605D1*
X721782Y1339529D2*
X768269D1*
X719969Y1336537D2*
X770081D1*
X718029Y1333545D2*
X772021D1*
X716193Y1330553D2*
X773858D1*
X714509Y1327561D2*
X775541D1*
X712921Y1324569D2*
X777129D1*
X711378Y1321577D2*
X778673D1*
X709771Y1318585D2*
X780279D1*
X707984Y1315593D2*
X782066D1*
X706055Y1312601D2*
X783995D1*
X704223Y1309609D2*
X785828D1*
X702529Y1306617D2*
X787522D1*
X700848Y1303625D2*
X789203D1*
X699029Y1300633D2*
X791022D1*
X697087Y1297641D2*
X792964D1*
X695249Y1294649D2*
X794801D1*
X693565Y1291657D2*
X796485D1*
X691977Y1288665D2*
X742507D1*
X747543D2*
X798073D1*
X690434Y1285673D2*
X740362D1*
X749688D2*
X799617D1*
X688827Y1282681D2*
X738526D1*
X751524D2*
X801223D1*
X687040Y1279689D2*
X736787D1*
X753264D2*
X803010D1*
X685111Y1276697D2*
X734945D1*
X755106D2*
X804939D1*
X683279Y1273705D2*
X732995D1*
X757056D2*
X806772D1*
X681585Y1270713D2*
X731155D1*
X758896D2*
X808466D1*
X679904Y1267721D2*
X729470D1*
X760581D2*
X810147D1*
X678085Y1264729D2*
X727881D1*
X762169D2*
X811966D1*
X676143Y1261737D2*
X726338D1*
X763712D2*
X813908D1*
X674305Y1258745D2*
X724731D1*
X765319D2*
X815745D1*
X672610Y1255753D2*
X722944D1*
X767106D2*
X817441D1*
X670928Y1252761D2*
X721015D1*
X769035D2*
X819122D1*
X669109Y1249769D2*
X719183D1*
X770868D2*
X820942D1*
X667167Y1246777D2*
X717489D1*
X772562D2*
X822884D1*
X665329Y1243785D2*
X715808D1*
X774243D2*
X824721D1*
X663645Y1240793D2*
X713989D1*
X776062D2*
X826405D1*
X662057Y1237801D2*
X712047D1*
X778004D2*
X827993D1*
X660514Y1234809D2*
X710209D1*
X779841D2*
X829537D1*
X658907Y1231817D2*
X708525D1*
X781525D2*
X831143D1*
X657120Y1228825D2*
X706937D1*
X783113D2*
X832930D1*
X655191Y1225833D2*
X705406D1*
X784645D2*
X834859D1*
X653359Y1222841D2*
X703892D1*
X786158D2*
X836692D1*
X651665Y1219849D2*
X702382D1*
X787669D2*
X838386D1*
X649984Y1216857D2*
X700788D1*
X789263D2*
X840067D1*
X648165Y1213865D2*
X699006D1*
X791045D2*
X841886D1*
X646223Y1210873D2*
X697078D1*
X792972D2*
X843828D1*
X644385Y1207881D2*
X695246D1*
X794804D2*
X845665D1*
X642701Y1204889D2*
X693564D1*
X796486D2*
X847349D1*
X641113Y1201897D2*
X691977D1*
X798074D2*
X848937D1*
X639570Y1198905D2*
X690434D1*
X799617D2*
X850481D1*
X637963Y1195913D2*
X688827D1*
X801223D2*
X852087D1*
X636176Y1192921D2*
X687040D1*
X803010D2*
X853874D1*
X634247Y1189929D2*
X685111D1*
X804939D2*
X855803D1*
X632415Y1186937D2*
X683279D1*
X806772D2*
X857636D1*
X630721Y1183945D2*
X681585D1*
X808466D2*
X859330D1*
X629040Y1180953D2*
X679904D1*
X810147D2*
X861011D1*
X627221Y1177961D2*
X678085D1*
X811966D2*
X862830D1*
X625279Y1174969D2*
X676143D1*
X813908D2*
X864772D1*
X623441Y1171977D2*
X674305D1*
X815745D2*
X866609D1*
X621757Y1168985D2*
X672621D1*
X817429D2*
X868293D1*
X620169Y1165993D2*
X671033D1*
X819017D2*
X869881D1*
X618626Y1163001D2*
X669490D1*
X820549D2*
X871425D1*
X617019Y1160009D2*
X667883D1*
X822062D2*
X873031D1*
X615232Y1157017D2*
X666096D1*
X823573D2*
X874818D1*
X613303Y1154025D2*
X664167D1*
X825167D2*
X876747D1*
X611471Y1151033D2*
X662335D1*
X742033D2*
X789905D1*
X826949D2*
X878580D1*
X609789Y1148041D2*
X660641D1*
X741571D2*
X788050D1*
X828876D2*
X880262D1*
X608201Y1145049D2*
X658960D1*
X740829D2*
X786344D1*
X830708D2*
X881850D1*
X606658Y1142057D2*
X657141D1*
X740043D2*
X784753D1*
X832402D2*
X883393D1*
X605051Y1139065D2*
X655199D1*
X739413D2*
X783308D1*
X834083D2*
X884999D1*
X603264Y1136073D2*
X653361D1*
X738754D2*
X782079D1*
X835902D2*
X886786D1*
X601335Y1133081D2*
X651677D1*
X737910D2*
X781008D1*
X837844D2*
X888715D1*
X599503Y1130089D2*
X650089D1*
X737079D2*
X779845D1*
X839681D2*
X890548D1*
X597809Y1127097D2*
X648558D1*
X736432D2*
X778534D1*
X841365D2*
X892242D1*
X596128Y1124105D2*
X647044D1*
X735766D2*
X777130D1*
X842953D2*
X893923D1*
X594309Y1121113D2*
X645534D1*
X734908D2*
X775669D1*
X844497D2*
X895742D1*
X592367Y1118121D2*
X643940D1*
X733982D2*
X774190D1*
X846103D2*
X897684D1*
X590529Y1115129D2*
X642158D1*
X733059D2*
X772697D1*
X847890D2*
X899521D1*
X588845Y1112137D2*
X640230D1*
X732057D2*
X771205D1*
X849819D2*
X901205D1*
X587257Y1109145D2*
X638398D1*
X731149D2*
X769719D1*
X851652D2*
X902793D1*
X585714Y1106153D2*
X636716D1*
X730468D2*
X768320D1*
X853334D2*
X904337D1*
X584107Y1103161D2*
X635129D1*
X729789D2*
X767109D1*
X854922D2*
X905943D1*
X582320Y1100169D2*
X633586D1*
X728927D2*
X766044D1*
X856465D2*
X907730D1*
X580380Y1097177D2*
X631979D1*
X727999D2*
X764884D1*
X858071D2*
X909671D1*
X578453Y1094185D2*
X630192D1*
X727075D2*
X763574D1*
X859858D2*
X911597D1*
X576484Y1091193D2*
X628263D1*
X726073D2*
X762170D1*
X861787D2*
X913567D1*
X574467Y1088201D2*
X626431D1*
X725165D2*
X760709D1*
X863620D2*
X915583D1*
X572597Y1085209D2*
X624749D1*
X724484D2*
X759230D1*
X865302D2*
X917453D1*
X570901Y1082217D2*
X623161D1*
X723805D2*
X757749D1*
X866890D2*
X919150D1*
X569308Y1079225D2*
X621618D1*
X722943D2*
X756351D1*
X868433D2*
X920743D1*
X567763Y1076233D2*
X620011D1*
X722015D2*
X755141D1*
X870039D2*
X922288D1*
X566155Y1073241D2*
X618224D1*
X721091D2*
X754076D1*
X871826D2*
X923895D1*
X564368Y1070249D2*
X616295D1*
X720089D2*
X752916D1*
X873755D2*
X925682D1*
X562439Y1067257D2*
X614463D1*
X719181D2*
X751606D1*
X875588D2*
X927611D1*
X560607Y1064265D2*
X612769D1*
X718500D2*
X750202D1*
X877270D2*
X929444D1*
X558925Y1061273D2*
X611088D1*
X717821D2*
X748753D1*
X878858D2*
X931126D1*
X557337Y1058281D2*
X609269D1*
X716959D2*
X747367D1*
X880401D2*
X932714D1*
X555794Y1055289D2*
X607327D1*
X716031D2*
X746162D1*
X882007D2*
X934257D1*
X554187Y1052297D2*
X605489D1*
X715107D2*
X745099D1*
X810849D2*
X813841D1*
X883794D2*
X935863D1*
X552400Y1049305D2*
X603805D1*
X714094D2*
X743940D1*
X802347D2*
X812818D1*
X885723D2*
X937650D1*
X550471Y1046313D2*
X602217D1*
X713092D2*
X742630D1*
X794230D2*
X811916D1*
X887556D2*
X939579D1*
X548639Y1043321D2*
X600674D1*
X712135D2*
X741226D1*
X786515D2*
X811244D1*
X889250D2*
X941412D1*
X546957Y1040329D2*
X599067D1*
X711121D2*
X739777D1*
X779173D2*
X810569D1*
X890931D2*
X943094D1*
X545369Y1037337D2*
X597280D1*
X710207D2*
X738391D1*
X772064D2*
X809709D1*
X892750D2*
X944682D1*
X543826Y1034345D2*
X595351D1*
X709525D2*
X737177D1*
X764887D2*
X808783D1*
X894692D2*
X946225D1*
X542219Y1031353D2*
X593519D1*
X708846D2*
X736043D1*
X757508D2*
X807859D1*
X896529D2*
X947831D1*
X540432Y1028361D2*
X591837D1*
X707983D2*
X734665D1*
X749868D2*
X806857D1*
X898213D2*
X949618D1*
X538503Y1025369D2*
X590249D1*
X707055D2*
X733057D1*
X742033D2*
X805949D1*
X899801D2*
X951547D1*
X536671Y1022377D2*
X588718D1*
X706131D2*
X805268D1*
X901333D2*
X953380D1*
X534977Y1019385D2*
X587204D1*
X705129D2*
X804589D1*
X902846D2*
X955074D1*
X533296Y1016393D2*
X585694D1*
X704221D2*
X803738D1*
X904357D2*
X956755D1*
X531477Y1013401D2*
X584100D1*
X703540D2*
X802904D1*
X905951D2*
X958574D1*
X529535Y1010409D2*
X582318D1*
X702861D2*
X802256D1*
X907733D2*
X960516D1*
X527697Y1007417D2*
X580390D1*
X702010D2*
X801590D1*
X909660D2*
X962353D1*
X526002Y1004425D2*
X578558D1*
X701176D2*
X800732D1*
X911492D2*
X964049D1*
X524320Y1001433D2*
X576865D1*
X700528D2*
X799806D1*
X913186D2*
X965730D1*
X522501Y998441D2*
X575184D1*
X699862D2*
X798883D1*
X914867D2*
X967550D1*
X520559Y995449D2*
X573365D1*
X699004D2*
X797881D1*
X916686D2*
X969492D1*
X518721Y992457D2*
X571423D1*
X698078D2*
X796973D1*
X918628D2*
X971329D1*
X517037Y989465D2*
X569585D1*
X697155D2*
X756519D1*
X768847D2*
X796292D1*
X920465D2*
X973013D1*
X515449Y986473D2*
X567901D1*
X696153D2*
X749688D1*
X768464D2*
X795613D1*
X922149D2*
X974601D1*
X513906Y983481D2*
X566313D1*
X695245D2*
X742537D1*
X767735D2*
X794762D1*
X923737D2*
X976145D1*
X512299Y980489D2*
X564770D1*
X694564D2*
X735195D1*
X766862D2*
X793928D1*
X925281D2*
X977751D1*
X510512Y977497D2*
X563163D1*
X693885D2*
X727679D1*
X765959D2*
X793280D1*
X926887D2*
X979538D1*
X508583Y974505D2*
X561376D1*
X693034D2*
X719949D1*
X764954D2*
X792614D1*
X928674D2*
X981467D1*
X506751Y971513D2*
X559447D1*
X692212D2*
X712150D1*
X763954D2*
X791756D1*
X930603D2*
X983300D1*
X505057Y968521D2*
X557615D1*
X691667D2*
X704720D1*
X762999D2*
X790830D1*
X932436D2*
X984994D1*
X503376Y965529D2*
X555921D1*
X691366D2*
X697814D1*
X761984D2*
X789907D1*
X934118D2*
X986675D1*
X501557Y962537D2*
X554240D1*
X691169D2*
D3*
X761071D2*
X788905D1*
X935706D2*
X988494D1*
X499615Y959545D2*
X552421D1*
X760389D2*
X787997D1*
X937249D2*
X990436D1*
X497777Y956553D2*
X550479D1*
X759710D2*
X787316D1*
X938855D2*
X992273D1*
X496093Y953561D2*
X548641D1*
X758847D2*
X786637D1*
X940642D2*
X993957D1*
X494505Y950569D2*
X546957D1*
X757919D2*
X785786D1*
X942571D2*
X995545D1*
X492962Y947577D2*
X545369D1*
X756995D2*
X784952D1*
X944404D2*
X997089D1*
X491355Y944585D2*
X543826D1*
X755993D2*
X784304D1*
X946098D2*
X998695D1*
X489568Y941593D2*
X542219D1*
X755085D2*
X783638D1*
X947779D2*
X1000482D1*
X487639Y938601D2*
X540432D1*
X754404D2*
X782792D1*
X949598D2*
X1002411D1*
X485807Y935609D2*
X538503D1*
X753725D2*
X781959D1*
X951540D2*
X1004244D1*
X484113Y932617D2*
X536671D1*
X752874D2*
X781312D1*
X953377D2*
X1005938D1*
X482432Y929625D2*
X534989D1*
X752040D2*
X780646D1*
X955061D2*
X1007619D1*
X480613Y926633D2*
X533401D1*
X751392D2*
X779788D1*
X956649D2*
X1009438D1*
X478671Y923641D2*
X531858D1*
X750726D2*
X778862D1*
X958181D2*
X1011380D1*
X476833Y920649D2*
X530251D1*
X749868D2*
X777939D1*
X959694D2*
X1013217D1*
X475149Y917657D2*
X528464D1*
X748942D2*
X776937D1*
X961205D2*
X1014901D1*
X473561Y914665D2*
X526535D1*
X748019D2*
X776029D1*
X962799D2*
X1016489D1*
X472018Y911673D2*
X524703D1*
X747017D2*
X775348D1*
X964581D2*
X1018033D1*
X470411Y908681D2*
X523021D1*
X746120D2*
X774667D1*
X966508D2*
X1019639D1*
X468624Y905689D2*
X521433D1*
X745543D2*
X773791D1*
X968340D2*
X1021426D1*
X466695Y902697D2*
X519890D1*
X745229D2*
X772843D1*
X970034D2*
X1023355D1*
X464863Y899705D2*
X518283D1*
X727073D2*
X771953D1*
X971715D2*
X1025188D1*
X463169Y896713D2*
X516496D1*
X728108D2*
X786913D1*
X973534D2*
X1026882D1*
X461488Y893721D2*
X514567D1*
X729103D2*
X784956D1*
X975476D2*
X1028563D1*
X459669Y890729D2*
X512735D1*
X730064D2*
X782959D1*
X977313D2*
X1030382D1*
X457727Y887737D2*
X511053D1*
X731179D2*
X780916D1*
X978997D2*
X1032324D1*
X455889Y884745D2*
X509465D1*
X732459D2*
X778945D1*
X980585D2*
X1034161D1*
X454205Y881753D2*
X507922D1*
X733752D2*
X776958D1*
X982117D2*
X1035845D1*
X452617Y878761D2*
X506315D1*
X734829D2*
X774923D1*
X983630D2*
X1037433D1*
X451074Y875769D2*
X504528D1*
X735590D2*
X772957D1*
X985141D2*
X1038977D1*
X449467Y872777D2*
X502599D1*
X736304D2*
X770972D1*
X986735D2*
X1040583D1*
X447680Y869785D2*
X500767D1*
X737180D2*
X768938D1*
X988517D2*
X1042370D1*
X445751Y866793D2*
X499073D1*
X738113D2*
X766973D1*
X990444D2*
X1044299D1*
X443919Y863801D2*
X497392D1*
X739050D2*
X764988D1*
X992276D2*
X1046132D1*
X442225Y860809D2*
X495573D1*
X740158D2*
X762954D1*
X993958D2*
X1047826D1*
X440544Y857817D2*
X493631D1*
X741436D2*
X760989D1*
X995546D2*
X1049507D1*
X438725Y854825D2*
X491793D1*
X742740D2*
X759004D1*
X997089D2*
X1051326D1*
X436783Y851833D2*
X490109D1*
X743910D2*
X756970D1*
X998695D2*
X1053268D1*
X434945Y848841D2*
X488521D1*
X744950D2*
X754994D1*
X1000482D2*
X1055105D1*
X433250Y845849D2*
X486990D1*
X746025D2*
X752911D1*
X1002411D2*
X1056801D1*
X431568Y842857D2*
X485476D1*
X747069D2*
X750543D1*
X1004244D2*
X1058482D1*
X429749Y839865D2*
X483966D1*
X748017D2*
D3*
X1005938D2*
X1060302D1*
X427807Y836873D2*
X482372D1*
X1007619D2*
X1062244D1*
X425969Y833881D2*
X480590D1*
X1009438D2*
X1064081D1*
X424285Y830889D2*
X478651D1*
X1011392D2*
X1065765D1*
X422697Y827897D2*
X476714D1*
X1013334D2*
X1067353D1*
X421154Y824905D2*
X474647D1*
X1015403D2*
X1068897D1*
X419547Y821913D2*
X472285D1*
X1017766D2*
X1070503D1*
X417760Y818921D2*
X1072290D1*
X415831Y815929D2*
X1074219D1*
X413999Y812937D2*
X1076052D1*
X412317Y809945D2*
X1077734D1*
X410741Y806953D2*
X1079310D1*
X409314Y803961D2*
X1080736D1*
X408194Y800969D2*
X1081856D1*
X407517Y797977D2*
X1082533D1*
X407177Y794985D2*
X1082874D1*
X407026Y791993D2*
X1083024D1*
X406965Y789001D2*
X1083085D1*
X406942Y786009D2*
X1083109D1*
X406945Y783017D2*
X1083105D1*
X407056Y780025D2*
X1082994D1*
X407518Y777033D2*
X1082533D1*
X408540Y774041D2*
X1081510D1*
X409921Y771049D2*
X1080129D1*
X3196916Y1383229D2*
X3195061Y1380237D1*
X3193354Y1377245D1*
X3191752Y1374253D1*
X3190202Y1371261D1*
X3188592Y1368269D1*
X3186804Y1365277D1*
X3184874Y1362285D1*
X3183041Y1359293D1*
X3181359Y1356301D1*
X3179772Y1353309D1*
X3178240Y1350317D1*
X3176727Y1347325D1*
X3175228Y1344333D1*
X3173728Y1341341D1*
X3172222Y1338349D1*
X3170630Y1335357D1*
X3168848Y1332365D1*
X3166921Y1329373D1*
X3165089Y1326381D1*
X3163407Y1323389D1*
X3161819Y1320397D1*
X3160288Y1317405D1*
X3158775Y1314413D1*
X3157264Y1311421D1*
X3155670Y1308429D1*
X3153888Y1305437D1*
X3151961Y1302445D1*
X3150129Y1299453D1*
X3148447Y1296461D1*
X3146859Y1293469D1*
X3145328Y1290477D1*
X3143815Y1287485D1*
X3142316Y1284493D1*
X3140816Y1281501D1*
X3139321Y1278509D1*
X3137823Y1275517D1*
X3136317Y1272525D1*
X3134725Y1269533D1*
X3132944Y1266541D1*
X3131017Y1263549D1*
X3129185Y1260557D1*
X3127503Y1257565D1*
X3125915Y1254573D1*
X3124384Y1251581D1*
X3122871Y1248589D1*
X3121372Y1245597D1*
X3119872Y1242605D1*
X3118377Y1239613D1*
X3116879Y1236621D1*
X3115373Y1233629D1*
X3113781Y1230637D1*
X3112000Y1227645D1*
X3110073Y1224653D1*
X3108241Y1221661D1*
X3106559Y1218669D1*
X3104971Y1215677D1*
X3103440Y1212685D1*
X3101927Y1209693D1*
X3100428Y1206701D1*
X3098928Y1203709D1*
X3097422Y1200717D1*
X3095830Y1197725D1*
X3094048Y1194733D1*
X3092121Y1191741D1*
X3090289Y1188749D1*
X3088607Y1185757D1*
X3087019Y1182765D1*
X3085488Y1179773D1*
X3083975Y1176781D1*
X3082464Y1173789D1*
X3080870Y1170797D1*
X3079088Y1167805D1*
X3077161Y1164813D1*
X3075329Y1161821D1*
X3073647Y1158829D1*
X3072059Y1155837D1*
X3070528Y1152845D1*
X3069015Y1149853D1*
X3067516Y1146861D1*
X3066016Y1143869D1*
X3064510Y1140877D1*
X3062918Y1137885D1*
X3061136Y1134893D1*
X3059209Y1131901D1*
X3057377Y1128909D1*
X3055695Y1125917D1*
X3054107Y1122925D1*
X3052576Y1119933D1*
X3051063Y1116941D1*
X3049564Y1113949D1*
X3048064Y1110957D1*
X3046569Y1107965D1*
X3045071Y1104973D1*
X3043565Y1101981D1*
X3041973Y1098989D1*
X3040192Y1095997D1*
X3038265Y1093005D1*
X3036433Y1090013D1*
X3034751Y1087021D1*
X3033163Y1084029D1*
X3031632Y1081037D1*
X3030119Y1078045D1*
X3028620Y1075053D1*
X3027120Y1072061D1*
X3025625Y1069069D1*
X3024127Y1066077D1*
X3022621Y1063085D1*
X3021029Y1060093D1*
X3019248Y1057101D1*
X3017321Y1054109D1*
X3015489Y1051117D1*
X3013807Y1048125D1*
X3012219Y1045133D1*
X3010688Y1042141D1*
X3009175Y1039149D1*
X3007676Y1036157D1*
X3006176Y1033165D1*
X3004670Y1030173D1*
X3003078Y1027181D1*
X3001296Y1024189D1*
X2999369Y1021197D1*
X2997537Y1018205D1*
X2995855Y1015213D1*
X2994267Y1012221D1*
X2992736Y1009229D1*
X2991223Y1006237D1*
X2989712Y1003245D1*
X2988118Y1000253D1*
X2986336Y997261D1*
X2984409Y994269D1*
X2982577Y991277D1*
X2980895Y988285D1*
X2979307Y985293D1*
X2977776Y982301D1*
X2976263Y979309D1*
X2974764Y976317D1*
X2973264Y973325D1*
X2971769Y970333D1*
X2970271Y967341D1*
X2968765Y964349D1*
X2967173Y961357D1*
X2965392Y958365D1*
X2963465Y955373D1*
X2961633Y952381D1*
X2959951Y949389D1*
X2958363Y946397D1*
X2956832Y943405D1*
X2955319Y940413D1*
X2953820Y937421D1*
X2952320Y934429D1*
X2950825Y931437D1*
X2949327Y928445D1*
X2947821Y925453D1*
X2946229Y922461D1*
X2944448Y919469D1*
X2942521Y916477D1*
X2940689Y913485D1*
X2939007Y910493D1*
X2937419Y907501D1*
X2935888Y904509D1*
X2934375Y901517D1*
X2932864Y898525D1*
X2931270Y895533D1*
X2929500Y892541D1*
X2927666Y889549D1*
X2926110Y886557D1*
X2924764Y883565D1*
X2923227Y880573D1*
X2921450Y877581D1*
X2919692Y874589D1*
X2918031Y871597D1*
X2916363Y868605D1*
X2914560Y865613D1*
X2912714Y862621D1*
X2911153Y859629D1*
X2909805Y856637D1*
X2908267Y853645D1*
X2906490Y850653D1*
X2904732Y847661D1*
X2903083Y844669D1*
X2901508Y841677D1*
X2899982Y838685D1*
X2898470Y835693D1*
X2896960Y832701D1*
X2895366Y829709D1*
X2893584Y826717D1*
X2891657Y823725D1*
X2889825Y820733D1*
X2888143Y817741D1*
X2886555Y814749D1*
X2885024Y811757D1*
X2883523Y808765D1*
X2882129Y805773D1*
X2881022Y802781D1*
X2880349Y799789D1*
X2880011Y796797D1*
X2879860Y793805D1*
X2879800Y790813D1*
X2879777Y787821D1*
X2879768Y784829D1*
X2879777Y781837D1*
X2879890Y778845D1*
X2880352Y775853D1*
X2881375Y772861D1*
X2882756Y769869D1*
X3223844Y1383229D2*
X3225699Y1380237D1*
X3227405Y1377245D1*
X3229008Y1374253D1*
X3230558Y1371261D1*
X3232168Y1368269D1*
X3233956Y1365277D1*
X3235886Y1362285D1*
X3237718Y1359293D1*
X3239401Y1356301D1*
X3240988Y1353309D1*
X3242520Y1350317D1*
X3244033Y1347325D1*
X3245532Y1344333D1*
X3247032Y1341341D1*
X3248538Y1338349D1*
X3250130Y1335357D1*
X3251912Y1332365D1*
X3253839Y1329373D1*
X3255671Y1326381D1*
X3257353Y1323389D1*
X3258940Y1320397D1*
X3260472Y1317405D1*
X3261985Y1314413D1*
X3263495Y1311421D1*
X3265089Y1308429D1*
X3266871Y1305437D1*
X3268799Y1302445D1*
X3270631Y1299453D1*
X3272313Y1296461D1*
X3273900Y1293469D1*
X3275432Y1290477D1*
X3276945Y1287485D1*
X3278444Y1284493D1*
X3279944Y1281501D1*
X3281438Y1278509D1*
X3282937Y1275517D1*
X3284442Y1272525D1*
X3286034Y1269533D1*
X3287816Y1266541D1*
X3289743Y1263549D1*
X3291575Y1260557D1*
X3293257Y1257565D1*
X3294844Y1254573D1*
X3296376Y1251581D1*
X3297889Y1248589D1*
X3299388Y1245597D1*
X3300888Y1242605D1*
X3302382Y1239613D1*
X3303881Y1236621D1*
X3305386Y1233629D1*
X3306978Y1230637D1*
X3308760Y1227645D1*
X3310687Y1224653D1*
X3312519Y1221661D1*
X3314201Y1218669D1*
X3315788Y1215677D1*
X3317320Y1212685D1*
X3318833Y1209693D1*
X3320332Y1206701D1*
X3321832Y1203709D1*
X3323338Y1200717D1*
X3324930Y1197725D1*
X3326712Y1194733D1*
X3328639Y1191741D1*
X3330471Y1188749D1*
X3332153Y1185757D1*
X3333740Y1182765D1*
X3335272Y1179773D1*
X3336785Y1176781D1*
X3338295Y1173789D1*
X3339889Y1170797D1*
X3341671Y1167805D1*
X3343599Y1164813D1*
X3345431Y1161821D1*
X3347113Y1158829D1*
X3348700Y1155837D1*
X3350232Y1152845D1*
X3351745Y1149853D1*
X3353244Y1146861D1*
X3354744Y1143869D1*
X3356250Y1140877D1*
X3357842Y1137885D1*
X3359624Y1134893D1*
X3361551Y1131901D1*
X3363383Y1128909D1*
X3365065Y1125917D1*
X3366652Y1122925D1*
X3368184Y1119933D1*
X3369697Y1116941D1*
X3371196Y1113949D1*
X3372696Y1110957D1*
X3374190Y1107965D1*
X3375689Y1104973D1*
X3377194Y1101981D1*
X3378786Y1098989D1*
X3380568Y1095997D1*
X3382495Y1093005D1*
X3384327Y1090013D1*
X3386009Y1087021D1*
X3387596Y1084029D1*
X3389128Y1081037D1*
X3390641Y1078045D1*
X3392140Y1075053D1*
X3393640Y1072061D1*
X3395134Y1069069D1*
X3396633Y1066077D1*
X3398138Y1063085D1*
X3399730Y1060093D1*
X3401512Y1057101D1*
X3403439Y1054109D1*
X3405271Y1051117D1*
X3406953Y1048125D1*
X3408540Y1045133D1*
X3410072Y1042141D1*
X3411585Y1039149D1*
X3413084Y1036157D1*
X3414584Y1033165D1*
X3416090Y1030173D1*
X3417682Y1027181D1*
X3419464Y1024189D1*
X3421391Y1021197D1*
X3423223Y1018205D1*
X3424905Y1015213D1*
X3426492Y1012221D1*
X3428024Y1009229D1*
X3429537Y1006237D1*
X3431047Y1003245D1*
X3432641Y1000253D1*
X3434423Y997261D1*
X3436351Y994269D1*
X3438183Y991277D1*
X3439865Y988285D1*
X3441452Y985293D1*
X3442984Y982301D1*
X3444497Y979309D1*
X3445996Y976317D1*
X3447496Y973325D1*
X3448990Y970333D1*
X3450489Y967341D1*
X3451994Y964349D1*
X3453586Y961357D1*
X3455368Y958365D1*
X3457295Y955373D1*
X3459127Y952381D1*
X3460809Y949389D1*
X3462396Y946397D1*
X3463928Y943405D1*
X3465441Y940413D1*
X3466940Y937421D1*
X3468440Y934429D1*
X3469934Y931437D1*
X3471433Y928445D1*
X3472938Y925453D1*
X3474530Y922461D1*
X3476312Y919469D1*
X3478239Y916477D1*
X3480071Y913485D1*
X3481753Y910493D1*
X3483340Y907501D1*
X3484872Y904509D1*
X3486385Y901517D1*
X3487895Y898525D1*
X3489489Y895533D1*
X3491260Y892541D1*
X3493094Y889549D1*
X3494649Y886557D1*
X3495996Y883565D1*
X3497533Y880573D1*
X3499310Y877581D1*
X3501067Y874589D1*
X3502729Y871597D1*
X3504397Y868605D1*
X3506199Y865613D1*
X3508046Y862621D1*
X3509607Y859629D1*
X3510955Y856637D1*
X3512493Y853645D1*
X3514270Y850653D1*
X3516027Y847661D1*
X3517677Y844669D1*
X3519252Y841677D1*
X3520778Y838685D1*
X3522290Y835693D1*
X3523800Y832701D1*
X3525393Y829709D1*
X3527175Y826717D1*
X3529103Y823725D1*
X3530935Y820733D1*
X3532617Y817741D1*
X3534204Y814749D1*
X3535736Y811757D1*
X3537237Y808765D1*
X3538631Y805773D1*
X3539738Y802781D1*
X3540411Y799789D1*
X3540749Y796797D1*
X3540899Y793805D1*
X3540960Y790813D1*
X3540983Y787821D1*
X3540992Y784829D1*
X3540983Y781837D1*
X3540870Y778845D1*
X3540408Y775853D1*
X3539385Y772861D1*
X3538004Y769869D1*
X3208884Y1314413D2*
X3206366Y1311421D1*
X3204221Y1308429D1*
X3202397Y1305437D1*
X3200750Y1302445D1*
X3199197Y1299453D1*
X3197675Y1296461D1*
X3196173Y1293469D1*
X3194672Y1290477D1*
X3193178Y1287485D1*
X3191679Y1284493D1*
X3190173Y1281501D1*
X3188581Y1278509D1*
X3186800Y1275517D1*
X3184873Y1272525D1*
X3183041Y1269533D1*
X3181359Y1266541D1*
X3179771Y1263549D1*
X3178240Y1260557D1*
X3176727Y1257565D1*
X3175228Y1254573D1*
X3173728Y1251581D1*
X3172233Y1248589D1*
X3170735Y1245597D1*
X3169229Y1242605D1*
X3167637Y1239613D1*
X3165856Y1236621D1*
X3163929Y1233629D1*
X3162097Y1230637D1*
X3160415Y1227645D1*
X3158827Y1224653D1*
X3157296Y1221661D1*
X3155783Y1218669D1*
X3154284Y1215677D1*
X3152784Y1212685D1*
X3151289Y1209693D1*
X3149791Y1206701D1*
X3148285Y1203709D1*
X3146693Y1200717D1*
X3144912Y1197725D1*
X3142985Y1194733D1*
X3141153Y1191741D1*
X3139471Y1188749D1*
X3137883Y1185757D1*
X3136352Y1182765D1*
X3134839Y1179773D1*
X3133340Y1176781D1*
X3131840Y1173789D1*
X3130345Y1170797D1*
X3128847Y1167805D1*
X3127353Y1164813D1*
X3125855Y1161821D1*
X3124349Y1158829D1*
X3122757Y1155837D1*
X3120976Y1152845D1*
X3119049Y1149853D1*
X3117217Y1146861D1*
X3115535Y1143869D1*
X3113947Y1140877D1*
X3112416Y1137885D1*
X3110903Y1134893D1*
X3109404Y1131901D1*
X3107904Y1128909D1*
X3106409Y1125917D1*
X3104911Y1122925D1*
X3103417Y1119933D1*
X3101919Y1116941D1*
X3100425Y1113949D1*
X3098927Y1110957D1*
X3097421Y1107965D1*
X3095829Y1104973D1*
X3094048Y1101981D1*
X3092121Y1098989D1*
X3090289Y1095997D1*
X3088607Y1093005D1*
X3087019Y1090013D1*
X3085488Y1087021D1*
X3083975Y1084029D1*
X3082476Y1081037D1*
X3080976Y1078045D1*
X3079481Y1075053D1*
X3077983Y1072061D1*
X3076489Y1069069D1*
X3074991Y1066077D1*
X3073485Y1063085D1*
X3071893Y1060093D1*
X3070112Y1057101D1*
X3068185Y1054109D1*
X3066353Y1051117D1*
X3064671Y1048125D1*
X3063083Y1045133D1*
X3061552Y1042141D1*
X3060039Y1039149D1*
X3058540Y1036157D1*
X3057040Y1033165D1*
X3055545Y1030173D1*
X3054047Y1027181D1*
X3052541Y1024189D1*
X3050949Y1021197D1*
X3049168Y1018205D1*
X3047241Y1015213D1*
X3045409Y1012221D1*
X3043727Y1009229D1*
X3042139Y1006237D1*
X3040608Y1003245D1*
X3039095Y1000253D1*
X3037596Y997261D1*
X3036096Y994269D1*
X3034601Y991277D1*
X3033103Y988285D1*
X3031597Y985293D1*
X3030005Y982301D1*
X3028224Y979309D1*
X3026297Y976317D1*
X3024465Y973325D1*
X3022783Y970333D1*
X3021195Y967341D1*
X3019664Y964349D1*
X3018151Y961357D1*
X3016652Y958365D1*
X3015152Y955373D1*
X3013657Y952381D1*
X3012159Y949389D1*
X3010653Y946397D1*
X3009061Y943405D1*
X3007280Y940413D1*
X3005353Y937421D1*
X3003521Y934429D1*
X3001839Y931437D1*
X3000251Y928445D1*
X2998720Y925453D1*
X2997207Y922461D1*
X2995708Y919469D1*
X2994208Y916477D1*
X2992713Y913485D1*
X2991215Y910493D1*
X2989721Y907501D1*
X2988223Y904509D1*
X2986717Y901517D1*
X2985125Y898525D1*
X2983344Y895533D1*
X2981417Y892541D1*
X2979585Y889549D1*
X2977903Y886557D1*
X2976315Y883565D1*
X2974784Y880573D1*
X2973271Y877581D1*
X2971772Y874589D1*
X2970272Y871597D1*
X2968766Y868605D1*
X2967174Y865613D1*
X2965404Y862621D1*
X2963570Y859629D1*
X2962014Y856637D1*
X2960668Y853645D1*
X2959131Y850653D1*
X2957354Y847661D1*
X2955596Y844669D1*
X2953947Y841677D1*
X2952372Y838685D1*
X2950846Y835693D1*
X2949346Y832701D1*
X2947952Y829709D1*
X2946837Y826717D1*
X2946113Y823725D1*
X2945588Y820733D1*
X3211876Y1314413D2*
X3214394Y1311421D1*
X3216539Y1308429D1*
X3218363Y1305437D1*
X3220009Y1302445D1*
X3221563Y1299453D1*
X3223084Y1296461D1*
X3224586Y1293469D1*
X3226088Y1290477D1*
X3227582Y1287485D1*
X3229081Y1284493D1*
X3230586Y1281501D1*
X3232178Y1278509D1*
X3233960Y1275517D1*
X3235887Y1272525D1*
X3237719Y1269533D1*
X3239401Y1266541D1*
X3240988Y1263549D1*
X3242520Y1260557D1*
X3244033Y1257565D1*
X3245532Y1254573D1*
X3247032Y1251581D1*
X3248526Y1248589D1*
X3250025Y1245597D1*
X3251530Y1242605D1*
X3253122Y1239613D1*
X3254904Y1236621D1*
X3256831Y1233629D1*
X3258663Y1230637D1*
X3260345Y1227645D1*
X3261932Y1224653D1*
X3263464Y1221661D1*
X3264977Y1218669D1*
X3266476Y1215677D1*
X3267976Y1212685D1*
X3269470Y1209693D1*
X3270969Y1206701D1*
X3272474Y1203709D1*
X3274066Y1200717D1*
X3275848Y1197725D1*
X3277775Y1194733D1*
X3279607Y1191741D1*
X3281289Y1188749D1*
X3282876Y1185757D1*
X3284408Y1182765D1*
X3285921Y1179773D1*
X3287420Y1176781D1*
X3288920Y1173789D1*
X3290414Y1170797D1*
X3291913Y1167805D1*
X3293407Y1164813D1*
X3294905Y1161821D1*
X3296399Y1158829D1*
X3297897Y1155837D1*
X3299402Y1152845D1*
X3300994Y1149853D1*
X3302764Y1146861D1*
X3304598Y1143869D1*
X3306153Y1140877D1*
X3307500Y1137885D1*
X3309037Y1134893D1*
X3310814Y1131901D1*
X3312571Y1128909D1*
X3314221Y1125917D1*
X3315796Y1122925D1*
X3317322Y1119933D1*
X3318834Y1116941D1*
X3320332Y1113949D1*
X3321832Y1110957D1*
X3323326Y1107965D1*
X3324825Y1104973D1*
X3326330Y1101981D1*
X3327922Y1098989D1*
X3329704Y1095997D1*
X3331631Y1093005D1*
X3333463Y1090013D1*
X3335145Y1087021D1*
X3336732Y1084029D1*
X3338264Y1081037D1*
X3339777Y1078045D1*
X3341276Y1075053D1*
X3342776Y1072061D1*
X3344270Y1069069D1*
X3345769Y1066077D1*
X3347274Y1063085D1*
X3348866Y1060093D1*
X3350648Y1057101D1*
X3352575Y1054109D1*
X3354407Y1051117D1*
X3356089Y1048125D1*
X3357676Y1045133D1*
X3359208Y1042141D1*
X3360721Y1039149D1*
X3362220Y1036157D1*
X3363720Y1033165D1*
X3365214Y1030173D1*
X3366713Y1027181D1*
X3368218Y1024189D1*
X3369810Y1021197D1*
X3371592Y1018205D1*
X3373519Y1015213D1*
X3375351Y1012221D1*
X3377033Y1009229D1*
X3378620Y1006237D1*
X3380152Y1003245D1*
X3381665Y1000253D1*
X3383164Y997261D1*
X3384664Y994269D1*
X3386158Y991277D1*
X3387657Y988285D1*
X3389151Y985293D1*
X3390649Y982301D1*
X3392154Y979309D1*
X3393746Y976317D1*
X3395528Y973325D1*
X3397455Y970333D1*
X3399287Y967341D1*
X3400969Y964349D1*
X3402556Y961357D1*
X3404088Y958365D1*
X3405601Y955373D1*
X3407100Y952381D1*
X3408600Y949389D1*
X3410094Y946397D1*
X3411593Y943405D1*
X3413087Y940413D1*
X3414585Y937421D1*
X3416079Y934429D1*
X3417577Y931437D1*
X3419082Y928445D1*
X3420674Y925453D1*
X3422456Y922461D1*
X3424383Y919469D1*
X3426215Y916477D1*
X3427897Y913485D1*
X3429484Y910493D1*
X3431016Y907501D1*
X3432529Y904509D1*
X3434028Y901517D1*
X3435528Y898525D1*
X3437022Y895533D1*
X3438521Y892541D1*
X3440026Y889549D1*
X3441618Y886557D1*
X3443400Y883565D1*
X3445327Y880573D1*
X3447159Y877581D1*
X3448841Y874589D1*
X3450428Y871597D1*
X3451960Y868605D1*
X3453473Y865613D1*
X3454972Y862621D1*
X3456472Y859629D1*
X3457966Y856637D1*
X3459465Y853645D1*
X3460970Y850653D1*
X3462562Y847661D1*
X3464344Y844669D1*
X3466271Y841677D1*
X3468103Y838685D1*
X3469785Y835693D1*
X3471361Y832701D1*
X3472787Y829709D1*
X3473916Y826717D1*
X3474644Y823725D1*
X3475172Y820733D1*
X3208884Y1170797D2*
X3208421Y1167805D1*
X3207668Y1164813D1*
X3206788Y1161821D1*
X3205883Y1158829D1*
X3204888Y1155837D1*
X3203982Y1152845D1*
X3203303Y1149853D1*
X3202624Y1146861D1*
X3201773Y1143869D1*
X3200939Y1140877D1*
X3200291Y1137885D1*
X3199625Y1134893D1*
X3198778Y1131901D1*
X3197946Y1128909D1*
X3197299Y1125917D1*
X3196632Y1122925D1*
X3195775Y1119933D1*
X3194849Y1116941D1*
X3193925Y1113949D1*
X3192924Y1110957D1*
X3192015Y1107965D1*
X3191335Y1104973D1*
X3190656Y1101981D1*
X3189805Y1098989D1*
X3188971Y1095997D1*
X3188323Y1093005D1*
X3187657Y1090013D1*
X3186799Y1087021D1*
X3185873Y1084029D1*
X3184949Y1081037D1*
X3183948Y1078045D1*
X3183039Y1075053D1*
X3182359Y1072061D1*
X3181680Y1069069D1*
X3180829Y1066077D1*
X3179995Y1063085D1*
X3179347Y1060093D1*
X3178681Y1057101D1*
X3177834Y1054109D1*
X3177002Y1051117D1*
X3176355Y1048125D1*
X3175688Y1045133D1*
X3174831Y1042141D1*
X3173905Y1039149D1*
X3172981Y1036157D1*
X3171980Y1033165D1*
X3171071Y1030173D1*
X3170391Y1027181D1*
X3169712Y1024189D1*
X3168861Y1021197D1*
X3168027Y1018205D1*
X3167379Y1015213D1*
X3166713Y1012221D1*
X3165866Y1009229D1*
X3165034Y1006237D1*
X3164387Y1003245D1*
X3163720Y1000253D1*
X3162874Y997261D1*
X3162042Y994269D1*
X3161395Y991277D1*
X3160728Y988285D1*
X3159882Y985293D1*
X3159062Y982301D1*
X3158517Y979309D1*
X3158216Y976317D1*
X3158020Y973325D1*
X3253764Y1170797D2*
X3252627Y1167805D1*
X3251341Y1164813D1*
X3249952Y1161821D1*
X3248510Y1158829D1*
X3247128Y1155837D1*
X3245924Y1152845D1*
X3244862Y1149853D1*
X3243702Y1146861D1*
X3242404Y1143869D1*
X3241093Y1140877D1*
X3239921Y1137885D1*
X3238871Y1134893D1*
X3237716Y1131901D1*
X3236419Y1128909D1*
X3235109Y1125917D1*
X3233936Y1122925D1*
X3232886Y1119933D1*
X3231732Y1116941D1*
X3230424Y1113949D1*
X3229020Y1110957D1*
X3227571Y1107965D1*
X3226186Y1104973D1*
X3224981Y1101981D1*
X3223918Y1098989D1*
X3222758Y1095997D1*
X3221460Y1093005D1*
X3220149Y1090013D1*
X3218977Y1087021D1*
X3217927Y1084029D1*
X3216772Y1081037D1*
X3215475Y1078045D1*
X3214165Y1075053D1*
X3212992Y1072061D1*
X3211942Y1069069D1*
X3210788Y1066077D1*
X3209480Y1063085D1*
X3208076Y1060093D1*
X3206627Y1057101D1*
X3205242Y1054109D1*
X3204037Y1051117D1*
X3202983Y1048125D1*
X3201903Y1045133D1*
X3200857Y1042141D1*
X3199908Y1039149D1*
X3274708Y1066077D2*
X3267229Y1063085D1*
X3260002Y1060093D1*
X3252854Y1057101D1*
X3245805Y1054109D1*
X3238840Y1051117D1*
X3231832Y1048125D1*
X3224935Y1045133D1*
X3218326Y1042141D1*
X3211876Y1039149D1*
X3277700Y1066077D2*
X3276677Y1063085D1*
X3275775Y1060093D1*
X3275102Y1057101D1*
X3274428Y1054109D1*
X3273579Y1051117D1*
X3272746Y1048125D1*
X3272099Y1045133D1*
X3271432Y1042141D1*
X3270586Y1039149D1*
X3269754Y1036157D1*
X3269107Y1033165D1*
X3268440Y1030173D1*
X3267594Y1027181D1*
X3266762Y1024189D1*
X3266115Y1021197D1*
X3265448Y1018205D1*
X3264602Y1015213D1*
X3263770Y1012221D1*
X3263123Y1009229D1*
X3262456Y1006237D1*
X3261610Y1003245D1*
X3260778Y1000253D1*
X3260131Y997261D1*
X3259464Y994269D1*
X3258618Y991277D1*
X3257786Y988285D1*
X3257139Y985293D1*
X3256472Y982301D1*
X3255626Y979309D1*
X3254794Y976317D1*
X3254147Y973325D1*
X3253480Y970333D1*
X3252634Y967341D1*
X3251802Y964349D1*
X3251155Y961357D1*
X3250488Y958365D1*
X3249631Y955373D1*
X3248705Y952381D1*
X3247781Y949389D1*
X3246780Y946397D1*
X3245883Y943405D1*
X3245296Y940413D1*
X3244893Y937421D1*
X3244377Y934429D1*
X3243606Y931437D1*
X3242806Y928445D1*
X3242171Y925453D1*
X3241510Y922461D1*
X3240665Y919469D1*
X3239846Y916477D1*
X3239303Y913485D1*
X3239018Y910493D1*
X3238883Y907501D1*
X3238804Y904509D1*
X3250772D1*
X3250196Y901517D1*
X3249059Y898525D1*
X3247450Y895533D1*
X3245672Y892541D1*
X3243763Y889549D1*
X3241757Y886557D1*
X3239803Y883565D1*
X3237821Y880573D1*
X3235800Y877581D1*
X3233929Y874589D1*
X3232220Y871597D1*
X3230533Y868605D1*
X3228712Y865613D1*
X3226770Y862621D1*
X3224932Y859629D1*
X3223236Y856637D1*
X3221555Y853645D1*
X3219744Y850653D1*
X3217874Y847661D1*
X3216255Y844669D1*
X3214868Y841677D1*
X3235812Y1006237D2*
X3229714Y1003245D1*
X3223346Y1000253D1*
X3216634Y997261D1*
X3209777Y994269D1*
X3202890Y991277D1*
X3195900Y988285D1*
X3188917Y985293D1*
X3181975Y982301D1*
X3174951Y979309D1*
X3167937Y976317D1*
X3161012Y973325D1*
X3238804Y1006237D2*
X3236400Y1003245D1*
X3234638Y1000253D1*
X3233531Y997261D1*
X3232664Y994269D1*
X3231737Y991277D1*
X3230875Y988285D1*
X3230216Y985293D1*
X3229546Y982301D1*
X3228687Y979309D1*
X3227761Y976317D1*
X3226837Y973325D1*
X3225836Y970333D1*
X3224927Y967341D1*
X3224247Y964349D1*
X3223568Y961357D1*
X3222717Y958365D1*
X3221883Y955373D1*
X3221235Y952381D1*
X3220569Y949389D1*
X3219722Y946397D1*
X3218890Y943405D1*
X3218243Y940413D1*
X3217576Y937421D1*
X3216719Y934429D1*
X3215793Y931437D1*
X3214869Y928445D1*
X3213868Y925453D1*
X3212959Y922461D1*
X3212279Y919469D1*
X3211600Y916477D1*
X3210748Y913485D1*
X3209919Y910493D1*
X3209330Y907501D1*
X3208884Y904509D1*
X3193924D1*
X3194386Y901517D1*
X3195140Y898525D1*
X3196020Y895533D1*
X3196925Y892541D1*
X3197931Y889549D1*
X3198931Y886557D1*
X3199886Y883565D1*
X3200912Y880573D1*
X3201919Y877581D1*
X3202877Y874589D1*
X3203904Y871597D1*
X3204911Y868605D1*
X3205869Y865613D1*
X3206896Y862621D1*
X3207903Y859629D1*
X3208861Y856637D1*
X3209876Y853645D1*
X3210778Y850653D1*
X3211357Y847661D1*
X3211672Y844669D1*
X3211876Y841677D1*
X730065Y1354489D2*
X728568Y1351497D1*
X726831Y1348505D1*
X725096Y1345513D1*
X723445Y1342521D1*
X721782Y1339529D1*
X719969Y1336537D1*
X718029Y1333545D1*
X716193Y1330553D1*
X714509Y1327561D1*
X712921Y1324569D1*
X711378Y1321577D1*
X709771Y1318585D1*
X707984Y1315593D1*
X706055Y1312601D1*
X704223Y1309609D1*
X702529Y1306617D1*
X700848Y1303625D1*
X699029Y1300633D1*
X697087Y1297641D1*
X695249Y1294649D1*
X693565Y1291657D1*
X691977Y1288665D1*
X690434Y1285673D1*
X688827Y1282681D1*
X687040Y1279689D1*
X685111Y1276697D1*
X683279Y1273705D1*
X681585Y1270713D1*
X679904Y1267721D1*
X678085Y1264729D1*
X676143Y1261737D1*
X674305Y1258745D1*
X672610Y1255753D1*
X670928Y1252761D1*
X669109Y1249769D1*
X667167Y1246777D1*
X665329Y1243785D1*
X663645Y1240793D1*
X662057Y1237801D1*
X660514Y1234809D1*
X658907Y1231817D1*
X657120Y1228825D1*
X655191Y1225833D1*
X653359Y1222841D1*
X651665Y1219849D1*
X649984Y1216857D1*
X648165Y1213865D1*
X646223Y1210873D1*
X644385Y1207881D1*
X642701Y1204889D1*
X641113Y1201897D1*
X639570Y1198905D1*
X637963Y1195913D1*
X636176Y1192921D1*
X634247Y1189929D1*
X632415Y1186937D1*
X630721Y1183945D1*
X629040Y1180953D1*
X627221Y1177961D1*
X625279Y1174969D1*
X623441Y1171977D1*
X621757Y1168985D1*
X620169Y1165993D1*
X618626Y1163001D1*
X617019Y1160009D1*
X615232Y1157017D1*
X613303Y1154025D1*
X611471Y1151033D1*
X609789Y1148041D1*
X608201Y1145049D1*
X606658Y1142057D1*
X605051Y1139065D1*
X603264Y1136073D1*
X601335Y1133081D1*
X599503Y1130089D1*
X597809Y1127097D1*
X596128Y1124105D1*
X594309Y1121113D1*
X592367Y1118121D1*
X590529Y1115129D1*
X588845Y1112137D1*
X587257Y1109145D1*
X585714Y1106153D1*
X584107Y1103161D1*
X582320Y1100169D1*
X580380Y1097177D1*
X578453Y1094185D1*
X576484Y1091193D1*
X574467Y1088201D1*
X572597Y1085209D1*
X570901Y1082217D1*
X569308Y1079225D1*
X567763Y1076233D1*
X566155Y1073241D1*
X564368Y1070249D1*
X562439Y1067257D1*
X560607Y1064265D1*
X558925Y1061273D1*
X557337Y1058281D1*
X555794Y1055289D1*
X554187Y1052297D1*
X552400Y1049305D1*
X550471Y1046313D1*
X548639Y1043321D1*
X546957Y1040329D1*
X545369Y1037337D1*
X543826Y1034345D1*
X542219Y1031353D1*
X540432Y1028361D1*
X538503Y1025369D1*
X536671Y1022377D1*
X534977Y1019385D1*
X533296Y1016393D1*
X531477Y1013401D1*
X529535Y1010409D1*
X527697Y1007417D1*
X526002Y1004425D1*
X524320Y1001433D1*
X522501Y998441D1*
X520559Y995449D1*
X518721Y992457D1*
X517037Y989465D1*
X515449Y986473D1*
X513906Y983481D1*
X512299Y980489D1*
X510512Y977497D1*
X508583Y974505D1*
X506751Y971513D1*
X505057Y968521D1*
X503376Y965529D1*
X501557Y962537D1*
X499615Y959545D1*
X497777Y956553D1*
X496093Y953561D1*
X494505Y950569D1*
X492962Y947577D1*
X491355Y944585D1*
X489568Y941593D1*
X487639Y938601D1*
X485807Y935609D1*
X484113Y932617D1*
X482432Y929625D1*
X480613Y926633D1*
X478671Y923641D1*
X476833Y920649D1*
X475149Y917657D1*
X473561Y914665D1*
X472018Y911673D1*
X470411Y908681D1*
X468624Y905689D1*
X466695Y902697D1*
X464863Y899705D1*
X463169Y896713D1*
X461488Y893721D1*
X459669Y890729D1*
X457727Y887737D1*
X455889Y884745D1*
X454205Y881753D1*
X452617Y878761D1*
X451074Y875769D1*
X449467Y872777D1*
X447680Y869785D1*
X445751Y866793D1*
X443919Y863801D1*
X442225Y860809D1*
X440544Y857817D1*
X438725Y854825D1*
X436783Y851833D1*
X434945Y848841D1*
X433250Y845849D1*
X431568Y842857D1*
X429749Y839865D1*
X427807Y836873D1*
X425969Y833881D1*
X424285Y830889D1*
X422697Y827897D1*
X421154Y824905D1*
X419547Y821913D1*
X417760Y818921D1*
X415831Y815929D1*
X413999Y812937D1*
X412317Y809945D1*
X410741Y806953D1*
X409314Y803961D1*
X408194Y800969D1*
X407517Y797977D1*
X407177Y794985D1*
X407026Y791993D1*
X406965Y789001D1*
X406942Y786009D1*
X406945Y783017D1*
X407056Y780025D1*
X407518Y777033D1*
X408540Y774041D1*
X409921Y771049D1*
X759985Y1354489D2*
X761482Y1351497D1*
X763220Y1348505D1*
X764954Y1345513D1*
X766605Y1342521D1*
X768269Y1339529D1*
X770081Y1336537D1*
X772021Y1333545D1*
X773858Y1330553D1*
X775541Y1327561D1*
X777129Y1324569D1*
X778673Y1321577D1*
X780279Y1318585D1*
X782066Y1315593D1*
X783995Y1312601D1*
X785828Y1309609D1*
X787522Y1306617D1*
X789203Y1303625D1*
X791022Y1300633D1*
X792964Y1297641D1*
X794801Y1294649D1*
X796485Y1291657D1*
X798073Y1288665D1*
X799617Y1285673D1*
X801223Y1282681D1*
X803010Y1279689D1*
X804939Y1276697D1*
X806772Y1273705D1*
X808466Y1270713D1*
X810147Y1267721D1*
X811966Y1264729D1*
X813908Y1261737D1*
X815745Y1258745D1*
X817441Y1255753D1*
X819122Y1252761D1*
X820942Y1249769D1*
X822884Y1246777D1*
X824721Y1243785D1*
X826405Y1240793D1*
X827993Y1237801D1*
X829537Y1234809D1*
X831143Y1231817D1*
X832930Y1228825D1*
X834859Y1225833D1*
X836692Y1222841D1*
X838386Y1219849D1*
X840067Y1216857D1*
X841886Y1213865D1*
X843828Y1210873D1*
X845665Y1207881D1*
X847349Y1204889D1*
X848937Y1201897D1*
X850481Y1198905D1*
X852087Y1195913D1*
X853874Y1192921D1*
X855803Y1189929D1*
X857636Y1186937D1*
X859330Y1183945D1*
X861011Y1180953D1*
X862830Y1177961D1*
X864772Y1174969D1*
X866609Y1171977D1*
X868293Y1168985D1*
X869881Y1165993D1*
X871425Y1163001D1*
X873031Y1160009D1*
X874818Y1157017D1*
X876747Y1154025D1*
X878580Y1151033D1*
X880262Y1148041D1*
X881850Y1145049D1*
X883393Y1142057D1*
X884999Y1139065D1*
X886786Y1136073D1*
X888715Y1133081D1*
X890548Y1130089D1*
X892242Y1127097D1*
X893923Y1124105D1*
X895742Y1121113D1*
X897684Y1118121D1*
X899521Y1115129D1*
X901205Y1112137D1*
X902793Y1109145D1*
X904337Y1106153D1*
X905943Y1103161D1*
X907730Y1100169D1*
X909671Y1097177D1*
X911597Y1094185D1*
X913567Y1091193D1*
X915583Y1088201D1*
X917453Y1085209D1*
X919150Y1082217D1*
X920743Y1079225D1*
X922288Y1076233D1*
X923895Y1073241D1*
X925682Y1070249D1*
X927611Y1067257D1*
X929444Y1064265D1*
X931126Y1061273D1*
X932714Y1058281D1*
X934257Y1055289D1*
X935863Y1052297D1*
X937650Y1049305D1*
X939579Y1046313D1*
X941412Y1043321D1*
X943094Y1040329D1*
X944682Y1037337D1*
X946225Y1034345D1*
X947831Y1031353D1*
X949618Y1028361D1*
X951547Y1025369D1*
X953380Y1022377D1*
X955074Y1019385D1*
X956755Y1016393D1*
X958574Y1013401D1*
X960516Y1010409D1*
X962353Y1007417D1*
X964049Y1004425D1*
X965730Y1001433D1*
X967550Y998441D1*
X969492Y995449D1*
X971329Y992457D1*
X973013Y989465D1*
X974601Y986473D1*
X976145Y983481D1*
X977751Y980489D1*
X979538Y977497D1*
X981467Y974505D1*
X983300Y971513D1*
X984994Y968521D1*
X986675Y965529D1*
X988494Y962537D1*
X990436Y959545D1*
X992273Y956553D1*
X993957Y953561D1*
X995545Y950569D1*
X997089Y947577D1*
X998695Y944585D1*
X1000482Y941593D1*
X1002411Y938601D1*
X1004244Y935609D1*
X1005938Y932617D1*
X1007619Y929625D1*
X1009438Y926633D1*
X1011380Y923641D1*
X1013217Y920649D1*
X1014901Y917657D1*
X1016489Y914665D1*
X1018033Y911673D1*
X1019639Y908681D1*
X1021426Y905689D1*
X1023355Y902697D1*
X1025188Y899705D1*
X1026882Y896713D1*
X1028563Y893721D1*
X1030382Y890729D1*
X1032324Y887737D1*
X1034161Y884745D1*
X1035845Y881753D1*
X1037433Y878761D1*
X1038977Y875769D1*
X1040583Y872777D1*
X1042370Y869785D1*
X1044299Y866793D1*
X1046132Y863801D1*
X1047826Y860809D1*
X1049507Y857817D1*
X1051326Y854825D1*
X1053268Y851833D1*
X1055105Y848841D1*
X1056801Y845849D1*
X1058482Y842857D1*
X1060302Y839865D1*
X1062244Y836873D1*
X1064081Y833881D1*
X1065765Y830889D1*
X1067353Y827897D1*
X1068897Y824905D1*
X1070503Y821913D1*
X1072290Y818921D1*
X1074219Y815929D1*
X1076052Y812937D1*
X1077734Y809945D1*
X1079310Y806953D1*
X1080736Y803961D1*
X1081856Y800969D1*
X1082533Y797977D1*
X1082874Y794985D1*
X1083024Y791993D1*
X1083085Y789001D1*
X1083109Y786009D1*
X1083105Y783017D1*
X1082994Y780025D1*
X1082533Y777033D1*
X1081510Y774041D1*
X1080129Y771049D1*
X745025Y1291657D2*
X742507Y1288665D1*
X740362Y1285673D1*
X738526Y1282681D1*
X736787Y1279689D1*
X734945Y1276697D1*
X732995Y1273705D1*
X731155Y1270713D1*
X729470Y1267721D1*
X727881Y1264729D1*
X726338Y1261737D1*
X724731Y1258745D1*
X722944Y1255753D1*
X721015Y1252761D1*
X719183Y1249769D1*
X717489Y1246777D1*
X715808Y1243785D1*
X713989Y1240793D1*
X712047Y1237801D1*
X710209Y1234809D1*
X708525Y1231817D1*
X706937Y1228825D1*
X705406Y1225833D1*
X703892Y1222841D1*
X702382Y1219849D1*
X700788Y1216857D1*
X699006Y1213865D1*
X697078Y1210873D1*
X695246Y1207881D1*
X693564Y1204889D1*
X691977Y1201897D1*
X690434Y1198905D1*
X688827Y1195913D1*
X687040Y1192921D1*
X685111Y1189929D1*
X683279Y1186937D1*
X681585Y1183945D1*
X679904Y1180953D1*
X678085Y1177961D1*
X676143Y1174969D1*
X674305Y1171977D1*
X672621Y1168985D1*
X671033Y1165993D1*
X669490Y1163001D1*
X667883Y1160009D1*
X666096Y1157017D1*
X664167Y1154025D1*
X662335Y1151033D1*
X660641Y1148041D1*
X658960Y1145049D1*
X657141Y1142057D1*
X655199Y1139065D1*
X653361Y1136073D1*
X651677Y1133081D1*
X650089Y1130089D1*
X648558Y1127097D1*
X647044Y1124105D1*
X645534Y1121113D1*
X643940Y1118121D1*
X642158Y1115129D1*
X640230Y1112137D1*
X638398Y1109145D1*
X636716Y1106153D1*
X635129Y1103161D1*
X633586Y1100169D1*
X631979Y1097177D1*
X630192Y1094185D1*
X628263Y1091193D1*
X626431Y1088201D1*
X624749Y1085209D1*
X623161Y1082217D1*
X621618Y1079225D1*
X620011Y1076233D1*
X618224Y1073241D1*
X616295Y1070249D1*
X614463Y1067257D1*
X612769Y1064265D1*
X611088Y1061273D1*
X609269Y1058281D1*
X607327Y1055289D1*
X605489Y1052297D1*
X603805Y1049305D1*
X602217Y1046313D1*
X600674Y1043321D1*
X599067Y1040329D1*
X597280Y1037337D1*
X595351Y1034345D1*
X593519Y1031353D1*
X591837Y1028361D1*
X590249Y1025369D1*
X588718Y1022377D1*
X587204Y1019385D1*
X585694Y1016393D1*
X584100Y1013401D1*
X582318Y1010409D1*
X580390Y1007417D1*
X578558Y1004425D1*
X576865Y1001433D1*
X575184Y998441D1*
X573365Y995449D1*
X571423Y992457D1*
X569585Y989465D1*
X567901Y986473D1*
X566313Y983481D1*
X564770Y980489D1*
X563163Y977497D1*
X561376Y974505D1*
X559447Y971513D1*
X557615Y968521D1*
X555921Y965529D1*
X554240Y962537D1*
X552421Y959545D1*
X550479Y956553D1*
X548641Y953561D1*
X546957Y950569D1*
X545369Y947577D1*
X543826Y944585D1*
X542219Y941593D1*
X540432Y938601D1*
X538503Y935609D1*
X536671Y932617D1*
X534989Y929625D1*
X533401Y926633D1*
X531858Y923641D1*
X530251Y920649D1*
X528464Y917657D1*
X526535Y914665D1*
X524703Y911673D1*
X523021Y908681D1*
X521433Y905689D1*
X519890Y902697D1*
X518283Y899705D1*
X516496Y896713D1*
X514567Y893721D1*
X512735Y890729D1*
X511053Y887737D1*
X509465Y884745D1*
X507922Y881753D1*
X506315Y878761D1*
X504528Y875769D1*
X502599Y872777D1*
X500767Y869785D1*
X499073Y866793D1*
X497392Y863801D1*
X495573Y860809D1*
X493631Y857817D1*
X491793Y854825D1*
X490109Y851833D1*
X488521Y848841D1*
X486990Y845849D1*
X485476Y842857D1*
X483966Y839865D1*
X482372Y836873D1*
X480590Y833881D1*
X478651Y830889D1*
X476714Y827897D1*
X474647Y824905D1*
X472285Y821913D1*
X469761Y818921D1*
X745025Y1291657D2*
X747543Y1288665D1*
X749688Y1285673D1*
X751524Y1282681D1*
X753264Y1279689D1*
X755106Y1276697D1*
X757056Y1273705D1*
X758896Y1270713D1*
X760581Y1267721D1*
X762169Y1264729D1*
X763712Y1261737D1*
X765319Y1258745D1*
X767106Y1255753D1*
X769035Y1252761D1*
X770868Y1249769D1*
X772562Y1246777D1*
X774243Y1243785D1*
X776062Y1240793D1*
X778004Y1237801D1*
X779841Y1234809D1*
X781525Y1231817D1*
X783113Y1228825D1*
X784645Y1225833D1*
X786158Y1222841D1*
X787669Y1219849D1*
X789263Y1216857D1*
X791045Y1213865D1*
X792972Y1210873D1*
X794804Y1207881D1*
X796486Y1204889D1*
X798074Y1201897D1*
X799617Y1198905D1*
X801223Y1195913D1*
X803010Y1192921D1*
X804939Y1189929D1*
X806772Y1186937D1*
X808466Y1183945D1*
X810147Y1180953D1*
X811966Y1177961D1*
X813908Y1174969D1*
X815745Y1171977D1*
X817429Y1168985D1*
X819017Y1165993D1*
X820549Y1163001D1*
X822062Y1160009D1*
X823573Y1157017D1*
X825167Y1154025D1*
X826949Y1151033D1*
X828876Y1148041D1*
X830708Y1145049D1*
X832402Y1142057D1*
X834083Y1139065D1*
X835902Y1136073D1*
X837844Y1133081D1*
X839681Y1130089D1*
X841365Y1127097D1*
X842953Y1124105D1*
X844497Y1121113D1*
X846103Y1118121D1*
X847890Y1115129D1*
X849819Y1112137D1*
X851652Y1109145D1*
X853334Y1106153D1*
X854922Y1103161D1*
X856465Y1100169D1*
X858071Y1097177D1*
X859858Y1094185D1*
X861787Y1091193D1*
X863620Y1088201D1*
X865302Y1085209D1*
X866890Y1082217D1*
X868433Y1079225D1*
X870039Y1076233D1*
X871826Y1073241D1*
X873755Y1070249D1*
X875588Y1067257D1*
X877270Y1064265D1*
X878858Y1061273D1*
X880401Y1058281D1*
X882007Y1055289D1*
X883794Y1052297D1*
X885723Y1049305D1*
X887556Y1046313D1*
X889250Y1043321D1*
X890931Y1040329D1*
X892750Y1037337D1*
X894692Y1034345D1*
X896529Y1031353D1*
X898213Y1028361D1*
X899801Y1025369D1*
X901333Y1022377D1*
X902846Y1019385D1*
X904357Y1016393D1*
X905951Y1013401D1*
X907733Y1010409D1*
X909660Y1007417D1*
X911492Y1004425D1*
X913186Y1001433D1*
X914867Y998441D1*
X916686Y995449D1*
X918628Y992457D1*
X920465Y989465D1*
X922149Y986473D1*
X923737Y983481D1*
X925281Y980489D1*
X926887Y977497D1*
X928674Y974505D1*
X930603Y971513D1*
X932436Y968521D1*
X934118Y965529D1*
X935706Y962537D1*
X937249Y959545D1*
X938855Y956553D1*
X940642Y953561D1*
X942571Y950569D1*
X944404Y947577D1*
X946098Y944585D1*
X947779Y941593D1*
X949598Y938601D1*
X951540Y935609D1*
X953377Y932617D1*
X955061Y929625D1*
X956649Y926633D1*
X958181Y923641D1*
X959694Y920649D1*
X961205Y917657D1*
X962799Y914665D1*
X964581Y911673D1*
X966508Y908681D1*
X968340Y905689D1*
X970034Y902697D1*
X971715Y899705D1*
X973534Y896713D1*
X975476Y893721D1*
X977313Y890729D1*
X978997Y887737D1*
X980585Y884745D1*
X982117Y881753D1*
X983630Y878761D1*
X985141Y875769D1*
X986735Y872777D1*
X988517Y869785D1*
X990444Y866793D1*
X992276Y863801D1*
X993958Y860809D1*
X995546Y857817D1*
X997089Y854825D1*
X998695Y851833D1*
X1000482Y848841D1*
X1002411Y845849D1*
X1004244Y842857D1*
X1005938Y839865D1*
X1007619Y836873D1*
X1009438Y833881D1*
X1011392Y830889D1*
X1013334Y827897D1*
X1015403Y824905D1*
X1017766Y821913D1*
X1020289Y818921D1*
X742033Y1151033D2*
X741571Y1148041D1*
X740829Y1145049D1*
X740043Y1142057D1*
X739413Y1139065D1*
X738754Y1136073D1*
X737910Y1133081D1*
X737079Y1130089D1*
X736432Y1127097D1*
X735766Y1124105D1*
X734908Y1121113D1*
X733982Y1118121D1*
X733059Y1115129D1*
X732057Y1112137D1*
X731149Y1109145D1*
X730468Y1106153D1*
X729789Y1103161D1*
X728927Y1100169D1*
X727999Y1097177D1*
X727075Y1094185D1*
X726073Y1091193D1*
X725165Y1088201D1*
X724484Y1085209D1*
X723805Y1082217D1*
X722943Y1079225D1*
X722015Y1076233D1*
X721091Y1073241D1*
X720089Y1070249D1*
X719181Y1067257D1*
X718500Y1064265D1*
X717821Y1061273D1*
X716959Y1058281D1*
X716031Y1055289D1*
X715107Y1052297D1*
X714094Y1049305D1*
X713092Y1046313D1*
X712135Y1043321D1*
X711121Y1040329D1*
X710207Y1037337D1*
X709525Y1034345D1*
X708846Y1031353D1*
X707983Y1028361D1*
X707055Y1025369D1*
X706131Y1022377D1*
X705129Y1019385D1*
X704221Y1016393D1*
X703540Y1013401D1*
X702861Y1010409D1*
X702010Y1007417D1*
X701176Y1004425D1*
X700528Y1001433D1*
X699862Y998441D1*
X699004Y995449D1*
X698078Y992457D1*
X697155Y989465D1*
X696153Y986473D1*
X695245Y983481D1*
X694564Y980489D1*
X693885Y977497D1*
X693034Y974505D1*
X692212Y971513D1*
X691667Y968521D1*
X691366Y965529D1*
X691169Y962537D1*
X789905Y1151033D2*
X788050Y1148041D1*
X786344Y1145049D1*
X784753Y1142057D1*
X783308Y1139065D1*
X782079Y1136073D1*
X781008Y1133081D1*
X779845Y1130089D1*
X778534Y1127097D1*
X777130Y1124105D1*
X775669Y1121113D1*
X774190Y1118121D1*
X772697Y1115129D1*
X771205Y1112137D1*
X769719Y1109145D1*
X768320Y1106153D1*
X767109Y1103161D1*
X766044Y1100169D1*
X764884Y1097177D1*
X763574Y1094185D1*
X762170Y1091193D1*
X760709Y1088201D1*
X759230Y1085209D1*
X757749Y1082217D1*
X756351Y1079225D1*
X755141Y1076233D1*
X754076Y1073241D1*
X752916Y1070249D1*
X751606Y1067257D1*
X750202Y1064265D1*
X748753Y1061273D1*
X747367Y1058281D1*
X746162Y1055289D1*
X745099Y1052297D1*
X743940Y1049305D1*
X742630Y1046313D1*
X741226Y1043321D1*
X739777Y1040329D1*
X738391Y1037337D1*
X737177Y1034345D1*
X736043Y1031353D1*
X734665Y1028361D1*
X733057Y1025369D1*
X810849Y1052297D2*
X802347Y1049305D1*
X794230Y1046313D1*
X786515Y1043321D1*
X779173Y1040329D1*
X772064Y1037337D1*
X764887Y1034345D1*
X757508Y1031353D1*
X749868Y1028361D1*
X742033Y1025369D1*
X813841Y1052297D2*
X812818Y1049305D1*
X811916Y1046313D1*
X811244Y1043321D1*
X810569Y1040329D1*
X809709Y1037337D1*
X808783Y1034345D1*
X807859Y1031353D1*
X806857Y1028361D1*
X805949Y1025369D1*
X805268Y1022377D1*
X804589Y1019385D1*
X803738Y1016393D1*
X802904Y1013401D1*
X802256Y1010409D1*
X801590Y1007417D1*
X800732Y1004425D1*
X799806Y1001433D1*
X798883Y998441D1*
X797881Y995449D1*
X796973Y992457D1*
X796292Y989465D1*
X795613Y986473D1*
X794762Y983481D1*
X793928Y980489D1*
X793280Y977497D1*
X792614Y974505D1*
X791756Y971513D1*
X790830Y968521D1*
X789907Y965529D1*
X788905Y962537D1*
X787997Y959545D1*
X787316Y956553D1*
X786637Y953561D1*
X785786Y950569D1*
X784952Y947577D1*
X784304Y944585D1*
X783638Y941593D1*
X782792Y938601D1*
X781959Y935609D1*
X781312Y932617D1*
X780646Y929625D1*
X779788Y926633D1*
X778862Y923641D1*
X777939Y920649D1*
X776937Y917657D1*
X776029Y914665D1*
X775348Y911673D1*
X774667Y908681D1*
X773791Y905689D1*
X772843Y902697D1*
X771953Y899705D1*
X786913Y896713D1*
X784956Y893721D1*
X782959Y890729D1*
X780916Y887737D1*
X778945Y884745D1*
X776958Y881753D1*
X774923Y878761D1*
X772957Y875769D1*
X770972Y872777D1*
X768938Y869785D1*
X766973Y866793D1*
X764988Y863801D1*
X762954Y860809D1*
X760989Y857817D1*
X759004Y854825D1*
X756970Y851833D1*
X754994Y848841D1*
X752911Y845849D1*
X750543Y842857D1*
X748017Y839865D1*
X762977Y992457D2*
X756519Y989465D1*
X749688Y986473D1*
X742537Y983481D1*
X735195Y980489D1*
X727679Y977497D1*
X719949Y974505D1*
X712150Y971513D1*
X704720Y968521D1*
X697814Y965529D1*
X691169Y962537D1*
X768961Y992457D2*
X768847Y989465D1*
X768464Y986473D1*
X767735Y983481D1*
X766862Y980489D1*
X765959Y977497D1*
X764954Y974505D1*
X763954Y971513D1*
X762999Y968521D1*
X761984Y965529D1*
X761071Y962537D1*
X760389Y959545D1*
X759710Y956553D1*
X758847Y953561D1*
X757919Y950569D1*
X756995Y947577D1*
X755993Y944585D1*
X755085Y941593D1*
X754404Y938601D1*
X753725Y935609D1*
X752874Y932617D1*
X752040Y929625D1*
X751392Y926633D1*
X750726Y923641D1*
X749868Y920649D1*
X748942Y917657D1*
X748019Y914665D1*
X747017Y911673D1*
X746120Y908681D1*
X745543Y905689D1*
X745229Y902697D1*
X745025Y899705D1*
X727073D1*
X728108Y896713D1*
X729103Y893721D1*
X730064Y890729D1*
X731179Y887737D1*
X732459Y884745D1*
X733752Y881753D1*
X734829Y878761D1*
X735590Y875769D1*
X736304Y872777D1*
X737180Y869785D1*
X738113Y866793D1*
X739050Y863801D1*
X740158Y860809D1*
X741436Y857817D1*
X742740Y854825D1*
X743910Y851833D1*
X744950Y848841D1*
X746025Y845849D1*
X747069Y842857D1*
X748017Y839865D1*
X2300399Y2709991D2*
D72*
X2350639D1*
Y2693244D1*
X2348207Y2686059D1*
X2343454Y2681251D1*
X2338646Y2678874D1*
X2331516Y2676498D1*
X2319522D1*
X2312337Y2678874D1*
X2307584Y2681251D1*
X2302776Y2686059D1*
X2300399Y2693244D1*
Y2709991D1*
X2310016Y2661058D2*
X2307584Y2656250D1*
X2300454Y2649065D1*
X2350639D1*
X2465902Y2844725D2*
X2468278Y2849479D1*
X2473087Y2854287D1*
X2477840Y2856664D1*
X2487401D1*
X2492210Y2854287D1*
X2496963Y2849479D1*
X2499395Y2844725D1*
X2501771Y2837540D1*
Y2825547D1*
X2499395Y2818417D1*
X2496963Y2813609D1*
X2492210Y2808855D1*
X2487401Y2806424D1*
X2477840D1*
X2473087Y2808855D1*
X2468278Y2813609D1*
X2465902Y2818417D1*
X2448086Y2811232D2*
X2450462Y2808800D1*
X2448086Y2806424D1*
X2445654Y2808800D1*
X2448086Y2811232D1*
X2430215Y2856664D2*
Y2806424D1*
X2396721Y2856664D2*
Y2806424D1*
X2430215Y2832732D2*
X2396721D1*
X2378905Y2811232D2*
X2381282Y2808800D1*
X2378905Y2806424D1*
X2376474Y2808800D1*
X2378905Y2811232D1*
X2361034Y2856664D2*
Y2806424D1*
X2343218Y2811232D2*
X2345595Y2808800D1*
X2343218Y2806424D1*
X2340787Y2808800D1*
X2343218Y2811232D1*
X2325347Y2830355D2*
X2303792D1*
X2296663Y2832732D1*
X2294231Y2835164D1*
X2291854Y2839917D1*
Y2847102D1*
X2294231Y2851855D1*
X2296663Y2854287D1*
X2303792Y2856664D1*
X2325347D1*
Y2806424D1*
X2274038Y2811232D2*
X2276415Y2808800D1*
X2274038Y2806424D1*
X2271606Y2808800D1*
X2274038Y2811232D1*
X2171696Y2844725D2*
X2174073Y2849479D1*
X2178881Y2854287D1*
X2183634Y2856664D1*
X2193196D1*
X2198005Y2854287D1*
X2202758Y2849479D1*
X2205190Y2844725D1*
X2207566Y2837540D1*
Y2825547D1*
X2205190Y2818417D1*
X2202758Y2813609D1*
X2198005Y2808855D1*
X2193196Y2806424D1*
X2183634D1*
X2178881Y2808855D1*
X2174073Y2813609D1*
X2171696Y2818417D1*
Y2825547D1*
X2183634D1*
X2144319Y2839917D2*
X2149072Y2837540D1*
X2153880Y2832732D1*
X2156257Y2825547D1*
Y2820794D1*
X2153880Y2813609D1*
X2149072Y2808855D1*
X2144319Y2806424D1*
X2137134D1*
X2132325Y2808855D1*
X2127572Y2813609D1*
X2125140Y2820794D1*
Y2825547D1*
X2127572Y2832732D1*
X2132325Y2837540D1*
X2137134Y2839917D1*
X2144319D1*
X2109701Y2825547D2*
X2081016D1*
Y2830355D1*
X2083393Y2835164D1*
X2085769Y2837540D1*
X2090578Y2839917D1*
X2097763D1*
X2102516Y2837540D1*
X2107324Y2832732D1*
X2109701Y2825547D1*
Y2820794D1*
X2107324Y2813609D1*
X2102516Y2808855D1*
X2097763Y2806424D1*
X2090578D1*
X2085769Y2808855D1*
X2081016Y2813609D1*
X2039269Y2832732D2*
X2041645Y2837540D1*
X2048830Y2839917D1*
X2056015D1*
X2063200Y2837540D1*
X2065577Y2832732D1*
X2063200Y2827979D1*
X2058392Y2825547D1*
X2046454Y2823170D1*
X2041645Y2820794D1*
X2039269Y2815985D1*
Y2813609D1*
X2041645Y2808855D1*
X2048830Y2806424D1*
X2056015D1*
X2063200Y2808855D1*
X2065577Y2813609D1*
X1963290Y2839917D2*
X1968043Y2837540D1*
X1972852Y2832732D1*
X1975228Y2825547D1*
Y2820794D1*
X1972852Y2813609D1*
X1968043Y2808855D1*
X1963290Y2806424D1*
X1956105D1*
X1951297Y2808855D1*
X1946543Y2813609D1*
X1944112Y2820794D1*
Y2825547D1*
X1946543Y2832732D1*
X1951297Y2837540D1*
X1956105Y2839917D1*
X1963290D1*
X1928672D2*
Y2806424D1*
Y2830355D2*
X1921487Y2837540D1*
X1916679Y2839917D1*
X1909549D1*
X1904741Y2837540D1*
X1902364Y2830355D1*
Y2806424D1*
X1831139Y2856664D2*
Y2815985D1*
X1828762Y2808855D1*
X1823954Y2806424D1*
X1819201D1*
X1838324Y2839917D2*
X1821577D1*
X1803761Y2856664D2*
Y2806424D1*
Y2830355D2*
X1796576Y2837540D1*
X1791768Y2839917D1*
X1784583D1*
X1779830Y2837540D1*
X1777453Y2830355D1*
Y2806424D1*
X1762014Y2856664D2*
X1759637Y2854287D1*
X1757205Y2856664D1*
X1759637Y2859095D1*
X1762014Y2856664D1*
X1759637Y2839917D2*
Y2806424D1*
X1715458Y2832732D2*
X1717834Y2837540D1*
X1725019Y2839917D1*
X1732204D1*
X1739389Y2837540D1*
X1741766Y2832732D1*
X1739389Y2827979D1*
X1734581Y2825547D1*
X1722643Y2823170D1*
X1717834Y2820794D1*
X1715458Y2815985D1*
Y2813609D1*
X1717834Y2808855D1*
X1725019Y2806424D1*
X1732204D1*
X1739389Y2808855D1*
X1741766Y2813609D1*
X1651418Y2856664D2*
X1649041Y2854287D1*
X1646609Y2856664D1*
X1649041Y2859095D1*
X1651418Y2856664D1*
X1649041Y2839917D2*
Y2806424D1*
X1604862Y2832732D2*
X1607238Y2837540D1*
X1614423Y2839917D1*
X1621608D1*
X1628793Y2837540D1*
X1631170Y2832732D1*
X1628793Y2827979D1*
X1623985Y2825547D1*
X1612047Y2823170D1*
X1607238Y2820794D1*
X1604862Y2815985D1*
Y2813609D1*
X1607238Y2808855D1*
X1614423Y2806424D1*
X1621608D1*
X1628793Y2808855D1*
X1631170Y2813609D1*
X1560737Y2856664D2*
Y2806424D1*
Y2832732D2*
X1565491Y2837540D1*
X1570299Y2839917D1*
X1577484D1*
X1582237Y2837540D1*
X1587046Y2832732D1*
X1589422Y2825547D1*
Y2820794D1*
X1587046Y2813609D1*
X1582237Y2808855D1*
X1577484Y2806424D1*
X1570299D1*
X1565491Y2808855D1*
X1560737Y2813609D1*
X1545298Y2825547D2*
X1516613D1*
Y2830355D1*
X1518990Y2835164D1*
X1521366Y2837540D1*
X1526175Y2839917D1*
X1533360D1*
X1538113Y2837540D1*
X1542922Y2832732D1*
X1545298Y2825547D1*
Y2820794D1*
X1542922Y2813609D1*
X1538113Y2808855D1*
X1533360Y2806424D1*
X1526175D1*
X1521366Y2808855D1*
X1516613Y2813609D1*
X2517477Y1879166D2*
D73*
Y1798782D1*
X2492774Y1852371D2*
Y1798782D1*
Y1837072D2*
X2481278Y1848568D1*
X2473584Y1852371D1*
X2462177D1*
X2454483Y1848568D1*
X2450681Y1837072D1*
Y1798782D1*
X2380082Y1848568D2*
Y1787285D1*
X2383884Y1775878D1*
X2387687Y1771987D1*
X2395381Y1768184D1*
X2406877D1*
X2414482Y1771987D1*
X2380082Y1837072D2*
X2387687Y1844677D1*
X2395381Y1848568D1*
X2406877D1*
X2414482Y1844677D1*
X2422175Y1837072D1*
X2425978Y1825576D1*
Y1817883D1*
X2422175Y1806475D1*
X2414482Y1798782D1*
X2406877Y1794979D1*
X2395381D1*
X2387687Y1798782D1*
X2380082Y1806475D1*
X2355379Y1852371D2*
Y1798782D1*
Y1829379D2*
X2351488Y1840875D1*
X2343883Y1848568D1*
X2336190Y1852371D1*
X2324693D1*
X2299991Y1829379D2*
X2254095D1*
Y1837072D1*
X2257897Y1844766D1*
X2261700Y1848568D1*
X2269393Y1852371D1*
X2280890D1*
X2288495Y1848568D1*
X2296188Y1840875D1*
X2299991Y1829379D1*
Y1821774D1*
X2296188Y1810278D1*
X2288495Y1802672D1*
X2280890Y1798782D1*
X2269393D1*
X2261700Y1802672D1*
X2254095Y1810278D1*
X2183496Y1879166D2*
Y1798782D1*
Y1840875D2*
X2191101Y1848568D1*
X2198795Y1852371D1*
X2210291D1*
X2217896Y1848568D1*
X2225590Y1840875D1*
X2229392Y1829379D1*
Y1821774D1*
X2225590Y1810278D1*
X2217896Y1802672D1*
X2210291Y1798782D1*
X2198795D1*
X2191101Y1802672D1*
X2183496Y1810278D1*
X2158793Y1879166D2*
X2154991Y1875363D1*
X2151100Y1879166D1*
X2154991Y1883056D1*
X2158793Y1879166D1*
X2154991Y1852371D2*
Y1798782D1*
X2126397Y1829379D2*
X2080501D1*
Y1837072D1*
X2084304Y1844766D1*
X2088106Y1848568D1*
X2095800Y1852371D1*
X2107296D1*
X2114901Y1848568D1*
X2122595Y1840875D1*
X2126397Y1829379D1*
Y1821774D1*
X2122595Y1810278D1*
X2114901Y1802672D1*
X2107296Y1798782D1*
X2095800D1*
X2088106Y1802672D1*
X2080501Y1810278D1*
X2055799Y1852371D2*
Y1798782D1*
Y1837072D2*
X2044302Y1848568D1*
X2036609Y1852371D1*
X2025201D1*
X2017508Y1848568D1*
X2013705Y1837072D1*
Y1798782D1*
X1977506Y1879166D2*
Y1814080D1*
X1973704Y1802672D1*
X1966010Y1798782D1*
X1958405D1*
X1989002Y1852371D2*
X1962208D1*
X1933702Y1829379D2*
X1887807D1*
Y1837072D1*
X1891609Y1844766D1*
X1895412Y1848568D1*
X1903105Y1852371D1*
X1914601D1*
X1922206Y1848568D1*
X1929900Y1840875D1*
X1933702Y1829379D1*
Y1821774D1*
X1929900Y1810278D1*
X1922206Y1802672D1*
X1914601Y1798782D1*
X1903105D1*
X1895412Y1802672D1*
X1887807Y1810278D1*
X1821011Y1840875D2*
X1824813Y1848568D1*
X1836309Y1852371D1*
X1847805D1*
X1859301Y1848568D1*
X1863104Y1840875D1*
X1859301Y1833270D1*
X1851608Y1829379D1*
X1832507Y1825576D1*
X1824813Y1821774D1*
X1821011Y1814080D1*
Y1810278D1*
X1824813Y1802672D1*
X1836309Y1798782D1*
X1847805D1*
X1859301Y1802672D1*
X1863104Y1810278D1*
X1792417Y1852371D2*
X1796308Y1848480D1*
X1792417Y1844677D1*
X1788614Y1848480D1*
X1792417Y1852371D1*
Y1806475D2*
X1796308Y1802584D1*
X1792417Y1798782D1*
X1788614Y1802584D1*
X1792417Y1806475D1*
X2455139Y1607996D2*
D74*
Y1562100D1*
X2457991Y1553478D1*
X2460909Y1550626D1*
X2466613Y1547708D1*
X2472383D1*
X2478087Y1550626D1*
X2480939Y1553478D1*
X2483857Y1562100D1*
Y1567804D1*
X2436612Y1607996D2*
X2433760Y1605144D1*
X2430842Y1607996D1*
X2433760Y1610914D1*
X2436612Y1607996D1*
X2433760Y1587900D2*
Y1547708D1*
X2403692Y1607996D2*
Y1559182D1*
X2400841Y1550626D1*
X2395070Y1547708D1*
X2389367D1*
X2412315Y1587900D2*
X2392219D1*
X2356514D2*
X2362217Y1585048D1*
X2367988Y1579278D1*
X2370840Y1570656D1*
Y1564952D1*
X2367988Y1556330D1*
X2362217Y1550626D1*
X2356514Y1547708D1*
X2347892D1*
X2342121Y1550626D1*
X2336418Y1556330D1*
X2333499Y1564952D1*
Y1570656D1*
X2336418Y1579278D1*
X2342121Y1585048D1*
X2347892Y1587900D1*
X2356514D1*
X2314972D2*
Y1547708D1*
Y1576426D2*
X2306350Y1585048D1*
X2300580Y1587900D1*
X2292024D1*
X2286254Y1585048D1*
X2283402Y1576426D1*
Y1547708D1*
Y1576426D2*
X2274780Y1585048D1*
X2269010Y1587900D1*
X2260454D1*
X2254684Y1585048D1*
X2251766Y1576426D1*
Y1547708D1*
X2198817Y1587900D2*
Y1547708D1*
Y1579278D2*
X2204521Y1585048D1*
X2210291Y1587900D1*
X2218847D1*
X2224617Y1585048D1*
X2230321Y1579278D1*
X2233239Y1570656D1*
Y1564952D1*
X2230321Y1556330D1*
X2224617Y1550626D1*
X2218847Y1547708D1*
X2210291D1*
X2204521Y1550626D1*
X2198817Y1556330D1*
X2171668Y1607996D2*
Y1559182D1*
X2168816Y1550626D1*
X2163046Y1547708D1*
X2157342D1*
X2180290Y1587900D2*
X2160194D1*
X2138815Y1570656D2*
X2104393D1*
Y1576426D1*
X2107245Y1582196D1*
X2110097Y1585048D1*
X2115867Y1587900D1*
X2124489D1*
X2130193Y1585048D1*
X2135963Y1579278D1*
X2138815Y1570656D1*
Y1564952D1*
X2135963Y1556330D1*
X2130193Y1550626D1*
X2124489Y1547708D1*
X2115867D1*
X2110097Y1550626D1*
X2104393Y1556330D1*
X2434902Y1502725D2*
X2437753Y1508429D1*
X2443524Y1514199D1*
X2449227Y1517051D1*
X2460701D1*
X2466472Y1514199D1*
X2472175Y1508429D1*
X2475094Y1502725D1*
X2477945Y1494103D1*
Y1479711D1*
X2475094Y1471156D1*
X2472175Y1465385D1*
X2466472Y1459682D1*
X2460701Y1456763D1*
X2449227D1*
X2443524Y1459682D1*
X2437753Y1465385D1*
X2434902Y1471156D1*
X2416374Y1479711D2*
X2381953D1*
Y1485481D1*
X2384805Y1491252D1*
X2387656Y1494103D1*
X2393427Y1496955D1*
X2402049D1*
X2407752Y1494103D1*
X2413523Y1488333D1*
X2416374Y1479711D1*
Y1474007D1*
X2413523Y1465385D1*
X2407752Y1459682D1*
X2402049Y1456763D1*
X2393427D1*
X2387656Y1459682D1*
X2381953Y1465385D1*
X2363426Y1517051D2*
Y1456763D1*
Y1488333D2*
X2357655Y1494103D1*
X2351952Y1496955D1*
X2343330D1*
X2337626Y1494103D1*
X2331856Y1488333D1*
X2329004Y1479711D1*
Y1474007D1*
X2331856Y1465385D1*
X2337626Y1459682D1*
X2343330Y1456763D1*
X2351952D1*
X2357655Y1459682D1*
X2363426Y1465385D1*
X2296151Y1496955D2*
X2301855Y1494103D1*
X2307625Y1488333D1*
X2310477Y1479711D1*
Y1474007D1*
X2307625Y1465385D1*
X2301855Y1459682D1*
X2296151Y1456763D1*
X2287529D1*
X2281758Y1459682D1*
X2276055Y1465385D1*
X2273136Y1474007D1*
Y1479711D1*
X2276055Y1488333D1*
X2281758Y1494103D1*
X2287529Y1496955D1*
X2296151D1*
X2254609Y1517051D2*
Y1456763D1*
X2236082Y1517051D2*
Y1456763D1*
X2183133Y1496955D2*
Y1456763D1*
Y1488333D2*
X2188837Y1494103D1*
X2194607Y1496955D1*
X2203163D1*
X2208933Y1494103D1*
X2214637Y1488333D1*
X2217555Y1479711D1*
Y1474007D1*
X2214637Y1465385D1*
X2208933Y1459682D1*
X2203163Y1456763D1*
X2194607D1*
X2188837Y1459682D1*
X2183133Y1465385D1*
X2435871Y1414930D2*
X2438723Y1420634D1*
X2444493Y1426404D1*
X2450196Y1429256D1*
X2461670D1*
X2467441Y1426404D1*
X2473144Y1420634D1*
X2476063Y1414930D1*
X2478915Y1406308D1*
Y1391916D1*
X2476063Y1383360D1*
X2473144Y1377590D1*
X2467441Y1371886D1*
X2461670Y1368968D1*
X2450196D1*
X2444493Y1371886D1*
X2438723Y1377590D1*
X2435871Y1383360D1*
X2417344Y1429256D2*
Y1368968D1*
Y1397686D2*
X2408721Y1406308D1*
X2402951Y1409160D1*
X2394329D1*
X2388625Y1406308D1*
X2385774Y1397686D1*
Y1368968D1*
X2367246Y1429256D2*
X2364395Y1426404D1*
X2361476Y1429256D1*
X2364395Y1432174D1*
X2367246Y1429256D1*
X2364395Y1409160D2*
Y1368968D1*
X2342949Y1429256D2*
Y1368968D1*
X2324422Y1391916D2*
X2290000D1*
Y1397686D1*
X2292852Y1403456D1*
X2295704Y1406308D1*
X2301474Y1409160D1*
X2310096D1*
X2315800Y1406308D1*
X2321570Y1400538D1*
X2324422Y1391916D1*
Y1386212D1*
X2321570Y1377590D1*
X2315800Y1371886D1*
X2310096Y1368968D1*
X2301474D1*
X2295704Y1371886D1*
X2290000Y1377590D1*
X2172960Y1420634D2*
X2178664Y1426404D1*
X2187286Y1429256D1*
X2198760D1*
X2207382Y1426404D1*
X2213152Y1420634D1*
Y1414930D1*
X2210234Y1409160D1*
X2207382Y1406308D1*
X2201678Y1403456D1*
X2184434Y1397686D1*
X2178664Y1394834D1*
X2175812Y1391916D1*
X2172960Y1386212D1*
Y1377590D1*
X2178664Y1371886D1*
X2187286Y1368968D1*
X2198760D1*
X2207382Y1371886D1*
X2213152Y1377590D1*
X2154433Y1391916D2*
X2120011D1*
Y1397686D1*
X2122863Y1403456D1*
X2125715Y1406308D1*
X2131485Y1409160D1*
X2140107D1*
X2145811Y1406308D1*
X2151581Y1400538D1*
X2154433Y1391916D1*
Y1386212D1*
X2151581Y1377590D1*
X2145811Y1371886D1*
X2140107Y1368968D1*
X2131485D1*
X2125715Y1371886D1*
X2120011Y1377590D1*
X2101484Y1409160D2*
Y1368968D1*
Y1391916D2*
X2098566Y1400538D1*
X2092862Y1406308D1*
X2087092Y1409160D1*
X2078470D1*
X2059943D2*
Y1368968D1*
Y1391916D2*
X2057024Y1400538D1*
X2051321Y1406308D1*
X2045550Y1409160D1*
X2036928D1*
X1983979D2*
Y1368968D1*
Y1400538D2*
X1989683Y1406308D1*
X1995453Y1409160D1*
X2004009D1*
X2009779Y1406308D1*
X2015483Y1400538D1*
X2018401Y1391916D1*
Y1386212D1*
X2015483Y1377590D1*
X2009779Y1371886D1*
X2004009Y1368968D1*
X1995453D1*
X1989683Y1371886D1*
X1983979Y1377590D1*
X1965452Y1409160D2*
Y1368968D1*
Y1397686D2*
X1956830Y1406308D1*
X1951060Y1409160D1*
X1942504D1*
X1936734Y1406308D1*
X1933882Y1397686D1*
Y1368968D1*
X1901029Y1409160D2*
X1906733Y1406308D1*
X1912503Y1400538D1*
X1915355Y1391916D1*
Y1386212D1*
X1912503Y1377590D1*
X1906733Y1371886D1*
X1901029Y1368968D1*
X1892407D1*
X1886637Y1371886D1*
X1880933Y1377590D1*
X1878015Y1386212D1*
Y1391916D1*
X1880933Y1400538D1*
X1886637Y1406308D1*
X1892407Y1409160D1*
X1901029D1*
X2435997Y1325954D2*
X2438849Y1331658D1*
X2444619Y1337428D1*
X2450323Y1340280D1*
X2461797D1*
X2467567Y1337428D1*
X2473271Y1331658D1*
X2476189Y1325954D1*
X2479041Y1317332D1*
Y1302940D1*
X2476189Y1294384D1*
X2473271Y1288614D1*
X2467567Y1282910D1*
X2461797Y1279992D1*
X2450323D1*
X2444619Y1282910D1*
X2438849Y1288614D1*
X2435997Y1294384D1*
X2417470Y1340280D2*
X2414618Y1337428D1*
X2411700Y1340280D1*
X2414618Y1343198D1*
X2417470Y1340280D1*
X2414618Y1320184D2*
Y1279992D1*
X2393173Y1340280D2*
Y1279992D1*
X2340224Y1320184D2*
Y1279992D1*
Y1311562D2*
X2345928Y1317332D1*
X2351698Y1320184D1*
X2360254D1*
X2366024Y1317332D1*
X2371728Y1311562D1*
X2374646Y1302940D1*
Y1297236D1*
X2371728Y1288614D1*
X2366024Y1282910D1*
X2360254Y1279992D1*
X2351698D1*
X2345928Y1282910D1*
X2340224Y1288614D1*
X2321697Y1320184D2*
Y1279992D1*
Y1308710D2*
X2313075Y1317332D1*
X2307305Y1320184D1*
X2298749D1*
X2292979Y1317332D1*
X2290127Y1308710D1*
Y1279992D1*
X2262978Y1340280D2*
Y1291466D1*
X2260126Y1282910D1*
X2254356Y1279992D1*
X2248652D1*
X2271600Y1320184D2*
X2251504D1*
X2230125D2*
Y1279992D1*
Y1302940D2*
X2227207Y1311562D1*
X2221503Y1317332D1*
X2215733Y1320184D1*
X2207111D1*
X2174258D2*
X2179962Y1317332D1*
X2185732Y1311562D1*
X2188584Y1302940D1*
Y1297236D1*
X2185732Y1288614D1*
X2179962Y1282910D1*
X2174258Y1279992D1*
X2165636D1*
X2159866Y1282910D1*
X2154162Y1288614D1*
X2151244Y1297236D1*
Y1302940D1*
X2154162Y1311562D1*
X2159866Y1317332D1*
X2165636Y1320184D1*
X2174258D1*
X2460652Y1258390D2*
Y1198102D1*
X2426230D1*
X2407703Y1258390D2*
X2404851Y1255538D1*
X2401933Y1258390D1*
X2404851Y1261308D1*
X2407703Y1258390D1*
X2404851Y1238294D2*
Y1198102D1*
X2383406Y1238294D2*
Y1198102D1*
Y1226820D2*
X2374784Y1235442D1*
X2369014Y1238294D1*
X2360458D1*
X2354688Y1235442D1*
X2351836Y1226820D1*
Y1198102D1*
Y1226820D2*
X2343214Y1235442D1*
X2337444Y1238294D1*
X2328888D1*
X2323118Y1235442D1*
X2320200Y1226820D1*
Y1198102D1*
X2287347Y1238294D2*
X2293051Y1235442D1*
X2298821Y1229672D1*
X2301673Y1221050D1*
Y1215346D1*
X2298821Y1206724D1*
X2293051Y1201020D1*
X2287347Y1198102D1*
X2278725D1*
X2272955Y1201020D1*
X2267251Y1206724D1*
X2264333Y1215346D1*
Y1221050D1*
X2267251Y1229672D1*
X2272955Y1235442D1*
X2278725Y1238294D1*
X2287347D1*
X2245806D2*
Y1198102D1*
Y1226820D2*
X2237184Y1235442D1*
X2231413Y1238294D1*
X2222858D1*
X2217088Y1235442D1*
X2214236Y1226820D1*
Y1198102D1*
X2425869Y1156461D2*
X2431573Y1162231D1*
X2440195Y1165083D1*
X2451669D1*
X2460291Y1162231D1*
X2466061Y1156461D1*
Y1150757D1*
X2463143Y1144987D1*
X2460291Y1142135D1*
X2454587Y1139283D1*
X2437343Y1133513D1*
X2431573Y1130661D1*
X2428721Y1127743D1*
X2425869Y1122039D1*
Y1113417D1*
X2431573Y1107713D1*
X2440195Y1104795D1*
X2451669D1*
X2460291Y1107713D1*
X2466061Y1113417D1*
X2372920Y1144987D2*
Y1104795D1*
Y1136365D2*
X2378624Y1142135D1*
X2384394Y1144987D1*
X2392950D1*
X2398720Y1142135D1*
X2404424Y1136365D1*
X2407342Y1127743D1*
Y1122039D1*
X2404424Y1113417D1*
X2398720Y1107713D1*
X2392950Y1104795D1*
X2384394D1*
X2378624Y1107713D1*
X2372920Y1113417D1*
X2354393Y1165083D2*
Y1104795D1*
X1101117Y2870133D2*
D72*
X1079618D1*
X1072432Y2872565D1*
X1070001Y2874942D1*
X1067624Y2879695D1*
Y2884504D1*
X1070001Y2889257D1*
X1072432Y2891689D1*
X1079618Y2894065D1*
X1101117D1*
Y2843825D1*
X1084371Y2870133D2*
X1067624Y2843825D1*
X1052185Y2862948D2*
X1023500D1*
Y2867757D1*
X1025876Y2872565D1*
X1028253Y2874942D1*
X1033062Y2877318D1*
X1040247D1*
X1045000Y2874942D1*
X1049808Y2870133D1*
X1052185Y2862948D1*
Y2858195D1*
X1049808Y2851010D1*
X1045000Y2846257D1*
X1040247Y2843825D1*
X1033062D1*
X1028253Y2846257D1*
X1023500Y2851010D1*
X1008061Y2877318D2*
X993691Y2843825D1*
X979376Y2877318D1*
X900965Y2894010D2*
X908150Y2891633D1*
X912959Y2884448D1*
X915336Y2872510D1*
Y2865325D1*
X912959Y2853387D1*
X908150Y2846202D1*
X900965Y2843825D1*
X896212D1*
X889027Y2846202D1*
X884274Y2853387D1*
X881842Y2865325D1*
Y2872510D1*
X884274Y2884448D1*
X889027Y2891633D1*
X896212Y2894010D1*
X900965D1*
X884274Y2884448D2*
X912959Y2853387D1*
X864026Y2848634D2*
X866403Y2846202D1*
X864026Y2843825D1*
X861594Y2846202D1*
X864026Y2848634D1*
X815039Y2877318D2*
X817470Y2870133D1*
X822224Y2865325D1*
X829409Y2862948D1*
X831785D1*
X838970Y2865325D1*
X843723Y2870133D1*
X846155Y2877318D1*
Y2879695D1*
X843723Y2886880D1*
X838970Y2891633D1*
X831785Y2894010D1*
X829409D1*
X822224Y2891633D1*
X817470Y2886880D1*
X815039Y2877318D1*
Y2865325D1*
X817470Y2853387D1*
X822224Y2846202D1*
X829409Y2843825D1*
X834162D1*
X841347Y2846202D1*
X843723Y2851010D1*
X914373Y782709D2*
D73*
Y702325D1*
X887578D1*
X876082Y706216D1*
X868389Y713821D1*
X864586Y721514D1*
X860784Y732922D1*
Y752112D1*
X864586Y763608D1*
X868389Y771213D1*
X876082Y778906D1*
X887578Y782709D1*
X914373D1*
X790185Y755914D2*
Y702325D1*
Y744418D2*
X797790Y752112D1*
X805484Y755914D1*
X816891D1*
X824585Y752112D1*
X832190Y744418D1*
X836081Y732922D1*
Y725317D1*
X832190Y713821D1*
X824585Y706216D1*
X816891Y702325D1*
X805484D1*
X797790Y706216D1*
X790185Y713821D1*
X765482Y755914D2*
Y702325D1*
Y740616D2*
X753986Y752112D1*
X746293Y755914D1*
X734885D1*
X727191Y752112D1*
X723389Y740616D1*
Y702325D1*
X652790Y752112D2*
Y690829D1*
X656593Y679421D1*
X660395Y675530D1*
X668089Y671728D1*
X679585D1*
X687190Y675530D1*
X652790Y740616D2*
X660395Y748221D1*
X668089Y752112D1*
X679585D1*
X687190Y748221D1*
X694884Y740616D1*
X698686Y729119D1*
Y721426D1*
X694884Y710018D1*
X687190Y702325D1*
X679585Y698522D1*
X668089D1*
X660395Y702325D1*
X652790Y710018D1*
X628087Y732922D2*
X582192D1*
Y740616D1*
X585994Y748309D1*
X589797Y752112D1*
X597490Y755914D1*
X608986D1*
X616591Y752112D1*
X624285Y744418D1*
X628087Y732922D1*
Y725317D1*
X624285Y713821D1*
X616591Y706216D1*
X608986Y702325D1*
X597490D1*
X589797Y706216D1*
X582192Y713821D1*
X557489Y755914D2*
Y702325D1*
Y732922D2*
X553598Y744418D1*
X545993Y752112D1*
X538299Y755914D1*
X526803D1*
X977994Y495246D2*
D72*
Y445006D1*
X944501Y495246D2*
Y445006D1*
X977994Y471315D2*
X944501D1*
X929061Y495246D2*
X926685Y492870D1*
X924253Y495246D1*
X926685Y497678D1*
X929061Y495246D1*
X926685Y478500D2*
Y445006D1*
X880129Y476123D2*
Y437821D1*
X882506Y430691D1*
X884882Y428260D1*
X889691Y425883D1*
X896876D1*
X901629Y428260D1*
X880129Y468938D2*
X884882Y473691D1*
X889691Y476123D1*
X896876D1*
X901629Y473691D1*
X906437Y468938D1*
X908814Y461753D1*
Y456944D1*
X906437Y449815D1*
X901629Y445006D1*
X896876Y442630D1*
X889691D1*
X884882Y445006D1*
X880129Y449815D1*
X864690Y495246D2*
Y445006D1*
Y468938D2*
X857505Y476123D1*
X852696Y478500D1*
X845511D1*
X840758Y476123D1*
X838381Y468938D1*
Y445006D1*
X774341Y495246D2*
X755218Y445006D1*
X736095Y495246D1*
X708717Y478500D2*
X713470Y476123D1*
X718279Y471315D1*
X720655Y464129D1*
Y459376D1*
X718279Y452191D1*
X713470Y447438D1*
X708717Y445006D1*
X701532D1*
X696724Y447438D1*
X691971Y452191D1*
X689539Y459376D1*
Y464129D1*
X691971Y471315D1*
X696724Y476123D1*
X701532Y478500D1*
X708717D1*
X674099Y495246D2*
Y445006D1*
X651475Y495246D2*
Y454568D1*
X649099Y447438D1*
X644290Y445006D1*
X639537D1*
X658660Y478500D2*
X641913D1*
X595413D2*
Y445006D1*
Y471315D2*
X600166Y476123D1*
X604974Y478500D1*
X612104D1*
X616913Y476123D1*
X621666Y471315D1*
X624098Y464129D1*
Y459376D1*
X621666Y452191D1*
X616913Y447438D1*
X612104Y445006D1*
X604974D1*
X600166Y447438D1*
X595413Y452191D1*
X551289Y476123D2*
Y437821D1*
X553665Y430691D1*
X556042Y428260D1*
X560850Y425883D1*
X568035D1*
X572788Y428260D1*
X551289Y468938D2*
X556042Y473691D1*
X560850Y476123D1*
X568035D1*
X572788Y473691D1*
X577597Y468938D1*
X579974Y461753D1*
Y456944D1*
X577597Y449815D1*
X572788Y445006D1*
X568035Y442630D1*
X560850D1*
X556042Y445006D1*
X551289Y449815D1*
X535849Y464129D2*
X507164D1*
Y468938D1*
X509541Y473746D1*
X511918Y476123D1*
X516726Y478500D1*
X523911D1*
X528664Y476123D1*
X533473Y471315D1*
X535849Y464129D1*
Y459376D1*
X533473Y452191D1*
X528664Y447438D1*
X523911Y445006D1*
X516726D1*
X511918Y447438D1*
X507164Y452191D1*
X3398231Y755543D2*
D73*
Y675159D1*
X3371437D1*
X3359940Y679050D1*
X3352247Y686656D1*
X3348444Y694349D1*
X3344642Y705757D1*
Y724946D1*
X3348444Y736442D1*
X3352247Y744047D1*
X3359940Y751741D1*
X3371437Y755543D1*
X3398231D1*
X3274043Y728749D2*
Y675159D1*
Y717253D2*
X3281648Y724946D1*
X3289342Y728749D1*
X3300749D1*
X3308443Y724946D1*
X3316048Y717253D1*
X3319939Y705757D1*
Y698152D1*
X3316048Y686656D1*
X3308443Y679050D1*
X3300749Y675159D1*
X3289342D1*
X3281648Y679050D1*
X3274043Y686656D1*
X3249340Y728749D2*
Y675159D1*
Y713450D2*
X3237844Y724946D1*
X3230151Y728749D1*
X3218743D1*
X3211050Y724946D1*
X3207247Y713450D1*
Y675159D1*
X3136649Y724946D2*
Y663663D1*
X3140451Y652256D1*
X3144254Y648365D1*
X3151947Y644562D1*
X3163443D1*
X3171048Y648365D1*
X3136649Y713450D2*
X3144254Y721055D1*
X3151947Y724946D1*
X3163443D1*
X3171048Y721055D1*
X3178742Y713450D1*
X3182544Y701954D1*
Y694261D1*
X3178742Y682853D1*
X3171048Y675159D1*
X3163443Y671357D1*
X3151947D1*
X3144254Y675159D1*
X3136649Y682853D1*
X3111946Y705757D2*
X3066050D1*
Y713450D1*
X3069852Y721144D1*
X3073655Y724946D1*
X3081349Y728749D1*
X3092845D1*
X3100450Y724946D1*
X3108143Y717253D1*
X3111946Y705757D1*
Y698152D1*
X3108143Y686656D1*
X3100450Y679050D1*
X3092845Y675159D1*
X3081349D1*
X3073655Y679050D1*
X3066050Y686656D1*
X3041347Y728749D2*
Y675159D1*
Y705757D2*
X3037456Y717253D1*
X3029851Y724946D1*
X3022158Y728749D1*
X3010661D1*
X3450435Y490128D2*
D72*
Y439888D1*
X3416942Y490128D2*
Y439888D1*
X3450435Y466196D2*
X3416942D1*
X3401502Y490128D2*
X3399126Y487752D1*
X3396694Y490128D1*
X3399126Y492560D1*
X3401502Y490128D1*
X3399126Y473381D2*
Y439888D1*
X3352570Y471005D2*
Y432703D1*
X3354946Y425573D1*
X3357323Y423141D1*
X3362131Y420765D1*
X3369317D1*
X3374070Y423141D1*
X3352570Y463820D2*
X3357323Y468573D1*
X3362131Y471005D1*
X3369317D1*
X3374070Y468573D1*
X3378878Y463820D1*
X3381255Y456635D1*
Y451826D1*
X3378878Y444697D1*
X3374070Y439888D1*
X3369317Y437512D1*
X3362131D1*
X3357323Y439888D1*
X3352570Y444697D1*
X3337131Y490128D2*
Y439888D1*
Y463820D2*
X3329946Y471005D1*
X3325137Y473381D1*
X3317952D1*
X3313199Y471005D1*
X3310822Y463820D1*
Y439888D1*
X3246782Y490128D2*
X3227659Y439888D1*
X3208536Y490128D1*
X3181158Y473381D2*
X3185911Y471005D1*
X3190720Y466196D1*
X3193096Y459011D1*
Y454258D1*
X3190720Y447073D1*
X3185911Y442320D1*
X3181158Y439888D1*
X3173973D1*
X3169165Y442320D1*
X3164411Y447073D1*
X3161980Y454258D1*
Y459011D1*
X3164411Y466196D1*
X3169165Y471005D1*
X3173973Y473381D1*
X3181158D1*
X3146540Y490128D2*
Y439888D1*
X3123916Y490128D2*
Y449450D1*
X3121539Y442320D1*
X3116731Y439888D1*
X3111978D1*
X3131101Y473381D2*
X3114354D1*
X3067854D2*
Y439888D1*
Y466196D2*
X3072607Y471005D1*
X3077415Y473381D1*
X3084545D1*
X3089354Y471005D1*
X3094107Y466196D1*
X3096539Y459011D1*
Y454258D1*
X3094107Y447073D1*
X3089354Y442320D1*
X3084545Y439888D1*
X3077415D1*
X3072607Y442320D1*
X3067854Y447073D1*
X3023730Y471005D2*
Y432703D1*
X3026106Y425573D1*
X3028483Y423141D1*
X3033291Y420765D1*
X3040476D1*
X3045229Y423141D1*
X3023730Y463820D2*
X3028483Y468573D1*
X3033291Y471005D1*
X3040476D1*
X3045229Y468573D1*
X3050038Y463820D1*
X3052414Y456635D1*
Y451826D1*
X3050038Y444697D1*
X3045229Y439888D1*
X3040476Y437512D1*
X3033291D1*
X3028483Y439888D1*
X3023730Y444697D1*
X3008290Y459011D2*
X2979605D1*
Y463820D1*
X2981982Y468628D1*
X2984359Y471005D1*
X2989167Y473381D1*
X2996352D1*
X3001105Y471005D1*
X3005914Y466196D1*
X3008290Y459011D1*
Y454258D1*
X3005914Y447073D1*
X3001105Y442320D1*
X2996352Y439888D1*
X2989167D1*
X2984359Y442320D1*
X2979605Y447073D1*
M02*
