G04 DipTrace 3.0.0.1*
G04 BottomSilk.gbr*
%MOIN*%
G04 #@! TF.FileFunction,Legend,Bot*
G04 #@! TF.Part,Single*
%ADD12C,0.002992*%
%ADD74C,0.00772*%
%ADD75C,0.012351*%
%ADD76C,0.009264*%
%FSLAX26Y26*%
G04*
G70*
G90*
G75*
G01*
G04 BotSilk*
%LPD*%
X3194961Y1376535D2*
D12*
X3218898D1*
X3192082Y1373543D2*
X3221776D1*
X3189486Y1370551D2*
X3224373D1*
X3187316Y1367559D2*
X3226542D1*
X3185484Y1364567D2*
X3228374D1*
X3183836Y1361575D2*
X3230023D1*
X3182269Y1358583D2*
X3231589D1*
X3180654Y1355591D2*
X3233204D1*
X3178864Y1352598D2*
X3234994D1*
X3176934Y1349606D2*
X3236924D1*
X3175101Y1346614D2*
X3238757D1*
X3173407Y1343622D2*
X3240451D1*
X3171726Y1340630D2*
X3242132D1*
X3169907Y1337638D2*
X3243951D1*
X3167965Y1334646D2*
X3245893D1*
X3166127Y1331654D2*
X3247731D1*
X3164444Y1328661D2*
X3249415D1*
X3162855Y1325669D2*
X3251003D1*
X3161312Y1322677D2*
X3252546D1*
X3159705Y1319685D2*
X3254153D1*
X3157918Y1316693D2*
X3255940D1*
X3155989Y1313701D2*
X3203361D1*
X3210498D2*
X3257869D1*
X3154156Y1310709D2*
X3202224D1*
X3211635D2*
X3259702D1*
X3152474Y1307717D2*
X3200627D1*
X3213232D2*
X3261384D1*
X3150886Y1304724D2*
X3198942D1*
X3214916D2*
X3262972D1*
X3149343Y1301732D2*
X3197320D1*
X3216538D2*
X3264515D1*
X3147737Y1298740D2*
X3195756D1*
X3218103D2*
X3266122D1*
X3145950Y1295748D2*
X3194221D1*
X3219637D2*
X3267909D1*
X3144020Y1292756D2*
X3192617D1*
X3221241D2*
X3269838D1*
X3142188Y1289764D2*
X3190831D1*
X3223027D2*
X3271670D1*
X3140506Y1286772D2*
X3188902D1*
X3224956D2*
X3273353D1*
X3138918Y1283780D2*
X3187070D1*
X3226789D2*
X3274940D1*
X3137375Y1280787D2*
X3185388D1*
X3228471D2*
X3276483D1*
X3135768Y1277795D2*
X3183800D1*
X3230058D2*
X3278090D1*
X3133981Y1274803D2*
X3182257D1*
X3231602D2*
X3279877D1*
X3132052Y1271811D2*
X3180650D1*
X3233208D2*
X3281806D1*
X3130219Y1268819D2*
X3178863D1*
X3234995D2*
X3283639D1*
X3128525Y1265827D2*
X3176934D1*
X3236924D2*
X3285333D1*
X3126844Y1262835D2*
X3175101D1*
X3238757D2*
X3287014D1*
X3125025Y1259843D2*
X3173419D1*
X3240439D2*
X3288833D1*
X3123083Y1256850D2*
X3171831D1*
X3242027D2*
X3290775D1*
X3121245Y1253858D2*
X3170288D1*
X3243558D2*
X3292613D1*
X3119550Y1250866D2*
X3168681D1*
X3245072D2*
X3294308D1*
X3117868Y1247874D2*
X3166895D1*
X3246582D2*
X3295990D1*
X3116049Y1244882D2*
X3164965D1*
X3248176D2*
X3297810D1*
X3114107Y1241890D2*
X3163133D1*
X3249958D2*
X3299752D1*
X3112269Y1238898D2*
X3161451D1*
X3251886D2*
X3301589D1*
X3110585Y1235906D2*
X3159863D1*
X3253718D2*
X3303273D1*
X3108997Y1232913D2*
X3158331D1*
X3255400D2*
X3304861D1*
X3107454Y1229921D2*
X3156818D1*
X3256988D2*
X3306405D1*
X3105847Y1226929D2*
X3155307D1*
X3258531D2*
X3308011D1*
X3104060Y1223937D2*
X3153713D1*
X3260137D2*
X3309798D1*
X3102131Y1220945D2*
X3151931D1*
X3261924D2*
X3311728D1*
X3100298Y1217953D2*
X3150004D1*
X3263854D2*
X3313560D1*
X3098616Y1214961D2*
X3148172D1*
X3265686D2*
X3315242D1*
X3097028Y1211969D2*
X3146490D1*
X3267368D2*
X3316830D1*
X3095485Y1208976D2*
X3144902D1*
X3268956D2*
X3318373D1*
X3093878Y1205984D2*
X3143359D1*
X3270499D2*
X3319980D1*
X3092091Y1202992D2*
X3141752D1*
X3272106D2*
X3321767D1*
X3090162Y1200000D2*
X3139965D1*
X3273893D2*
X3323696D1*
X3088330Y1197008D2*
X3138036D1*
X3275822D2*
X3325529D1*
X3086647Y1194016D2*
X3136204D1*
X3277655D2*
X3327211D1*
X3085060Y1191024D2*
X3134521D1*
X3279337D2*
X3328799D1*
X3083517Y1188031D2*
X3132934D1*
X3280925D2*
X3330342D1*
X3081910Y1185039D2*
X3131391D1*
X3282468D2*
X3331948D1*
X3080123Y1182047D2*
X3129784D1*
X3284074D2*
X3333735D1*
X3078194Y1179055D2*
X3127997D1*
X3206929D2*
X3248819D1*
X3285861D2*
X3335665D1*
X3076361Y1176063D2*
X3126068D1*
X3205434D2*
X3248345D1*
X3287791D2*
X3337497D1*
X3074667Y1173071D2*
X3124235D1*
X3204191D2*
X3247498D1*
X3289623D2*
X3339191D1*
X3072986Y1170079D2*
X3122553D1*
X3203027D2*
X3246330D1*
X3291305D2*
X3340872D1*
X3071167Y1167087D2*
X3120965D1*
X3201962D2*
X3244984D1*
X3292893D2*
X3342692D1*
X3069225Y1164094D2*
X3119422D1*
X3200981D2*
X3243558D1*
X3294436D2*
X3344634D1*
X3067387Y1161102D2*
X3117815D1*
X3199957D2*
X3242180D1*
X3296043D2*
X3346471D1*
X3065692Y1158110D2*
X3116028D1*
X3199041D2*
X3240978D1*
X3297830D2*
X3348167D1*
X3064010Y1155118D2*
X3114099D1*
X3198357D2*
X3239916D1*
X3299759D2*
X3349848D1*
X3062190Y1152126D2*
X3112267D1*
X3197677D2*
X3238757D1*
X3301592D2*
X3351668D1*
X3060248Y1149134D2*
X3110584D1*
X3196826D2*
X3237447D1*
X3303274D2*
X3353610D1*
X3058411Y1146142D2*
X3108997D1*
X3195992D2*
X3236043D1*
X3304862D2*
X3355447D1*
X3056727Y1143150D2*
X3107454D1*
X3195344D2*
X3234582D1*
X3306405D2*
X3357131D1*
X3055139Y1140157D2*
X3105847D1*
X3194677D2*
X3233103D1*
X3308011D2*
X3358720D1*
X3053595Y1137165D2*
X3104060D1*
X3193819D2*
X3231622D1*
X3309798D2*
X3360263D1*
X3051989Y1134173D2*
X3102131D1*
X3192894D2*
X3230224D1*
X3311728D2*
X3361870D1*
X3050202Y1131181D2*
X3100298D1*
X3191970D2*
X3229014D1*
X3313560D2*
X3363657D1*
X3048272Y1128189D2*
X3098604D1*
X3190968D2*
X3227949D1*
X3315242D2*
X3365586D1*
X3046440Y1125197D2*
X3096923D1*
X3190060D2*
X3226789D1*
X3316830D2*
X3367418D1*
X3044746Y1122205D2*
X3095104D1*
X3189380D2*
X3225479D1*
X3318373D2*
X3369112D1*
X3043065Y1119213D2*
X3093162D1*
X3188700D2*
X3224074D1*
X3319980D2*
X3370794D1*
X3041245Y1116220D2*
X3091324D1*
X3187838D2*
X3222625D1*
X3321767D2*
X3372613D1*
X3039303Y1113228D2*
X3089640D1*
X3186910D2*
X3221240D1*
X3323696D2*
X3374555D1*
X3037466Y1110236D2*
X3088052D1*
X3185986D2*
X3220035D1*
X3325529D2*
X3376392D1*
X3035782Y1107244D2*
X3086509D1*
X3184984D2*
X3218972D1*
X3327211D2*
X3378076D1*
X3034194Y1104252D2*
X3084902D1*
X3184076D2*
X3217812D1*
X3328799D2*
X3379664D1*
X3032650Y1101260D2*
X3083115D1*
X3183395D2*
X3216502D1*
X3330342D2*
X3381208D1*
X3031044Y1098268D2*
X3081186D1*
X3182716D2*
X3215098D1*
X3331948D2*
X3382815D1*
X3029257Y1095276D2*
X3079353D1*
X3181865D2*
X3213637D1*
X3333735D2*
X3384602D1*
X3027328Y1092283D2*
X3077671D1*
X3181031D2*
X3212158D1*
X3335665D2*
X3386531D1*
X3025495Y1089291D2*
X3076083D1*
X3180383D2*
X3210677D1*
X3337497D2*
X3388363D1*
X3023813Y1086299D2*
X3074540D1*
X3179717D2*
X3209279D1*
X3339179D2*
X3390046D1*
X3022225Y1083307D2*
X3072933D1*
X3178859D2*
X3208069D1*
X3340767D2*
X3391633D1*
X3020682Y1080315D2*
X3071147D1*
X3177933D2*
X3207004D1*
X3269764D2*
X3272756D1*
X3342310D2*
X3393176D1*
X3019075Y1077323D2*
X3069217D1*
X3177009D2*
X3205844D1*
X3261924D2*
X3272642D1*
X3343917D2*
X3394783D1*
X3017288Y1074331D2*
X3067385D1*
X3175996D2*
X3204534D1*
X3254234D2*
X3272258D1*
X3345704D2*
X3396570D1*
X3015359Y1071339D2*
X3065702D1*
X3174994D2*
X3203129D1*
X3246647D2*
X3271530D1*
X3347633D2*
X3398499D1*
X3013526Y1068346D2*
X3064115D1*
X3174038D2*
X3201669D1*
X3239124D2*
X3270657D1*
X3349466D2*
X3400332D1*
X3011833Y1065354D2*
X3062572D1*
X3173023D2*
X3200190D1*
X3231635D2*
X3269754D1*
X3351148D2*
X3402026D1*
X3010151Y1062362D2*
X3060965D1*
X3172110D2*
X3198706D1*
X3224255D2*
X3268760D1*
X3352736D2*
X3403707D1*
X3008332Y1059370D2*
X3059178D1*
X3171428D2*
X3197292D1*
X3217155D2*
X3267854D1*
X3354267D2*
X3405526D1*
X3006390Y1056378D2*
X3057249D1*
X3170748D2*
X3196046D1*
X3210447D2*
X3267174D1*
X3355780D2*
X3407468D1*
X3004553Y1053386D2*
X3055416D1*
X3169885D2*
X3194961D1*
X3203937D2*
X3266496D1*
X3357291D2*
X3409306D1*
X3002869Y1050394D2*
X3053734D1*
X3168958D2*
X3265645D1*
X3358885D2*
X3410990D1*
X3001280Y1047402D2*
X3052146D1*
X3168033D2*
X3264811D1*
X3360667D2*
X3412578D1*
X2999737Y1044409D2*
X3050615D1*
X3167032D2*
X3264163D1*
X3362595D2*
X3414121D1*
X2998130Y1041417D2*
X3049102D1*
X3166123D2*
X3263496D1*
X3364427D2*
X3415728D1*
X2996343Y1038425D2*
X3047591D1*
X3165443D2*
X3262650D1*
X3366109D2*
X3417515D1*
X2994414Y1035433D2*
X3045997D1*
X3164763D2*
X3261818D1*
X3367696D2*
X3419444D1*
X2992582Y1032441D2*
X3044215D1*
X3163912D2*
X3261170D1*
X3369239D2*
X3421277D1*
X2990899Y1029449D2*
X3042287D1*
X3163078D2*
X3260504D1*
X3370846D2*
X3422959D1*
X2989312Y1026457D2*
X3040455D1*
X3162430D2*
X3259646D1*
X3372633D2*
X3424547D1*
X2987769Y1023465D2*
X3038773D1*
X3161764D2*
X3258720D1*
X3374562D2*
X3426090D1*
X2986162Y1020472D2*
X3037186D1*
X3160906D2*
X3221427D1*
X3230404D2*
X3257797D1*
X3376395D2*
X3427696D1*
X2984375Y1017480D2*
X3035643D1*
X3159980D2*
X3214690D1*
X3229662D2*
X3256795D1*
X3378077D2*
X3429483D1*
X2982446Y1014488D2*
X3034036D1*
X3159057D2*
X3207814D1*
X3228876D2*
X3255887D1*
X3379665D2*
X3431413D1*
X2980613Y1011496D2*
X3032249D1*
X3158043D2*
X3200819D1*
X3228246D2*
X3255206D1*
X3381208D2*
X3433245D1*
X2978931Y1008504D2*
X3030320D1*
X3157041D2*
X3193459D1*
X3227587D2*
X3254527D1*
X3382815D2*
X3434927D1*
X2977343Y1005512D2*
X3028487D1*
X3156085D2*
X3185852D1*
X3226731D2*
X3253676D1*
X3384602D2*
X3436515D1*
X2975800Y1002520D2*
X3026805D1*
X3155070D2*
X3178412D1*
X3225807D2*
X3252842D1*
X3386531D2*
X3438058D1*
X2974193Y999528D2*
X3025217D1*
X3154161D2*
X3171143D1*
X3224883D2*
X3252194D1*
X3388363D2*
X3439665D1*
X2972406Y996535D2*
X3023674D1*
X3153537D2*
X3163703D1*
X3223882D2*
X3251528D1*
X3390057D2*
X3441452D1*
X2970477Y993543D2*
X3022067D1*
X3153071D2*
X3156063D1*
X3222973D2*
X3250670D1*
X3391738D2*
X3443381D1*
X2968644Y990551D2*
X3020280D1*
X3222293D2*
X3249744D1*
X3393558D2*
X3445214D1*
X2966962Y987559D2*
X3018351D1*
X3221614D2*
X3248820D1*
X3395500D2*
X3446896D1*
X2965375Y984567D2*
X3016519D1*
X3220751D2*
X3247819D1*
X3397337D2*
X3448484D1*
X2963832Y981575D2*
X3014836D1*
X3219824D2*
X3246910D1*
X3399021D2*
X3450027D1*
X2962225Y978583D2*
X3013249D1*
X3218899D2*
X3246230D1*
X3400609D2*
X3451633D1*
X2960438Y975591D2*
X3011706D1*
X3217898D2*
X3245551D1*
X3402153D2*
X3453420D1*
X2958509Y972598D2*
X3010099D1*
X3216989D2*
X3244700D1*
X3403759D2*
X3455350D1*
X2956676Y969606D2*
X3008312D1*
X3216309D2*
X3243866D1*
X3405546D2*
X3457182D1*
X2954982Y966614D2*
X3006383D1*
X3215630D2*
X3243218D1*
X3407476D2*
X3458876D1*
X2953301Y963622D2*
X3004550D1*
X3214767D2*
X3242551D1*
X3409308D2*
X3460557D1*
X2951482Y960630D2*
X3002868D1*
X3213839D2*
X3241693D1*
X3410990D2*
X3462377D1*
X2949540Y957638D2*
X3001280D1*
X3212915D2*
X3240768D1*
X3412578D2*
X3464319D1*
X2947702Y954646D2*
X2999737D1*
X3211913D2*
X3239844D1*
X3414121D2*
X3466156D1*
X2946018Y951654D2*
X2998130D1*
X3211005D2*
X3238842D1*
X3415728D2*
X3467840D1*
X2944430Y948661D2*
X2996343D1*
X3210325D2*
X3237934D1*
X3417515D2*
X3469428D1*
X2942887Y945669D2*
X2994414D1*
X3209645D2*
X3237254D1*
X3419444D2*
X3470972D1*
X2941280Y942677D2*
X2992582D1*
X3208724D2*
X3236574D1*
X3421277D2*
X3472578D1*
X2939493Y939685D2*
X2990899D1*
X3207601D2*
X3235723D1*
X3422959D2*
X3474365D1*
X2937564Y936693D2*
X2989312D1*
X3204946D2*
X3234893D1*
X3424547D2*
X3476294D1*
X2935731Y933701D2*
X2987769D1*
X3197722D2*
X3234304D1*
X3426090D2*
X3478127D1*
X2934037Y930709D2*
X2986162D1*
X3188976D2*
X3233858D1*
X3427696D2*
X3479821D1*
X2932356Y927717D2*
X2984375D1*
X3190472D2*
X3248819D1*
X3429483D2*
X3481502D1*
X2930537Y924724D2*
X2982446D1*
X3191714D2*
X3246289D1*
X3431413D2*
X3483321D1*
X2928595Y921732D2*
X2980613D1*
X3192878D2*
X3244051D1*
X3433245D2*
X3485263D1*
X2926757Y918740D2*
X2978931D1*
X3193943D2*
X3241938D1*
X3434927D2*
X3487101D1*
X2925073Y915748D2*
X2977343D1*
X3194925D2*
X3239852D1*
X3436515D2*
X3488785D1*
X2923485Y912756D2*
X2975800D1*
X3195960D2*
X3237866D1*
X3438058D2*
X3490373D1*
X2921942Y909764D2*
X2974193D1*
X3196970D2*
X3235873D1*
X3439665D2*
X3491916D1*
X2920335Y906772D2*
X2972406D1*
X3197929D2*
X3233837D1*
X3441452D2*
X3493523D1*
X2918548Y903780D2*
X2970477D1*
X3198957D2*
X3231859D1*
X3443381D2*
X3495310D1*
X2916619Y900787D2*
X2968644D1*
X3199964D2*
X3229780D1*
X3445214D2*
X3497239D1*
X2914786Y897795D2*
X2966962D1*
X3200922D2*
X3227470D1*
X3446896D2*
X3499072D1*
X2913092Y894803D2*
X2965375D1*
X3201949D2*
X3225169D1*
X3448484D2*
X3500766D1*
X2911411Y891811D2*
X2963832D1*
X3202956D2*
X3223134D1*
X3450027D2*
X3502447D1*
X2909592Y888819D2*
X2962225D1*
X3203914D2*
X3221345D1*
X3451633D2*
X3504266D1*
X2907650Y885827D2*
X2960438D1*
X3204941D2*
X3219624D1*
X3453420D2*
X3506208D1*
X2905812Y882835D2*
X2958509D1*
X3205957D2*
X3217798D1*
X3455350D2*
X3508046D1*
X2904129Y879843D2*
X2956676D1*
X3206999D2*
X3215923D1*
X3457182D2*
X3509730D1*
X2902540Y876850D2*
X2954994D1*
X3208336D2*
X3214301D1*
X3458864D2*
X3511318D1*
X2900997Y873858D2*
X2953406D1*
X3209921D2*
X3212913D1*
X3460452D2*
X3512861D1*
X2899390Y870866D2*
X2951863D1*
X3461995D2*
X3514468D1*
X2897603Y867874D2*
X2950256D1*
X3463602D2*
X3516255D1*
X2895674Y864882D2*
X2948469D1*
X3465389D2*
X3518184D1*
X2893841Y861890D2*
X2946528D1*
X3467330D2*
X3520017D1*
X2892159Y858898D2*
X2944591D1*
X3469267D2*
X3521699D1*
X2890571Y855906D2*
X2942524D1*
X3471335D2*
X3523287D1*
X2889028Y852913D2*
X2940161D1*
X3473697D2*
X3524830D1*
X2887422Y849921D2*
X3526437D1*
X2885635Y846929D2*
X3528224D1*
X2883706Y843937D2*
X3530153D1*
X2881885Y840945D2*
X3531974D1*
X2880308Y837953D2*
X3533551D1*
X2879113Y834961D2*
X3534745D1*
X2878403Y831969D2*
X3535455D1*
X2878050Y828976D2*
X3535808D1*
X2877895Y825984D2*
X3535964D1*
X2877832Y822992D2*
X3536026D1*
X2877808Y820000D2*
X3536050D1*
X2877811Y817008D2*
X3536047D1*
X2877922Y814016D2*
X3535936D1*
X2878384Y811024D2*
X3535474D1*
X2879406Y808031D2*
X3534452D1*
X2880787Y805039D2*
X3533071D1*
X740630Y1365512D2*
X764567D1*
X737752Y1362520D2*
X767445D1*
X735155Y1359528D2*
X770042D1*
X732985Y1356535D2*
X772212D1*
X731153Y1353543D2*
X774044D1*
X729505Y1350551D2*
X775692D1*
X727939Y1347559D2*
X777258D1*
X726324Y1344567D2*
X778873D1*
X724534Y1341575D2*
X780663D1*
X722604Y1338583D2*
X782593D1*
X720771Y1335591D2*
X784426D1*
X719077Y1332598D2*
X786120D1*
X717395Y1329606D2*
X787801D1*
X715576Y1326614D2*
X789621D1*
X713634Y1323622D2*
X791563D1*
X711797Y1320630D2*
X793400D1*
X710113Y1317638D2*
X795084D1*
X708525Y1314646D2*
X796672D1*
X706981Y1311654D2*
X798216D1*
X705374Y1308661D2*
X799822D1*
X703587Y1305669D2*
X801609D1*
X701658Y1302677D2*
X749030D1*
X756167D2*
X803539D1*
X699826Y1299685D2*
X747893D1*
X757304D2*
X805371D1*
X698143Y1296693D2*
X746296D1*
X758901D2*
X807053D1*
X696556Y1293701D2*
X744612D1*
X760585D2*
X808641D1*
X695013Y1290709D2*
X742990D1*
X762207D2*
X810184D1*
X693406Y1287717D2*
X741425D1*
X763772D2*
X811791D1*
X691619Y1284724D2*
X739890D1*
X765307D2*
X813578D1*
X689690Y1281732D2*
X738286D1*
X766911D2*
X815507D1*
X687857Y1278740D2*
X736500D1*
X768696D2*
X817340D1*
X686175Y1275748D2*
X734572D1*
X770625D2*
X819022D1*
X684587Y1272756D2*
X732739D1*
X772458D2*
X820610D1*
X683044Y1269764D2*
X731057D1*
X774140D2*
X822153D1*
X681437Y1266772D2*
X729469D1*
X775728D2*
X823759D1*
X679650Y1263780D2*
X727926D1*
X777271D2*
X825546D1*
X677721Y1260787D2*
X726319D1*
X778878D2*
X827476D1*
X675889Y1257795D2*
X724532D1*
X780665D2*
X829308D1*
X674195Y1254803D2*
X722603D1*
X782594D2*
X831002D1*
X672514Y1251811D2*
X720770D1*
X784426D2*
X832683D1*
X670694Y1248819D2*
X719088D1*
X786109D2*
X834503D1*
X668752Y1245827D2*
X717501D1*
X787696D2*
X836445D1*
X666915Y1242835D2*
X715957D1*
X789228D2*
X838282D1*
X665219Y1239843D2*
X714351D1*
X790741D2*
X839978D1*
X663537Y1236850D2*
X712564D1*
X792252D2*
X841659D1*
X661718Y1233858D2*
X710635D1*
X793846D2*
X843479D1*
X659776Y1230866D2*
X708802D1*
X795628D2*
X845421D1*
X657938Y1227874D2*
X707120D1*
X797555D2*
X847258D1*
X656255Y1224882D2*
X705532D1*
X799387D2*
X848942D1*
X654666Y1221890D2*
X704001D1*
X801069D2*
X850531D1*
X653123Y1218898D2*
X702487D1*
X802657D2*
X852074D1*
X651516Y1215906D2*
X700977D1*
X804200D2*
X853681D1*
X649729Y1212913D2*
X699383D1*
X805807D2*
X855468D1*
X647800Y1209921D2*
X697601D1*
X807594D2*
X857397D1*
X645967Y1206929D2*
X695673D1*
X809523D2*
X859230D1*
X644285Y1203937D2*
X693841D1*
X811356D2*
X860912D1*
X642697Y1200945D2*
X692159D1*
X813038D2*
X862499D1*
X641154Y1197953D2*
X690571D1*
X814625D2*
X864043D1*
X639548Y1194961D2*
X689028D1*
X816168D2*
X865649D1*
X637761Y1191969D2*
X687422D1*
X817775D2*
X867436D1*
X635832Y1188976D2*
X685635D1*
X819562D2*
X869365D1*
X633999Y1185984D2*
X683706D1*
X821491D2*
X871198D1*
X632317Y1182992D2*
X681873D1*
X823324D2*
X872880D1*
X630729Y1180000D2*
X680191D1*
X825006D2*
X874468D1*
X629186Y1177008D2*
X678603D1*
X826594D2*
X876011D1*
X627579Y1174016D2*
X677060D1*
X828137D2*
X877618D1*
X625792Y1171024D2*
X675453D1*
X829744D2*
X879405D1*
X623863Y1168031D2*
X673666D1*
X752598D2*
X794488D1*
X831531D2*
X881334D1*
X622030Y1165039D2*
X671737D1*
X751103D2*
X794014D1*
X833460D2*
X883167D1*
X620336Y1162047D2*
X669904D1*
X749860D2*
X793167D1*
X835293D2*
X884860D1*
X618655Y1159055D2*
X668222D1*
X748697D2*
X791999D1*
X836975D2*
X886542D1*
X616836Y1156063D2*
X666634D1*
X747631D2*
X790654D1*
X838562D2*
X888361D1*
X614894Y1153071D2*
X665091D1*
X746650D2*
X789227D1*
X840106D2*
X890303D1*
X613057Y1150079D2*
X663485D1*
X745626D2*
X787850D1*
X841712D2*
X892140D1*
X611361Y1147087D2*
X661698D1*
X744710D2*
X786647D1*
X843499D2*
X893836D1*
X609679Y1144094D2*
X659769D1*
X744027D2*
X785585D1*
X845428D2*
X895518D1*
X607860Y1141102D2*
X657936D1*
X743346D2*
X784426D1*
X847261D2*
X897337D1*
X605918Y1138110D2*
X656254D1*
X742495D2*
X783116D1*
X848943D2*
X899279D1*
X604080Y1135118D2*
X654666D1*
X741661D2*
X781712D1*
X850531D2*
X901117D1*
X602396Y1132126D2*
X653123D1*
X741013D2*
X780251D1*
X852074D2*
X902801D1*
X600808Y1129134D2*
X651516D1*
X740347D2*
X778772D1*
X853681D2*
X904389D1*
X599265Y1126142D2*
X649729D1*
X739489D2*
X777291D1*
X855468D2*
X905932D1*
X597658Y1123150D2*
X647800D1*
X738563D2*
X775893D1*
X857397D2*
X907539D1*
X595871Y1120157D2*
X645967D1*
X737639D2*
X774683D1*
X859230D2*
X909326D1*
X593942Y1117165D2*
X644273D1*
X736638D2*
X773618D1*
X860912D2*
X911255D1*
X592109Y1114173D2*
X642592D1*
X735729D2*
X772458D1*
X862499D2*
X913088D1*
X590415Y1111181D2*
X640773D1*
X735049D2*
X771148D1*
X864043D2*
X914782D1*
X588734Y1108189D2*
X638831D1*
X734370D2*
X769744D1*
X865649D2*
X916463D1*
X586915Y1105197D2*
X636994D1*
X733507D2*
X768294D1*
X867436D2*
X918282D1*
X584973Y1102205D2*
X635310D1*
X732580D2*
X766909D1*
X869365D2*
X920224D1*
X583135Y1099213D2*
X633721D1*
X731655D2*
X765704D1*
X871198D2*
X922062D1*
X581451Y1096220D2*
X632178D1*
X730654D2*
X764641D1*
X872880D2*
X923745D1*
X579863Y1093228D2*
X630571D1*
X729745D2*
X763481D1*
X874468D2*
X925334D1*
X578320Y1090236D2*
X628784D1*
X729065D2*
X762172D1*
X876011D2*
X926877D1*
X576713Y1087244D2*
X626855D1*
X728385D2*
X760767D1*
X877618D2*
X928484D1*
X574926Y1084252D2*
X625022D1*
X727534D2*
X759306D1*
X879405D2*
X930271D1*
X572997Y1081260D2*
X623340D1*
X726700D2*
X757828D1*
X881334D2*
X932200D1*
X571164Y1078268D2*
X621753D1*
X726052D2*
X756346D1*
X883167D2*
X934033D1*
X569482Y1075276D2*
X620209D1*
X725386D2*
X754948D1*
X884849D2*
X935715D1*
X567894Y1072283D2*
X618603D1*
X724528D2*
X753738D1*
X886436D2*
X937303D1*
X566351Y1069291D2*
X616816D1*
X723602D2*
X752673D1*
X815433D2*
X818425D1*
X887980D2*
X938846D1*
X564744Y1066299D2*
X614887D1*
X722679D2*
X751513D1*
X807594D2*
X818311D1*
X889586D2*
X940452D1*
X562958Y1063307D2*
X613054D1*
X721665D2*
X750203D1*
X799903D2*
X817928D1*
X891373D2*
X942239D1*
X561028Y1060315D2*
X611372D1*
X720664D2*
X748799D1*
X792316D2*
X817199D1*
X893302D2*
X944168D1*
X559196Y1057323D2*
X609784D1*
X719707D2*
X747338D1*
X784793D2*
X816326D1*
X895135D2*
X946001D1*
X557502Y1054331D2*
X608241D1*
X718692D2*
X745859D1*
X777304D2*
X815423D1*
X896817D2*
X947695D1*
X555821Y1051339D2*
X606634D1*
X717779D2*
X744375D1*
X769924D2*
X814429D1*
X898405D2*
X949376D1*
X554001Y1048346D2*
X604847D1*
X717097D2*
X742961D1*
X762824D2*
X813523D1*
X899936D2*
X951195D1*
X552059Y1045354D2*
X602918D1*
X716417D2*
X741716D1*
X756116D2*
X812844D1*
X901450D2*
X953138D1*
X550222Y1042362D2*
X601085D1*
X715554D2*
X740630D1*
X749606D2*
X812165D1*
X902960D2*
X954975D1*
X548538Y1039370D2*
X599403D1*
X714627D2*
X811314D1*
X904554D2*
X956659D1*
X546950Y1036378D2*
X597816D1*
X713703D2*
X810480D1*
X906336D2*
X958247D1*
X545406Y1033386D2*
X596284D1*
X712701D2*
X809832D1*
X908264D2*
X959790D1*
X543800Y1030394D2*
X594771D1*
X711792D2*
X809165D1*
X910096D2*
X961397D1*
X542013Y1027402D2*
X593260D1*
X711112D2*
X808319D1*
X911778D2*
X963184D1*
X540083Y1024409D2*
X591666D1*
X710433D2*
X807487D1*
X913366D2*
X965113D1*
X538251Y1021417D2*
X589884D1*
X709582D2*
X806839D1*
X914909D2*
X966946D1*
X536569Y1018425D2*
X587957D1*
X708748D2*
X806173D1*
X916515D2*
X968628D1*
X534981Y1015433D2*
X586125D1*
X708100D2*
X805315D1*
X918302D2*
X970216D1*
X533438Y1012441D2*
X584443D1*
X707433D2*
X804390D1*
X920231D2*
X971759D1*
X531831Y1009449D2*
X582855D1*
X706575D2*
X767097D1*
X776073D2*
X803466D1*
X922064D2*
X973366D1*
X530044Y1006457D2*
X581312D1*
X705650D2*
X760359D1*
X775331D2*
X802464D1*
X923746D2*
X975153D1*
X528115Y1003465D2*
X579705D1*
X704726D2*
X753483D1*
X774545D2*
X801556D1*
X925334D2*
X977082D1*
X526282Y1000472D2*
X577918D1*
X703713D2*
X746488D1*
X773916D2*
X800876D1*
X926877D2*
X978915D1*
X524600Y997480D2*
X575989D1*
X702711D2*
X739128D1*
X773256D2*
X800196D1*
X928484D2*
X980597D1*
X523012Y994488D2*
X574156D1*
X701754D2*
X731521D1*
X772401D2*
X799345D1*
X930271D2*
X982184D1*
X521469Y991496D2*
X572474D1*
X700739D2*
X724081D1*
X771476D2*
X798511D1*
X932200D2*
X983728D1*
X519863Y988504D2*
X570886D1*
X699830D2*
X716812D1*
X770553D2*
X797863D1*
X934033D2*
X985334D1*
X518076Y985512D2*
X569343D1*
X699206D2*
X709372D1*
X769551D2*
X797197D1*
X935727D2*
X987121D1*
X516146Y982520D2*
X567737D1*
X698740D2*
X701732D1*
X768643D2*
X796339D1*
X937408D2*
X989050D1*
X514314Y979528D2*
X565950D1*
X767962D2*
X795413D1*
X939227D2*
X990883D1*
X512632Y976535D2*
X564020D1*
X767283D2*
X794490D1*
X941169D2*
X992565D1*
X511044Y973543D2*
X562188D1*
X766420D2*
X793488D1*
X943006D2*
X994153D1*
X509501Y970551D2*
X560506D1*
X765493D2*
X792580D1*
X944690D2*
X995696D1*
X507894Y967559D2*
X558918D1*
X764569D2*
X791899D1*
X946279D2*
X997303D1*
X506107Y964567D2*
X557375D1*
X763567D2*
X791220D1*
X947822D2*
X999090D1*
X504178Y961575D2*
X555768D1*
X762659D2*
X790369D1*
X949429D2*
X1001019D1*
X502345Y958583D2*
X553981D1*
X761978D2*
X789535D1*
X951216D2*
X1002852D1*
X500651Y955591D2*
X552052D1*
X761299D2*
X788887D1*
X953145D2*
X1004545D1*
X498970Y952598D2*
X550219D1*
X760436D2*
X788221D1*
X954978D2*
X1006227D1*
X497151Y949606D2*
X548537D1*
X759509D2*
X787363D1*
X956660D2*
X1008046D1*
X495209Y946614D2*
X546949D1*
X758584D2*
X786437D1*
X958247D2*
X1009988D1*
X493371Y943622D2*
X545406D1*
X757583D2*
X785513D1*
X959791D2*
X1011825D1*
X491688Y940630D2*
X543800D1*
X756674D2*
X784512D1*
X961397D2*
X1013509D1*
X490099Y937638D2*
X542013D1*
X755994D2*
X783603D1*
X963184D2*
X1015098D1*
X488556Y934646D2*
X540083D1*
X755315D2*
X782923D1*
X965113D2*
X1016641D1*
X486949Y931654D2*
X538251D1*
X754393D2*
X782244D1*
X966946D2*
X1018248D1*
X485162Y928661D2*
X536569D1*
X753270D2*
X781392D1*
X968628D2*
X1020035D1*
X483233Y925669D2*
X534981D1*
X750616D2*
X780562D1*
X970216D2*
X1021964D1*
X481400Y922677D2*
X533438D1*
X743391D2*
X779974D1*
X971759D2*
X1023796D1*
X479707Y919685D2*
X531831D1*
X734646D2*
X779528D1*
X973366D2*
X1025490D1*
X478025Y916693D2*
X530044D1*
X736141D2*
X794488D1*
X975153D2*
X1027172D1*
X476206Y913701D2*
X528115D1*
X737384D2*
X791958D1*
X977082D2*
X1028991D1*
X474264Y910709D2*
X526282D1*
X738547D2*
X789720D1*
X978915D2*
X1030933D1*
X472427Y907717D2*
X524600D1*
X739613D2*
X787608D1*
X980597D2*
X1032770D1*
X470743Y904724D2*
X523012D1*
X740594D2*
X785521D1*
X982184D2*
X1034454D1*
X469154Y901732D2*
X521469D1*
X741629D2*
X783535D1*
X983728D2*
X1036042D1*
X467611Y898740D2*
X519863D1*
X742639D2*
X781542D1*
X985334D2*
X1037586D1*
X466004Y895748D2*
X518076D1*
X743599D2*
X779506D1*
X987121D2*
X1039193D1*
X464217Y892756D2*
X516146D1*
X744626D2*
X777528D1*
X989050D2*
X1040979D1*
X462288Y889764D2*
X514314D1*
X745633D2*
X775449D1*
X990883D2*
X1042909D1*
X460456Y886772D2*
X512632D1*
X746591D2*
X773139D1*
X992565D2*
X1044741D1*
X458762Y883780D2*
X511044D1*
X747618D2*
X770839D1*
X994153D2*
X1046435D1*
X457080Y880787D2*
X509501D1*
X748625D2*
X768803D1*
X995696D2*
X1048116D1*
X455261Y877795D2*
X507894D1*
X749583D2*
X767014D1*
X997303D2*
X1049936D1*
X453319Y874803D2*
X506107D1*
X750610D2*
X765293D1*
X999090D2*
X1051878D1*
X451482Y871811D2*
X504178D1*
X751626D2*
X763468D1*
X1001019D2*
X1053715D1*
X449798Y868819D2*
X502345D1*
X752668D2*
X761592D1*
X1002852D2*
X1055399D1*
X448210Y865827D2*
X500663D1*
X754005D2*
X759971D1*
X1004534D2*
X1056987D1*
X446666Y862835D2*
X499075D1*
X755591D2*
X758583D1*
X1006121D2*
X1058531D1*
X445059Y859843D2*
X497532D1*
X1007665D2*
X1060137D1*
X443273Y856850D2*
X495926D1*
X1009271D2*
X1061924D1*
X441343Y853858D2*
X494139D1*
X1011058D2*
X1063854D1*
X439511Y850866D2*
X492198D1*
X1012999D2*
X1065686D1*
X437828Y847874D2*
X490260D1*
X1014936D2*
X1067368D1*
X436241Y844882D2*
X488193D1*
X1017004D2*
X1068956D1*
X434698Y841890D2*
X485831D1*
X1019366D2*
X1070499D1*
X433091Y838898D2*
X1072106D1*
X431304Y835906D2*
X1073893D1*
X429375Y832913D2*
X1075822D1*
X427554Y829921D2*
X1077643D1*
X425977Y826929D2*
X1079220D1*
X424782Y823937D2*
X1080415D1*
X424073Y820945D2*
X1081124D1*
X423719Y817953D2*
X1081477D1*
X423564Y814961D2*
X1081633D1*
X423501Y811969D2*
X1081696D1*
X423478Y808976D2*
X1081719D1*
X423481Y805984D2*
X1081716D1*
X423592Y802992D2*
X1081605D1*
X424053Y800000D2*
X1081144D1*
X425076Y797008D2*
X1080121D1*
X426457Y794016D2*
X1078740D1*
X3194961Y1376535D2*
X3192082Y1373543D1*
X3189486Y1370551D1*
X3187316Y1367559D1*
X3185484Y1364567D1*
X3183836Y1361575D1*
X3182269Y1358583D1*
X3180654Y1355591D1*
X3178864Y1352598D1*
X3176934Y1349606D1*
X3175101Y1346614D1*
X3173407Y1343622D1*
X3171726Y1340630D1*
X3169907Y1337638D1*
X3167965Y1334646D1*
X3166127Y1331654D1*
X3164444Y1328661D1*
X3162855Y1325669D1*
X3161312Y1322677D1*
X3159705Y1319685D1*
X3157918Y1316693D1*
X3155989Y1313701D1*
X3154156Y1310709D1*
X3152474Y1307717D1*
X3150886Y1304724D1*
X3149343Y1301732D1*
X3147737Y1298740D1*
X3145950Y1295748D1*
X3144020Y1292756D1*
X3142188Y1289764D1*
X3140506Y1286772D1*
X3138918Y1283780D1*
X3137375Y1280787D1*
X3135768Y1277795D1*
X3133981Y1274803D1*
X3132052Y1271811D1*
X3130219Y1268819D1*
X3128525Y1265827D1*
X3126844Y1262835D1*
X3125025Y1259843D1*
X3123083Y1256850D1*
X3121245Y1253858D1*
X3119550Y1250866D1*
X3117868Y1247874D1*
X3116049Y1244882D1*
X3114107Y1241890D1*
X3112269Y1238898D1*
X3110585Y1235906D1*
X3108997Y1232913D1*
X3107454Y1229921D1*
X3105847Y1226929D1*
X3104060Y1223937D1*
X3102131Y1220945D1*
X3100298Y1217953D1*
X3098616Y1214961D1*
X3097028Y1211969D1*
X3095485Y1208976D1*
X3093878Y1205984D1*
X3092091Y1202992D1*
X3090162Y1200000D1*
X3088330Y1197008D1*
X3086647Y1194016D1*
X3085060Y1191024D1*
X3083517Y1188031D1*
X3081910Y1185039D1*
X3080123Y1182047D1*
X3078194Y1179055D1*
X3076361Y1176063D1*
X3074667Y1173071D1*
X3072986Y1170079D1*
X3071167Y1167087D1*
X3069225Y1164094D1*
X3067387Y1161102D1*
X3065692Y1158110D1*
X3064010Y1155118D1*
X3062190Y1152126D1*
X3060248Y1149134D1*
X3058411Y1146142D1*
X3056727Y1143150D1*
X3055139Y1140157D1*
X3053595Y1137165D1*
X3051989Y1134173D1*
X3050202Y1131181D1*
X3048272Y1128189D1*
X3046440Y1125197D1*
X3044746Y1122205D1*
X3043065Y1119213D1*
X3041245Y1116220D1*
X3039303Y1113228D1*
X3037466Y1110236D1*
X3035782Y1107244D1*
X3034194Y1104252D1*
X3032650Y1101260D1*
X3031044Y1098268D1*
X3029257Y1095276D1*
X3027328Y1092283D1*
X3025495Y1089291D1*
X3023813Y1086299D1*
X3022225Y1083307D1*
X3020682Y1080315D1*
X3019075Y1077323D1*
X3017288Y1074331D1*
X3015359Y1071339D1*
X3013526Y1068346D1*
X3011833Y1065354D1*
X3010151Y1062362D1*
X3008332Y1059370D1*
X3006390Y1056378D1*
X3004553Y1053386D1*
X3002869Y1050394D1*
X3001280Y1047402D1*
X2999737Y1044409D1*
X2998130Y1041417D1*
X2996343Y1038425D1*
X2994414Y1035433D1*
X2992582Y1032441D1*
X2990899Y1029449D1*
X2989312Y1026457D1*
X2987769Y1023465D1*
X2986162Y1020472D1*
X2984375Y1017480D1*
X2982446Y1014488D1*
X2980613Y1011496D1*
X2978931Y1008504D1*
X2977343Y1005512D1*
X2975800Y1002520D1*
X2974193Y999528D1*
X2972406Y996535D1*
X2970477Y993543D1*
X2968644Y990551D1*
X2966962Y987559D1*
X2965375Y984567D1*
X2963832Y981575D1*
X2962225Y978583D1*
X2960438Y975591D1*
X2958509Y972598D1*
X2956676Y969606D1*
X2954982Y966614D1*
X2953301Y963622D1*
X2951482Y960630D1*
X2949540Y957638D1*
X2947702Y954646D1*
X2946018Y951654D1*
X2944430Y948661D1*
X2942887Y945669D1*
X2941280Y942677D1*
X2939493Y939685D1*
X2937564Y936693D1*
X2935731Y933701D1*
X2934037Y930709D1*
X2932356Y927717D1*
X2930537Y924724D1*
X2928595Y921732D1*
X2926757Y918740D1*
X2925073Y915748D1*
X2923485Y912756D1*
X2921942Y909764D1*
X2920335Y906772D1*
X2918548Y903780D1*
X2916619Y900787D1*
X2914786Y897795D1*
X2913092Y894803D1*
X2911411Y891811D1*
X2909592Y888819D1*
X2907650Y885827D1*
X2905812Y882835D1*
X2904129Y879843D1*
X2902540Y876850D1*
X2900997Y873858D1*
X2899390Y870866D1*
X2897603Y867874D1*
X2895674Y864882D1*
X2893841Y861890D1*
X2892159Y858898D1*
X2890571Y855906D1*
X2889028Y852913D1*
X2887422Y849921D1*
X2885635Y846929D1*
X2883706Y843937D1*
X2881885Y840945D1*
X2880308Y837953D1*
X2879113Y834961D1*
X2878403Y831969D1*
X2878050Y828976D1*
X2877895Y825984D1*
X2877832Y822992D1*
X2877808Y820000D1*
X2877811Y817008D1*
X2877922Y814016D1*
X2878384Y811024D1*
X2879406Y808031D1*
X2880787Y805039D1*
X3218898Y1376535D2*
X3221776Y1373543D1*
X3224373Y1370551D1*
X3226542Y1367559D1*
X3228374Y1364567D1*
X3230023Y1361575D1*
X3231589Y1358583D1*
X3233204Y1355591D1*
X3234994Y1352598D1*
X3236924Y1349606D1*
X3238757Y1346614D1*
X3240451Y1343622D1*
X3242132Y1340630D1*
X3243951Y1337638D1*
X3245893Y1334646D1*
X3247731Y1331654D1*
X3249415Y1328661D1*
X3251003Y1325669D1*
X3252546Y1322677D1*
X3254153Y1319685D1*
X3255940Y1316693D1*
X3257869Y1313701D1*
X3259702Y1310709D1*
X3261384Y1307717D1*
X3262972Y1304724D1*
X3264515Y1301732D1*
X3266122Y1298740D1*
X3267909Y1295748D1*
X3269838Y1292756D1*
X3271670Y1289764D1*
X3273353Y1286772D1*
X3274940Y1283780D1*
X3276483Y1280787D1*
X3278090Y1277795D1*
X3279877Y1274803D1*
X3281806Y1271811D1*
X3283639Y1268819D1*
X3285333Y1265827D1*
X3287014Y1262835D1*
X3288833Y1259843D1*
X3290775Y1256850D1*
X3292613Y1253858D1*
X3294308Y1250866D1*
X3295990Y1247874D1*
X3297810Y1244882D1*
X3299752Y1241890D1*
X3301589Y1238898D1*
X3303273Y1235906D1*
X3304861Y1232913D1*
X3306405Y1229921D1*
X3308011Y1226929D1*
X3309798Y1223937D1*
X3311728Y1220945D1*
X3313560Y1217953D1*
X3315242Y1214961D1*
X3316830Y1211969D1*
X3318373Y1208976D1*
X3319980Y1205984D1*
X3321767Y1202992D1*
X3323696Y1200000D1*
X3325529Y1197008D1*
X3327211Y1194016D1*
X3328799Y1191024D1*
X3330342Y1188031D1*
X3331948Y1185039D1*
X3333735Y1182047D1*
X3335665Y1179055D1*
X3337497Y1176063D1*
X3339191Y1173071D1*
X3340872Y1170079D1*
X3342692Y1167087D1*
X3344634Y1164094D1*
X3346471Y1161102D1*
X3348167Y1158110D1*
X3349848Y1155118D1*
X3351668Y1152126D1*
X3353610Y1149134D1*
X3355447Y1146142D1*
X3357131Y1143150D1*
X3358720Y1140157D1*
X3360263Y1137165D1*
X3361870Y1134173D1*
X3363657Y1131181D1*
X3365586Y1128189D1*
X3367418Y1125197D1*
X3369112Y1122205D1*
X3370794Y1119213D1*
X3372613Y1116220D1*
X3374555Y1113228D1*
X3376392Y1110236D1*
X3378076Y1107244D1*
X3379664Y1104252D1*
X3381208Y1101260D1*
X3382815Y1098268D1*
X3384602Y1095276D1*
X3386531Y1092283D1*
X3388363Y1089291D1*
X3390046Y1086299D1*
X3391633Y1083307D1*
X3393176Y1080315D1*
X3394783Y1077323D1*
X3396570Y1074331D1*
X3398499Y1071339D1*
X3400332Y1068346D1*
X3402026Y1065354D1*
X3403707Y1062362D1*
X3405526Y1059370D1*
X3407468Y1056378D1*
X3409306Y1053386D1*
X3410990Y1050394D1*
X3412578Y1047402D1*
X3414121Y1044409D1*
X3415728Y1041417D1*
X3417515Y1038425D1*
X3419444Y1035433D1*
X3421277Y1032441D1*
X3422959Y1029449D1*
X3424547Y1026457D1*
X3426090Y1023465D1*
X3427696Y1020472D1*
X3429483Y1017480D1*
X3431413Y1014488D1*
X3433245Y1011496D1*
X3434927Y1008504D1*
X3436515Y1005512D1*
X3438058Y1002520D1*
X3439665Y999528D1*
X3441452Y996535D1*
X3443381Y993543D1*
X3445214Y990551D1*
X3446896Y987559D1*
X3448484Y984567D1*
X3450027Y981575D1*
X3451633Y978583D1*
X3453420Y975591D1*
X3455350Y972598D1*
X3457182Y969606D1*
X3458876Y966614D1*
X3460557Y963622D1*
X3462377Y960630D1*
X3464319Y957638D1*
X3466156Y954646D1*
X3467840Y951654D1*
X3469428Y948661D1*
X3470972Y945669D1*
X3472578Y942677D1*
X3474365Y939685D1*
X3476294Y936693D1*
X3478127Y933701D1*
X3479821Y930709D1*
X3481502Y927717D1*
X3483321Y924724D1*
X3485263Y921732D1*
X3487101Y918740D1*
X3488785Y915748D1*
X3490373Y912756D1*
X3491916Y909764D1*
X3493523Y906772D1*
X3495310Y903780D1*
X3497239Y900787D1*
X3499072Y897795D1*
X3500766Y894803D1*
X3502447Y891811D1*
X3504266Y888819D1*
X3506208Y885827D1*
X3508046Y882835D1*
X3509730Y879843D1*
X3511318Y876850D1*
X3512861Y873858D1*
X3514468Y870866D1*
X3516255Y867874D1*
X3518184Y864882D1*
X3520017Y861890D1*
X3521699Y858898D1*
X3523287Y855906D1*
X3524830Y852913D1*
X3526437Y849921D1*
X3528224Y846929D1*
X3530153Y843937D1*
X3531974Y840945D1*
X3533551Y837953D1*
X3534745Y834961D1*
X3535455Y831969D1*
X3535808Y828976D1*
X3535964Y825984D1*
X3536026Y822992D1*
X3536050Y820000D1*
X3536047Y817008D1*
X3535936Y814016D1*
X3535474Y811024D1*
X3534452Y808031D1*
X3533071Y805039D1*
X3203937Y1316693D2*
X3203361Y1313701D1*
X3202224Y1310709D1*
X3200627Y1307717D1*
X3198942Y1304724D1*
X3197320Y1301732D1*
X3195756Y1298740D1*
X3194221Y1295748D1*
X3192617Y1292756D1*
X3190831Y1289764D1*
X3188902Y1286772D1*
X3187070Y1283780D1*
X3185388Y1280787D1*
X3183800Y1277795D1*
X3182257Y1274803D1*
X3180650Y1271811D1*
X3178863Y1268819D1*
X3176934Y1265827D1*
X3175101Y1262835D1*
X3173419Y1259843D1*
X3171831Y1256850D1*
X3170288Y1253858D1*
X3168681Y1250866D1*
X3166895Y1247874D1*
X3164965Y1244882D1*
X3163133Y1241890D1*
X3161451Y1238898D1*
X3159863Y1235906D1*
X3158331Y1232913D1*
X3156818Y1229921D1*
X3155307Y1226929D1*
X3153713Y1223937D1*
X3151931Y1220945D1*
X3150004Y1217953D1*
X3148172Y1214961D1*
X3146490Y1211969D1*
X3144902Y1208976D1*
X3143359Y1205984D1*
X3141752Y1202992D1*
X3139965Y1200000D1*
X3138036Y1197008D1*
X3136204Y1194016D1*
X3134521Y1191024D1*
X3132934Y1188031D1*
X3131391Y1185039D1*
X3129784Y1182047D1*
X3127997Y1179055D1*
X3126068Y1176063D1*
X3124235Y1173071D1*
X3122553Y1170079D1*
X3120965Y1167087D1*
X3119422Y1164094D1*
X3117815Y1161102D1*
X3116028Y1158110D1*
X3114099Y1155118D1*
X3112267Y1152126D1*
X3110584Y1149134D1*
X3108997Y1146142D1*
X3107454Y1143150D1*
X3105847Y1140157D1*
X3104060Y1137165D1*
X3102131Y1134173D1*
X3100298Y1131181D1*
X3098604Y1128189D1*
X3096923Y1125197D1*
X3095104Y1122205D1*
X3093162Y1119213D1*
X3091324Y1116220D1*
X3089640Y1113228D1*
X3088052Y1110236D1*
X3086509Y1107244D1*
X3084902Y1104252D1*
X3083115Y1101260D1*
X3081186Y1098268D1*
X3079353Y1095276D1*
X3077671Y1092283D1*
X3076083Y1089291D1*
X3074540Y1086299D1*
X3072933Y1083307D1*
X3071147Y1080315D1*
X3069217Y1077323D1*
X3067385Y1074331D1*
X3065702Y1071339D1*
X3064115Y1068346D1*
X3062572Y1065354D1*
X3060965Y1062362D1*
X3059178Y1059370D1*
X3057249Y1056378D1*
X3055416Y1053386D1*
X3053734Y1050394D1*
X3052146Y1047402D1*
X3050615Y1044409D1*
X3049102Y1041417D1*
X3047591Y1038425D1*
X3045997Y1035433D1*
X3044215Y1032441D1*
X3042287Y1029449D1*
X3040455Y1026457D1*
X3038773Y1023465D1*
X3037186Y1020472D1*
X3035643Y1017480D1*
X3034036Y1014488D1*
X3032249Y1011496D1*
X3030320Y1008504D1*
X3028487Y1005512D1*
X3026805Y1002520D1*
X3025217Y999528D1*
X3023674Y996535D1*
X3022067Y993543D1*
X3020280Y990551D1*
X3018351Y987559D1*
X3016519Y984567D1*
X3014836Y981575D1*
X3013249Y978583D1*
X3011706Y975591D1*
X3010099Y972598D1*
X3008312Y969606D1*
X3006383Y966614D1*
X3004550Y963622D1*
X3002868Y960630D1*
X3001280Y957638D1*
X2999737Y954646D1*
X2998130Y951654D1*
X2996343Y948661D1*
X2994414Y945669D1*
X2992582Y942677D1*
X2990899Y939685D1*
X2989312Y936693D1*
X2987769Y933701D1*
X2986162Y930709D1*
X2984375Y927717D1*
X2982446Y924724D1*
X2980613Y921732D1*
X2978931Y918740D1*
X2977343Y915748D1*
X2975800Y912756D1*
X2974193Y909764D1*
X2972406Y906772D1*
X2970477Y903780D1*
X2968644Y900787D1*
X2966962Y897795D1*
X2965375Y894803D1*
X2963832Y891811D1*
X2962225Y888819D1*
X2960438Y885827D1*
X2958509Y882835D1*
X2956676Y879843D1*
X2954994Y876850D1*
X2953406Y873858D1*
X2951863Y870866D1*
X2950256Y867874D1*
X2948469Y864882D1*
X2946528Y861890D1*
X2944591Y858898D1*
X2942524Y855906D1*
X2940161Y852913D1*
X2937638Y849921D1*
X3209921Y1316693D2*
X3210498Y1313701D1*
X3211635Y1310709D1*
X3213232Y1307717D1*
X3214916Y1304724D1*
X3216538Y1301732D1*
X3218103Y1298740D1*
X3219637Y1295748D1*
X3221241Y1292756D1*
X3223027Y1289764D1*
X3224956Y1286772D1*
X3226789Y1283780D1*
X3228471Y1280787D1*
X3230058Y1277795D1*
X3231602Y1274803D1*
X3233208Y1271811D1*
X3234995Y1268819D1*
X3236924Y1265827D1*
X3238757Y1262835D1*
X3240439Y1259843D1*
X3242027Y1256850D1*
X3243558Y1253858D1*
X3245072Y1250866D1*
X3246582Y1247874D1*
X3248176Y1244882D1*
X3249958Y1241890D1*
X3251886Y1238898D1*
X3253718Y1235906D1*
X3255400Y1232913D1*
X3256988Y1229921D1*
X3258531Y1226929D1*
X3260137Y1223937D1*
X3261924Y1220945D1*
X3263854Y1217953D1*
X3265686Y1214961D1*
X3267368Y1211969D1*
X3268956Y1208976D1*
X3270499Y1205984D1*
X3272106Y1202992D1*
X3273893Y1200000D1*
X3275822Y1197008D1*
X3277655Y1194016D1*
X3279337Y1191024D1*
X3280925Y1188031D1*
X3282468Y1185039D1*
X3284074Y1182047D1*
X3285861Y1179055D1*
X3287791Y1176063D1*
X3289623Y1173071D1*
X3291305Y1170079D1*
X3292893Y1167087D1*
X3294436Y1164094D1*
X3296043Y1161102D1*
X3297830Y1158110D1*
X3299759Y1155118D1*
X3301592Y1152126D1*
X3303274Y1149134D1*
X3304862Y1146142D1*
X3306405Y1143150D1*
X3308011Y1140157D1*
X3309798Y1137165D1*
X3311728Y1134173D1*
X3313560Y1131181D1*
X3315242Y1128189D1*
X3316830Y1125197D1*
X3318373Y1122205D1*
X3319980Y1119213D1*
X3321767Y1116220D1*
X3323696Y1113228D1*
X3325529Y1110236D1*
X3327211Y1107244D1*
X3328799Y1104252D1*
X3330342Y1101260D1*
X3331948Y1098268D1*
X3333735Y1095276D1*
X3335665Y1092283D1*
X3337497Y1089291D1*
X3339179Y1086299D1*
X3340767Y1083307D1*
X3342310Y1080315D1*
X3343917Y1077323D1*
X3345704Y1074331D1*
X3347633Y1071339D1*
X3349466Y1068346D1*
X3351148Y1065354D1*
X3352736Y1062362D1*
X3354267Y1059370D1*
X3355780Y1056378D1*
X3357291Y1053386D1*
X3358885Y1050394D1*
X3360667Y1047402D1*
X3362595Y1044409D1*
X3364427Y1041417D1*
X3366109Y1038425D1*
X3367696Y1035433D1*
X3369239Y1032441D1*
X3370846Y1029449D1*
X3372633Y1026457D1*
X3374562Y1023465D1*
X3376395Y1020472D1*
X3378077Y1017480D1*
X3379665Y1014488D1*
X3381208Y1011496D1*
X3382815Y1008504D1*
X3384602Y1005512D1*
X3386531Y1002520D1*
X3388363Y999528D1*
X3390057Y996535D1*
X3391738Y993543D1*
X3393558Y990551D1*
X3395500Y987559D1*
X3397337Y984567D1*
X3399021Y981575D1*
X3400609Y978583D1*
X3402153Y975591D1*
X3403759Y972598D1*
X3405546Y969606D1*
X3407476Y966614D1*
X3409308Y963622D1*
X3410990Y960630D1*
X3412578Y957638D1*
X3414121Y954646D1*
X3415728Y951654D1*
X3417515Y948661D1*
X3419444Y945669D1*
X3421277Y942677D1*
X3422959Y939685D1*
X3424547Y936693D1*
X3426090Y933701D1*
X3427696Y930709D1*
X3429483Y927717D1*
X3431413Y924724D1*
X3433245Y921732D1*
X3434927Y918740D1*
X3436515Y915748D1*
X3438058Y912756D1*
X3439665Y909764D1*
X3441452Y906772D1*
X3443381Y903780D1*
X3445214Y900787D1*
X3446896Y897795D1*
X3448484Y894803D1*
X3450027Y891811D1*
X3451633Y888819D1*
X3453420Y885827D1*
X3455350Y882835D1*
X3457182Y879843D1*
X3458864Y876850D1*
X3460452Y873858D1*
X3461995Y870866D1*
X3463602Y867874D1*
X3465389Y864882D1*
X3467330Y861890D1*
X3469267Y858898D1*
X3471335Y855906D1*
X3473697Y852913D1*
X3476220Y849921D1*
X3206929Y1179055D2*
X3205434Y1176063D1*
X3204191Y1173071D1*
X3203027Y1170079D1*
X3201962Y1167087D1*
X3200981Y1164094D1*
X3199957Y1161102D1*
X3199041Y1158110D1*
X3198357Y1155118D1*
X3197677Y1152126D1*
X3196826Y1149134D1*
X3195992Y1146142D1*
X3195344Y1143150D1*
X3194677Y1140157D1*
X3193819Y1137165D1*
X3192894Y1134173D1*
X3191970Y1131181D1*
X3190968Y1128189D1*
X3190060Y1125197D1*
X3189380Y1122205D1*
X3188700Y1119213D1*
X3187838Y1116220D1*
X3186910Y1113228D1*
X3185986Y1110236D1*
X3184984Y1107244D1*
X3184076Y1104252D1*
X3183395Y1101260D1*
X3182716Y1098268D1*
X3181865Y1095276D1*
X3181031Y1092283D1*
X3180383Y1089291D1*
X3179717Y1086299D1*
X3178859Y1083307D1*
X3177933Y1080315D1*
X3177009Y1077323D1*
X3175996Y1074331D1*
X3174994Y1071339D1*
X3174038Y1068346D1*
X3173023Y1065354D1*
X3172110Y1062362D1*
X3171428Y1059370D1*
X3170748Y1056378D1*
X3169885Y1053386D1*
X3168958Y1050394D1*
X3168033Y1047402D1*
X3167032Y1044409D1*
X3166123Y1041417D1*
X3165443Y1038425D1*
X3164763Y1035433D1*
X3163912Y1032441D1*
X3163078Y1029449D1*
X3162430Y1026457D1*
X3161764Y1023465D1*
X3160906Y1020472D1*
X3159980Y1017480D1*
X3159057Y1014488D1*
X3158043Y1011496D1*
X3157041Y1008504D1*
X3156085Y1005512D1*
X3155070Y1002520D1*
X3154161Y999528D1*
X3153537Y996535D1*
X3153071Y993543D1*
X3248819Y1179055D2*
X3248345Y1176063D1*
X3247498Y1173071D1*
X3246330Y1170079D1*
X3244984Y1167087D1*
X3243558Y1164094D1*
X3242180Y1161102D1*
X3240978Y1158110D1*
X3239916Y1155118D1*
X3238757Y1152126D1*
X3237447Y1149134D1*
X3236043Y1146142D1*
X3234582Y1143150D1*
X3233103Y1140157D1*
X3231622Y1137165D1*
X3230224Y1134173D1*
X3229014Y1131181D1*
X3227949Y1128189D1*
X3226789Y1125197D1*
X3225479Y1122205D1*
X3224074Y1119213D1*
X3222625Y1116220D1*
X3221240Y1113228D1*
X3220035Y1110236D1*
X3218972Y1107244D1*
X3217812Y1104252D1*
X3216502Y1101260D1*
X3215098Y1098268D1*
X3213637Y1095276D1*
X3212158Y1092283D1*
X3210677Y1089291D1*
X3209279Y1086299D1*
X3208069Y1083307D1*
X3207004Y1080315D1*
X3205844Y1077323D1*
X3204534Y1074331D1*
X3203129Y1071339D1*
X3201669Y1068346D1*
X3200190Y1065354D1*
X3198706Y1062362D1*
X3197292Y1059370D1*
X3196046Y1056378D1*
X3194961Y1053386D1*
X3269764Y1080315D2*
X3261924Y1077323D1*
X3254234Y1074331D1*
X3246647Y1071339D1*
X3239124Y1068346D1*
X3231635Y1065354D1*
X3224255Y1062362D1*
X3217155Y1059370D1*
X3210447Y1056378D1*
X3203937Y1053386D1*
X3272756Y1080315D2*
X3272642Y1077323D1*
X3272258Y1074331D1*
X3271530Y1071339D1*
X3270657Y1068346D1*
X3269754Y1065354D1*
X3268760Y1062362D1*
X3267854Y1059370D1*
X3267174Y1056378D1*
X3266496Y1053386D1*
X3265645Y1050394D1*
X3264811Y1047402D1*
X3264163Y1044409D1*
X3263496Y1041417D1*
X3262650Y1038425D1*
X3261818Y1035433D1*
X3261170Y1032441D1*
X3260504Y1029449D1*
X3259646Y1026457D1*
X3258720Y1023465D1*
X3257797Y1020472D1*
X3256795Y1017480D1*
X3255887Y1014488D1*
X3255206Y1011496D1*
X3254527Y1008504D1*
X3253676Y1005512D1*
X3252842Y1002520D1*
X3252194Y999528D1*
X3251528Y996535D1*
X3250670Y993543D1*
X3249744Y990551D1*
X3248820Y987559D1*
X3247819Y984567D1*
X3246910Y981575D1*
X3246230Y978583D1*
X3245551Y975591D1*
X3244700Y972598D1*
X3243866Y969606D1*
X3243218Y966614D1*
X3242551Y963622D1*
X3241693Y960630D1*
X3240768Y957638D1*
X3239844Y954646D1*
X3238842Y951654D1*
X3237934Y948661D1*
X3237254Y945669D1*
X3236574Y942677D1*
X3235723Y939685D1*
X3234893Y936693D1*
X3234304Y933701D1*
X3233858Y930709D1*
X3248819Y927717D1*
X3246289Y924724D1*
X3244051Y921732D1*
X3241938Y918740D1*
X3239852Y915748D1*
X3237866Y912756D1*
X3235873Y909764D1*
X3233837Y906772D1*
X3231859Y903780D1*
X3229780Y900787D1*
X3227470Y897795D1*
X3225169Y894803D1*
X3223134Y891811D1*
X3221345Y888819D1*
X3219624Y885827D1*
X3217798Y882835D1*
X3215923Y879843D1*
X3214301Y876850D1*
X3212913Y873858D1*
X3227874Y1023465D2*
X3221427Y1020472D1*
X3214690Y1017480D1*
X3207814Y1014488D1*
X3200819Y1011496D1*
X3193459Y1008504D1*
X3185852Y1005512D1*
X3178412Y1002520D1*
X3171143Y999528D1*
X3163703Y996535D1*
X3156063Y993543D1*
X3230866Y1023465D2*
X3230404Y1020472D1*
X3229662Y1017480D1*
X3228876Y1014488D1*
X3228246Y1011496D1*
X3227587Y1008504D1*
X3226731Y1005512D1*
X3225807Y1002520D1*
X3224883Y999528D1*
X3223882Y996535D1*
X3222973Y993543D1*
X3222293Y990551D1*
X3221614Y987559D1*
X3220751Y984567D1*
X3219824Y981575D1*
X3218899Y978583D1*
X3217898Y975591D1*
X3216989Y972598D1*
X3216309Y969606D1*
X3215630Y966614D1*
X3214767Y963622D1*
X3213839Y960630D1*
X3212915Y957638D1*
X3211913Y954646D1*
X3211005Y951654D1*
X3210325Y948661D1*
X3209645Y945669D1*
X3208724Y942677D1*
X3207601Y939685D1*
X3204946Y936693D1*
X3197722Y933701D1*
X3188976Y930709D1*
X3190472Y927717D1*
X3191714Y924724D1*
X3192878Y921732D1*
X3193943Y918740D1*
X3194925Y915748D1*
X3195960Y912756D1*
X3196970Y909764D1*
X3197929Y906772D1*
X3198957Y903780D1*
X3199964Y900787D1*
X3200922Y897795D1*
X3201949Y894803D1*
X3202956Y891811D1*
X3203914Y888819D1*
X3204941Y885827D1*
X3205957Y882835D1*
X3206999Y879843D1*
X3208336Y876850D1*
X3209921Y873858D1*
X740630Y1365512D2*
X737752Y1362520D1*
X735155Y1359528D1*
X732985Y1356535D1*
X731153Y1353543D1*
X729505Y1350551D1*
X727939Y1347559D1*
X726324Y1344567D1*
X724534Y1341575D1*
X722604Y1338583D1*
X720771Y1335591D1*
X719077Y1332598D1*
X717395Y1329606D1*
X715576Y1326614D1*
X713634Y1323622D1*
X711797Y1320630D1*
X710113Y1317638D1*
X708525Y1314646D1*
X706981Y1311654D1*
X705374Y1308661D1*
X703587Y1305669D1*
X701658Y1302677D1*
X699826Y1299685D1*
X698143Y1296693D1*
X696556Y1293701D1*
X695013Y1290709D1*
X693406Y1287717D1*
X691619Y1284724D1*
X689690Y1281732D1*
X687857Y1278740D1*
X686175Y1275748D1*
X684587Y1272756D1*
X683044Y1269764D1*
X681437Y1266772D1*
X679650Y1263780D1*
X677721Y1260787D1*
X675889Y1257795D1*
X674195Y1254803D1*
X672514Y1251811D1*
X670694Y1248819D1*
X668752Y1245827D1*
X666915Y1242835D1*
X665219Y1239843D1*
X663537Y1236850D1*
X661718Y1233858D1*
X659776Y1230866D1*
X657938Y1227874D1*
X656255Y1224882D1*
X654666Y1221890D1*
X653123Y1218898D1*
X651516Y1215906D1*
X649729Y1212913D1*
X647800Y1209921D1*
X645967Y1206929D1*
X644285Y1203937D1*
X642697Y1200945D1*
X641154Y1197953D1*
X639548Y1194961D1*
X637761Y1191969D1*
X635832Y1188976D1*
X633999Y1185984D1*
X632317Y1182992D1*
X630729Y1180000D1*
X629186Y1177008D1*
X627579Y1174016D1*
X625792Y1171024D1*
X623863Y1168031D1*
X622030Y1165039D1*
X620336Y1162047D1*
X618655Y1159055D1*
X616836Y1156063D1*
X614894Y1153071D1*
X613057Y1150079D1*
X611361Y1147087D1*
X609679Y1144094D1*
X607860Y1141102D1*
X605918Y1138110D1*
X604080Y1135118D1*
X602396Y1132126D1*
X600808Y1129134D1*
X599265Y1126142D1*
X597658Y1123150D1*
X595871Y1120157D1*
X593942Y1117165D1*
X592109Y1114173D1*
X590415Y1111181D1*
X588734Y1108189D1*
X586915Y1105197D1*
X584973Y1102205D1*
X583135Y1099213D1*
X581451Y1096220D1*
X579863Y1093228D1*
X578320Y1090236D1*
X576713Y1087244D1*
X574926Y1084252D1*
X572997Y1081260D1*
X571164Y1078268D1*
X569482Y1075276D1*
X567894Y1072283D1*
X566351Y1069291D1*
X564744Y1066299D1*
X562958Y1063307D1*
X561028Y1060315D1*
X559196Y1057323D1*
X557502Y1054331D1*
X555821Y1051339D1*
X554001Y1048346D1*
X552059Y1045354D1*
X550222Y1042362D1*
X548538Y1039370D1*
X546950Y1036378D1*
X545406Y1033386D1*
X543800Y1030394D1*
X542013Y1027402D1*
X540083Y1024409D1*
X538251Y1021417D1*
X536569Y1018425D1*
X534981Y1015433D1*
X533438Y1012441D1*
X531831Y1009449D1*
X530044Y1006457D1*
X528115Y1003465D1*
X526282Y1000472D1*
X524600Y997480D1*
X523012Y994488D1*
X521469Y991496D1*
X519863Y988504D1*
X518076Y985512D1*
X516146Y982520D1*
X514314Y979528D1*
X512632Y976535D1*
X511044Y973543D1*
X509501Y970551D1*
X507894Y967559D1*
X506107Y964567D1*
X504178Y961575D1*
X502345Y958583D1*
X500651Y955591D1*
X498970Y952598D1*
X497151Y949606D1*
X495209Y946614D1*
X493371Y943622D1*
X491688Y940630D1*
X490099Y937638D1*
X488556Y934646D1*
X486949Y931654D1*
X485162Y928661D1*
X483233Y925669D1*
X481400Y922677D1*
X479707Y919685D1*
X478025Y916693D1*
X476206Y913701D1*
X474264Y910709D1*
X472427Y907717D1*
X470743Y904724D1*
X469154Y901732D1*
X467611Y898740D1*
X466004Y895748D1*
X464217Y892756D1*
X462288Y889764D1*
X460456Y886772D1*
X458762Y883780D1*
X457080Y880787D1*
X455261Y877795D1*
X453319Y874803D1*
X451482Y871811D1*
X449798Y868819D1*
X448210Y865827D1*
X446666Y862835D1*
X445059Y859843D1*
X443273Y856850D1*
X441343Y853858D1*
X439511Y850866D1*
X437828Y847874D1*
X436241Y844882D1*
X434698Y841890D1*
X433091Y838898D1*
X431304Y835906D1*
X429375Y832913D1*
X427554Y829921D1*
X425977Y826929D1*
X424782Y823937D1*
X424073Y820945D1*
X423719Y817953D1*
X423564Y814961D1*
X423501Y811969D1*
X423478Y808976D1*
X423481Y805984D1*
X423592Y802992D1*
X424053Y800000D1*
X425076Y797008D1*
X426457Y794016D1*
X764567Y1365512D2*
X767445Y1362520D1*
X770042Y1359528D1*
X772212Y1356535D1*
X774044Y1353543D1*
X775692Y1350551D1*
X777258Y1347559D1*
X778873Y1344567D1*
X780663Y1341575D1*
X782593Y1338583D1*
X784426Y1335591D1*
X786120Y1332598D1*
X787801Y1329606D1*
X789621Y1326614D1*
X791563Y1323622D1*
X793400Y1320630D1*
X795084Y1317638D1*
X796672Y1314646D1*
X798216Y1311654D1*
X799822Y1308661D1*
X801609Y1305669D1*
X803539Y1302677D1*
X805371Y1299685D1*
X807053Y1296693D1*
X808641Y1293701D1*
X810184Y1290709D1*
X811791Y1287717D1*
X813578Y1284724D1*
X815507Y1281732D1*
X817340Y1278740D1*
X819022Y1275748D1*
X820610Y1272756D1*
X822153Y1269764D1*
X823759Y1266772D1*
X825546Y1263780D1*
X827476Y1260787D1*
X829308Y1257795D1*
X831002Y1254803D1*
X832683Y1251811D1*
X834503Y1248819D1*
X836445Y1245827D1*
X838282Y1242835D1*
X839978Y1239843D1*
X841659Y1236850D1*
X843479Y1233858D1*
X845421Y1230866D1*
X847258Y1227874D1*
X848942Y1224882D1*
X850531Y1221890D1*
X852074Y1218898D1*
X853681Y1215906D1*
X855468Y1212913D1*
X857397Y1209921D1*
X859230Y1206929D1*
X860912Y1203937D1*
X862499Y1200945D1*
X864043Y1197953D1*
X865649Y1194961D1*
X867436Y1191969D1*
X869365Y1188976D1*
X871198Y1185984D1*
X872880Y1182992D1*
X874468Y1180000D1*
X876011Y1177008D1*
X877618Y1174016D1*
X879405Y1171024D1*
X881334Y1168031D1*
X883167Y1165039D1*
X884860Y1162047D1*
X886542Y1159055D1*
X888361Y1156063D1*
X890303Y1153071D1*
X892140Y1150079D1*
X893836Y1147087D1*
X895518Y1144094D1*
X897337Y1141102D1*
X899279Y1138110D1*
X901117Y1135118D1*
X902801Y1132126D1*
X904389Y1129134D1*
X905932Y1126142D1*
X907539Y1123150D1*
X909326Y1120157D1*
X911255Y1117165D1*
X913088Y1114173D1*
X914782Y1111181D1*
X916463Y1108189D1*
X918282Y1105197D1*
X920224Y1102205D1*
X922062Y1099213D1*
X923745Y1096220D1*
X925334Y1093228D1*
X926877Y1090236D1*
X928484Y1087244D1*
X930271Y1084252D1*
X932200Y1081260D1*
X934033Y1078268D1*
X935715Y1075276D1*
X937303Y1072283D1*
X938846Y1069291D1*
X940452Y1066299D1*
X942239Y1063307D1*
X944168Y1060315D1*
X946001Y1057323D1*
X947695Y1054331D1*
X949376Y1051339D1*
X951195Y1048346D1*
X953138Y1045354D1*
X954975Y1042362D1*
X956659Y1039370D1*
X958247Y1036378D1*
X959790Y1033386D1*
X961397Y1030394D1*
X963184Y1027402D1*
X965113Y1024409D1*
X966946Y1021417D1*
X968628Y1018425D1*
X970216Y1015433D1*
X971759Y1012441D1*
X973366Y1009449D1*
X975153Y1006457D1*
X977082Y1003465D1*
X978915Y1000472D1*
X980597Y997480D1*
X982184Y994488D1*
X983728Y991496D1*
X985334Y988504D1*
X987121Y985512D1*
X989050Y982520D1*
X990883Y979528D1*
X992565Y976535D1*
X994153Y973543D1*
X995696Y970551D1*
X997303Y967559D1*
X999090Y964567D1*
X1001019Y961575D1*
X1002852Y958583D1*
X1004545Y955591D1*
X1006227Y952598D1*
X1008046Y949606D1*
X1009988Y946614D1*
X1011825Y943622D1*
X1013509Y940630D1*
X1015098Y937638D1*
X1016641Y934646D1*
X1018248Y931654D1*
X1020035Y928661D1*
X1021964Y925669D1*
X1023796Y922677D1*
X1025490Y919685D1*
X1027172Y916693D1*
X1028991Y913701D1*
X1030933Y910709D1*
X1032770Y907717D1*
X1034454Y904724D1*
X1036042Y901732D1*
X1037586Y898740D1*
X1039193Y895748D1*
X1040979Y892756D1*
X1042909Y889764D1*
X1044741Y886772D1*
X1046435Y883780D1*
X1048116Y880787D1*
X1049936Y877795D1*
X1051878Y874803D1*
X1053715Y871811D1*
X1055399Y868819D1*
X1056987Y865827D1*
X1058531Y862835D1*
X1060137Y859843D1*
X1061924Y856850D1*
X1063854Y853858D1*
X1065686Y850866D1*
X1067368Y847874D1*
X1068956Y844882D1*
X1070499Y841890D1*
X1072106Y838898D1*
X1073893Y835906D1*
X1075822Y832913D1*
X1077643Y829921D1*
X1079220Y826929D1*
X1080415Y823937D1*
X1081124Y820945D1*
X1081477Y817953D1*
X1081633Y814961D1*
X1081696Y811969D1*
X1081719Y808976D1*
X1081716Y805984D1*
X1081605Y802992D1*
X1081144Y800000D1*
X1080121Y797008D1*
X1078740Y794016D1*
X749606Y1305669D2*
X749030Y1302677D1*
X747893Y1299685D1*
X746296Y1296693D1*
X744612Y1293701D1*
X742990Y1290709D1*
X741425Y1287717D1*
X739890Y1284724D1*
X738286Y1281732D1*
X736500Y1278740D1*
X734572Y1275748D1*
X732739Y1272756D1*
X731057Y1269764D1*
X729469Y1266772D1*
X727926Y1263780D1*
X726319Y1260787D1*
X724532Y1257795D1*
X722603Y1254803D1*
X720770Y1251811D1*
X719088Y1248819D1*
X717501Y1245827D1*
X715957Y1242835D1*
X714351Y1239843D1*
X712564Y1236850D1*
X710635Y1233858D1*
X708802Y1230866D1*
X707120Y1227874D1*
X705532Y1224882D1*
X704001Y1221890D1*
X702487Y1218898D1*
X700977Y1215906D1*
X699383Y1212913D1*
X697601Y1209921D1*
X695673Y1206929D1*
X693841Y1203937D1*
X692159Y1200945D1*
X690571Y1197953D1*
X689028Y1194961D1*
X687422Y1191969D1*
X685635Y1188976D1*
X683706Y1185984D1*
X681873Y1182992D1*
X680191Y1180000D1*
X678603Y1177008D1*
X677060Y1174016D1*
X675453Y1171024D1*
X673666Y1168031D1*
X671737Y1165039D1*
X669904Y1162047D1*
X668222Y1159055D1*
X666634Y1156063D1*
X665091Y1153071D1*
X663485Y1150079D1*
X661698Y1147087D1*
X659769Y1144094D1*
X657936Y1141102D1*
X656254Y1138110D1*
X654666Y1135118D1*
X653123Y1132126D1*
X651516Y1129134D1*
X649729Y1126142D1*
X647800Y1123150D1*
X645967Y1120157D1*
X644273Y1117165D1*
X642592Y1114173D1*
X640773Y1111181D1*
X638831Y1108189D1*
X636994Y1105197D1*
X635310Y1102205D1*
X633721Y1099213D1*
X632178Y1096220D1*
X630571Y1093228D1*
X628784Y1090236D1*
X626855Y1087244D1*
X625022Y1084252D1*
X623340Y1081260D1*
X621753Y1078268D1*
X620209Y1075276D1*
X618603Y1072283D1*
X616816Y1069291D1*
X614887Y1066299D1*
X613054Y1063307D1*
X611372Y1060315D1*
X609784Y1057323D1*
X608241Y1054331D1*
X606634Y1051339D1*
X604847Y1048346D1*
X602918Y1045354D1*
X601085Y1042362D1*
X599403Y1039370D1*
X597816Y1036378D1*
X596284Y1033386D1*
X594771Y1030394D1*
X593260Y1027402D1*
X591666Y1024409D1*
X589884Y1021417D1*
X587957Y1018425D1*
X586125Y1015433D1*
X584443Y1012441D1*
X582855Y1009449D1*
X581312Y1006457D1*
X579705Y1003465D1*
X577918Y1000472D1*
X575989Y997480D1*
X574156Y994488D1*
X572474Y991496D1*
X570886Y988504D1*
X569343Y985512D1*
X567737Y982520D1*
X565950Y979528D1*
X564020Y976535D1*
X562188Y973543D1*
X560506Y970551D1*
X558918Y967559D1*
X557375Y964567D1*
X555768Y961575D1*
X553981Y958583D1*
X552052Y955591D1*
X550219Y952598D1*
X548537Y949606D1*
X546949Y946614D1*
X545406Y943622D1*
X543800Y940630D1*
X542013Y937638D1*
X540083Y934646D1*
X538251Y931654D1*
X536569Y928661D1*
X534981Y925669D1*
X533438Y922677D1*
X531831Y919685D1*
X530044Y916693D1*
X528115Y913701D1*
X526282Y910709D1*
X524600Y907717D1*
X523012Y904724D1*
X521469Y901732D1*
X519863Y898740D1*
X518076Y895748D1*
X516146Y892756D1*
X514314Y889764D1*
X512632Y886772D1*
X511044Y883780D1*
X509501Y880787D1*
X507894Y877795D1*
X506107Y874803D1*
X504178Y871811D1*
X502345Y868819D1*
X500663Y865827D1*
X499075Y862835D1*
X497532Y859843D1*
X495926Y856850D1*
X494139Y853858D1*
X492198Y850866D1*
X490260Y847874D1*
X488193Y844882D1*
X485831Y841890D1*
X483307Y838898D1*
X755591Y1305669D2*
X756167Y1302677D1*
X757304Y1299685D1*
X758901Y1296693D1*
X760585Y1293701D1*
X762207Y1290709D1*
X763772Y1287717D1*
X765307Y1284724D1*
X766911Y1281732D1*
X768696Y1278740D1*
X770625Y1275748D1*
X772458Y1272756D1*
X774140Y1269764D1*
X775728Y1266772D1*
X777271Y1263780D1*
X778878Y1260787D1*
X780665Y1257795D1*
X782594Y1254803D1*
X784426Y1251811D1*
X786109Y1248819D1*
X787696Y1245827D1*
X789228Y1242835D1*
X790741Y1239843D1*
X792252Y1236850D1*
X793846Y1233858D1*
X795628Y1230866D1*
X797555Y1227874D1*
X799387Y1224882D1*
X801069Y1221890D1*
X802657Y1218898D1*
X804200Y1215906D1*
X805807Y1212913D1*
X807594Y1209921D1*
X809523Y1206929D1*
X811356Y1203937D1*
X813038Y1200945D1*
X814625Y1197953D1*
X816168Y1194961D1*
X817775Y1191969D1*
X819562Y1188976D1*
X821491Y1185984D1*
X823324Y1182992D1*
X825006Y1180000D1*
X826594Y1177008D1*
X828137Y1174016D1*
X829744Y1171024D1*
X831531Y1168031D1*
X833460Y1165039D1*
X835293Y1162047D1*
X836975Y1159055D1*
X838562Y1156063D1*
X840106Y1153071D1*
X841712Y1150079D1*
X843499Y1147087D1*
X845428Y1144094D1*
X847261Y1141102D1*
X848943Y1138110D1*
X850531Y1135118D1*
X852074Y1132126D1*
X853681Y1129134D1*
X855468Y1126142D1*
X857397Y1123150D1*
X859230Y1120157D1*
X860912Y1117165D1*
X862499Y1114173D1*
X864043Y1111181D1*
X865649Y1108189D1*
X867436Y1105197D1*
X869365Y1102205D1*
X871198Y1099213D1*
X872880Y1096220D1*
X874468Y1093228D1*
X876011Y1090236D1*
X877618Y1087244D1*
X879405Y1084252D1*
X881334Y1081260D1*
X883167Y1078268D1*
X884849Y1075276D1*
X886436Y1072283D1*
X887980Y1069291D1*
X889586Y1066299D1*
X891373Y1063307D1*
X893302Y1060315D1*
X895135Y1057323D1*
X896817Y1054331D1*
X898405Y1051339D1*
X899936Y1048346D1*
X901450Y1045354D1*
X902960Y1042362D1*
X904554Y1039370D1*
X906336Y1036378D1*
X908264Y1033386D1*
X910096Y1030394D1*
X911778Y1027402D1*
X913366Y1024409D1*
X914909Y1021417D1*
X916515Y1018425D1*
X918302Y1015433D1*
X920231Y1012441D1*
X922064Y1009449D1*
X923746Y1006457D1*
X925334Y1003465D1*
X926877Y1000472D1*
X928484Y997480D1*
X930271Y994488D1*
X932200Y991496D1*
X934033Y988504D1*
X935727Y985512D1*
X937408Y982520D1*
X939227Y979528D1*
X941169Y976535D1*
X943006Y973543D1*
X944690Y970551D1*
X946279Y967559D1*
X947822Y964567D1*
X949429Y961575D1*
X951216Y958583D1*
X953145Y955591D1*
X954978Y952598D1*
X956660Y949606D1*
X958247Y946614D1*
X959791Y943622D1*
X961397Y940630D1*
X963184Y937638D1*
X965113Y934646D1*
X966946Y931654D1*
X968628Y928661D1*
X970216Y925669D1*
X971759Y922677D1*
X973366Y919685D1*
X975153Y916693D1*
X977082Y913701D1*
X978915Y910709D1*
X980597Y907717D1*
X982184Y904724D1*
X983728Y901732D1*
X985334Y898740D1*
X987121Y895748D1*
X989050Y892756D1*
X990883Y889764D1*
X992565Y886772D1*
X994153Y883780D1*
X995696Y880787D1*
X997303Y877795D1*
X999090Y874803D1*
X1001019Y871811D1*
X1002852Y868819D1*
X1004534Y865827D1*
X1006121Y862835D1*
X1007665Y859843D1*
X1009271Y856850D1*
X1011058Y853858D1*
X1012999Y850866D1*
X1014936Y847874D1*
X1017004Y844882D1*
X1019366Y841890D1*
X1021890Y838898D1*
X752598Y1168031D2*
X751103Y1165039D1*
X749860Y1162047D1*
X748697Y1159055D1*
X747631Y1156063D1*
X746650Y1153071D1*
X745626Y1150079D1*
X744710Y1147087D1*
X744027Y1144094D1*
X743346Y1141102D1*
X742495Y1138110D1*
X741661Y1135118D1*
X741013Y1132126D1*
X740347Y1129134D1*
X739489Y1126142D1*
X738563Y1123150D1*
X737639Y1120157D1*
X736638Y1117165D1*
X735729Y1114173D1*
X735049Y1111181D1*
X734370Y1108189D1*
X733507Y1105197D1*
X732580Y1102205D1*
X731655Y1099213D1*
X730654Y1096220D1*
X729745Y1093228D1*
X729065Y1090236D1*
X728385Y1087244D1*
X727534Y1084252D1*
X726700Y1081260D1*
X726052Y1078268D1*
X725386Y1075276D1*
X724528Y1072283D1*
X723602Y1069291D1*
X722679Y1066299D1*
X721665Y1063307D1*
X720664Y1060315D1*
X719707Y1057323D1*
X718692Y1054331D1*
X717779Y1051339D1*
X717097Y1048346D1*
X716417Y1045354D1*
X715554Y1042362D1*
X714627Y1039370D1*
X713703Y1036378D1*
X712701Y1033386D1*
X711792Y1030394D1*
X711112Y1027402D1*
X710433Y1024409D1*
X709582Y1021417D1*
X708748Y1018425D1*
X708100Y1015433D1*
X707433Y1012441D1*
X706575Y1009449D1*
X705650Y1006457D1*
X704726Y1003465D1*
X703713Y1000472D1*
X702711Y997480D1*
X701754Y994488D1*
X700739Y991496D1*
X699830Y988504D1*
X699206Y985512D1*
X698740Y982520D1*
X794488Y1168031D2*
X794014Y1165039D1*
X793167Y1162047D1*
X791999Y1159055D1*
X790654Y1156063D1*
X789227Y1153071D1*
X787850Y1150079D1*
X786647Y1147087D1*
X785585Y1144094D1*
X784426Y1141102D1*
X783116Y1138110D1*
X781712Y1135118D1*
X780251Y1132126D1*
X778772Y1129134D1*
X777291Y1126142D1*
X775893Y1123150D1*
X774683Y1120157D1*
X773618Y1117165D1*
X772458Y1114173D1*
X771148Y1111181D1*
X769744Y1108189D1*
X768294Y1105197D1*
X766909Y1102205D1*
X765704Y1099213D1*
X764641Y1096220D1*
X763481Y1093228D1*
X762172Y1090236D1*
X760767Y1087244D1*
X759306Y1084252D1*
X757828Y1081260D1*
X756346Y1078268D1*
X754948Y1075276D1*
X753738Y1072283D1*
X752673Y1069291D1*
X751513Y1066299D1*
X750203Y1063307D1*
X748799Y1060315D1*
X747338Y1057323D1*
X745859Y1054331D1*
X744375Y1051339D1*
X742961Y1048346D1*
X741716Y1045354D1*
X740630Y1042362D1*
X815433Y1069291D2*
X807594Y1066299D1*
X799903Y1063307D1*
X792316Y1060315D1*
X784793Y1057323D1*
X777304Y1054331D1*
X769924Y1051339D1*
X762824Y1048346D1*
X756116Y1045354D1*
X749606Y1042362D1*
X818425Y1069291D2*
X818311Y1066299D1*
X817928Y1063307D1*
X817199Y1060315D1*
X816326Y1057323D1*
X815423Y1054331D1*
X814429Y1051339D1*
X813523Y1048346D1*
X812844Y1045354D1*
X812165Y1042362D1*
X811314Y1039370D1*
X810480Y1036378D1*
X809832Y1033386D1*
X809165Y1030394D1*
X808319Y1027402D1*
X807487Y1024409D1*
X806839Y1021417D1*
X806173Y1018425D1*
X805315Y1015433D1*
X804390Y1012441D1*
X803466Y1009449D1*
X802464Y1006457D1*
X801556Y1003465D1*
X800876Y1000472D1*
X800196Y997480D1*
X799345Y994488D1*
X798511Y991496D1*
X797863Y988504D1*
X797197Y985512D1*
X796339Y982520D1*
X795413Y979528D1*
X794490Y976535D1*
X793488Y973543D1*
X792580Y970551D1*
X791899Y967559D1*
X791220Y964567D1*
X790369Y961575D1*
X789535Y958583D1*
X788887Y955591D1*
X788221Y952598D1*
X787363Y949606D1*
X786437Y946614D1*
X785513Y943622D1*
X784512Y940630D1*
X783603Y937638D1*
X782923Y934646D1*
X782244Y931654D1*
X781392Y928661D1*
X780562Y925669D1*
X779974Y922677D1*
X779528Y919685D1*
X794488Y916693D1*
X791958Y913701D1*
X789720Y910709D1*
X787608Y907717D1*
X785521Y904724D1*
X783535Y901732D1*
X781542Y898740D1*
X779506Y895748D1*
X777528Y892756D1*
X775449Y889764D1*
X773139Y886772D1*
X770839Y883780D1*
X768803Y880787D1*
X767014Y877795D1*
X765293Y874803D1*
X763468Y871811D1*
X761592Y868819D1*
X759971Y865827D1*
X758583Y862835D1*
X773543Y1012441D2*
X767097Y1009449D1*
X760359Y1006457D1*
X753483Y1003465D1*
X746488Y1000472D1*
X739128Y997480D1*
X731521Y994488D1*
X724081Y991496D1*
X716812Y988504D1*
X709372Y985512D1*
X701732Y982520D1*
X776535Y1012441D2*
X776073Y1009449D1*
X775331Y1006457D1*
X774545Y1003465D1*
X773916Y1000472D1*
X773256Y997480D1*
X772401Y994488D1*
X771476Y991496D1*
X770553Y988504D1*
X769551Y985512D1*
X768643Y982520D1*
X767962Y979528D1*
X767283Y976535D1*
X766420Y973543D1*
X765493Y970551D1*
X764569Y967559D1*
X763567Y964567D1*
X762659Y961575D1*
X761978Y958583D1*
X761299Y955591D1*
X760436Y952598D1*
X759509Y949606D1*
X758584Y946614D1*
X757583Y943622D1*
X756674Y940630D1*
X755994Y937638D1*
X755315Y934646D1*
X754393Y931654D1*
X753270Y928661D1*
X750616Y925669D1*
X743391Y922677D1*
X734646Y919685D1*
X736141Y916693D1*
X737384Y913701D1*
X738547Y910709D1*
X739613Y907717D1*
X740594Y904724D1*
X741629Y901732D1*
X742639Y898740D1*
X743599Y895748D1*
X744626Y892756D1*
X745633Y889764D1*
X746591Y886772D1*
X747618Y883780D1*
X748625Y880787D1*
X749583Y877795D1*
X750610Y874803D1*
X751626Y871811D1*
X752668Y868819D1*
X754005Y865827D1*
X755591Y862835D1*
X2455665Y2763623D2*
D74*
X2458042Y2768376D1*
X2462850Y2773184D1*
X2467603Y2775561D1*
X2477165D1*
X2481973Y2773184D1*
X2486727Y2768376D1*
X2489158Y2763623D1*
X2491535Y2756438D1*
Y2744444D1*
X2489158Y2737314D1*
X2486727Y2732506D1*
X2481973Y2727753D1*
X2477165Y2725321D1*
X2467603D1*
X2462850Y2727753D1*
X2458042Y2732506D1*
X2455665Y2737314D1*
X2437849Y2730129D2*
X2440226Y2727698D1*
X2437849Y2725321D1*
X2435417Y2727698D1*
X2437849Y2730129D1*
X2419978Y2775561D2*
Y2725321D1*
X2386485Y2775561D2*
Y2725321D1*
X2419978Y2751629D2*
X2386485D1*
X2368669Y2730129D2*
X2371046Y2727698D1*
X2368669Y2725321D1*
X2366237Y2727698D1*
X2368669Y2730129D1*
X2350798Y2775561D2*
Y2725321D1*
X2332982Y2730129D2*
X2335359Y2727698D1*
X2332982Y2725321D1*
X2330550Y2727698D1*
X2332982Y2730129D1*
X2315111Y2749253D2*
X2293556D1*
X2286426Y2751629D1*
X2283994Y2754061D1*
X2281618Y2758814D1*
Y2765999D1*
X2283994Y2770753D1*
X2286426Y2773184D1*
X2293556Y2775561D1*
X2315111D1*
Y2725321D1*
X2263802Y2730129D2*
X2266178Y2727698D1*
X2263802Y2725321D1*
X2261370Y2727698D1*
X2263802Y2730129D1*
X2161460Y2763623D2*
X2163836Y2768376D1*
X2168645Y2773184D1*
X2173398Y2775561D1*
X2182960D1*
X2187768Y2773184D1*
X2192521Y2768376D1*
X2194953Y2763623D1*
X2197330Y2756438D1*
Y2744444D1*
X2194953Y2737314D1*
X2192521Y2732506D1*
X2187768Y2727753D1*
X2182960Y2725321D1*
X2173398D1*
X2168645Y2727753D1*
X2163836Y2732506D1*
X2161460Y2737314D1*
Y2744444D1*
X2173398D1*
X2134082Y2758814D2*
X2138835Y2756438D1*
X2143644Y2751629D1*
X2146021Y2744444D1*
Y2739691D1*
X2143644Y2732506D1*
X2138835Y2727753D1*
X2134082Y2725321D1*
X2126897D1*
X2122089Y2727753D1*
X2117336Y2732506D1*
X2114904Y2739691D1*
Y2744444D1*
X2117336Y2751629D1*
X2122089Y2756438D1*
X2126897Y2758814D1*
X2134082D1*
X2099465Y2744444D2*
X2070780D1*
Y2749253D1*
X2073156Y2754061D1*
X2075533Y2756438D1*
X2080341Y2758814D1*
X2087526D1*
X2092280Y2756438D1*
X2097088Y2751629D1*
X2099465Y2744444D1*
Y2739691D1*
X2097088Y2732506D1*
X2092280Y2727753D1*
X2087526Y2725321D1*
X2080341D1*
X2075533Y2727753D1*
X2070780Y2732506D1*
X2029032Y2751629D2*
X2031409Y2756438D1*
X2038594Y2758814D1*
X2045779D1*
X2052964Y2756438D1*
X2055340Y2751629D1*
X2052964Y2746876D1*
X2048155Y2744444D1*
X2036217Y2742068D1*
X2031409Y2739691D1*
X2029032Y2734883D1*
Y2732506D1*
X2031409Y2727753D1*
X2038594Y2725321D1*
X2045779D1*
X2052964Y2727753D1*
X2055340Y2732506D1*
X1953054Y2758814D2*
X1957807Y2756438D1*
X1962615Y2751629D1*
X1964992Y2744444D1*
Y2739691D1*
X1962615Y2732506D1*
X1957807Y2727753D1*
X1953054Y2725321D1*
X1945869D1*
X1941060Y2727753D1*
X1936307Y2732506D1*
X1933875Y2739691D1*
Y2744444D1*
X1936307Y2751629D1*
X1941060Y2756438D1*
X1945869Y2758814D1*
X1953054D1*
X1918436D2*
Y2725321D1*
Y2749253D2*
X1911251Y2756438D1*
X1906442Y2758814D1*
X1899313D1*
X1894504Y2756438D1*
X1892128Y2749253D1*
Y2725321D1*
X1820902Y2775561D2*
Y2734883D1*
X1818526Y2727753D1*
X1813717Y2725321D1*
X1808964D1*
X1828087Y2758814D2*
X1811341D1*
X1793525Y2775561D2*
Y2725321D1*
Y2749253D2*
X1786340Y2756438D1*
X1781531Y2758814D1*
X1774346D1*
X1769593Y2756438D1*
X1767217Y2749253D1*
Y2725321D1*
X1751777Y2775561D2*
X1749401Y2773184D1*
X1746969Y2775561D1*
X1749401Y2777993D1*
X1751777Y2775561D1*
X1749401Y2758814D2*
Y2725321D1*
X1705221Y2751629D2*
X1707598Y2756438D1*
X1714783Y2758814D1*
X1721968D1*
X1729153Y2756438D1*
X1731530Y2751629D1*
X1729153Y2746876D1*
X1724345Y2744444D1*
X1712406Y2742068D1*
X1707598Y2739691D1*
X1705221Y2734883D1*
Y2732506D1*
X1707598Y2727753D1*
X1714783Y2725321D1*
X1721968D1*
X1729153Y2727753D1*
X1731530Y2732506D1*
X1641181Y2775561D2*
X1638805Y2773184D1*
X1636373Y2775561D1*
X1638805Y2777993D1*
X1641181Y2775561D1*
X1638805Y2758814D2*
Y2725321D1*
X1594625Y2751629D2*
X1597002Y2756438D1*
X1604187Y2758814D1*
X1611372D1*
X1618557Y2756438D1*
X1620933Y2751629D1*
X1618557Y2746876D1*
X1613748Y2744444D1*
X1601810Y2742068D1*
X1597002Y2739691D1*
X1594625Y2734883D1*
Y2732506D1*
X1597002Y2727753D1*
X1604187Y2725321D1*
X1611372D1*
X1618557Y2727753D1*
X1620933Y2732506D1*
X1550501Y2775561D2*
Y2725321D1*
Y2751629D2*
X1555254Y2756438D1*
X1560063Y2758814D1*
X1567248D1*
X1572001Y2756438D1*
X1576809Y2751629D1*
X1579186Y2744444D1*
Y2739691D1*
X1576809Y2732506D1*
X1572001Y2727753D1*
X1567248Y2725321D1*
X1560063D1*
X1555254Y2727753D1*
X1550501Y2732506D1*
X1535062Y2744444D2*
X1506377D1*
Y2749253D1*
X1508753Y2754061D1*
X1511130Y2756438D1*
X1515939Y2758814D1*
X1523124D1*
X1527877Y2756438D1*
X1532685Y2751629D1*
X1535062Y2744444D1*
Y2739691D1*
X1532685Y2732506D1*
X1527877Y2727753D1*
X1523124Y2725321D1*
X1515939D1*
X1511130Y2727753D1*
X1506377Y2732506D1*
X2517476Y1879165D2*
D75*
Y1798781D1*
X2492774Y1852371D2*
Y1798781D1*
Y1837072D2*
X2481278Y1848568D1*
X2473584Y1852371D1*
X2462176D1*
X2454483Y1848568D1*
X2450680Y1837072D1*
Y1798781D1*
X2380082Y1848568D2*
Y1787285D1*
X2383884Y1775878D1*
X2387687Y1771987D1*
X2395380Y1768184D1*
X2406876D1*
X2414481Y1771987D1*
X2380082Y1837072D2*
X2387687Y1844677D1*
X2395380Y1848568D1*
X2406876D1*
X2414481Y1844677D1*
X2422175Y1837072D1*
X2425978Y1825576D1*
Y1817882D1*
X2422175Y1806475D1*
X2414481Y1798781D1*
X2406876Y1794979D1*
X2395380D1*
X2387687Y1798781D1*
X2380082Y1806475D1*
X2355379Y1852371D2*
Y1798781D1*
Y1829379D2*
X2351488Y1840875D1*
X2343883Y1848568D1*
X2336189Y1852371D1*
X2324693D1*
X2299990Y1829379D2*
X2254095D1*
Y1837072D1*
X2257897Y1844766D1*
X2261700Y1848568D1*
X2269393Y1852371D1*
X2280889D1*
X2288494Y1848568D1*
X2296188Y1840875D1*
X2299990Y1829379D1*
Y1821773D1*
X2296188Y1810277D1*
X2288494Y1802672D1*
X2280889Y1798781D1*
X2269393D1*
X2261700Y1802672D1*
X2254095Y1810277D1*
X2183496Y1879165D2*
Y1798781D1*
Y1840875D2*
X2191101Y1848568D1*
X2198795Y1852371D1*
X2210291D1*
X2217896Y1848568D1*
X2225589Y1840875D1*
X2229392Y1829379D1*
Y1821773D1*
X2225589Y1810277D1*
X2217896Y1802672D1*
X2210291Y1798781D1*
X2198795D1*
X2191101Y1802672D1*
X2183496Y1810277D1*
X2158793Y1879165D2*
X2154991Y1875363D1*
X2151100Y1879165D1*
X2154991Y1883056D1*
X2158793Y1879165D1*
X2154991Y1852371D2*
Y1798781D1*
X2126397Y1829379D2*
X2080501D1*
Y1837072D1*
X2084304Y1844766D1*
X2088106Y1848568D1*
X2095800Y1852371D1*
X2107296D1*
X2114901Y1848568D1*
X2122594Y1840875D1*
X2126397Y1829379D1*
Y1821773D1*
X2122594Y1810277D1*
X2114901Y1802672D1*
X2107296Y1798781D1*
X2095800D1*
X2088106Y1802672D1*
X2080501Y1810277D1*
X2055798Y1852371D2*
Y1798781D1*
Y1837072D2*
X2044302Y1848568D1*
X2036609Y1852371D1*
X2025201D1*
X2017508Y1848568D1*
X2013705Y1837072D1*
Y1798781D1*
X1977506Y1879165D2*
Y1814080D1*
X1973704Y1802672D1*
X1966010Y1798781D1*
X1958405D1*
X1989002Y1852371D2*
X1962208D1*
X1933702Y1829379D2*
X1887806D1*
Y1837072D1*
X1891609Y1844766D1*
X1895411Y1848568D1*
X1903105Y1852371D1*
X1914601D1*
X1922206Y1848568D1*
X1929900Y1840875D1*
X1933702Y1829379D1*
Y1821773D1*
X1929900Y1810277D1*
X1922206Y1802672D1*
X1914601Y1798781D1*
X1903105D1*
X1895411Y1802672D1*
X1887806Y1810277D1*
X1821010Y1840875D2*
X1824813Y1848568D1*
X1836309Y1852371D1*
X1847805D1*
X1859301Y1848568D1*
X1863104Y1840875D1*
X1859301Y1833269D1*
X1851608Y1829379D1*
X1832506Y1825576D1*
X1824813Y1821773D1*
X1821010Y1814080D1*
Y1810277D1*
X1824813Y1802672D1*
X1836309Y1798781D1*
X1847805D1*
X1859301Y1802672D1*
X1863104Y1810277D1*
X1792417Y1852371D2*
X1796308Y1848480D1*
X1792417Y1844677D1*
X1788614Y1848480D1*
X1792417Y1852371D1*
Y1806475D2*
X1796308Y1802584D1*
X1792417Y1798781D1*
X1788614Y1802584D1*
X1792417Y1806475D1*
X2455139Y1607996D2*
D76*
Y1562100D1*
X2457991Y1553478D1*
X2460909Y1550626D1*
X2466613Y1547708D1*
X2472383D1*
X2478087Y1550626D1*
X2480938Y1553478D1*
X2483857Y1562100D1*
Y1567804D1*
X2436612Y1607996D2*
X2433760Y1605144D1*
X2430841Y1607996D1*
X2433760Y1610914D1*
X2436612Y1607996D1*
X2433760Y1587900D2*
Y1547708D1*
X2403692Y1607996D2*
Y1559182D1*
X2400840Y1550626D1*
X2395070Y1547708D1*
X2389366D1*
X2412314Y1587900D2*
X2392218D1*
X2356513D2*
X2362217Y1585048D1*
X2367987Y1579278D1*
X2370839Y1570656D1*
Y1564952D1*
X2367987Y1556330D1*
X2362217Y1550626D1*
X2356513Y1547708D1*
X2347891D1*
X2342121Y1550626D1*
X2336417Y1556330D1*
X2333499Y1564952D1*
Y1570656D1*
X2336417Y1579278D1*
X2342121Y1585048D1*
X2347891Y1587900D1*
X2356513D1*
X2314972D2*
Y1547708D1*
Y1576426D2*
X2306350Y1585048D1*
X2300580Y1587900D1*
X2292024D1*
X2286254Y1585048D1*
X2283402Y1576426D1*
Y1547708D1*
Y1576426D2*
X2274780Y1585048D1*
X2269010Y1587900D1*
X2260454D1*
X2254684Y1585048D1*
X2251766Y1576426D1*
Y1547708D1*
X2198817Y1587900D2*
Y1547708D1*
Y1579278D2*
X2204521Y1585048D1*
X2210291Y1587900D1*
X2218847D1*
X2224617Y1585048D1*
X2230321Y1579278D1*
X2233239Y1570656D1*
Y1564952D1*
X2230321Y1556330D1*
X2224617Y1550626D1*
X2218847Y1547708D1*
X2210291D1*
X2204521Y1550626D1*
X2198817Y1556330D1*
X2171668Y1607996D2*
Y1559182D1*
X2168816Y1550626D1*
X2163046Y1547708D1*
X2157342D1*
X2180290Y1587900D2*
X2160194D1*
X2138815Y1570656D2*
X2104393D1*
Y1576426D1*
X2107245Y1582196D1*
X2110097Y1585048D1*
X2115867Y1587900D1*
X2124489D1*
X2130193Y1585048D1*
X2135963Y1579278D1*
X2138815Y1570656D1*
Y1564952D1*
X2135963Y1556330D1*
X2130193Y1550626D1*
X2124489Y1547708D1*
X2115867D1*
X2110097Y1550626D1*
X2104393Y1556330D1*
X2434901Y1502725D2*
X2437753Y1508429D1*
X2443523Y1514199D1*
X2449227Y1517051D1*
X2460701D1*
X2466471Y1514199D1*
X2472175Y1508429D1*
X2475093Y1502725D1*
X2477945Y1494103D1*
Y1479711D1*
X2475093Y1471155D1*
X2472175Y1465385D1*
X2466471Y1459681D1*
X2460701Y1456763D1*
X2449227D1*
X2443523Y1459681D1*
X2437753Y1465385D1*
X2434901Y1471155D1*
X2416374Y1479711D2*
X2381952D1*
Y1485481D1*
X2384804Y1491251D1*
X2387656Y1494103D1*
X2393426Y1496955D1*
X2402048D1*
X2407752Y1494103D1*
X2413522Y1488333D1*
X2416374Y1479711D1*
Y1474007D1*
X2413522Y1465385D1*
X2407752Y1459681D1*
X2402048Y1456763D1*
X2393426D1*
X2387656Y1459681D1*
X2381952Y1465385D1*
X2363425Y1517051D2*
Y1456763D1*
Y1488333D2*
X2357655Y1494103D1*
X2351951Y1496955D1*
X2343329D1*
X2337625Y1494103D1*
X2331855Y1488333D1*
X2329003Y1479711D1*
Y1474007D1*
X2331855Y1465385D1*
X2337625Y1459681D1*
X2343329Y1456763D1*
X2351951D1*
X2357655Y1459681D1*
X2363425Y1465385D1*
X2296150Y1496955D2*
X2301854Y1494103D1*
X2307624Y1488333D1*
X2310476Y1479711D1*
Y1474007D1*
X2307624Y1465385D1*
X2301854Y1459681D1*
X2296150Y1456763D1*
X2287528D1*
X2281758Y1459681D1*
X2276054Y1465385D1*
X2273136Y1474007D1*
Y1479711D1*
X2276054Y1488333D1*
X2281758Y1494103D1*
X2287528Y1496955D1*
X2296150D1*
X2254609Y1517051D2*
Y1456763D1*
X2236082Y1517051D2*
Y1456763D1*
X2183133Y1496955D2*
Y1456763D1*
Y1488333D2*
X2188837Y1494103D1*
X2194607Y1496955D1*
X2203163D1*
X2208933Y1494103D1*
X2214637Y1488333D1*
X2217555Y1479711D1*
Y1474007D1*
X2214637Y1465385D1*
X2208933Y1459681D1*
X2203163Y1456763D1*
X2194607D1*
X2188837Y1459681D1*
X2183133Y1465385D1*
X2435870Y1414930D2*
X2438722Y1420634D1*
X2444492Y1426404D1*
X2450196Y1429256D1*
X2461670D1*
X2467440Y1426404D1*
X2473144Y1420634D1*
X2476062Y1414930D1*
X2478914Y1406308D1*
Y1391916D1*
X2476062Y1383360D1*
X2473144Y1377590D1*
X2467440Y1371886D1*
X2461670Y1368968D1*
X2450196D1*
X2444492Y1371886D1*
X2438722Y1377590D1*
X2435870Y1383360D1*
X2417343Y1429256D2*
Y1368968D1*
Y1397686D2*
X2408721Y1406308D1*
X2402951Y1409160D1*
X2394329D1*
X2388625Y1406308D1*
X2385773Y1397686D1*
Y1368968D1*
X2367246Y1429256D2*
X2364394Y1426404D1*
X2361476Y1429256D1*
X2364394Y1432174D1*
X2367246Y1429256D1*
X2364394Y1409160D2*
Y1368968D1*
X2342949Y1429256D2*
Y1368968D1*
X2324422Y1391916D2*
X2290000D1*
Y1397686D1*
X2292852Y1403456D1*
X2295704Y1406308D1*
X2301474Y1409160D1*
X2310096D1*
X2315800Y1406308D1*
X2321570Y1400538D1*
X2324422Y1391916D1*
Y1386212D1*
X2321570Y1377590D1*
X2315800Y1371886D1*
X2310096Y1368968D1*
X2301474D1*
X2295704Y1371886D1*
X2290000Y1377590D1*
X2172960Y1420634D2*
X2178664Y1426404D1*
X2187286Y1429256D1*
X2198760D1*
X2207382Y1426404D1*
X2213152Y1420634D1*
Y1414930D1*
X2210234Y1409160D1*
X2207382Y1406308D1*
X2201678Y1403456D1*
X2184434Y1397686D1*
X2178664Y1394834D1*
X2175812Y1391916D1*
X2172960Y1386212D1*
Y1377590D1*
X2178664Y1371886D1*
X2187286Y1368968D1*
X2198760D1*
X2207382Y1371886D1*
X2213152Y1377590D1*
X2154433Y1391916D2*
X2120011D1*
Y1397686D1*
X2122863Y1403456D1*
X2125715Y1406308D1*
X2131485Y1409160D1*
X2140107D1*
X2145811Y1406308D1*
X2151581Y1400538D1*
X2154433Y1391916D1*
Y1386212D1*
X2151581Y1377590D1*
X2145811Y1371886D1*
X2140107Y1368968D1*
X2131485D1*
X2125715Y1371886D1*
X2120011Y1377590D1*
X2101484Y1409160D2*
Y1368968D1*
Y1391916D2*
X2098566Y1400538D1*
X2092862Y1406308D1*
X2087092Y1409160D1*
X2078470D1*
X2059942D2*
Y1368968D1*
Y1391916D2*
X2057024Y1400538D1*
X2051320Y1406308D1*
X2045550Y1409160D1*
X2036928D1*
X1983979D2*
Y1368968D1*
Y1400538D2*
X1989683Y1406308D1*
X1995453Y1409160D1*
X2004009D1*
X2009779Y1406308D1*
X2015483Y1400538D1*
X2018401Y1391916D1*
Y1386212D1*
X2015483Y1377590D1*
X2009779Y1371886D1*
X2004009Y1368968D1*
X1995453D1*
X1989683Y1371886D1*
X1983979Y1377590D1*
X1965452Y1409160D2*
Y1368968D1*
Y1397686D2*
X1956830Y1406308D1*
X1951060Y1409160D1*
X1942504D1*
X1936734Y1406308D1*
X1933882Y1397686D1*
Y1368968D1*
X1901029Y1409160D2*
X1906733Y1406308D1*
X1912503Y1400538D1*
X1915355Y1391916D1*
Y1386212D1*
X1912503Y1377590D1*
X1906733Y1371886D1*
X1901029Y1368968D1*
X1892407D1*
X1886637Y1371886D1*
X1880933Y1377590D1*
X1878015Y1386212D1*
Y1391916D1*
X1880933Y1400538D1*
X1886637Y1406308D1*
X1892407Y1409160D1*
X1901029D1*
X2435997Y1325954D2*
X2438849Y1331657D1*
X2444619Y1337428D1*
X2450323Y1340279D1*
X2461797D1*
X2467567Y1337428D1*
X2473271Y1331657D1*
X2476189Y1325954D1*
X2479041Y1317332D1*
Y1302939D1*
X2476189Y1294384D1*
X2473271Y1288614D1*
X2467567Y1282910D1*
X2461797Y1279991D1*
X2450323D1*
X2444619Y1282910D1*
X2438849Y1288614D1*
X2435997Y1294384D1*
X2417470Y1340279D2*
X2414618Y1337428D1*
X2411700Y1340279D1*
X2414618Y1343198D1*
X2417470Y1340279D1*
X2414618Y1320183D2*
Y1279991D1*
X2393173Y1340279D2*
Y1279991D1*
X2340224Y1320183D2*
Y1279991D1*
Y1311561D2*
X2345928Y1317332D1*
X2351698Y1320183D1*
X2360254D1*
X2366024Y1317332D1*
X2371728Y1311561D1*
X2374646Y1302939D1*
Y1297236D1*
X2371728Y1288614D1*
X2366024Y1282910D1*
X2360254Y1279991D1*
X2351698D1*
X2345928Y1282910D1*
X2340224Y1288614D1*
X2321697Y1320183D2*
Y1279991D1*
Y1308710D2*
X2313075Y1317332D1*
X2307305Y1320183D1*
X2298749D1*
X2292979Y1317332D1*
X2290127Y1308710D1*
Y1279991D1*
X2262978Y1340279D2*
Y1291465D1*
X2260126Y1282910D1*
X2254356Y1279991D1*
X2248652D1*
X2271600Y1320183D2*
X2251504D1*
X2230125D2*
Y1279991D1*
Y1302939D2*
X2227207Y1311561D1*
X2221503Y1317332D1*
X2215733Y1320183D1*
X2207111D1*
X2174258D2*
X2179961Y1317332D1*
X2185732Y1311561D1*
X2188583Y1302939D1*
Y1297236D1*
X2185732Y1288614D1*
X2179961Y1282910D1*
X2174258Y1279991D1*
X2165636D1*
X2159865Y1282910D1*
X2154162Y1288614D1*
X2151243Y1297236D1*
Y1302939D1*
X2154162Y1311561D1*
X2159865Y1317332D1*
X2165636Y1320183D1*
X2174258D1*
X2460652Y1258390D2*
Y1198102D1*
X2426230D1*
X2407703Y1258390D2*
X2404851Y1255538D1*
X2401933Y1258390D1*
X2404851Y1261308D1*
X2407703Y1258390D1*
X2404851Y1238294D2*
Y1198102D1*
X2383406Y1238294D2*
Y1198102D1*
Y1226820D2*
X2374784Y1235442D1*
X2369014Y1238294D1*
X2360458D1*
X2354688Y1235442D1*
X2351836Y1226820D1*
Y1198102D1*
Y1226820D2*
X2343214Y1235442D1*
X2337444Y1238294D1*
X2328888D1*
X2323118Y1235442D1*
X2320200Y1226820D1*
Y1198102D1*
X2287347Y1238294D2*
X2293051Y1235442D1*
X2298821Y1229672D1*
X2301673Y1221050D1*
Y1215346D1*
X2298821Y1206724D1*
X2293051Y1201020D1*
X2287347Y1198102D1*
X2278725D1*
X2272955Y1201020D1*
X2267251Y1206724D1*
X2264333Y1215346D1*
Y1221050D1*
X2267251Y1229672D1*
X2272955Y1235442D1*
X2278725Y1238294D1*
X2287347D1*
X2245805D2*
Y1198102D1*
Y1226820D2*
X2237183Y1235442D1*
X2231413Y1238294D1*
X2222857D1*
X2217087Y1235442D1*
X2214235Y1226820D1*
Y1198102D1*
X2425869Y1156461D2*
X2431573Y1162231D1*
X2440195Y1165083D1*
X2451669D1*
X2460291Y1162231D1*
X2466061Y1156461D1*
Y1150757D1*
X2463143Y1144987D1*
X2460291Y1142135D1*
X2454587Y1139283D1*
X2437343Y1133513D1*
X2431573Y1130661D1*
X2428721Y1127743D1*
X2425869Y1122039D1*
Y1113417D1*
X2431573Y1107713D1*
X2440195Y1104795D1*
X2451669D1*
X2460291Y1107713D1*
X2466061Y1113417D1*
X2372920Y1144987D2*
Y1104795D1*
Y1136365D2*
X2378624Y1142135D1*
X2384394Y1144987D1*
X2392950D1*
X2398720Y1142135D1*
X2404424Y1136365D1*
X2407342Y1127743D1*
Y1122039D1*
X2404424Y1113417D1*
X2398720Y1107713D1*
X2392950Y1104795D1*
X2384394D1*
X2378624Y1107713D1*
X2372920Y1113417D1*
X2354393Y1165083D2*
Y1104795D1*
X914373Y782709D2*
D75*
Y702325D1*
X887578D1*
X876082Y706216D1*
X868388Y713821D1*
X864586Y721514D1*
X860783Y732922D1*
Y752111D1*
X864586Y763607D1*
X868388Y771213D1*
X876082Y778906D1*
X887578Y782709D1*
X914373D1*
X790185Y755914D2*
Y702325D1*
Y744418D2*
X797790Y752111D1*
X805483Y755914D1*
X816891D1*
X824584Y752111D1*
X832190Y744418D1*
X836081Y732922D1*
Y725317D1*
X832190Y713821D1*
X824584Y706216D1*
X816891Y702325D1*
X805483D1*
X797790Y706216D1*
X790185Y713821D1*
X765482Y755914D2*
Y702325D1*
Y740615D2*
X753986Y752111D1*
X746292Y755914D1*
X734885D1*
X727191Y752111D1*
X723389Y740615D1*
Y702325D1*
X652790Y752111D2*
Y690829D1*
X656593Y679421D1*
X660395Y675530D1*
X668089Y671727D1*
X679585D1*
X687190Y675530D1*
X652790Y740615D2*
X660395Y748220D1*
X668089Y752111D1*
X679585D1*
X687190Y748220D1*
X694883Y740615D1*
X698686Y729119D1*
Y721426D1*
X694883Y710018D1*
X687190Y702325D1*
X679585Y698522D1*
X668089D1*
X660395Y702325D1*
X652790Y710018D1*
X628087Y732922D2*
X582191D1*
Y740615D1*
X585994Y748309D1*
X589797Y752111D1*
X597490Y755914D1*
X608986D1*
X616591Y752111D1*
X624285Y744418D1*
X628087Y732922D1*
Y725317D1*
X624285Y713821D1*
X616591Y706216D1*
X608986Y702325D1*
X597490D1*
X589797Y706216D1*
X582191Y713821D1*
X557489Y755914D2*
Y702325D1*
Y732922D2*
X553598Y744418D1*
X545993Y752111D1*
X538299Y755914D1*
X526803D1*
X977994Y495246D2*
D74*
Y445006D1*
X944501Y495246D2*
Y445006D1*
X977994Y471314D2*
X944501D1*
X929061Y495246D2*
X926685Y492869D1*
X924253Y495246D1*
X926685Y497678D1*
X929061Y495246D1*
X926685Y478499D2*
Y445006D1*
X880129Y476123D2*
Y437821D1*
X882505Y430691D1*
X884882Y428259D1*
X889690Y425883D1*
X896875D1*
X901629Y428259D1*
X880129Y468938D2*
X884882Y473691D1*
X889690Y476123D1*
X896875D1*
X901629Y473691D1*
X906437Y468938D1*
X908814Y461753D1*
Y456944D1*
X906437Y449814D1*
X901629Y445006D1*
X896875Y442629D1*
X889690D1*
X884882Y445006D1*
X880129Y449814D1*
X864689Y495246D2*
Y445006D1*
Y468938D2*
X857504Y476123D1*
X852696Y478499D1*
X845511D1*
X840758Y476123D1*
X838381Y468938D1*
Y445006D1*
X774341Y495246D2*
X755218Y445006D1*
X736094Y495246D1*
X708717Y478499D2*
X713470Y476123D1*
X718279Y471314D1*
X720655Y464129D1*
Y459376D1*
X718279Y452191D1*
X713470Y447438D1*
X708717Y445006D1*
X701532D1*
X696723Y447438D1*
X691970Y452191D1*
X689538Y459376D1*
Y464129D1*
X691970Y471314D1*
X696723Y476123D1*
X701532Y478499D1*
X708717D1*
X674099Y495246D2*
Y445006D1*
X651475Y495246D2*
Y454568D1*
X649098Y447438D1*
X644290Y445006D1*
X639537D1*
X658660Y478499D2*
X641913D1*
X595413D2*
Y445006D1*
Y471314D2*
X600166Y476123D1*
X604974Y478499D1*
X612104D1*
X616912Y476123D1*
X621666Y471314D1*
X624097Y464129D1*
Y459376D1*
X621666Y452191D1*
X616912Y447438D1*
X612104Y445006D1*
X604974D1*
X600166Y447438D1*
X595413Y452191D1*
X551288Y476123D2*
Y437821D1*
X553665Y430691D1*
X556042Y428259D1*
X560850Y425883D1*
X568035D1*
X572788Y428259D1*
X551288Y468938D2*
X556042Y473691D1*
X560850Y476123D1*
X568035D1*
X572788Y473691D1*
X577597Y468938D1*
X579973Y461753D1*
Y456944D1*
X577597Y449814D1*
X572788Y445006D1*
X568035Y442629D1*
X560850D1*
X556042Y445006D1*
X551288Y449814D1*
X535849Y464129D2*
X507164D1*
Y468938D1*
X509541Y473746D1*
X511917Y476123D1*
X516726Y478499D1*
X523911D1*
X528664Y476123D1*
X533473Y471314D1*
X535849Y464129D1*
Y459376D1*
X533473Y452191D1*
X528664Y447438D1*
X523911Y445006D1*
X516726D1*
X511917Y447438D1*
X507164Y452191D1*
X3398231Y755543D2*
D75*
Y675159D1*
X3371436D1*
X3359940Y679050D1*
X3352247Y686655D1*
X3348444Y694349D1*
X3344642Y705756D1*
Y724946D1*
X3348444Y736442D1*
X3352247Y744047D1*
X3359940Y751741D1*
X3371436Y755543D1*
X3398231D1*
X3274043Y728749D2*
Y675159D1*
Y717253D2*
X3281648Y724946D1*
X3289342Y728749D1*
X3300749D1*
X3308443Y724946D1*
X3316048Y717253D1*
X3319939Y705756D1*
Y698151D1*
X3316048Y686655D1*
X3308443Y679050D1*
X3300749Y675159D1*
X3289342D1*
X3281648Y679050D1*
X3274043Y686655D1*
X3249340Y728749D2*
Y675159D1*
Y713450D2*
X3237844Y724946D1*
X3230151Y728749D1*
X3218743D1*
X3211049Y724946D1*
X3207247Y713450D1*
Y675159D1*
X3136648Y724946D2*
Y663663D1*
X3140451Y652256D1*
X3144253Y648365D1*
X3151947Y644562D1*
X3163443D1*
X3171048Y648365D1*
X3136648Y713450D2*
X3144253Y721055D1*
X3151947Y724946D1*
X3163443D1*
X3171048Y721055D1*
X3178742Y713450D1*
X3182544Y701954D1*
Y694260D1*
X3178742Y682853D1*
X3171048Y675159D1*
X3163443Y671357D1*
X3151947D1*
X3144253Y675159D1*
X3136648Y682853D1*
X3111946Y705756D2*
X3066050D1*
Y713450D1*
X3069852Y721144D1*
X3073655Y724946D1*
X3081348Y728749D1*
X3092844D1*
X3100449Y724946D1*
X3108143Y717253D1*
X3111946Y705756D1*
Y698151D1*
X3108143Y686655D1*
X3100449Y679050D1*
X3092844Y675159D1*
X3081348D1*
X3073655Y679050D1*
X3066050Y686655D1*
X3041347Y728749D2*
Y675159D1*
Y705756D2*
X3037456Y717253D1*
X3029851Y724946D1*
X3022157Y728749D1*
X3010661D1*
X3450435Y490128D2*
D74*
Y439888D1*
X3416941Y490128D2*
Y439888D1*
X3450435Y466196D2*
X3416941D1*
X3401502Y490128D2*
X3399126Y487751D1*
X3396694Y490128D1*
X3399126Y492560D1*
X3401502Y490128D1*
X3399126Y473381D2*
Y439888D1*
X3352570Y471005D2*
Y432703D1*
X3354946Y425573D1*
X3357323Y423141D1*
X3362131Y420765D1*
X3369316D1*
X3374069Y423141D1*
X3352570Y463820D2*
X3357323Y468573D1*
X3362131Y471005D1*
X3369316D1*
X3374069Y468573D1*
X3378878Y463820D1*
X3381255Y456635D1*
Y451826D1*
X3378878Y444696D1*
X3374069Y439888D1*
X3369316Y437511D1*
X3362131D1*
X3357323Y439888D1*
X3352570Y444696D1*
X3337130Y490128D2*
Y439888D1*
Y463820D2*
X3329945Y471005D1*
X3325137Y473381D1*
X3317952D1*
X3313199Y471005D1*
X3310822Y463820D1*
Y439888D1*
X3246782Y490128D2*
X3227659Y439888D1*
X3208535Y490128D1*
X3181158Y473381D2*
X3185911Y471005D1*
X3190720Y466196D1*
X3193096Y459011D1*
Y454258D1*
X3190720Y447073D1*
X3185911Y442320D1*
X3181158Y439888D1*
X3173973D1*
X3169164Y442320D1*
X3164411Y447073D1*
X3161979Y454258D1*
Y459011D1*
X3164411Y466196D1*
X3169164Y471005D1*
X3173973Y473381D1*
X3181158D1*
X3146540Y490128D2*
Y439888D1*
X3123916Y490128D2*
Y449450D1*
X3121539Y442320D1*
X3116731Y439888D1*
X3111978D1*
X3131101Y473381D2*
X3114354D1*
X3067853D2*
Y439888D1*
Y466196D2*
X3072607Y471005D1*
X3077415Y473381D1*
X3084545D1*
X3089353Y471005D1*
X3094107Y466196D1*
X3096538Y459011D1*
Y454258D1*
X3094107Y447073D1*
X3089353Y442320D1*
X3084545Y439888D1*
X3077415D1*
X3072607Y442320D1*
X3067853Y447073D1*
X3023729Y471005D2*
Y432703D1*
X3026106Y425573D1*
X3028483Y423141D1*
X3033291Y420765D1*
X3040476D1*
X3045229Y423141D1*
X3023729Y463820D2*
X3028483Y468573D1*
X3033291Y471005D1*
X3040476D1*
X3045229Y468573D1*
X3050038Y463820D1*
X3052414Y456635D1*
Y451826D1*
X3050038Y444696D1*
X3045229Y439888D1*
X3040476Y437511D1*
X3033291D1*
X3028483Y439888D1*
X3023729Y444696D1*
X3008290Y459011D2*
X2979605D1*
Y463820D1*
X2981982Y468628D1*
X2984358Y471005D1*
X2989167Y473381D1*
X2996352D1*
X3001105Y471005D1*
X3005914Y466196D1*
X3008290Y459011D1*
Y454258D1*
X3005914Y447073D1*
X3001105Y442320D1*
X2996352Y439888D1*
X2989167D1*
X2984358Y442320D1*
X2979605Y447073D1*
M02*
