G04 DipTrace 3.0.0.1*
G04 Bottom.gbr*
%MOIN*%
G04 #@! TF.FileFunction,Copper,L2,Bot*
G04 #@! TF.Part,Single*
%AMOUTLINE0*5,1,4,0,0,0.070866,90.0*%
%AMOUTLINE3*5,1,4,0,0,0.070866,-180.0*%
G04 #@! TA.AperFunction,Conductor*
%ADD14C,0.008*%
G04 #@! TA.AperFunction,ComponentPad*
%ADD16C,0.059055*%
G04 #@! TA.AperFunction,Conductor*
%ADD19C,0.090551*%
%ADD20C,0.1*%
%ADD21C,0.086614*%
G04 #@! TA.AperFunction,CopperBalancing*
%ADD23C,0.025*%
G04 #@! TA.AperFunction,ComponentPad*
%ADD24O,0.090551X0.11811*%
%ADD26R,0.059055X0.059055*%
%ADD27C,0.059055*%
%ADD29C,0.177165*%
%ADD30C,0.19685*%
%ADD31O,0.086614X0.141732*%
%ADD33C,0.055118*%
G04 #@! TA.AperFunction,ViaPad*
%ADD36C,0.038*%
G04 #@! TA.AperFunction,ComponentPad*
%ADD77OUTLINE0*%
%ADD80OUTLINE3*%
%FSLAX26Y26*%
G04*
G70*
G90*
G75*
G01*
G04 Bottom*
%LPD*%
X1570079Y969292D2*
D14*
X1638977D1*
X1809843Y1140158D1*
X1521654Y1227166D2*
X1722835D1*
X1809843Y1140158D1*
X2433465Y958662D2*
X2316536D1*
X2179921Y1095276D1*
X2521260Y1329528D2*
Y1475197D1*
X2519292Y1477166D1*
X2446457Y2077166D2*
Y2285433D1*
X2551969Y2390945D1*
X2611024D1*
X2613780Y2393701D1*
X2129134Y1458662D2*
Y1549213D1*
X2166142Y1586221D1*
X2293307D1*
X2322047Y1614961D1*
Y1907481D1*
X2238583Y1990945D1*
X734252Y589370D2*
D19*
Y696063D1*
D20*
Y1432677D1*
D21*
Y1555906D1*
X3218110Y589370D2*
D19*
Y698425D1*
D20*
Y1555512D1*
D21*
X3218504Y1555906D1*
X3414961Y589370D2*
D19*
Y588977D1*
D20*
X3453504Y627520D1*
Y995906D1*
X931103Y589370D2*
D19*
X942126D1*
D20*
X969252Y616496D1*
Y995906D1*
X3021260Y589370D2*
D19*
Y579134D1*
D20*
X2983504Y616890D1*
Y995906D1*
X537402Y589370D2*
D19*
X531890D1*
D20*
X499252Y622008D1*
Y995906D1*
D36*
X1570079Y969292D3*
X1521654Y1227166D3*
X2433465Y958662D3*
X2521260Y1329528D3*
X2519292Y1477166D3*
X2446457Y2077166D3*
X2129134Y1458662D3*
X789007Y2889403D2*
D23*
X2754270D1*
X789007Y2864534D2*
X2754270D1*
X789007Y2839666D2*
X1304466D1*
X1373479D2*
X2679270D1*
X789007Y2814797D2*
X1284592D1*
X1393352D2*
X2659397D1*
X789007Y2789928D2*
X1280589D1*
X1397356D2*
X2655393D1*
X789007Y2765059D2*
X1288352D1*
X1389641D2*
X2663157D1*
X789007Y2740191D2*
X1205198D1*
X1272747D2*
X1319895D1*
X1358050D2*
X2580003D1*
X2647551D2*
X2680003D1*
X789007Y2715322D2*
X1184788D1*
X1293157D2*
X2559592D1*
X789007Y2690453D2*
X1180540D1*
X1297405D2*
X2555344D1*
X789007Y2665584D2*
X1188010D1*
X1289934D2*
X2562815D1*
X789007Y2640715D2*
X1206028D1*
X1271917D2*
X1306028D1*
X1371917D2*
X2580833D1*
X2646721D2*
X2680833D1*
X887737Y2615847D2*
X1185032D1*
X1392913D2*
X2559837D1*
X911712Y2590978D2*
X1180540D1*
X1397454D2*
X2555344D1*
X925091Y2566109D2*
X1187717D1*
X1390227D2*
X2562522D1*
X931682Y2541240D2*
X1206858D1*
X1271135D2*
X1306858D1*
X1371135D2*
X2025217D1*
X2077923D2*
X2581663D1*
X2645891D2*
X2681663D1*
X1061956Y2516372D2*
X1185227D1*
X1392717D2*
X1999339D1*
X2103801D2*
X2360374D1*
X2477434D2*
X2560032D1*
X1094231Y2491503D2*
X1180491D1*
X1397454D2*
X1993040D1*
X2110100D2*
X2360374D1*
X2477434D2*
X2555296D1*
X1112298Y2466634D2*
X1187425D1*
X1390520D2*
X1998411D1*
X2104729D2*
X2360374D1*
X2477434D2*
X2562229D1*
X1122649Y2441765D2*
X1207688D1*
X1270257D2*
X1307688D1*
X1370257D2*
X2021555D1*
X2081585D2*
X2360374D1*
X2477434D2*
X2582493D1*
X2645061D2*
X2682493D1*
X858880Y2416897D2*
X873411D1*
X1127337D2*
X1185471D1*
X1392473D2*
X2533469D1*
X789007Y2392028D2*
X873801D1*
X1126995D2*
X1180491D1*
X1397454D2*
X2507444D1*
X789007Y2367159D2*
X879270D1*
X1121526D2*
X1187132D1*
X1390813D2*
X2482542D1*
X789007Y2342290D2*
X890598D1*
X1110149D2*
X1208616D1*
X1269378D2*
X1314231D1*
X1363714D2*
X2027610D1*
X2075530D2*
X2457688D1*
X2548919D2*
X2583421D1*
X2644182D2*
X2683421D1*
X789007Y2317421D2*
X910130D1*
X1090667D2*
X1185716D1*
X1292229D2*
X1999925D1*
X2103216D2*
X2432835D1*
X2524065D2*
X2560520D1*
X789007Y2292553D2*
X946262D1*
X1054534D2*
X1180491D1*
X1297503D2*
X1993089D1*
X2110051D2*
X2414329D1*
X2499212D2*
X2555296D1*
X789007Y2267684D2*
X1186887D1*
X1291106D2*
X1997923D1*
X2105217D2*
X2413450D1*
X2479436D2*
X2561692D1*
X789007Y2242815D2*
X1209544D1*
X1268401D2*
X1309544D1*
X1368401D2*
X2019749D1*
X2083391D2*
X2413450D1*
X2479436D2*
X2584348D1*
X2643206D2*
X2684348D1*
X789007Y2217946D2*
X1185960D1*
X1391985D2*
X2413450D1*
X2479436D2*
X2560764D1*
X789007Y2193078D2*
X1180442D1*
X1397503D2*
X2413450D1*
X2479436D2*
X2555247D1*
X789007Y2168209D2*
X1186594D1*
X1391350D2*
X2413450D1*
X2479436D2*
X2561399D1*
X789007Y2143340D2*
X1210520D1*
X1267425D2*
X1310520D1*
X1367425D2*
X2413450D1*
X2479436D2*
X2585325D1*
X2642229D2*
X2685325D1*
X789007Y2118471D2*
X1186253D1*
X1391741D2*
X2413450D1*
X2479436D2*
X2561057D1*
X789007Y2093603D2*
X1180442D1*
X1397503D2*
X2401536D1*
X2491399D2*
X2555247D1*
X789007Y2068734D2*
X1186350D1*
X1391643D2*
X2399241D1*
X2493645D2*
X2561155D1*
X789007Y2043865D2*
X1210911D1*
X1267083D2*
X1310911D1*
X1367083D2*
X2117698D1*
X2159466D2*
X2217698D1*
X2259466D2*
X2412962D1*
X2479973D2*
X2585716D1*
X2641887D2*
X2685716D1*
X789007Y2018996D2*
X1186497D1*
X1391448D2*
X1609495D1*
X1807024D2*
X2087571D1*
X2289592D2*
X2561301D1*
X789007Y1994128D2*
X1180442D1*
X1397503D2*
X1600169D1*
X1816399D2*
X2080149D1*
X2297014D2*
X2555247D1*
X789007Y1969259D2*
X1186057D1*
X1391887D2*
X1602757D1*
X1813762D2*
X2084446D1*
X2305901D2*
X2560862D1*
X789007Y1944390D2*
X1209885D1*
X1268059D2*
X1309885D1*
X1368059D2*
X1619895D1*
X1696673D2*
X1719895D1*
X1796673D2*
X2104905D1*
X2172258D2*
X2204905D1*
X2330755D2*
X2584690D1*
X2642864D2*
X2684690D1*
X789007Y1919521D2*
X1186741D1*
X1391204D2*
X2264378D1*
X2352581D2*
X2561546D1*
X789007Y1894652D2*
X1180442D1*
X1397503D2*
X2289036D1*
X2355022D2*
X2555247D1*
X789007Y1869784D2*
X1185813D1*
X1392132D2*
X2289036D1*
X2355022D2*
X2560618D1*
X789007Y1844915D2*
X1208958D1*
X1268987D2*
X1308958D1*
X1368987D2*
X2289036D1*
X2355022D2*
X2583762D1*
X2643792D2*
X2683762D1*
X2743792D2*
X2754282D1*
X789007Y1820046D2*
X1187034D1*
X1390911D2*
X2289036D1*
X2355022D2*
X2754270D1*
X789007Y1795177D2*
X1180491D1*
X1397454D2*
X2289036D1*
X2355022D2*
X2754270D1*
X789007Y1770309D2*
X1185569D1*
X1392376D2*
X2289036D1*
X2355022D2*
X2754270D1*
X1116985Y1745440D2*
X1208030D1*
X1269915D2*
X1308030D1*
X1369915D2*
X2080051D1*
X2197112D2*
X2223118D1*
X2254046D2*
X2289036D1*
X2355022D2*
X2589817D1*
X2637737D2*
X2689817D1*
X2737737D2*
X2754299D1*
X1116985Y1720571D2*
X1187327D1*
X1390618D2*
X1599729D1*
X1805901D2*
X2080051D1*
X2355022D2*
X2562132D1*
X1116985Y1695702D2*
X1180491D1*
X1397454D2*
X1599729D1*
X1816155D2*
X2080051D1*
X2355022D2*
X2555296D1*
X2772258D2*
X2848362D1*
X1116985Y1670834D2*
X1185325D1*
X1392620D2*
X1599729D1*
X1814300D2*
X2080051D1*
X2355022D2*
X2560130D1*
X2767425D2*
X2848362D1*
X1116985Y1645965D2*
X1207151D1*
X1270794D2*
X1307151D1*
X1370794D2*
X1599729D1*
X1798479D2*
X2080051D1*
X2274456D2*
X2289033D1*
X2355022D2*
X2581956D1*
X2645598D2*
X2681956D1*
X2745598D2*
X2848362D1*
X1116985Y1621096D2*
X1187620D1*
X1390325D2*
X2282542D1*
X2355022D2*
X2562425D1*
X2765130D2*
X2848362D1*
X1116985Y1596227D2*
X1180491D1*
X1397454D2*
X2130540D1*
X2348626D2*
X2555296D1*
X2772258D2*
X2848362D1*
X1116985Y1571358D2*
X1185130D1*
X1392864D2*
X2105637D1*
X2324065D2*
X2559885D1*
X2767669D2*
X2848362D1*
X1116985Y1546490D2*
X1206321D1*
X1271624D2*
X1306321D1*
X1371624D2*
X2096165D1*
X2172014D2*
X2581126D1*
X2646428D2*
X2681126D1*
X2746428D2*
X2848362D1*
X1116985Y1521621D2*
X1187913D1*
X1390032D2*
X2096165D1*
X2162102D2*
X2507151D1*
X2531472D2*
X2562717D1*
X2764837D2*
X2848362D1*
X1116985Y1496752D2*
X1180540D1*
X1397405D2*
X2096165D1*
X2162102D2*
X2475755D1*
X2772210D2*
X2848362D1*
X1116985Y1471883D2*
X1184885D1*
X1393059D2*
X2083128D1*
X2175139D2*
X2471604D1*
X2767864D2*
X2848362D1*
X1116985Y1447015D2*
X1205540D1*
X1272454D2*
X1305540D1*
X1372454D2*
X2082639D1*
X2175628D2*
X2482737D1*
X2555852D2*
X2580296D1*
X2647258D2*
X2680296D1*
X2747258D2*
X2848362D1*
X1116985Y1422146D2*
X1188206D1*
X1389739D2*
X2099485D1*
X2158782D2*
X2488255D1*
X2554241D2*
X2563015D1*
X2764544D2*
X2848362D1*
X1116985Y1397277D2*
X1180589D1*
X1397405D2*
X2488255D1*
X2772161D2*
X2848362D1*
X1116985Y1372408D2*
X1184641D1*
X1393303D2*
X2488255D1*
X2768108D2*
X2848362D1*
X1116985Y1347540D2*
X1204758D1*
X1273235D2*
X1304758D1*
X1373235D2*
X2476975D1*
X2565520D2*
X2579573D1*
X2648040D2*
X2679563D1*
X2748040D2*
X2848362D1*
X1116985Y1322671D2*
X1188548D1*
X1389446D2*
X2473801D1*
X2764251D2*
X2848362D1*
X1116985Y1297802D2*
X1180589D1*
X1397356D2*
X2486155D1*
X2772161D2*
X2848362D1*
X1393499Y1272933D2*
X2559251D1*
X2768303D2*
X2848362D1*
X1273967Y1248065D2*
X1303977D1*
X1373967D2*
X1478733D1*
X1747551D2*
X2578782D1*
X2648772D2*
X2678782D1*
X1389104Y1223196D2*
X1473850D1*
X1772405D2*
X1814573D1*
X1905120D2*
X2563645D1*
X1397307Y1198327D2*
X1483958D1*
X1915764D2*
X2117063D1*
X2142766D2*
X2555442D1*
X1393694Y1173458D2*
X1730930D1*
X1913762D2*
X2081321D1*
X2178557D2*
X2559055D1*
X1274700Y1148589D2*
X1303245D1*
X1374700D2*
X1753977D1*
X1896868D2*
X2073460D1*
X2191301D2*
X2578050D1*
X2649505D2*
X2678050D1*
X1388762Y1123721D2*
X1747776D1*
X1863811D2*
X2077854D1*
X2228362D2*
X2563987D1*
X1397258Y1098852D2*
X1722923D1*
X1847210D2*
X2099729D1*
X2236370D2*
X2555491D1*
X1393889Y1073983D2*
X1698069D1*
X1789300D2*
X2127757D1*
X2246819D2*
X2558860D1*
X1275383Y1049114D2*
X1302561D1*
X1375383D2*
X1673167D1*
X1764446D2*
X2149290D1*
X2271721D2*
X2577366D1*
X2650188D2*
X2677366D1*
X1388421Y1024246D2*
X1648313D1*
X1739544D2*
X2205344D1*
X2296575D2*
X2564329D1*
X1397210Y999377D2*
X1533469D1*
X1714690D2*
X2230198D1*
X2321428D2*
X2410667D1*
X2456243D2*
X2555540D1*
X1394085Y974508D2*
X1522385D1*
X1689837D2*
X2255051D1*
X2478606D2*
X2558665D1*
X1276067Y949639D2*
X1301878D1*
X1376067D2*
X1526536D1*
X1664934D2*
X2279954D1*
X2480559D2*
X2576682D1*
X2650872D2*
X2676682D1*
X1220501Y924771D2*
X1289866D1*
X1388079D2*
X1558225D1*
X1581961D2*
X2400608D1*
X2466301D2*
X2747581D1*
X1220501Y899902D2*
X1280784D1*
X1397161D2*
X2747581D1*
X1220501Y875033D2*
X1283665D1*
X1394280D2*
X2747581D1*
X1220501Y850164D2*
X1301243D1*
X1376751D2*
X2747581D1*
X2375378Y2536728D2*
X2474918D1*
Y2424689D1*
X2362878D1*
Y2536728D1*
X2375378D1*
X1124926Y2396499D2*
X1123773Y2386758D1*
X1121860Y2377138D1*
X1119197Y2367698D1*
X1115802Y2358496D1*
X1111696Y2349588D1*
X1106903Y2341030D1*
X1101454Y2332875D1*
X1095382Y2325172D1*
X1088724Y2317970D1*
X1081521Y2311312D1*
X1073818Y2305239D1*
X1065663Y2299790D1*
X1057105Y2294997D1*
X1048198Y2290891D1*
X1038995Y2287496D1*
X1029555Y2284834D1*
X1019935Y2282920D1*
X1010195Y2281767D1*
X1000394Y2281382D1*
X990593Y2281767D1*
X980853Y2282920D1*
X971233Y2284834D1*
X961792Y2287496D1*
X952590Y2290891D1*
X943683Y2294997D1*
X935125Y2299790D1*
X926969Y2305239D1*
X919267Y2311312D1*
X912064Y2317970D1*
X905406Y2325172D1*
X899334Y2332875D1*
X893884Y2341030D1*
X889092Y2349588D1*
X884985Y2358496D1*
X881590Y2367698D1*
X878928Y2377138D1*
X877015Y2386758D1*
X875862Y2396499D1*
X875477Y2406299D1*
X875862Y2416100D1*
X877336Y2427457D1*
X867597Y2421877D1*
X859392Y2418094D1*
X850915Y2414967D1*
X842218Y2412514D1*
X833356Y2410752D1*
X824383Y2409690D1*
X815355Y2409335D1*
X806326Y2409690D1*
X797353Y2410752D1*
X786487Y2413080D1*
X786516Y1755434D1*
X1114469Y1755413D1*
Y1283782D1*
X1183843Y1283760D1*
X1182957Y1293701D1*
X1183647Y1302464D1*
X1185699Y1311012D1*
X1189063Y1319133D1*
X1193656Y1326629D1*
X1199365Y1333313D1*
X1206049Y1339022D1*
X1213716Y1343694D1*
X1206049Y1348380D1*
X1199365Y1354089D1*
X1193656Y1360773D1*
X1189063Y1368269D1*
X1185699Y1376390D1*
X1183647Y1384938D1*
X1182957Y1393701D1*
X1183647Y1402464D1*
X1185699Y1411012D1*
X1189063Y1419133D1*
X1193656Y1426629D1*
X1199365Y1433313D1*
X1206049Y1439022D1*
X1213716Y1443694D1*
X1206049Y1448380D1*
X1199365Y1454089D1*
X1193656Y1460773D1*
X1189063Y1468269D1*
X1185699Y1476390D1*
X1183647Y1484938D1*
X1182957Y1493701D1*
X1183647Y1502464D1*
X1185699Y1511012D1*
X1189063Y1519133D1*
X1193656Y1526629D1*
X1199365Y1533313D1*
X1206049Y1539022D1*
X1213716Y1543694D1*
X1206049Y1548380D1*
X1199365Y1554089D1*
X1193656Y1560773D1*
X1189063Y1568269D1*
X1185699Y1576390D1*
X1183647Y1584938D1*
X1182957Y1593701D1*
X1183647Y1602464D1*
X1185699Y1611012D1*
X1189063Y1619133D1*
X1193656Y1626629D1*
X1199365Y1633313D1*
X1206049Y1639022D1*
X1213716Y1643694D1*
X1206049Y1648380D1*
X1199365Y1654089D1*
X1193656Y1660773D1*
X1189063Y1668269D1*
X1185699Y1676390D1*
X1183647Y1684938D1*
X1182957Y1693701D1*
X1183647Y1702464D1*
X1185699Y1711012D1*
X1189063Y1719133D1*
X1193656Y1726629D1*
X1199365Y1733313D1*
X1206049Y1739022D1*
X1213716Y1743694D1*
X1206049Y1748380D1*
X1199365Y1754089D1*
X1193656Y1760773D1*
X1189063Y1768269D1*
X1185699Y1776390D1*
X1183647Y1784938D1*
X1182957Y1793701D1*
X1183647Y1802464D1*
X1185699Y1811012D1*
X1189063Y1819133D1*
X1193656Y1826629D1*
X1199365Y1833313D1*
X1206049Y1839022D1*
X1213716Y1843694D1*
X1206049Y1848380D1*
X1199365Y1854089D1*
X1193656Y1860773D1*
X1189063Y1868269D1*
X1185699Y1876390D1*
X1183647Y1884938D1*
X1182957Y1893701D1*
X1183647Y1902464D1*
X1185699Y1911012D1*
X1189063Y1919133D1*
X1193656Y1926629D1*
X1199365Y1933313D1*
X1206049Y1939022D1*
X1213716Y1943694D1*
X1206049Y1948380D1*
X1199365Y1954089D1*
X1193656Y1960773D1*
X1189063Y1968269D1*
X1185699Y1976390D1*
X1183647Y1984938D1*
X1182957Y1993701D1*
X1183647Y2002464D1*
X1185699Y2011012D1*
X1189063Y2019133D1*
X1193656Y2026629D1*
X1199365Y2033313D1*
X1206049Y2039022D1*
X1213716Y2043694D1*
X1206049Y2048380D1*
X1199365Y2054089D1*
X1193656Y2060773D1*
X1189063Y2068269D1*
X1185699Y2076390D1*
X1183647Y2084938D1*
X1182957Y2093701D1*
X1183647Y2102464D1*
X1185699Y2111012D1*
X1189063Y2119133D1*
X1193656Y2126629D1*
X1199365Y2133313D1*
X1206049Y2139022D1*
X1213716Y2143694D1*
X1206049Y2148380D1*
X1199365Y2154089D1*
X1193656Y2160773D1*
X1189063Y2168269D1*
X1185699Y2176390D1*
X1183647Y2184938D1*
X1182957Y2193701D1*
X1183647Y2202464D1*
X1185699Y2211012D1*
X1189063Y2219133D1*
X1193656Y2226629D1*
X1199365Y2233313D1*
X1206049Y2239022D1*
X1213716Y2243694D1*
X1206049Y2248380D1*
X1199365Y2254089D1*
X1193656Y2260773D1*
X1189063Y2268269D1*
X1185699Y2276390D1*
X1183647Y2284938D1*
X1182957Y2293701D1*
X1183647Y2302464D1*
X1185699Y2311012D1*
X1189063Y2319133D1*
X1193656Y2326629D1*
X1199365Y2333313D1*
X1206049Y2339022D1*
X1213716Y2343694D1*
X1206049Y2348380D1*
X1199365Y2354089D1*
X1193656Y2360773D1*
X1189063Y2368269D1*
X1185699Y2376390D1*
X1183647Y2384938D1*
X1182957Y2393701D1*
X1183647Y2402464D1*
X1185699Y2411012D1*
X1189063Y2419133D1*
X1193656Y2426629D1*
X1199365Y2433313D1*
X1206049Y2439022D1*
X1213716Y2443694D1*
X1206049Y2448380D1*
X1199365Y2454089D1*
X1193656Y2460773D1*
X1189063Y2468269D1*
X1185699Y2476390D1*
X1183647Y2484938D1*
X1182957Y2493701D1*
X1183647Y2502464D1*
X1185699Y2511012D1*
X1189063Y2519133D1*
X1193656Y2526629D1*
X1199365Y2533313D1*
X1206049Y2539022D1*
X1213716Y2543694D1*
X1206049Y2548380D1*
X1199365Y2554089D1*
X1193656Y2560773D1*
X1189063Y2568269D1*
X1185699Y2576390D1*
X1183647Y2584938D1*
X1182957Y2593701D1*
X1183647Y2602464D1*
X1185699Y2611012D1*
X1189063Y2619133D1*
X1193656Y2626629D1*
X1199365Y2633313D1*
X1206049Y2639022D1*
X1213716Y2643694D1*
X1206049Y2648380D1*
X1199365Y2654089D1*
X1193656Y2660773D1*
X1189063Y2668269D1*
X1185699Y2676390D1*
X1183647Y2684938D1*
X1182957Y2693701D1*
X1183647Y2702464D1*
X1185699Y2711012D1*
X1189063Y2719133D1*
X1193656Y2726629D1*
X1199365Y2733313D1*
X1206049Y2739022D1*
X1213544Y2743615D1*
X1221666Y2746979D1*
X1230213Y2749031D1*
X1238977Y2749721D1*
X1247740Y2749031D1*
X1256288Y2746979D1*
X1264409Y2743615D1*
X1271904Y2739022D1*
X1278588Y2733313D1*
X1284297Y2726629D1*
X1288890Y2719133D1*
X1292254Y2711012D1*
X1294307Y2702464D1*
X1294996Y2693701D1*
X1294307Y2684938D1*
X1292254Y2676390D1*
X1288890Y2668269D1*
X1284297Y2660773D1*
X1278588Y2654089D1*
X1271904Y2648380D1*
X1264237Y2643708D1*
X1271904Y2639022D1*
X1278588Y2633313D1*
X1284297Y2626629D1*
X1288970Y2618962D1*
X1293656Y2626629D1*
X1299365Y2633313D1*
X1306049Y2639022D1*
X1313544Y2643615D1*
X1321666Y2646979D1*
X1330213Y2649031D1*
X1338977Y2649721D1*
X1347740Y2649031D1*
X1356288Y2646979D1*
X1364409Y2643615D1*
X1371904Y2639022D1*
X1378588Y2633313D1*
X1384297Y2626629D1*
X1388890Y2619133D1*
X1392254Y2611012D1*
X1394307Y2602464D1*
X1394996Y2593701D1*
X1394307Y2584938D1*
X1392254Y2576390D1*
X1388890Y2568269D1*
X1384297Y2560773D1*
X1378588Y2554089D1*
X1371904Y2548380D1*
X1364237Y2543708D1*
X1371904Y2539022D1*
X1378588Y2533313D1*
X1384297Y2526629D1*
X1388890Y2519133D1*
X1392254Y2511012D1*
X1394307Y2502464D1*
X1394996Y2493701D1*
X1394307Y2484938D1*
X1392254Y2476390D1*
X1388890Y2468269D1*
X1384297Y2460773D1*
X1378588Y2454089D1*
X1371904Y2448380D1*
X1364237Y2443708D1*
X1371904Y2439022D1*
X1378588Y2433313D1*
X1384297Y2426629D1*
X1388890Y2419133D1*
X1392254Y2411012D1*
X1394307Y2402464D1*
X1394996Y2393701D1*
X1394307Y2384938D1*
X1392254Y2376390D1*
X1388890Y2368269D1*
X1384297Y2360773D1*
X1378588Y2354089D1*
X1371904Y2348380D1*
X1364409Y2343787D1*
X1356288Y2340423D1*
X1347740Y2338371D1*
X1338977Y2337681D1*
X1330213Y2338371D1*
X1321666Y2340423D1*
X1313544Y2343787D1*
X1306049Y2348380D1*
X1299365Y2354089D1*
X1293656Y2360773D1*
X1288984Y2368440D1*
X1284297Y2360773D1*
X1278588Y2354089D1*
X1271904Y2348380D1*
X1264237Y2343708D1*
X1271904Y2339022D1*
X1278588Y2333313D1*
X1284297Y2326629D1*
X1288890Y2319133D1*
X1292254Y2311012D1*
X1294307Y2302464D1*
X1294996Y2293701D1*
X1294307Y2284938D1*
X1292254Y2276390D1*
X1288890Y2268269D1*
X1284297Y2260773D1*
X1278588Y2254089D1*
X1271904Y2248380D1*
X1264237Y2243708D1*
X1271904Y2239022D1*
X1278588Y2233313D1*
X1284297Y2226629D1*
X1288970Y2218962D1*
X1293656Y2226629D1*
X1299365Y2233313D1*
X1306049Y2239022D1*
X1313544Y2243615D1*
X1321666Y2246979D1*
X1330213Y2249031D1*
X1338977Y2249721D1*
X1347740Y2249031D1*
X1356288Y2246979D1*
X1364409Y2243615D1*
X1371904Y2239022D1*
X1378588Y2233313D1*
X1384297Y2226629D1*
X1388890Y2219133D1*
X1392254Y2211012D1*
X1394307Y2202464D1*
X1394996Y2193701D1*
X1394307Y2184938D1*
X1392254Y2176390D1*
X1388890Y2168269D1*
X1384297Y2160773D1*
X1378588Y2154089D1*
X1371904Y2148380D1*
X1364237Y2143708D1*
X1371904Y2139022D1*
X1378588Y2133313D1*
X1384297Y2126629D1*
X1388890Y2119133D1*
X1392254Y2111012D1*
X1394307Y2102464D1*
X1394996Y2093701D1*
X1394307Y2084938D1*
X1392254Y2076390D1*
X1388890Y2068269D1*
X1384297Y2060773D1*
X1378588Y2054089D1*
X1371904Y2048380D1*
X1364237Y2043708D1*
X1371904Y2039022D1*
X1378588Y2033313D1*
X1384297Y2026629D1*
X1388890Y2019133D1*
X1392254Y2011012D1*
X1394307Y2002464D1*
X1394996Y1993701D1*
X1394307Y1984938D1*
X1392254Y1976390D1*
X1388890Y1968269D1*
X1384297Y1960773D1*
X1378588Y1954089D1*
X1371904Y1948380D1*
X1364237Y1943708D1*
X1371904Y1939022D1*
X1378588Y1933313D1*
X1384297Y1926629D1*
X1388890Y1919133D1*
X1392254Y1911012D1*
X1394307Y1902464D1*
X1394996Y1893701D1*
X1394307Y1884938D1*
X1392254Y1876390D1*
X1388890Y1868269D1*
X1384297Y1860773D1*
X1378588Y1854089D1*
X1371904Y1848380D1*
X1364237Y1843708D1*
X1371904Y1839022D1*
X1378588Y1833313D1*
X1384297Y1826629D1*
X1388890Y1819133D1*
X1392254Y1811012D1*
X1394307Y1802464D1*
X1394996Y1793701D1*
X1394307Y1784938D1*
X1392254Y1776390D1*
X1388890Y1768269D1*
X1384297Y1760773D1*
X1378588Y1754089D1*
X1371904Y1748380D1*
X1364237Y1743708D1*
X1371904Y1739022D1*
X1378588Y1733313D1*
X1384297Y1726629D1*
X1388890Y1719133D1*
X1392254Y1711012D1*
X1394307Y1702464D1*
X1394996Y1693701D1*
X1394307Y1684938D1*
X1392254Y1676390D1*
X1388890Y1668269D1*
X1384297Y1660773D1*
X1378588Y1654089D1*
X1371904Y1648380D1*
X1364237Y1643708D1*
X1371904Y1639022D1*
X1378588Y1633313D1*
X1384297Y1626629D1*
X1388890Y1619133D1*
X1392254Y1611012D1*
X1394307Y1602464D1*
X1394996Y1593701D1*
X1394307Y1584938D1*
X1392254Y1576390D1*
X1388890Y1568269D1*
X1384297Y1560773D1*
X1378588Y1554089D1*
X1371904Y1548380D1*
X1364237Y1543708D1*
X1371904Y1539022D1*
X1378588Y1533313D1*
X1384297Y1526629D1*
X1388890Y1519133D1*
X1392254Y1511012D1*
X1394307Y1502464D1*
X1394996Y1493701D1*
X1394307Y1484938D1*
X1392254Y1476390D1*
X1388890Y1468269D1*
X1384297Y1460773D1*
X1378588Y1454089D1*
X1371904Y1448380D1*
X1364237Y1443708D1*
X1371904Y1439022D1*
X1378588Y1433313D1*
X1384297Y1426629D1*
X1388890Y1419133D1*
X1392254Y1411012D1*
X1394307Y1402464D1*
X1394996Y1393701D1*
X1394307Y1384938D1*
X1392254Y1376390D1*
X1388890Y1368269D1*
X1384297Y1360773D1*
X1378588Y1354089D1*
X1371904Y1348380D1*
X1364237Y1343708D1*
X1371904Y1339022D1*
X1378588Y1333313D1*
X1384297Y1326629D1*
X1388890Y1319133D1*
X1392254Y1311012D1*
X1394307Y1302464D1*
X1394996Y1293701D1*
X1394307Y1284938D1*
X1392254Y1276390D1*
X1388890Y1268269D1*
X1384297Y1260773D1*
X1378588Y1254089D1*
X1371904Y1248380D1*
X1364237Y1243708D1*
X1371904Y1239022D1*
X1378588Y1233313D1*
X1384297Y1226629D1*
X1388890Y1219133D1*
X1392254Y1211012D1*
X1394307Y1202464D1*
X1394996Y1193701D1*
X1394307Y1184938D1*
X1392254Y1176390D1*
X1388890Y1168269D1*
X1384297Y1160773D1*
X1378588Y1154089D1*
X1371904Y1148380D1*
X1364237Y1143708D1*
X1371904Y1139022D1*
X1378588Y1133313D1*
X1384297Y1126629D1*
X1388890Y1119133D1*
X1392254Y1111012D1*
X1394307Y1102464D1*
X1394996Y1093701D1*
X1394307Y1084938D1*
X1392254Y1076390D1*
X1388890Y1068269D1*
X1384297Y1060773D1*
X1378588Y1054089D1*
X1371904Y1048380D1*
X1364237Y1043708D1*
X1371904Y1039022D1*
X1378588Y1033313D1*
X1384297Y1026629D1*
X1388890Y1019133D1*
X1392254Y1011012D1*
X1394307Y1002464D1*
X1394996Y993701D1*
X1394307Y984938D1*
X1392254Y976390D1*
X1388890Y968269D1*
X1384297Y960773D1*
X1378588Y954089D1*
X1371904Y948380D1*
X1364237Y943708D1*
X1371904Y939022D1*
X1378588Y933313D1*
X1384297Y926629D1*
X1388890Y919133D1*
X1392254Y911012D1*
X1394307Y902464D1*
X1394996Y893701D1*
X1394307Y884938D1*
X1392254Y876390D1*
X1388890Y868269D1*
X1384297Y860773D1*
X1378588Y854089D1*
X1371904Y848380D1*
X1364409Y843787D1*
X1356288Y840423D1*
X1347740Y838371D1*
X1338977Y837681D1*
X1330213Y838371D1*
X1321666Y840423D1*
X1313544Y843787D1*
X1306049Y848380D1*
X1299365Y854089D1*
X1293656Y860773D1*
X1289063Y868269D1*
X1285699Y876390D1*
X1283647Y884938D1*
X1282957Y893701D1*
X1283647Y902464D1*
X1285699Y911012D1*
X1289063Y919133D1*
X1293656Y926629D1*
X1299365Y933313D1*
X1306049Y939022D1*
X1313716Y943694D1*
X1306049Y948380D1*
X1299365Y954089D1*
X1293656Y960773D1*
X1288984Y968440D1*
X1284297Y960773D1*
X1278588Y954089D1*
X1271904Y948380D1*
X1264409Y943787D1*
X1256288Y940423D1*
X1247740Y938371D1*
X1238977Y937681D1*
X1230213Y938371D1*
X1221666Y940423D1*
X1218006Y941773D1*
X1218012Y825899D1*
X2750121Y825886D1*
X2750099Y951013D1*
X2743050Y945936D1*
X2735218Y941946D1*
X2726857Y939229D1*
X2718175Y937854D1*
X2709384D1*
X2700702Y939229D1*
X2692342Y941946D1*
X2684510Y945936D1*
X2677398Y951103D1*
X2671182Y957319D1*
X2666015Y964431D1*
X2663694Y968269D1*
X2659101Y960773D1*
X2653392Y954089D1*
X2646707Y948380D1*
X2639212Y943787D1*
X2631091Y940423D1*
X2622543Y938371D1*
X2613780Y937681D1*
X2605016Y938371D1*
X2596469Y940423D1*
X2588347Y943787D1*
X2580852Y948380D1*
X2574168Y954089D1*
X2568459Y960773D1*
X2563866Y968269D1*
X2560502Y976390D1*
X2558450Y984938D1*
X2557760Y993701D1*
X2558450Y1002464D1*
X2560502Y1011012D1*
X2563866Y1019133D1*
X2568459Y1026629D1*
X2574168Y1033313D1*
X2580852Y1039022D1*
X2588519Y1043694D1*
X2580852Y1048380D1*
X2574168Y1054089D1*
X2568459Y1060773D1*
X2563866Y1068269D1*
X2560502Y1076390D1*
X2558450Y1084938D1*
X2557760Y1093701D1*
X2558450Y1102464D1*
X2560502Y1111012D1*
X2563866Y1119133D1*
X2568459Y1126629D1*
X2574168Y1133313D1*
X2580852Y1139022D1*
X2588519Y1143694D1*
X2580852Y1148380D1*
X2574168Y1154089D1*
X2568459Y1160773D1*
X2563866Y1168269D1*
X2560502Y1176390D1*
X2558450Y1184938D1*
X2557760Y1193701D1*
X2558450Y1202464D1*
X2560502Y1211012D1*
X2563866Y1219133D1*
X2568459Y1226629D1*
X2574168Y1233313D1*
X2580852Y1239022D1*
X2588519Y1243694D1*
X2580852Y1248380D1*
X2574168Y1254089D1*
X2568459Y1260773D1*
X2563866Y1268269D1*
X2560502Y1276390D1*
X2558450Y1284938D1*
X2557760Y1293701D1*
X2558688Y1303661D1*
X2553428Y1297360D1*
X2548000Y1292724D1*
X2541913Y1288994D1*
X2535318Y1286262D1*
X2528377Y1284596D1*
X2521260Y1284036D1*
X2514144Y1284596D1*
X2507202Y1286262D1*
X2500607Y1288994D1*
X2494520Y1292724D1*
X2489092Y1297360D1*
X2484456Y1302788D1*
X2480726Y1308875D1*
X2477994Y1315470D1*
X2476328Y1322411D1*
X2475768Y1329528D1*
X2476328Y1336644D1*
X2477994Y1343586D1*
X2480726Y1350181D1*
X2484456Y1356267D1*
X2489092Y1361696D1*
X2490762Y1363239D1*
X2490768Y1441686D1*
X2484699Y1447621D1*
X2480503Y1453396D1*
X2477262Y1459756D1*
X2475056Y1466546D1*
X2473940Y1473596D1*
Y1480735D1*
X2475056Y1487785D1*
X2477262Y1494575D1*
X2480503Y1500935D1*
X2484699Y1506710D1*
X2489747Y1511758D1*
X2495522Y1515954D1*
X2501882Y1519195D1*
X2508672Y1521401D1*
X2515722Y1522517D1*
X2522861D1*
X2529911Y1521401D1*
X2536701Y1519195D1*
X2543061Y1515954D1*
X2548836Y1511758D1*
X2553884Y1506710D1*
X2558196Y1500728D1*
X2560502Y1511012D1*
X2563866Y1519133D1*
X2568459Y1526629D1*
X2574168Y1533313D1*
X2580852Y1539022D1*
X2588519Y1543694D1*
X2580852Y1548380D1*
X2574168Y1554089D1*
X2568459Y1560773D1*
X2563866Y1568269D1*
X2560502Y1576390D1*
X2558450Y1584938D1*
X2557760Y1593701D1*
X2558450Y1602464D1*
X2560502Y1611012D1*
X2563866Y1619133D1*
X2568459Y1626629D1*
X2574168Y1633313D1*
X2580852Y1639022D1*
X2588519Y1643694D1*
X2580852Y1648380D1*
X2574168Y1654089D1*
X2568459Y1660773D1*
X2563866Y1668269D1*
X2560502Y1676390D1*
X2558450Y1684938D1*
X2557760Y1693701D1*
X2558450Y1702464D1*
X2560502Y1711012D1*
X2563866Y1719133D1*
X2568459Y1726629D1*
X2574168Y1733313D1*
X2580852Y1739022D1*
X2588347Y1743615D1*
X2596469Y1746979D1*
X2605016Y1749031D1*
X2613780Y1749721D1*
X2622543Y1749031D1*
X2631091Y1746979D1*
X2639212Y1743615D1*
X2646707Y1739022D1*
X2653392Y1733313D1*
X2659101Y1726629D1*
X2663773Y1718962D1*
X2668459Y1726629D1*
X2674168Y1733313D1*
X2680852Y1739022D1*
X2688347Y1743615D1*
X2696469Y1746979D1*
X2705016Y1749031D1*
X2713780Y1749721D1*
X2722543Y1749031D1*
X2731091Y1746979D1*
X2739212Y1743615D1*
X2746707Y1739022D1*
X2753392Y1733313D1*
X2756792Y1729557D1*
X2756791Y1857792D1*
X2750162Y1851103D1*
X2743050Y1845936D1*
X2735218Y1841946D1*
X2726857Y1839229D1*
X2718175Y1837854D1*
X2709384D1*
X2700702Y1839229D1*
X2692342Y1841946D1*
X2684510Y1845936D1*
X2677398Y1851103D1*
X2671182Y1857319D1*
X2666015Y1864431D1*
X2663694Y1868269D1*
X2659101Y1860773D1*
X2653392Y1854089D1*
X2646707Y1848380D1*
X2639212Y1843787D1*
X2631091Y1840423D1*
X2622543Y1838371D1*
X2613780Y1837681D1*
X2605016Y1838371D1*
X2596469Y1840423D1*
X2588347Y1843787D1*
X2580852Y1848380D1*
X2574168Y1854089D1*
X2568459Y1860773D1*
X2563866Y1868269D1*
X2560502Y1876390D1*
X2558450Y1884938D1*
X2557760Y1893701D1*
X2558450Y1902464D1*
X2560502Y1911012D1*
X2563866Y1919133D1*
X2568459Y1926629D1*
X2574168Y1933313D1*
X2580852Y1939022D1*
X2588519Y1943694D1*
X2580852Y1948380D1*
X2574168Y1954089D1*
X2568459Y1960773D1*
X2563866Y1968269D1*
X2560502Y1976390D1*
X2558450Y1984938D1*
X2557760Y1993701D1*
X2558450Y2002464D1*
X2560502Y2011012D1*
X2563866Y2019133D1*
X2568459Y2026629D1*
X2574168Y2033313D1*
X2580852Y2039022D1*
X2588519Y2043694D1*
X2580852Y2048380D1*
X2574168Y2054089D1*
X2568459Y2060773D1*
X2563866Y2068269D1*
X2560502Y2076390D1*
X2558450Y2084938D1*
X2557760Y2093701D1*
X2558450Y2102464D1*
X2560502Y2111012D1*
X2563866Y2119133D1*
X2568459Y2126629D1*
X2574168Y2133313D1*
X2580852Y2139022D1*
X2588519Y2143694D1*
X2580852Y2148380D1*
X2574168Y2154089D1*
X2568459Y2160773D1*
X2563866Y2168269D1*
X2560502Y2176390D1*
X2558450Y2184938D1*
X2557760Y2193701D1*
X2558450Y2202464D1*
X2560502Y2211012D1*
X2563866Y2219133D1*
X2568459Y2226629D1*
X2574168Y2233313D1*
X2580852Y2239022D1*
X2588519Y2243694D1*
X2580852Y2248380D1*
X2574168Y2254089D1*
X2568459Y2260773D1*
X2563866Y2268269D1*
X2560502Y2276390D1*
X2558450Y2284938D1*
X2557760Y2293701D1*
X2558450Y2302464D1*
X2560502Y2311012D1*
X2563866Y2319133D1*
X2568459Y2326629D1*
X2574168Y2333313D1*
X2580852Y2339022D1*
X2588519Y2343694D1*
X2580852Y2348380D1*
X2574168Y2354089D1*
X2568704Y2360463D1*
X2555852Y2351706D1*
X2476959Y2272813D1*
X2476949Y2110970D1*
X2483261Y2103905D1*
X2486991Y2097819D1*
X2489722Y2091223D1*
X2491389Y2084282D1*
X2491949Y2077166D1*
X2491389Y2070049D1*
X2489722Y2063108D1*
X2486991Y2056513D1*
X2483261Y2050426D1*
X2478625Y2044998D1*
X2473197Y2040362D1*
X2467110Y2036632D1*
X2460515Y2033900D1*
X2453573Y2032234D1*
X2446457Y2031673D1*
X2439340Y2032234D1*
X2432399Y2033900D1*
X2425804Y2036632D1*
X2419717Y2040362D1*
X2414289Y2044998D1*
X2409653Y2050426D1*
X2405923Y2056513D1*
X2403191Y2063108D1*
X2401525Y2070049D1*
X2400965Y2077166D1*
X2401525Y2084282D1*
X2403191Y2091223D1*
X2405923Y2097819D1*
X2409653Y2103905D1*
X2414289Y2109333D1*
X2415959Y2110877D1*
X2416059Y2287826D1*
X2417457Y2294856D1*
X2420458Y2301365D1*
X2424896Y2306995D1*
X2532166Y2414132D1*
X2538126Y2418114D1*
X2544850Y2420595D1*
X2551969Y2421437D1*
X2565103D1*
X2571182Y2430083D1*
X2577398Y2436299D1*
X2584510Y2441466D1*
X2588347Y2443787D1*
X2580852Y2448380D1*
X2574168Y2454089D1*
X2568459Y2460773D1*
X2563866Y2468269D1*
X2560502Y2476390D1*
X2558450Y2484938D1*
X2557760Y2493701D1*
X2558450Y2502464D1*
X2560502Y2511012D1*
X2563866Y2519133D1*
X2568459Y2526629D1*
X2574168Y2533313D1*
X2580852Y2539022D1*
X2588519Y2543694D1*
X2580852Y2548380D1*
X2574168Y2554089D1*
X2568459Y2560773D1*
X2563866Y2568269D1*
X2560502Y2576390D1*
X2558450Y2584938D1*
X2557760Y2593701D1*
X2558450Y2602464D1*
X2560502Y2611012D1*
X2563866Y2619133D1*
X2568459Y2626629D1*
X2574168Y2633313D1*
X2580852Y2639022D1*
X2588519Y2643694D1*
X2580852Y2648380D1*
X2574168Y2654089D1*
X2568459Y2660773D1*
X2563866Y2668269D1*
X2560502Y2676390D1*
X2558450Y2684938D1*
X2557760Y2693701D1*
X2558450Y2702464D1*
X2560502Y2711012D1*
X2563866Y2719133D1*
X2568459Y2726629D1*
X2574168Y2733313D1*
X2580852Y2739022D1*
X2588347Y2743615D1*
X2596469Y2746979D1*
X2605016Y2749031D1*
X2613780Y2749721D1*
X2622543Y2749031D1*
X2631091Y2746979D1*
X2639212Y2743615D1*
X2646707Y2739022D1*
X2653392Y2733313D1*
X2659101Y2726629D1*
X2663773Y2718962D1*
X2668459Y2726629D1*
X2674168Y2733313D1*
X2680852Y2739022D1*
X2688519Y2743694D1*
X2680852Y2748380D1*
X2674168Y2754089D1*
X2668459Y2760773D1*
X2663866Y2768269D1*
X2660502Y2776390D1*
X2658450Y2784938D1*
X2657760Y2793701D1*
X2658450Y2802464D1*
X2660502Y2811012D1*
X2663866Y2819133D1*
X2668459Y2826629D1*
X2674168Y2833313D1*
X2680852Y2839022D1*
X2688347Y2843615D1*
X2696469Y2846979D1*
X2705016Y2849031D1*
X2713780Y2849721D1*
X2722543Y2849031D1*
X2731091Y2846979D1*
X2739212Y2843615D1*
X2746707Y2839022D1*
X2753392Y2833313D1*
X2756792Y2829557D1*
X2756791Y2914238D1*
X786528Y2914272D1*
X786516Y2635805D1*
X797353Y2638068D1*
X806326Y2639130D1*
X815355Y2639484D1*
X824383Y2639130D1*
X833356Y2638068D1*
X842218Y2636305D1*
X850915Y2633852D1*
X859392Y2630725D1*
X867597Y2626942D1*
X875481Y2622527D1*
X882994Y2617507D1*
X890090Y2611913D1*
X896725Y2605780D1*
X902858Y2599145D1*
X908452Y2592049D1*
X913472Y2584536D1*
X917887Y2576653D1*
X921670Y2568447D1*
X924797Y2559970D1*
X927250Y2551273D1*
X929012Y2542411D1*
X930074Y2533438D1*
X930429Y2524410D1*
X929324Y2509037D1*
X943683Y2517601D1*
X952590Y2521708D1*
X961792Y2525103D1*
X971233Y2527765D1*
X980853Y2529679D1*
X990593Y2530831D1*
X1000394Y2531217D1*
X1010195Y2530831D1*
X1019935Y2529679D1*
X1029555Y2527765D1*
X1038995Y2525103D1*
X1048198Y2521708D1*
X1057105Y2517601D1*
X1065663Y2512809D1*
X1073818Y2507360D1*
X1081521Y2501287D1*
X1088724Y2494629D1*
X1095382Y2487427D1*
X1101454Y2479724D1*
X1106903Y2471568D1*
X1111696Y2463011D1*
X1115802Y2454103D1*
X1119197Y2444901D1*
X1121860Y2435461D1*
X1123773Y2425841D1*
X1124926Y2416100D1*
X1125311Y2406299D1*
X1124926Y2396499D1*
X1614749Y1743421D2*
X1714288D1*
Y1722083D1*
X1718656Y1727014D1*
X1725340Y1732723D1*
X1732836Y1737316D1*
X1740957Y1740680D1*
X1749505Y1742732D1*
X1758268Y1743421D1*
X1767031Y1742732D1*
X1775579Y1740680D1*
X1783700Y1737316D1*
X1791195Y1732723D1*
X1797880Y1727014D1*
X1803589Y1720329D1*
X1808182Y1712834D1*
X1811546Y1704713D1*
X1813598Y1696165D1*
X1814288Y1687402D1*
X1813598Y1678638D1*
X1811546Y1670091D1*
X1808182Y1661969D1*
X1803589Y1654474D1*
X1797880Y1647790D1*
X1791195Y1642081D1*
X1783700Y1637488D1*
X1775579Y1634124D1*
X1767031Y1632072D1*
X1758268Y1631382D1*
X1749505Y1632072D1*
X1740957Y1634124D1*
X1732836Y1637488D1*
X1725340Y1642081D1*
X1718656Y1647790D1*
X1714298Y1652761D1*
X1714288Y1631382D1*
X1602249D1*
Y1743421D1*
X1614749D1*
X1814115Y1983007D2*
X1812740Y1974324D1*
X1810023Y1965964D1*
X1806033Y1958132D1*
X1800866Y1951020D1*
X1794650Y1944804D1*
X1787538Y1939637D1*
X1779706Y1935646D1*
X1771345Y1932930D1*
X1762663Y1931555D1*
X1753873D1*
X1745190Y1932930D1*
X1736830Y1935646D1*
X1728998Y1939637D1*
X1721886Y1944804D1*
X1715670Y1951020D1*
X1710503Y1958132D1*
X1708182Y1961969D1*
X1703589Y1954474D1*
X1697880Y1947790D1*
X1691195Y1942081D1*
X1683700Y1937488D1*
X1675579Y1934124D1*
X1667031Y1932072D1*
X1658268Y1931382D1*
X1649505Y1932072D1*
X1640957Y1934124D1*
X1632836Y1937488D1*
X1625340Y1942081D1*
X1618656Y1947790D1*
X1612947Y1954474D1*
X1608354Y1961969D1*
X1604990Y1970091D1*
X1602938Y1978638D1*
X1602248Y1987402D1*
X1602938Y1996165D1*
X1604990Y2004713D1*
X1608354Y2012834D1*
X1612947Y2020329D1*
X1618656Y2027014D1*
X1625340Y2032723D1*
X1632836Y2037316D1*
X1640957Y2040680D1*
X1649505Y2042732D1*
X1658268Y2043421D1*
X1667031Y2042732D1*
X1675579Y2040680D1*
X1683700Y2037316D1*
X1691195Y2032723D1*
X1697880Y2027014D1*
X1703589Y2020329D1*
X1708261Y2012663D1*
X1712947Y2020329D1*
X1718656Y2027014D1*
X1725340Y2032723D1*
X1732836Y2037316D1*
X1740957Y2040680D1*
X1749505Y2042732D1*
X1758268Y2043421D1*
X1767031Y2042732D1*
X1775579Y2040680D1*
X1783700Y2037316D1*
X1791195Y2032723D1*
X1797880Y2027014D1*
X1803589Y2020329D1*
X1808182Y2012834D1*
X1811546Y2004713D1*
X1813598Y1996165D1*
X1814288Y1987402D1*
X1814115Y1983007D1*
X2095064Y1746964D2*
X2194603D1*
Y1725627D1*
X2198971Y1730557D1*
X2205655Y1736266D1*
X2213150Y1740859D1*
X2221272Y1744223D1*
X2229819Y1746275D1*
X2238583Y1746965D1*
X2247346Y1746275D1*
X2255894Y1744223D1*
X2264015Y1740859D1*
X2271510Y1736266D1*
X2278195Y1730557D1*
X2283904Y1723873D1*
X2288497Y1716377D1*
X2291557Y1709078D1*
X2291555Y1894892D1*
X2250250Y1936156D1*
X2242978Y1935098D1*
X2234188D1*
X2225505Y1936473D1*
X2217145Y1939190D1*
X2209313Y1943180D1*
X2202201Y1948347D1*
X2195985Y1954563D1*
X2190818Y1961675D1*
X2188497Y1965513D1*
X2183904Y1958018D1*
X2178195Y1951333D1*
X2171510Y1945624D1*
X2164015Y1941031D1*
X2155894Y1937667D1*
X2147346Y1935615D1*
X2138583Y1934925D1*
X2129819Y1935615D1*
X2121272Y1937667D1*
X2113150Y1941031D1*
X2105655Y1945624D1*
X2098971Y1951333D1*
X2093262Y1958018D1*
X2088669Y1965513D1*
X2085305Y1973634D1*
X2083253Y1982182D1*
X2082563Y1990945D1*
X2083253Y1999709D1*
X2085305Y2008256D1*
X2088669Y2016377D1*
X2093262Y2023873D1*
X2098971Y2030557D1*
X2105655Y2036266D1*
X2113150Y2040859D1*
X2121272Y2044223D1*
X2129819Y2046275D1*
X2138583Y2046965D1*
X2147346Y2046275D1*
X2155894Y2044223D1*
X2164015Y2040859D1*
X2171510Y2036266D1*
X2178195Y2030557D1*
X2183904Y2023873D1*
X2188576Y2016206D1*
X2193262Y2023873D1*
X2198971Y2030557D1*
X2205655Y2036266D1*
X2213150Y2040859D1*
X2221272Y2044223D1*
X2229819Y2046275D1*
X2238583Y2046965D1*
X2247346Y2046275D1*
X2255894Y2044223D1*
X2264015Y2040859D1*
X2271510Y2036266D1*
X2278195Y2030557D1*
X2283904Y2023873D1*
X2288497Y2016377D1*
X2291861Y2008256D1*
X2293913Y1999709D1*
X2294603Y1990945D1*
X2293913Y1982182D1*
X2293340Y1979300D1*
X2345234Y1927284D1*
X2349216Y1921324D1*
X2351697Y1914599D1*
X2352540Y1907481D1*
X2352446Y1612568D1*
X2351047Y1605538D1*
X2348046Y1599029D1*
X2343609Y1593400D1*
X2313110Y1563034D1*
X2307150Y1559052D1*
X2300426Y1556571D1*
X2293307Y1555728D1*
X2178805D1*
X2159633Y1536589D1*
X2159626Y1492426D1*
X2163727Y1488206D1*
X2167922Y1482431D1*
X2171163Y1476071D1*
X2173369Y1469282D1*
X2174486Y1462231D1*
Y1455092D1*
X2173369Y1448042D1*
X2171163Y1441253D1*
X2167922Y1434892D1*
X2163727Y1429117D1*
X2158679Y1424069D1*
X2152904Y1419873D1*
X2146543Y1416632D1*
X2139754Y1414426D1*
X2132703Y1413310D1*
X2125565D1*
X2118514Y1414426D1*
X2111725Y1416632D1*
X2105365Y1419873D1*
X2099589Y1424069D1*
X2094542Y1429117D1*
X2090346Y1434892D1*
X2087105Y1441253D1*
X2084899Y1448042D1*
X2083782Y1455092D1*
Y1462231D1*
X2084899Y1469282D1*
X2087105Y1476071D1*
X2090346Y1482431D1*
X2094542Y1488206D1*
X2098636Y1492373D1*
X2098736Y1551605D1*
X2100134Y1558635D1*
X2103135Y1565145D1*
X2107573Y1570774D1*
X2146339Y1609407D1*
X2152299Y1613389D1*
X2159024Y1615870D1*
X2166142Y1616713D1*
X2280644D1*
X2291530Y1627566D1*
X2291555Y1672725D1*
X2288497Y1665513D1*
X2283904Y1658018D1*
X2278195Y1651333D1*
X2271510Y1645624D1*
X2264015Y1641031D1*
X2255894Y1637667D1*
X2247346Y1635615D1*
X2238583Y1634925D1*
X2229819Y1635615D1*
X2221272Y1637667D1*
X2213150Y1641031D1*
X2205655Y1645624D1*
X2198971Y1651333D1*
X2194613Y1656304D1*
X2194603Y1634925D1*
X2082564D1*
Y1746964D1*
X2095064D1*
X1863740Y1136232D2*
X1862400Y1127540D1*
X1859780Y1119473D1*
X1855929Y1111916D1*
X1850944Y1105054D1*
X1844946Y1099057D1*
X1838084Y1094071D1*
X1830527Y1090221D1*
X1822461Y1087600D1*
X1814084Y1086273D1*
X1805602D1*
X1799875Y1087073D1*
X1658780Y946105D1*
X1652820Y942123D1*
X1646095Y939642D1*
X1638977Y938799D1*
X1603869D1*
X1596819Y932488D1*
X1590732Y928758D1*
X1584137Y926026D1*
X1577195Y924360D1*
X1570079Y923799D1*
X1562962Y924360D1*
X1556021Y926026D1*
X1549426Y928758D1*
X1543339Y932488D1*
X1537911Y937124D1*
X1533275Y942552D1*
X1529545Y948639D1*
X1526813Y955234D1*
X1525147Y962175D1*
X1524587Y969292D1*
X1525147Y976408D1*
X1526813Y983349D1*
X1529545Y989945D1*
X1533275Y996031D1*
X1537911Y1001459D1*
X1543339Y1006095D1*
X1549426Y1009825D1*
X1556021Y1012557D1*
X1562962Y1014224D1*
X1570079Y1014784D1*
X1577195Y1014224D1*
X1584137Y1012557D1*
X1590732Y1009825D1*
X1596819Y1006095D1*
X1602247Y1001459D1*
X1603791Y999789D1*
X1626378Y999784D1*
X1756731Y1130168D1*
X1755792Y1140158D1*
X1756457Y1148613D1*
X1756758Y1150125D1*
X1710217Y1196661D1*
X1555403Y1196673D1*
X1551199Y1192573D1*
X1545423Y1188377D1*
X1539063Y1185136D1*
X1532274Y1182930D1*
X1525223Y1181814D1*
X1518084D1*
X1511034Y1182930D1*
X1504245Y1185136D1*
X1497884Y1188377D1*
X1492109Y1192573D1*
X1487061Y1197621D1*
X1482865Y1203396D1*
X1479625Y1209756D1*
X1477419Y1216546D1*
X1476302Y1223596D1*
Y1230735D1*
X1477419Y1237785D1*
X1479625Y1244575D1*
X1482865Y1250935D1*
X1487061Y1256710D1*
X1492109Y1261758D1*
X1497884Y1265954D1*
X1504245Y1269195D1*
X1511034Y1271401D1*
X1518084Y1272517D1*
X1525223D1*
X1532274Y1271401D1*
X1539063Y1269195D1*
X1545423Y1265954D1*
X1551199Y1261758D1*
X1555365Y1257663D1*
X1725227Y1257564D1*
X1732257Y1256165D1*
X1738767Y1253164D1*
X1744396Y1248727D1*
X1799880Y1193242D1*
X1805917Y1194055D1*
X1807285Y1202776D1*
X1809906Y1210842D1*
X1813757Y1218399D1*
X1818742Y1225261D1*
X1824739Y1231259D1*
X1831601Y1236244D1*
X1839158Y1240094D1*
X1847225Y1242715D1*
X1855602Y1244042D1*
X1864084D1*
X1872461Y1242715D1*
X1880527Y1240094D1*
X1888084Y1236244D1*
X1894946Y1231259D1*
X1900944Y1225261D1*
X1905929Y1218399D1*
X1909780Y1210842D1*
X1912400Y1202776D1*
X1913727Y1194398D1*
Y1185917D1*
X1912400Y1177540D1*
X1909780Y1169473D1*
X1905929Y1161916D1*
X1900944Y1155054D1*
X1894946Y1149057D1*
X1888084Y1144071D1*
X1880527Y1140221D1*
X1872461Y1137600D1*
X1863769Y1136261D1*
X2233806Y1091035D2*
X2233006Y1085308D1*
X2329197Y989123D1*
X2399690Y989154D1*
X2406725Y995466D1*
X2412812Y999195D1*
X2419407Y1001927D1*
X2426348Y1003594D1*
X2433465Y1004154D1*
X2440581Y1003594D1*
X2447523Y1001927D1*
X2454118Y999195D1*
X2460204Y995466D1*
X2465633Y990829D1*
X2470269Y985401D1*
X2473999Y979315D1*
X2476730Y972719D1*
X2478397Y965778D1*
X2478957Y958662D1*
X2478397Y951545D1*
X2476730Y944604D1*
X2473999Y938009D1*
X2470269Y931922D1*
X2465633Y926494D1*
X2460204Y921858D1*
X2454118Y918128D1*
X2447523Y915396D1*
X2440581Y913730D1*
X2433465Y913170D1*
X2426348Y913730D1*
X2419407Y915396D1*
X2412812Y918128D1*
X2406725Y921858D1*
X2401297Y926494D1*
X2399753Y928164D1*
X2314143Y928263D1*
X2307113Y929662D1*
X2300604Y932663D1*
X2294974Y937100D1*
X2189910Y1042165D1*
X2179921Y1041225D1*
X2171466Y1041890D1*
X2163219Y1043870D1*
X2155383Y1047116D1*
X2148151Y1051547D1*
X2141702Y1057056D1*
X2136193Y1063505D1*
X2131762Y1070737D1*
X2128516Y1078573D1*
X2126536Y1086820D1*
X2126025Y1091350D1*
X2117303Y1092718D1*
X2109237Y1095339D1*
X2101680Y1099190D1*
X2094818Y1104175D1*
X2088821Y1110172D1*
X2083835Y1117034D1*
X2079985Y1124591D1*
X2077364Y1132658D1*
X2076037Y1141035D1*
Y1149517D1*
X2077364Y1157894D1*
X2079985Y1165960D1*
X2083835Y1173517D1*
X2088821Y1180379D1*
X2094818Y1186377D1*
X2101680Y1191362D1*
X2109237Y1195213D1*
X2117303Y1197834D1*
X2125681Y1199160D1*
X2134162D1*
X2142539Y1197834D1*
X2150606Y1195213D1*
X2158163Y1191362D1*
X2165025Y1186377D1*
X2171022Y1180379D1*
X2176008Y1173517D1*
X2179858Y1165960D1*
X2182479Y1157894D1*
X2183818Y1149202D1*
X2192539Y1147834D1*
X2200606Y1145213D1*
X2208163Y1141362D1*
X2215025Y1136377D1*
X2221022Y1130379D1*
X2226008Y1123517D1*
X2229858Y1115960D1*
X2232479Y1107894D1*
X2233806Y1099517D1*
Y1091035D1*
X2663773Y2668440D2*
X2659101Y2660773D1*
X2653392Y2654089D1*
X2646707Y2648380D1*
X2639041Y2643708D1*
X2646707Y2639022D1*
X2653392Y2633313D1*
X2659101Y2626629D1*
X2663773Y2618962D1*
X2668459Y2626629D1*
X2674168Y2633313D1*
X2680852Y2639022D1*
X2688519Y2643694D1*
X2680852Y2648380D1*
X2674168Y2654089D1*
X2668459Y2660773D1*
X2663787Y2668440D1*
X2663773Y2568440D2*
X2659101Y2560773D1*
X2653392Y2554089D1*
X2646707Y2548380D1*
X2639041Y2543708D1*
X2646707Y2539022D1*
X2653392Y2533313D1*
X2659101Y2526629D1*
X2663773Y2518962D1*
X2668459Y2526629D1*
X2674168Y2533313D1*
X2680852Y2539022D1*
X2688519Y2543694D1*
X2680852Y2548380D1*
X2674168Y2554089D1*
X2668459Y2560773D1*
X2663787Y2568440D1*
X2663773Y2468440D2*
X2659101Y2460773D1*
X2653392Y2454089D1*
X2646707Y2448380D1*
X2639041Y2443708D1*
X2646707Y2439022D1*
X2653392Y2433313D1*
X2659101Y2426629D1*
X2663773Y2418962D1*
X2668459Y2426629D1*
X2674168Y2433313D1*
X2680852Y2439022D1*
X2688519Y2443694D1*
X2680852Y2448380D1*
X2674168Y2454089D1*
X2668459Y2460773D1*
X2663787Y2468440D1*
X2663773Y2368440D2*
X2659101Y2360773D1*
X2653392Y2354089D1*
X2646707Y2348380D1*
X2639041Y2343708D1*
X2646707Y2339022D1*
X2653392Y2333313D1*
X2659101Y2326629D1*
X2663773Y2318962D1*
X2668459Y2326629D1*
X2674168Y2333313D1*
X2680852Y2339022D1*
X2688519Y2343694D1*
X2680852Y2348380D1*
X2674168Y2354089D1*
X2668459Y2360773D1*
X2663787Y2368440D1*
X2663773Y2268440D2*
X2659101Y2260773D1*
X2653392Y2254089D1*
X2646707Y2248380D1*
X2639041Y2243708D1*
X2646707Y2239022D1*
X2653392Y2233313D1*
X2659101Y2226629D1*
X2663773Y2218962D1*
X2668459Y2226629D1*
X2674168Y2233313D1*
X2680852Y2239022D1*
X2688519Y2243694D1*
X2680852Y2248380D1*
X2674168Y2254089D1*
X2668459Y2260773D1*
X2663787Y2268440D1*
X2663773Y2168440D2*
X2659101Y2160773D1*
X2653392Y2154089D1*
X2646707Y2148380D1*
X2639041Y2143708D1*
X2646707Y2139022D1*
X2653392Y2133313D1*
X2659101Y2126629D1*
X2663773Y2118962D1*
X2668459Y2126629D1*
X2674168Y2133313D1*
X2680852Y2139022D1*
X2688519Y2143694D1*
X2680852Y2148380D1*
X2674168Y2154089D1*
X2668459Y2160773D1*
X2663787Y2168440D1*
X2663773Y2068440D2*
X2659101Y2060773D1*
X2653392Y2054089D1*
X2646707Y2048380D1*
X2639041Y2043708D1*
X2646707Y2039022D1*
X2653392Y2033313D1*
X2659101Y2026629D1*
X2663773Y2018962D1*
X2668459Y2026629D1*
X2674168Y2033313D1*
X2680852Y2039022D1*
X2688519Y2043694D1*
X2680852Y2048380D1*
X2674168Y2054089D1*
X2668459Y2060773D1*
X2663787Y2068440D1*
X2663773Y1968440D2*
X2659101Y1960773D1*
X2653392Y1954089D1*
X2646707Y1948380D1*
X2639041Y1943708D1*
X2646707Y1939022D1*
X2653392Y1933313D1*
X2659101Y1926629D1*
X2663773Y1918962D1*
X2668459Y1926629D1*
X2674168Y1933313D1*
X2680852Y1939022D1*
X2688519Y1943694D1*
X2680852Y1948380D1*
X2674168Y1954089D1*
X2668459Y1960773D1*
X2663787Y1968440D1*
X2663773Y1668440D2*
X2659101Y1660773D1*
X2653392Y1654089D1*
X2646707Y1648380D1*
X2639041Y1643708D1*
X2646707Y1639022D1*
X2653392Y1633313D1*
X2659101Y1626629D1*
X2663773Y1618962D1*
X2668459Y1626629D1*
X2674168Y1633313D1*
X2680852Y1639022D1*
X2688519Y1643694D1*
X2680852Y1648380D1*
X2674168Y1654089D1*
X2668459Y1660773D1*
X2663787Y1668440D1*
X2769627Y1689306D2*
X2768252Y1680623D1*
X2765535Y1672263D1*
X2761544Y1664431D1*
X2756377Y1657319D1*
X2750162Y1651103D1*
X2743050Y1645936D1*
X2739212Y1643615D1*
X2746707Y1639022D1*
X2753392Y1633313D1*
X2759101Y1626629D1*
X2763694Y1619133D1*
X2767058Y1611012D1*
X2769110Y1602464D1*
X2769799Y1593701D1*
X2769110Y1584938D1*
X2767058Y1576390D1*
X2763694Y1568269D1*
X2759101Y1560773D1*
X2753392Y1554089D1*
X2746707Y1548380D1*
X2739041Y1543708D1*
X2746707Y1539022D1*
X2753392Y1533313D1*
X2759101Y1526629D1*
X2763694Y1519133D1*
X2767058Y1511012D1*
X2769110Y1502464D1*
X2769799Y1493701D1*
X2769110Y1484938D1*
X2767058Y1476390D1*
X2763694Y1468269D1*
X2759101Y1460773D1*
X2753392Y1454089D1*
X2746707Y1448380D1*
X2739041Y1443708D1*
X2746707Y1439022D1*
X2753392Y1433313D1*
X2759101Y1426629D1*
X2763694Y1419133D1*
X2767058Y1411012D1*
X2769110Y1402464D1*
X2769799Y1393701D1*
X2769110Y1384938D1*
X2767058Y1376390D1*
X2763694Y1368269D1*
X2759101Y1360773D1*
X2753392Y1354089D1*
X2746707Y1348380D1*
X2739041Y1343708D1*
X2746707Y1339022D1*
X2753392Y1333313D1*
X2759101Y1326629D1*
X2763694Y1319133D1*
X2767058Y1311012D1*
X2769110Y1302464D1*
X2769799Y1293701D1*
X2769110Y1284938D1*
X2767058Y1276390D1*
X2763694Y1268269D1*
X2759101Y1260773D1*
X2753392Y1254089D1*
X2752269Y1253051D1*
X2750099Y1248425D1*
Y1251046D1*
X2743050Y1245936D1*
X2739212Y1243615D1*
X2746707Y1239022D1*
X2750094Y1236352D1*
X2752296Y1253051D1*
X2850886D1*
Y1703686D1*
X2768872Y1703661D1*
X2769799Y1693701D1*
X2769627Y1689306D1*
X2663773Y1568440D2*
X2659101Y1560773D1*
X2653392Y1554089D1*
X2646707Y1548380D1*
X2639041Y1543708D1*
X2646707Y1539022D1*
X2653392Y1533313D1*
X2659101Y1526629D1*
X2663773Y1518962D1*
X2668459Y1526629D1*
X2674168Y1533313D1*
X2680852Y1539022D1*
X2688519Y1543694D1*
X2680852Y1548380D1*
X2674168Y1554089D1*
X2668459Y1560773D1*
X2663787Y1568440D1*
X2663773Y1468440D2*
X2659101Y1460773D1*
X2653392Y1454089D1*
X2646707Y1448380D1*
X2639041Y1443708D1*
X2646707Y1439022D1*
X2653392Y1433313D1*
X2659101Y1426629D1*
X2663773Y1418962D1*
X2668459Y1426629D1*
X2674168Y1433313D1*
X2680852Y1439022D1*
X2688519Y1443694D1*
X2680852Y1448380D1*
X2674168Y1454089D1*
X2668459Y1460773D1*
X2663787Y1468440D1*
X2588519Y1443708D2*
X2580852Y1448380D1*
X2574168Y1454089D1*
X2568459Y1460773D1*
X2563891Y1468224D1*
X2561321Y1459756D1*
X2558080Y1453396D1*
X2553884Y1447621D1*
X2551753Y1445315D1*
X2551752Y1363332D1*
X2558064Y1356267D1*
X2561794Y1350181D1*
X2564526Y1343586D1*
X2566192Y1336644D1*
X2566752Y1329528D1*
X2566315Y1323450D1*
X2571182Y1330083D1*
X2577398Y1336299D1*
X2584510Y1341466D1*
X2588347Y1343787D1*
X2580852Y1348380D1*
X2574168Y1354089D1*
X2568459Y1360773D1*
X2563866Y1368269D1*
X2560502Y1376390D1*
X2558450Y1384938D1*
X2557760Y1393701D1*
X2558450Y1402464D1*
X2560502Y1411012D1*
X2563866Y1419133D1*
X2568459Y1426629D1*
X2574168Y1433313D1*
X2580852Y1439022D1*
X2588519Y1443694D1*
X2663773Y1368440D2*
X2659101Y1360773D1*
X2653392Y1354089D1*
X2646707Y1348380D1*
X2639041Y1343708D1*
X2646707Y1339022D1*
X2653392Y1333313D1*
X2659101Y1326629D1*
X2663773Y1318962D1*
X2668459Y1326629D1*
X2674168Y1333313D1*
X2680852Y1339022D1*
X2688519Y1343694D1*
X2680852Y1348380D1*
X2674168Y1354089D1*
X2668459Y1360773D1*
X2663787Y1368440D1*
X2663773Y1268440D2*
X2659101Y1260773D1*
X2653392Y1254089D1*
X2646707Y1248380D1*
X2639041Y1243708D1*
X2646707Y1239022D1*
X2653392Y1233313D1*
X2659101Y1226629D1*
X2663773Y1218962D1*
X2668459Y1226629D1*
X2674168Y1233313D1*
X2680852Y1239022D1*
X2688519Y1243694D1*
X2680852Y1248380D1*
X2674168Y1254089D1*
X2668459Y1260773D1*
X2663787Y1268440D1*
X2663773Y1168440D2*
X2659101Y1160773D1*
X2653392Y1154089D1*
X2646707Y1148380D1*
X2639041Y1143708D1*
X2646707Y1139022D1*
X2653392Y1133313D1*
X2659101Y1126629D1*
X2663773Y1118962D1*
X2668459Y1126629D1*
X2674168Y1133313D1*
X2680852Y1139022D1*
X2688519Y1143694D1*
X2680852Y1148380D1*
X2674168Y1154089D1*
X2668459Y1160773D1*
X2663787Y1168440D1*
X2663773Y1068440D2*
X2659101Y1060773D1*
X2653392Y1054089D1*
X2646707Y1048380D1*
X2639041Y1043708D1*
X2646707Y1039022D1*
X2653392Y1033313D1*
X2659101Y1026629D1*
X2663773Y1018962D1*
X2668459Y1026629D1*
X2674168Y1033313D1*
X2680852Y1039022D1*
X2688519Y1043694D1*
X2680852Y1048380D1*
X2674168Y1054089D1*
X2668459Y1060773D1*
X2663787Y1068440D1*
X1394824Y2789306D2*
X1393448Y2780623D1*
X1390732Y2772263D1*
X1386741Y2764431D1*
X1381574Y2757319D1*
X1375358Y2751103D1*
X1368247Y2745936D1*
X1360414Y2741946D1*
X1352054Y2739229D1*
X1343372Y2737854D1*
X1334581D1*
X1325899Y2739229D1*
X1317539Y2741946D1*
X1309706Y2745936D1*
X1302595Y2751103D1*
X1296379Y2757319D1*
X1291212Y2764431D1*
X1287221Y2772263D1*
X1284505Y2780623D1*
X1283130Y2789306D1*
Y2798096D1*
X1284505Y2806779D1*
X1287221Y2815139D1*
X1291212Y2822971D1*
X1296379Y2830083D1*
X1302595Y2836299D1*
X1309706Y2841466D1*
X1317539Y2845456D1*
X1325899Y2848173D1*
X1334581Y2849548D1*
X1343372D1*
X1352054Y2848173D1*
X1360414Y2845456D1*
X1368247Y2841466D1*
X1375358Y2836299D1*
X1381574Y2830083D1*
X1386741Y2822971D1*
X1390732Y2815139D1*
X1393448Y2806779D1*
X1394824Y2798096D1*
Y2789306D1*
X1288970Y2568440D2*
X1284297Y2560773D1*
X1278588Y2554089D1*
X1271904Y2548380D1*
X1264237Y2543708D1*
X1271904Y2539022D1*
X1278588Y2533313D1*
X1284297Y2526629D1*
X1288970Y2518962D1*
X1293656Y2526629D1*
X1299365Y2533313D1*
X1306049Y2539022D1*
X1313716Y2543694D1*
X1306049Y2548380D1*
X1299365Y2554089D1*
X1293656Y2560773D1*
X1288984Y2568440D1*
X1288970Y2468440D2*
X1284297Y2460773D1*
X1278588Y2454089D1*
X1271904Y2448380D1*
X1264237Y2443708D1*
X1271904Y2439022D1*
X1278588Y2433313D1*
X1284297Y2426629D1*
X1288970Y2418962D1*
X1293656Y2426629D1*
X1299365Y2433313D1*
X1306049Y2439022D1*
X1313716Y2443694D1*
X1306049Y2448380D1*
X1299365Y2454089D1*
X1293656Y2460773D1*
X1288984Y2468440D1*
X1288970Y2168440D2*
X1284297Y2160773D1*
X1278588Y2154089D1*
X1271904Y2148380D1*
X1264237Y2143708D1*
X1271904Y2139022D1*
X1278588Y2133313D1*
X1284297Y2126629D1*
X1288970Y2118962D1*
X1293656Y2126629D1*
X1299365Y2133313D1*
X1306049Y2139022D1*
X1313716Y2143694D1*
X1306049Y2148380D1*
X1299365Y2154089D1*
X1293656Y2160773D1*
X1288984Y2168440D1*
X1288970Y2068440D2*
X1284297Y2060773D1*
X1278588Y2054089D1*
X1271904Y2048380D1*
X1264237Y2043708D1*
X1271904Y2039022D1*
X1278588Y2033313D1*
X1284297Y2026629D1*
X1288970Y2018962D1*
X1293656Y2026629D1*
X1299365Y2033313D1*
X1306049Y2039022D1*
X1313716Y2043694D1*
X1306049Y2048380D1*
X1299365Y2054089D1*
X1293656Y2060773D1*
X1288984Y2068440D1*
X1288970Y1968440D2*
X1284297Y1960773D1*
X1278588Y1954089D1*
X1271904Y1948380D1*
X1264237Y1943708D1*
X1271904Y1939022D1*
X1278588Y1933313D1*
X1284297Y1926629D1*
X1288970Y1918962D1*
X1293656Y1926629D1*
X1299365Y1933313D1*
X1306049Y1939022D1*
X1313716Y1943694D1*
X1306049Y1948380D1*
X1299365Y1954089D1*
X1293656Y1960773D1*
X1288984Y1968440D1*
X1288970Y1868440D2*
X1284297Y1860773D1*
X1278588Y1854089D1*
X1271904Y1848380D1*
X1264237Y1843708D1*
X1271904Y1839022D1*
X1278588Y1833313D1*
X1284297Y1826629D1*
X1288970Y1818962D1*
X1293656Y1826629D1*
X1299365Y1833313D1*
X1306049Y1839022D1*
X1313716Y1843694D1*
X1306049Y1848380D1*
X1299365Y1854089D1*
X1293656Y1860773D1*
X1288984Y1868440D1*
X1288970Y1768440D2*
X1284297Y1760773D1*
X1278588Y1754089D1*
X1271904Y1748380D1*
X1264237Y1743708D1*
X1271904Y1739022D1*
X1278588Y1733313D1*
X1284297Y1726629D1*
X1288970Y1718962D1*
X1293656Y1726629D1*
X1299365Y1733313D1*
X1306049Y1739022D1*
X1313716Y1743694D1*
X1306049Y1748380D1*
X1299365Y1754089D1*
X1293656Y1760773D1*
X1288984Y1768440D1*
X1288970Y1668440D2*
X1284297Y1660773D1*
X1278588Y1654089D1*
X1271904Y1648380D1*
X1264237Y1643708D1*
X1271904Y1639022D1*
X1278588Y1633313D1*
X1284297Y1626629D1*
X1288970Y1618962D1*
X1293656Y1626629D1*
X1299365Y1633313D1*
X1306049Y1639022D1*
X1313716Y1643694D1*
X1306049Y1648380D1*
X1299365Y1654089D1*
X1293656Y1660773D1*
X1288984Y1668440D1*
X1288970Y1568440D2*
X1284297Y1560773D1*
X1278588Y1554089D1*
X1271904Y1548380D1*
X1264237Y1543708D1*
X1271904Y1539022D1*
X1278588Y1533313D1*
X1284297Y1526629D1*
X1288970Y1518962D1*
X1293656Y1526629D1*
X1299365Y1533313D1*
X1306049Y1539022D1*
X1313716Y1543694D1*
X1306049Y1548380D1*
X1299365Y1554089D1*
X1293656Y1560773D1*
X1288984Y1568440D1*
X1288970Y1468440D2*
X1284297Y1460773D1*
X1278588Y1454089D1*
X1271904Y1448380D1*
X1264237Y1443708D1*
X1271904Y1439022D1*
X1278588Y1433313D1*
X1284297Y1426629D1*
X1288970Y1418962D1*
X1293656Y1426629D1*
X1299365Y1433313D1*
X1306049Y1439022D1*
X1313716Y1443694D1*
X1306049Y1448380D1*
X1299365Y1454089D1*
X1293656Y1460773D1*
X1288984Y1468440D1*
X1288970Y1368440D2*
X1284297Y1360773D1*
X1278588Y1354089D1*
X1271904Y1348380D1*
X1264237Y1343708D1*
X1271904Y1339022D1*
X1278588Y1333313D1*
X1284297Y1326629D1*
X1288970Y1318962D1*
X1293656Y1326629D1*
X1299365Y1333313D1*
X1306049Y1339022D1*
X1313716Y1343694D1*
X1306049Y1348380D1*
X1299365Y1354089D1*
X1293656Y1360773D1*
X1288984Y1368440D1*
X1288970Y1268440D2*
X1284297Y1260773D1*
X1278588Y1254089D1*
X1271904Y1248380D1*
X1264237Y1243708D1*
X1271904Y1239022D1*
X1278588Y1233313D1*
X1284297Y1226629D1*
X1288970Y1218962D1*
X1293656Y1226629D1*
X1299365Y1233313D1*
X1306049Y1239022D1*
X1313716Y1243694D1*
X1306049Y1248380D1*
X1299365Y1254089D1*
X1293656Y1260773D1*
X1288984Y1268440D1*
X1288970Y1168440D2*
X1284297Y1160773D1*
X1278588Y1154089D1*
X1271904Y1148380D1*
X1264237Y1143708D1*
X1271904Y1139022D1*
X1278588Y1133313D1*
X1284297Y1126629D1*
X1288970Y1118962D1*
X1293656Y1126629D1*
X1299365Y1133313D1*
X1306049Y1139022D1*
X1313716Y1143694D1*
X1306049Y1148380D1*
X1299365Y1154089D1*
X1293656Y1160773D1*
X1288984Y1168440D1*
X1288970Y1068440D2*
X1284297Y1060773D1*
X1278588Y1054089D1*
X1271904Y1048380D1*
X1264237Y1043708D1*
X1271904Y1039022D1*
X1278588Y1033313D1*
X1284297Y1026629D1*
X1288970Y1018962D1*
X1293656Y1026629D1*
X1299365Y1033313D1*
X1306049Y1039022D1*
X1313716Y1043694D1*
X1306049Y1048380D1*
X1299365Y1054089D1*
X1293656Y1060773D1*
X1288984Y1068440D1*
X2107422Y2286156D2*
X2106047Y2277474D1*
X2103330Y2269114D1*
X2099340Y2261281D1*
X2094173Y2254170D1*
X2087957Y2247954D1*
X2080845Y2242787D1*
X2073013Y2238796D1*
X2064653Y2236080D1*
X2055970Y2234704D1*
X2047180D1*
X2038497Y2236080D1*
X2030137Y2238796D1*
X2022305Y2242787D1*
X2015193Y2247954D1*
X2008977Y2254170D1*
X2003810Y2261281D1*
X1999820Y2269114D1*
X1997103Y2277474D1*
X1995728Y2286156D1*
Y2294947D1*
X1997103Y2303629D1*
X1999820Y2311989D1*
X2003810Y2319822D1*
X2008977Y2326933D1*
X2015193Y2333149D1*
X2022305Y2338316D1*
X2030137Y2342307D1*
X2038497Y2345023D1*
X2047180Y2346398D1*
X2055970D1*
X2064653Y2345023D1*
X2073013Y2342307D1*
X2080845Y2338316D1*
X2087957Y2333149D1*
X2094173Y2326933D1*
X2099340Y2319822D1*
X2103330Y2311989D1*
X2106047Y2303629D1*
X2107422Y2294947D1*
Y2286156D1*
Y2486156D2*
X2106047Y2477474D1*
X2103330Y2469114D1*
X2099340Y2461281D1*
X2094173Y2454170D1*
X2087957Y2447954D1*
X2080845Y2442787D1*
X2073013Y2438796D1*
X2064653Y2436080D1*
X2055970Y2434704D1*
X2047180D1*
X2038497Y2436080D1*
X2030137Y2438796D1*
X2022305Y2442787D1*
X2015193Y2447954D1*
X2008977Y2454170D1*
X2003810Y2461281D1*
X1999820Y2469114D1*
X1997103Y2477474D1*
X1995728Y2486156D1*
Y2494947D1*
X1997103Y2503629D1*
X1999820Y2511989D1*
X2003810Y2519822D1*
X2008977Y2526933D1*
X2015193Y2533149D1*
X2022305Y2538316D1*
X2030137Y2542307D1*
X2038497Y2545023D1*
X2047180Y2546398D1*
X2055970D1*
X2064653Y2545023D1*
X2073013Y2542307D1*
X2080845Y2538316D1*
X2087957Y2533149D1*
X2094173Y2526933D1*
X2099340Y2519822D1*
X2103330Y2511989D1*
X2106047Y2503629D1*
X2107422Y2494947D1*
Y2486156D1*
D24*
X931103Y589370D3*
X734252D3*
X537402D3*
X3414961D3*
X3218110D3*
X3021260D3*
D26*
X2418898Y2480709D3*
D27*
Y2878347D3*
D29*
X1000394Y2642520D3*
D30*
Y2406299D3*
D29*
X815355Y2524410D3*
D31*
X734252Y1555906D3*
X499252Y1475906D3*
X969252D3*
Y995906D3*
X499252D3*
X3218504Y1555906D3*
X2983504Y1475906D3*
X3453504D3*
Y995906D3*
X2983504D3*
D26*
X1658268Y1687402D3*
D16*
X1758268D3*
Y1987402D3*
X1658268D3*
D26*
X2138583Y1690945D3*
D16*
X2238583D3*
Y1990945D3*
X2138583D3*
D33*
X1809843Y1140158D3*
X1859843Y1190158D3*
D77*
X1909843Y1140158D3*
D33*
X2179921Y1095276D3*
X2129921Y1145276D3*
D80*
X2179921Y1195276D3*
D26*
X2613780Y2793701D3*
D27*
X2713780D3*
X2613780Y2693701D3*
X2713780D3*
X2613780Y2593701D3*
X2713780D3*
X2613780Y2493701D3*
X2713780D3*
X2613780Y2393701D3*
X2713780D3*
X2613780Y2293701D3*
X2713780D3*
X2613780Y2193701D3*
X2713780D3*
X2613780Y2093701D3*
X2713780D3*
X2613780Y1993701D3*
X2713780D3*
X2613780Y1893701D3*
X2713780D3*
X2613780Y1793701D3*
X2713780D3*
X2613780Y1693701D3*
X2713780D3*
X2613780Y1593701D3*
X2713780D3*
X2613780Y1493701D3*
X2713780D3*
X2613780Y1393701D3*
X2713780D3*
X2613780Y1293701D3*
X2713780D3*
X2613780Y1193701D3*
X2713780D3*
X2613780Y1093701D3*
X2713780D3*
X2613780Y993701D3*
X2713780D3*
X2613780Y893701D3*
X2713780D3*
D26*
X1238977Y2793701D3*
D27*
X1338977D3*
X1238977Y2693701D3*
X1338977D3*
X1238977Y2593701D3*
X1338977D3*
X1238977Y2493701D3*
X1338977D3*
X1238977Y2393701D3*
X1338977D3*
X1238977Y2293701D3*
X1338977D3*
X1238977Y2193701D3*
X1338977D3*
X1238977Y2093701D3*
X1338977D3*
X1238977Y1993701D3*
X1338977D3*
X1238977Y1893701D3*
X1338977D3*
X1238977Y1793701D3*
X1338977D3*
X1238977Y1693701D3*
X1338977D3*
X1238977Y1593701D3*
X1338977D3*
X1238977Y1493701D3*
X1338977D3*
X1238977Y1393701D3*
X1338977D3*
X1238977Y1293701D3*
X1338977D3*
X1238977Y1193701D3*
X1338977D3*
X1238977Y1093701D3*
X1338977D3*
X1238977Y993701D3*
X1338977D3*
X1238977Y893701D3*
X1338977D3*
D16*
X2051575Y2290551D3*
Y2390551D3*
Y2490551D3*
M02*
