G04 DipTrace 3.0.0.1*
G04 BottomSilk.gbr*
%MOIN*%
G04 #@! TF.FileFunction,Legend,Bot*
G04 #@! TF.Part,Single*
%ADD10C,0.009843*%
%ADD12C,0.003*%
%ADD73C,0.00772*%
%ADD74C,0.012351*%
%ADD75C,0.009264*%
%FSLAX26Y26*%
G04*
G70*
G90*
G75*
G01*
G04 BotSilk*
%LPD*%
X2373622Y2579055D2*
D10*
X2464173D1*
Y2780000D1*
X2373622Y2612440D2*
X2464173D1*
X2373622Y2780000D2*
X2464173D1*
X2373622Y2579055D2*
Y2780000D1*
X3198166Y1395819D2*
D12*
X3222166D1*
X3195641Y1392819D2*
X3224690D1*
X3193490Y1389819D2*
X3226841D1*
X3191661Y1386819D2*
X3228670D1*
X3190010Y1383819D2*
X3230321D1*
X3188441Y1380819D2*
X3231879D1*
X3186822Y1377819D2*
X3233404D1*
X3185027Y1374819D2*
X3234922D1*
X3183092Y1371819D2*
X3236521D1*
X3181254Y1368819D2*
X3238308D1*
X3179567Y1365819D2*
X3240241D1*
X3177975Y1362819D2*
X3242078D1*
X3176440Y1359819D2*
X3243764D1*
X3174923Y1356819D2*
X3245356D1*
X3173408Y1353819D2*
X3246891D1*
X3171810Y1350819D2*
X3248408D1*
X3170023Y1347819D2*
X3249911D1*
X3168090Y1344819D2*
X3251416D1*
X3166254Y1341819D2*
X3252926D1*
X3164567Y1338819D2*
X3254522D1*
X3162975Y1335819D2*
X3256308D1*
X3161440Y1332819D2*
X3258241D1*
X3159923Y1329819D2*
X3206690D1*
X3213641D2*
X3260078D1*
X3158420Y1326819D2*
X3205841D1*
X3214490D2*
X3261764D1*
X3156915Y1323819D2*
X3204670D1*
X3215661D2*
X3263356D1*
X3155405Y1320819D2*
X3203309D1*
X3217010D2*
X3264891D1*
X3153809Y1317819D2*
X3201773D1*
X3218452D2*
X3266408D1*
X3152023Y1314819D2*
X3200010D1*
X3219927D2*
X3267923D1*
X3150090Y1311819D2*
X3198086D1*
X3221421D2*
X3269521D1*
X3148254Y1308819D2*
X3196252D1*
X3222916D2*
X3271308D1*
X3146567Y1305819D2*
X3194567D1*
X3224417D2*
X3273241D1*
X3144975Y1302819D2*
X3192975D1*
X3225915D2*
X3275078D1*
X3143440Y1299819D2*
X3191440D1*
X3227417D2*
X3276764D1*
X3141923Y1296819D2*
X3189923D1*
X3228926D2*
X3278356D1*
X3140420Y1293819D2*
X3188420D1*
X3230522D2*
X3279891D1*
X3138915Y1290819D2*
X3186915D1*
X3232308D2*
X3281408D1*
X3137405Y1287819D2*
X3185417D1*
X3234241D2*
X3282923D1*
X3135809Y1284819D2*
X3183914D1*
X3236078D2*
X3284521D1*
X3134023Y1281819D2*
X3182417D1*
X3237764D2*
X3286308D1*
X3132090Y1278819D2*
X3180914D1*
X3239356D2*
X3288241D1*
X3130254Y1275819D2*
X3179405D1*
X3240891D2*
X3290078D1*
X3128567Y1272819D2*
X3177809D1*
X3242408D2*
X3291764D1*
X3126975Y1269819D2*
X3176023D1*
X3243923D2*
X3293356D1*
X3125428Y1266819D2*
X3174090D1*
X3245521D2*
X3294891D1*
X3123817Y1263819D2*
X3172254D1*
X3247308D2*
X3296408D1*
X3122026Y1260819D2*
X3170567D1*
X3249241D2*
X3297923D1*
X3120091Y1257819D2*
X3168975D1*
X3251078D2*
X3299521D1*
X3118254Y1254819D2*
X3167440D1*
X3252764D2*
X3301308D1*
X3116567Y1251819D2*
X3165923D1*
X3254356D2*
X3303241D1*
X3114975Y1248819D2*
X3164408D1*
X3255891D2*
X3305078D1*
X3113440Y1245819D2*
X3162810D1*
X3257408D2*
X3306764D1*
X3111923Y1242819D2*
X3161023D1*
X3258911D2*
X3308356D1*
X3110408Y1239819D2*
X3159090D1*
X3260416D2*
X3309891D1*
X3108810Y1236819D2*
X3157254D1*
X3261914D2*
X3311408D1*
X3107023Y1233819D2*
X3155567D1*
X3263417D2*
X3312911D1*
X3105090Y1230819D2*
X3153975D1*
X3264926D2*
X3314416D1*
X3103254Y1227819D2*
X3152440D1*
X3266522D2*
X3315926D1*
X3101567Y1224819D2*
X3150923D1*
X3268308D2*
X3317522D1*
X3099975Y1221819D2*
X3149420D1*
X3270241D2*
X3319308D1*
X3098440Y1218819D2*
X3147915D1*
X3272078D2*
X3321241D1*
X3096923Y1215819D2*
X3146417D1*
X3273764D2*
X3323078D1*
X3095420Y1212819D2*
X3144914D1*
X3275356D2*
X3324764D1*
X3093915Y1209819D2*
X3143417D1*
X3276891D2*
X3326356D1*
X3092405Y1206819D2*
X3141914D1*
X3278408D2*
X3327891D1*
X3090809Y1203819D2*
X3140405D1*
X3279911D2*
X3329408D1*
X3089023Y1200819D2*
X3138809D1*
X3281416D2*
X3330911D1*
X3087090Y1197819D2*
X3137023D1*
X3282926D2*
X3332416D1*
X3085254Y1194819D2*
X3135090D1*
X3284522D2*
X3333926D1*
X3083567Y1191819D2*
X3133254D1*
X3286308D2*
X3335522D1*
X3081975Y1188819D2*
X3131567D1*
X3288241D2*
X3337308D1*
X3080440Y1185819D2*
X3129975D1*
X3207166D2*
X3252166D1*
X3290078D2*
X3339241D1*
X3078923Y1182819D2*
X3128440D1*
X3206702D2*
X3251026D1*
X3291764D2*
X3341078D1*
X3077420Y1179819D2*
X3126923D1*
X3205958D2*
X3249748D1*
X3293356D2*
X3342764D1*
X3075915Y1176819D2*
X3125408D1*
X3205170D2*
X3248449D1*
X3294891D2*
X3344356D1*
X3074405Y1173819D2*
X3123810D1*
X3204539D2*
X3247280D1*
X3296408D2*
X3345903D1*
X3072809Y1170819D2*
X3122023D1*
X3203878D2*
X3246230D1*
X3297911D2*
X3347514D1*
X3071023Y1167819D2*
X3120090D1*
X3203032D2*
X3245074D1*
X3299416D2*
X3349306D1*
X3069090Y1164819D2*
X3118254D1*
X3202198D2*
X3243774D1*
X3300914D2*
X3351240D1*
X3067254Y1161819D2*
X3116567D1*
X3201549D2*
X3242461D1*
X3302417D2*
X3353077D1*
X3065567Y1158819D2*
X3114975D1*
X3200881D2*
X3241285D1*
X3303926D2*
X3354764D1*
X3063975Y1155819D2*
X3113440D1*
X3200021D2*
X3240232D1*
X3305522D2*
X3356356D1*
X3062428Y1152819D2*
X3111923D1*
X3199093D2*
X3239075D1*
X3307308D2*
X3357891D1*
X3060817Y1149819D2*
X3110420D1*
X3198167D2*
X3237763D1*
X3309241D2*
X3359408D1*
X3059026Y1146819D2*
X3108915D1*
X3197163D2*
X3236355D1*
X3311078D2*
X3360911D1*
X3057091Y1143819D2*
X3107417D1*
X3196252D2*
X3234903D1*
X3312764D2*
X3362416D1*
X3055254Y1140819D2*
X3105914D1*
X3195570D2*
X3233514D1*
X3314356D2*
X3363926D1*
X3053567Y1137819D2*
X3104405D1*
X3194889D2*
X3232306D1*
X3315891D2*
X3365522D1*
X3051975Y1134819D2*
X3102809D1*
X3194036D2*
X3231240D1*
X3317408D2*
X3367308D1*
X3050440Y1131819D2*
X3101023D1*
X3193199D2*
X3230077D1*
X3318923D2*
X3369241D1*
X3048923Y1128819D2*
X3099090D1*
X3192550D2*
X3228776D1*
X3320521D2*
X3371078D1*
X3047408Y1125819D2*
X3097254D1*
X3191881D2*
X3227461D1*
X3322308D2*
X3372764D1*
X3045810Y1122819D2*
X3095567D1*
X3191033D2*
X3226285D1*
X3324241D2*
X3374356D1*
X3044023Y1119819D2*
X3093975D1*
X3190199D2*
X3225232D1*
X3326078D2*
X3375891D1*
X3042090Y1116819D2*
X3092440D1*
X3189549D2*
X3224075D1*
X3327764D2*
X3377408D1*
X3040254Y1113819D2*
X3090923D1*
X3188881D2*
X3222763D1*
X3329356D2*
X3378923D1*
X3038567Y1110819D2*
X3089420D1*
X3188033D2*
X3221355D1*
X3330891D2*
X3380521D1*
X3036975Y1107819D2*
X3087915D1*
X3187199D2*
X3219903D1*
X3332408D2*
X3382308D1*
X3035440Y1104819D2*
X3086405D1*
X3186549D2*
X3218514D1*
X3333911D2*
X3384241D1*
X3033923Y1101819D2*
X3084809D1*
X3185881D2*
X3217306D1*
X3335416D2*
X3386078D1*
X3032420Y1098819D2*
X3083023D1*
X3185021D2*
X3216240D1*
X3336914D2*
X3387764D1*
X3030915Y1095819D2*
X3081090D1*
X3184093D2*
X3215077D1*
X3338417D2*
X3389356D1*
X3029405Y1092819D2*
X3079254D1*
X3183167D2*
X3213764D1*
X3339914D2*
X3390891D1*
X3027809Y1089819D2*
X3077567D1*
X3182163D2*
X3212356D1*
X3341417D2*
X3392408D1*
X3026023Y1086819D2*
X3075975D1*
X3181252D2*
X3210903D1*
X3342926D2*
X3393911D1*
X3024090Y1083819D2*
X3074440D1*
X3180570D2*
X3209514D1*
X3273166D2*
X3276166D1*
X3344522D2*
X3395416D1*
X3022254Y1080819D2*
X3072923D1*
X3179889D2*
X3208306D1*
X3265666D2*
X3275702D1*
X3346308D2*
X3396926D1*
X3020567Y1077819D2*
X3071408D1*
X3179036D2*
X3207240D1*
X3258420D2*
X3274946D1*
X3348241D2*
X3398522D1*
X3018975Y1074819D2*
X3069810D1*
X3178199D2*
X3206077D1*
X3251254D2*
X3274064D1*
X3350078D2*
X3400308D1*
X3017440Y1071819D2*
X3068023D1*
X3177550D2*
X3204776D1*
X3244185D2*
X3273157D1*
X3351764D2*
X3402241D1*
X3015923Y1068819D2*
X3066090D1*
X3176881D2*
X3203461D1*
X3237190D2*
X3272159D1*
X3353356D2*
X3404078D1*
X3014420Y1065819D2*
X3064254D1*
X3176033D2*
X3202276D1*
X3230049D2*
X3271263D1*
X3354891D2*
X3405764D1*
X3012915Y1062819D2*
X3062567D1*
X3175199D2*
X3201151D1*
X3222670D2*
X3270675D1*
X3356408D2*
X3407356D1*
X3011405Y1059819D2*
X3060975D1*
X3174549D2*
X3199775D1*
X3215018D2*
X3270271D1*
X3357923D2*
X3408903D1*
X3009809Y1056819D2*
X3059440D1*
X3173881D2*
X3198166D1*
X3207166D2*
X3269754D1*
X3359521D2*
X3410514D1*
X3008023Y1053819D2*
X3057923D1*
X3173021D2*
X3268980D1*
X3361308D2*
X3412306D1*
X3006090Y1050819D2*
X3056420D1*
X3172093D2*
X3268178D1*
X3363241D2*
X3414240D1*
X3004254Y1047819D2*
X3054915D1*
X3171167D2*
X3267542D1*
X3365078D2*
X3416077D1*
X3002567Y1044819D2*
X3053417D1*
X3170163D2*
X3266879D1*
X3366764D2*
X3417764D1*
X3000975Y1041819D2*
X3051914D1*
X3169252D2*
X3266032D1*
X3368356D2*
X3419356D1*
X2999440Y1038819D2*
X3050405D1*
X3168570D2*
X3265198D1*
X3369891D2*
X3420891D1*
X2997923Y1035819D2*
X3048809D1*
X3167889D2*
X3264549D1*
X3371408D2*
X3422408D1*
X2996408Y1032819D2*
X3047023D1*
X3167036D2*
X3263881D1*
X3372911D2*
X3423911D1*
X2994810Y1029819D2*
X3045090D1*
X3166199D2*
X3263021D1*
X3374416D2*
X3425416D1*
X2993023Y1026819D2*
X3043254D1*
X3165550D2*
X3262093D1*
X3375914D2*
X3426926D1*
X2991090Y1023819D2*
X3041567D1*
X3164881D2*
X3261167D1*
X3377417D2*
X3428522D1*
X2989254Y1020819D2*
X3039975D1*
X3164033D2*
X3224690D1*
X3233702D2*
X3260163D1*
X3378926D2*
X3430308D1*
X2987567Y1017819D2*
X3038440D1*
X3163199D2*
X3217841D1*
X3232958D2*
X3259252D1*
X3380522D2*
X3432241D1*
X2985975Y1014819D2*
X3036923D1*
X3162549D2*
X3210682D1*
X3232170D2*
X3258570D1*
X3382308D2*
X3434078D1*
X2984440Y1011819D2*
X3035420D1*
X3161881D2*
X3203438D1*
X3231539D2*
X3257889D1*
X3384241D2*
X3435764D1*
X2982923Y1008819D2*
X3033915D1*
X3161021D2*
X3196378D1*
X3230878D2*
X3257036D1*
X3386078D2*
X3437356D1*
X2981408Y1005819D2*
X3032405D1*
X3160093D2*
X3189622D1*
X3230032D2*
X3256199D1*
X3387764D2*
X3438891D1*
X2979810Y1002819D2*
X3030809D1*
X3159165D2*
X3182907D1*
X3229198D2*
X3255550D1*
X3389356D2*
X3440408D1*
X2978023Y999819D2*
X3029023D1*
X3158135D2*
X3176015D1*
X3228549D2*
X3254881D1*
X3390891D2*
X3441911D1*
X2976090Y996819D2*
X3027090D1*
X3157107D2*
X3169061D1*
X3227881D2*
X3254033D1*
X3392408D2*
X3443416D1*
X2974254Y993819D2*
X3025254D1*
X3156166D2*
X3162166D1*
X3227021D2*
X3253199D1*
X3393911D2*
X3444926D1*
X2972567Y990819D2*
X3023567D1*
X3226093D2*
X3252549D1*
X3395416D2*
X3446522D1*
X2970975Y987819D2*
X3021975D1*
X3225167D2*
X3251881D1*
X3396926D2*
X3448308D1*
X2969440Y984819D2*
X3020440D1*
X3224151D2*
X3251033D1*
X3398522D2*
X3450241D1*
X2967923Y981819D2*
X3018923D1*
X3223147D2*
X3250199D1*
X3400308D2*
X3452078D1*
X2966408Y978819D2*
X3017420D1*
X3222188D2*
X3249549D1*
X3402241D2*
X3453764D1*
X2964810Y975819D2*
X3015915D1*
X3221170D2*
X3248881D1*
X3404078D2*
X3455356D1*
X2963023Y972819D2*
X3014417D1*
X3220255D2*
X3248033D1*
X3405764D2*
X3456891D1*
X2961090Y969819D2*
X3012914D1*
X3219571D2*
X3247199D1*
X3407356D2*
X3458408D1*
X2959254Y966819D2*
X3011405D1*
X3218889D2*
X3246549D1*
X3408891D2*
X3459923D1*
X2957567Y963819D2*
X3009809D1*
X3218036D2*
X3245881D1*
X3410408D2*
X3461521D1*
X2955975Y960819D2*
X3008023D1*
X3217199D2*
X3245033D1*
X3411911D2*
X3463308D1*
X2954440Y957819D2*
X3006090D1*
X3216550D2*
X3244199D1*
X3413416D2*
X3465241D1*
X2952923Y954819D2*
X3004254D1*
X3215881D2*
X3243549D1*
X3414926D2*
X3467078D1*
X2951420Y951819D2*
X3002567D1*
X3215033D2*
X3242881D1*
X3416522D2*
X3468764D1*
X2949915Y948819D2*
X3000975D1*
X3214199D2*
X3242033D1*
X3418308D2*
X3470356D1*
X2948405Y945819D2*
X2999440D1*
X3213549D2*
X3241199D1*
X3420241D2*
X3471891D1*
X2946809Y942819D2*
X2997923D1*
X3212881D2*
X3240549D1*
X3422078D2*
X3473408D1*
X2945023Y939819D2*
X2996408D1*
X3212033D2*
X3239881D1*
X3423764D2*
X3474923D1*
X2943090Y936819D2*
X2994810D1*
X3211210D2*
X3239033D1*
X3425356D2*
X3476521D1*
X2941254Y933819D2*
X2993023D1*
X3210664D2*
X3238210D1*
X3426891D2*
X3478308D1*
X2939567Y930819D2*
X2991090D1*
X3210363D2*
X3237664D1*
X3428408D2*
X3480241D1*
X2937975Y927819D2*
X2989254D1*
X3192166D2*
X3237363D1*
X3429911D2*
X3482078D1*
X2936440Y924819D2*
X2987567D1*
X3193203D2*
X3249166D1*
X3431416D2*
X3483764D1*
X2934923Y921819D2*
X2985975D1*
X3194201D2*
X3248026D1*
X3432914D2*
X3485356D1*
X2933408Y918819D2*
X2984440D1*
X3195152D2*
X3246737D1*
X3434417D2*
X3486891D1*
X2931810Y915819D2*
X2982923D1*
X3196176D2*
X3245332D1*
X3435926D2*
X3488408D1*
X2930023Y912819D2*
X2981420D1*
X3197183D2*
X3243781D1*
X3437522D2*
X3489923D1*
X2928090Y909819D2*
X2979915D1*
X3198143D2*
X3242012D1*
X3439308D2*
X3491521D1*
X2926254Y906819D2*
X2978417D1*
X3199172D2*
X3240075D1*
X3441241D2*
X3493308D1*
X2924567Y903819D2*
X2976914D1*
X3200182D2*
X3238147D1*
X3443078D2*
X3495241D1*
X2922975Y900819D2*
X2975417D1*
X3201143D2*
X3236173D1*
X3444764D2*
X3497078D1*
X2921440Y897819D2*
X2973914D1*
X3202172D2*
X3234140D1*
X3446356D2*
X3498764D1*
X2919923Y894819D2*
X2972405D1*
X3203182D2*
X3232171D1*
X3447891D2*
X3500356D1*
X2918408Y891819D2*
X2970809D1*
X3204143D2*
X3230181D1*
X3449408D2*
X3501891D1*
X2916810Y888819D2*
X2969023D1*
X3205172D2*
X3228154D1*
X3450911D2*
X3503408D1*
X2915023Y885819D2*
X2967090D1*
X3206182D2*
X3226278D1*
X3452416D2*
X3504911D1*
X2913090Y882819D2*
X2965254D1*
X3207143D2*
X3224564D1*
X3453926D2*
X3506416D1*
X2911254Y879819D2*
X2963567D1*
X3208172D2*
X3222873D1*
X3455522D2*
X3507926D1*
X2909567Y876819D2*
X2961975D1*
X3209182D2*
X3221047D1*
X3457308D2*
X3509522D1*
X2907975Y873819D2*
X2960428D1*
X3210145D2*
X3219090D1*
X3459241D2*
X3511308D1*
X2906440Y870819D2*
X2958817D1*
X3211189D2*
X3217168D1*
X3461078D2*
X3513241D1*
X2904923Y867819D2*
X2957026D1*
X3212222D2*
X3215215D1*
X3462764D2*
X3515078D1*
X2903420Y864819D2*
X2955091D1*
X3213166D2*
D3*
X3464356D2*
X3516764D1*
X2901915Y861819D2*
X2953254D1*
X3465891D2*
X3518356D1*
X2900405Y858819D2*
X2951567D1*
X3467408D2*
X3519891D1*
X2898809Y855819D2*
X2949987D1*
X3468923D2*
X3521408D1*
X2897023Y852819D2*
X2948557D1*
X3470532D2*
X3522911D1*
X2895090Y849819D2*
X2947425D1*
X3472416D2*
X3524416D1*
X2893254Y846819D2*
X2946695D1*
X3474692D2*
X3525926D1*
X2891567Y843819D2*
X3527522D1*
X2889975Y840819D2*
X3529308D1*
X2888440Y837819D2*
X3531241D1*
X2886923Y834819D2*
X3533066D1*
X2885420Y831819D2*
X3534647D1*
X2883927Y828819D2*
X3535845D1*
X2882534Y825819D2*
X3536556D1*
X2881426Y822819D2*
X3536910D1*
X2880752Y819819D2*
X3537066D1*
X2880413Y816819D2*
X3537129D1*
X2880262Y813819D2*
X3537153D1*
X2880201Y810819D2*
X3537161D1*
X2880190Y807819D2*
X3537164D1*
X2880296Y804819D2*
X3537165D1*
X2880757Y801819D2*
X3537165D1*
X2881781Y798819D2*
X3537166D1*
X2883166Y795819D2*
X3537166D1*
X733544Y1370229D2*
X757544D1*
X730658Y1367229D2*
X760080D1*
X728054Y1364229D2*
X762324D1*
X725879Y1361229D2*
X764442D1*
X724042Y1358229D2*
X766523D1*
X722389Y1355229D2*
X768420D1*
X720819Y1352229D2*
X770141D1*
X719200Y1349229D2*
X771835D1*
X717405Y1346229D2*
X773662D1*
X715470Y1343229D2*
X775610D1*
X713632Y1340229D2*
X777452D1*
X711934Y1337229D2*
X779153D1*
X710248Y1334229D2*
X780839D1*
X708424Y1331229D2*
X782663D1*
X706477Y1328229D2*
X784610D1*
X704634Y1325229D2*
X786453D1*
X702934Y1322229D2*
X788153D1*
X701248Y1319229D2*
X789839D1*
X699424Y1316229D2*
X791663D1*
X697465Y1313229D2*
X793610D1*
X695529Y1310229D2*
X795453D1*
X693552Y1307229D2*
X742068D1*
X749019D2*
X797141D1*
X691530Y1304229D2*
X741207D1*
X749868D2*
X798733D1*
X689655Y1301229D2*
X739943D1*
X751039D2*
X800281D1*
X687954Y1298229D2*
X738305D1*
X752400D2*
X801892D1*
X686356Y1295229D2*
X736433D1*
X753936D2*
X803683D1*
X684807Y1292229D2*
X734619D1*
X755699D2*
X805618D1*
X683196Y1289229D2*
X732929D1*
X757623D2*
X807455D1*
X681404Y1286229D2*
X731246D1*
X759457D2*
X809154D1*
X679469Y1283229D2*
X729423D1*
X761142D2*
X810839D1*
X677632Y1280229D2*
X727477D1*
X762734D2*
X812663D1*
X675945Y1277229D2*
X725634D1*
X764281D2*
X814610D1*
X674353Y1274229D2*
X723946D1*
X765892D2*
X816453D1*
X672806Y1271229D2*
X722354D1*
X767683D2*
X818153D1*
X671195Y1268229D2*
X720806D1*
X769618D2*
X819839D1*
X669404Y1265229D2*
X719195D1*
X771455D2*
X821663D1*
X667458Y1262229D2*
X717404D1*
X773154D2*
X823610D1*
X665526Y1259229D2*
X715469D1*
X774839D2*
X825453D1*
X663551Y1256229D2*
X713632D1*
X776663D2*
X827141D1*
X661529Y1253229D2*
X711934D1*
X778610D2*
X828733D1*
X659655Y1250229D2*
X710248D1*
X780453D2*
X830281D1*
X657942Y1247229D2*
X708424D1*
X782141D2*
X831892D1*
X656251Y1244229D2*
X706477D1*
X783733D2*
X833683D1*
X654425Y1241229D2*
X704634D1*
X785281D2*
X835618D1*
X652477Y1238229D2*
X702946D1*
X786892D2*
X837455D1*
X650634Y1235229D2*
X701354D1*
X788683D2*
X839154D1*
X648946Y1232229D2*
X699818D1*
X790618D2*
X840839D1*
X647354Y1229229D2*
X698301D1*
X792455D2*
X842663D1*
X645806Y1226229D2*
X696786D1*
X794154D2*
X844610D1*
X644195Y1223229D2*
X695188D1*
X795839D2*
X846453D1*
X642404Y1220229D2*
X693401D1*
X797663D2*
X848153D1*
X640469Y1217229D2*
X691468D1*
X799610D2*
X849839D1*
X638632Y1214229D2*
X689632D1*
X801453D2*
X851663D1*
X636945Y1211229D2*
X687933D1*
X803141D2*
X853610D1*
X635353Y1208229D2*
X686248D1*
X804733D2*
X855453D1*
X633806Y1205229D2*
X684424D1*
X806281D2*
X857153D1*
X632195Y1202229D2*
X682465D1*
X807892D2*
X858839D1*
X630404Y1199229D2*
X680529D1*
X809683D2*
X860663D1*
X628458Y1196229D2*
X678552D1*
X811618D2*
X862610D1*
X626526Y1193229D2*
X676530D1*
X813455D2*
X864453D1*
X624551Y1190229D2*
X674655D1*
X815154D2*
X866153D1*
X622529Y1187229D2*
X672954D1*
X816839D2*
X867839D1*
X620655Y1184229D2*
X671356D1*
X818663D2*
X869663D1*
X618942Y1181229D2*
X669807D1*
X820610D2*
X871610D1*
X617251Y1178229D2*
X668196D1*
X822453D2*
X873453D1*
X615425Y1175229D2*
X666404D1*
X824141D2*
X875153D1*
X613477Y1172229D2*
X664469D1*
X825733D2*
X876839D1*
X611634Y1169229D2*
X662632D1*
X742544D2*
X787544D1*
X827281D2*
X878663D1*
X609934Y1166229D2*
X660945D1*
X742080D2*
X787068D1*
X828892D2*
X880610D1*
X608248Y1163229D2*
X659353D1*
X741336D2*
X786219D1*
X830683D2*
X882453D1*
X606424Y1160229D2*
X657806D1*
X740548D2*
X785048D1*
X832618D2*
X884141D1*
X604477Y1157229D2*
X656195D1*
X739917D2*
X783699D1*
X834455D2*
X885733D1*
X602634Y1154229D2*
X654404D1*
X739256D2*
X782257D1*
X836154D2*
X887281D1*
X600946Y1151229D2*
X652469D1*
X738398D2*
X780782D1*
X837839D2*
X888892D1*
X599354Y1148229D2*
X650632D1*
X737471D2*
X779288D1*
X839663D2*
X890683D1*
X597806Y1145229D2*
X648934D1*
X736545D2*
X777793D1*
X841610D2*
X892618D1*
X596195Y1142229D2*
X647248D1*
X735541D2*
X776304D1*
X843453D2*
X894455D1*
X594404Y1139229D2*
X645424D1*
X734630D2*
X774900D1*
X845141D2*
X896154D1*
X592469Y1136229D2*
X643477D1*
X733948D2*
X773686D1*
X846733D2*
X897839D1*
X590632Y1133229D2*
X641634D1*
X733267D2*
X772619D1*
X848281D2*
X899663D1*
X588934Y1130229D2*
X639946D1*
X732402D2*
X771456D1*
X849892D2*
X901622D1*
X587248Y1127229D2*
X638354D1*
X731472D2*
X770142D1*
X851683D2*
X903558D1*
X585424Y1124229D2*
X636806D1*
X730545D2*
X768734D1*
X853618D2*
X905535D1*
X583477Y1121229D2*
X635195D1*
X729529D2*
X767281D1*
X855455D2*
X907557D1*
X581634Y1118229D2*
X633404D1*
X728525D2*
X765892D1*
X857154D2*
X909432D1*
X579934Y1115229D2*
X631469D1*
X727566D2*
X764683D1*
X858839D2*
X911134D1*
X578248Y1112229D2*
X629632D1*
X726548D2*
X763618D1*
X860663D2*
X912731D1*
X576424Y1109229D2*
X627934D1*
X725633D2*
X762455D1*
X862610D2*
X914280D1*
X574477Y1106229D2*
X626248D1*
X724949D2*
X761142D1*
X864453D2*
X915892D1*
X572634Y1103229D2*
X624424D1*
X724267D2*
X759734D1*
X866141D2*
X917683D1*
X570934Y1100229D2*
X622477D1*
X723402D2*
X758269D1*
X867733D2*
X919618D1*
X569248Y1097229D2*
X620634D1*
X722472D2*
X756786D1*
X869281D2*
X921455D1*
X567424Y1094229D2*
X618934D1*
X721545D2*
X755289D1*
X870892D2*
X923142D1*
X565477Y1091229D2*
X617248D1*
X720541D2*
X753794D1*
X872683D2*
X924734D1*
X563634Y1088229D2*
X615424D1*
X719630D2*
X752304D1*
X874618D2*
X926281D1*
X561934Y1085229D2*
X613477D1*
X718948D2*
X750900D1*
X876455D2*
X927892D1*
X560248Y1082229D2*
X611634D1*
X718267D2*
X749686D1*
X878154D2*
X929683D1*
X558424Y1079229D2*
X609946D1*
X717402D2*
X748619D1*
X879839D2*
X931618D1*
X556477Y1076229D2*
X608354D1*
X716472D2*
X747456D1*
X881663D2*
X933455D1*
X554634Y1073229D2*
X606806D1*
X715545D2*
X746142D1*
X811544D2*
X814544D1*
X883610D2*
X935154D1*
X552946Y1070229D2*
X605195D1*
X714541D2*
X744734D1*
X804043D2*
X813147D1*
X885453D2*
X936839D1*
X551354Y1067229D2*
X603404D1*
X713630D2*
X743281D1*
X796300D2*
X812180D1*
X887153D2*
X938663D1*
X549806Y1064229D2*
X601469D1*
X712948D2*
X741892D1*
X788561D2*
X811362D1*
X888839D2*
X940622D1*
X548195Y1061229D2*
X599632D1*
X712267D2*
X740672D1*
X780918D2*
X810450D1*
X890663D2*
X942558D1*
X546404Y1058229D2*
X597945D1*
X711402D2*
X739512D1*
X773343D2*
X809591D1*
X892610D2*
X944535D1*
X544469Y1055229D2*
X596353D1*
X710472D2*
X738070D1*
X765805D2*
X808932D1*
X894453D2*
X946557D1*
X542632Y1052229D2*
X594806D1*
X709545D2*
X736399D1*
X758212D2*
X808261D1*
X896141D2*
X948432D1*
X540934Y1049229D2*
X593195D1*
X708529D2*
X734875D1*
X750457D2*
X807411D1*
X897733D2*
X950134D1*
X539248Y1046229D2*
X591404D1*
X707525D2*
X733544D1*
X742544D2*
X806577D1*
X899281D2*
X951731D1*
X537424Y1043229D2*
X589469D1*
X706566D2*
X805927D1*
X900892D2*
X953280D1*
X535477Y1040229D2*
X587632D1*
X705548D2*
X805259D1*
X902683D2*
X954892D1*
X533634Y1037229D2*
X585934D1*
X704633D2*
X804399D1*
X904618D2*
X956683D1*
X531934Y1034229D2*
X584248D1*
X703949D2*
X803471D1*
X906455D2*
X958618D1*
X530248Y1031229D2*
X582424D1*
X703267D2*
X802545D1*
X908142D2*
X960455D1*
X528424Y1028229D2*
X580477D1*
X702414D2*
X801529D1*
X909734D2*
X962154D1*
X526477Y1025229D2*
X578634D1*
X701577D2*
X800525D1*
X911281D2*
X963839D1*
X524634Y1022229D2*
X576946D1*
X700928D2*
X799566D1*
X912892D2*
X965663D1*
X522946Y1019229D2*
X575354D1*
X700259D2*
X798548D1*
X914683D2*
X967610D1*
X521354Y1016229D2*
X573806D1*
X699399D2*
X797644D1*
X916618D2*
X969453D1*
X519806Y1013229D2*
X572195D1*
X698471D2*
X763068D1*
X769429D2*
X797054D1*
X918455D2*
X971141D1*
X518195Y1010229D2*
X570404D1*
X697545D2*
X756219D1*
X769045D2*
X796649D1*
X920154D2*
X972733D1*
X516404Y1007229D2*
X568469D1*
X696541D2*
X749048D1*
X768326D2*
X796132D1*
X921839D2*
X974281D1*
X514469Y1004229D2*
X566632D1*
X695630D2*
X741699D1*
X767545D2*
X795347D1*
X923663D2*
X975892D1*
X512632Y1001229D2*
X564934D1*
X694948D2*
X734257D1*
X766916D2*
X794451D1*
X925610D2*
X977683D1*
X510934Y998229D2*
X563248D1*
X694267D2*
X726770D1*
X766255D2*
X793538D1*
X927453D2*
X979629D1*
X509248Y995229D2*
X561424D1*
X693413D2*
X719171D1*
X765398D2*
X792538D1*
X929141D2*
X981561D1*
X507424Y992229D2*
X559477D1*
X692581D2*
X711291D1*
X764471D2*
X791629D1*
X930733D2*
X983536D1*
X505477Y989229D2*
X557634D1*
X691991D2*
X703017D1*
X763545D2*
X790948D1*
X932281D2*
X985558D1*
X503634Y986229D2*
X555934D1*
X691544D2*
X694544D1*
X762529D2*
X790267D1*
X933892D2*
X987432D1*
X501934Y983229D2*
X554248D1*
X761525D2*
X789414D1*
X935683D2*
X989145D1*
X500248Y980229D2*
X552424D1*
X760566D2*
X788577D1*
X937618D2*
X990836D1*
X498424Y977229D2*
X550477D1*
X759548D2*
X787928D1*
X939455D2*
X992662D1*
X496465Y974229D2*
X548634D1*
X758633D2*
X787259D1*
X941154D2*
X994610D1*
X494529Y971229D2*
X546946D1*
X757949D2*
X786399D1*
X942839D2*
X996453D1*
X492552Y968229D2*
X545354D1*
X757267D2*
X785471D1*
X944663D2*
X998153D1*
X490530Y965229D2*
X543806D1*
X756402D2*
X784545D1*
X946610D2*
X999839D1*
X488655Y962229D2*
X542195D1*
X755472D2*
X783541D1*
X948453D2*
X1001663D1*
X486954Y959229D2*
X540404D1*
X754545D2*
X782630D1*
X950153D2*
X1003610D1*
X485356Y956229D2*
X538469D1*
X753529D2*
X781948D1*
X951839D2*
X1005453D1*
X483807Y953229D2*
X536632D1*
X752525D2*
X781267D1*
X953663D2*
X1007141D1*
X482196Y950229D2*
X534945D1*
X751566D2*
X780402D1*
X955610D2*
X1008733D1*
X480404Y947229D2*
X533353D1*
X750548D2*
X779472D1*
X957453D2*
X1010281D1*
X478469Y944229D2*
X531806D1*
X749633D2*
X778545D1*
X959141D2*
X1011892D1*
X476632Y941229D2*
X530195D1*
X748949D2*
X777541D1*
X960733D2*
X1013683D1*
X474934Y938229D2*
X528404D1*
X748267D2*
X776630D1*
X962281D2*
X1015618D1*
X473248Y935229D2*
X526458D1*
X747414D2*
X775948D1*
X963892D2*
X1017455D1*
X471424Y932229D2*
X524526D1*
X746589D2*
X775267D1*
X965683D2*
X1019154D1*
X469477Y929229D2*
X522551D1*
X746042D2*
X774413D1*
X967618D2*
X1020839D1*
X467634Y926229D2*
X520529D1*
X745741D2*
X773581D1*
X969455D2*
X1022663D1*
X465946Y923229D2*
X518655D1*
X727544D2*
X772991D1*
X971142D2*
X1024610D1*
X464354Y920229D2*
X516953D1*
X728019D2*
X787544D1*
X972734D2*
X1026453D1*
X462806Y917229D2*
X515356D1*
X728868D2*
X785940D1*
X974281D2*
X1028153D1*
X461195Y914229D2*
X513819D1*
X730027D2*
X783907D1*
X975892D2*
X1029839D1*
X459404Y911229D2*
X512301D1*
X731283D2*
X781725D1*
X977683D2*
X1031663D1*
X457458Y908229D2*
X510786D1*
X732436D2*
X779649D1*
X979618D2*
X1033610D1*
X455526Y905229D2*
X509188D1*
X733469D2*
X777602D1*
X981455D2*
X1035453D1*
X453551Y902229D2*
X507401D1*
X734530D2*
X775537D1*
X983154D2*
X1037153D1*
X451529Y899229D2*
X505468D1*
X735553D2*
X773556D1*
X984839D2*
X1038839D1*
X449655Y896229D2*
X503632D1*
X736518D2*
X771562D1*
X986663D2*
X1040663D1*
X447942Y893229D2*
X501933D1*
X737549D2*
X769521D1*
X988610D2*
X1042610D1*
X446251Y890229D2*
X500248D1*
X738559D2*
X767539D1*
X990453D2*
X1044453D1*
X444425Y887229D2*
X498424D1*
X739521D2*
X765454D1*
X992141D2*
X1046141D1*
X442477Y884229D2*
X496477D1*
X740550D2*
X763138D1*
X993733D2*
X1047733D1*
X440634Y881229D2*
X494634D1*
X741560D2*
X760820D1*
X995281D2*
X1049281D1*
X438946Y878229D2*
X492934D1*
X742532D2*
X758685D1*
X996892D2*
X1050892D1*
X437354Y875229D2*
X491248D1*
X743656D2*
X756615D1*
X998683D2*
X1052683D1*
X435806Y872229D2*
X489424D1*
X744944D2*
X754544D1*
X1000618D2*
X1054618D1*
X434195Y869229D2*
X487477D1*
X746269D2*
X752574D1*
X1002455D2*
X1056455D1*
X432404Y866229D2*
X485634D1*
X747477D2*
X750602D1*
X1004154D2*
X1058154D1*
X430469Y863229D2*
X483946D1*
X748544D2*
D3*
X1005839D2*
X1059839D1*
X428632Y860229D2*
X482354D1*
X1007663D2*
X1061663D1*
X426945Y857229D2*
X480806D1*
X1009610D2*
X1063610D1*
X425353Y854229D2*
X479184D1*
X1011441D2*
X1065453D1*
X423806Y851229D2*
X477287D1*
X1013024D2*
X1067153D1*
X422195Y848229D2*
X474961D1*
X1014231D2*
X1068839D1*
X420404Y845229D2*
X472317D1*
X1014995D2*
X1070663D1*
X418458Y842229D2*
X1072610D1*
X416526Y839229D2*
X1074453D1*
X414551Y836229D2*
X1076141D1*
X412529Y833229D2*
X1077722D1*
X410666Y830229D2*
X1079152D1*
X409071Y827229D2*
X1080275D1*
X407867Y824229D2*
X1080954D1*
X407154Y821229D2*
X1081295D1*
X406799Y818229D2*
X1081446D1*
X406643Y815229D2*
X1081508D1*
X406580Y812229D2*
X1081531D1*
X406568Y809229D2*
X1081539D1*
X406674Y806229D2*
X1081542D1*
X407135Y803229D2*
X1081543D1*
X408159Y800229D2*
X1081543D1*
X409544Y797229D2*
X1081544D1*
X3198166Y1395819D2*
X3195641Y1392819D1*
X3193490Y1389819D1*
X3191661Y1386819D1*
X3190010Y1383819D1*
X3188441Y1380819D1*
X3186822Y1377819D1*
X3185027Y1374819D1*
X3183092Y1371819D1*
X3181254Y1368819D1*
X3179567Y1365819D1*
X3177975Y1362819D1*
X3176440Y1359819D1*
X3174923Y1356819D1*
X3173408Y1353819D1*
X3171810Y1350819D1*
X3170023Y1347819D1*
X3168090Y1344819D1*
X3166254Y1341819D1*
X3164567Y1338819D1*
X3162975Y1335819D1*
X3161440Y1332819D1*
X3159923Y1329819D1*
X3158420Y1326819D1*
X3156915Y1323819D1*
X3155405Y1320819D1*
X3153809Y1317819D1*
X3152023Y1314819D1*
X3150090Y1311819D1*
X3148254Y1308819D1*
X3146567Y1305819D1*
X3144975Y1302819D1*
X3143440Y1299819D1*
X3141923Y1296819D1*
X3140420Y1293819D1*
X3138915Y1290819D1*
X3137405Y1287819D1*
X3135809Y1284819D1*
X3134023Y1281819D1*
X3132090Y1278819D1*
X3130254Y1275819D1*
X3128567Y1272819D1*
X3126975Y1269819D1*
X3125428Y1266819D1*
X3123817Y1263819D1*
X3122026Y1260819D1*
X3120091Y1257819D1*
X3118254Y1254819D1*
X3116567Y1251819D1*
X3114975Y1248819D1*
X3113440Y1245819D1*
X3111923Y1242819D1*
X3110408Y1239819D1*
X3108810Y1236819D1*
X3107023Y1233819D1*
X3105090Y1230819D1*
X3103254Y1227819D1*
X3101567Y1224819D1*
X3099975Y1221819D1*
X3098440Y1218819D1*
X3096923Y1215819D1*
X3095420Y1212819D1*
X3093915Y1209819D1*
X3092405Y1206819D1*
X3090809Y1203819D1*
X3089023Y1200819D1*
X3087090Y1197819D1*
X3085254Y1194819D1*
X3083567Y1191819D1*
X3081975Y1188819D1*
X3080440Y1185819D1*
X3078923Y1182819D1*
X3077420Y1179819D1*
X3075915Y1176819D1*
X3074405Y1173819D1*
X3072809Y1170819D1*
X3071023Y1167819D1*
X3069090Y1164819D1*
X3067254Y1161819D1*
X3065567Y1158819D1*
X3063975Y1155819D1*
X3062428Y1152819D1*
X3060817Y1149819D1*
X3059026Y1146819D1*
X3057091Y1143819D1*
X3055254Y1140819D1*
X3053567Y1137819D1*
X3051975Y1134819D1*
X3050440Y1131819D1*
X3048923Y1128819D1*
X3047408Y1125819D1*
X3045810Y1122819D1*
X3044023Y1119819D1*
X3042090Y1116819D1*
X3040254Y1113819D1*
X3038567Y1110819D1*
X3036975Y1107819D1*
X3035440Y1104819D1*
X3033923Y1101819D1*
X3032420Y1098819D1*
X3030915Y1095819D1*
X3029405Y1092819D1*
X3027809Y1089819D1*
X3026023Y1086819D1*
X3024090Y1083819D1*
X3022254Y1080819D1*
X3020567Y1077819D1*
X3018975Y1074819D1*
X3017440Y1071819D1*
X3015923Y1068819D1*
X3014420Y1065819D1*
X3012915Y1062819D1*
X3011405Y1059819D1*
X3009809Y1056819D1*
X3008023Y1053819D1*
X3006090Y1050819D1*
X3004254Y1047819D1*
X3002567Y1044819D1*
X3000975Y1041819D1*
X2999440Y1038819D1*
X2997923Y1035819D1*
X2996408Y1032819D1*
X2994810Y1029819D1*
X2993023Y1026819D1*
X2991090Y1023819D1*
X2989254Y1020819D1*
X2987567Y1017819D1*
X2985975Y1014819D1*
X2984440Y1011819D1*
X2982923Y1008819D1*
X2981408Y1005819D1*
X2979810Y1002819D1*
X2978023Y999819D1*
X2976090Y996819D1*
X2974254Y993819D1*
X2972567Y990819D1*
X2970975Y987819D1*
X2969440Y984819D1*
X2967923Y981819D1*
X2966408Y978819D1*
X2964810Y975819D1*
X2963023Y972819D1*
X2961090Y969819D1*
X2959254Y966819D1*
X2957567Y963819D1*
X2955975Y960819D1*
X2954440Y957819D1*
X2952923Y954819D1*
X2951420Y951819D1*
X2949915Y948819D1*
X2948405Y945819D1*
X2946809Y942819D1*
X2945023Y939819D1*
X2943090Y936819D1*
X2941254Y933819D1*
X2939567Y930819D1*
X2937975Y927819D1*
X2936440Y924819D1*
X2934923Y921819D1*
X2933408Y918819D1*
X2931810Y915819D1*
X2930023Y912819D1*
X2928090Y909819D1*
X2926254Y906819D1*
X2924567Y903819D1*
X2922975Y900819D1*
X2921440Y897819D1*
X2919923Y894819D1*
X2918408Y891819D1*
X2916810Y888819D1*
X2915023Y885819D1*
X2913090Y882819D1*
X2911254Y879819D1*
X2909567Y876819D1*
X2907975Y873819D1*
X2906440Y870819D1*
X2904923Y867819D1*
X2903420Y864819D1*
X2901915Y861819D1*
X2900405Y858819D1*
X2898809Y855819D1*
X2897023Y852819D1*
X2895090Y849819D1*
X2893254Y846819D1*
X2891567Y843819D1*
X2889975Y840819D1*
X2888440Y837819D1*
X2886923Y834819D1*
X2885420Y831819D1*
X2883927Y828819D1*
X2882534Y825819D1*
X2881426Y822819D1*
X2880752Y819819D1*
X2880413Y816819D1*
X2880262Y813819D1*
X2880201Y810819D1*
X2880190Y807819D1*
X2880296Y804819D1*
X2880757Y801819D1*
X2881781Y798819D1*
X2883166Y795819D1*
X3222166Y1395819D2*
X3224690Y1392819D1*
X3226841Y1389819D1*
X3228670Y1386819D1*
X3230321Y1383819D1*
X3231879Y1380819D1*
X3233404Y1377819D1*
X3234922Y1374819D1*
X3236521Y1371819D1*
X3238308Y1368819D1*
X3240241Y1365819D1*
X3242078Y1362819D1*
X3243764Y1359819D1*
X3245356Y1356819D1*
X3246891Y1353819D1*
X3248408Y1350819D1*
X3249911Y1347819D1*
X3251416Y1344819D1*
X3252926Y1341819D1*
X3254522Y1338819D1*
X3256308Y1335819D1*
X3258241Y1332819D1*
X3260078Y1329819D1*
X3261764Y1326819D1*
X3263356Y1323819D1*
X3264891Y1320819D1*
X3266408Y1317819D1*
X3267923Y1314819D1*
X3269521Y1311819D1*
X3271308Y1308819D1*
X3273241Y1305819D1*
X3275078Y1302819D1*
X3276764Y1299819D1*
X3278356Y1296819D1*
X3279891Y1293819D1*
X3281408Y1290819D1*
X3282923Y1287819D1*
X3284521Y1284819D1*
X3286308Y1281819D1*
X3288241Y1278819D1*
X3290078Y1275819D1*
X3291764Y1272819D1*
X3293356Y1269819D1*
X3294891Y1266819D1*
X3296408Y1263819D1*
X3297923Y1260819D1*
X3299521Y1257819D1*
X3301308Y1254819D1*
X3303241Y1251819D1*
X3305078Y1248819D1*
X3306764Y1245819D1*
X3308356Y1242819D1*
X3309891Y1239819D1*
X3311408Y1236819D1*
X3312911Y1233819D1*
X3314416Y1230819D1*
X3315926Y1227819D1*
X3317522Y1224819D1*
X3319308Y1221819D1*
X3321241Y1218819D1*
X3323078Y1215819D1*
X3324764Y1212819D1*
X3326356Y1209819D1*
X3327891Y1206819D1*
X3329408Y1203819D1*
X3330911Y1200819D1*
X3332416Y1197819D1*
X3333926Y1194819D1*
X3335522Y1191819D1*
X3337308Y1188819D1*
X3339241Y1185819D1*
X3341078Y1182819D1*
X3342764Y1179819D1*
X3344356Y1176819D1*
X3345903Y1173819D1*
X3347514Y1170819D1*
X3349306Y1167819D1*
X3351240Y1164819D1*
X3353077Y1161819D1*
X3354764Y1158819D1*
X3356356Y1155819D1*
X3357891Y1152819D1*
X3359408Y1149819D1*
X3360911Y1146819D1*
X3362416Y1143819D1*
X3363926Y1140819D1*
X3365522Y1137819D1*
X3367308Y1134819D1*
X3369241Y1131819D1*
X3371078Y1128819D1*
X3372764Y1125819D1*
X3374356Y1122819D1*
X3375891Y1119819D1*
X3377408Y1116819D1*
X3378923Y1113819D1*
X3380521Y1110819D1*
X3382308Y1107819D1*
X3384241Y1104819D1*
X3386078Y1101819D1*
X3387764Y1098819D1*
X3389356Y1095819D1*
X3390891Y1092819D1*
X3392408Y1089819D1*
X3393911Y1086819D1*
X3395416Y1083819D1*
X3396926Y1080819D1*
X3398522Y1077819D1*
X3400308Y1074819D1*
X3402241Y1071819D1*
X3404078Y1068819D1*
X3405764Y1065819D1*
X3407356Y1062819D1*
X3408903Y1059819D1*
X3410514Y1056819D1*
X3412306Y1053819D1*
X3414240Y1050819D1*
X3416077Y1047819D1*
X3417764Y1044819D1*
X3419356Y1041819D1*
X3420891Y1038819D1*
X3422408Y1035819D1*
X3423911Y1032819D1*
X3425416Y1029819D1*
X3426926Y1026819D1*
X3428522Y1023819D1*
X3430308Y1020819D1*
X3432241Y1017819D1*
X3434078Y1014819D1*
X3435764Y1011819D1*
X3437356Y1008819D1*
X3438891Y1005819D1*
X3440408Y1002819D1*
X3441911Y999819D1*
X3443416Y996819D1*
X3444926Y993819D1*
X3446522Y990819D1*
X3448308Y987819D1*
X3450241Y984819D1*
X3452078Y981819D1*
X3453764Y978819D1*
X3455356Y975819D1*
X3456891Y972819D1*
X3458408Y969819D1*
X3459923Y966819D1*
X3461521Y963819D1*
X3463308Y960819D1*
X3465241Y957819D1*
X3467078Y954819D1*
X3468764Y951819D1*
X3470356Y948819D1*
X3471891Y945819D1*
X3473408Y942819D1*
X3474923Y939819D1*
X3476521Y936819D1*
X3478308Y933819D1*
X3480241Y930819D1*
X3482078Y927819D1*
X3483764Y924819D1*
X3485356Y921819D1*
X3486891Y918819D1*
X3488408Y915819D1*
X3489923Y912819D1*
X3491521Y909819D1*
X3493308Y906819D1*
X3495241Y903819D1*
X3497078Y900819D1*
X3498764Y897819D1*
X3500356Y894819D1*
X3501891Y891819D1*
X3503408Y888819D1*
X3504911Y885819D1*
X3506416Y882819D1*
X3507926Y879819D1*
X3509522Y876819D1*
X3511308Y873819D1*
X3513241Y870819D1*
X3515078Y867819D1*
X3516764Y864819D1*
X3518356Y861819D1*
X3519891Y858819D1*
X3521408Y855819D1*
X3522911Y852819D1*
X3524416Y849819D1*
X3525926Y846819D1*
X3527522Y843819D1*
X3529308Y840819D1*
X3531241Y837819D1*
X3533066Y834819D1*
X3534647Y831819D1*
X3535845Y828819D1*
X3536556Y825819D1*
X3536910Y822819D1*
X3537066Y819819D1*
X3537129Y816819D1*
X3537153Y813819D1*
X3537161Y810819D1*
X3537164Y807819D1*
X3537165Y804819D1*
Y801819D1*
X3537166Y798819D1*
Y795819D1*
X3207166Y1332819D2*
X3206690Y1329819D1*
X3205841Y1326819D1*
X3204670Y1323819D1*
X3203309Y1320819D1*
X3201773Y1317819D1*
X3200010Y1314819D1*
X3198086Y1311819D1*
X3196252Y1308819D1*
X3194567Y1305819D1*
X3192975Y1302819D1*
X3191440Y1299819D1*
X3189923Y1296819D1*
X3188420Y1293819D1*
X3186915Y1290819D1*
X3185417Y1287819D1*
X3183914Y1284819D1*
X3182417Y1281819D1*
X3180914Y1278819D1*
X3179405Y1275819D1*
X3177809Y1272819D1*
X3176023Y1269819D1*
X3174090Y1266819D1*
X3172254Y1263819D1*
X3170567Y1260819D1*
X3168975Y1257819D1*
X3167440Y1254819D1*
X3165923Y1251819D1*
X3164408Y1248819D1*
X3162810Y1245819D1*
X3161023Y1242819D1*
X3159090Y1239819D1*
X3157254Y1236819D1*
X3155567Y1233819D1*
X3153975Y1230819D1*
X3152440Y1227819D1*
X3150923Y1224819D1*
X3149420Y1221819D1*
X3147915Y1218819D1*
X3146417Y1215819D1*
X3144914Y1212819D1*
X3143417Y1209819D1*
X3141914Y1206819D1*
X3140405Y1203819D1*
X3138809Y1200819D1*
X3137023Y1197819D1*
X3135090Y1194819D1*
X3133254Y1191819D1*
X3131567Y1188819D1*
X3129975Y1185819D1*
X3128440Y1182819D1*
X3126923Y1179819D1*
X3125408Y1176819D1*
X3123810Y1173819D1*
X3122023Y1170819D1*
X3120090Y1167819D1*
X3118254Y1164819D1*
X3116567Y1161819D1*
X3114975Y1158819D1*
X3113440Y1155819D1*
X3111923Y1152819D1*
X3110420Y1149819D1*
X3108915Y1146819D1*
X3107417Y1143819D1*
X3105914Y1140819D1*
X3104405Y1137819D1*
X3102809Y1134819D1*
X3101023Y1131819D1*
X3099090Y1128819D1*
X3097254Y1125819D1*
X3095567Y1122819D1*
X3093975Y1119819D1*
X3092440Y1116819D1*
X3090923Y1113819D1*
X3089420Y1110819D1*
X3087915Y1107819D1*
X3086405Y1104819D1*
X3084809Y1101819D1*
X3083023Y1098819D1*
X3081090Y1095819D1*
X3079254Y1092819D1*
X3077567Y1089819D1*
X3075975Y1086819D1*
X3074440Y1083819D1*
X3072923Y1080819D1*
X3071408Y1077819D1*
X3069810Y1074819D1*
X3068023Y1071819D1*
X3066090Y1068819D1*
X3064254Y1065819D1*
X3062567Y1062819D1*
X3060975Y1059819D1*
X3059440Y1056819D1*
X3057923Y1053819D1*
X3056420Y1050819D1*
X3054915Y1047819D1*
X3053417Y1044819D1*
X3051914Y1041819D1*
X3050405Y1038819D1*
X3048809Y1035819D1*
X3047023Y1032819D1*
X3045090Y1029819D1*
X3043254Y1026819D1*
X3041567Y1023819D1*
X3039975Y1020819D1*
X3038440Y1017819D1*
X3036923Y1014819D1*
X3035420Y1011819D1*
X3033915Y1008819D1*
X3032405Y1005819D1*
X3030809Y1002819D1*
X3029023Y999819D1*
X3027090Y996819D1*
X3025254Y993819D1*
X3023567Y990819D1*
X3021975Y987819D1*
X3020440Y984819D1*
X3018923Y981819D1*
X3017420Y978819D1*
X3015915Y975819D1*
X3014417Y972819D1*
X3012914Y969819D1*
X3011405Y966819D1*
X3009809Y963819D1*
X3008023Y960819D1*
X3006090Y957819D1*
X3004254Y954819D1*
X3002567Y951819D1*
X3000975Y948819D1*
X2999440Y945819D1*
X2997923Y942819D1*
X2996408Y939819D1*
X2994810Y936819D1*
X2993023Y933819D1*
X2991090Y930819D1*
X2989254Y927819D1*
X2987567Y924819D1*
X2985975Y921819D1*
X2984440Y918819D1*
X2982923Y915819D1*
X2981420Y912819D1*
X2979915Y909819D1*
X2978417Y906819D1*
X2976914Y903819D1*
X2975417Y900819D1*
X2973914Y897819D1*
X2972405Y894819D1*
X2970809Y891819D1*
X2969023Y888819D1*
X2967090Y885819D1*
X2965254Y882819D1*
X2963567Y879819D1*
X2961975Y876819D1*
X2960428Y873819D1*
X2958817Y870819D1*
X2957026Y867819D1*
X2955091Y864819D1*
X2953254Y861819D1*
X2951567Y858819D1*
X2949987Y855819D1*
X2948557Y852819D1*
X2947425Y849819D1*
X2946695Y846819D1*
X2946166Y843819D1*
X3213166Y1332819D2*
X3213641Y1329819D1*
X3214490Y1326819D1*
X3215661Y1323819D1*
X3217010Y1320819D1*
X3218452Y1317819D1*
X3219927Y1314819D1*
X3221421Y1311819D1*
X3222916Y1308819D1*
X3224417Y1305819D1*
X3225915Y1302819D1*
X3227417Y1299819D1*
X3228926Y1296819D1*
X3230522Y1293819D1*
X3232308Y1290819D1*
X3234241Y1287819D1*
X3236078Y1284819D1*
X3237764Y1281819D1*
X3239356Y1278819D1*
X3240891Y1275819D1*
X3242408Y1272819D1*
X3243923Y1269819D1*
X3245521Y1266819D1*
X3247308Y1263819D1*
X3249241Y1260819D1*
X3251078Y1257819D1*
X3252764Y1254819D1*
X3254356Y1251819D1*
X3255891Y1248819D1*
X3257408Y1245819D1*
X3258911Y1242819D1*
X3260416Y1239819D1*
X3261914Y1236819D1*
X3263417Y1233819D1*
X3264926Y1230819D1*
X3266522Y1227819D1*
X3268308Y1224819D1*
X3270241Y1221819D1*
X3272078Y1218819D1*
X3273764Y1215819D1*
X3275356Y1212819D1*
X3276891Y1209819D1*
X3278408Y1206819D1*
X3279911Y1203819D1*
X3281416Y1200819D1*
X3282926Y1197819D1*
X3284522Y1194819D1*
X3286308Y1191819D1*
X3288241Y1188819D1*
X3290078Y1185819D1*
X3291764Y1182819D1*
X3293356Y1179819D1*
X3294891Y1176819D1*
X3296408Y1173819D1*
X3297911Y1170819D1*
X3299416Y1167819D1*
X3300914Y1164819D1*
X3302417Y1161819D1*
X3303926Y1158819D1*
X3305522Y1155819D1*
X3307308Y1152819D1*
X3309241Y1149819D1*
X3311078Y1146819D1*
X3312764Y1143819D1*
X3314356Y1140819D1*
X3315891Y1137819D1*
X3317408Y1134819D1*
X3318923Y1131819D1*
X3320521Y1128819D1*
X3322308Y1125819D1*
X3324241Y1122819D1*
X3326078Y1119819D1*
X3327764Y1116819D1*
X3329356Y1113819D1*
X3330891Y1110819D1*
X3332408Y1107819D1*
X3333911Y1104819D1*
X3335416Y1101819D1*
X3336914Y1098819D1*
X3338417Y1095819D1*
X3339914Y1092819D1*
X3341417Y1089819D1*
X3342926Y1086819D1*
X3344522Y1083819D1*
X3346308Y1080819D1*
X3348241Y1077819D1*
X3350078Y1074819D1*
X3351764Y1071819D1*
X3353356Y1068819D1*
X3354891Y1065819D1*
X3356408Y1062819D1*
X3357923Y1059819D1*
X3359521Y1056819D1*
X3361308Y1053819D1*
X3363241Y1050819D1*
X3365078Y1047819D1*
X3366764Y1044819D1*
X3368356Y1041819D1*
X3369891Y1038819D1*
X3371408Y1035819D1*
X3372911Y1032819D1*
X3374416Y1029819D1*
X3375914Y1026819D1*
X3377417Y1023819D1*
X3378926Y1020819D1*
X3380522Y1017819D1*
X3382308Y1014819D1*
X3384241Y1011819D1*
X3386078Y1008819D1*
X3387764Y1005819D1*
X3389356Y1002819D1*
X3390891Y999819D1*
X3392408Y996819D1*
X3393911Y993819D1*
X3395416Y990819D1*
X3396926Y987819D1*
X3398522Y984819D1*
X3400308Y981819D1*
X3402241Y978819D1*
X3404078Y975819D1*
X3405764Y972819D1*
X3407356Y969819D1*
X3408891Y966819D1*
X3410408Y963819D1*
X3411911Y960819D1*
X3413416Y957819D1*
X3414926Y954819D1*
X3416522Y951819D1*
X3418308Y948819D1*
X3420241Y945819D1*
X3422078Y942819D1*
X3423764Y939819D1*
X3425356Y936819D1*
X3426891Y933819D1*
X3428408Y930819D1*
X3429911Y927819D1*
X3431416Y924819D1*
X3432914Y921819D1*
X3434417Y918819D1*
X3435926Y915819D1*
X3437522Y912819D1*
X3439308Y909819D1*
X3441241Y906819D1*
X3443078Y903819D1*
X3444764Y900819D1*
X3446356Y897819D1*
X3447891Y894819D1*
X3449408Y891819D1*
X3450911Y888819D1*
X3452416Y885819D1*
X3453926Y882819D1*
X3455522Y879819D1*
X3457308Y876819D1*
X3459241Y873819D1*
X3461078Y870819D1*
X3462764Y867819D1*
X3464356Y864819D1*
X3465891Y861819D1*
X3467408Y858819D1*
X3468923Y855819D1*
X3470532Y852819D1*
X3472416Y849819D1*
X3474692Y846819D1*
X3477166Y843819D1*
X3207166Y1185819D2*
X3206702Y1182819D1*
X3205958Y1179819D1*
X3205170Y1176819D1*
X3204539Y1173819D1*
X3203878Y1170819D1*
X3203032Y1167819D1*
X3202198Y1164819D1*
X3201549Y1161819D1*
X3200881Y1158819D1*
X3200021Y1155819D1*
X3199093Y1152819D1*
X3198167Y1149819D1*
X3197163Y1146819D1*
X3196252Y1143819D1*
X3195570Y1140819D1*
X3194889Y1137819D1*
X3194036Y1134819D1*
X3193199Y1131819D1*
X3192550Y1128819D1*
X3191881Y1125819D1*
X3191033Y1122819D1*
X3190199Y1119819D1*
X3189549Y1116819D1*
X3188881Y1113819D1*
X3188033Y1110819D1*
X3187199Y1107819D1*
X3186549Y1104819D1*
X3185881Y1101819D1*
X3185021Y1098819D1*
X3184093Y1095819D1*
X3183167Y1092819D1*
X3182163Y1089819D1*
X3181252Y1086819D1*
X3180570Y1083819D1*
X3179889Y1080819D1*
X3179036Y1077819D1*
X3178199Y1074819D1*
X3177550Y1071819D1*
X3176881Y1068819D1*
X3176033Y1065819D1*
X3175199Y1062819D1*
X3174549Y1059819D1*
X3173881Y1056819D1*
X3173021Y1053819D1*
X3172093Y1050819D1*
X3171167Y1047819D1*
X3170163Y1044819D1*
X3169252Y1041819D1*
X3168570Y1038819D1*
X3167889Y1035819D1*
X3167036Y1032819D1*
X3166199Y1029819D1*
X3165550Y1026819D1*
X3164881Y1023819D1*
X3164033Y1020819D1*
X3163199Y1017819D1*
X3162549Y1014819D1*
X3161881Y1011819D1*
X3161021Y1008819D1*
X3160093Y1005819D1*
X3159165Y1002819D1*
X3158135Y999819D1*
X3157107Y996819D1*
X3156166Y993819D1*
X3252166Y1185819D2*
X3251026Y1182819D1*
X3249748Y1179819D1*
X3248449Y1176819D1*
X3247280Y1173819D1*
X3246230Y1170819D1*
X3245074Y1167819D1*
X3243774Y1164819D1*
X3242461Y1161819D1*
X3241285Y1158819D1*
X3240232Y1155819D1*
X3239075Y1152819D1*
X3237763Y1149819D1*
X3236355Y1146819D1*
X3234903Y1143819D1*
X3233514Y1140819D1*
X3232306Y1137819D1*
X3231240Y1134819D1*
X3230077Y1131819D1*
X3228776Y1128819D1*
X3227461Y1125819D1*
X3226285Y1122819D1*
X3225232Y1119819D1*
X3224075Y1116819D1*
X3222763Y1113819D1*
X3221355Y1110819D1*
X3219903Y1107819D1*
X3218514Y1104819D1*
X3217306Y1101819D1*
X3216240Y1098819D1*
X3215077Y1095819D1*
X3213764Y1092819D1*
X3212356Y1089819D1*
X3210903Y1086819D1*
X3209514Y1083819D1*
X3208306Y1080819D1*
X3207240Y1077819D1*
X3206077Y1074819D1*
X3204776Y1071819D1*
X3203461Y1068819D1*
X3202276Y1065819D1*
X3201151Y1062819D1*
X3199775Y1059819D1*
X3198166Y1056819D1*
X3273166Y1083819D2*
X3265666Y1080819D1*
X3258420Y1077819D1*
X3251254Y1074819D1*
X3244185Y1071819D1*
X3237190Y1068819D1*
X3230049Y1065819D1*
X3222670Y1062819D1*
X3215018Y1059819D1*
X3207166Y1056819D1*
X3276166Y1083819D2*
X3275702Y1080819D1*
X3274946Y1077819D1*
X3274064Y1074819D1*
X3273157Y1071819D1*
X3272159Y1068819D1*
X3271263Y1065819D1*
X3270675Y1062819D1*
X3270271Y1059819D1*
X3269754Y1056819D1*
X3268980Y1053819D1*
X3268178Y1050819D1*
X3267542Y1047819D1*
X3266879Y1044819D1*
X3266032Y1041819D1*
X3265198Y1038819D1*
X3264549Y1035819D1*
X3263881Y1032819D1*
X3263021Y1029819D1*
X3262093Y1026819D1*
X3261167Y1023819D1*
X3260163Y1020819D1*
X3259252Y1017819D1*
X3258570Y1014819D1*
X3257889Y1011819D1*
X3257036Y1008819D1*
X3256199Y1005819D1*
X3255550Y1002819D1*
X3254881Y999819D1*
X3254033Y996819D1*
X3253199Y993819D1*
X3252549Y990819D1*
X3251881Y987819D1*
X3251033Y984819D1*
X3250199Y981819D1*
X3249549Y978819D1*
X3248881Y975819D1*
X3248033Y972819D1*
X3247199Y969819D1*
X3246549Y966819D1*
X3245881Y963819D1*
X3245033Y960819D1*
X3244199Y957819D1*
X3243549Y954819D1*
X3242881Y951819D1*
X3242033Y948819D1*
X3241199Y945819D1*
X3240549Y942819D1*
X3239881Y939819D1*
X3239033Y936819D1*
X3238210Y933819D1*
X3237664Y930819D1*
X3237363Y927819D1*
X3237166Y924819D1*
X3249166D1*
X3248026Y921819D1*
X3246737Y918819D1*
X3245332Y915819D1*
X3243781Y912819D1*
X3242012Y909819D1*
X3240075Y906819D1*
X3238147Y903819D1*
X3236173Y900819D1*
X3234140Y897819D1*
X3232171Y894819D1*
X3230181Y891819D1*
X3228154Y888819D1*
X3226278Y885819D1*
X3224564Y882819D1*
X3222873Y879819D1*
X3221047Y876819D1*
X3219090Y873819D1*
X3217168Y870819D1*
X3215215Y867819D1*
X3213166Y864819D1*
X3231166Y1023819D2*
X3224690Y1020819D1*
X3217841Y1017819D1*
X3210682Y1014819D1*
X3203438Y1011819D1*
X3196378Y1008819D1*
X3189622Y1005819D1*
X3182907Y1002819D1*
X3176015Y999819D1*
X3169061Y996819D1*
X3162166Y993819D1*
X3234166Y1023819D2*
X3233702Y1020819D1*
X3232958Y1017819D1*
X3232170Y1014819D1*
X3231539Y1011819D1*
X3230878Y1008819D1*
X3230032Y1005819D1*
X3229198Y1002819D1*
X3228549Y999819D1*
X3227881Y996819D1*
X3227021Y993819D1*
X3226093Y990819D1*
X3225167Y987819D1*
X3224151Y984819D1*
X3223147Y981819D1*
X3222188Y978819D1*
X3221170Y975819D1*
X3220255Y972819D1*
X3219571Y969819D1*
X3218889Y966819D1*
X3218036Y963819D1*
X3217199Y960819D1*
X3216550Y957819D1*
X3215881Y954819D1*
X3215033Y951819D1*
X3214199Y948819D1*
X3213549Y945819D1*
X3212881Y942819D1*
X3212033Y939819D1*
X3211210Y936819D1*
X3210664Y933819D1*
X3210363Y930819D1*
X3210166Y927819D1*
X3192166D1*
X3193203Y924819D1*
X3194201Y921819D1*
X3195152Y918819D1*
X3196176Y915819D1*
X3197183Y912819D1*
X3198143Y909819D1*
X3199172Y906819D1*
X3200182Y903819D1*
X3201143Y900819D1*
X3202172Y897819D1*
X3203182Y894819D1*
X3204143Y891819D1*
X3205172Y888819D1*
X3206182Y885819D1*
X3207143Y882819D1*
X3208172Y879819D1*
X3209182Y876819D1*
X3210145Y873819D1*
X3211189Y870819D1*
X3212222Y867819D1*
X3213166Y864819D1*
X733544Y1370229D2*
X730658Y1367229D1*
X728054Y1364229D1*
X725879Y1361229D1*
X724042Y1358229D1*
X722389Y1355229D1*
X720819Y1352229D1*
X719200Y1349229D1*
X717405Y1346229D1*
X715470Y1343229D1*
X713632Y1340229D1*
X711934Y1337229D1*
X710248Y1334229D1*
X708424Y1331229D1*
X706477Y1328229D1*
X704634Y1325229D1*
X702934Y1322229D1*
X701248Y1319229D1*
X699424Y1316229D1*
X697465Y1313229D1*
X695529Y1310229D1*
X693552Y1307229D1*
X691530Y1304229D1*
X689655Y1301229D1*
X687954Y1298229D1*
X686356Y1295229D1*
X684807Y1292229D1*
X683196Y1289229D1*
X681404Y1286229D1*
X679469Y1283229D1*
X677632Y1280229D1*
X675945Y1277229D1*
X674353Y1274229D1*
X672806Y1271229D1*
X671195Y1268229D1*
X669404Y1265229D1*
X667458Y1262229D1*
X665526Y1259229D1*
X663551Y1256229D1*
X661529Y1253229D1*
X659655Y1250229D1*
X657942Y1247229D1*
X656251Y1244229D1*
X654425Y1241229D1*
X652477Y1238229D1*
X650634Y1235229D1*
X648946Y1232229D1*
X647354Y1229229D1*
X645806Y1226229D1*
X644195Y1223229D1*
X642404Y1220229D1*
X640469Y1217229D1*
X638632Y1214229D1*
X636945Y1211229D1*
X635353Y1208229D1*
X633806Y1205229D1*
X632195Y1202229D1*
X630404Y1199229D1*
X628458Y1196229D1*
X626526Y1193229D1*
X624551Y1190229D1*
X622529Y1187229D1*
X620655Y1184229D1*
X618942Y1181229D1*
X617251Y1178229D1*
X615425Y1175229D1*
X613477Y1172229D1*
X611634Y1169229D1*
X609934Y1166229D1*
X608248Y1163229D1*
X606424Y1160229D1*
X604477Y1157229D1*
X602634Y1154229D1*
X600946Y1151229D1*
X599354Y1148229D1*
X597806Y1145229D1*
X596195Y1142229D1*
X594404Y1139229D1*
X592469Y1136229D1*
X590632Y1133229D1*
X588934Y1130229D1*
X587248Y1127229D1*
X585424Y1124229D1*
X583477Y1121229D1*
X581634Y1118229D1*
X579934Y1115229D1*
X578248Y1112229D1*
X576424Y1109229D1*
X574477Y1106229D1*
X572634Y1103229D1*
X570934Y1100229D1*
X569248Y1097229D1*
X567424Y1094229D1*
X565477Y1091229D1*
X563634Y1088229D1*
X561934Y1085229D1*
X560248Y1082229D1*
X558424Y1079229D1*
X556477Y1076229D1*
X554634Y1073229D1*
X552946Y1070229D1*
X551354Y1067229D1*
X549806Y1064229D1*
X548195Y1061229D1*
X546404Y1058229D1*
X544469Y1055229D1*
X542632Y1052229D1*
X540934Y1049229D1*
X539248Y1046229D1*
X537424Y1043229D1*
X535477Y1040229D1*
X533634Y1037229D1*
X531934Y1034229D1*
X530248Y1031229D1*
X528424Y1028229D1*
X526477Y1025229D1*
X524634Y1022229D1*
X522946Y1019229D1*
X521354Y1016229D1*
X519806Y1013229D1*
X518195Y1010229D1*
X516404Y1007229D1*
X514469Y1004229D1*
X512632Y1001229D1*
X510934Y998229D1*
X509248Y995229D1*
X507424Y992229D1*
X505477Y989229D1*
X503634Y986229D1*
X501934Y983229D1*
X500248Y980229D1*
X498424Y977229D1*
X496465Y974229D1*
X494529Y971229D1*
X492552Y968229D1*
X490530Y965229D1*
X488655Y962229D1*
X486954Y959229D1*
X485356Y956229D1*
X483807Y953229D1*
X482196Y950229D1*
X480404Y947229D1*
X478469Y944229D1*
X476632Y941229D1*
X474934Y938229D1*
X473248Y935229D1*
X471424Y932229D1*
X469477Y929229D1*
X467634Y926229D1*
X465946Y923229D1*
X464354Y920229D1*
X462806Y917229D1*
X461195Y914229D1*
X459404Y911229D1*
X457458Y908229D1*
X455526Y905229D1*
X453551Y902229D1*
X451529Y899229D1*
X449655Y896229D1*
X447942Y893229D1*
X446251Y890229D1*
X444425Y887229D1*
X442477Y884229D1*
X440634Y881229D1*
X438946Y878229D1*
X437354Y875229D1*
X435806Y872229D1*
X434195Y869229D1*
X432404Y866229D1*
X430469Y863229D1*
X428632Y860229D1*
X426945Y857229D1*
X425353Y854229D1*
X423806Y851229D1*
X422195Y848229D1*
X420404Y845229D1*
X418458Y842229D1*
X416526Y839229D1*
X414551Y836229D1*
X412529Y833229D1*
X410666Y830229D1*
X409071Y827229D1*
X407867Y824229D1*
X407154Y821229D1*
X406799Y818229D1*
X406643Y815229D1*
X406580Y812229D1*
X406568Y809229D1*
X406674Y806229D1*
X407135Y803229D1*
X408159Y800229D1*
X409544Y797229D1*
X757544Y1370229D2*
X760080Y1367229D1*
X762324Y1364229D1*
X764442Y1361229D1*
X766523Y1358229D1*
X768420Y1355229D1*
X770141Y1352229D1*
X771835Y1349229D1*
X773662Y1346229D1*
X775610Y1343229D1*
X777452Y1340229D1*
X779153Y1337229D1*
X780839Y1334229D1*
X782663Y1331229D1*
X784610Y1328229D1*
X786453Y1325229D1*
X788153Y1322229D1*
X789839Y1319229D1*
X791663Y1316229D1*
X793610Y1313229D1*
X795453Y1310229D1*
X797141Y1307229D1*
X798733Y1304229D1*
X800281Y1301229D1*
X801892Y1298229D1*
X803683Y1295229D1*
X805618Y1292229D1*
X807455Y1289229D1*
X809154Y1286229D1*
X810839Y1283229D1*
X812663Y1280229D1*
X814610Y1277229D1*
X816453Y1274229D1*
X818153Y1271229D1*
X819839Y1268229D1*
X821663Y1265229D1*
X823610Y1262229D1*
X825453Y1259229D1*
X827141Y1256229D1*
X828733Y1253229D1*
X830281Y1250229D1*
X831892Y1247229D1*
X833683Y1244229D1*
X835618Y1241229D1*
X837455Y1238229D1*
X839154Y1235229D1*
X840839Y1232229D1*
X842663Y1229229D1*
X844610Y1226229D1*
X846453Y1223229D1*
X848153Y1220229D1*
X849839Y1217229D1*
X851663Y1214229D1*
X853610Y1211229D1*
X855453Y1208229D1*
X857153Y1205229D1*
X858839Y1202229D1*
X860663Y1199229D1*
X862610Y1196229D1*
X864453Y1193229D1*
X866153Y1190229D1*
X867839Y1187229D1*
X869663Y1184229D1*
X871610Y1181229D1*
X873453Y1178229D1*
X875153Y1175229D1*
X876839Y1172229D1*
X878663Y1169229D1*
X880610Y1166229D1*
X882453Y1163229D1*
X884141Y1160229D1*
X885733Y1157229D1*
X887281Y1154229D1*
X888892Y1151229D1*
X890683Y1148229D1*
X892618Y1145229D1*
X894455Y1142229D1*
X896154Y1139229D1*
X897839Y1136229D1*
X899663Y1133229D1*
X901622Y1130229D1*
X903558Y1127229D1*
X905535Y1124229D1*
X907557Y1121229D1*
X909432Y1118229D1*
X911134Y1115229D1*
X912731Y1112229D1*
X914280Y1109229D1*
X915892Y1106229D1*
X917683Y1103229D1*
X919618Y1100229D1*
X921455Y1097229D1*
X923142Y1094229D1*
X924734Y1091229D1*
X926281Y1088229D1*
X927892Y1085229D1*
X929683Y1082229D1*
X931618Y1079229D1*
X933455Y1076229D1*
X935154Y1073229D1*
X936839Y1070229D1*
X938663Y1067229D1*
X940622Y1064229D1*
X942558Y1061229D1*
X944535Y1058229D1*
X946557Y1055229D1*
X948432Y1052229D1*
X950134Y1049229D1*
X951731Y1046229D1*
X953280Y1043229D1*
X954892Y1040229D1*
X956683Y1037229D1*
X958618Y1034229D1*
X960455Y1031229D1*
X962154Y1028229D1*
X963839Y1025229D1*
X965663Y1022229D1*
X967610Y1019229D1*
X969453Y1016229D1*
X971141Y1013229D1*
X972733Y1010229D1*
X974281Y1007229D1*
X975892Y1004229D1*
X977683Y1001229D1*
X979629Y998229D1*
X981561Y995229D1*
X983536Y992229D1*
X985558Y989229D1*
X987432Y986229D1*
X989145Y983229D1*
X990836Y980229D1*
X992662Y977229D1*
X994610Y974229D1*
X996453Y971229D1*
X998153Y968229D1*
X999839Y965229D1*
X1001663Y962229D1*
X1003610Y959229D1*
X1005453Y956229D1*
X1007141Y953229D1*
X1008733Y950229D1*
X1010281Y947229D1*
X1011892Y944229D1*
X1013683Y941229D1*
X1015618Y938229D1*
X1017455Y935229D1*
X1019154Y932229D1*
X1020839Y929229D1*
X1022663Y926229D1*
X1024610Y923229D1*
X1026453Y920229D1*
X1028153Y917229D1*
X1029839Y914229D1*
X1031663Y911229D1*
X1033610Y908229D1*
X1035453Y905229D1*
X1037153Y902229D1*
X1038839Y899229D1*
X1040663Y896229D1*
X1042610Y893229D1*
X1044453Y890229D1*
X1046141Y887229D1*
X1047733Y884229D1*
X1049281Y881229D1*
X1050892Y878229D1*
X1052683Y875229D1*
X1054618Y872229D1*
X1056455Y869229D1*
X1058154Y866229D1*
X1059839Y863229D1*
X1061663Y860229D1*
X1063610Y857229D1*
X1065453Y854229D1*
X1067153Y851229D1*
X1068839Y848229D1*
X1070663Y845229D1*
X1072610Y842229D1*
X1074453Y839229D1*
X1076141Y836229D1*
X1077722Y833229D1*
X1079152Y830229D1*
X1080275Y827229D1*
X1080954Y824229D1*
X1081295Y821229D1*
X1081446Y818229D1*
X1081508Y815229D1*
X1081531Y812229D1*
X1081539Y809229D1*
X1081542Y806229D1*
X1081543Y803229D1*
Y800229D1*
X1081544Y797229D1*
X742544Y1310229D2*
X742068Y1307229D1*
X741207Y1304229D1*
X739943Y1301229D1*
X738305Y1298229D1*
X736433Y1295229D1*
X734619Y1292229D1*
X732929Y1289229D1*
X731246Y1286229D1*
X729423Y1283229D1*
X727477Y1280229D1*
X725634Y1277229D1*
X723946Y1274229D1*
X722354Y1271229D1*
X720806Y1268229D1*
X719195Y1265229D1*
X717404Y1262229D1*
X715469Y1259229D1*
X713632Y1256229D1*
X711934Y1253229D1*
X710248Y1250229D1*
X708424Y1247229D1*
X706477Y1244229D1*
X704634Y1241229D1*
X702946Y1238229D1*
X701354Y1235229D1*
X699818Y1232229D1*
X698301Y1229229D1*
X696786Y1226229D1*
X695188Y1223229D1*
X693401Y1220229D1*
X691468Y1217229D1*
X689632Y1214229D1*
X687933Y1211229D1*
X686248Y1208229D1*
X684424Y1205229D1*
X682465Y1202229D1*
X680529Y1199229D1*
X678552Y1196229D1*
X676530Y1193229D1*
X674655Y1190229D1*
X672954Y1187229D1*
X671356Y1184229D1*
X669807Y1181229D1*
X668196Y1178229D1*
X666404Y1175229D1*
X664469Y1172229D1*
X662632Y1169229D1*
X660945Y1166229D1*
X659353Y1163229D1*
X657806Y1160229D1*
X656195Y1157229D1*
X654404Y1154229D1*
X652469Y1151229D1*
X650632Y1148229D1*
X648934Y1145229D1*
X647248Y1142229D1*
X645424Y1139229D1*
X643477Y1136229D1*
X641634Y1133229D1*
X639946Y1130229D1*
X638354Y1127229D1*
X636806Y1124229D1*
X635195Y1121229D1*
X633404Y1118229D1*
X631469Y1115229D1*
X629632Y1112229D1*
X627934Y1109229D1*
X626248Y1106229D1*
X624424Y1103229D1*
X622477Y1100229D1*
X620634Y1097229D1*
X618934Y1094229D1*
X617248Y1091229D1*
X615424Y1088229D1*
X613477Y1085229D1*
X611634Y1082229D1*
X609946Y1079229D1*
X608354Y1076229D1*
X606806Y1073229D1*
X605195Y1070229D1*
X603404Y1067229D1*
X601469Y1064229D1*
X599632Y1061229D1*
X597945Y1058229D1*
X596353Y1055229D1*
X594806Y1052229D1*
X593195Y1049229D1*
X591404Y1046229D1*
X589469Y1043229D1*
X587632Y1040229D1*
X585934Y1037229D1*
X584248Y1034229D1*
X582424Y1031229D1*
X580477Y1028229D1*
X578634Y1025229D1*
X576946Y1022229D1*
X575354Y1019229D1*
X573806Y1016229D1*
X572195Y1013229D1*
X570404Y1010229D1*
X568469Y1007229D1*
X566632Y1004229D1*
X564934Y1001229D1*
X563248Y998229D1*
X561424Y995229D1*
X559477Y992229D1*
X557634Y989229D1*
X555934Y986229D1*
X554248Y983229D1*
X552424Y980229D1*
X550477Y977229D1*
X548634Y974229D1*
X546946Y971229D1*
X545354Y968229D1*
X543806Y965229D1*
X542195Y962229D1*
X540404Y959229D1*
X538469Y956229D1*
X536632Y953229D1*
X534945Y950229D1*
X533353Y947229D1*
X531806Y944229D1*
X530195Y941229D1*
X528404Y938229D1*
X526458Y935229D1*
X524526Y932229D1*
X522551Y929229D1*
X520529Y926229D1*
X518655Y923229D1*
X516953Y920229D1*
X515356Y917229D1*
X513819Y914229D1*
X512301Y911229D1*
X510786Y908229D1*
X509188Y905229D1*
X507401Y902229D1*
X505468Y899229D1*
X503632Y896229D1*
X501933Y893229D1*
X500248Y890229D1*
X498424Y887229D1*
X496477Y884229D1*
X494634Y881229D1*
X492934Y878229D1*
X491248Y875229D1*
X489424Y872229D1*
X487477Y869229D1*
X485634Y866229D1*
X483946Y863229D1*
X482354Y860229D1*
X480806Y857229D1*
X479184Y854229D1*
X477287Y851229D1*
X474961Y848229D1*
X472317Y845229D1*
X469544Y842229D1*
X748544Y1310229D2*
X749019Y1307229D1*
X749868Y1304229D1*
X751039Y1301229D1*
X752400Y1298229D1*
X753936Y1295229D1*
X755699Y1292229D1*
X757623Y1289229D1*
X759457Y1286229D1*
X761142Y1283229D1*
X762734Y1280229D1*
X764281Y1277229D1*
X765892Y1274229D1*
X767683Y1271229D1*
X769618Y1268229D1*
X771455Y1265229D1*
X773154Y1262229D1*
X774839Y1259229D1*
X776663Y1256229D1*
X778610Y1253229D1*
X780453Y1250229D1*
X782141Y1247229D1*
X783733Y1244229D1*
X785281Y1241229D1*
X786892Y1238229D1*
X788683Y1235229D1*
X790618Y1232229D1*
X792455Y1229229D1*
X794154Y1226229D1*
X795839Y1223229D1*
X797663Y1220229D1*
X799610Y1217229D1*
X801453Y1214229D1*
X803141Y1211229D1*
X804733Y1208229D1*
X806281Y1205229D1*
X807892Y1202229D1*
X809683Y1199229D1*
X811618Y1196229D1*
X813455Y1193229D1*
X815154Y1190229D1*
X816839Y1187229D1*
X818663Y1184229D1*
X820610Y1181229D1*
X822453Y1178229D1*
X824141Y1175229D1*
X825733Y1172229D1*
X827281Y1169229D1*
X828892Y1166229D1*
X830683Y1163229D1*
X832618Y1160229D1*
X834455Y1157229D1*
X836154Y1154229D1*
X837839Y1151229D1*
X839663Y1148229D1*
X841610Y1145229D1*
X843453Y1142229D1*
X845141Y1139229D1*
X846733Y1136229D1*
X848281Y1133229D1*
X849892Y1130229D1*
X851683Y1127229D1*
X853618Y1124229D1*
X855455Y1121229D1*
X857154Y1118229D1*
X858839Y1115229D1*
X860663Y1112229D1*
X862610Y1109229D1*
X864453Y1106229D1*
X866141Y1103229D1*
X867733Y1100229D1*
X869281Y1097229D1*
X870892Y1094229D1*
X872683Y1091229D1*
X874618Y1088229D1*
X876455Y1085229D1*
X878154Y1082229D1*
X879839Y1079229D1*
X881663Y1076229D1*
X883610Y1073229D1*
X885453Y1070229D1*
X887153Y1067229D1*
X888839Y1064229D1*
X890663Y1061229D1*
X892610Y1058229D1*
X894453Y1055229D1*
X896141Y1052229D1*
X897733Y1049229D1*
X899281Y1046229D1*
X900892Y1043229D1*
X902683Y1040229D1*
X904618Y1037229D1*
X906455Y1034229D1*
X908142Y1031229D1*
X909734Y1028229D1*
X911281Y1025229D1*
X912892Y1022229D1*
X914683Y1019229D1*
X916618Y1016229D1*
X918455Y1013229D1*
X920154Y1010229D1*
X921839Y1007229D1*
X923663Y1004229D1*
X925610Y1001229D1*
X927453Y998229D1*
X929141Y995229D1*
X930733Y992229D1*
X932281Y989229D1*
X933892Y986229D1*
X935683Y983229D1*
X937618Y980229D1*
X939455Y977229D1*
X941154Y974229D1*
X942839Y971229D1*
X944663Y968229D1*
X946610Y965229D1*
X948453Y962229D1*
X950153Y959229D1*
X951839Y956229D1*
X953663Y953229D1*
X955610Y950229D1*
X957453Y947229D1*
X959141Y944229D1*
X960733Y941229D1*
X962281Y938229D1*
X963892Y935229D1*
X965683Y932229D1*
X967618Y929229D1*
X969455Y926229D1*
X971142Y923229D1*
X972734Y920229D1*
X974281Y917229D1*
X975892Y914229D1*
X977683Y911229D1*
X979618Y908229D1*
X981455Y905229D1*
X983154Y902229D1*
X984839Y899229D1*
X986663Y896229D1*
X988610Y893229D1*
X990453Y890229D1*
X992141Y887229D1*
X993733Y884229D1*
X995281Y881229D1*
X996892Y878229D1*
X998683Y875229D1*
X1000618Y872229D1*
X1002455Y869229D1*
X1004154Y866229D1*
X1005839Y863229D1*
X1007663Y860229D1*
X1009610Y857229D1*
X1011441Y854229D1*
X1013024Y851229D1*
X1014231Y848229D1*
X1014995Y845229D1*
X1015544Y842229D1*
X742544Y1169229D2*
X742080Y1166229D1*
X741336Y1163229D1*
X740548Y1160229D1*
X739917Y1157229D1*
X739256Y1154229D1*
X738398Y1151229D1*
X737471Y1148229D1*
X736545Y1145229D1*
X735541Y1142229D1*
X734630Y1139229D1*
X733948Y1136229D1*
X733267Y1133229D1*
X732402Y1130229D1*
X731472Y1127229D1*
X730545Y1124229D1*
X729529Y1121229D1*
X728525Y1118229D1*
X727566Y1115229D1*
X726548Y1112229D1*
X725633Y1109229D1*
X724949Y1106229D1*
X724267Y1103229D1*
X723402Y1100229D1*
X722472Y1097229D1*
X721545Y1094229D1*
X720541Y1091229D1*
X719630Y1088229D1*
X718948Y1085229D1*
X718267Y1082229D1*
X717402Y1079229D1*
X716472Y1076229D1*
X715545Y1073229D1*
X714541Y1070229D1*
X713630Y1067229D1*
X712948Y1064229D1*
X712267Y1061229D1*
X711402Y1058229D1*
X710472Y1055229D1*
X709545Y1052229D1*
X708529Y1049229D1*
X707525Y1046229D1*
X706566Y1043229D1*
X705548Y1040229D1*
X704633Y1037229D1*
X703949Y1034229D1*
X703267Y1031229D1*
X702414Y1028229D1*
X701577Y1025229D1*
X700928Y1022229D1*
X700259Y1019229D1*
X699399Y1016229D1*
X698471Y1013229D1*
X697545Y1010229D1*
X696541Y1007229D1*
X695630Y1004229D1*
X694948Y1001229D1*
X694267Y998229D1*
X693413Y995229D1*
X692581Y992229D1*
X691991Y989229D1*
X691544Y986229D1*
X787544Y1169229D2*
X787068Y1166229D1*
X786219Y1163229D1*
X785048Y1160229D1*
X783699Y1157229D1*
X782257Y1154229D1*
X780782Y1151229D1*
X779288Y1148229D1*
X777793Y1145229D1*
X776304Y1142229D1*
X774900Y1139229D1*
X773686Y1136229D1*
X772619Y1133229D1*
X771456Y1130229D1*
X770142Y1127229D1*
X768734Y1124229D1*
X767281Y1121229D1*
X765892Y1118229D1*
X764683Y1115229D1*
X763618Y1112229D1*
X762455Y1109229D1*
X761142Y1106229D1*
X759734Y1103229D1*
X758269Y1100229D1*
X756786Y1097229D1*
X755289Y1094229D1*
X753794Y1091229D1*
X752304Y1088229D1*
X750900Y1085229D1*
X749686Y1082229D1*
X748619Y1079229D1*
X747456Y1076229D1*
X746142Y1073229D1*
X744734Y1070229D1*
X743281Y1067229D1*
X741892Y1064229D1*
X740672Y1061229D1*
X739512Y1058229D1*
X738070Y1055229D1*
X736399Y1052229D1*
X734875Y1049229D1*
X733544Y1046229D1*
X811544Y1073229D2*
X804043Y1070229D1*
X796300Y1067229D1*
X788561Y1064229D1*
X780918Y1061229D1*
X773343Y1058229D1*
X765805Y1055229D1*
X758212Y1052229D1*
X750457Y1049229D1*
X742544Y1046229D1*
X814544Y1073229D2*
X813147Y1070229D1*
X812180Y1067229D1*
X811362Y1064229D1*
X810450Y1061229D1*
X809591Y1058229D1*
X808932Y1055229D1*
X808261Y1052229D1*
X807411Y1049229D1*
X806577Y1046229D1*
X805927Y1043229D1*
X805259Y1040229D1*
X804399Y1037229D1*
X803471Y1034229D1*
X802545Y1031229D1*
X801529Y1028229D1*
X800525Y1025229D1*
X799566Y1022229D1*
X798548Y1019229D1*
X797644Y1016229D1*
X797054Y1013229D1*
X796649Y1010229D1*
X796132Y1007229D1*
X795347Y1004229D1*
X794451Y1001229D1*
X793538Y998229D1*
X792538Y995229D1*
X791629Y992229D1*
X790948Y989229D1*
X790267Y986229D1*
X789414Y983229D1*
X788577Y980229D1*
X787928Y977229D1*
X787259Y974229D1*
X786399Y971229D1*
X785471Y968229D1*
X784545Y965229D1*
X783541Y962229D1*
X782630Y959229D1*
X781948Y956229D1*
X781267Y953229D1*
X780402Y950229D1*
X779472Y947229D1*
X778545Y944229D1*
X777541Y941229D1*
X776630Y938229D1*
X775948Y935229D1*
X775267Y932229D1*
X774413Y929229D1*
X773581Y926229D1*
X772991Y923229D1*
X772544Y920229D1*
X787544D1*
X785940Y917229D1*
X783907Y914229D1*
X781725Y911229D1*
X779649Y908229D1*
X777602Y905229D1*
X775537Y902229D1*
X773556Y899229D1*
X771562Y896229D1*
X769521Y893229D1*
X767539Y890229D1*
X765454Y887229D1*
X763138Y884229D1*
X760820Y881229D1*
X758685Y878229D1*
X756615Y875229D1*
X754544Y872229D1*
X752574Y869229D1*
X750602Y866229D1*
X748544Y863229D1*
X769544Y1016229D2*
X763068Y1013229D1*
X756219Y1010229D1*
X749048Y1007229D1*
X741699Y1004229D1*
X734257Y1001229D1*
X726770Y998229D1*
X719171Y995229D1*
X711291Y992229D1*
X703017Y989229D1*
X694544Y986229D1*
X769544Y1016229D2*
X769429Y1013229D1*
X769045Y1010229D1*
X768326Y1007229D1*
X767545Y1004229D1*
X766916Y1001229D1*
X766255Y998229D1*
X765398Y995229D1*
X764471Y992229D1*
X763545Y989229D1*
X762529Y986229D1*
X761525Y983229D1*
X760566Y980229D1*
X759548Y977229D1*
X758633Y974229D1*
X757949Y971229D1*
X757267Y968229D1*
X756402Y965229D1*
X755472Y962229D1*
X754545Y959229D1*
X753529Y956229D1*
X752525Y953229D1*
X751566Y950229D1*
X750548Y947229D1*
X749633Y944229D1*
X748949Y941229D1*
X748267Y938229D1*
X747414Y935229D1*
X746589Y932229D1*
X746042Y929229D1*
X745741Y926229D1*
X745544Y923229D1*
X727544D1*
X728019Y920229D1*
X728868Y917229D1*
X730027Y914229D1*
X731283Y911229D1*
X732436Y908229D1*
X733469Y905229D1*
X734530Y902229D1*
X735553Y899229D1*
X736518Y896229D1*
X737549Y893229D1*
X738559Y890229D1*
X739521Y887229D1*
X740550Y884229D1*
X741560Y881229D1*
X742532Y878229D1*
X743656Y875229D1*
X744944Y872229D1*
X746269Y869229D1*
X747477Y866229D1*
X748544Y863229D1*
X2300399Y2709991D2*
D73*
X2350639D1*
Y2693244D1*
X2348207Y2686059D1*
X2343454Y2681251D1*
X2338646Y2678874D1*
X2331516Y2676498D1*
X2319522D1*
X2312337Y2678874D1*
X2307584Y2681251D1*
X2302776Y2686059D1*
X2300399Y2693244D1*
Y2709991D1*
X2310016Y2661058D2*
X2307584Y2656250D1*
X2300454Y2649065D1*
X2350639D1*
X2465902Y2844725D2*
X2468278Y2849479D1*
X2473087Y2854287D1*
X2477840Y2856664D1*
X2487401D1*
X2492210Y2854287D1*
X2496963Y2849479D1*
X2499395Y2844725D1*
X2501771Y2837540D1*
Y2825547D1*
X2499395Y2818417D1*
X2496963Y2813609D1*
X2492210Y2808855D1*
X2487401Y2806424D1*
X2477840D1*
X2473087Y2808855D1*
X2468278Y2813609D1*
X2465902Y2818417D1*
X2448086Y2811232D2*
X2450462Y2808800D1*
X2448086Y2806424D1*
X2445654Y2808800D1*
X2448086Y2811232D1*
X2430215Y2856664D2*
Y2806424D1*
X2396721Y2856664D2*
Y2806424D1*
X2430215Y2832732D2*
X2396721D1*
X2378905Y2811232D2*
X2381282Y2808800D1*
X2378905Y2806424D1*
X2376474Y2808800D1*
X2378905Y2811232D1*
X2361034Y2856664D2*
Y2806424D1*
X2343218Y2811232D2*
X2345595Y2808800D1*
X2343218Y2806424D1*
X2340787Y2808800D1*
X2343218Y2811232D1*
X2325347Y2830355D2*
X2303792D1*
X2296663Y2832732D1*
X2294231Y2835164D1*
X2291854Y2839917D1*
Y2847102D1*
X2294231Y2851855D1*
X2296663Y2854287D1*
X2303792Y2856664D1*
X2325347D1*
Y2806424D1*
X2274038Y2811232D2*
X2276415Y2808800D1*
X2274038Y2806424D1*
X2271606Y2808800D1*
X2274038Y2811232D1*
X2171696Y2844725D2*
X2174073Y2849479D1*
X2178881Y2854287D1*
X2183634Y2856664D1*
X2193196D1*
X2198005Y2854287D1*
X2202758Y2849479D1*
X2205190Y2844725D1*
X2207566Y2837540D1*
Y2825547D1*
X2205190Y2818417D1*
X2202758Y2813609D1*
X2198005Y2808855D1*
X2193196Y2806424D1*
X2183634D1*
X2178881Y2808855D1*
X2174073Y2813609D1*
X2171696Y2818417D1*
Y2825547D1*
X2183634D1*
X2144319Y2839917D2*
X2149072Y2837540D1*
X2153880Y2832732D1*
X2156257Y2825547D1*
Y2820794D1*
X2153880Y2813609D1*
X2149072Y2808855D1*
X2144319Y2806424D1*
X2137134D1*
X2132325Y2808855D1*
X2127572Y2813609D1*
X2125140Y2820794D1*
Y2825547D1*
X2127572Y2832732D1*
X2132325Y2837540D1*
X2137134Y2839917D1*
X2144319D1*
X2109701Y2825547D2*
X2081016D1*
Y2830355D1*
X2083393Y2835164D1*
X2085769Y2837540D1*
X2090578Y2839917D1*
X2097763D1*
X2102516Y2837540D1*
X2107324Y2832732D1*
X2109701Y2825547D1*
Y2820794D1*
X2107324Y2813609D1*
X2102516Y2808855D1*
X2097763Y2806424D1*
X2090578D1*
X2085769Y2808855D1*
X2081016Y2813609D1*
X2039269Y2832732D2*
X2041645Y2837540D1*
X2048830Y2839917D1*
X2056015D1*
X2063200Y2837540D1*
X2065577Y2832732D1*
X2063200Y2827979D1*
X2058392Y2825547D1*
X2046454Y2823170D1*
X2041645Y2820794D1*
X2039269Y2815985D1*
Y2813609D1*
X2041645Y2808855D1*
X2048830Y2806424D1*
X2056015D1*
X2063200Y2808855D1*
X2065577Y2813609D1*
X1963290Y2839917D2*
X1968043Y2837540D1*
X1972852Y2832732D1*
X1975228Y2825547D1*
Y2820794D1*
X1972852Y2813609D1*
X1968043Y2808855D1*
X1963290Y2806424D1*
X1956105D1*
X1951297Y2808855D1*
X1946543Y2813609D1*
X1944112Y2820794D1*
Y2825547D1*
X1946543Y2832732D1*
X1951297Y2837540D1*
X1956105Y2839917D1*
X1963290D1*
X1928672D2*
Y2806424D1*
Y2830355D2*
X1921487Y2837540D1*
X1916679Y2839917D1*
X1909549D1*
X1904741Y2837540D1*
X1902364Y2830355D1*
Y2806424D1*
X1831139Y2856664D2*
Y2815985D1*
X1828762Y2808855D1*
X1823954Y2806424D1*
X1819201D1*
X1838324Y2839917D2*
X1821577D1*
X1803761Y2856664D2*
Y2806424D1*
Y2830355D2*
X1796576Y2837540D1*
X1791768Y2839917D1*
X1784583D1*
X1779830Y2837540D1*
X1777453Y2830355D1*
Y2806424D1*
X1762014Y2856664D2*
X1759637Y2854287D1*
X1757205Y2856664D1*
X1759637Y2859095D1*
X1762014Y2856664D1*
X1759637Y2839917D2*
Y2806424D1*
X1715458Y2832732D2*
X1717834Y2837540D1*
X1725019Y2839917D1*
X1732204D1*
X1739389Y2837540D1*
X1741766Y2832732D1*
X1739389Y2827979D1*
X1734581Y2825547D1*
X1722643Y2823170D1*
X1717834Y2820794D1*
X1715458Y2815985D1*
Y2813609D1*
X1717834Y2808855D1*
X1725019Y2806424D1*
X1732204D1*
X1739389Y2808855D1*
X1741766Y2813609D1*
X1651418Y2856664D2*
X1649041Y2854287D1*
X1646609Y2856664D1*
X1649041Y2859095D1*
X1651418Y2856664D1*
X1649041Y2839917D2*
Y2806424D1*
X1604862Y2832732D2*
X1607238Y2837540D1*
X1614423Y2839917D1*
X1621608D1*
X1628793Y2837540D1*
X1631170Y2832732D1*
X1628793Y2827979D1*
X1623985Y2825547D1*
X1612047Y2823170D1*
X1607238Y2820794D1*
X1604862Y2815985D1*
Y2813609D1*
X1607238Y2808855D1*
X1614423Y2806424D1*
X1621608D1*
X1628793Y2808855D1*
X1631170Y2813609D1*
X1560737Y2856664D2*
Y2806424D1*
Y2832732D2*
X1565491Y2837540D1*
X1570299Y2839917D1*
X1577484D1*
X1582237Y2837540D1*
X1587046Y2832732D1*
X1589422Y2825547D1*
Y2820794D1*
X1587046Y2813609D1*
X1582237Y2808855D1*
X1577484Y2806424D1*
X1570299D1*
X1565491Y2808855D1*
X1560737Y2813609D1*
X1545298Y2825547D2*
X1516613D1*
Y2830355D1*
X1518990Y2835164D1*
X1521366Y2837540D1*
X1526175Y2839917D1*
X1533360D1*
X1538113Y2837540D1*
X1542922Y2832732D1*
X1545298Y2825547D1*
Y2820794D1*
X1542922Y2813609D1*
X1538113Y2808855D1*
X1533360Y2806424D1*
X1526175D1*
X1521366Y2808855D1*
X1516613Y2813609D1*
X2517477Y1879166D2*
D74*
Y1798782D1*
X2492774Y1852371D2*
Y1798782D1*
Y1837072D2*
X2481278Y1848568D1*
X2473584Y1852371D1*
X2462177D1*
X2454483Y1848568D1*
X2450681Y1837072D1*
Y1798782D1*
X2380082Y1848568D2*
Y1787285D1*
X2383884Y1775878D1*
X2387687Y1771987D1*
X2395381Y1768184D1*
X2406877D1*
X2414482Y1771987D1*
X2380082Y1837072D2*
X2387687Y1844677D1*
X2395381Y1848568D1*
X2406877D1*
X2414482Y1844677D1*
X2422175Y1837072D1*
X2425978Y1825576D1*
Y1817883D1*
X2422175Y1806475D1*
X2414482Y1798782D1*
X2406877Y1794979D1*
X2395381D1*
X2387687Y1798782D1*
X2380082Y1806475D1*
X2355379Y1852371D2*
Y1798782D1*
Y1829379D2*
X2351488Y1840875D1*
X2343883Y1848568D1*
X2336190Y1852371D1*
X2324693D1*
X2299991Y1829379D2*
X2254095D1*
Y1837072D1*
X2257897Y1844766D1*
X2261700Y1848568D1*
X2269393Y1852371D1*
X2280890D1*
X2288495Y1848568D1*
X2296188Y1840875D1*
X2299991Y1829379D1*
Y1821774D1*
X2296188Y1810278D1*
X2288495Y1802672D1*
X2280890Y1798782D1*
X2269393D1*
X2261700Y1802672D1*
X2254095Y1810278D1*
X2183496Y1879166D2*
Y1798782D1*
Y1840875D2*
X2191101Y1848568D1*
X2198795Y1852371D1*
X2210291D1*
X2217896Y1848568D1*
X2225590Y1840875D1*
X2229392Y1829379D1*
Y1821774D1*
X2225590Y1810278D1*
X2217896Y1802672D1*
X2210291Y1798782D1*
X2198795D1*
X2191101Y1802672D1*
X2183496Y1810278D1*
X2158793Y1879166D2*
X2154991Y1875363D1*
X2151100Y1879166D1*
X2154991Y1883056D1*
X2158793Y1879166D1*
X2154991Y1852371D2*
Y1798782D1*
X2126397Y1829379D2*
X2080501D1*
Y1837072D1*
X2084304Y1844766D1*
X2088106Y1848568D1*
X2095800Y1852371D1*
X2107296D1*
X2114901Y1848568D1*
X2122595Y1840875D1*
X2126397Y1829379D1*
Y1821774D1*
X2122595Y1810278D1*
X2114901Y1802672D1*
X2107296Y1798782D1*
X2095800D1*
X2088106Y1802672D1*
X2080501Y1810278D1*
X2055799Y1852371D2*
Y1798782D1*
Y1837072D2*
X2044302Y1848568D1*
X2036609Y1852371D1*
X2025201D1*
X2017508Y1848568D1*
X2013705Y1837072D1*
Y1798782D1*
X1977506Y1879166D2*
Y1814080D1*
X1973704Y1802672D1*
X1966010Y1798782D1*
X1958405D1*
X1989002Y1852371D2*
X1962208D1*
X1933702Y1829379D2*
X1887807D1*
Y1837072D1*
X1891609Y1844766D1*
X1895412Y1848568D1*
X1903105Y1852371D1*
X1914601D1*
X1922206Y1848568D1*
X1929900Y1840875D1*
X1933702Y1829379D1*
Y1821774D1*
X1929900Y1810278D1*
X1922206Y1802672D1*
X1914601Y1798782D1*
X1903105D1*
X1895412Y1802672D1*
X1887807Y1810278D1*
X1821011Y1840875D2*
X1824813Y1848568D1*
X1836309Y1852371D1*
X1847805D1*
X1859301Y1848568D1*
X1863104Y1840875D1*
X1859301Y1833270D1*
X1851608Y1829379D1*
X1832507Y1825576D1*
X1824813Y1821774D1*
X1821011Y1814080D1*
Y1810278D1*
X1824813Y1802672D1*
X1836309Y1798782D1*
X1847805D1*
X1859301Y1802672D1*
X1863104Y1810278D1*
X1792417Y1852371D2*
X1796308Y1848480D1*
X1792417Y1844677D1*
X1788614Y1848480D1*
X1792417Y1852371D1*
Y1806475D2*
X1796308Y1802584D1*
X1792417Y1798782D1*
X1788614Y1802584D1*
X1792417Y1806475D1*
X2455139Y1607996D2*
D75*
Y1562100D1*
X2457991Y1553478D1*
X2460909Y1550626D1*
X2466613Y1547708D1*
X2472383D1*
X2478087Y1550626D1*
X2480939Y1553478D1*
X2483857Y1562100D1*
Y1567804D1*
X2436612Y1607996D2*
X2433760Y1605144D1*
X2430842Y1607996D1*
X2433760Y1610914D1*
X2436612Y1607996D1*
X2433760Y1587900D2*
Y1547708D1*
X2403692Y1607996D2*
Y1559182D1*
X2400841Y1550626D1*
X2395070Y1547708D1*
X2389367D1*
X2412315Y1587900D2*
X2392219D1*
X2356514D2*
X2362217Y1585048D1*
X2367988Y1579278D1*
X2370840Y1570656D1*
Y1564952D1*
X2367988Y1556330D1*
X2362217Y1550626D1*
X2356514Y1547708D1*
X2347892D1*
X2342121Y1550626D1*
X2336418Y1556330D1*
X2333499Y1564952D1*
Y1570656D1*
X2336418Y1579278D1*
X2342121Y1585048D1*
X2347892Y1587900D1*
X2356514D1*
X2314972D2*
Y1547708D1*
Y1576426D2*
X2306350Y1585048D1*
X2300580Y1587900D1*
X2292024D1*
X2286254Y1585048D1*
X2283402Y1576426D1*
Y1547708D1*
Y1576426D2*
X2274780Y1585048D1*
X2269010Y1587900D1*
X2260454D1*
X2254684Y1585048D1*
X2251766Y1576426D1*
Y1547708D1*
X2198817Y1587900D2*
Y1547708D1*
Y1579278D2*
X2204521Y1585048D1*
X2210291Y1587900D1*
X2218847D1*
X2224617Y1585048D1*
X2230321Y1579278D1*
X2233239Y1570656D1*
Y1564952D1*
X2230321Y1556330D1*
X2224617Y1550626D1*
X2218847Y1547708D1*
X2210291D1*
X2204521Y1550626D1*
X2198817Y1556330D1*
X2171668Y1607996D2*
Y1559182D1*
X2168816Y1550626D1*
X2163046Y1547708D1*
X2157342D1*
X2180290Y1587900D2*
X2160194D1*
X2138815Y1570656D2*
X2104393D1*
Y1576426D1*
X2107245Y1582196D1*
X2110097Y1585048D1*
X2115867Y1587900D1*
X2124489D1*
X2130193Y1585048D1*
X2135963Y1579278D1*
X2138815Y1570656D1*
Y1564952D1*
X2135963Y1556330D1*
X2130193Y1550626D1*
X2124489Y1547708D1*
X2115867D1*
X2110097Y1550626D1*
X2104393Y1556330D1*
X2434902Y1502725D2*
X2437753Y1508429D1*
X2443524Y1514199D1*
X2449227Y1517051D1*
X2460701D1*
X2466472Y1514199D1*
X2472175Y1508429D1*
X2475094Y1502725D1*
X2477945Y1494103D1*
Y1479711D1*
X2475094Y1471156D1*
X2472175Y1465385D1*
X2466472Y1459682D1*
X2460701Y1456763D1*
X2449227D1*
X2443524Y1459682D1*
X2437753Y1465385D1*
X2434902Y1471156D1*
X2416374Y1479711D2*
X2381953D1*
Y1485481D1*
X2384805Y1491252D1*
X2387656Y1494103D1*
X2393427Y1496955D1*
X2402049D1*
X2407752Y1494103D1*
X2413523Y1488333D1*
X2416374Y1479711D1*
Y1474007D1*
X2413523Y1465385D1*
X2407752Y1459682D1*
X2402049Y1456763D1*
X2393427D1*
X2387656Y1459682D1*
X2381953Y1465385D1*
X2363426Y1517051D2*
Y1456763D1*
Y1488333D2*
X2357655Y1494103D1*
X2351952Y1496955D1*
X2343330D1*
X2337626Y1494103D1*
X2331856Y1488333D1*
X2329004Y1479711D1*
Y1474007D1*
X2331856Y1465385D1*
X2337626Y1459682D1*
X2343330Y1456763D1*
X2351952D1*
X2357655Y1459682D1*
X2363426Y1465385D1*
X2296151Y1496955D2*
X2301855Y1494103D1*
X2307625Y1488333D1*
X2310477Y1479711D1*
Y1474007D1*
X2307625Y1465385D1*
X2301855Y1459682D1*
X2296151Y1456763D1*
X2287529D1*
X2281758Y1459682D1*
X2276055Y1465385D1*
X2273136Y1474007D1*
Y1479711D1*
X2276055Y1488333D1*
X2281758Y1494103D1*
X2287529Y1496955D1*
X2296151D1*
X2254609Y1517051D2*
Y1456763D1*
X2236082Y1517051D2*
Y1456763D1*
X2183133Y1496955D2*
Y1456763D1*
Y1488333D2*
X2188837Y1494103D1*
X2194607Y1496955D1*
X2203163D1*
X2208933Y1494103D1*
X2214637Y1488333D1*
X2217555Y1479711D1*
Y1474007D1*
X2214637Y1465385D1*
X2208933Y1459682D1*
X2203163Y1456763D1*
X2194607D1*
X2188837Y1459682D1*
X2183133Y1465385D1*
X2435871Y1414930D2*
X2438723Y1420634D1*
X2444493Y1426404D1*
X2450196Y1429256D1*
X2461670D1*
X2467441Y1426404D1*
X2473144Y1420634D1*
X2476063Y1414930D1*
X2478915Y1406308D1*
Y1391916D1*
X2476063Y1383360D1*
X2473144Y1377590D1*
X2467441Y1371886D1*
X2461670Y1368968D1*
X2450196D1*
X2444493Y1371886D1*
X2438723Y1377590D1*
X2435871Y1383360D1*
X2417344Y1429256D2*
Y1368968D1*
Y1397686D2*
X2408721Y1406308D1*
X2402951Y1409160D1*
X2394329D1*
X2388625Y1406308D1*
X2385774Y1397686D1*
Y1368968D1*
X2367246Y1429256D2*
X2364395Y1426404D1*
X2361476Y1429256D1*
X2364395Y1432174D1*
X2367246Y1429256D1*
X2364395Y1409160D2*
Y1368968D1*
X2342949Y1429256D2*
Y1368968D1*
X2324422Y1391916D2*
X2290000D1*
Y1397686D1*
X2292852Y1403456D1*
X2295704Y1406308D1*
X2301474Y1409160D1*
X2310096D1*
X2315800Y1406308D1*
X2321570Y1400538D1*
X2324422Y1391916D1*
Y1386212D1*
X2321570Y1377590D1*
X2315800Y1371886D1*
X2310096Y1368968D1*
X2301474D1*
X2295704Y1371886D1*
X2290000Y1377590D1*
X2172960Y1420634D2*
X2178664Y1426404D1*
X2187286Y1429256D1*
X2198760D1*
X2207382Y1426404D1*
X2213152Y1420634D1*
Y1414930D1*
X2210234Y1409160D1*
X2207382Y1406308D1*
X2201678Y1403456D1*
X2184434Y1397686D1*
X2178664Y1394834D1*
X2175812Y1391916D1*
X2172960Y1386212D1*
Y1377590D1*
X2178664Y1371886D1*
X2187286Y1368968D1*
X2198760D1*
X2207382Y1371886D1*
X2213152Y1377590D1*
X2154433Y1391916D2*
X2120011D1*
Y1397686D1*
X2122863Y1403456D1*
X2125715Y1406308D1*
X2131485Y1409160D1*
X2140107D1*
X2145811Y1406308D1*
X2151581Y1400538D1*
X2154433Y1391916D1*
Y1386212D1*
X2151581Y1377590D1*
X2145811Y1371886D1*
X2140107Y1368968D1*
X2131485D1*
X2125715Y1371886D1*
X2120011Y1377590D1*
X2101484Y1409160D2*
Y1368968D1*
Y1391916D2*
X2098566Y1400538D1*
X2092862Y1406308D1*
X2087092Y1409160D1*
X2078470D1*
X2059943D2*
Y1368968D1*
Y1391916D2*
X2057024Y1400538D1*
X2051321Y1406308D1*
X2045550Y1409160D1*
X2036928D1*
X1983979D2*
Y1368968D1*
Y1400538D2*
X1989683Y1406308D1*
X1995453Y1409160D1*
X2004009D1*
X2009779Y1406308D1*
X2015483Y1400538D1*
X2018401Y1391916D1*
Y1386212D1*
X2015483Y1377590D1*
X2009779Y1371886D1*
X2004009Y1368968D1*
X1995453D1*
X1989683Y1371886D1*
X1983979Y1377590D1*
X1965452Y1409160D2*
Y1368968D1*
Y1397686D2*
X1956830Y1406308D1*
X1951060Y1409160D1*
X1942504D1*
X1936734Y1406308D1*
X1933882Y1397686D1*
Y1368968D1*
X1901029Y1409160D2*
X1906733Y1406308D1*
X1912503Y1400538D1*
X1915355Y1391916D1*
Y1386212D1*
X1912503Y1377590D1*
X1906733Y1371886D1*
X1901029Y1368968D1*
X1892407D1*
X1886637Y1371886D1*
X1880933Y1377590D1*
X1878015Y1386212D1*
Y1391916D1*
X1880933Y1400538D1*
X1886637Y1406308D1*
X1892407Y1409160D1*
X1901029D1*
X2435997Y1325954D2*
X2438849Y1331658D1*
X2444619Y1337428D1*
X2450323Y1340280D1*
X2461797D1*
X2467567Y1337428D1*
X2473271Y1331658D1*
X2476189Y1325954D1*
X2479041Y1317332D1*
Y1302940D1*
X2476189Y1294384D1*
X2473271Y1288614D1*
X2467567Y1282910D1*
X2461797Y1279992D1*
X2450323D1*
X2444619Y1282910D1*
X2438849Y1288614D1*
X2435997Y1294384D1*
X2417470Y1340280D2*
X2414618Y1337428D1*
X2411700Y1340280D1*
X2414618Y1343198D1*
X2417470Y1340280D1*
X2414618Y1320184D2*
Y1279992D1*
X2393173Y1340280D2*
Y1279992D1*
X2340224Y1320184D2*
Y1279992D1*
Y1311562D2*
X2345928Y1317332D1*
X2351698Y1320184D1*
X2360254D1*
X2366024Y1317332D1*
X2371728Y1311562D1*
X2374646Y1302940D1*
Y1297236D1*
X2371728Y1288614D1*
X2366024Y1282910D1*
X2360254Y1279992D1*
X2351698D1*
X2345928Y1282910D1*
X2340224Y1288614D1*
X2321697Y1320184D2*
Y1279992D1*
Y1308710D2*
X2313075Y1317332D1*
X2307305Y1320184D1*
X2298749D1*
X2292979Y1317332D1*
X2290127Y1308710D1*
Y1279992D1*
X2262978Y1340280D2*
Y1291466D1*
X2260126Y1282910D1*
X2254356Y1279992D1*
X2248652D1*
X2271600Y1320184D2*
X2251504D1*
X2230125D2*
Y1279992D1*
Y1302940D2*
X2227207Y1311562D1*
X2221503Y1317332D1*
X2215733Y1320184D1*
X2207111D1*
X2174258D2*
X2179962Y1317332D1*
X2185732Y1311562D1*
X2188584Y1302940D1*
Y1297236D1*
X2185732Y1288614D1*
X2179962Y1282910D1*
X2174258Y1279992D1*
X2165636D1*
X2159866Y1282910D1*
X2154162Y1288614D1*
X2151244Y1297236D1*
Y1302940D1*
X2154162Y1311562D1*
X2159866Y1317332D1*
X2165636Y1320184D1*
X2174258D1*
X2460652Y1258390D2*
Y1198102D1*
X2426230D1*
X2407703Y1258390D2*
X2404851Y1255538D1*
X2401933Y1258390D1*
X2404851Y1261308D1*
X2407703Y1258390D1*
X2404851Y1238294D2*
Y1198102D1*
X2383406Y1238294D2*
Y1198102D1*
Y1226820D2*
X2374784Y1235442D1*
X2369014Y1238294D1*
X2360458D1*
X2354688Y1235442D1*
X2351836Y1226820D1*
Y1198102D1*
Y1226820D2*
X2343214Y1235442D1*
X2337444Y1238294D1*
X2328888D1*
X2323118Y1235442D1*
X2320200Y1226820D1*
Y1198102D1*
X2287347Y1238294D2*
X2293051Y1235442D1*
X2298821Y1229672D1*
X2301673Y1221050D1*
Y1215346D1*
X2298821Y1206724D1*
X2293051Y1201020D1*
X2287347Y1198102D1*
X2278725D1*
X2272955Y1201020D1*
X2267251Y1206724D1*
X2264333Y1215346D1*
Y1221050D1*
X2267251Y1229672D1*
X2272955Y1235442D1*
X2278725Y1238294D1*
X2287347D1*
X2245806D2*
Y1198102D1*
Y1226820D2*
X2237184Y1235442D1*
X2231413Y1238294D1*
X2222858D1*
X2217088Y1235442D1*
X2214236Y1226820D1*
Y1198102D1*
X2425869Y1156461D2*
X2431573Y1162231D1*
X2440195Y1165083D1*
X2451669D1*
X2460291Y1162231D1*
X2466061Y1156461D1*
Y1150757D1*
X2463143Y1144987D1*
X2460291Y1142135D1*
X2454587Y1139283D1*
X2437343Y1133513D1*
X2431573Y1130661D1*
X2428721Y1127743D1*
X2425869Y1122039D1*
Y1113417D1*
X2431573Y1107713D1*
X2440195Y1104795D1*
X2451669D1*
X2460291Y1107713D1*
X2466061Y1113417D1*
X2372920Y1144987D2*
Y1104795D1*
Y1136365D2*
X2378624Y1142135D1*
X2384394Y1144987D1*
X2392950D1*
X2398720Y1142135D1*
X2404424Y1136365D1*
X2407342Y1127743D1*
Y1122039D1*
X2404424Y1113417D1*
X2398720Y1107713D1*
X2392950Y1104795D1*
X2384394D1*
X2378624Y1107713D1*
X2372920Y1113417D1*
X2354393Y1165083D2*
Y1104795D1*
X1101117Y2870133D2*
D73*
X1079617D1*
X1072432Y2872565D1*
X1070000Y2874942D1*
X1067624Y2879695D1*
Y2884504D1*
X1070000Y2889257D1*
X1072432Y2891689D1*
X1079617Y2894065D1*
X1101117D1*
Y2843825D1*
X1084370Y2870133D2*
X1067624Y2843825D1*
X1052184Y2862948D2*
X1023499D1*
Y2867757D1*
X1025876Y2872565D1*
X1028253Y2874942D1*
X1033061Y2877318D1*
X1040246D1*
X1044999Y2874942D1*
X1049808Y2870133D1*
X1052184Y2862948D1*
Y2858195D1*
X1049808Y2851010D1*
X1044999Y2846257D1*
X1040246Y2843825D1*
X1033061D1*
X1028253Y2846257D1*
X1023499Y2851010D1*
X1008060Y2877318D2*
X993690Y2843825D1*
X979375Y2877318D1*
X900965Y2894010D2*
X908150Y2891633D1*
X912958Y2884448D1*
X915335Y2872510D1*
Y2865325D1*
X912958Y2853387D1*
X908150Y2846202D1*
X900965Y2843825D1*
X896212D1*
X889027Y2846202D1*
X884274Y2853387D1*
X881842Y2865325D1*
Y2872510D1*
X884274Y2884448D1*
X889027Y2891633D1*
X896212Y2894010D1*
X900965D1*
X884274Y2884448D2*
X912958Y2853387D1*
X864026Y2848634D2*
X866402Y2846202D1*
X864026Y2843825D1*
X861594Y2846202D1*
X864026Y2848634D1*
X815038Y2877318D2*
X817470Y2870133D1*
X822223Y2865325D1*
X829408Y2862948D1*
X831785D1*
X838970Y2865325D1*
X843723Y2870133D1*
X846155Y2877318D1*
Y2879695D1*
X843723Y2886880D1*
X838970Y2891633D1*
X831785Y2894010D1*
X829408D1*
X822223Y2891633D1*
X817470Y2886880D1*
X815038Y2877318D1*
Y2865325D1*
X817470Y2853387D1*
X822223Y2846202D1*
X829408Y2843825D1*
X834161D1*
X841346Y2846202D1*
X843723Y2851010D1*
X914373Y782709D2*
D74*
Y702325D1*
X887578D1*
X876082Y706216D1*
X868389Y713821D1*
X864586Y721514D1*
X860784Y732922D1*
Y752112D1*
X864586Y763608D1*
X868389Y771213D1*
X876082Y778906D1*
X887578Y782709D1*
X914373D1*
X790185Y755914D2*
Y702325D1*
Y744418D2*
X797790Y752112D1*
X805484Y755914D1*
X816891D1*
X824585Y752112D1*
X832190Y744418D1*
X836081Y732922D1*
Y725317D1*
X832190Y713821D1*
X824585Y706216D1*
X816891Y702325D1*
X805484D1*
X797790Y706216D1*
X790185Y713821D1*
X765482Y755914D2*
Y702325D1*
Y740616D2*
X753986Y752112D1*
X746293Y755914D1*
X734885D1*
X727191Y752112D1*
X723389Y740616D1*
Y702325D1*
X652790Y752112D2*
Y690829D1*
X656593Y679421D1*
X660395Y675530D1*
X668089Y671728D1*
X679585D1*
X687190Y675530D1*
X652790Y740616D2*
X660395Y748221D1*
X668089Y752112D1*
X679585D1*
X687190Y748221D1*
X694884Y740616D1*
X698686Y729119D1*
Y721426D1*
X694884Y710018D1*
X687190Y702325D1*
X679585Y698522D1*
X668089D1*
X660395Y702325D1*
X652790Y710018D1*
X628087Y732922D2*
X582192D1*
Y740616D1*
X585994Y748309D1*
X589797Y752112D1*
X597490Y755914D1*
X608986D1*
X616591Y752112D1*
X624285Y744418D1*
X628087Y732922D1*
Y725317D1*
X624285Y713821D1*
X616591Y706216D1*
X608986Y702325D1*
X597490D1*
X589797Y706216D1*
X582192Y713821D1*
X557489Y755914D2*
Y702325D1*
Y732922D2*
X553598Y744418D1*
X545993Y752112D1*
X538299Y755914D1*
X526803D1*
X977994Y495246D2*
D73*
Y445006D1*
X944501Y495246D2*
Y445006D1*
X977994Y471315D2*
X944501D1*
X929061Y495246D2*
X926685Y492870D1*
X924253Y495246D1*
X926685Y497678D1*
X929061Y495246D1*
X926685Y478500D2*
Y445006D1*
X880129Y476123D2*
Y437821D1*
X882506Y430691D1*
X884882Y428260D1*
X889691Y425883D1*
X896876D1*
X901629Y428260D1*
X880129Y468938D2*
X884882Y473691D1*
X889691Y476123D1*
X896876D1*
X901629Y473691D1*
X906437Y468938D1*
X908814Y461753D1*
Y456944D1*
X906437Y449815D1*
X901629Y445006D1*
X896876Y442630D1*
X889691D1*
X884882Y445006D1*
X880129Y449815D1*
X864690Y495246D2*
Y445006D1*
Y468938D2*
X857505Y476123D1*
X852696Y478500D1*
X845511D1*
X840758Y476123D1*
X838381Y468938D1*
Y445006D1*
X774341Y495246D2*
X755218Y445006D1*
X736095Y495246D1*
X708717Y478500D2*
X713470Y476123D1*
X718279Y471315D1*
X720655Y464129D1*
Y459376D1*
X718279Y452191D1*
X713470Y447438D1*
X708717Y445006D1*
X701532D1*
X696724Y447438D1*
X691971Y452191D1*
X689539Y459376D1*
Y464129D1*
X691971Y471315D1*
X696724Y476123D1*
X701532Y478500D1*
X708717D1*
X674099Y495246D2*
Y445006D1*
X651475Y495246D2*
Y454568D1*
X649099Y447438D1*
X644290Y445006D1*
X639537D1*
X658660Y478500D2*
X641913D1*
X595413D2*
Y445006D1*
Y471315D2*
X600166Y476123D1*
X604974Y478500D1*
X612104D1*
X616913Y476123D1*
X621666Y471315D1*
X624098Y464129D1*
Y459376D1*
X621666Y452191D1*
X616913Y447438D1*
X612104Y445006D1*
X604974D1*
X600166Y447438D1*
X595413Y452191D1*
X551289Y476123D2*
Y437821D1*
X553665Y430691D1*
X556042Y428260D1*
X560850Y425883D1*
X568035D1*
X572788Y428260D1*
X551289Y468938D2*
X556042Y473691D1*
X560850Y476123D1*
X568035D1*
X572788Y473691D1*
X577597Y468938D1*
X579974Y461753D1*
Y456944D1*
X577597Y449815D1*
X572788Y445006D1*
X568035Y442630D1*
X560850D1*
X556042Y445006D1*
X551289Y449815D1*
X535849Y464129D2*
X507164D1*
Y468938D1*
X509541Y473746D1*
X511918Y476123D1*
X516726Y478500D1*
X523911D1*
X528664Y476123D1*
X533473Y471315D1*
X535849Y464129D1*
Y459376D1*
X533473Y452191D1*
X528664Y447438D1*
X523911Y445006D1*
X516726D1*
X511918Y447438D1*
X507164Y452191D1*
X3398231Y755543D2*
D74*
Y675159D1*
X3371437D1*
X3359940Y679050D1*
X3352247Y686656D1*
X3348444Y694349D1*
X3344642Y705757D1*
Y724946D1*
X3348444Y736442D1*
X3352247Y744047D1*
X3359940Y751741D1*
X3371437Y755543D1*
X3398231D1*
X3274043Y728749D2*
Y675159D1*
Y717253D2*
X3281648Y724946D1*
X3289342Y728749D1*
X3300749D1*
X3308443Y724946D1*
X3316048Y717253D1*
X3319939Y705757D1*
Y698152D1*
X3316048Y686656D1*
X3308443Y679050D1*
X3300749Y675159D1*
X3289342D1*
X3281648Y679050D1*
X3274043Y686656D1*
X3249340Y728749D2*
Y675159D1*
Y713450D2*
X3237844Y724946D1*
X3230151Y728749D1*
X3218743D1*
X3211050Y724946D1*
X3207247Y713450D1*
Y675159D1*
X3136649Y724946D2*
Y663663D1*
X3140451Y652256D1*
X3144254Y648365D1*
X3151947Y644562D1*
X3163443D1*
X3171048Y648365D1*
X3136649Y713450D2*
X3144254Y721055D1*
X3151947Y724946D1*
X3163443D1*
X3171048Y721055D1*
X3178742Y713450D1*
X3182544Y701954D1*
Y694261D1*
X3178742Y682853D1*
X3171048Y675159D1*
X3163443Y671357D1*
X3151947D1*
X3144254Y675159D1*
X3136649Y682853D1*
X3111946Y705757D2*
X3066050D1*
Y713450D1*
X3069852Y721144D1*
X3073655Y724946D1*
X3081349Y728749D1*
X3092845D1*
X3100450Y724946D1*
X3108143Y717253D1*
X3111946Y705757D1*
Y698152D1*
X3108143Y686656D1*
X3100450Y679050D1*
X3092845Y675159D1*
X3081349D1*
X3073655Y679050D1*
X3066050Y686656D1*
X3041347Y728749D2*
Y675159D1*
Y705757D2*
X3037456Y717253D1*
X3029851Y724946D1*
X3022158Y728749D1*
X3010661D1*
X3450435Y490128D2*
D73*
Y439888D1*
X3416942Y490128D2*
Y439888D1*
X3450435Y466196D2*
X3416942D1*
X3401502Y490128D2*
X3399126Y487752D1*
X3396694Y490128D1*
X3399126Y492560D1*
X3401502Y490128D1*
X3399126Y473381D2*
Y439888D1*
X3352570Y471005D2*
Y432703D1*
X3354946Y425573D1*
X3357323Y423141D1*
X3362131Y420765D1*
X3369317D1*
X3374070Y423141D1*
X3352570Y463820D2*
X3357323Y468573D1*
X3362131Y471005D1*
X3369317D1*
X3374070Y468573D1*
X3378878Y463820D1*
X3381255Y456635D1*
Y451826D1*
X3378878Y444697D1*
X3374070Y439888D1*
X3369317Y437512D1*
X3362131D1*
X3357323Y439888D1*
X3352570Y444697D1*
X3337131Y490128D2*
Y439888D1*
Y463820D2*
X3329946Y471005D1*
X3325137Y473381D1*
X3317952D1*
X3313199Y471005D1*
X3310822Y463820D1*
Y439888D1*
X3246782Y490128D2*
X3227659Y439888D1*
X3208536Y490128D1*
X3181158Y473381D2*
X3185911Y471005D1*
X3190720Y466196D1*
X3193096Y459011D1*
Y454258D1*
X3190720Y447073D1*
X3185911Y442320D1*
X3181158Y439888D1*
X3173973D1*
X3169165Y442320D1*
X3164411Y447073D1*
X3161980Y454258D1*
Y459011D1*
X3164411Y466196D1*
X3169165Y471005D1*
X3173973Y473381D1*
X3181158D1*
X3146540Y490128D2*
Y439888D1*
X3123916Y490128D2*
Y449450D1*
X3121539Y442320D1*
X3116731Y439888D1*
X3111978D1*
X3131101Y473381D2*
X3114354D1*
X3067854D2*
Y439888D1*
Y466196D2*
X3072607Y471005D1*
X3077415Y473381D1*
X3084545D1*
X3089354Y471005D1*
X3094107Y466196D1*
X3096539Y459011D1*
Y454258D1*
X3094107Y447073D1*
X3089354Y442320D1*
X3084545Y439888D1*
X3077415D1*
X3072607Y442320D1*
X3067854Y447073D1*
X3023730Y471005D2*
Y432703D1*
X3026106Y425573D1*
X3028483Y423141D1*
X3033291Y420765D1*
X3040476D1*
X3045229Y423141D1*
X3023730Y463820D2*
X3028483Y468573D1*
X3033291Y471005D1*
X3040476D1*
X3045229Y468573D1*
X3050038Y463820D1*
X3052414Y456635D1*
Y451826D1*
X3050038Y444697D1*
X3045229Y439888D1*
X3040476Y437512D1*
X3033291D1*
X3028483Y439888D1*
X3023730Y444697D1*
X3008290Y459011D2*
X2979605D1*
Y463820D1*
X2981982Y468628D1*
X2984359Y471005D1*
X2989167Y473381D1*
X2996352D1*
X3001105Y471005D1*
X3005914Y466196D1*
X3008290Y459011D1*
Y454258D1*
X3005914Y447073D1*
X3001105Y442320D1*
X2996352Y439888D1*
X2989167D1*
X2984359Y442320D1*
X2979605Y447073D1*
M02*
