G04 DipTrace 3.0.0.1*
G04 BottomMask.gbr*
%MOIN*%
G04 #@! TF.FileFunction,Soldermask,Bot*
G04 #@! TF.Part,Single*
%AMOUTLINE1*5,1,4,0,0,0.082002,90.0*%
%AMOUTLINE4*5,1,4,0,0,0.082002,-179.999998*%
%ADD50C,0.062992*%
%ADD52C,0.066929*%
%ADD56O,0.094488X0.149606*%
%ADD58C,0.204724*%
%ADD60C,0.185039*%
%ADD64C,0.066929*%
%ADD66R,0.066929X0.066929*%
%ADD70O,0.098425X0.125984*%
%ADD78OUTLINE1*%
%ADD81OUTLINE4*%
%FSLAX26Y26*%
G04*
G70*
G90*
G75*
G01*
G04 BotMask*
%LPD*%
D70*
X931103Y589370D3*
X734252D3*
X537402D3*
X3414961D3*
X3218110D3*
X3021260D3*
D66*
X2418898Y2480709D3*
D64*
Y2878347D3*
D60*
X1000394Y2642520D3*
D58*
Y2406299D3*
D60*
X815355Y2524410D3*
D56*
X734252Y1555906D3*
X499252Y1475906D3*
X969252D3*
Y995906D3*
X499252D3*
X3218504Y1555906D3*
X2983504Y1475906D3*
X3453504D3*
Y995906D3*
X2983504D3*
D66*
X1658268Y1687402D3*
D52*
X1758268D3*
Y1987402D3*
X1658268D3*
D66*
X2138583Y1690945D3*
D52*
X2238583D3*
Y1990945D3*
X2138583D3*
D50*
X1809843Y1140158D3*
X1859843Y1190158D3*
D78*
X1909843Y1140158D3*
D50*
X2179921Y1095276D3*
X2129921Y1145276D3*
D81*
X2179921Y1195276D3*
D66*
X2613780Y2793701D3*
D64*
X2713780D3*
X2613780Y2693701D3*
X2713780D3*
X2613780Y2593701D3*
X2713780D3*
X2613780Y2493701D3*
X2713780D3*
X2613780Y2393701D3*
X2713780D3*
X2613780Y2293701D3*
X2713780D3*
X2613780Y2193701D3*
X2713780D3*
X2613780Y2093701D3*
X2713780D3*
X2613780Y1993701D3*
X2713780D3*
X2613780Y1893701D3*
X2713780D3*
X2613780Y1793701D3*
X2713780D3*
X2613780Y1693701D3*
X2713780D3*
X2613780Y1593701D3*
X2713780D3*
X2613780Y1493701D3*
X2713780D3*
X2613780Y1393701D3*
X2713780D3*
X2613780Y1293701D3*
X2713780D3*
X2613780Y1193701D3*
X2713780D3*
X2613780Y1093701D3*
X2713780D3*
X2613780Y993701D3*
X2713780D3*
X2613780Y893701D3*
X2713780D3*
D66*
X1238977Y2793701D3*
D64*
X1338977D3*
X1238977Y2693701D3*
X1338977D3*
X1238977Y2593701D3*
X1338977D3*
X1238977Y2493701D3*
X1338977D3*
X1238977Y2393701D3*
X1338977D3*
X1238977Y2293701D3*
X1338977D3*
X1238977Y2193701D3*
X1338977D3*
X1238977Y2093701D3*
X1338977D3*
X1238977Y1993701D3*
X1338977D3*
X1238977Y1893701D3*
X1338977D3*
X1238977Y1793701D3*
X1338977D3*
X1238977Y1693701D3*
X1338977D3*
X1238977Y1593701D3*
X1338977D3*
X1238977Y1493701D3*
X1338977D3*
X1238977Y1393701D3*
X1338977D3*
X1238977Y1293701D3*
X1338977D3*
X1238977Y1193701D3*
X1338977D3*
X1238977Y1093701D3*
X1338977D3*
X1238977Y993701D3*
X1338977D3*
X1238977Y893701D3*
X1338977D3*
D52*
X2051575Y2290551D3*
Y2390551D3*
Y2490551D3*
M02*
