G04 DipTrace 3.0.0.1*
G04 Bottom.gbr*
%MOIN*%
G04 #@! TF.FileFunction,Copper,L2,Bot*
G04 #@! TF.Part,Single*
%AMOUTLINE0*5,1,4,0,0,0.070866,90.0*%
%AMOUTLINE3*5,1,4,0,0,0.070866,-180.0*%
G04 #@! TA.AperFunction,Conductor*
%ADD14C,0.008*%
G04 #@! TA.AperFunction,ComponentPad*
%ADD16C,0.059055*%
G04 #@! TA.AperFunction,Conductor*
%ADD19C,0.090551*%
%ADD20C,0.1*%
%ADD21C,0.086614*%
G04 #@! TA.AperFunction,CopperBalancing*
%ADD23C,0.025*%
G04 #@! TA.AperFunction,ComponentPad*
%ADD24O,0.090551X0.11811*%
%ADD26R,0.059055X0.059055*%
%ADD27C,0.059055*%
%ADD29O,0.177165X0.07874*%
%ADD30O,0.19685X0.07874*%
%ADD31O,0.07874X0.177165*%
%ADD32O,0.086614X0.141732*%
%ADD34C,0.055118*%
G04 #@! TA.AperFunction,ViaPad*
%ADD37C,0.038*%
G04 #@! TA.AperFunction,ComponentPad*
%ADD78OUTLINE0*%
%ADD81OUTLINE3*%
%FSLAX26Y26*%
G04*
G70*
G90*
G75*
G01*
G04 Bottom*
%LPD*%
X1570079Y969292D2*
D14*
X1638977D1*
X1809843Y1140158D1*
X1521654Y1227166D2*
X1722835D1*
X1809843Y1140158D1*
X2433465Y958662D2*
X2316536D1*
X2179921Y1095276D1*
X2521260Y1329528D2*
Y1475197D1*
X2519292Y1477166D1*
X2446457Y2077166D2*
Y2285433D1*
X2551969Y2390945D1*
X2611024D1*
X2613780Y2393701D1*
X2129134Y1458662D2*
Y1549213D1*
X2166142Y1586221D1*
X2293307D1*
X2322047Y1614961D1*
Y1907481D1*
X2238583Y1990945D1*
X734252Y589370D2*
D19*
Y696063D1*
D20*
Y1432677D1*
D21*
Y1555906D1*
X3218110Y589370D2*
D19*
Y698425D1*
D20*
Y1555512D1*
D21*
X3218504Y1555906D1*
X3414961Y589370D2*
D19*
Y588977D1*
D20*
X3453504Y627520D1*
Y995906D1*
X931103Y589370D2*
D19*
X942126D1*
D20*
X969252Y616496D1*
Y995906D1*
X3021260Y589370D2*
D19*
Y579134D1*
D20*
X2983504Y616890D1*
Y995906D1*
X537402Y589370D2*
D19*
X531890D1*
D20*
X499252Y622008D1*
Y995906D1*
D37*
X1570079Y969292D3*
X1521654Y1227166D3*
X2433465Y958662D3*
X2521260Y1329528D3*
X2519292Y1477166D3*
X2446457Y2077166D3*
X2129134Y1458662D3*
X789007Y2889403D2*
D23*
X2754271D1*
X789007Y2864534D2*
X2754271D1*
X789007Y2839666D2*
X1304466D1*
X1373479D2*
X2679271D1*
X789007Y2814797D2*
X1284592D1*
X1393352D2*
X2659397D1*
X789007Y2789928D2*
X1280588D1*
X1397356D2*
X2655394D1*
X789007Y2765059D2*
X1288352D1*
X1389642D2*
X2663156D1*
X789007Y2740191D2*
X1205198D1*
X1272747D2*
X1319895D1*
X1358050D2*
X2580003D1*
X2647551D2*
X2680003D1*
X789007Y2715322D2*
X1184788D1*
X1293156D2*
X2559592D1*
X789007Y2690453D2*
X1180540D1*
X1297404D2*
X2555344D1*
X789007Y2665584D2*
X1188011D1*
X1289935D2*
X2562815D1*
X789007Y2640715D2*
X1206028D1*
X1271916D2*
X1306028D1*
X1371916D2*
X2580832D1*
X2646722D2*
X2680832D1*
X868400Y2615847D2*
X1185032D1*
X1392912D2*
X2559836D1*
X881390Y2590978D2*
X1180540D1*
X1397454D2*
X2555344D1*
X883732Y2566109D2*
X1187718D1*
X1390227D2*
X2562523D1*
X883732Y2541240D2*
X1206858D1*
X1271135D2*
X1306858D1*
X1371135D2*
X2025218D1*
X2077923D2*
X2581663D1*
X2645891D2*
X2681663D1*
X883732Y2516372D2*
X1185227D1*
X1392718D2*
X1999339D1*
X2103802D2*
X2360374D1*
X2477435D2*
X2560032D1*
X883732Y2491503D2*
X1180491D1*
X1397454D2*
X1993040D1*
X2110100D2*
X2360374D1*
X2477435D2*
X2555295D1*
X883147Y2466634D2*
X912424D1*
X1088372D2*
X1187424D1*
X1390520D2*
X1998411D1*
X2104729D2*
X2360374D1*
X2477435D2*
X2562229D1*
X874603Y2441765D2*
X883319D1*
X1117424D2*
X1207688D1*
X1270256D2*
X1307688D1*
X1370256D2*
X2021555D1*
X2081584D2*
X2360374D1*
X2477435D2*
X2582492D1*
X2645061D2*
X2682492D1*
X848479Y2416897D2*
X873851D1*
X1126946D2*
X1185471D1*
X1392474D2*
X2533470D1*
X789007Y2392028D2*
X874534D1*
X1126263D2*
X1180491D1*
X1397454D2*
X2507444D1*
X789007Y2367159D2*
X885862D1*
X1114935D2*
X1187131D1*
X1390813D2*
X2482542D1*
X789007Y2342290D2*
X923313D1*
X1077483D2*
X1208616D1*
X1269378D2*
X1314231D1*
X1363714D2*
X2027610D1*
X2075530D2*
X2457688D1*
X2548919D2*
X2583420D1*
X2644183D2*
X2683420D1*
X789007Y2317421D2*
X1185715D1*
X1292229D2*
X1999924D1*
X2103215D2*
X2432835D1*
X2524065D2*
X2560520D1*
X789007Y2292553D2*
X1180491D1*
X1297503D2*
X1993088D1*
X2110051D2*
X2414328D1*
X2499211D2*
X2555295D1*
X789007Y2267684D2*
X1186887D1*
X1291107D2*
X1997923D1*
X2105218D2*
X2413450D1*
X2479436D2*
X2561692D1*
X789007Y2242815D2*
X1209544D1*
X1268400D2*
X1309544D1*
X1368400D2*
X2019748D1*
X2083391D2*
X2413450D1*
X2479436D2*
X2584348D1*
X2643206D2*
X2684348D1*
X789007Y2217946D2*
X1185960D1*
X1391984D2*
X2413450D1*
X2479436D2*
X2560764D1*
X789007Y2193078D2*
X1180442D1*
X1397503D2*
X2413450D1*
X2479436D2*
X2555247D1*
X789007Y2168209D2*
X1186595D1*
X1391351D2*
X2413450D1*
X2479436D2*
X2561399D1*
X789007Y2143340D2*
X1210520D1*
X1267424D2*
X1310520D1*
X1367424D2*
X2413450D1*
X2479436D2*
X2585324D1*
X2642229D2*
X2685324D1*
X789007Y2118471D2*
X1186252D1*
X1391740D2*
X2413450D1*
X2479436D2*
X2561058D1*
X789007Y2093603D2*
X1180442D1*
X1397503D2*
X2401536D1*
X2491399D2*
X2555247D1*
X789007Y2068734D2*
X1186351D1*
X1391643D2*
X2399240D1*
X2493645D2*
X2561155D1*
X789007Y2043865D2*
X1210911D1*
X1267083D2*
X1310911D1*
X1367083D2*
X2117698D1*
X2159466D2*
X2217698D1*
X2259466D2*
X2412962D1*
X2479974D2*
X2585715D1*
X2641887D2*
X2685715D1*
X789007Y2018996D2*
X1186496D1*
X1391448D2*
X1609495D1*
X1807024D2*
X2087571D1*
X2289592D2*
X2561302D1*
X789007Y1994128D2*
X1180442D1*
X1397503D2*
X1600168D1*
X1816399D2*
X2080149D1*
X2297015D2*
X2555247D1*
X789007Y1969259D2*
X1186058D1*
X1391887D2*
X1602756D1*
X1813763D2*
X2084446D1*
X2305900D2*
X2560862D1*
X789007Y1944390D2*
X1209886D1*
X1268059D2*
X1309886D1*
X1368059D2*
X1619895D1*
X1696672D2*
X1719895D1*
X1796672D2*
X2104904D1*
X2172259D2*
X2204904D1*
X2330755D2*
X2584691D1*
X2642864D2*
X2684691D1*
X789007Y1919521D2*
X1186740D1*
X1391204D2*
X2264378D1*
X2352580D2*
X2561546D1*
X789007Y1894652D2*
X1180442D1*
X1397503D2*
X2289036D1*
X2355023D2*
X2555247D1*
X789007Y1869784D2*
X1185813D1*
X1392131D2*
X2289036D1*
X2355023D2*
X2560618D1*
X789007Y1844915D2*
X1208958D1*
X1268987D2*
X1308958D1*
X1368987D2*
X2289036D1*
X2355023D2*
X2583763D1*
X2643792D2*
X2683763D1*
X2743792D2*
X2754281D1*
X789007Y1820046D2*
X1187034D1*
X1390911D2*
X2289036D1*
X2355023D2*
X2754271D1*
X789007Y1795177D2*
X1180491D1*
X1397454D2*
X2289036D1*
X2355023D2*
X2754271D1*
X789007Y1770309D2*
X1185568D1*
X1392376D2*
X2289036D1*
X2355023D2*
X2754271D1*
X1116984Y1745440D2*
X1208030D1*
X1269915D2*
X1308030D1*
X1369915D2*
X2080051D1*
X2197112D2*
X2223118D1*
X2254046D2*
X2289036D1*
X2355023D2*
X2589816D1*
X2637736D2*
X2689816D1*
X2737736D2*
X2754299D1*
X1116984Y1720571D2*
X1187327D1*
X1390618D2*
X1599729D1*
X1805900D2*
X2080051D1*
X2355023D2*
X2562131D1*
X1116984Y1695702D2*
X1180491D1*
X1397454D2*
X1599729D1*
X1816155D2*
X2080051D1*
X2355023D2*
X2555295D1*
X2772259D2*
X2848362D1*
X1116984Y1670834D2*
X1185324D1*
X1392620D2*
X1599729D1*
X1814299D2*
X2080051D1*
X2355023D2*
X2560130D1*
X2767424D2*
X2848362D1*
X1116984Y1645965D2*
X1207151D1*
X1270794D2*
X1307151D1*
X1370794D2*
X1599729D1*
X1798479D2*
X2080051D1*
X2274456D2*
X2289033D1*
X2355023D2*
X2581956D1*
X2645599D2*
X2681956D1*
X2745599D2*
X2848362D1*
X1116984Y1621096D2*
X1187620D1*
X1390324D2*
X2282542D1*
X2355023D2*
X2562424D1*
X2765130D2*
X2848362D1*
X1116984Y1596227D2*
X1180491D1*
X1397454D2*
X2130540D1*
X2348626D2*
X2555295D1*
X2772259D2*
X2848362D1*
X1116984Y1571358D2*
X1185130D1*
X1392864D2*
X2105638D1*
X2324065D2*
X2559886D1*
X2767668D2*
X2848362D1*
X1116984Y1546490D2*
X1206320D1*
X1271624D2*
X1306320D1*
X1371624D2*
X2096164D1*
X2172015D2*
X2581126D1*
X2646428D2*
X2681126D1*
X2746428D2*
X2848362D1*
X1116984Y1521621D2*
X1187912D1*
X1390032D2*
X2096164D1*
X2162103D2*
X2507151D1*
X2531473D2*
X2562718D1*
X2764836D2*
X2848362D1*
X1116984Y1496752D2*
X1180540D1*
X1397404D2*
X2096164D1*
X2162103D2*
X2475755D1*
X2772210D2*
X2848362D1*
X1116984Y1471883D2*
X1184886D1*
X1393059D2*
X2083128D1*
X2175139D2*
X2471604D1*
X2767864D2*
X2848362D1*
X1116984Y1447015D2*
X1205540D1*
X1272454D2*
X1305540D1*
X1372454D2*
X2082639D1*
X2175628D2*
X2482736D1*
X2555852D2*
X2580295D1*
X2647259D2*
X2680295D1*
X2747259D2*
X2848362D1*
X1116984Y1422146D2*
X1188206D1*
X1389739D2*
X2099484D1*
X2158782D2*
X2488255D1*
X2554240D2*
X2563015D1*
X2764544D2*
X2848362D1*
X1116984Y1397277D2*
X1180588D1*
X1397404D2*
X2488255D1*
X2772160D2*
X2848362D1*
X1116984Y1372408D2*
X1184642D1*
X1393303D2*
X2488255D1*
X2768108D2*
X2848362D1*
X1116984Y1347540D2*
X1204759D1*
X1273235D2*
X1304759D1*
X1373235D2*
X2476975D1*
X2565520D2*
X2579572D1*
X2648040D2*
X2679563D1*
X2748040D2*
X2848362D1*
X1116984Y1322671D2*
X1188547D1*
X1389446D2*
X2473802D1*
X2764251D2*
X2848362D1*
X1116984Y1297802D2*
X1180588D1*
X1397356D2*
X2486155D1*
X2772160D2*
X2848362D1*
X1393499Y1272933D2*
X2559251D1*
X2768303D2*
X2848362D1*
X1273967Y1248065D2*
X1303977D1*
X1373967D2*
X1478732D1*
X1747551D2*
X2578782D1*
X2648772D2*
X2678782D1*
X1389104Y1223196D2*
X1473851D1*
X1772404D2*
X1814572D1*
X1905120D2*
X2563645D1*
X1397307Y1198327D2*
X1483958D1*
X1915764D2*
X2117063D1*
X2142767D2*
X2555442D1*
X1393694Y1173458D2*
X1730931D1*
X1913763D2*
X2081320D1*
X2178558D2*
X2559055D1*
X1274700Y1148589D2*
X1303244D1*
X1374700D2*
X1753977D1*
X1896868D2*
X2073460D1*
X2191302D2*
X2578050D1*
X2649504D2*
X2678050D1*
X1388763Y1123721D2*
X1747776D1*
X1863811D2*
X2077855D1*
X2228362D2*
X2563987D1*
X1397259Y1098852D2*
X1722923D1*
X1847210D2*
X2099729D1*
X2236370D2*
X2555491D1*
X1393890Y1073983D2*
X1698068D1*
X1789299D2*
X2127756D1*
X2246819D2*
X2558860D1*
X1275383Y1049114D2*
X1302561D1*
X1375383D2*
X1673167D1*
X1764446D2*
X2149290D1*
X2271722D2*
X2577366D1*
X2650188D2*
X2677366D1*
X1388420Y1024246D2*
X1648313D1*
X1739544D2*
X2205344D1*
X2296575D2*
X2564328D1*
X1397210Y999377D2*
X1533470D1*
X1714691D2*
X2230198D1*
X2321428D2*
X2410667D1*
X2456243D2*
X2555540D1*
X1394084Y974508D2*
X1522386D1*
X1689836D2*
X2255051D1*
X2478607D2*
X2558664D1*
X1276067Y949639D2*
X1301878D1*
X1376067D2*
X1526536D1*
X1664935D2*
X2279954D1*
X2480559D2*
X2576683D1*
X2650872D2*
X2676683D1*
X1220500Y924771D2*
X1289866D1*
X1388079D2*
X1558226D1*
X1581961D2*
X2400608D1*
X2466302D2*
X2747580D1*
X1220500Y899902D2*
X1280784D1*
X1397160D2*
X2747580D1*
X1220500Y875033D2*
X1283664D1*
X1394280D2*
X2747580D1*
X1220500Y850164D2*
X1301243D1*
X1376751D2*
X2747580D1*
X941358Y2340439D2*
X931036Y2341248D1*
X920986Y2343660D1*
X911439Y2347616D1*
X902626Y2353016D1*
X894767Y2359727D1*
X888055Y2367587D1*
X882655Y2376399D1*
X878700Y2385946D1*
X876288Y2395996D1*
X875477Y2406299D1*
X876288Y2416603D1*
X878700Y2426652D1*
X882655Y2436200D1*
X888055Y2445012D1*
X894767Y2452872D1*
X902626Y2459583D1*
X911439Y2464983D1*
X920986Y2468939D1*
X931036Y2471351D1*
X941358Y2472160D1*
X1064617Y2471958D1*
X1074824Y2470341D1*
X1084654Y2467149D1*
X1093862Y2462456D1*
X1102223Y2456381D1*
X1109530Y2449074D1*
X1115605Y2440713D1*
X1120298Y2431504D1*
X1123491Y2421675D1*
X1125108Y2411467D1*
Y2401131D1*
X1123491Y2390924D1*
X1120298Y2381095D1*
X1115605Y2371886D1*
X1109530Y2363525D1*
X1102223Y2356218D1*
X1093862Y2350143D1*
X1084654Y2345450D1*
X1074824Y2342257D1*
X1064617Y2340641D1*
X1021949Y2340437D1*
X941339Y2340486D1*
X786499Y2632788D2*
X795002Y2636261D1*
X805051Y2638673D1*
X815355Y2639484D1*
X825658Y2638673D1*
X835708Y2636261D1*
X845255Y2632306D1*
X854067Y2626906D1*
X861927Y2620194D1*
X868638Y2612335D1*
X874038Y2603523D1*
X877994Y2593975D1*
X880406Y2583925D1*
X881217Y2573622D1*
X881013Y2470029D1*
X879397Y2459822D1*
X876204Y2449992D1*
X871511Y2440784D1*
X865436Y2432423D1*
X858129Y2425116D1*
X849768Y2419041D1*
X840559Y2414348D1*
X830730Y2411155D1*
X820523Y2409538D1*
X810187D1*
X799979Y2411155D1*
X790150Y2414348D1*
X786499Y2416032D1*
X786516Y1755435D1*
X1114469Y1755414D1*
Y1283782D1*
X1183843Y1283760D1*
X1182957Y1293701D1*
X1183647Y1302465D1*
X1185698Y1311012D1*
X1189063Y1319133D1*
X1193655Y1326629D1*
X1199365Y1333313D1*
X1206049Y1339023D1*
X1213715Y1343694D1*
X1206049Y1348379D1*
X1199365Y1354089D1*
X1193655Y1360773D1*
X1189063Y1368269D1*
X1185698Y1376390D1*
X1183647Y1384937D1*
X1182957Y1393701D1*
X1183647Y1402465D1*
X1185698Y1411012D1*
X1189063Y1419133D1*
X1193655Y1426629D1*
X1199365Y1433313D1*
X1206049Y1439023D1*
X1213715Y1443694D1*
X1206049Y1448379D1*
X1199365Y1454089D1*
X1193655Y1460773D1*
X1189063Y1468269D1*
X1185698Y1476390D1*
X1183647Y1484937D1*
X1182957Y1493701D1*
X1183647Y1502465D1*
X1185698Y1511012D1*
X1189063Y1519133D1*
X1193655Y1526629D1*
X1199365Y1533313D1*
X1206049Y1539023D1*
X1213715Y1543694D1*
X1206049Y1548379D1*
X1199365Y1554089D1*
X1193655Y1560773D1*
X1189063Y1568269D1*
X1185698Y1576390D1*
X1183647Y1584937D1*
X1182957Y1593701D1*
X1183647Y1602465D1*
X1185698Y1611012D1*
X1189063Y1619133D1*
X1193655Y1626629D1*
X1199365Y1633313D1*
X1206049Y1639023D1*
X1213715Y1643694D1*
X1206049Y1648379D1*
X1199365Y1654089D1*
X1193655Y1660773D1*
X1189063Y1668269D1*
X1185698Y1676390D1*
X1183647Y1684937D1*
X1182957Y1693701D1*
X1183647Y1702465D1*
X1185698Y1711012D1*
X1189063Y1719133D1*
X1193655Y1726629D1*
X1199365Y1733313D1*
X1206049Y1739023D1*
X1213715Y1743694D1*
X1206049Y1748379D1*
X1199365Y1754089D1*
X1193655Y1760773D1*
X1189063Y1768269D1*
X1185698Y1776390D1*
X1183647Y1784937D1*
X1182957Y1793701D1*
X1183647Y1802465D1*
X1185698Y1811012D1*
X1189063Y1819133D1*
X1193655Y1826629D1*
X1199365Y1833313D1*
X1206049Y1839023D1*
X1213715Y1843694D1*
X1206049Y1848379D1*
X1199365Y1854089D1*
X1193655Y1860773D1*
X1189063Y1868269D1*
X1185698Y1876390D1*
X1183647Y1884937D1*
X1182957Y1893701D1*
X1183647Y1902465D1*
X1185698Y1911012D1*
X1189063Y1919133D1*
X1193655Y1926629D1*
X1199365Y1933313D1*
X1206049Y1939023D1*
X1213715Y1943694D1*
X1206049Y1948379D1*
X1199365Y1954089D1*
X1193655Y1960773D1*
X1189063Y1968269D1*
X1185698Y1976390D1*
X1183647Y1984937D1*
X1182957Y1993701D1*
X1183647Y2002465D1*
X1185698Y2011012D1*
X1189063Y2019133D1*
X1193655Y2026629D1*
X1199365Y2033313D1*
X1206049Y2039023D1*
X1213715Y2043694D1*
X1206049Y2048379D1*
X1199365Y2054089D1*
X1193655Y2060773D1*
X1189063Y2068269D1*
X1185698Y2076390D1*
X1183647Y2084937D1*
X1182957Y2093701D1*
X1183647Y2102465D1*
X1185698Y2111012D1*
X1189063Y2119133D1*
X1193655Y2126629D1*
X1199365Y2133313D1*
X1206049Y2139023D1*
X1213715Y2143694D1*
X1206049Y2148379D1*
X1199365Y2154089D1*
X1193655Y2160773D1*
X1189063Y2168269D1*
X1185698Y2176390D1*
X1183647Y2184937D1*
X1182957Y2193701D1*
X1183647Y2202465D1*
X1185698Y2211012D1*
X1189063Y2219133D1*
X1193655Y2226629D1*
X1199365Y2233313D1*
X1206049Y2239023D1*
X1213715Y2243694D1*
X1206049Y2248379D1*
X1199365Y2254089D1*
X1193655Y2260773D1*
X1189063Y2268269D1*
X1185698Y2276390D1*
X1183647Y2284937D1*
X1182957Y2293701D1*
X1183647Y2302465D1*
X1185698Y2311012D1*
X1189063Y2319133D1*
X1193655Y2326629D1*
X1199365Y2333313D1*
X1206049Y2339023D1*
X1213715Y2343694D1*
X1206049Y2348379D1*
X1199365Y2354089D1*
X1193655Y2360773D1*
X1189063Y2368269D1*
X1185698Y2376390D1*
X1183647Y2384937D1*
X1182957Y2393701D1*
X1183647Y2402465D1*
X1185698Y2411012D1*
X1189063Y2419133D1*
X1193655Y2426629D1*
X1199365Y2433313D1*
X1206049Y2439023D1*
X1213715Y2443694D1*
X1206049Y2448379D1*
X1199365Y2454089D1*
X1193655Y2460773D1*
X1189063Y2468269D1*
X1185698Y2476390D1*
X1183647Y2484937D1*
X1182957Y2493701D1*
X1183647Y2502465D1*
X1185698Y2511012D1*
X1189063Y2519133D1*
X1193655Y2526629D1*
X1199365Y2533313D1*
X1206049Y2539023D1*
X1213715Y2543694D1*
X1206049Y2548379D1*
X1199365Y2554089D1*
X1193655Y2560773D1*
X1189063Y2568269D1*
X1185698Y2576390D1*
X1183647Y2584937D1*
X1182957Y2593701D1*
X1183647Y2602465D1*
X1185698Y2611012D1*
X1189063Y2619133D1*
X1193655Y2626629D1*
X1199365Y2633313D1*
X1206049Y2639023D1*
X1213715Y2643694D1*
X1206049Y2648379D1*
X1199365Y2654089D1*
X1193655Y2660773D1*
X1189063Y2668269D1*
X1185698Y2676390D1*
X1183647Y2684937D1*
X1182957Y2693701D1*
X1183647Y2702465D1*
X1185698Y2711012D1*
X1189063Y2719133D1*
X1193655Y2726629D1*
X1199365Y2733313D1*
X1206049Y2739023D1*
X1213545Y2743614D1*
X1221666Y2746979D1*
X1230213Y2749030D1*
X1238977Y2749721D1*
X1247740Y2749030D1*
X1256288Y2746979D1*
X1264408Y2743614D1*
X1271904Y2739023D1*
X1278588Y2733313D1*
X1284298Y2726629D1*
X1288890Y2719133D1*
X1292255Y2711012D1*
X1294306Y2702465D1*
X1294996Y2693701D1*
X1294306Y2684937D1*
X1292255Y2676390D1*
X1288890Y2668269D1*
X1284298Y2660773D1*
X1278588Y2654089D1*
X1271904Y2648379D1*
X1264238Y2643708D1*
X1271904Y2639023D1*
X1278588Y2633313D1*
X1284298Y2626629D1*
X1288970Y2618962D1*
X1293655Y2626629D1*
X1299365Y2633313D1*
X1306049Y2639023D1*
X1313545Y2643614D1*
X1321666Y2646979D1*
X1330213Y2649030D1*
X1338977Y2649721D1*
X1347740Y2649030D1*
X1356288Y2646979D1*
X1364408Y2643614D1*
X1371904Y2639023D1*
X1378588Y2633313D1*
X1384298Y2626629D1*
X1388890Y2619133D1*
X1392255Y2611012D1*
X1394306Y2602465D1*
X1394996Y2593701D1*
X1394306Y2584937D1*
X1392255Y2576390D1*
X1388890Y2568269D1*
X1384298Y2560773D1*
X1378588Y2554089D1*
X1371904Y2548379D1*
X1364238Y2543708D1*
X1371904Y2539023D1*
X1378588Y2533313D1*
X1384298Y2526629D1*
X1388890Y2519133D1*
X1392255Y2511012D1*
X1394306Y2502465D1*
X1394996Y2493701D1*
X1394306Y2484937D1*
X1392255Y2476390D1*
X1388890Y2468269D1*
X1384298Y2460773D1*
X1378588Y2454089D1*
X1371904Y2448379D1*
X1364238Y2443708D1*
X1371904Y2439023D1*
X1378588Y2433313D1*
X1384298Y2426629D1*
X1388890Y2419133D1*
X1392255Y2411012D1*
X1394306Y2402465D1*
X1394996Y2393701D1*
X1394306Y2384937D1*
X1392255Y2376390D1*
X1388890Y2368269D1*
X1384298Y2360773D1*
X1378588Y2354089D1*
X1371904Y2348379D1*
X1364408Y2343788D1*
X1356288Y2340423D1*
X1347740Y2338372D1*
X1338977Y2337681D1*
X1330213Y2338372D1*
X1321666Y2340423D1*
X1313545Y2343788D1*
X1306049Y2348379D1*
X1299365Y2354089D1*
X1293655Y2360773D1*
X1288983Y2368440D1*
X1284298Y2360773D1*
X1278588Y2354089D1*
X1271904Y2348379D1*
X1264238Y2343708D1*
X1271904Y2339023D1*
X1278588Y2333313D1*
X1284298Y2326629D1*
X1288890Y2319133D1*
X1292255Y2311012D1*
X1294306Y2302465D1*
X1294996Y2293701D1*
X1294306Y2284937D1*
X1292255Y2276390D1*
X1288890Y2268269D1*
X1284298Y2260773D1*
X1278588Y2254089D1*
X1271904Y2248379D1*
X1264238Y2243708D1*
X1271904Y2239023D1*
X1278588Y2233313D1*
X1284298Y2226629D1*
X1288970Y2218962D1*
X1293655Y2226629D1*
X1299365Y2233313D1*
X1306049Y2239023D1*
X1313545Y2243614D1*
X1321666Y2246979D1*
X1330213Y2249030D1*
X1338977Y2249721D1*
X1347740Y2249030D1*
X1356288Y2246979D1*
X1364408Y2243614D1*
X1371904Y2239023D1*
X1378588Y2233313D1*
X1384298Y2226629D1*
X1388890Y2219133D1*
X1392255Y2211012D1*
X1394306Y2202465D1*
X1394996Y2193701D1*
X1394306Y2184937D1*
X1392255Y2176390D1*
X1388890Y2168269D1*
X1384298Y2160773D1*
X1378588Y2154089D1*
X1371904Y2148379D1*
X1364238Y2143708D1*
X1371904Y2139023D1*
X1378588Y2133313D1*
X1384298Y2126629D1*
X1388890Y2119133D1*
X1392255Y2111012D1*
X1394306Y2102465D1*
X1394996Y2093701D1*
X1394306Y2084937D1*
X1392255Y2076390D1*
X1388890Y2068269D1*
X1384298Y2060773D1*
X1378588Y2054089D1*
X1371904Y2048379D1*
X1364238Y2043708D1*
X1371904Y2039023D1*
X1378588Y2033313D1*
X1384298Y2026629D1*
X1388890Y2019133D1*
X1392255Y2011012D1*
X1394306Y2002465D1*
X1394996Y1993701D1*
X1394306Y1984937D1*
X1392255Y1976390D1*
X1388890Y1968269D1*
X1384298Y1960773D1*
X1378588Y1954089D1*
X1371904Y1948379D1*
X1364238Y1943708D1*
X1371904Y1939023D1*
X1378588Y1933313D1*
X1384298Y1926629D1*
X1388890Y1919133D1*
X1392255Y1911012D1*
X1394306Y1902465D1*
X1394996Y1893701D1*
X1394306Y1884937D1*
X1392255Y1876390D1*
X1388890Y1868269D1*
X1384298Y1860773D1*
X1378588Y1854089D1*
X1371904Y1848379D1*
X1364238Y1843708D1*
X1371904Y1839023D1*
X1378588Y1833313D1*
X1384298Y1826629D1*
X1388890Y1819133D1*
X1392255Y1811012D1*
X1394306Y1802465D1*
X1394996Y1793701D1*
X1394306Y1784937D1*
X1392255Y1776390D1*
X1388890Y1768269D1*
X1384298Y1760773D1*
X1378588Y1754089D1*
X1371904Y1748379D1*
X1364238Y1743708D1*
X1371904Y1739023D1*
X1378588Y1733313D1*
X1384298Y1726629D1*
X1388890Y1719133D1*
X1392255Y1711012D1*
X1394306Y1702465D1*
X1394996Y1693701D1*
X1394306Y1684937D1*
X1392255Y1676390D1*
X1388890Y1668269D1*
X1384298Y1660773D1*
X1378588Y1654089D1*
X1371904Y1648379D1*
X1364238Y1643708D1*
X1371904Y1639023D1*
X1378588Y1633313D1*
X1384298Y1626629D1*
X1388890Y1619133D1*
X1392255Y1611012D1*
X1394306Y1602465D1*
X1394996Y1593701D1*
X1394306Y1584937D1*
X1392255Y1576390D1*
X1388890Y1568269D1*
X1384298Y1560773D1*
X1378588Y1554089D1*
X1371904Y1548379D1*
X1364238Y1543708D1*
X1371904Y1539023D1*
X1378588Y1533313D1*
X1384298Y1526629D1*
X1388890Y1519133D1*
X1392255Y1511012D1*
X1394306Y1502465D1*
X1394996Y1493701D1*
X1394306Y1484937D1*
X1392255Y1476390D1*
X1388890Y1468269D1*
X1384298Y1460773D1*
X1378588Y1454089D1*
X1371904Y1448379D1*
X1364238Y1443708D1*
X1371904Y1439023D1*
X1378588Y1433313D1*
X1384298Y1426629D1*
X1388890Y1419133D1*
X1392255Y1411012D1*
X1394306Y1402465D1*
X1394996Y1393701D1*
X1394306Y1384937D1*
X1392255Y1376390D1*
X1388890Y1368269D1*
X1384298Y1360773D1*
X1378588Y1354089D1*
X1371904Y1348379D1*
X1364238Y1343708D1*
X1371904Y1339023D1*
X1378588Y1333313D1*
X1384298Y1326629D1*
X1388890Y1319133D1*
X1392255Y1311012D1*
X1394306Y1302465D1*
X1394996Y1293701D1*
X1394306Y1284937D1*
X1392255Y1276390D1*
X1388890Y1268269D1*
X1384298Y1260773D1*
X1378588Y1254089D1*
X1371904Y1248379D1*
X1364238Y1243708D1*
X1371904Y1239023D1*
X1378588Y1233313D1*
X1384298Y1226629D1*
X1388890Y1219133D1*
X1392255Y1211012D1*
X1394306Y1202465D1*
X1394996Y1193701D1*
X1394306Y1184937D1*
X1392255Y1176390D1*
X1388890Y1168269D1*
X1384298Y1160773D1*
X1378588Y1154089D1*
X1371904Y1148379D1*
X1364238Y1143708D1*
X1371904Y1139023D1*
X1378588Y1133313D1*
X1384298Y1126629D1*
X1388890Y1119133D1*
X1392255Y1111012D1*
X1394306Y1102465D1*
X1394996Y1093701D1*
X1394306Y1084937D1*
X1392255Y1076390D1*
X1388890Y1068269D1*
X1384298Y1060773D1*
X1378588Y1054089D1*
X1371904Y1048379D1*
X1364238Y1043708D1*
X1371904Y1039023D1*
X1378588Y1033313D1*
X1384298Y1026629D1*
X1388890Y1019133D1*
X1392255Y1011012D1*
X1394306Y1002465D1*
X1394996Y993701D1*
X1394306Y984937D1*
X1392255Y976390D1*
X1388890Y968269D1*
X1384298Y960773D1*
X1378588Y954089D1*
X1371904Y948379D1*
X1364238Y943708D1*
X1371904Y939023D1*
X1378588Y933313D1*
X1384298Y926629D1*
X1388890Y919133D1*
X1392255Y911012D1*
X1394306Y902465D1*
X1394996Y893701D1*
X1394306Y884937D1*
X1392255Y876390D1*
X1388890Y868269D1*
X1384298Y860773D1*
X1378588Y854089D1*
X1371904Y848379D1*
X1364408Y843788D1*
X1356288Y840423D1*
X1347740Y838372D1*
X1338977Y837681D1*
X1330213Y838372D1*
X1321666Y840423D1*
X1313545Y843788D1*
X1306049Y848379D1*
X1299365Y854089D1*
X1293655Y860773D1*
X1289063Y868269D1*
X1285698Y876390D1*
X1283647Y884937D1*
X1282957Y893701D1*
X1283647Y902465D1*
X1285698Y911012D1*
X1289063Y919133D1*
X1293655Y926629D1*
X1299365Y933313D1*
X1306049Y939023D1*
X1313715Y943694D1*
X1306049Y948379D1*
X1299365Y954089D1*
X1293655Y960773D1*
X1288983Y968440D1*
X1284298Y960773D1*
X1278588Y954089D1*
X1271904Y948379D1*
X1264408Y943788D1*
X1256288Y940423D1*
X1247740Y938372D1*
X1238977Y937681D1*
X1230213Y938372D1*
X1221666Y940423D1*
X1218007Y941773D1*
X1218012Y825899D1*
X2750121Y825886D1*
X2750099Y951013D1*
X2743050Y945936D1*
X2735218Y941945D1*
X2726857Y939229D1*
X2718175Y937855D1*
X2709385D1*
X2700702Y939229D1*
X2692341Y941945D1*
X2684509Y945936D1*
X2677398Y951104D1*
X2671183Y957319D1*
X2666015Y964431D1*
X2663693Y968269D1*
X2659101Y960773D1*
X2653391Y954089D1*
X2646708Y948379D1*
X2639211Y943788D1*
X2631091Y940423D1*
X2622544Y938372D1*
X2613780Y937681D1*
X2605016Y938372D1*
X2596469Y940423D1*
X2588348Y943788D1*
X2580852Y948379D1*
X2574168Y954089D1*
X2568458Y960773D1*
X2563866Y968269D1*
X2560502Y976390D1*
X2558450Y984937D1*
X2557760Y993701D1*
X2558450Y1002465D1*
X2560502Y1011012D1*
X2563866Y1019133D1*
X2568458Y1026629D1*
X2574168Y1033313D1*
X2580852Y1039023D1*
X2588519Y1043694D1*
X2580852Y1048379D1*
X2574168Y1054089D1*
X2568458Y1060773D1*
X2563866Y1068269D1*
X2560502Y1076390D1*
X2558450Y1084937D1*
X2557760Y1093701D1*
X2558450Y1102465D1*
X2560502Y1111012D1*
X2563866Y1119133D1*
X2568458Y1126629D1*
X2574168Y1133313D1*
X2580852Y1139023D1*
X2588519Y1143694D1*
X2580852Y1148379D1*
X2574168Y1154089D1*
X2568458Y1160773D1*
X2563866Y1168269D1*
X2560502Y1176390D1*
X2558450Y1184937D1*
X2557760Y1193701D1*
X2558450Y1202465D1*
X2560502Y1211012D1*
X2563866Y1219133D1*
X2568458Y1226629D1*
X2574168Y1233313D1*
X2580852Y1239023D1*
X2588519Y1243694D1*
X2580852Y1248379D1*
X2574168Y1254089D1*
X2568458Y1260773D1*
X2563866Y1268269D1*
X2560502Y1276390D1*
X2558450Y1284937D1*
X2557760Y1293701D1*
X2558688Y1303660D1*
X2553428Y1297360D1*
X2548000Y1292723D1*
X2541914Y1288994D1*
X2535318Y1286263D1*
X2528377Y1284596D1*
X2521260Y1284036D1*
X2514143Y1284596D1*
X2507202Y1286263D1*
X2500607Y1288994D1*
X2494520Y1292723D1*
X2489092Y1297360D1*
X2484456Y1302788D1*
X2480726Y1308874D1*
X2477995Y1315470D1*
X2476328Y1322411D1*
X2475768Y1329528D1*
X2476328Y1336645D1*
X2477995Y1343586D1*
X2480726Y1350181D1*
X2484456Y1356268D1*
X2489092Y1361696D1*
X2490763Y1363239D1*
X2490768Y1441687D1*
X2484700Y1447621D1*
X2480503Y1453397D1*
X2477263Y1459756D1*
X2475057Y1466546D1*
X2473940Y1473596D1*
Y1480735D1*
X2475057Y1487785D1*
X2477263Y1494575D1*
X2480503Y1500935D1*
X2484700Y1506710D1*
X2489747Y1511757D1*
X2495523Y1515954D1*
X2501882Y1519194D1*
X2508672Y1521400D1*
X2515722Y1522517D1*
X2522861D1*
X2529911Y1521400D1*
X2536701Y1519194D1*
X2543061Y1515954D1*
X2548836Y1511757D1*
X2553883Y1506710D1*
X2558196Y1500729D1*
X2560502Y1511012D1*
X2563866Y1519133D1*
X2568458Y1526629D1*
X2574168Y1533313D1*
X2580852Y1539023D1*
X2588519Y1543694D1*
X2580852Y1548379D1*
X2574168Y1554089D1*
X2568458Y1560773D1*
X2563866Y1568269D1*
X2560502Y1576390D1*
X2558450Y1584937D1*
X2557760Y1593701D1*
X2558450Y1602465D1*
X2560502Y1611012D1*
X2563866Y1619133D1*
X2568458Y1626629D1*
X2574168Y1633313D1*
X2580852Y1639023D1*
X2588519Y1643694D1*
X2580852Y1648379D1*
X2574168Y1654089D1*
X2568458Y1660773D1*
X2563866Y1668269D1*
X2560502Y1676390D1*
X2558450Y1684937D1*
X2557760Y1693701D1*
X2558450Y1702465D1*
X2560502Y1711012D1*
X2563866Y1719133D1*
X2568458Y1726629D1*
X2574168Y1733313D1*
X2580852Y1739023D1*
X2588348Y1743614D1*
X2596469Y1746979D1*
X2605016Y1749030D1*
X2613780Y1749721D1*
X2622544Y1749030D1*
X2631091Y1746979D1*
X2639211Y1743614D1*
X2646708Y1739023D1*
X2653391Y1733313D1*
X2659101Y1726629D1*
X2663773Y1718962D1*
X2668458Y1726629D1*
X2674168Y1733313D1*
X2680852Y1739023D1*
X2688348Y1743614D1*
X2696469Y1746979D1*
X2705016Y1749030D1*
X2713780Y1749721D1*
X2722544Y1749030D1*
X2731091Y1746979D1*
X2739211Y1743614D1*
X2746708Y1739023D1*
X2753391Y1733313D1*
X2756793Y1729557D1*
X2756792Y1857793D1*
X2750162Y1851104D1*
X2743050Y1845936D1*
X2735218Y1841945D1*
X2726857Y1839229D1*
X2718175Y1837855D1*
X2709385D1*
X2700702Y1839229D1*
X2692341Y1841945D1*
X2684509Y1845936D1*
X2677398Y1851104D1*
X2671183Y1857319D1*
X2666015Y1864431D1*
X2663693Y1868269D1*
X2659101Y1860773D1*
X2653391Y1854089D1*
X2646708Y1848379D1*
X2639211Y1843788D1*
X2631091Y1840423D1*
X2622544Y1838372D1*
X2613780Y1837681D1*
X2605016Y1838372D1*
X2596469Y1840423D1*
X2588348Y1843788D1*
X2580852Y1848379D1*
X2574168Y1854089D1*
X2568458Y1860773D1*
X2563866Y1868269D1*
X2560502Y1876390D1*
X2558450Y1884937D1*
X2557760Y1893701D1*
X2558450Y1902465D1*
X2560502Y1911012D1*
X2563866Y1919133D1*
X2568458Y1926629D1*
X2574168Y1933313D1*
X2580852Y1939023D1*
X2588519Y1943694D1*
X2580852Y1948379D1*
X2574168Y1954089D1*
X2568458Y1960773D1*
X2563866Y1968269D1*
X2560502Y1976390D1*
X2558450Y1984937D1*
X2557760Y1993701D1*
X2558450Y2002465D1*
X2560502Y2011012D1*
X2563866Y2019133D1*
X2568458Y2026629D1*
X2574168Y2033313D1*
X2580852Y2039023D1*
X2588519Y2043694D1*
X2580852Y2048379D1*
X2574168Y2054089D1*
X2568458Y2060773D1*
X2563866Y2068269D1*
X2560502Y2076390D1*
X2558450Y2084937D1*
X2557760Y2093701D1*
X2558450Y2102465D1*
X2560502Y2111012D1*
X2563866Y2119133D1*
X2568458Y2126629D1*
X2574168Y2133313D1*
X2580852Y2139023D1*
X2588519Y2143694D1*
X2580852Y2148379D1*
X2574168Y2154089D1*
X2568458Y2160773D1*
X2563866Y2168269D1*
X2560502Y2176390D1*
X2558450Y2184937D1*
X2557760Y2193701D1*
X2558450Y2202465D1*
X2560502Y2211012D1*
X2563866Y2219133D1*
X2568458Y2226629D1*
X2574168Y2233313D1*
X2580852Y2239023D1*
X2588519Y2243694D1*
X2580852Y2248379D1*
X2574168Y2254089D1*
X2568458Y2260773D1*
X2563866Y2268269D1*
X2560502Y2276390D1*
X2558450Y2284937D1*
X2557760Y2293701D1*
X2558450Y2302465D1*
X2560502Y2311012D1*
X2563866Y2319133D1*
X2568458Y2326629D1*
X2574168Y2333313D1*
X2580852Y2339023D1*
X2588519Y2343694D1*
X2580852Y2348379D1*
X2574168Y2354089D1*
X2568704Y2360463D1*
X2555852Y2351706D1*
X2476958Y2272813D1*
X2476949Y2110970D1*
X2483261Y2103906D1*
X2486991Y2097819D1*
X2489722Y2091223D1*
X2491389Y2084282D1*
X2491949Y2077166D1*
X2491389Y2070049D1*
X2489722Y2063108D1*
X2486991Y2056512D1*
X2483261Y2050425D1*
X2478625Y2044998D1*
X2473197Y2040361D1*
X2467110Y2036631D1*
X2460515Y2033900D1*
X2453574Y2032234D1*
X2446457Y2031673D1*
X2439340Y2032234D1*
X2432399Y2033900D1*
X2425803Y2036631D1*
X2419717Y2040361D1*
X2414289Y2044998D1*
X2409652Y2050425D1*
X2405923Y2056512D1*
X2403192Y2063108D1*
X2401525Y2070049D1*
X2400965Y2077166D1*
X2401525Y2084282D1*
X2403192Y2091223D1*
X2405923Y2097819D1*
X2409652Y2103906D1*
X2414289Y2109334D1*
X2415960Y2110877D1*
X2416059Y2287826D1*
X2417457Y2294856D1*
X2420458Y2301365D1*
X2424895Y2306995D1*
X2532166Y2414131D1*
X2538125Y2418114D1*
X2544851Y2420595D1*
X2551969Y2421437D1*
X2565104D1*
X2571183Y2430083D1*
X2577398Y2436298D1*
X2584509Y2441466D1*
X2588348Y2443788D1*
X2580852Y2448379D1*
X2574168Y2454089D1*
X2568458Y2460773D1*
X2563866Y2468269D1*
X2560502Y2476390D1*
X2558450Y2484937D1*
X2557760Y2493701D1*
X2558450Y2502465D1*
X2560502Y2511012D1*
X2563866Y2519133D1*
X2568458Y2526629D1*
X2574168Y2533313D1*
X2580852Y2539023D1*
X2588519Y2543694D1*
X2580852Y2548379D1*
X2574168Y2554089D1*
X2568458Y2560773D1*
X2563866Y2568269D1*
X2560502Y2576390D1*
X2558450Y2584937D1*
X2557760Y2593701D1*
X2558450Y2602465D1*
X2560502Y2611012D1*
X2563866Y2619133D1*
X2568458Y2626629D1*
X2574168Y2633313D1*
X2580852Y2639023D1*
X2588519Y2643694D1*
X2580852Y2648379D1*
X2574168Y2654089D1*
X2568458Y2660773D1*
X2563866Y2668269D1*
X2560502Y2676390D1*
X2558450Y2684937D1*
X2557760Y2693701D1*
X2558450Y2702465D1*
X2560502Y2711012D1*
X2563866Y2719133D1*
X2568458Y2726629D1*
X2574168Y2733313D1*
X2580852Y2739023D1*
X2588348Y2743614D1*
X2596469Y2746979D1*
X2605016Y2749030D1*
X2613780Y2749721D1*
X2622544Y2749030D1*
X2631091Y2746979D1*
X2639211Y2743614D1*
X2646708Y2739023D1*
X2653391Y2733313D1*
X2659101Y2726629D1*
X2663773Y2718962D1*
X2668458Y2726629D1*
X2674168Y2733313D1*
X2680852Y2739023D1*
X2688519Y2743694D1*
X2680852Y2748379D1*
X2674168Y2754089D1*
X2668458Y2760773D1*
X2663866Y2768269D1*
X2660502Y2776390D1*
X2658450Y2784937D1*
X2657760Y2793701D1*
X2658450Y2802465D1*
X2660502Y2811012D1*
X2663866Y2819133D1*
X2668458Y2826629D1*
X2674168Y2833313D1*
X2680852Y2839023D1*
X2688348Y2843614D1*
X2696469Y2846979D1*
X2705016Y2849030D1*
X2713780Y2849721D1*
X2722544Y2849030D1*
X2731091Y2846979D1*
X2739211Y2843614D1*
X2746708Y2839023D1*
X2753391Y2833313D1*
X2756793Y2829557D1*
X2756792Y2914238D1*
X786528Y2914272D1*
X786516Y2632876D1*
X1614748Y1743421D2*
X1714288D1*
Y1722084D1*
X1718656Y1727013D1*
X1725340Y1732723D1*
X1732836Y1737315D1*
X1740957Y1740680D1*
X1749504Y1742731D1*
X1758268Y1743421D1*
X1767032Y1742731D1*
X1775579Y1740680D1*
X1783700Y1737315D1*
X1791196Y1732723D1*
X1797879Y1727013D1*
X1803589Y1720330D1*
X1808181Y1712834D1*
X1811546Y1704713D1*
X1813597Y1696166D1*
X1814288Y1687402D1*
X1813597Y1678638D1*
X1811546Y1670091D1*
X1808181Y1661970D1*
X1803589Y1654474D1*
X1797879Y1647790D1*
X1791196Y1642080D1*
X1783700Y1637488D1*
X1775579Y1634124D1*
X1767032Y1632072D1*
X1758268Y1631382D1*
X1749504Y1632072D1*
X1740957Y1634124D1*
X1732836Y1637488D1*
X1725340Y1642080D1*
X1718656Y1647790D1*
X1714298Y1652760D1*
X1714288Y1631382D1*
X1602248D1*
Y1743421D1*
X1614748D1*
X1814114Y1983007D2*
X1812740Y1974324D1*
X1810024Y1965963D1*
X1806033Y1958131D1*
X1800865Y1951020D1*
X1794650Y1944805D1*
X1787538Y1939637D1*
X1779706Y1935646D1*
X1771345Y1932929D1*
X1762663Y1931555D1*
X1753873D1*
X1745191Y1932929D1*
X1736830Y1935646D1*
X1728998Y1939637D1*
X1721886Y1944805D1*
X1715671Y1951020D1*
X1710503Y1958131D1*
X1708181Y1961970D1*
X1703589Y1954474D1*
X1697879Y1947790D1*
X1691196Y1942080D1*
X1683700Y1937488D1*
X1675579Y1934124D1*
X1667032Y1932072D1*
X1658268Y1931382D1*
X1649504Y1932072D1*
X1640957Y1934124D1*
X1632836Y1937488D1*
X1625340Y1942080D1*
X1618656Y1947790D1*
X1612946Y1954474D1*
X1608355Y1961970D1*
X1604990Y1970091D1*
X1602939Y1978638D1*
X1602248Y1987402D1*
X1602939Y1996166D1*
X1604990Y2004713D1*
X1608355Y2012834D1*
X1612946Y2020330D1*
X1618656Y2027013D1*
X1625340Y2032723D1*
X1632836Y2037315D1*
X1640957Y2040680D1*
X1649504Y2042731D1*
X1658268Y2043421D1*
X1667032Y2042731D1*
X1675579Y2040680D1*
X1683700Y2037315D1*
X1691196Y2032723D1*
X1697879Y2027013D1*
X1703589Y2020330D1*
X1708261Y2012663D1*
X1712946Y2020330D1*
X1718656Y2027013D1*
X1725340Y2032723D1*
X1732836Y2037315D1*
X1740957Y2040680D1*
X1749504Y2042731D1*
X1758268Y2043421D1*
X1767032Y2042731D1*
X1775579Y2040680D1*
X1783700Y2037315D1*
X1791196Y2032723D1*
X1797879Y2027013D1*
X1803589Y2020330D1*
X1808181Y2012834D1*
X1811546Y2004713D1*
X1813597Y1996166D1*
X1814288Y1987402D1*
X1814114Y1983007D1*
X2095063Y1746965D2*
X2194603D1*
Y1725626D1*
X2198971Y1730557D1*
X2205655Y1736267D1*
X2213151Y1740858D1*
X2221272Y1744223D1*
X2229819Y1746274D1*
X2238583Y1746965D1*
X2247347Y1746274D1*
X2255894Y1744223D1*
X2264015Y1740858D1*
X2271511Y1736267D1*
X2278194Y1730557D1*
X2283904Y1723873D1*
X2288496Y1716377D1*
X2291558Y1709078D1*
X2291555Y1894893D1*
X2250250Y1936155D1*
X2242978Y1935099D1*
X2234188D1*
X2225505Y1936473D1*
X2217145Y1939189D1*
X2209313Y1943180D1*
X2202201Y1948348D1*
X2195986Y1954563D1*
X2190818Y1961675D1*
X2188496Y1965513D1*
X2183904Y1958017D1*
X2178194Y1951334D1*
X2171511Y1945624D1*
X2164015Y1941032D1*
X2155894Y1937667D1*
X2147347Y1935616D1*
X2138583Y1934925D1*
X2129819Y1935616D1*
X2121272Y1937667D1*
X2113151Y1941032D1*
X2105655Y1945624D1*
X2098971Y1951334D1*
X2093261Y1958017D1*
X2088670Y1965513D1*
X2085305Y1973634D1*
X2083253Y1982181D1*
X2082563Y1990945D1*
X2083253Y1999709D1*
X2085305Y2008256D1*
X2088670Y2016377D1*
X2093261Y2023873D1*
X2098971Y2030557D1*
X2105655Y2036267D1*
X2113151Y2040858D1*
X2121272Y2044223D1*
X2129819Y2046274D1*
X2138583Y2046965D1*
X2147347Y2046274D1*
X2155894Y2044223D1*
X2164015Y2040858D1*
X2171511Y2036267D1*
X2178194Y2030557D1*
X2183904Y2023873D1*
X2188576Y2016206D1*
X2193261Y2023873D1*
X2198971Y2030557D1*
X2205655Y2036267D1*
X2213151Y2040858D1*
X2221272Y2044223D1*
X2229819Y2046274D1*
X2238583Y2046965D1*
X2247347Y2046274D1*
X2255894Y2044223D1*
X2264015Y2040858D1*
X2271511Y2036267D1*
X2278194Y2030557D1*
X2283904Y2023873D1*
X2288496Y2016377D1*
X2291861Y2008256D1*
X2293912Y1999709D1*
X2294603Y1990945D1*
X2293912Y1982181D1*
X2293340Y1979299D1*
X2345234Y1927284D1*
X2349217Y1921323D1*
X2351697Y1914599D1*
X2352540Y1907481D1*
X2352445Y1612568D1*
X2351047Y1605538D1*
X2348046Y1599029D1*
X2343609Y1593399D1*
X2313110Y1563034D1*
X2307150Y1559051D1*
X2300425Y1556571D1*
X2293307Y1555729D1*
X2178806D1*
X2159633Y1536589D1*
X2159626Y1492425D1*
X2163726Y1488206D1*
X2167923Y1482431D1*
X2171163Y1476071D1*
X2173369Y1469281D1*
X2174486Y1462231D1*
Y1455092D1*
X2173369Y1448042D1*
X2171163Y1441252D1*
X2167923Y1434893D1*
X2163726Y1429117D1*
X2158679Y1424070D1*
X2152903Y1419873D1*
X2146544Y1416633D1*
X2139753Y1414427D1*
X2132704Y1413310D1*
X2125565D1*
X2118515Y1414427D1*
X2111725Y1416633D1*
X2105365Y1419873D1*
X2099589Y1424070D1*
X2094542Y1429117D1*
X2090345Y1434893D1*
X2087105Y1441252D1*
X2084899Y1448042D1*
X2083782Y1455092D1*
Y1462231D1*
X2084899Y1469281D1*
X2087105Y1476071D1*
X2090345Y1482431D1*
X2094542Y1488206D1*
X2098637Y1492373D1*
X2098736Y1551605D1*
X2100134Y1558635D1*
X2103135Y1565145D1*
X2107572Y1570774D1*
X2146339Y1609407D1*
X2152299Y1613390D1*
X2159024Y1615870D1*
X2166142Y1616713D1*
X2280643D1*
X2291530Y1627566D1*
X2291555Y1672725D1*
X2288496Y1665513D1*
X2283904Y1658017D1*
X2278194Y1651334D1*
X2271511Y1645624D1*
X2264015Y1641032D1*
X2255894Y1637667D1*
X2247347Y1635616D1*
X2238583Y1634925D1*
X2229819Y1635616D1*
X2221272Y1637667D1*
X2213151Y1641032D1*
X2205655Y1645624D1*
X2198971Y1651334D1*
X2194613Y1656303D1*
X2194603Y1634925D1*
X2082563D1*
Y1746965D1*
X2095063D1*
X1863739Y1136231D2*
X1862400Y1127540D1*
X1859780Y1119473D1*
X1855929Y1111916D1*
X1850944Y1105054D1*
X1844946Y1099057D1*
X1838084Y1094071D1*
X1830528Y1090221D1*
X1822461Y1087600D1*
X1814083Y1086273D1*
X1805603D1*
X1799876Y1087072D1*
X1658780Y946105D1*
X1652819Y942122D1*
X1646095Y939642D1*
X1638977Y938799D1*
X1603869D1*
X1596819Y932487D1*
X1590732Y928757D1*
X1584137Y926026D1*
X1577196Y924360D1*
X1570079Y923799D1*
X1562962Y924360D1*
X1556021Y926026D1*
X1549425Y928757D1*
X1543339Y932487D1*
X1537911Y937124D1*
X1533274Y942551D1*
X1529545Y948638D1*
X1526814Y955234D1*
X1525147Y962175D1*
X1524587Y969292D1*
X1525147Y976408D1*
X1526814Y983349D1*
X1529545Y989945D1*
X1533274Y996032D1*
X1537911Y1001460D1*
X1543339Y1006096D1*
X1549425Y1009826D1*
X1556021Y1012557D1*
X1562962Y1014223D1*
X1570079Y1014784D1*
X1577196Y1014223D1*
X1584137Y1012557D1*
X1590732Y1009826D1*
X1596819Y1006096D1*
X1602247Y1001460D1*
X1603790Y999789D1*
X1626378Y999784D1*
X1756731Y1130168D1*
X1755792Y1140158D1*
X1756457Y1148613D1*
X1756757Y1150125D1*
X1710217Y1196662D1*
X1555403Y1196673D1*
X1551198Y1192574D1*
X1545423Y1188377D1*
X1539063Y1185137D1*
X1532273Y1182931D1*
X1525223Y1181814D1*
X1518084D1*
X1511034Y1182931D1*
X1504244Y1185137D1*
X1497885Y1188377D1*
X1492109Y1192574D1*
X1487062Y1197621D1*
X1482865Y1203397D1*
X1479625Y1209756D1*
X1477419Y1216546D1*
X1476302Y1223596D1*
Y1230735D1*
X1477419Y1237785D1*
X1479625Y1244575D1*
X1482865Y1250935D1*
X1487062Y1256710D1*
X1492109Y1261757D1*
X1497885Y1265954D1*
X1504244Y1269194D1*
X1511034Y1271400D1*
X1518084Y1272517D1*
X1525223D1*
X1532273Y1271400D1*
X1539063Y1269194D1*
X1545423Y1265954D1*
X1551198Y1261757D1*
X1555365Y1257663D1*
X1725227Y1257563D1*
X1732257Y1256166D1*
X1738767Y1253164D1*
X1744397Y1248727D1*
X1799881Y1193243D1*
X1805916Y1194054D1*
X1807285Y1202776D1*
X1809906Y1210843D1*
X1813756Y1218399D1*
X1818742Y1225261D1*
X1824739Y1231259D1*
X1831601Y1236244D1*
X1839158Y1240095D1*
X1847225Y1242715D1*
X1855603Y1244042D1*
X1864083D1*
X1872461Y1242715D1*
X1880528Y1240095D1*
X1888084Y1236244D1*
X1894946Y1231259D1*
X1900944Y1225261D1*
X1905929Y1218399D1*
X1909780Y1210843D1*
X1912400Y1202776D1*
X1913727Y1194398D1*
Y1185918D1*
X1912400Y1177540D1*
X1909780Y1169473D1*
X1905929Y1161916D1*
X1900944Y1155054D1*
X1894946Y1149057D1*
X1888084Y1144071D1*
X1880528Y1140221D1*
X1872461Y1137600D1*
X1863769Y1136261D1*
X2233806Y1091036D2*
X2233007Y1085309D1*
X2329197Y989122D1*
X2399691Y989154D1*
X2406725Y995466D1*
X2412811Y999196D1*
X2419407Y1001927D1*
X2426348Y1003593D1*
X2433465Y1004154D1*
X2440582Y1003593D1*
X2447523Y1001927D1*
X2454118Y999196D1*
X2460205Y995466D1*
X2465633Y990830D1*
X2470269Y985402D1*
X2473999Y979315D1*
X2476730Y972719D1*
X2478397Y965778D1*
X2478957Y958662D1*
X2478397Y951545D1*
X2476730Y944604D1*
X2473999Y938008D1*
X2470269Y931921D1*
X2465633Y926494D1*
X2460205Y921857D1*
X2454118Y918128D1*
X2447523Y915397D1*
X2440582Y913730D1*
X2433465Y913170D1*
X2426348Y913730D1*
X2419407Y915397D1*
X2412811Y918128D1*
X2406725Y921857D1*
X2401297Y926494D1*
X2399753Y928164D1*
X2314143Y928264D1*
X2307113Y929662D1*
X2300604Y932663D1*
X2294974Y937100D1*
X2189910Y1042166D1*
X2179921Y1041225D1*
X2171466Y1041890D1*
X2163219Y1043870D1*
X2155382Y1047116D1*
X2148151Y1051547D1*
X2141701Y1057055D1*
X2136193Y1063505D1*
X2131761Y1070736D1*
X2128516Y1078574D1*
X2126536Y1086820D1*
X2126025Y1091349D1*
X2117303Y1092718D1*
X2109236Y1095339D1*
X2101680Y1099189D1*
X2094818Y1104175D1*
X2088820Y1110172D1*
X2083835Y1117034D1*
X2079984Y1124591D1*
X2077364Y1132658D1*
X2076037Y1141036D1*
Y1149516D1*
X2077364Y1157894D1*
X2079984Y1165961D1*
X2083835Y1173517D1*
X2088820Y1180379D1*
X2094818Y1186377D1*
X2101680Y1191362D1*
X2109236Y1195213D1*
X2117303Y1197834D1*
X2125681Y1199160D1*
X2134162D1*
X2142540Y1197834D1*
X2150607Y1195213D1*
X2158163Y1191362D1*
X2165025Y1186377D1*
X2171023Y1180379D1*
X2176008Y1173517D1*
X2179858Y1165961D1*
X2182479Y1157894D1*
X2183818Y1149202D1*
X2192540Y1147834D1*
X2200607Y1145213D1*
X2208163Y1141362D1*
X2215025Y1136377D1*
X2221023Y1130379D1*
X2226008Y1123517D1*
X2229858Y1115961D1*
X2232479Y1107894D1*
X2233806Y1099516D1*
Y1091036D1*
X2663773Y2668440D2*
X2659101Y2660773D1*
X2653391Y2654089D1*
X2646708Y2648379D1*
X2639041Y2643708D1*
X2646708Y2639023D1*
X2653391Y2633313D1*
X2659101Y2626629D1*
X2663773Y2618962D1*
X2668458Y2626629D1*
X2674168Y2633313D1*
X2680852Y2639023D1*
X2688519Y2643694D1*
X2680852Y2648379D1*
X2674168Y2654089D1*
X2668458Y2660773D1*
X2663786Y2668440D1*
X2663773Y2568440D2*
X2659101Y2560773D1*
X2653391Y2554089D1*
X2646708Y2548379D1*
X2639041Y2543708D1*
X2646708Y2539023D1*
X2653391Y2533313D1*
X2659101Y2526629D1*
X2663773Y2518962D1*
X2668458Y2526629D1*
X2674168Y2533313D1*
X2680852Y2539023D1*
X2688519Y2543694D1*
X2680852Y2548379D1*
X2674168Y2554089D1*
X2668458Y2560773D1*
X2663786Y2568440D1*
X2663773Y2468440D2*
X2659101Y2460773D1*
X2653391Y2454089D1*
X2646708Y2448379D1*
X2639041Y2443708D1*
X2646708Y2439023D1*
X2653391Y2433313D1*
X2659101Y2426629D1*
X2663773Y2418962D1*
X2668458Y2426629D1*
X2674168Y2433313D1*
X2680852Y2439023D1*
X2688519Y2443694D1*
X2680852Y2448379D1*
X2674168Y2454089D1*
X2668458Y2460773D1*
X2663786Y2468440D1*
X2663773Y2368440D2*
X2659101Y2360773D1*
X2653391Y2354089D1*
X2646708Y2348379D1*
X2639041Y2343708D1*
X2646708Y2339023D1*
X2653391Y2333313D1*
X2659101Y2326629D1*
X2663773Y2318962D1*
X2668458Y2326629D1*
X2674168Y2333313D1*
X2680852Y2339023D1*
X2688519Y2343694D1*
X2680852Y2348379D1*
X2674168Y2354089D1*
X2668458Y2360773D1*
X2663786Y2368440D1*
X2663773Y2268440D2*
X2659101Y2260773D1*
X2653391Y2254089D1*
X2646708Y2248379D1*
X2639041Y2243708D1*
X2646708Y2239023D1*
X2653391Y2233313D1*
X2659101Y2226629D1*
X2663773Y2218962D1*
X2668458Y2226629D1*
X2674168Y2233313D1*
X2680852Y2239023D1*
X2688519Y2243694D1*
X2680852Y2248379D1*
X2674168Y2254089D1*
X2668458Y2260773D1*
X2663786Y2268440D1*
X2663773Y2168440D2*
X2659101Y2160773D1*
X2653391Y2154089D1*
X2646708Y2148379D1*
X2639041Y2143708D1*
X2646708Y2139023D1*
X2653391Y2133313D1*
X2659101Y2126629D1*
X2663773Y2118962D1*
X2668458Y2126629D1*
X2674168Y2133313D1*
X2680852Y2139023D1*
X2688519Y2143694D1*
X2680852Y2148379D1*
X2674168Y2154089D1*
X2668458Y2160773D1*
X2663786Y2168440D1*
X2663773Y2068440D2*
X2659101Y2060773D1*
X2653391Y2054089D1*
X2646708Y2048379D1*
X2639041Y2043708D1*
X2646708Y2039023D1*
X2653391Y2033313D1*
X2659101Y2026629D1*
X2663773Y2018962D1*
X2668458Y2026629D1*
X2674168Y2033313D1*
X2680852Y2039023D1*
X2688519Y2043694D1*
X2680852Y2048379D1*
X2674168Y2054089D1*
X2668458Y2060773D1*
X2663786Y2068440D1*
X2663773Y1968440D2*
X2659101Y1960773D1*
X2653391Y1954089D1*
X2646708Y1948379D1*
X2639041Y1943708D1*
X2646708Y1939023D1*
X2653391Y1933313D1*
X2659101Y1926629D1*
X2663773Y1918962D1*
X2668458Y1926629D1*
X2674168Y1933313D1*
X2680852Y1939023D1*
X2688519Y1943694D1*
X2680852Y1948379D1*
X2674168Y1954089D1*
X2668458Y1960773D1*
X2663786Y1968440D1*
X2663773Y1668440D2*
X2659101Y1660773D1*
X2653391Y1654089D1*
X2646708Y1648379D1*
X2639041Y1643708D1*
X2646708Y1639023D1*
X2653391Y1633313D1*
X2659101Y1626629D1*
X2663773Y1618962D1*
X2668458Y1626629D1*
X2674168Y1633313D1*
X2680852Y1639023D1*
X2688519Y1643694D1*
X2680852Y1648379D1*
X2674168Y1654089D1*
X2668458Y1660773D1*
X2663786Y1668440D1*
X2769626Y1689306D2*
X2768252Y1680624D1*
X2765536Y1672263D1*
X2761545Y1664431D1*
X2756377Y1657319D1*
X2750162Y1651104D1*
X2743050Y1645936D1*
X2739211Y1643614D1*
X2746708Y1639023D1*
X2753391Y1633313D1*
X2759101Y1626629D1*
X2763693Y1619133D1*
X2767058Y1611012D1*
X2769109Y1602465D1*
X2769799Y1593701D1*
X2769109Y1584937D1*
X2767058Y1576390D1*
X2763693Y1568269D1*
X2759101Y1560773D1*
X2753391Y1554089D1*
X2746708Y1548379D1*
X2739041Y1543708D1*
X2746708Y1539023D1*
X2753391Y1533313D1*
X2759101Y1526629D1*
X2763693Y1519133D1*
X2767058Y1511012D1*
X2769109Y1502465D1*
X2769799Y1493701D1*
X2769109Y1484937D1*
X2767058Y1476390D1*
X2763693Y1468269D1*
X2759101Y1460773D1*
X2753391Y1454089D1*
X2746708Y1448379D1*
X2739041Y1443708D1*
X2746708Y1439023D1*
X2753391Y1433313D1*
X2759101Y1426629D1*
X2763693Y1419133D1*
X2767058Y1411012D1*
X2769109Y1402465D1*
X2769799Y1393701D1*
X2769109Y1384937D1*
X2767058Y1376390D1*
X2763693Y1368269D1*
X2759101Y1360773D1*
X2753391Y1354089D1*
X2746708Y1348379D1*
X2739041Y1343708D1*
X2746708Y1339023D1*
X2753391Y1333313D1*
X2759101Y1326629D1*
X2763693Y1319133D1*
X2767058Y1311012D1*
X2769109Y1302465D1*
X2769799Y1293701D1*
X2769109Y1284937D1*
X2767058Y1276390D1*
X2763693Y1268269D1*
X2759101Y1260773D1*
X2753391Y1254089D1*
X2752269Y1253051D1*
X2750099Y1248425D1*
Y1251045D1*
X2743050Y1245936D1*
X2739211Y1243614D1*
X2746708Y1239023D1*
X2750095Y1236352D1*
X2752295Y1253051D1*
X2850886D1*
Y1703687D1*
X2768872Y1703660D1*
X2769799Y1693701D1*
X2769626Y1689306D1*
X2663773Y1568440D2*
X2659101Y1560773D1*
X2653391Y1554089D1*
X2646708Y1548379D1*
X2639041Y1543708D1*
X2646708Y1539023D1*
X2653391Y1533313D1*
X2659101Y1526629D1*
X2663773Y1518962D1*
X2668458Y1526629D1*
X2674168Y1533313D1*
X2680852Y1539023D1*
X2688519Y1543694D1*
X2680852Y1548379D1*
X2674168Y1554089D1*
X2668458Y1560773D1*
X2663786Y1568440D1*
X2663773Y1468440D2*
X2659101Y1460773D1*
X2653391Y1454089D1*
X2646708Y1448379D1*
X2639041Y1443708D1*
X2646708Y1439023D1*
X2653391Y1433313D1*
X2659101Y1426629D1*
X2663773Y1418962D1*
X2668458Y1426629D1*
X2674168Y1433313D1*
X2680852Y1439023D1*
X2688519Y1443694D1*
X2680852Y1448379D1*
X2674168Y1454089D1*
X2668458Y1460773D1*
X2663786Y1468440D1*
X2588519Y1443708D2*
X2580852Y1448379D1*
X2574168Y1454089D1*
X2568458Y1460773D1*
X2563891Y1468223D1*
X2561320Y1459756D1*
X2558080Y1453397D1*
X2553883Y1447621D1*
X2551753Y1445315D1*
X2551752Y1363332D1*
X2558065Y1356268D1*
X2561794Y1350181D1*
X2564525Y1343586D1*
X2566192Y1336645D1*
X2566752Y1329528D1*
X2566315Y1323450D1*
X2571183Y1330083D1*
X2577398Y1336298D1*
X2584509Y1341466D1*
X2588348Y1343788D1*
X2580852Y1348379D1*
X2574168Y1354089D1*
X2568458Y1360773D1*
X2563866Y1368269D1*
X2560502Y1376390D1*
X2558450Y1384937D1*
X2557760Y1393701D1*
X2558450Y1402465D1*
X2560502Y1411012D1*
X2563866Y1419133D1*
X2568458Y1426629D1*
X2574168Y1433313D1*
X2580852Y1439023D1*
X2588519Y1443694D1*
X2663773Y1368440D2*
X2659101Y1360773D1*
X2653391Y1354089D1*
X2646708Y1348379D1*
X2639041Y1343708D1*
X2646708Y1339023D1*
X2653391Y1333313D1*
X2659101Y1326629D1*
X2663773Y1318962D1*
X2668458Y1326629D1*
X2674168Y1333313D1*
X2680852Y1339023D1*
X2688519Y1343694D1*
X2680852Y1348379D1*
X2674168Y1354089D1*
X2668458Y1360773D1*
X2663786Y1368440D1*
X2663773Y1268440D2*
X2659101Y1260773D1*
X2653391Y1254089D1*
X2646708Y1248379D1*
X2639041Y1243708D1*
X2646708Y1239023D1*
X2653391Y1233313D1*
X2659101Y1226629D1*
X2663773Y1218962D1*
X2668458Y1226629D1*
X2674168Y1233313D1*
X2680852Y1239023D1*
X2688519Y1243694D1*
X2680852Y1248379D1*
X2674168Y1254089D1*
X2668458Y1260773D1*
X2663786Y1268440D1*
X2663773Y1168440D2*
X2659101Y1160773D1*
X2653391Y1154089D1*
X2646708Y1148379D1*
X2639041Y1143708D1*
X2646708Y1139023D1*
X2653391Y1133313D1*
X2659101Y1126629D1*
X2663773Y1118962D1*
X2668458Y1126629D1*
X2674168Y1133313D1*
X2680852Y1139023D1*
X2688519Y1143694D1*
X2680852Y1148379D1*
X2674168Y1154089D1*
X2668458Y1160773D1*
X2663786Y1168440D1*
X2663773Y1068440D2*
X2659101Y1060773D1*
X2653391Y1054089D1*
X2646708Y1048379D1*
X2639041Y1043708D1*
X2646708Y1039023D1*
X2653391Y1033313D1*
X2659101Y1026629D1*
X2663773Y1018962D1*
X2668458Y1026629D1*
X2674168Y1033313D1*
X2680852Y1039023D1*
X2688519Y1043694D1*
X2680852Y1048379D1*
X2674168Y1054089D1*
X2668458Y1060773D1*
X2663786Y1068440D1*
X1394823Y2789306D2*
X1393449Y2780624D1*
X1390732Y2772263D1*
X1386742Y2764431D1*
X1381574Y2757319D1*
X1375358Y2751104D1*
X1368247Y2745936D1*
X1360415Y2741945D1*
X1352054Y2739229D1*
X1343372Y2737855D1*
X1334582D1*
X1325899Y2739229D1*
X1317538Y2741945D1*
X1309706Y2745936D1*
X1302595Y2751104D1*
X1296379Y2757319D1*
X1291211Y2764431D1*
X1287221Y2772263D1*
X1284504Y2780624D1*
X1283130Y2789306D1*
Y2798096D1*
X1284504Y2806778D1*
X1287221Y2815139D1*
X1291211Y2822971D1*
X1296379Y2830083D1*
X1302595Y2836298D1*
X1309706Y2841466D1*
X1317538Y2845457D1*
X1325899Y2848173D1*
X1334582Y2849547D1*
X1343372D1*
X1352054Y2848173D1*
X1360415Y2845457D1*
X1368247Y2841466D1*
X1375358Y2836298D1*
X1381574Y2830083D1*
X1386742Y2822971D1*
X1390732Y2815139D1*
X1393449Y2806778D1*
X1394823Y2798096D1*
Y2789306D1*
X1288970Y2568440D2*
X1284298Y2560773D1*
X1278588Y2554089D1*
X1271904Y2548379D1*
X1264238Y2543708D1*
X1271904Y2539023D1*
X1278588Y2533313D1*
X1284298Y2526629D1*
X1288970Y2518962D1*
X1293655Y2526629D1*
X1299365Y2533313D1*
X1306049Y2539023D1*
X1313715Y2543694D1*
X1306049Y2548379D1*
X1299365Y2554089D1*
X1293655Y2560773D1*
X1288983Y2568440D1*
X1288970Y2468440D2*
X1284298Y2460773D1*
X1278588Y2454089D1*
X1271904Y2448379D1*
X1264238Y2443708D1*
X1271904Y2439023D1*
X1278588Y2433313D1*
X1284298Y2426629D1*
X1288970Y2418962D1*
X1293655Y2426629D1*
X1299365Y2433313D1*
X1306049Y2439023D1*
X1313715Y2443694D1*
X1306049Y2448379D1*
X1299365Y2454089D1*
X1293655Y2460773D1*
X1288983Y2468440D1*
X1288970Y2168440D2*
X1284298Y2160773D1*
X1278588Y2154089D1*
X1271904Y2148379D1*
X1264238Y2143708D1*
X1271904Y2139023D1*
X1278588Y2133313D1*
X1284298Y2126629D1*
X1288970Y2118962D1*
X1293655Y2126629D1*
X1299365Y2133313D1*
X1306049Y2139023D1*
X1313715Y2143694D1*
X1306049Y2148379D1*
X1299365Y2154089D1*
X1293655Y2160773D1*
X1288983Y2168440D1*
X1288970Y2068440D2*
X1284298Y2060773D1*
X1278588Y2054089D1*
X1271904Y2048379D1*
X1264238Y2043708D1*
X1271904Y2039023D1*
X1278588Y2033313D1*
X1284298Y2026629D1*
X1288970Y2018962D1*
X1293655Y2026629D1*
X1299365Y2033313D1*
X1306049Y2039023D1*
X1313715Y2043694D1*
X1306049Y2048379D1*
X1299365Y2054089D1*
X1293655Y2060773D1*
X1288983Y2068440D1*
X1288970Y1968440D2*
X1284298Y1960773D1*
X1278588Y1954089D1*
X1271904Y1948379D1*
X1264238Y1943708D1*
X1271904Y1939023D1*
X1278588Y1933313D1*
X1284298Y1926629D1*
X1288970Y1918962D1*
X1293655Y1926629D1*
X1299365Y1933313D1*
X1306049Y1939023D1*
X1313715Y1943694D1*
X1306049Y1948379D1*
X1299365Y1954089D1*
X1293655Y1960773D1*
X1288983Y1968440D1*
X1288970Y1868440D2*
X1284298Y1860773D1*
X1278588Y1854089D1*
X1271904Y1848379D1*
X1264238Y1843708D1*
X1271904Y1839023D1*
X1278588Y1833313D1*
X1284298Y1826629D1*
X1288970Y1818962D1*
X1293655Y1826629D1*
X1299365Y1833313D1*
X1306049Y1839023D1*
X1313715Y1843694D1*
X1306049Y1848379D1*
X1299365Y1854089D1*
X1293655Y1860773D1*
X1288983Y1868440D1*
X1288970Y1768440D2*
X1284298Y1760773D1*
X1278588Y1754089D1*
X1271904Y1748379D1*
X1264238Y1743708D1*
X1271904Y1739023D1*
X1278588Y1733313D1*
X1284298Y1726629D1*
X1288970Y1718962D1*
X1293655Y1726629D1*
X1299365Y1733313D1*
X1306049Y1739023D1*
X1313715Y1743694D1*
X1306049Y1748379D1*
X1299365Y1754089D1*
X1293655Y1760773D1*
X1288983Y1768440D1*
X1288970Y1668440D2*
X1284298Y1660773D1*
X1278588Y1654089D1*
X1271904Y1648379D1*
X1264238Y1643708D1*
X1271904Y1639023D1*
X1278588Y1633313D1*
X1284298Y1626629D1*
X1288970Y1618962D1*
X1293655Y1626629D1*
X1299365Y1633313D1*
X1306049Y1639023D1*
X1313715Y1643694D1*
X1306049Y1648379D1*
X1299365Y1654089D1*
X1293655Y1660773D1*
X1288983Y1668440D1*
X1288970Y1568440D2*
X1284298Y1560773D1*
X1278588Y1554089D1*
X1271904Y1548379D1*
X1264238Y1543708D1*
X1271904Y1539023D1*
X1278588Y1533313D1*
X1284298Y1526629D1*
X1288970Y1518962D1*
X1293655Y1526629D1*
X1299365Y1533313D1*
X1306049Y1539023D1*
X1313715Y1543694D1*
X1306049Y1548379D1*
X1299365Y1554089D1*
X1293655Y1560773D1*
X1288983Y1568440D1*
X1288970Y1468440D2*
X1284298Y1460773D1*
X1278588Y1454089D1*
X1271904Y1448379D1*
X1264238Y1443708D1*
X1271904Y1439023D1*
X1278588Y1433313D1*
X1284298Y1426629D1*
X1288970Y1418962D1*
X1293655Y1426629D1*
X1299365Y1433313D1*
X1306049Y1439023D1*
X1313715Y1443694D1*
X1306049Y1448379D1*
X1299365Y1454089D1*
X1293655Y1460773D1*
X1288983Y1468440D1*
X1288970Y1368440D2*
X1284298Y1360773D1*
X1278588Y1354089D1*
X1271904Y1348379D1*
X1264238Y1343708D1*
X1271904Y1339023D1*
X1278588Y1333313D1*
X1284298Y1326629D1*
X1288970Y1318962D1*
X1293655Y1326629D1*
X1299365Y1333313D1*
X1306049Y1339023D1*
X1313715Y1343694D1*
X1306049Y1348379D1*
X1299365Y1354089D1*
X1293655Y1360773D1*
X1288983Y1368440D1*
X1288970Y1268440D2*
X1284298Y1260773D1*
X1278588Y1254089D1*
X1271904Y1248379D1*
X1264238Y1243708D1*
X1271904Y1239023D1*
X1278588Y1233313D1*
X1284298Y1226629D1*
X1288970Y1218962D1*
X1293655Y1226629D1*
X1299365Y1233313D1*
X1306049Y1239023D1*
X1313715Y1243694D1*
X1306049Y1248379D1*
X1299365Y1254089D1*
X1293655Y1260773D1*
X1288983Y1268440D1*
X1288970Y1168440D2*
X1284298Y1160773D1*
X1278588Y1154089D1*
X1271904Y1148379D1*
X1264238Y1143708D1*
X1271904Y1139023D1*
X1278588Y1133313D1*
X1284298Y1126629D1*
X1288970Y1118962D1*
X1293655Y1126629D1*
X1299365Y1133313D1*
X1306049Y1139023D1*
X1313715Y1143694D1*
X1306049Y1148379D1*
X1299365Y1154089D1*
X1293655Y1160773D1*
X1288983Y1168440D1*
X1288970Y1068440D2*
X1284298Y1060773D1*
X1278588Y1054089D1*
X1271904Y1048379D1*
X1264238Y1043708D1*
X1271904Y1039023D1*
X1278588Y1033313D1*
X1284298Y1026629D1*
X1288970Y1018962D1*
X1293655Y1026629D1*
X1299365Y1033313D1*
X1306049Y1039023D1*
X1313715Y1043694D1*
X1306049Y1048379D1*
X1299365Y1054089D1*
X1293655Y1060773D1*
X1288983Y1068440D1*
X2107421Y2286156D2*
X2106047Y2277474D1*
X2103331Y2269113D1*
X2099340Y2261281D1*
X2094172Y2254170D1*
X2087957Y2247954D1*
X2080845Y2242786D1*
X2073013Y2238795D1*
X2064652Y2236079D1*
X2055970Y2234705D1*
X2047180D1*
X2038498Y2236079D1*
X2030137Y2238795D1*
X2022305Y2242786D1*
X2015193Y2247954D1*
X2008978Y2254170D1*
X2003810Y2261281D1*
X1999819Y2269113D1*
X1997103Y2277474D1*
X1995729Y2286156D1*
Y2294946D1*
X1997103Y2303629D1*
X1999819Y2311990D1*
X2003810Y2319822D1*
X2008978Y2326933D1*
X2015193Y2333149D1*
X2022305Y2338316D1*
X2030137Y2342307D1*
X2038498Y2345024D1*
X2047180Y2346398D1*
X2055970D1*
X2064652Y2345024D1*
X2073013Y2342307D1*
X2080845Y2338316D1*
X2087957Y2333149D1*
X2094172Y2326933D1*
X2099340Y2319822D1*
X2103331Y2311990D1*
X2106047Y2303629D1*
X2107421Y2294946D1*
Y2286156D1*
Y2486156D2*
X2106047Y2477474D1*
X2103331Y2469113D1*
X2099340Y2461281D1*
X2094172Y2454170D1*
X2087957Y2447954D1*
X2080845Y2442786D1*
X2073013Y2438795D1*
X2064652Y2436079D1*
X2055970Y2434705D1*
X2047180D1*
X2038498Y2436079D1*
X2030137Y2438795D1*
X2022305Y2442786D1*
X2015193Y2447954D1*
X2008978Y2454170D1*
X2003810Y2461281D1*
X1999819Y2469113D1*
X1997103Y2477474D1*
X1995729Y2486156D1*
Y2494946D1*
X1997103Y2503629D1*
X1999819Y2511990D1*
X2003810Y2519822D1*
X2008978Y2526933D1*
X2015193Y2533149D1*
X2022305Y2538316D1*
X2030137Y2542307D1*
X2038498Y2545024D1*
X2047180Y2546398D1*
X2055970D1*
X2064652Y2545024D1*
X2073013Y2542307D1*
X2080845Y2538316D1*
X2087957Y2533149D1*
X2094172Y2526933D1*
X2099340Y2519822D1*
X2103331Y2511990D1*
X2106047Y2503629D1*
X2107421Y2494946D1*
Y2486156D1*
X2375378Y2536729D2*
X2474918D1*
Y2424689D1*
X2362878D1*
Y2536729D1*
X2375378D1*
D24*
X931103Y589370D3*
X734252D3*
X537402D3*
X3414961D3*
X3218110D3*
X3021260D3*
D26*
X2418898Y2480709D3*
D27*
Y2878347D3*
D29*
X1000394Y2642520D3*
D30*
Y2406299D3*
D31*
X815355Y2524410D3*
D32*
X734252Y1555906D3*
X499252Y1475906D3*
X969252D3*
Y995906D3*
X499252D3*
X3218504Y1555906D3*
X2983504Y1475906D3*
X3453504D3*
Y995906D3*
X2983504D3*
D26*
X1658268Y1687402D3*
D16*
X1758268D3*
Y1987402D3*
X1658268D3*
D26*
X2138583Y1690945D3*
D16*
X2238583D3*
Y1990945D3*
X2138583D3*
D34*
X1809843Y1140158D3*
X1859843Y1190158D3*
D78*
X1909843Y1140158D3*
D34*
X2179921Y1095276D3*
X2129921Y1145276D3*
D81*
X2179921Y1195276D3*
D26*
X2613780Y2793701D3*
D27*
X2713780D3*
X2613780Y2693701D3*
X2713780D3*
X2613780Y2593701D3*
X2713780D3*
X2613780Y2493701D3*
X2713780D3*
X2613780Y2393701D3*
X2713780D3*
X2613780Y2293701D3*
X2713780D3*
X2613780Y2193701D3*
X2713780D3*
X2613780Y2093701D3*
X2713780D3*
X2613780Y1993701D3*
X2713780D3*
X2613780Y1893701D3*
X2713780D3*
X2613780Y1793701D3*
X2713780D3*
X2613780Y1693701D3*
X2713780D3*
X2613780Y1593701D3*
X2713780D3*
X2613780Y1493701D3*
X2713780D3*
X2613780Y1393701D3*
X2713780D3*
X2613780Y1293701D3*
X2713780D3*
X2613780Y1193701D3*
X2713780D3*
X2613780Y1093701D3*
X2713780D3*
X2613780Y993701D3*
X2713780D3*
X2613780Y893701D3*
X2713780D3*
D26*
X1238977Y2793701D3*
D27*
X1338977D3*
X1238977Y2693701D3*
X1338977D3*
X1238977Y2593701D3*
X1338977D3*
X1238977Y2493701D3*
X1338977D3*
X1238977Y2393701D3*
X1338977D3*
X1238977Y2293701D3*
X1338977D3*
X1238977Y2193701D3*
X1338977D3*
X1238977Y2093701D3*
X1338977D3*
X1238977Y1993701D3*
X1338977D3*
X1238977Y1893701D3*
X1338977D3*
X1238977Y1793701D3*
X1338977D3*
X1238977Y1693701D3*
X1338977D3*
X1238977Y1593701D3*
X1338977D3*
X1238977Y1493701D3*
X1338977D3*
X1238977Y1393701D3*
X1338977D3*
X1238977Y1293701D3*
X1338977D3*
X1238977Y1193701D3*
X1338977D3*
X1238977Y1093701D3*
X1338977D3*
X1238977Y993701D3*
X1338977D3*
X1238977Y893701D3*
X1338977D3*
D16*
X2051575Y2290551D3*
Y2390551D3*
Y2490551D3*
M02*
