M48
INCH
T01C0.019
T02C0.0315
T03C0.0354
T04C0.0394
T05C0.0571
T06C0.061
T07C0.1378
T08C0.1575
%
T01
X+015701Y+009693
X+015217Y+012272
X+021291Y+014587
X+025193Y+014772
X+025213Y+013295
X+024335Y+009587
X+024465Y+020772
T02
X+018098Y+011402
X+018598Y+011902
X+019098Y+011402
X+021299Y+011453
X+021799Y+010953
X+021799Y+011953
T03
X+024189Y+024807
X+026138Y+024937
X+026138Y+025937
X+026138Y+026937
X+026138Y+027937
X+027138Y+027937
X+027138Y+026937
X+027138Y+025937
X+027138Y+024937
X+027138Y+023937
X+026138Y+023937
X+026138Y+022937
X+026138Y+021937
X+027138Y+021937
X+027138Y+022937
X+027138Y+020937
X+026138Y+020937
X+026138Y+019937
X+027138Y+019937
X+027138Y+018937
X+026138Y+018937
X+026138Y+017937
X+027138Y+017937
X+027138Y+016937
X+027138Y+015937
X+026138Y+015937
X+026138Y+016937
X+026138Y+014937
X+026138Y+013937
X+027138Y+013937
X+027138Y+014937
X+027138Y+012937
X+026138Y+012937
X+026138Y+011937
X+026138Y+010937
X+027138Y+010937
X+027138Y+011937
X+027138Y+009937
X+027138Y+008937
X+026138Y+008937
X+026138Y+009937
X+022386Y+016909
X+021386Y+016909
X+021386Y+019909
X+022386Y+019909
X+017583Y+019874
X+016583Y+019874
X+016583Y+016874
X+017583Y+016874
X+013390Y+016937
X+013390Y+015937
X+012390Y+015937
X+012390Y+016937
X+012390Y+017937
X+012390Y+018937
X+012390Y+019937
X+012390Y+020937
X+012390Y+021937
X+012390Y+022937
X+012390Y+023937
X+013390Y+023937
X+013390Y+022937
X+013390Y+021937
X+013390Y+020937
X+013390Y+019937
X+013390Y+018937
X+013390Y+017937
X+013390Y+014937
X+013390Y+013937
X+012390Y+013937
X+012390Y+014937
X+012390Y+012937
X+013390Y+012937
X+013390Y+011937
X+013390Y+010937
X+012390Y+010937
X+012390Y+011937
X+012390Y+009937
X+012390Y+008937
X+013390Y+008937
X+013390Y+009937
X+013390Y+024937
X+012390Y+024937
X+012390Y+025937
X+013390Y+025937
X+013390Y+026937
X+013390Y+027937
X+012390Y+027937
X+012390Y+026937
X+024189Y+028783
T04
X+020516Y+022906
X+020516Y+023906
X+020516Y+024906
T05
X+007343Y+015559
X+004993Y+014759
X+009693Y+014759
X+009693Y+009959
X+004993Y+009959
X+029835Y+009959
X+034535Y+009959
X+034535Y+014759
X+032185Y+015559
X+029835Y+014759
T06
X+009311Y+005894
X+007343Y+005894
X+005374Y+005894
X+030213Y+005894
X+032181Y+005894
X+034150Y+005894
T07
X+010004Y+026425
X+008154Y+025244
T08
X+010004Y+024063
T00
M30
