G04 DipTrace 3.0.0.1*
G04 Top.gbr*
%MOIN*%
G04 #@! TF.FileFunction,Copper,L1,Top*
G04 #@! TF.Part,Single*
%AMOUTLINE0*5,1,4,0,0,0.070866,90.0*%
%AMOUTLINE3*5,1,4,0,0,0.070866,-180.0*%
G04 #@! TA.AperFunction,Conductor*
%ADD14C,0.008*%
%ADD15C,0.03*%
G04 #@! TA.AperFunction,ComponentPad*
%ADD16C,0.059055*%
G04 #@! TA.AperFunction,Conductor*
%ADD17C,0.06*%
%ADD18C,0.012*%
%ADD19C,0.090551*%
%ADD20C,0.1*%
%ADD21C,0.086614*%
%ADD22C,0.07874*%
G04 #@! TA.AperFunction,CopperBalancing*
%ADD23C,0.025*%
G04 #@! TA.AperFunction,ComponentPad*
%ADD24O,0.090551X0.11811*%
%ADD25R,0.059055X0.051181*%
G04 #@! TA.AperFunction,ComponentPad*
%ADD26R,0.059055X0.059055*%
%ADD27C,0.059055*%
%ADD28R,0.062992X0.070866*%
G04 #@! TA.AperFunction,ComponentPad*
%ADD29O,0.177165X0.07874*%
%ADD30O,0.19685X0.07874*%
%ADD31O,0.07874X0.177165*%
%ADD32O,0.086614X0.141732*%
%ADD33R,0.051181X0.059055*%
G04 #@! TA.AperFunction,ComponentPad*
%ADD34C,0.055118*%
%ADD36R,0.03937X0.055118*%
G04 #@! TA.AperFunction,ViaPad*
%ADD37C,0.038*%
G04 #@! TA.AperFunction,ComponentPad*
%ADD78OUTLINE0*%
%ADD81OUTLINE3*%
%FSLAX26Y26*%
G04*
G70*
G90*
G75*
G01*
G04 Top*
%LPD*%
X1477953Y876772D2*
D14*
Y936614D1*
X1510630Y969292D1*
X1570079D1*
X1574410Y1059055D2*
Y969292D1*
X1570079D1*
X969252Y1475906D2*
X1096772D1*
X1168110Y1547244D1*
X1466929D1*
X1504725Y1509449D1*
Y1244095D1*
X1521654Y1227166D1*
X2297244Y2184252D2*
D15*
X2234646D1*
X2127166Y2291732D1*
X2052756D1*
X2051575Y2290551D1*
D16*
X1992047D1*
D17*
X1925591D1*
X1846457Y2369685D1*
Y2581496D1*
X1686614Y2741339D1*
X1480709D1*
X1428347Y2793701D1*
X1338977D1*
X2297244Y2184252D2*
D18*
Y2133071D1*
X2283465Y2119292D1*
X2168504D1*
X2137795Y2088583D1*
Y1991732D1*
X2138583Y1990945D1*
X1920866D1*
X1848819Y2062992D1*
X1681890D1*
X1658268Y2039370D1*
Y1987402D1*
X1625591D1*
X1577953Y1939764D1*
Y1226378D1*
X1608662Y1195670D1*
Y1148819D1*
X1611811Y1145670D1*
X1673622D1*
X1707874Y1111418D1*
Y997638D1*
X1755906Y949607D1*
X1837008D1*
X2135040D1*
X2261024D1*
X2340158Y1028740D1*
Y1105118D1*
X2372047Y1137008D1*
X2455118D1*
X2456299Y1135827D1*
D14*
Y1361811D1*
X2534646Y1440158D1*
X2833858D1*
X2869292Y1475591D1*
X2983189D1*
X2983504Y1475906D1*
X499252D2*
Y1660670D1*
X556299Y1717717D1*
X1107481D1*
X1155906Y1766142D1*
Y1933858D1*
X1167323Y1945276D1*
X1498425D1*
X1553937Y2000788D1*
X1644882D1*
X1658268Y1987402D1*
X2297244Y2403937D2*
D15*
X2138583D1*
X2126772Y2392126D1*
X2053150D1*
X2051575Y2390551D1*
X2297244Y2259055D2*
Y2403937D1*
X1916536Y1906693D2*
D14*
X1801181D1*
X1664567Y1770079D1*
Y1693701D1*
X1658268Y1687402D1*
X2472047Y875197D2*
Y920079D1*
X2433465Y958662D1*
X2418898Y1049213D2*
Y973229D1*
X2433465Y958662D1*
X2472047Y875197D2*
X2529528D1*
X2540945Y886614D1*
Y1309843D1*
X2521260Y1329528D1*
X2519292Y1477166D2*
Y1609449D1*
X2551575Y1641732D1*
X2849213D1*
X2920866Y1713386D1*
X3416929D1*
X3450000Y1680315D1*
Y1479410D1*
X3453504Y1475906D1*
X1758268Y1987402D2*
Y1950394D1*
X1605512Y1797638D1*
Y1444488D1*
X1859843Y1190158D1*
X1991339Y1906693D2*
Y1718110D1*
X2175591Y1533858D1*
X2382284D1*
X2451181Y1602756D1*
Y1754725D1*
X2480315Y1783858D1*
Y1892520D1*
X2462205Y1910630D1*
X2414567D1*
Y2045276D1*
X2446457Y2077166D1*
X2414567Y1835827D2*
Y1620473D1*
X2379528Y1585433D1*
X2160630D1*
X2136221Y1609843D1*
Y1688583D1*
X2138583Y1690945D1*
X2129921Y1145276D2*
Y1457874D1*
X2129134Y1458662D1*
X1837008Y874803D2*
X1554725D1*
X1552756Y876772D1*
X734252Y589370D2*
D19*
Y696063D1*
D20*
Y1432677D1*
D21*
Y1555906D1*
X2135040Y874803D2*
D14*
X2396851D1*
X2397244Y875197D1*
X3218110Y589370D2*
D19*
Y698425D1*
D20*
Y1555512D1*
D21*
X3218504Y1555906D1*
X3414961Y589370D2*
D19*
Y583465D1*
D20*
X3453504Y622008D1*
Y995906D1*
X931103Y589370D2*
D19*
X940551D1*
D20*
X969252Y618071D1*
Y995906D1*
X3021260Y589370D2*
D19*
Y577953D1*
D20*
X2983504Y615709D1*
Y995906D1*
X1000394Y2406299D2*
D22*
X1077559D1*
D17*
X1140945Y2469685D1*
Y2885827D1*
X1533071D1*
X1643307D2*
X1861024D1*
X2050788Y2696063D1*
Y2491339D1*
D16*
X2051575Y2490551D1*
X2297244Y2478740D2*
D15*
X2137008D1*
X2125591Y2490158D1*
X2051969D1*
X2051575Y2490551D1*
X2418898Y2480709D2*
X2299213D1*
X2297244Y2478740D1*
X537402Y589370D2*
D19*
X531890D1*
D20*
X499252Y622008D1*
Y995906D1*
X1758268Y1687402D2*
D14*
X1981103D1*
X2163780Y1504725D1*
X2402362D1*
X2482284Y1584646D1*
Y1736221D1*
X2510236Y1764173D1*
Y2160630D1*
X2542520Y2192914D1*
X2612992D1*
X2613780Y2193701D1*
X2238583Y1690945D2*
Y1719292D1*
X2325984Y1806693D1*
Y1980315D1*
X2380315Y2034646D1*
Y2134646D1*
X2490158Y2244488D1*
X2702362D1*
X2714961Y2231890D1*
Y2194882D1*
X2713780Y2193701D1*
D37*
X1570079Y969292D3*
X1521654Y1227166D3*
X2433465Y958662D3*
X2521260Y1329528D3*
X2519292Y1477166D3*
X2446457Y2077166D3*
X2129134Y1458662D3*
X789023Y2889387D2*
D23*
X1082070D1*
X1939852D2*
X2361463D1*
X2476327D2*
X2754286D1*
X789023Y2864519D2*
X1081971D1*
X1964706D2*
X2362099D1*
X2475692D2*
X2754286D1*
X789023Y2839650D2*
X1081971D1*
X1989608D2*
X2375868D1*
X2461923D2*
X2555263D1*
X789023Y2814781D2*
X1081971D1*
X1489658D2*
X1849696D1*
X2014462D2*
X2555263D1*
X789023Y2789912D2*
X1081971D1*
X1717978D2*
X1874550D1*
X2039315D2*
X2555263D1*
X789023Y2765044D2*
X1081971D1*
X1745322D2*
X1899403D1*
X2064218D2*
X2555263D1*
X789023Y2740175D2*
X1081971D1*
X1770175D2*
X1924306D1*
X2089071D2*
X2555263D1*
X789023Y2715306D2*
X1081971D1*
X1393172D2*
X1424355D1*
X1795028D2*
X1949159D1*
X2106406D2*
X2559608D1*
X789023Y2690437D2*
X903504D1*
X1397420D2*
X1453700D1*
X1819931D2*
X1974012D1*
X2109774D2*
X2555360D1*
X789023Y2665568D2*
X887000D1*
X1389902D2*
X1679970D1*
X1844784D2*
X1991786D1*
X2109774D2*
X2562831D1*
X789023Y2640700D2*
X882851D1*
X1271982D2*
X1305995D1*
X1371982D2*
X1704872D1*
X1869638D2*
X1991786D1*
X2109774D2*
X2580799D1*
X2646786D2*
X2680799D1*
X868416Y2615831D2*
X888466D1*
X1392928D2*
X1729726D1*
X1893807D2*
X1991786D1*
X2109774D2*
X2559803D1*
X881406Y2590962D2*
X907704D1*
X1397420D2*
X1754579D1*
X1904647D2*
X1991786D1*
X2109774D2*
X2555311D1*
X883700Y2566093D2*
X1081971D1*
X1390243D2*
X1779482D1*
X1905428D2*
X1991786D1*
X2109774D2*
X2562538D1*
X883700Y2541225D2*
X1081971D1*
X1271151D2*
X1306826D1*
X1371151D2*
X1787490D1*
X1905428D2*
X1991786D1*
X2109774D2*
X2581630D1*
X2645956D2*
X2681630D1*
X883700Y2516356D2*
X1081971D1*
X1392734D2*
X1787490D1*
X1905428D2*
X1991786D1*
X2477402D2*
X2560047D1*
X883700Y2491487D2*
X1080360D1*
X1397470D2*
X1787490D1*
X1905428D2*
X1991786D1*
X2477402D2*
X2555311D1*
X883163Y2466618D2*
X912391D1*
X1390536D2*
X1787490D1*
X1905428D2*
X1997499D1*
X2477402D2*
X2562244D1*
X874570Y2441750D2*
X883316D1*
X1192538D2*
X1207655D1*
X1270272D2*
X1307655D1*
X1370272D2*
X1787490D1*
X1905428D2*
X2021230D1*
X2477402D2*
X2582460D1*
X2645076D2*
X2682460D1*
X848446Y2416881D2*
X873818D1*
X1170516D2*
X1185487D1*
X1392490D2*
X1787490D1*
X1905428D2*
X1999647D1*
X2355771D2*
X2560292D1*
X789023Y2392012D2*
X874550D1*
X1145663D2*
X1180507D1*
X1397470D2*
X1787490D1*
X1906503D2*
X1993055D1*
X2355771D2*
X2555263D1*
X789023Y2367143D2*
X885878D1*
X1133016D2*
X1187147D1*
X1390780D2*
X1787538D1*
X1931406D2*
X1998183D1*
X2355771D2*
X2561952D1*
X789023Y2342274D2*
X923378D1*
X1095516D2*
X1208583D1*
X1269394D2*
X1308583D1*
X1369394D2*
X1794570D1*
X2082479D2*
X2253260D1*
X2341219D2*
X2583387D1*
X2644198D2*
X2683387D1*
X789023Y2317406D2*
X1185731D1*
X1392244D2*
X1816347D1*
X2162655D2*
X2253260D1*
X2341219D2*
X2560536D1*
X789023Y2292537D2*
X1180458D1*
X1397470D2*
X1841200D1*
X2187558D2*
X2238710D1*
X2355771D2*
X2555263D1*
X789023Y2267668D2*
X1186855D1*
X1391074D2*
X1866103D1*
X2212411D2*
X2238710D1*
X2355771D2*
X2467860D1*
X789023Y2242799D2*
X1209511D1*
X1268466D2*
X1309511D1*
X1368466D2*
X1892910D1*
X2083358D2*
X2114931D1*
X2355771D2*
X2442860D1*
X789023Y2217931D2*
X1185975D1*
X1392000D2*
X2139784D1*
X2355771D2*
X2417958D1*
X789023Y2193062D2*
X1180458D1*
X1397470D2*
X2164638D1*
X2355771D2*
X2393104D1*
X2484335D2*
X2497059D1*
X789023Y2168193D2*
X1186610D1*
X1391366D2*
X2189540D1*
X2355771D2*
X2368251D1*
X2459482D2*
X2478211D1*
X789023Y2143324D2*
X1210487D1*
X1267490D2*
X1310487D1*
X1367490D2*
X2144130D1*
X2434628D2*
X2477235D1*
X2543222D2*
X2585292D1*
X2642294D2*
X2685292D1*
X789023Y2118456D2*
X1186219D1*
X1391708D2*
X2119227D1*
X2328768D2*
X2347303D1*
X2413290D2*
X2424891D1*
X2468075D2*
X2477265D1*
X2543222D2*
X2561024D1*
X789023Y2093587D2*
X1180458D1*
X1397519D2*
X1668446D1*
X1862264D2*
X2103211D1*
X2305819D2*
X2347303D1*
X2543222D2*
X2555263D1*
X789023Y2068718D2*
X1186318D1*
X1391610D2*
X1639150D1*
X1891562D2*
X2102822D1*
X2172811D2*
X2347303D1*
X2543222D2*
X2561122D1*
X789023Y2043849D2*
X1210927D1*
X1267050D2*
X1310927D1*
X1367050D2*
X1623574D1*
X1916415D2*
X2102822D1*
X2172811D2*
X2217664D1*
X2259482D2*
X2343886D1*
X2543222D2*
X2585731D1*
X2641855D2*
X2685731D1*
X789023Y2018981D2*
X1186463D1*
X1391463D2*
X1526503D1*
X1807040D2*
X1844374D1*
X2289559D2*
X2319032D1*
X2447567D2*
X2477235D1*
X2543222D2*
X2561268D1*
X789023Y1994112D2*
X1180458D1*
X1397519D2*
X1501650D1*
X1816366D2*
X1869227D1*
X2447567D2*
X2477235D1*
X2543222D2*
X2555263D1*
X789023Y1969243D2*
X1145986D1*
X1813778D2*
X1894130D1*
X2447567D2*
X2477235D1*
X2543222D2*
X2560878D1*
X789023Y1944374D2*
X1124794D1*
X1696639D2*
X1706630D1*
X1796639D2*
X1861952D1*
X2045907D2*
X2104970D1*
X2172226D2*
X2204970D1*
X2272226D2*
X2293007D1*
X2543222D2*
X2584706D1*
X2642831D2*
X2684706D1*
X789023Y1919505D2*
X1122890D1*
X1517244D2*
X1542958D1*
X1612948D2*
X1681776D1*
X2045907D2*
X2293007D1*
X2543222D2*
X2561562D1*
X789023Y1894637D2*
X1122890D1*
X1397470D2*
X1542958D1*
X1612948D2*
X1656874D1*
X2045907D2*
X2293007D1*
X2543222D2*
X2555263D1*
X789023Y1869768D2*
X1122890D1*
X1392147D2*
X1542958D1*
X1612948D2*
X1632020D1*
X1809872D2*
X1861952D1*
X2045907D2*
X2293007D1*
X2543222D2*
X2560634D1*
X789023Y1844899D2*
X1122890D1*
X1188876D2*
X1208974D1*
X1269003D2*
X1308974D1*
X1369003D2*
X1542958D1*
X1785019D2*
X1958339D1*
X2024326D2*
X2293007D1*
X2543222D2*
X2583778D1*
X2643807D2*
X2683778D1*
X789023Y1820030D2*
X1122890D1*
X1390927D2*
X1542958D1*
X1760164D2*
X1958339D1*
X2024326D2*
X2293007D1*
X2543222D2*
X2561855D1*
X789023Y1795162D2*
X1122890D1*
X1397470D2*
X1542958D1*
X1735263D2*
X1958339D1*
X2024326D2*
X2268836D1*
X2543222D2*
X2555263D1*
X789023Y1770293D2*
X1114442D1*
X1392391D2*
X1542958D1*
X1710410D2*
X1958339D1*
X2024326D2*
X2243983D1*
X2335214D2*
X2381580D1*
X2543222D2*
X2560390D1*
X1180771Y1745424D2*
X1208046D1*
X1269882D2*
X1308046D1*
X1369882D2*
X1542958D1*
X1697567D2*
X1958339D1*
X2024326D2*
X2080067D1*
X2197079D2*
X2219080D1*
X2310360D2*
X2381580D1*
X2536776D2*
X2582851D1*
X2644687D2*
X2682851D1*
X1155966Y1720555D2*
X1187294D1*
X1390634D2*
X1542958D1*
X1805916D2*
X1958339D1*
X2034530D2*
X2080067D1*
X2288631D2*
X2381580D1*
X2515292D2*
X2562099D1*
X1131063Y1695687D2*
X1180507D1*
X1397470D2*
X1542958D1*
X2059383D2*
X2080067D1*
X2296883D2*
X2381580D1*
X2515292D2*
X2555311D1*
X2772274D2*
X2843642D1*
X1116171Y1670818D2*
X1185340D1*
X1392587D2*
X1542958D1*
X2293368D2*
X2381580D1*
X2515292D2*
X2539931D1*
X1116171Y1645949D2*
X1207167D1*
X1270760D2*
X1307167D1*
X1370760D2*
X1542958D1*
X1798446D2*
X1976942D1*
X2274471D2*
X2381580D1*
X1116171Y1621080D2*
X1187587D1*
X1390340D2*
X1542958D1*
X1638486D2*
X2001795D1*
X2170614D2*
X2369570D1*
X1116171Y1596211D2*
X1180507D1*
X1397420D2*
X1542958D1*
X1638486D2*
X2026650D1*
X2772226D2*
X2843642D1*
X1116171Y1571343D2*
X1146912D1*
X1488095D2*
X1542958D1*
X1638486D2*
X2051551D1*
X2552303D2*
X2559933D1*
X2767635D2*
X2843642D1*
X1513339Y1546474D2*
X1542958D1*
X1638486D2*
X2076406D1*
X2552303D2*
X2581142D1*
X2646395D2*
X2681142D1*
X2746395D2*
X2843642D1*
X1535164Y1521605D2*
X1542960D1*
X1638486D2*
X2101259D1*
X2464852D2*
X2486318D1*
X2552303D2*
X2562732D1*
X2764852D2*
X2843642D1*
X1163242Y1496736D2*
X1180555D1*
X1397420D2*
X1471718D1*
X1638486D2*
X2101747D1*
X2439999D2*
X2475722D1*
X2772226D2*
X2843642D1*
X1138339Y1471868D2*
X1184902D1*
X1393075D2*
X1471718D1*
X1638486D2*
X2083095D1*
X2175155D2*
X2471620D1*
X2767879D2*
X2819960D1*
X1116171Y1446999D2*
X1205555D1*
X1272420D2*
X1305555D1*
X1372420D2*
X1471718D1*
X1648642D2*
X2082655D1*
X2175595D2*
X2482752D1*
X1116171Y1422130D2*
X1188222D1*
X1389755D2*
X1471718D1*
X1673495D2*
X2096912D1*
X2162899D2*
X2470986D1*
X1116171Y1397261D2*
X1180555D1*
X1397372D2*
X1471718D1*
X1698348D2*
X2096912D1*
X2162899D2*
X2446131D1*
X2537362D2*
X2555360D1*
X2772176D2*
X2843642D1*
X1116171Y1372393D2*
X1184658D1*
X1393271D2*
X1471718D1*
X1612948D2*
X1631971D1*
X1723251D2*
X2096912D1*
X2162899D2*
X2425184D1*
X2538974D2*
X2559462D1*
X2768075D2*
X2843642D1*
X1116171Y1347524D2*
X1204774D1*
X1273202D2*
X1304774D1*
X1373202D2*
X1471718D1*
X1612948D2*
X1656874D1*
X1748104D2*
X2096912D1*
X2162899D2*
X2423328D1*
X2565536D2*
X2579588D1*
X2648007D2*
X2679579D1*
X2748007D2*
X2843642D1*
X1116171Y1322655D2*
X1188515D1*
X1389412D2*
X1471718D1*
X1612948D2*
X1681727D1*
X1772958D2*
X2096912D1*
X2162899D2*
X2423328D1*
X2764218D2*
X2843642D1*
X1116171Y1297786D2*
X1180604D1*
X1397323D2*
X1471718D1*
X1612948D2*
X1706580D1*
X1797860D2*
X2096912D1*
X2162899D2*
X2423328D1*
X2772128D2*
X2843642D1*
X1116171Y1272918D2*
X1184462D1*
X1393515D2*
X1471718D1*
X1612948D2*
X1731483D1*
X1822714D2*
X2096912D1*
X2162899D2*
X2423328D1*
X2489315D2*
X2507948D1*
X2768319D2*
X2843642D1*
X1116171Y1248049D2*
X1203992D1*
X1273935D2*
X1303992D1*
X1373935D2*
X1471718D1*
X1612948D2*
X1756336D1*
X1847567D2*
X2096912D1*
X2202547D2*
X2423328D1*
X2489315D2*
X2507948D1*
X2648739D2*
X2678798D1*
X2748739D2*
X2843642D1*
X1389120Y1223180D2*
X1473818D1*
X1629599D2*
X1781191D1*
X1905135D2*
X2096912D1*
X2227402D2*
X2423328D1*
X2489315D2*
X2507948D1*
X1397323Y1198311D2*
X1483974D1*
X1660507D2*
X1803895D1*
X1925986D2*
X2096912D1*
X2244150D2*
X2423328D1*
X2489315D2*
X2507948D1*
X1393710Y1173442D2*
X1563124D1*
X1692978D2*
X1764735D1*
X1951962D2*
X2081288D1*
X2233504D2*
X2407607D1*
X1274667Y1148574D2*
X1303260D1*
X1374667D2*
X1563124D1*
X1719150D2*
X1753944D1*
X1972910D2*
X2073475D1*
X2208603D2*
X2335146D1*
X2649471D2*
X2678066D1*
X1388778Y1123705D2*
X1563124D1*
X1740439D2*
X1755848D1*
X1968563D2*
X2077870D1*
X2228378D2*
X2311024D1*
X1397274Y1098836D2*
X1525722D1*
X1742879D2*
X1772499D1*
X1847176D2*
X1875771D1*
X1943906D2*
X2099744D1*
X2236336D2*
X2305164D1*
X1393906Y1073967D2*
X1525722D1*
X1742879D2*
X2127723D1*
X2232088D2*
X2305164D1*
X1275351Y1049099D2*
X1302576D1*
X1375351D2*
X1525722D1*
X1742879D2*
X2149306D1*
X2210507D2*
X2305164D1*
X2650155D2*
X2677382D1*
X1388436Y1024230D2*
X1525722D1*
X1742879D2*
X2287196D1*
X1397226Y999361D2*
X1503066D1*
X1607382D2*
X1672890D1*
X1754599D2*
X1778504D1*
X1895516D2*
X2076503D1*
X2193563D2*
X2262343D1*
X2359238D2*
X2370204D1*
X1394100Y974492D2*
X1470204D1*
X1617782D2*
X1682558D1*
X2334383D2*
X2385927D1*
X2478622D2*
X2507948D1*
X1276034Y949624D2*
X1301894D1*
X1376034D2*
X1447890D1*
X1613583D2*
X1707460D1*
X2309482D2*
X2386366D1*
X2488143D2*
X2507948D1*
X2650839D2*
X2676698D1*
X1388095Y924755D2*
X1423378D1*
X1607332D2*
X1732460D1*
X2284432D2*
X2342664D1*
X1397176Y899886D2*
X1423378D1*
X1895516D2*
X2076503D1*
X1394295Y875017D2*
X1423378D1*
X1895516D2*
X2076503D1*
X1276718Y850149D2*
X1301259D1*
X1376718D2*
X1423378D1*
X1895516D2*
X2076503D1*
X2549423D2*
X2576063D1*
X2651523D2*
X2676063D1*
X2253725Y2530823D2*
X2353264D1*
Y2522181D1*
X2362836Y2522201D1*
X2362878Y2536729D1*
X2474918D1*
Y2424689D1*
X2362878D1*
Y2439191D1*
X2353225Y2439217D1*
X2353264Y2351855D1*
X2338763D1*
X2338736Y2311116D1*
X2353264Y2311138D1*
Y2148688D1*
X2357129Y2154449D1*
X2468596Y2266050D1*
X2474226Y2270487D1*
X2480735Y2273488D1*
X2487765Y2274886D1*
X2561007Y2274981D1*
X2559307Y2280624D1*
X2557933Y2289306D1*
Y2298096D1*
X2559307Y2306778D1*
X2562024Y2315139D1*
X2566015Y2322971D1*
X2571183Y2330083D1*
X2577398Y2336298D1*
X2584509Y2341466D1*
X2588348Y2343788D1*
X2580852Y2348379D1*
X2574168Y2354089D1*
X2568458Y2360773D1*
X2563866Y2368269D1*
X2560502Y2376390D1*
X2558450Y2384937D1*
X2557760Y2393701D1*
X2558450Y2402465D1*
X2560502Y2411012D1*
X2563866Y2419133D1*
X2568458Y2426629D1*
X2574168Y2433313D1*
X2580852Y2439023D1*
X2588519Y2443694D1*
X2580852Y2448379D1*
X2574168Y2454089D1*
X2568458Y2460773D1*
X2563866Y2468269D1*
X2560502Y2476390D1*
X2558450Y2484937D1*
X2557760Y2493701D1*
X2558450Y2502465D1*
X2560502Y2511012D1*
X2563866Y2519133D1*
X2568458Y2526629D1*
X2574168Y2533313D1*
X2580852Y2539023D1*
X2588519Y2543694D1*
X2580852Y2548379D1*
X2574168Y2554089D1*
X2568458Y2560773D1*
X2563866Y2568269D1*
X2560502Y2576390D1*
X2558450Y2584937D1*
X2557760Y2593701D1*
X2558450Y2602465D1*
X2560502Y2611012D1*
X2563866Y2619133D1*
X2568458Y2626629D1*
X2574168Y2633313D1*
X2580852Y2639023D1*
X2588519Y2643694D1*
X2580852Y2648379D1*
X2574168Y2654089D1*
X2568458Y2660773D1*
X2563866Y2668269D1*
X2560502Y2676390D1*
X2558450Y2684937D1*
X2557760Y2693701D1*
X2558450Y2702465D1*
X2560502Y2711012D1*
X2563866Y2719133D1*
X2568458Y2726629D1*
X2574168Y2733313D1*
X2579138Y2737671D1*
X2557760Y2737681D1*
Y2849721D1*
X2669799D1*
Y2828382D1*
X2674168Y2833313D1*
X2680852Y2839023D1*
X2688348Y2843614D1*
X2696469Y2846979D1*
X2705016Y2849030D1*
X2713780Y2849721D1*
X2722544Y2849030D1*
X2731091Y2846979D1*
X2739211Y2843614D1*
X2746708Y2839023D1*
X2753391Y2833313D1*
X2756771Y2829584D1*
X2756776Y2914222D1*
X2461903Y2914256D1*
X2466663Y2907617D1*
X2470654Y2899785D1*
X2473370Y2891424D1*
X2474744Y2882742D1*
Y2873952D1*
X2473370Y2865269D1*
X2470654Y2856908D1*
X2466663Y2849076D1*
X2461495Y2841965D1*
X2455280Y2835750D1*
X2448168Y2830582D1*
X2440336Y2826591D1*
X2431975Y2823874D1*
X2423293Y2822500D1*
X2414503D1*
X2405820Y2823874D1*
X2397460Y2826591D1*
X2389628Y2830582D1*
X2382516Y2835750D1*
X2376301Y2841965D1*
X2371133Y2849076D1*
X2367142Y2856908D1*
X2364425Y2865269D1*
X2363051Y2873952D1*
Y2882742D1*
X2364425Y2891424D1*
X2367142Y2899785D1*
X2371133Y2907617D1*
X2375928Y2914256D1*
X1912488D1*
X2093744Y2732752D1*
X2098956Y2725580D1*
X2102979Y2717681D1*
X2105719Y2709251D1*
X2107105Y2700495D1*
X2107280Y2646063D1*
Y2531659D1*
X2128847Y2531523D1*
X2135277Y2530503D1*
X2141469Y2528491D1*
X2147271Y2525536D1*
X2152547Y2521700D1*
X2162008Y2520232D1*
X2241256D1*
X2241225Y2530823D1*
X2253725D1*
X2255755Y2351855D2*
X2241225D1*
Y2362450D1*
X2155789Y2362445D1*
X2151160Y2358558D1*
X2145609Y2355156D1*
X2139593Y2352664D1*
X2133263Y2351145D1*
X2126772Y2350634D1*
X2090883D1*
X2084503Y2345230D1*
X2076836Y2340558D1*
X2084516Y2335861D1*
X2090256Y2333225D1*
X2130421Y2333097D1*
X2136852Y2332079D1*
X2143044Y2330066D1*
X2148845Y2327110D1*
X2154113Y2323284D1*
X2227215Y2250361D1*
X2241200Y2236378D1*
X2241225Y2311138D1*
X2255727D1*
X2255752Y2351877D1*
X2349797Y2132170D2*
X2329680D1*
X2328839Y2125486D1*
X2326194Y2118320D1*
X2321952Y2111969D1*
X2304567Y2094584D1*
X2298215Y2090341D1*
X2291050Y2087697D1*
X2283465Y2086799D1*
X2181952D1*
X2170315Y2075151D1*
X2170288Y2037167D1*
X2178194Y2030557D1*
X2183904Y2023873D1*
X2188576Y2016206D1*
X2193261Y2023873D1*
X2198971Y2030557D1*
X2205655Y2036267D1*
X2213151Y2040858D1*
X2221272Y2044223D1*
X2229819Y2046274D1*
X2238583Y2046965D1*
X2247347Y2046274D1*
X2255894Y2044223D1*
X2264015Y2040858D1*
X2271511Y2036267D1*
X2278194Y2030557D1*
X2283904Y2023873D1*
X2288496Y2016377D1*
X2291861Y2008256D1*
X2293912Y1999709D1*
X2294603Y1990945D1*
X2293912Y1982181D1*
X2291861Y1973634D1*
X2288496Y1965513D1*
X2283904Y1958017D1*
X2278194Y1951334D1*
X2271511Y1945624D1*
X2264015Y1941032D1*
X2255894Y1937667D1*
X2247347Y1935616D1*
X2238583Y1934925D1*
X2229819Y1935616D1*
X2221272Y1937667D1*
X2213151Y1941032D1*
X2205655Y1945624D1*
X2198971Y1951334D1*
X2193261Y1958017D1*
X2188589Y1965684D1*
X2183904Y1958017D1*
X2178194Y1951334D1*
X2171511Y1945624D1*
X2164015Y1941032D1*
X2155894Y1937667D1*
X2147347Y1935616D1*
X2138583Y1934925D1*
X2129819Y1935616D1*
X2121272Y1937667D1*
X2113151Y1941032D1*
X2105655Y1945624D1*
X2098971Y1951334D1*
X2092966Y1958461D1*
X2043416Y1958453D1*
X2043421Y1850673D1*
X2021790D1*
X2021831Y1730765D1*
X2082541Y1670032D1*
X2082563Y1746965D1*
X2194603D1*
Y1725626D1*
X2198971Y1730557D1*
X2205655Y1736267D1*
X2213151Y1740858D1*
X2219869Y1743705D1*
X2295502Y1819332D1*
X2295587Y1982708D1*
X2296984Y1989738D1*
X2299986Y1996247D1*
X2304423Y2001877D1*
X2349826Y2047278D1*
X2349823Y2132155D1*
X1585347Y2823902D2*
X1478030D1*
X1504097Y2797843D1*
X1691046Y2797656D1*
X1699802Y2796271D1*
X1708232Y2793530D1*
X1716131Y2789507D1*
X1723303Y2784295D1*
X1761916Y2745929D1*
X1889414Y2618185D1*
X1894625Y2611013D1*
X1898649Y2603114D1*
X1901389Y2594684D1*
X1902774Y2585928D1*
X1902949Y2531496D1*
Y2393068D1*
X1949000Y2347034D1*
X1996479Y2346869D1*
X2004547Y2346571D1*
X2016900D1*
X2011963Y2350940D1*
X2006253Y2357624D1*
X2001662Y2365120D1*
X1998297Y2373240D1*
X1996246Y2381788D1*
X1995555Y2390551D1*
X1996246Y2399315D1*
X1998297Y2407862D1*
X2001662Y2415983D1*
X2006253Y2423479D1*
X2011963Y2430163D1*
X2018647Y2435873D1*
X2026189Y2440487D1*
X2017583Y2445635D1*
X2010841Y2451393D1*
X2005084Y2458134D1*
X2000453Y2465692D1*
X1997061Y2473882D1*
X1994991Y2482502D1*
X1994295Y2491339D1*
Y2672638D1*
X1837621Y2829337D1*
X1701307Y2829335D1*
X1701295Y2823902D1*
X1585319Y2823950D1*
X951201Y2576659D2*
X940878Y2577469D1*
X930828Y2579881D1*
X921281Y2583836D1*
X912469Y2589236D1*
X904609Y2595948D1*
X897898Y2603807D1*
X892498Y2612620D1*
X888542Y2622167D1*
X886130Y2632217D1*
X885319Y2642520D1*
X886130Y2652823D1*
X888542Y2662873D1*
X892498Y2672420D1*
X897898Y2681232D1*
X904609Y2689092D1*
X912469Y2695803D1*
X921281Y2701204D1*
X930828Y2705159D1*
X940878Y2707571D1*
X951201Y2708381D1*
X1054774Y2708179D1*
X1064982Y2706562D1*
X1074811Y2703369D1*
X1084440Y2698397D1*
X1084628Y2890259D1*
X1086013Y2899015D1*
X1088753Y2907445D1*
X1090618Y2911490D1*
X1081776Y2914256D1*
X786512D1*
X786532Y2632860D1*
X795002Y2636261D1*
X805051Y2638673D1*
X815355Y2639484D1*
X825658Y2638673D1*
X835708Y2636261D1*
X845255Y2632306D1*
X854067Y2626906D1*
X861927Y2620194D1*
X868638Y2612335D1*
X874038Y2603523D1*
X877994Y2593975D1*
X880406Y2583925D1*
X881217Y2573622D1*
X881013Y2470029D1*
X879397Y2459822D1*
X876204Y2449992D1*
X871511Y2440784D1*
X865436Y2432423D1*
X858129Y2425116D1*
X849768Y2419041D1*
X840559Y2414348D1*
X830730Y2411155D1*
X820523Y2409538D1*
X810187D1*
X799979Y2411155D1*
X790150Y2414348D1*
X786536Y2416015D1*
X786532Y1760496D1*
X1107187Y1760532D1*
X1125383Y1778742D1*
X1125508Y1936251D1*
X1126906Y1943281D1*
X1129907Y1949790D1*
X1134344Y1955420D1*
X1147520Y1968462D1*
X1153481Y1972445D1*
X1160205Y1974925D1*
X1167323Y1975768D1*
X1185927D1*
X1183647Y1984937D1*
X1182957Y1993701D1*
X1183647Y2002465D1*
X1185698Y2011012D1*
X1189063Y2019133D1*
X1193655Y2026629D1*
X1199365Y2033313D1*
X1206049Y2039023D1*
X1213715Y2043694D1*
X1206049Y2048379D1*
X1199365Y2054089D1*
X1193655Y2060773D1*
X1189063Y2068269D1*
X1185698Y2076390D1*
X1183647Y2084937D1*
X1182957Y2093701D1*
X1183647Y2102465D1*
X1185698Y2111012D1*
X1189063Y2119133D1*
X1193655Y2126629D1*
X1199365Y2133313D1*
X1206049Y2139023D1*
X1213715Y2143694D1*
X1206049Y2148379D1*
X1199365Y2154089D1*
X1193655Y2160773D1*
X1189063Y2168269D1*
X1185698Y2176390D1*
X1183647Y2184937D1*
X1182957Y2193701D1*
X1183647Y2202465D1*
X1185698Y2211012D1*
X1189063Y2219133D1*
X1193655Y2226629D1*
X1199365Y2233313D1*
X1206049Y2239023D1*
X1213715Y2243694D1*
X1206049Y2248379D1*
X1199365Y2254089D1*
X1193655Y2260773D1*
X1189063Y2268269D1*
X1185698Y2276390D1*
X1183647Y2284937D1*
X1182957Y2293701D1*
X1183647Y2302465D1*
X1185698Y2311012D1*
X1189063Y2319133D1*
X1193655Y2326629D1*
X1199365Y2333313D1*
X1206049Y2339023D1*
X1213715Y2343694D1*
X1206049Y2348379D1*
X1199365Y2354089D1*
X1193655Y2360773D1*
X1189063Y2368269D1*
X1185698Y2376390D1*
X1183647Y2384937D1*
X1182957Y2393701D1*
X1183647Y2402465D1*
X1185698Y2411012D1*
X1189063Y2419133D1*
X1193655Y2426629D1*
X1199365Y2433313D1*
X1206049Y2439023D1*
X1213715Y2443694D1*
X1206049Y2448379D1*
X1199365Y2454089D1*
X1196134Y2457629D1*
X1193137Y2448067D1*
X1189113Y2440168D1*
X1183902Y2432996D1*
X1141427Y2390276D1*
X1138408Y2381095D1*
X1133717Y2371886D1*
X1127642Y2363525D1*
X1120334Y2356217D1*
X1111973Y2350142D1*
X1102764Y2345450D1*
X1092935Y2342257D1*
X1082727Y2340641D1*
X1046949Y2340437D1*
X936171Y2340641D1*
X925963Y2342257D1*
X916134Y2345450D1*
X906925Y2350143D1*
X898565Y2356218D1*
X891257Y2363525D1*
X885183Y2371886D1*
X880490Y2381095D1*
X877297Y2390924D1*
X875680Y2401131D1*
Y2411467D1*
X877297Y2421675D1*
X880490Y2431504D1*
X885183Y2440713D1*
X891257Y2449074D1*
X898565Y2456381D1*
X906925Y2462456D1*
X916134Y2467149D1*
X925963Y2470341D1*
X936171Y2471958D1*
X978839Y2472162D1*
X1063529D1*
X1084466Y2493099D1*
X1084453Y2586629D1*
X1074811Y2581671D1*
X1064982Y2578478D1*
X1054774Y2576861D1*
X1012107Y2576658D1*
X951181Y2576706D1*
X1438370Y932792D2*
X1447502D1*
X1447836Y941385D1*
X1449782Y948284D1*
X1453285Y954537D1*
X1456393Y958176D1*
X1490827Y992478D1*
X1496788Y996461D1*
X1503512Y998941D1*
X1510630Y999784D1*
X1536362D1*
X1541948Y1004999D1*
X1528232Y1005004D1*
Y1113107D1*
X1565587D1*
X1565634Y1192726D1*
X1558236Y1200145D1*
X1553822Y1194998D1*
X1548394Y1190361D1*
X1542307Y1186631D1*
X1535711Y1183900D1*
X1528771Y1182234D1*
X1521654Y1181673D1*
X1514537Y1182234D1*
X1507596Y1183900D1*
X1501000Y1186631D1*
X1494914Y1190361D1*
X1489486Y1194998D1*
X1484849Y1200425D1*
X1481120Y1206512D1*
X1478389Y1213108D1*
X1476722Y1220049D1*
X1476162Y1227166D1*
X1476513Y1232523D1*
X1474608Y1239324D1*
X1474232Y1244095D1*
Y1496780D1*
X1454264Y1516786D1*
X1390025Y1516752D1*
X1392255Y1511012D1*
X1394306Y1502465D1*
X1394996Y1493701D1*
X1394306Y1484937D1*
X1392255Y1476390D1*
X1388890Y1468269D1*
X1384298Y1460773D1*
X1378588Y1454089D1*
X1371904Y1448379D1*
X1364238Y1443708D1*
X1371904Y1439023D1*
X1378588Y1433313D1*
X1384298Y1426629D1*
X1388890Y1419133D1*
X1392255Y1411012D1*
X1394306Y1402465D1*
X1394996Y1393701D1*
X1394306Y1384937D1*
X1392255Y1376390D1*
X1388890Y1368269D1*
X1384298Y1360773D1*
X1378588Y1354089D1*
X1371904Y1348379D1*
X1364238Y1343708D1*
X1371904Y1339023D1*
X1378588Y1333313D1*
X1384298Y1326629D1*
X1388890Y1319133D1*
X1392255Y1311012D1*
X1394306Y1302465D1*
X1394996Y1293701D1*
X1394306Y1284937D1*
X1392255Y1276390D1*
X1388890Y1268269D1*
X1384298Y1260773D1*
X1378588Y1254089D1*
X1371904Y1248379D1*
X1364238Y1243708D1*
X1371904Y1239023D1*
X1378588Y1233313D1*
X1384298Y1226629D1*
X1388890Y1219133D1*
X1392255Y1211012D1*
X1394306Y1202465D1*
X1394996Y1193701D1*
X1394306Y1184937D1*
X1392255Y1176390D1*
X1388890Y1168269D1*
X1384298Y1160773D1*
X1378588Y1154089D1*
X1371904Y1148379D1*
X1364238Y1143708D1*
X1371904Y1139023D1*
X1378588Y1133313D1*
X1384298Y1126629D1*
X1388890Y1119133D1*
X1392255Y1111012D1*
X1394306Y1102465D1*
X1394996Y1093701D1*
X1394306Y1084937D1*
X1392255Y1076390D1*
X1388890Y1068269D1*
X1384298Y1060773D1*
X1378588Y1054089D1*
X1371904Y1048379D1*
X1364238Y1043708D1*
X1371904Y1039023D1*
X1378588Y1033313D1*
X1384298Y1026629D1*
X1388890Y1019133D1*
X1392255Y1011012D1*
X1394306Y1002465D1*
X1394996Y993701D1*
X1394306Y984937D1*
X1392255Y976390D1*
X1388890Y968269D1*
X1384298Y960773D1*
X1378588Y954089D1*
X1371904Y948379D1*
X1364238Y943708D1*
X1371904Y939023D1*
X1378588Y933313D1*
X1384298Y926629D1*
X1388890Y919133D1*
X1392255Y911012D1*
X1394306Y902465D1*
X1394996Y893701D1*
X1394306Y884937D1*
X1392255Y876390D1*
X1388890Y868269D1*
X1384298Y860773D1*
X1378588Y854089D1*
X1371904Y848379D1*
X1364408Y843788D1*
X1356288Y840423D1*
X1347740Y838372D1*
X1338977Y837681D1*
X1330213Y838372D1*
X1321666Y840423D1*
X1313545Y843788D1*
X1306049Y848379D1*
X1299365Y854089D1*
X1293655Y860773D1*
X1288983Y868440D1*
X1284298Y860773D1*
X1278588Y854089D1*
X1271904Y848379D1*
X1264408Y843788D1*
X1256288Y840423D1*
X1247740Y838372D1*
X1238977Y837681D1*
X1230213Y838372D1*
X1221666Y840423D1*
X1217211Y842096D1*
X1217225Y825874D1*
X1425886Y825902D1*
X1425870Y932792D1*
X1438370D1*
X1597208D2*
X1604839D1*
Y905301D1*
X1780945Y905295D1*
X1780988Y917104D1*
X1753356Y917214D1*
X1745865Y918705D1*
X1738928Y921902D1*
X1732931Y926631D1*
X1683167Y976536D1*
X1678924Y982887D1*
X1676280Y990053D1*
X1675382Y997638D1*
Y1005011D1*
X1604914Y1005004D1*
X1606883Y996032D1*
X1610613Y989945D1*
X1613344Y983349D1*
X1615011Y976408D1*
X1615571Y969292D1*
X1615011Y962175D1*
X1613344Y955234D1*
X1610613Y948638D1*
X1606883Y942551D1*
X1602247Y937124D1*
X1597202Y932790D1*
X1604839Y844267D2*
Y825878D1*
X1780965Y825902D1*
X1780988Y844352D1*
X1604831Y844311D1*
X2500385Y931217D2*
X2510444D1*
X2510453Y995159D1*
X2460631Y995162D1*
X2465633Y990830D1*
X2470269Y985402D1*
X2473999Y979315D1*
X2476730Y972719D1*
X2478397Y965778D1*
X2478957Y958662D1*
X2478868Y956389D1*
X2495234Y939882D1*
X2499215Y933923D1*
X2500222Y931739D1*
X2524130Y844742D2*
Y825902D1*
X2761530D1*
X2761516Y864391D1*
X2756377Y857319D1*
X2750162Y851104D1*
X2743050Y845936D1*
X2735218Y841945D1*
X2726857Y839229D1*
X2718175Y837855D1*
X2709385D1*
X2700702Y839229D1*
X2692341Y841945D1*
X2684509Y845936D1*
X2677398Y851104D1*
X2671183Y857319D1*
X2666015Y864431D1*
X2663693Y868269D1*
X2659101Y860773D1*
X2653391Y854089D1*
X2646708Y848379D1*
X2639211Y843788D1*
X2631091Y840423D1*
X2622544Y838372D1*
X2613780Y837681D1*
X2605016Y838372D1*
X2596469Y840423D1*
X2588348Y843788D1*
X2580852Y848379D1*
X2574168Y854089D1*
X2568458Y860773D1*
X2564462Y867204D1*
X2549331Y852011D1*
X2543370Y848028D1*
X2536646Y845547D1*
X2529528Y844705D1*
X2524108D1*
X2357662Y931217D2*
X2397163D1*
X2392931Y938008D1*
X2390200Y944604D1*
X2388533Y951545D1*
X2387973Y958662D1*
X2388533Y965778D1*
X2388781Y968458D1*
X2388406Y973229D1*
Y995152D1*
X2372721Y995162D1*
X2372550Y1026191D1*
X2371059Y1018700D1*
X2367862Y1011763D1*
X2363133Y1005765D1*
X2282126Y924899D1*
X2275774Y920655D1*
X2268609Y918012D1*
X2261024Y917114D1*
X2191053D1*
X2191059Y905255D1*
X2345147Y905295D1*
X2345162Y931217D1*
X2357662D1*
X2345162Y825866D2*
Y844323D1*
X2191040Y844311D1*
X2191059Y825894D1*
X2345125Y825902D1*
X1695071Y1743421D2*
X1714288D1*
Y1722083D1*
X1718656Y1727013D1*
X1725340Y1732723D1*
X1732836Y1737315D1*
X1740957Y1740680D1*
X1749504Y1742731D1*
X1758268Y1743421D1*
X1767032Y1742731D1*
X1775579Y1740680D1*
X1783700Y1737315D1*
X1791196Y1732723D1*
X1797879Y1727013D1*
X1803589Y1720330D1*
X1805221Y1717886D1*
X1960847Y1718110D1*
Y1850679D1*
X1864453Y1850673D1*
Y1876210D1*
X1813851Y1876201D1*
X1695028Y1757418D1*
X1695059Y1743467D1*
X1714288Y1652747D2*
Y1631382D1*
X1636016D1*
X1636004Y1457159D1*
X1849874Y1243250D1*
X1855603Y1244042D1*
X1864083D1*
X1872461Y1242715D1*
X1880528Y1240095D1*
X1888084Y1236244D1*
X1894946Y1231259D1*
X1900944Y1225261D1*
X1905929Y1218399D1*
X1909780Y1210843D1*
X1912566Y1201946D1*
X1918029Y1200786D1*
X1923685Y1198179D1*
X1928582Y1194318D1*
X1966709Y1155730D1*
X1969751Y1150295D1*
X1971442Y1144302D1*
X1971687Y1138079D1*
X1970471Y1131971D1*
X1967864Y1126315D1*
X1964008Y1121425D1*
X1925415Y1083292D1*
X1919981Y1080250D1*
X1913987Y1078558D1*
X1907764Y1078314D1*
X1901656Y1079529D1*
X1896000Y1082137D1*
X1891110Y1085992D1*
X1859104Y1117998D1*
X1855929Y1111916D1*
X1850944Y1105054D1*
X1844946Y1099057D1*
X1838084Y1094071D1*
X1830528Y1090221D1*
X1822461Y1087600D1*
X1814083Y1086273D1*
X1805603D1*
X1797225Y1087600D1*
X1789158Y1090221D1*
X1781601Y1094071D1*
X1774739Y1099057D1*
X1768742Y1105054D1*
X1763756Y1111916D1*
X1759906Y1119473D1*
X1757285Y1127540D1*
X1755958Y1135918D1*
Y1144398D1*
X1757285Y1152776D1*
X1759906Y1160843D1*
X1763756Y1168399D1*
X1768742Y1175261D1*
X1774739Y1181259D1*
X1781601Y1186244D1*
X1789158Y1190095D1*
X1797225Y1192715D1*
X1805916Y1194054D1*
X1806757Y1200125D1*
X1610440Y1396439D1*
X1610445Y1239813D1*
X1633369Y1216772D1*
X1637612Y1210420D1*
X1640256Y1203255D1*
X1640755Y1200743D1*
X1657988Y1199721D1*
Y1178187D1*
X1676172Y1178062D1*
X1683663Y1176571D1*
X1690600Y1173374D1*
X1696597Y1168645D1*
X1732582Y1132520D1*
X1736824Y1126168D1*
X1739469Y1119003D1*
X1740366Y1111418D1*
Y1011076D1*
X1769347Y982116D1*
X1780954Y982099D1*
X1780988Y1001689D1*
X1893028D1*
Y982109D1*
X2079049Y982099D1*
X2079020Y1001689D1*
X2191059D1*
Y982109D1*
X2247588Y982099D1*
X2307689Y1042222D1*
X2307765Y1107668D1*
X2309256Y1115159D1*
X2312453Y1122096D1*
X2317183Y1128093D1*
X2350945Y1161715D1*
X2357297Y1165960D1*
X2364462Y1168603D1*
X2372047Y1169500D1*
X2410084D1*
X2410122Y1189878D1*
X2425795D1*
X2425902Y1364204D1*
X2427299Y1371234D1*
X2430301Y1377743D1*
X2434738Y1383373D1*
X2492087Y1440722D1*
X2487124Y1444998D1*
X2482487Y1450425D1*
X2478757Y1456512D1*
X2476026Y1463108D1*
X2474360Y1470049D1*
X2473799Y1477166D1*
X2474360Y1484282D1*
X2476026Y1491223D1*
X2478757Y1497819D1*
X2482487Y1503906D1*
X2487124Y1509334D1*
X2488794Y1510877D1*
X2488799Y1548015D1*
X2422166Y1481538D1*
X2416206Y1477555D1*
X2409481Y1475075D1*
X2402362Y1474232D1*
X2171845D1*
X2174066Y1465778D1*
X2174626Y1458662D1*
X2174066Y1451545D1*
X2172399Y1444604D1*
X2169668Y1438008D1*
X2165939Y1431921D1*
X2160411Y1425670D1*
X2160414Y1248646D1*
X2164349Y1252142D1*
X2169784Y1255184D1*
X2175777Y1256874D1*
X2182000Y1257120D1*
X2188108Y1255904D1*
X2193764Y1253297D1*
X2198654Y1249441D1*
X2236788Y1210848D1*
X2239830Y1205414D1*
X2241520Y1199420D1*
X2241765Y1193197D1*
X2240550Y1187089D1*
X2237942Y1181433D1*
X2234087Y1176544D1*
X2202082Y1144537D1*
X2208163Y1141362D1*
X2215025Y1136377D1*
X2221023Y1130379D1*
X2226008Y1123517D1*
X2229858Y1115961D1*
X2232479Y1107894D1*
X2233806Y1099516D1*
Y1091036D1*
X2232479Y1082658D1*
X2229858Y1074591D1*
X2226008Y1067034D1*
X2221023Y1060172D1*
X2215025Y1054175D1*
X2208163Y1049189D1*
X2200607Y1045339D1*
X2192540Y1042718D1*
X2184162Y1041391D1*
X2175681D1*
X2167303Y1042718D1*
X2159236Y1045339D1*
X2151680Y1049189D1*
X2144818Y1054175D1*
X2138820Y1060172D1*
X2133835Y1067034D1*
X2129984Y1074591D1*
X2127364Y1082658D1*
X2126025Y1091349D1*
X2117303Y1092718D1*
X2109236Y1095339D1*
X2101680Y1099189D1*
X2094818Y1104175D1*
X2088820Y1110172D1*
X2083835Y1117034D1*
X2079984Y1124591D1*
X2077364Y1132658D1*
X2076037Y1141036D1*
Y1149516D1*
X2077364Y1157894D1*
X2079984Y1165961D1*
X2083835Y1173517D1*
X2088820Y1180379D1*
X2094818Y1186377D1*
X2099433Y1189861D1*
X2099429Y1424231D1*
X2094542Y1429117D1*
X2090345Y1434893D1*
X2087105Y1441252D1*
X2084899Y1448042D1*
X2083782Y1455092D1*
Y1462231D1*
X2084899Y1469281D1*
X2087105Y1476071D1*
X2090345Y1482431D1*
X2094542Y1488206D1*
X2099589Y1493253D1*
X2105365Y1497450D1*
X2111725Y1500691D1*
X2118515Y1502897D1*
X2121840Y1503558D1*
X1968445Y1656936D1*
X1805272Y1656910D1*
X1800865Y1651020D1*
X1794650Y1644805D1*
X1787538Y1639637D1*
X1779706Y1635646D1*
X1771345Y1632929D1*
X1762663Y1631555D1*
X1753873D1*
X1745191Y1632929D1*
X1736830Y1635646D1*
X1728998Y1639637D1*
X1721886Y1644805D1*
X1715671Y1651020D1*
X1714298Y1652760D1*
X1814114Y1983007D2*
X1812740Y1974324D1*
X1810024Y1965963D1*
X1806033Y1958131D1*
X1800865Y1951020D1*
X1794650Y1944805D1*
X1786593Y1939108D1*
X1784267Y1934462D1*
X1779830Y1928832D1*
X1636025Y1785029D1*
X1637398Y1783923D1*
X1641381Y1789882D1*
X1779620Y1928255D1*
X1785250Y1932692D1*
X1791759Y1935693D1*
X1798789Y1937091D1*
X1864414Y1937185D1*
X1864453Y1962713D1*
X1904736D1*
X1899764Y1966238D1*
X1835362Y2030498D1*
X1794083Y2030500D1*
X1800865Y2023784D1*
X1806033Y2016672D1*
X1810024Y2008840D1*
X1812740Y2000479D1*
X1814114Y1991797D1*
Y1983007D1*
X1715729Y1950957D2*
X1710503Y1958131D1*
X1708181Y1961970D1*
X1703589Y1954474D1*
X1697879Y1947790D1*
X1691196Y1942080D1*
X1683700Y1937488D1*
X1675579Y1934124D1*
X1667032Y1932072D1*
X1658268Y1931382D1*
X1649504Y1932072D1*
X1640957Y1934124D1*
X1632836Y1937488D1*
X1625869Y1941727D1*
X1610414Y1926274D1*
X1610467Y1845715D1*
X1715739Y1950987D1*
X1623519Y2031286D2*
X1625784Y2033019D1*
X1626176Y2044453D1*
X1628250Y2051805D1*
X1631981Y2058469D1*
X1635293Y2062345D1*
X1660788Y2087700D1*
X1667139Y2091944D1*
X1674305Y2094587D1*
X1681890Y2095484D1*
X1851369Y2095385D1*
X1858860Y2093894D1*
X1865797Y2090697D1*
X1871794Y2085967D1*
X1934323Y2023440D1*
X2092986Y2023437D1*
X2098971Y2030557D1*
X2105292Y2035979D1*
X2105403Y2091133D1*
X2106894Y2098624D1*
X2110091Y2105561D1*
X2114820Y2111558D1*
X2147402Y2143999D1*
X2153753Y2148243D1*
X2160919Y2150886D1*
X2168504Y2151784D1*
X2208788D1*
X2196467Y2163751D1*
X2109978Y2250240D1*
X2090496D1*
X2084503Y2245230D1*
X2077007Y2240638D1*
X2068886Y2237273D1*
X2060339Y2235222D1*
X2051575Y2234532D1*
X1996479Y2234234D1*
X1942047Y2234059D1*
X1921159Y2234234D1*
X1912403Y2235620D1*
X1903973Y2238360D1*
X1896074Y2242383D1*
X1888902Y2247595D1*
X1850289Y2285961D1*
X1803500Y2332996D1*
X1798289Y2340168D1*
X1794265Y2348067D1*
X1791525Y2356498D1*
X1790139Y2365253D1*
X1789965Y2419685D1*
Y2558113D1*
X1663191Y2684870D1*
X1476277Y2685021D1*
X1467521Y2686407D1*
X1459091Y2689147D1*
X1451192Y2693171D1*
X1444020Y2698382D1*
X1404958Y2737197D1*
X1374294Y2737209D1*
X1381574Y2730083D1*
X1386742Y2722971D1*
X1390732Y2715139D1*
X1393449Y2706778D1*
X1394823Y2698096D1*
Y2689306D1*
X1393449Y2680624D1*
X1390732Y2672263D1*
X1386742Y2664431D1*
X1381574Y2657319D1*
X1375358Y2651104D1*
X1368247Y2645936D1*
X1364408Y2643614D1*
X1371904Y2639023D1*
X1378588Y2633313D1*
X1384298Y2626629D1*
X1388890Y2619133D1*
X1392255Y2611012D1*
X1394306Y2602465D1*
X1394996Y2593701D1*
X1394306Y2584937D1*
X1392255Y2576390D1*
X1388890Y2568269D1*
X1384298Y2560773D1*
X1378588Y2554089D1*
X1371904Y2548379D1*
X1364238Y2543708D1*
X1371904Y2539023D1*
X1378588Y2533313D1*
X1384298Y2526629D1*
X1388890Y2519133D1*
X1392255Y2511012D1*
X1394306Y2502465D1*
X1394996Y2493701D1*
X1394306Y2484937D1*
X1392255Y2476390D1*
X1388890Y2468269D1*
X1384298Y2460773D1*
X1378588Y2454089D1*
X1371904Y2448379D1*
X1364238Y2443708D1*
X1371904Y2439023D1*
X1378588Y2433313D1*
X1384298Y2426629D1*
X1388890Y2419133D1*
X1392255Y2411012D1*
X1394306Y2402465D1*
X1394996Y2393701D1*
X1394306Y2384937D1*
X1392255Y2376390D1*
X1388890Y2368269D1*
X1384298Y2360773D1*
X1378588Y2354089D1*
X1371904Y2348379D1*
X1364238Y2343708D1*
X1371904Y2339023D1*
X1378588Y2333313D1*
X1384298Y2326629D1*
X1388890Y2319133D1*
X1392255Y2311012D1*
X1394306Y2302465D1*
X1394996Y2293701D1*
X1394306Y2284937D1*
X1392255Y2276390D1*
X1388890Y2268269D1*
X1384298Y2260773D1*
X1378588Y2254089D1*
X1371904Y2248379D1*
X1364238Y2243708D1*
X1371904Y2239023D1*
X1378588Y2233313D1*
X1384298Y2226629D1*
X1388890Y2219133D1*
X1392255Y2211012D1*
X1394306Y2202465D1*
X1394996Y2193701D1*
X1394306Y2184937D1*
X1392255Y2176390D1*
X1388890Y2168269D1*
X1384298Y2160773D1*
X1378588Y2154089D1*
X1371904Y2148379D1*
X1364238Y2143708D1*
X1371904Y2139023D1*
X1378588Y2133313D1*
X1384298Y2126629D1*
X1388890Y2119133D1*
X1392255Y2111012D1*
X1394306Y2102465D1*
X1394996Y2093701D1*
X1394306Y2084937D1*
X1392255Y2076390D1*
X1388890Y2068269D1*
X1384298Y2060773D1*
X1378588Y2054089D1*
X1371904Y2048379D1*
X1364238Y2043708D1*
X1371904Y2039023D1*
X1378588Y2033313D1*
X1384298Y2026629D1*
X1388890Y2019133D1*
X1392255Y2011012D1*
X1394306Y2002465D1*
X1394996Y1993701D1*
X1394306Y1984937D1*
X1392023Y1975761D1*
X1485828Y1975768D1*
X1534134Y2023974D1*
X1540095Y2027957D1*
X1546819Y2030437D1*
X1553937Y2031280D1*
X1623420D1*
X1625776Y2039370D1*
X1626673Y2046956D1*
X1629316Y2054121D1*
X1633561Y2060473D1*
X1635293Y2062345D1*
X1893028Y917071D2*
Y825894D1*
X2079011Y825902D1*
X2079020Y917104D1*
X1892999Y917114D1*
X2445023Y1962713D2*
X2470587D1*
Y1939910D1*
X2476047Y1937799D1*
X2478145Y1936624D1*
X2479744Y1939173D1*
Y2046156D1*
X2473197Y2040361D1*
X2467110Y2036631D1*
X2460515Y2033900D1*
X2453574Y2032234D1*
X2445049Y2031729D1*
X2445059Y1962708D1*
X2663773Y2668440D2*
X2659101Y2660773D1*
X2653391Y2654089D1*
X2646708Y2648379D1*
X2639041Y2643708D1*
X2646708Y2639023D1*
X2653391Y2633313D1*
X2659101Y2626629D1*
X2663773Y2618962D1*
X2668458Y2626629D1*
X2674168Y2633313D1*
X2680852Y2639023D1*
X2688519Y2643694D1*
X2680852Y2648379D1*
X2674168Y2654089D1*
X2668458Y2660773D1*
X2663786Y2668440D1*
X2663773Y2568440D2*
X2659101Y2560773D1*
X2653391Y2554089D1*
X2646708Y2548379D1*
X2639041Y2543708D1*
X2646708Y2539023D1*
X2653391Y2533313D1*
X2659101Y2526629D1*
X2663773Y2518962D1*
X2668458Y2526629D1*
X2674168Y2533313D1*
X2680852Y2539023D1*
X2688519Y2543694D1*
X2680852Y2548379D1*
X2674168Y2554089D1*
X2668458Y2560773D1*
X2663786Y2568440D1*
X2663773Y2468440D2*
X2659101Y2460773D1*
X2653391Y2454089D1*
X2646708Y2448379D1*
X2639041Y2443708D1*
X2646708Y2439023D1*
X2653391Y2433313D1*
X2659101Y2426629D1*
X2663773Y2418962D1*
X2668458Y2426629D1*
X2674168Y2433313D1*
X2680852Y2439023D1*
X2688519Y2443694D1*
X2680852Y2448379D1*
X2674168Y2454089D1*
X2668458Y2460773D1*
X2663786Y2468440D1*
X2663773Y2368440D2*
X2659101Y2360773D1*
X2653391Y2354089D1*
X2646708Y2348379D1*
X2639041Y2343708D1*
X2646708Y2339023D1*
X2653391Y2333313D1*
X2659101Y2326629D1*
X2663773Y2318962D1*
X2668458Y2326629D1*
X2674168Y2333313D1*
X2680852Y2339023D1*
X2688519Y2343694D1*
X2680852Y2348379D1*
X2674168Y2354089D1*
X2668458Y2360773D1*
X2663786Y2368440D1*
X2663773Y2168440D2*
X2659101Y2160773D1*
X2653391Y2154089D1*
X2646708Y2148379D1*
X2639041Y2143708D1*
X2646708Y2139023D1*
X2653391Y2133313D1*
X2659101Y2126629D1*
X2663773Y2118962D1*
X2668458Y2126629D1*
X2674168Y2133313D1*
X2680852Y2139023D1*
X2688519Y2143694D1*
X2680852Y2148379D1*
X2674168Y2154089D1*
X2668458Y2160773D1*
X2663786Y2168440D1*
X2588519Y2143708D2*
X2580852Y2148379D1*
X2574168Y2154089D1*
X2568458Y2160773D1*
X2567361Y2162416D1*
X2555131Y2162421D1*
X2540706Y2147978D1*
X2540634Y1761781D1*
X2539236Y1754751D1*
X2536235Y1748242D1*
X2531798Y1742612D1*
X2512773Y1723588D1*
X2512776Y1646036D1*
X2531772Y1664919D1*
X2537732Y1668902D1*
X2544457Y1671382D1*
X2551575Y1672225D1*
X2562024Y1672263D1*
X2559307Y1680624D1*
X2557933Y1689306D1*
Y1698096D1*
X2559307Y1706778D1*
X2562024Y1715139D1*
X2566015Y1722971D1*
X2571183Y1730083D1*
X2577398Y1736298D1*
X2584509Y1741466D1*
X2588348Y1743788D1*
X2580852Y1748379D1*
X2574168Y1754089D1*
X2568458Y1760773D1*
X2563866Y1768269D1*
X2560502Y1776390D1*
X2558450Y1784937D1*
X2557760Y1793701D1*
X2558450Y1802465D1*
X2560502Y1811012D1*
X2563866Y1819133D1*
X2568458Y1826629D1*
X2574168Y1833313D1*
X2580852Y1839023D1*
X2588519Y1843694D1*
X2580852Y1848379D1*
X2574168Y1854089D1*
X2568458Y1860773D1*
X2563866Y1868269D1*
X2560502Y1876390D1*
X2558450Y1884937D1*
X2557760Y1893701D1*
X2558450Y1902465D1*
X2560502Y1911012D1*
X2563866Y1919133D1*
X2568458Y1926629D1*
X2574168Y1933313D1*
X2580852Y1939023D1*
X2588519Y1943694D1*
X2580852Y1948379D1*
X2574168Y1954089D1*
X2568458Y1960773D1*
X2563866Y1968269D1*
X2560502Y1976390D1*
X2558450Y1984937D1*
X2557760Y1993701D1*
X2558450Y2002465D1*
X2560502Y2011012D1*
X2563866Y2019133D1*
X2568458Y2026629D1*
X2574168Y2033313D1*
X2580852Y2039023D1*
X2588519Y2043694D1*
X2580852Y2048379D1*
X2574168Y2054089D1*
X2568458Y2060773D1*
X2563866Y2068269D1*
X2560502Y2076390D1*
X2558450Y2084937D1*
X2557760Y2093701D1*
X2558450Y2102465D1*
X2560502Y2111012D1*
X2563866Y2119133D1*
X2568458Y2126629D1*
X2574168Y2133313D1*
X2580852Y2139023D1*
X2588519Y2143694D1*
X2663773Y2068440D2*
X2659101Y2060773D1*
X2653391Y2054089D1*
X2646708Y2048379D1*
X2639041Y2043708D1*
X2646708Y2039023D1*
X2653391Y2033313D1*
X2659101Y2026629D1*
X2663773Y2018962D1*
X2668458Y2026629D1*
X2674168Y2033313D1*
X2680852Y2039023D1*
X2688519Y2043694D1*
X2680852Y2048379D1*
X2674168Y2054089D1*
X2668458Y2060773D1*
X2663786Y2068440D1*
X2663773Y1968440D2*
X2659101Y1960773D1*
X2653391Y1954089D1*
X2646708Y1948379D1*
X2639041Y1943708D1*
X2646708Y1939023D1*
X2653391Y1933313D1*
X2659101Y1926629D1*
X2663773Y1918962D1*
X2668458Y1926629D1*
X2674168Y1933313D1*
X2680852Y1939023D1*
X2688519Y1943694D1*
X2680852Y1948379D1*
X2674168Y1954089D1*
X2668458Y1960773D1*
X2663786Y1968440D1*
X2663773Y1868440D2*
X2659101Y1860773D1*
X2653391Y1854089D1*
X2646708Y1848379D1*
X2639041Y1843708D1*
X2646708Y1839023D1*
X2653391Y1833313D1*
X2659101Y1826629D1*
X2663773Y1818962D1*
X2668458Y1826629D1*
X2674168Y1833313D1*
X2680852Y1839023D1*
X2688519Y1843694D1*
X2680852Y1848379D1*
X2674168Y1854089D1*
X2668458Y1860773D1*
X2663786Y1868440D1*
X2663773Y1768440D2*
X2659101Y1760773D1*
X2653391Y1754089D1*
X2646708Y1748379D1*
X2639041Y1743708D1*
X2646708Y1739023D1*
X2653391Y1733313D1*
X2659101Y1726629D1*
X2663773Y1718962D1*
X2668458Y1726629D1*
X2674168Y1733313D1*
X2680852Y1739023D1*
X2688519Y1743694D1*
X2680852Y1748379D1*
X2674168Y1754089D1*
X2668458Y1760773D1*
X2663786Y1768440D1*
X2769626Y1689306D2*
X2768252Y1680624D1*
X2765513Y1672217D1*
X2836584Y1672225D1*
X2846192Y1681835D1*
X2846162Y1703650D1*
X2769272Y1703626D1*
X2769799Y1693701D1*
X2769626Y1689306D1*
X2663773Y1568440D2*
X2659101Y1560773D1*
X2653391Y1554089D1*
X2646708Y1548379D1*
X2639041Y1543708D1*
X2646708Y1539023D1*
X2653391Y1533313D1*
X2659101Y1526629D1*
X2663773Y1518962D1*
X2668458Y1526629D1*
X2674168Y1533313D1*
X2680852Y1539023D1*
X2688519Y1543694D1*
X2680852Y1548379D1*
X2674168Y1554089D1*
X2668458Y1560773D1*
X2663786Y1568440D1*
X2588519Y1543708D2*
X2580852Y1548379D1*
X2574168Y1554089D1*
X2568458Y1560773D1*
X2563866Y1568269D1*
X2560502Y1576390D1*
X2558450Y1584937D1*
X2557760Y1593701D1*
X2558450Y1602465D1*
X2559197Y1606222D1*
X2549761Y1596797D1*
X2549784Y1510962D1*
X2556096Y1503906D1*
X2558196Y1500729D1*
X2560502Y1511012D1*
X2563866Y1519133D1*
X2568458Y1526629D1*
X2574168Y1533313D1*
X2580852Y1539023D1*
X2588519Y1543694D1*
X2769626Y1589306D2*
X2768252Y1580624D1*
X2765536Y1572263D1*
X2761545Y1564431D1*
X2756377Y1557319D1*
X2750162Y1551104D1*
X2743050Y1545936D1*
X2739211Y1543614D1*
X2746708Y1539023D1*
X2753391Y1533313D1*
X2759101Y1526629D1*
X2763693Y1519133D1*
X2767058Y1511012D1*
X2769109Y1502465D1*
X2769799Y1493701D1*
X2769109Y1484937D1*
X2767058Y1476390D1*
X2764794Y1470656D1*
X2821218Y1470650D1*
X2846168Y1495589D1*
X2846162Y1611267D1*
X2767058Y1611012D1*
X2769109Y1602465D1*
X2769799Y1593701D1*
X2769626Y1589306D1*
X2663773Y1368440D2*
X2659101Y1360773D1*
X2653391Y1354089D1*
X2646708Y1348379D1*
X2639041Y1343708D1*
X2646708Y1339023D1*
X2653391Y1333313D1*
X2659101Y1326629D1*
X2663773Y1318962D1*
X2668458Y1326629D1*
X2674168Y1333313D1*
X2680852Y1339023D1*
X2688519Y1343694D1*
X2680852Y1348379D1*
X2674168Y1354089D1*
X2668458Y1360773D1*
X2663786Y1368440D1*
X2588519Y1343708D2*
X2580852Y1348379D1*
X2574168Y1354089D1*
X2568458Y1360773D1*
X2563866Y1368269D1*
X2560502Y1376390D1*
X2558450Y1384937D1*
X2557760Y1393701D1*
X2558450Y1402465D1*
X2560124Y1409672D1*
X2547286Y1409666D1*
X2511565Y1373953D1*
X2517691Y1374879D1*
X2524830D1*
X2531879Y1373763D1*
X2538670Y1371557D1*
X2545029Y1368316D1*
X2550805Y1364120D1*
X2555852Y1359072D1*
X2560049Y1353297D1*
X2563289Y1346937D1*
X2565495Y1340147D1*
X2566612Y1333097D1*
X2566625Y1326280D1*
X2566949Y1325767D1*
X2568458Y1326629D1*
X2574168Y1333313D1*
X2580852Y1339023D1*
X2588519Y1343694D1*
X2769626Y1389306D2*
X2768252Y1380624D1*
X2765536Y1372263D1*
X2761545Y1364431D1*
X2756377Y1357319D1*
X2750162Y1351104D1*
X2743050Y1345936D1*
X2739211Y1343614D1*
X2746708Y1339023D1*
X2753391Y1333313D1*
X2759101Y1326629D1*
X2763693Y1319133D1*
X2767058Y1311012D1*
X2769109Y1302465D1*
X2769799Y1293701D1*
X2769109Y1284937D1*
X2767058Y1276390D1*
X2763693Y1268269D1*
X2759101Y1260773D1*
X2753391Y1254089D1*
X2746708Y1248379D1*
X2739041Y1243708D1*
X2746708Y1239023D1*
X2753391Y1233313D1*
X2759101Y1226629D1*
X2761516Y1223327D1*
Y1233366D1*
X2846135D1*
X2846162Y1412243D1*
X2840977Y1410508D1*
X2833858Y1409666D1*
X2767502D1*
X2769109Y1402465D1*
X2769799Y1393701D1*
X2769626Y1389306D1*
X2663773Y1268440D2*
X2659101Y1260773D1*
X2653391Y1254089D1*
X2646708Y1248379D1*
X2639041Y1243708D1*
X2646708Y1239023D1*
X2653391Y1233313D1*
X2659101Y1226629D1*
X2663773Y1218962D1*
X2668458Y1226629D1*
X2674168Y1233313D1*
X2680852Y1239023D1*
X2688519Y1243694D1*
X2680852Y1248379D1*
X2674168Y1254089D1*
X2668458Y1260773D1*
X2663786Y1268440D1*
X2663773Y1168440D2*
X2659101Y1160773D1*
X2653391Y1154089D1*
X2646708Y1148379D1*
X2639041Y1143708D1*
X2646708Y1139023D1*
X2653391Y1133313D1*
X2659101Y1126629D1*
X2663773Y1118962D1*
X2668458Y1126629D1*
X2674168Y1133313D1*
X2680852Y1139023D1*
X2688519Y1143694D1*
X2680852Y1148379D1*
X2674168Y1154089D1*
X2668458Y1160773D1*
X2663786Y1168440D1*
X2663773Y1068440D2*
X2659101Y1060773D1*
X2653391Y1054089D1*
X2646708Y1048379D1*
X2639041Y1043708D1*
X2646708Y1039023D1*
X2653391Y1033313D1*
X2659101Y1026629D1*
X2663773Y1018962D1*
X2668458Y1026629D1*
X2674168Y1033313D1*
X2680852Y1039023D1*
X2688519Y1043694D1*
X2680852Y1048379D1*
X2674168Y1054089D1*
X2668458Y1060773D1*
X2663786Y1068440D1*
X2663773Y968440D2*
X2659101Y960773D1*
X2653391Y954089D1*
X2646708Y948379D1*
X2639041Y943708D1*
X2646708Y939023D1*
X2653391Y933313D1*
X2659101Y926629D1*
X2663773Y918962D1*
X2668458Y926629D1*
X2674168Y933313D1*
X2680852Y939023D1*
X2688519Y943694D1*
X2680852Y948379D1*
X2674168Y954089D1*
X2668458Y960773D1*
X2663786Y968440D1*
X2486831Y1189878D2*
X2502477D1*
Y1103306D1*
X2510463Y1103264D1*
X2510453Y1285295D1*
X2503851Y1287499D1*
X2497491Y1290739D1*
X2491715Y1294936D1*
X2486790Y1299849D1*
X2486792Y1189887D1*
X1288970Y2668440D2*
X1284298Y2660773D1*
X1278588Y2654089D1*
X1271904Y2648379D1*
X1264238Y2643708D1*
X1271904Y2639023D1*
X1278588Y2633313D1*
X1284298Y2626629D1*
X1288970Y2618962D1*
X1293655Y2626629D1*
X1299365Y2633313D1*
X1306049Y2639023D1*
X1313715Y2643694D1*
X1306049Y2648379D1*
X1299365Y2654089D1*
X1293655Y2660773D1*
X1288983Y2668440D1*
X1288970Y2568440D2*
X1284298Y2560773D1*
X1278588Y2554089D1*
X1271904Y2548379D1*
X1264238Y2543708D1*
X1271904Y2539023D1*
X1278588Y2533313D1*
X1284298Y2526629D1*
X1288970Y2518962D1*
X1293655Y2526629D1*
X1299365Y2533313D1*
X1306049Y2539023D1*
X1313715Y2543694D1*
X1306049Y2548379D1*
X1299365Y2554089D1*
X1293655Y2560773D1*
X1288983Y2568440D1*
X1288970Y2468440D2*
X1284298Y2460773D1*
X1278588Y2454089D1*
X1271904Y2448379D1*
X1264238Y2443708D1*
X1271904Y2439023D1*
X1278588Y2433313D1*
X1284298Y2426629D1*
X1288970Y2418962D1*
X1293655Y2426629D1*
X1299365Y2433313D1*
X1306049Y2439023D1*
X1313715Y2443694D1*
X1306049Y2448379D1*
X1299365Y2454089D1*
X1293655Y2460773D1*
X1288983Y2468440D1*
X1288970Y2368440D2*
X1284298Y2360773D1*
X1278588Y2354089D1*
X1271904Y2348379D1*
X1264238Y2343708D1*
X1271904Y2339023D1*
X1278588Y2333313D1*
X1284298Y2326629D1*
X1288970Y2318962D1*
X1293655Y2326629D1*
X1299365Y2333313D1*
X1306049Y2339023D1*
X1313715Y2343694D1*
X1306049Y2348379D1*
X1299365Y2354089D1*
X1293655Y2360773D1*
X1288983Y2368440D1*
X1288970Y2268440D2*
X1284298Y2260773D1*
X1278588Y2254089D1*
X1271904Y2248379D1*
X1264238Y2243708D1*
X1271904Y2239023D1*
X1278588Y2233313D1*
X1284298Y2226629D1*
X1288970Y2218962D1*
X1293655Y2226629D1*
X1299365Y2233313D1*
X1306049Y2239023D1*
X1313715Y2243694D1*
X1306049Y2248379D1*
X1299365Y2254089D1*
X1293655Y2260773D1*
X1288983Y2268440D1*
X1288970Y2168440D2*
X1284298Y2160773D1*
X1278588Y2154089D1*
X1271904Y2148379D1*
X1264238Y2143708D1*
X1271904Y2139023D1*
X1278588Y2133313D1*
X1284298Y2126629D1*
X1288970Y2118962D1*
X1293655Y2126629D1*
X1299365Y2133313D1*
X1306049Y2139023D1*
X1313715Y2143694D1*
X1306049Y2148379D1*
X1299365Y2154089D1*
X1293655Y2160773D1*
X1288983Y2168440D1*
X1288970Y2068440D2*
X1284298Y2060773D1*
X1278588Y2054089D1*
X1271904Y2048379D1*
X1264238Y2043708D1*
X1271904Y2039023D1*
X1278588Y2033313D1*
X1284298Y2026629D1*
X1288970Y2018962D1*
X1293655Y2026629D1*
X1299365Y2033313D1*
X1306049Y2039023D1*
X1313715Y2043694D1*
X1306049Y2048379D1*
X1299365Y2054089D1*
X1293655Y2060773D1*
X1288983Y2068440D1*
X1288970Y1868440D2*
X1284298Y1860773D1*
X1278588Y1854089D1*
X1271904Y1848379D1*
X1264238Y1843708D1*
X1271904Y1839023D1*
X1278588Y1833313D1*
X1284298Y1826629D1*
X1288970Y1818962D1*
X1293655Y1826629D1*
X1299365Y1833313D1*
X1306049Y1839023D1*
X1313715Y1843694D1*
X1306049Y1848379D1*
X1299365Y1854089D1*
X1293655Y1860773D1*
X1288983Y1868440D1*
X1213715Y1843708D2*
X1206049Y1848379D1*
X1199365Y1854089D1*
X1193655Y1860773D1*
X1189063Y1868269D1*
X1186394Y1874504D1*
X1186398Y1813009D1*
X1189063Y1819133D1*
X1193655Y1826629D1*
X1199365Y1833313D1*
X1206049Y1839023D1*
X1213715Y1843694D1*
X1394823Y1889306D2*
X1393449Y1880624D1*
X1390732Y1872263D1*
X1386742Y1864431D1*
X1381574Y1857319D1*
X1375358Y1851104D1*
X1368247Y1845936D1*
X1364408Y1843614D1*
X1371904Y1839023D1*
X1378588Y1833313D1*
X1384298Y1826629D1*
X1388890Y1819133D1*
X1392255Y1811012D1*
X1394306Y1802465D1*
X1394996Y1793701D1*
X1394306Y1784937D1*
X1392255Y1776390D1*
X1388890Y1768269D1*
X1384298Y1760773D1*
X1378588Y1754089D1*
X1371904Y1748379D1*
X1364238Y1743708D1*
X1371904Y1739023D1*
X1378588Y1733313D1*
X1384298Y1726629D1*
X1388890Y1719133D1*
X1392255Y1711012D1*
X1394306Y1702465D1*
X1394996Y1693701D1*
X1394306Y1684937D1*
X1392255Y1676390D1*
X1388890Y1668269D1*
X1384298Y1660773D1*
X1378588Y1654089D1*
X1371904Y1648379D1*
X1364238Y1643708D1*
X1371904Y1639023D1*
X1378588Y1633313D1*
X1384298Y1626629D1*
X1388890Y1619133D1*
X1392255Y1611012D1*
X1394306Y1602465D1*
X1394996Y1593701D1*
X1394306Y1584937D1*
X1392633Y1577730D1*
X1469322Y1577642D1*
X1476352Y1576244D1*
X1482861Y1573243D1*
X1488491Y1568806D1*
X1527911Y1529252D1*
X1531894Y1523293D1*
X1534374Y1516567D1*
X1535217Y1509449D1*
Y1270630D1*
X1542307Y1267700D1*
X1545458Y1265931D1*
X1545561Y1942314D1*
X1547054Y1949814D1*
X1540143Y1943872D1*
X1518229Y1922089D1*
X1512268Y1918107D1*
X1505544Y1915626D1*
X1498425Y1914784D1*
X1390857D1*
X1393449Y1906778D1*
X1394823Y1898096D1*
Y1889306D1*
X1288970Y1768440D2*
X1284298Y1760773D1*
X1278588Y1754089D1*
X1271904Y1748379D1*
X1264238Y1743708D1*
X1271904Y1739023D1*
X1278588Y1733313D1*
X1284298Y1726629D1*
X1288970Y1718962D1*
X1293655Y1726629D1*
X1299365Y1733313D1*
X1306049Y1739023D1*
X1313715Y1743694D1*
X1306049Y1748379D1*
X1299365Y1754089D1*
X1293655Y1760773D1*
X1288983Y1768440D1*
X1213715Y1743708D2*
X1206049Y1748379D1*
X1199365Y1754089D1*
X1193655Y1760773D1*
X1189063Y1768269D1*
X1186394Y1774504D1*
X1186023Y1761372D1*
X1184076Y1754473D1*
X1180575Y1748219D1*
X1177467Y1744580D1*
X1127284Y1694530D1*
X1121323Y1690547D1*
X1114589Y1688066D1*
X1113681Y1685532D1*
Y1535971D1*
X1148307Y1570431D1*
X1154267Y1574414D1*
X1160992Y1576894D1*
X1168110Y1577736D1*
X1185250D1*
X1183647Y1584937D1*
X1182957Y1593701D1*
X1183647Y1602465D1*
X1185698Y1611012D1*
X1189063Y1619133D1*
X1193655Y1626629D1*
X1199365Y1633313D1*
X1206049Y1639023D1*
X1213715Y1643694D1*
X1206049Y1648379D1*
X1199365Y1654089D1*
X1193655Y1660773D1*
X1189063Y1668269D1*
X1185698Y1676390D1*
X1183647Y1684937D1*
X1182957Y1693701D1*
X1183647Y1702465D1*
X1185698Y1711012D1*
X1189063Y1719133D1*
X1193655Y1726629D1*
X1199365Y1733313D1*
X1206049Y1739023D1*
X1213715Y1743694D1*
X1288970Y1668440D2*
X1284298Y1660773D1*
X1278588Y1654089D1*
X1271904Y1648379D1*
X1264238Y1643708D1*
X1271904Y1639023D1*
X1278588Y1633313D1*
X1284298Y1626629D1*
X1288970Y1618962D1*
X1293655Y1626629D1*
X1299365Y1633313D1*
X1306049Y1639023D1*
X1313715Y1643694D1*
X1306049Y1648379D1*
X1299365Y1654089D1*
X1293655Y1660773D1*
X1288983Y1668440D1*
X1288970Y1468440D2*
X1284298Y1460773D1*
X1278588Y1454089D1*
X1271904Y1448379D1*
X1264238Y1443708D1*
X1271904Y1439023D1*
X1278588Y1433313D1*
X1284298Y1426629D1*
X1288970Y1418962D1*
X1293655Y1426629D1*
X1299365Y1433313D1*
X1306049Y1439023D1*
X1313715Y1443694D1*
X1306049Y1448379D1*
X1299365Y1454089D1*
X1293655Y1460773D1*
X1288983Y1468440D1*
X1213715Y1443708D2*
X1206049Y1448379D1*
X1199365Y1454089D1*
X1193655Y1460773D1*
X1189063Y1468269D1*
X1185698Y1476390D1*
X1183647Y1484937D1*
X1182957Y1493701D1*
X1183647Y1502465D1*
X1185698Y1511012D1*
X1187962Y1516746D1*
X1171994Y1508005D1*
X1116575Y1452719D1*
X1114687Y1451231D1*
X1113681Y1448032D1*
Y1243197D1*
X1212786Y1243209D1*
X1213545Y1243788D1*
X1206049Y1248379D1*
X1199365Y1254089D1*
X1193655Y1260773D1*
X1189063Y1268269D1*
X1185698Y1276390D1*
X1183647Y1284937D1*
X1182957Y1293701D1*
X1183647Y1302465D1*
X1185698Y1311012D1*
X1189063Y1319133D1*
X1193655Y1326629D1*
X1199365Y1333313D1*
X1206049Y1339023D1*
X1213715Y1343694D1*
X1206049Y1348379D1*
X1199365Y1354089D1*
X1193655Y1360773D1*
X1189063Y1368269D1*
X1185698Y1376390D1*
X1183647Y1384937D1*
X1182957Y1393701D1*
X1183647Y1402465D1*
X1185698Y1411012D1*
X1189063Y1419133D1*
X1193655Y1426629D1*
X1199365Y1433313D1*
X1206049Y1439023D1*
X1213715Y1443694D1*
X1288970Y1368440D2*
X1284298Y1360773D1*
X1278588Y1354089D1*
X1271904Y1348379D1*
X1264238Y1343708D1*
X1271904Y1339023D1*
X1278588Y1333313D1*
X1284298Y1326629D1*
X1288970Y1318962D1*
X1293655Y1326629D1*
X1299365Y1333313D1*
X1306049Y1339023D1*
X1313715Y1343694D1*
X1306049Y1348379D1*
X1299365Y1354089D1*
X1293655Y1360773D1*
X1288983Y1368440D1*
X1288970Y1268440D2*
X1284298Y1260773D1*
X1278588Y1254089D1*
X1271904Y1248379D1*
X1264238Y1243708D1*
X1271904Y1239023D1*
X1278588Y1233313D1*
X1284298Y1226629D1*
X1288970Y1218962D1*
X1293655Y1226629D1*
X1299365Y1233313D1*
X1306049Y1239023D1*
X1313715Y1243694D1*
X1306049Y1248379D1*
X1299365Y1254089D1*
X1293655Y1260773D1*
X1288983Y1268440D1*
X1288970Y1168440D2*
X1284298Y1160773D1*
X1278588Y1154089D1*
X1271904Y1148379D1*
X1264238Y1143708D1*
X1271904Y1139023D1*
X1278588Y1133313D1*
X1284298Y1126629D1*
X1288970Y1118962D1*
X1293655Y1126629D1*
X1299365Y1133313D1*
X1306049Y1139023D1*
X1313715Y1143694D1*
X1306049Y1148379D1*
X1299365Y1154089D1*
X1293655Y1160773D1*
X1288983Y1168440D1*
X1288970Y1068440D2*
X1284298Y1060773D1*
X1278588Y1054089D1*
X1271904Y1048379D1*
X1264238Y1043708D1*
X1271904Y1039023D1*
X1278588Y1033313D1*
X1284298Y1026629D1*
X1288970Y1018962D1*
X1293655Y1026629D1*
X1299365Y1033313D1*
X1306049Y1039023D1*
X1313715Y1043694D1*
X1306049Y1048379D1*
X1299365Y1054089D1*
X1293655Y1060773D1*
X1288983Y1068440D1*
X1288970Y968440D2*
X1284298Y960773D1*
X1278588Y954089D1*
X1271904Y948379D1*
X1264238Y943708D1*
X1271904Y939023D1*
X1278588Y933313D1*
X1284298Y926629D1*
X1288970Y918962D1*
X1293655Y926629D1*
X1299365Y933313D1*
X1306049Y939023D1*
X1313715Y943694D1*
X1306049Y948379D1*
X1299365Y954089D1*
X1293655Y960773D1*
X1288983Y968440D1*
X2410802Y2105362D2*
X2414289Y2109334D1*
X2419717Y2113970D1*
X2425803Y2117700D1*
X2432399Y2120431D1*
X2439340Y2122097D1*
X2446457Y2122658D1*
X2453574Y2122097D1*
X2460515Y2120431D1*
X2467110Y2117700D1*
X2473197Y2113970D1*
X2479752Y2108114D1*
X2479839Y2163023D1*
X2481236Y2170053D1*
X2484238Y2176562D1*
X2488675Y2182192D1*
X2520486Y2214002D1*
X2502802Y2213996D1*
X2410797Y2122005D1*
X2410807Y2105398D1*
X2366908Y1615937D2*
X2384075Y1633120D1*
X2384113Y1783744D1*
X2358547D1*
Y1858500D1*
X2356477Y1855315D1*
X2356382Y1804301D1*
X2354984Y1797271D1*
X2351983Y1790761D1*
X2347546Y1785131D1*
X2284849Y1722458D1*
X2288496Y1716377D1*
X2291861Y1708256D1*
X2293912Y1699709D1*
X2294603Y1690945D1*
X2293912Y1682181D1*
X2291861Y1673634D1*
X2288496Y1665513D1*
X2283904Y1658017D1*
X2278194Y1651334D1*
X2271511Y1645624D1*
X2264015Y1641032D1*
X2255894Y1637667D1*
X2247347Y1635616D1*
X2238583Y1634925D1*
X2229819Y1635616D1*
X2221272Y1637667D1*
X2213151Y1641032D1*
X2205655Y1645624D1*
X2198971Y1651334D1*
X2194603Y1656290D1*
Y1634925D1*
X2166722D1*
X2166713Y1622519D1*
X2173277Y1615925D1*
X2366929D1*
D24*
X931103Y589370D3*
X734252D3*
X537402D3*
X3414961D3*
X3218110D3*
X3021260D3*
D25*
X2297244Y2478741D3*
Y2403938D3*
Y2184252D3*
Y2259055D3*
D26*
X2418898Y2480709D3*
D27*
Y2878347D3*
D28*
X1533071Y2885827D3*
X1643307D3*
D29*
X1000394Y2642520D3*
D30*
Y2406299D3*
D31*
X815355Y2524410D3*
D32*
X734252Y1555906D3*
X499252Y1475906D3*
X969252D3*
Y995906D3*
X499252D3*
X3218504Y1555906D3*
X2983504Y1475906D3*
X3453504D3*
Y995906D3*
X2983504D3*
D33*
X1477953Y876772D3*
X1552756D3*
X2472047Y875197D3*
X2397244D3*
D26*
X1658268Y1687402D3*
D16*
X1758268D3*
Y1987402D3*
X1658268D3*
D26*
X2138583Y1690945D3*
D16*
X2238583D3*
Y1990945D3*
X2138583D3*
D34*
X1809843Y1140158D3*
X1859843Y1190158D3*
D78*
X1909843Y1140158D3*
D34*
X2179921Y1095276D3*
X2129921Y1145276D3*
D81*
X2179921Y1195276D3*
D33*
X1991339Y1906693D3*
X1916536D3*
D25*
X1837008Y949607D3*
Y874803D3*
X2414567Y1910630D3*
Y1835827D3*
X2135040Y949607D3*
Y874803D3*
D26*
X2613780Y2793701D3*
D27*
X2713780D3*
X2613780Y2693701D3*
X2713780D3*
X2613780Y2593701D3*
X2713780D3*
X2613780Y2493701D3*
X2713780D3*
X2613780Y2393701D3*
X2713780D3*
X2613780Y2293701D3*
X2713780D3*
X2613780Y2193701D3*
X2713780D3*
X2613780Y2093701D3*
X2713780D3*
X2613780Y1993701D3*
X2713780D3*
X2613780Y1893701D3*
X2713780D3*
X2613780Y1793701D3*
X2713780D3*
X2613780Y1693701D3*
X2713780D3*
X2613780Y1593701D3*
X2713780D3*
X2613780Y1493701D3*
X2713780D3*
X2613780Y1393701D3*
X2713780D3*
X2613780Y1293701D3*
X2713780D3*
X2613780Y1193701D3*
X2713780D3*
X2613780Y1093701D3*
X2713780D3*
X2613780Y993701D3*
X2713780D3*
X2613780Y893701D3*
X2713780D3*
D36*
X1574410Y1059055D3*
X1611811Y1145670D3*
X1649213Y1059055D3*
X2418898Y1049213D3*
X2456299Y1135827D3*
X2493701Y1049213D3*
D26*
X1238977Y2793701D3*
D27*
X1338977D3*
X1238977Y2693701D3*
X1338977D3*
X1238977Y2593701D3*
X1338977D3*
X1238977Y2493701D3*
X1338977D3*
X1238977Y2393701D3*
X1338977D3*
X1238977Y2293701D3*
X1338977D3*
X1238977Y2193701D3*
X1338977D3*
X1238977Y2093701D3*
X1338977D3*
X1238977Y1993701D3*
X1338977D3*
X1238977Y1893701D3*
X1338977D3*
X1238977Y1793701D3*
X1338977D3*
X1238977Y1693701D3*
X1338977D3*
X1238977Y1593701D3*
X1338977D3*
X1238977Y1493701D3*
X1338977D3*
X1238977Y1393701D3*
X1338977D3*
X1238977Y1293701D3*
X1338977D3*
X1238977Y1193701D3*
X1338977D3*
X1238977Y1093701D3*
X1338977D3*
X1238977Y993701D3*
X1338977D3*
X1238977Y893701D3*
X1338977D3*
D16*
X2051575Y2290551D3*
Y2390551D3*
Y2490551D3*
M02*
