G04 DipTrace 3.0.0.1*
G04 TopDimension.gbr*
%MOIN*%
G04 #@! TF.FileFunction,Drawing,Top*
G04 #@! TF.Part,Single*
%ADD13C,0.001378*%
%ADD78C,0.006176*%
%FSLAX26Y26*%
G04*
G70*
G90*
G75*
G01*
G04 TopDimension*
%LPD*%
X1338976Y893701D2*
D13*
Y124016D1*
X2613780Y893701D2*
Y124016D1*
X1976378Y143701D2*
X1378346D1*
G36*
X1338976D2*
X1378346Y151575D1*
Y135827D1*
X1338976Y143701D1*
G37*
X1976378D2*
D13*
X2574409D1*
G36*
X2613780D2*
X2574409Y135827D1*
Y151575D1*
X2613780Y143701D1*
G37*
X415748Y424026D2*
D13*
Y-11417D1*
X3537008Y424025D2*
Y-11417D1*
X1976378Y8268D2*
X455118D1*
G36*
X415748D2*
X455118Y16142D1*
Y394D1*
X415748Y8268D1*
G37*
X1976378D2*
D13*
X3497638D1*
G36*
X3537008D2*
X3497638Y394D1*
Y16142D1*
X3537008Y8268D1*
G37*
X393701Y393701D2*
D13*
Y-140945D1*
X3559055Y393701D2*
Y-140945D1*
X1976378Y-121260D2*
X433071D1*
G36*
X393701D2*
X433071Y-113386D1*
Y-129134D1*
X393701Y-121260D1*
G37*
X1976378D2*
D13*
X3519685D1*
G36*
X3559055D2*
X3519685Y-129134D1*
Y-113386D1*
X3559055Y-121260D1*
G37*
X393701Y393701D2*
D13*
X112992D1*
X748031Y2952756D2*
X112992D1*
X132677Y1673228D2*
Y433071D1*
G36*
Y393701D2*
X124803Y433071D1*
X140551D1*
X132677Y393701D1*
G37*
Y1673228D2*
D13*
Y2913386D1*
G36*
Y2952756D2*
X140551Y2913386D1*
X124803D1*
X132677Y2952756D1*
G37*
X1012559Y993543D2*
D13*
Y711024D1*
X1209449Y993701D2*
Y711024D1*
X1111004Y730709D2*
X1051929D1*
G36*
X1012559D2*
X1051929Y738583D1*
Y722835D1*
X1012559Y730709D1*
G37*
X1111004D2*
D13*
X1170079D1*
G36*
X1209449D2*
X1170079Y722835D1*
Y738583D1*
X1209449Y730709D1*
G37*
X2940197Y995906D2*
D13*
Y761811D1*
X2743307Y993701D2*
Y761811D1*
X2841752Y781496D2*
X2900827D1*
G36*
X2940197D2*
X2900827Y773622D1*
Y789370D1*
X2940197Y781496D1*
G37*
X2841752D2*
D13*
X2782677D1*
G36*
X2743307D2*
X2782677Y789370D1*
Y773622D1*
X2743307Y781496D1*
G37*
X2613780Y2793701D2*
D13*
X2985827D1*
X1338976D2*
X2985827D1*
X2966142D2*
D3*
Y2852756D2*
Y2833071D1*
G36*
Y2793701D2*
X2958268Y2833071D1*
X2974016D1*
X2966142Y2793701D1*
G37*
Y2734646D2*
D13*
Y2754331D1*
G36*
Y2793701D2*
X2974016Y2754331D1*
X2958268D1*
X2966142Y2793701D1*
G37*
Y2727536D2*
D13*
Y2793701D1*
X969252Y1475906D2*
X183858D1*
X3012047D2*
X183858D1*
X203543D2*
D3*
Y1534961D2*
Y1515276D1*
G36*
Y1475906D2*
X195669Y1515276D1*
X211417D1*
X203543Y1475906D1*
G37*
Y1416850D2*
D13*
Y1436535D1*
G36*
Y1475906D2*
X211417Y1436535D1*
X195669D1*
X203543Y1475906D1*
G37*
Y1542070D2*
D13*
Y1475906D1*
X931102Y589370D2*
X2281102D1*
X3021260D2*
X2241732D1*
X2261417D2*
D3*
Y648425D2*
Y628740D1*
G36*
Y589370D2*
X2253543Y628740D1*
X2269291D1*
X2261417Y589370D1*
G37*
Y530315D2*
D13*
Y550000D1*
G36*
Y589370D2*
X2269291Y550000D1*
X2253543D1*
X2261417Y589370D1*
G37*
Y523205D2*
D13*
Y589370D1*
X1903119Y196059D2*
D78*
X1924122D1*
X1912670Y180761D1*
X1918418D1*
X1922220Y178859D1*
X1924122Y176958D1*
X1926067Y171210D1*
Y167408D1*
X1924122Y161660D1*
X1920319Y157813D1*
X1914571Y155912D1*
X1908823D1*
X1903119Y157813D1*
X1901218Y159758D1*
X1899272Y163561D1*
X1940364Y186509D2*
Y188410D1*
X1942265Y192257D1*
X1944166Y194158D1*
X1948013Y196059D1*
X1955663D1*
X1959465Y194158D1*
X1961366Y192257D1*
X1963312Y188410D1*
Y184607D1*
X1961366Y180761D1*
X1957564Y175057D1*
X1938418Y155912D1*
X1965213D1*
X1979466Y159758D2*
X1977565Y157813D1*
X1979466Y155912D1*
X1981411Y157813D1*
X1979466Y159758D1*
X1997609Y196059D2*
X2018612D1*
X2007160Y180761D1*
X2012908D1*
X2016711Y178859D1*
X2018612Y176958D1*
X2020557Y171210D1*
Y167408D1*
X2018612Y161660D1*
X2014809Y157813D1*
X2009061Y155912D1*
X2003313D1*
X1997609Y157813D1*
X1995708Y159758D1*
X1993763Y163561D1*
X2042459Y196059D2*
X2036756Y194158D1*
X2034810Y190356D1*
Y186509D1*
X2036756Y182706D1*
X2040558Y180761D1*
X2048207Y178859D1*
X2053955Y176958D1*
X2057758Y173111D1*
X2059659Y169309D1*
Y163561D1*
X2057758Y159758D1*
X2055857Y157813D1*
X2050109Y155912D1*
X2042459D1*
X2036756Y157813D1*
X2034810Y159758D1*
X2032909Y163561D1*
Y169309D1*
X2034810Y173111D1*
X2038657Y176958D1*
X2044361Y178859D1*
X2052010Y180761D1*
X2055857Y182706D1*
X2057758Y186509D1*
Y190356D1*
X2055857Y194158D1*
X2050109Y196059D1*
X2042459D1*
X1907872Y20478D2*
X1927018Y60626D1*
X1900223D1*
X1964262Y47273D2*
X1962317Y41525D1*
X1958514Y37678D1*
X1952766Y35777D1*
X1950865D1*
X1945117Y37678D1*
X1941315Y41525D1*
X1939369Y47273D1*
Y49174D1*
X1941315Y54922D1*
X1945117Y58725D1*
X1950865Y60626D1*
X1952766D1*
X1958514Y58725D1*
X1962317Y54922D1*
X1964262Y47273D1*
Y37678D1*
X1962317Y28128D1*
X1958514Y22380D1*
X1952766Y20478D1*
X1948964D1*
X1943216Y22380D1*
X1941315Y26227D1*
X1978515Y24325D2*
X1976614Y22380D1*
X1978515Y20478D1*
X1980461Y22380D1*
X1978515Y24325D1*
X1994758Y51076D2*
Y52977D1*
X1996659Y56824D1*
X1998560Y58725D1*
X2002407Y60626D1*
X2010056D1*
X2013859Y58725D1*
X2015760Y56824D1*
X2017705Y52977D1*
Y49174D1*
X2015760Y45328D1*
X2011957Y39624D1*
X1992812Y20478D1*
X2019607D1*
X2041509Y60626D2*
X2035805Y58725D1*
X2033859Y54922D1*
Y51076D1*
X2035805Y47273D1*
X2039607Y45328D1*
X2047257Y43426D1*
X2053005Y41525D1*
X2056807Y37678D1*
X2058709Y33876D1*
Y28128D1*
X2056807Y24325D1*
X2054906Y22380D1*
X2049158Y20478D1*
X2041509D1*
X2035805Y22380D1*
X2033859Y24325D1*
X2031958Y28128D1*
Y33876D1*
X2033859Y37678D1*
X2037706Y41525D1*
X2043410Y43426D1*
X2051059Y45328D1*
X2054906Y47273D1*
X2056807Y51076D1*
Y54922D1*
X2054906Y58725D1*
X2049158Y60626D1*
X2041509D1*
X1927445Y-68901D2*
X1921742Y-70803D1*
X1919796Y-74605D1*
Y-78452D1*
X1921742Y-82254D1*
X1925544Y-84200D1*
X1933193Y-86101D1*
X1938941Y-88002D1*
X1942744Y-91849D1*
X1944645Y-95652D1*
Y-101400D1*
X1942744Y-105202D1*
X1940843Y-107148D1*
X1935095Y-109049D1*
X1927445D1*
X1921742Y-107148D1*
X1919796Y-105202D1*
X1917895Y-101400D1*
Y-95652D1*
X1919796Y-91849D1*
X1923643Y-88002D1*
X1929347Y-86101D1*
X1936996Y-84200D1*
X1940843Y-82254D1*
X1942744Y-78452D1*
Y-74605D1*
X1940843Y-70803D1*
X1935095Y-68901D1*
X1927445D1*
X1968493D2*
X1962745Y-70803D1*
X1958898Y-76551D1*
X1956997Y-86101D1*
Y-91849D1*
X1958898Y-101400D1*
X1962745Y-107148D1*
X1968493Y-109049D1*
X1972295D1*
X1978043Y-107148D1*
X1981846Y-101400D1*
X1983791Y-91849D1*
Y-86101D1*
X1981846Y-76551D1*
X1978043Y-70803D1*
X1972295Y-68901D1*
X1968493D1*
X1981846Y-76551D2*
X1958898Y-101400D1*
X1998044Y-105202D2*
X1996143Y-107148D1*
X1998044Y-109049D1*
X1999989Y-107148D1*
X1998044Y-105202D1*
X2031486Y-109049D2*
Y-68901D1*
X2012341Y-95652D1*
X2041037D1*
X86022Y1667266D2*
X82220Y1665365D1*
X80319Y1659617D1*
Y1655815D1*
X82220Y1650067D1*
X87968Y1646220D1*
X97518Y1644319D1*
X107069D1*
X114718Y1646220D1*
X118565Y1650067D1*
X120466Y1655815D1*
Y1657716D1*
X118565Y1663420D1*
X114718Y1667266D1*
X108970Y1669168D1*
X107069D1*
X101321Y1667266D1*
X97518Y1663420D1*
X95617Y1657716D1*
Y1655815D1*
X97518Y1650067D1*
X101321Y1646220D1*
X107069Y1644319D1*
X80319Y1704467D2*
Y1685366D1*
X97518Y1683465D1*
X95617Y1685366D1*
X93672Y1691114D1*
Y1696818D1*
X95617Y1702566D1*
X99420Y1706413D1*
X105168Y1708314D1*
X108970D1*
X114718Y1706413D1*
X118565Y1702566D1*
X120466Y1696818D1*
Y1691114D1*
X118565Y1685366D1*
X116620Y1683465D1*
X112817Y1681519D1*
X1123642Y783067D2*
X1104541D1*
X1102640Y765867D1*
X1104541Y767769D1*
X1110289Y769714D1*
X1115993D1*
X1121741Y767769D1*
X1125588Y763966D1*
X1127489Y758218D1*
Y754415D1*
X1125588Y748667D1*
X1121741Y744821D1*
X1115993Y742919D1*
X1110289D1*
X1104541Y744821D1*
X1102640Y746766D1*
X1100694Y750569D1*
X2854390Y833855D2*
X2835289D1*
X2833388Y816655D1*
X2835289Y818556D1*
X2841037Y820501D1*
X2846741D1*
X2852489Y818556D1*
X2856336Y814753D1*
X2858237Y809005D1*
Y805203D1*
X2856336Y799455D1*
X2852489Y795608D1*
X2846741Y793707D1*
X2841037D1*
X2835289Y795608D1*
X2833388Y797554D1*
X2831442Y801356D1*
X3018500Y2733571D2*
X3016599Y2739319D1*
X3010851Y2743166D1*
X3001300Y2745067D1*
X2995552D1*
X2986002Y2743166D1*
X2980254Y2739319D1*
X2978352Y2733571D1*
Y2729769D1*
X2980254Y2724021D1*
X2986002Y2720218D1*
X2995552Y2718272D1*
X3001300D1*
X3010851Y2720218D1*
X3016599Y2724021D1*
X3018500Y2729769D1*
Y2733571D1*
X3010851Y2720218D2*
X2986002Y2743166D1*
X151185Y1536035D2*
X153086Y1530287D1*
X158834Y1526440D1*
X168385Y1524539D1*
X174133D1*
X183683Y1526440D1*
X189431Y1530287D1*
X191333Y1536035D1*
Y1539838D1*
X189431Y1545586D1*
X183683Y1549388D1*
X174133Y1551334D1*
X168385D1*
X158834Y1549388D1*
X153086Y1545586D1*
X151185Y1539838D1*
Y1536035D1*
X158834Y1549388D2*
X183683Y1526440D1*
X2313776Y529240D2*
X2311875Y534988D1*
X2306127Y538835D1*
X2296576Y540736D1*
X2290828D1*
X2281277Y538835D1*
X2275529Y534988D1*
X2273628Y529240D1*
Y525438D1*
X2275529Y519690D1*
X2281277Y515887D1*
X2290828Y513942D1*
X2296576D1*
X2306127Y515887D1*
X2311875Y519690D1*
X2313776Y525438D1*
Y529240D1*
X2306127Y515887D2*
X2281277Y538835D1*
M02*
