G04 DipTrace 3.0.0.1*
G04 TopDimension.gbr*
%MOIN*%
G04 #@! TF.FileFunction,Drawing,Top*
G04 #@! TF.Part,Single*
%ADD13C,0.001378*%
%ADD77C,0.006176*%
%FSLAX26Y26*%
G04*
G70*
G90*
G75*
G01*
G04 TopDimension*
%LPD*%
X1338977Y893701D2*
D13*
Y124016D1*
X2613780Y893701D2*
Y124016D1*
X1976378Y143701D2*
X1378347D1*
G36*
X1338977D2*
X1378347Y151575D1*
Y135827D1*
X1338977Y143701D1*
G37*
X1976378D2*
D13*
X2574410D1*
G36*
X2613780D2*
X2574410Y135827D1*
Y151575D1*
X2613780Y143701D1*
G37*
X415748Y424026D2*
D13*
Y-11417D1*
X3537008Y424026D2*
Y-11417D1*
X1976378Y8268D2*
X455118D1*
G36*
X415748D2*
X455118Y16142D1*
Y394D1*
X415748Y8268D1*
G37*
X1976378D2*
D13*
X3497638D1*
G36*
X3537008D2*
X3497638Y394D1*
Y16142D1*
X3537008Y8268D1*
G37*
X393701Y393701D2*
D13*
Y-140945D1*
X3559055Y393701D2*
Y-140945D1*
X1976378Y-121260D2*
X433071D1*
G36*
X393701D2*
X433071Y-113386D1*
Y-129134D1*
X393701Y-121260D1*
G37*
X1976378D2*
D13*
X3519685D1*
G36*
X3559055D2*
X3519685Y-129134D1*
Y-113386D1*
X3559055Y-121260D1*
G37*
X393701Y393701D2*
D13*
X112992D1*
X748032Y2952756D2*
X112992D1*
X132677Y1673229D2*
Y433071D1*
G36*
Y393701D2*
X124803Y433071D1*
X140551D1*
X132677Y393701D1*
G37*
Y1673229D2*
D13*
Y2913386D1*
G36*
Y2952756D2*
X140551Y2913386D1*
X124803D1*
X132677Y2952756D1*
G37*
X1012559Y993544D2*
D13*
Y711024D1*
X1209449Y993701D2*
Y711024D1*
X1012559Y730709D2*
X1209449D1*
X953504D2*
X973189D1*
G36*
X1012559D2*
X973189Y722835D1*
Y738583D1*
X1012559Y730709D1*
G37*
X1268504D2*
D13*
X1248819D1*
G36*
X1209449D2*
X1248819Y738583D1*
Y722835D1*
X1209449Y730709D1*
G37*
X2940197Y995906D2*
D13*
Y761811D1*
X2743307Y993701D2*
Y761811D1*
Y781496D2*
X2940197D1*
X2684252D2*
X2703937D1*
G36*
X2743307D2*
X2703937Y773622D1*
Y789370D1*
X2743307Y781496D1*
G37*
X2999252D2*
D13*
X2979567D1*
G36*
X2940197D2*
X2979567Y789370D1*
Y773622D1*
X2940197Y781496D1*
G37*
X2613780Y2793701D2*
D13*
X2985827D1*
X1338977D2*
X2985827D1*
X2966142D2*
D3*
Y2852756D2*
Y2833071D1*
G36*
Y2793701D2*
X2958268Y2833071D1*
X2974016D1*
X2966142Y2793701D1*
G37*
Y2734646D2*
D13*
Y2754331D1*
G36*
Y2793701D2*
X2974016Y2754331D1*
X2958268D1*
X2966142Y2793701D1*
G37*
Y2727536D2*
D13*
Y2793701D1*
X969252Y1475906D2*
X183858D1*
X3012047D2*
X183858D1*
X203544D2*
D3*
Y1534961D2*
Y1515276D1*
G36*
Y1475906D2*
X195670Y1515276D1*
X211418D1*
X203544Y1475906D1*
G37*
Y1416851D2*
D13*
Y1436536D1*
G36*
Y1475906D2*
X211418Y1436536D1*
X195670D1*
X203544Y1475906D1*
G37*
Y1542070D2*
D13*
Y1475906D1*
X931103Y589370D2*
X2281103D1*
X3021260D2*
X2241732D1*
X2261418D2*
D3*
Y648425D2*
Y628740D1*
G36*
Y589370D2*
X2253544Y628740D1*
X2269292D1*
X2261418Y589370D1*
G37*
Y530315D2*
D13*
Y550000D1*
G36*
Y589370D2*
X2269292Y550000D1*
X2253544D1*
X2261418Y589370D1*
G37*
Y523206D2*
D13*
Y589370D1*
X1887349Y188410D2*
D77*
X1891196Y190356D1*
X1896944Y196060D1*
Y155912D1*
X1911241Y186509D2*
Y188410D1*
X1913142Y192257D1*
X1915043Y194158D1*
X1918890Y196060D1*
X1926539D1*
X1930342Y194158D1*
X1932243Y192257D1*
X1934188Y188410D1*
Y184608D1*
X1932243Y180761D1*
X1928440Y175057D1*
X1909295Y155912D1*
X1936090D1*
X1956090D2*
X1975236Y196060D1*
X1948441D1*
X2006733Y155912D2*
Y196060D1*
X1987587Y169309D1*
X2016283D1*
X2030536Y159759D2*
X2028635Y157813D1*
X2030536Y155912D1*
X2032481Y157813D1*
X2030536Y159759D1*
X2054383Y196060D2*
X2048679Y194158D1*
X2046734Y190356D1*
Y186509D1*
X2048679Y182706D1*
X2052482Y180761D1*
X2060131Y178860D1*
X2065879Y176958D1*
X2069682Y173112D1*
X2071583Y169309D1*
Y163561D1*
X2069682Y159759D1*
X2067781Y157813D1*
X2062033Y155912D1*
X2054383D1*
X2048679Y157813D1*
X2046734Y159759D1*
X2044833Y163561D1*
Y169309D1*
X2046734Y173112D1*
X2050581Y176958D1*
X2056285Y178860D1*
X2063934Y180761D1*
X2067781Y182706D1*
X2069682Y186509D1*
Y190356D1*
X2067781Y194158D1*
X2062033Y196060D1*
X2054383D1*
X1900724Y60626D2*
X1921727D1*
X1910275Y45328D1*
X1916023D1*
X1919825Y43427D1*
X1921727Y41525D1*
X1923672Y35777D1*
Y31975D1*
X1921727Y26227D1*
X1917924Y22380D1*
X1912176Y20479D1*
X1906428D1*
X1900724Y22380D1*
X1898823Y24325D1*
X1896877Y28128D1*
X1936023Y52977D2*
X1939870Y54923D1*
X1945618Y60626D1*
Y20479D1*
X1959915Y51076D2*
Y52977D1*
X1961816Y56824D1*
X1963718Y58725D1*
X1967564Y60626D1*
X1975214D1*
X1979016Y58725D1*
X1980918Y56824D1*
X1982863Y52977D1*
Y49175D1*
X1980918Y45328D1*
X1977115Y39624D1*
X1957970Y20479D1*
X1984764D1*
X1997116Y52977D2*
X2000962Y54923D1*
X2006710Y60626D1*
Y20479D1*
X2020963Y24325D2*
X2019062Y22380D1*
X2020963Y20479D1*
X2022909Y22380D1*
X2020963Y24325D1*
X2039107Y60626D2*
X2060109D1*
X2048657Y45328D1*
X2054405D1*
X2058208Y43427D1*
X2060109Y41525D1*
X2062055Y35777D1*
Y31975D1*
X2060109Y26227D1*
X2056307Y22380D1*
X2050559Y20479D1*
X2044811D1*
X2039107Y22380D1*
X2037206Y24325D1*
X2035260Y28128D1*
X1892146Y-68901D2*
X1913149D1*
X1901697Y-84200D1*
X1907445D1*
X1911247Y-86101D1*
X1913149Y-88002D1*
X1915094Y-93750D1*
Y-97553D1*
X1913149Y-103301D1*
X1909346Y-107148D1*
X1903598Y-109049D1*
X1897850D1*
X1892146Y-107148D1*
X1890245Y-105202D1*
X1888300Y-101400D1*
X1927446Y-76550D2*
X1931292Y-74605D1*
X1937040Y-68901D1*
Y-109049D1*
X1972340Y-74605D2*
X1970438Y-70802D1*
X1964690Y-68901D1*
X1960888D1*
X1955140Y-70802D1*
X1951293Y-76550D1*
X1949392Y-86101D1*
Y-95652D1*
X1951293Y-103301D1*
X1955140Y-107148D1*
X1960888Y-109049D1*
X1962789D1*
X1968493Y-107148D1*
X1972340Y-103301D1*
X1974241Y-97553D1*
Y-95652D1*
X1972340Y-89904D1*
X1968493Y-86101D1*
X1962789Y-84200D1*
X1960888D1*
X1955140Y-86101D1*
X1951293Y-89904D1*
X1949392Y-95652D1*
X2009540Y-68901D2*
X1990439D1*
X1988538Y-86101D1*
X1990439Y-84200D1*
X1996187Y-82254D1*
X2001891D1*
X2007639Y-84200D1*
X2011486Y-88002D1*
X2013387Y-93750D1*
Y-97553D1*
X2011486Y-103301D1*
X2007639Y-107148D1*
X2001891Y-109049D1*
X1996187D1*
X1990439Y-107148D1*
X1988538Y-105202D1*
X1986592Y-101400D1*
X2027640Y-105202D2*
X2025738Y-107148D1*
X2027640Y-109049D1*
X2029585Y-107148D1*
X2027640Y-105202D1*
X2061082Y-109049D2*
Y-68901D1*
X2041937Y-95652D1*
X2070633D1*
X89869Y1588024D2*
X87968D1*
X84121Y1589925D1*
X82220Y1591826D1*
X80319Y1595673D1*
Y1603323D1*
X82220Y1607125D1*
X84121Y1609026D1*
X87968Y1610972D1*
X91771D1*
X95617Y1609026D1*
X101321Y1605224D1*
X120467Y1586078D1*
Y1612873D1*
X80319Y1648172D2*
Y1629071D1*
X97519Y1627170D1*
X95617Y1629071D1*
X93672Y1634819D1*
Y1640523D1*
X95617Y1646271D1*
X99420Y1650118D1*
X105168Y1652019D1*
X108971D1*
X114719Y1650118D1*
X118565Y1646271D1*
X120467Y1640523D1*
Y1634819D1*
X118565Y1629071D1*
X116620Y1627170D1*
X112817Y1625225D1*
X80319Y1687318D2*
Y1668217D1*
X97519Y1666316D1*
X95617Y1668217D1*
X93672Y1673965D1*
Y1679669D1*
X95617Y1685417D1*
X99420Y1689264D1*
X105168Y1691165D1*
X108971D1*
X114719Y1689264D1*
X118565Y1685417D1*
X120467Y1679669D1*
Y1673965D1*
X118565Y1668217D1*
X116620Y1666316D1*
X112817Y1664371D1*
X93672Y1728410D2*
X99420Y1726465D1*
X103267Y1722662D1*
X105168Y1716914D1*
Y1715013D1*
X103267Y1709265D1*
X99420Y1705462D1*
X93672Y1703517D1*
X91771D1*
X86023Y1705462D1*
X82220Y1709265D1*
X80319Y1715013D1*
Y1716914D1*
X82220Y1722662D1*
X86023Y1726465D1*
X93672Y1728410D1*
X103267D1*
X112817Y1726465D1*
X118565Y1722662D1*
X120467Y1716914D1*
Y1713111D1*
X118565Y1707363D1*
X114719Y1705462D1*
X116620Y1742663D2*
X118565Y1740761D1*
X120467Y1742663D1*
X118565Y1744608D1*
X116620Y1742663D1*
X87968Y1756960D2*
X86023Y1760806D1*
X80319Y1766554D1*
X120467D1*
X1045350Y775418D2*
X1049197Y777364D1*
X1054945Y783067D1*
Y742920D1*
X1092190Y769714D2*
X1090245Y763966D1*
X1086442Y760120D1*
X1080694Y758218D1*
X1078793D1*
X1073045Y760120D1*
X1069242Y763966D1*
X1067297Y769714D1*
Y771616D1*
X1069242Y777364D1*
X1073045Y781166D1*
X1078793Y783067D1*
X1080694D1*
X1086442Y781166D1*
X1090245Y777364D1*
X1092190Y769714D1*
Y760120D1*
X1090245Y750569D1*
X1086442Y744821D1*
X1080694Y742920D1*
X1076891D1*
X1071143Y744821D1*
X1069242Y748668D1*
X1127489Y777364D2*
X1125588Y781166D1*
X1119840Y783067D1*
X1116037D1*
X1110289Y781166D1*
X1106443Y775418D1*
X1104541Y765868D1*
Y756317D1*
X1106443Y748668D1*
X1110289Y744821D1*
X1116037Y742920D1*
X1117939D1*
X1123643Y744821D1*
X1127489Y748668D1*
X1129391Y754416D1*
Y756317D1*
X1127489Y762065D1*
X1123643Y765868D1*
X1117939Y767769D1*
X1116037D1*
X1110289Y765868D1*
X1106443Y762065D1*
X1104541Y756317D1*
X1143643Y746766D2*
X1141742Y744821D1*
X1143643Y742920D1*
X1145589Y744821D1*
X1143643Y746766D1*
X1182834Y769714D2*
X1180888Y763966D1*
X1177086Y760120D1*
X1171337Y758218D1*
X1169436D1*
X1163688Y760120D1*
X1159886Y763966D1*
X1157940Y769714D1*
Y771616D1*
X1159886Y777364D1*
X1163688Y781166D1*
X1169436Y783067D1*
X1171337D1*
X1177086Y781166D1*
X1180888Y777364D1*
X1182834Y769714D1*
Y760120D1*
X1180888Y750569D1*
X1177086Y744821D1*
X1171337Y742920D1*
X1167535D1*
X1161787Y744821D1*
X1159886Y748668D1*
X2776098Y826206D2*
X2779945Y828151D1*
X2785693Y833855D1*
Y793707D1*
X2822938Y820502D2*
X2820993Y814754D1*
X2817190Y810907D1*
X2811442Y809006D1*
X2809541D1*
X2803793Y810907D1*
X2799990Y814754D1*
X2798045Y820502D1*
Y822403D1*
X2799990Y828151D1*
X2803793Y831954D1*
X2809541Y833855D1*
X2811442D1*
X2817190Y831954D1*
X2820993Y828151D1*
X2822938Y820502D1*
Y810907D1*
X2820993Y801356D1*
X2817190Y795608D1*
X2811442Y793707D1*
X2807639D1*
X2801891Y795608D1*
X2799990Y799455D1*
X2858237Y828151D2*
X2856336Y831954D1*
X2850588Y833855D1*
X2846786D1*
X2841037Y831954D1*
X2837191Y826206D1*
X2835289Y816655D1*
Y807104D1*
X2837191Y799455D1*
X2841037Y795608D1*
X2846786Y793707D1*
X2848687D1*
X2854391Y795608D1*
X2858237Y799455D1*
X2860139Y805203D1*
Y807104D1*
X2858237Y812852D1*
X2854391Y816655D1*
X2848687Y818556D1*
X2846786D1*
X2841037Y816655D1*
X2837191Y812852D1*
X2835289Y807104D1*
X2874391Y797554D2*
X2872490Y795608D1*
X2874391Y793707D1*
X2876337Y795608D1*
X2874391Y797554D1*
X2913582Y820502D2*
X2911636Y814754D1*
X2907834Y810907D1*
X2902086Y809006D1*
X2900184D1*
X2894436Y810907D1*
X2890634Y814754D1*
X2888688Y820502D1*
Y822403D1*
X2890634Y828151D1*
X2894436Y831954D1*
X2900184Y833855D1*
X2902086D1*
X2907834Y831954D1*
X2911636Y828151D1*
X2913582Y820502D1*
Y810907D1*
X2911636Y801356D1*
X2907834Y795608D1*
X2902086Y793707D1*
X2898283D1*
X2892535Y795608D1*
X2890634Y799455D1*
X3018500Y2733571D2*
X3016599Y2739319D1*
X3010851Y2743166D1*
X3001301Y2745067D1*
X2995553D1*
X2986002Y2743166D1*
X2980254Y2739319D1*
X2978353Y2733571D1*
Y2729769D1*
X2980254Y2724021D1*
X2986002Y2720218D1*
X2995553Y2718273D1*
X3001301D1*
X3010851Y2720218D1*
X3016599Y2724021D1*
X3018500Y2729769D1*
Y2733571D1*
X3010851Y2720218D2*
X2986002Y2743166D1*
X151185Y1536035D2*
X153086Y1530287D1*
X158834Y1526441D1*
X168385Y1524539D1*
X174133D1*
X183683Y1526441D1*
X189431Y1530287D1*
X191333Y1536035D1*
Y1539838D1*
X189431Y1545586D1*
X183683Y1549389D1*
X174133Y1551334D1*
X168385D1*
X158834Y1549389D1*
X153086Y1545586D1*
X151185Y1539838D1*
Y1536035D1*
X158834Y1549389D2*
X183683Y1526441D1*
X2313776Y529241D2*
X2311875Y534989D1*
X2306127Y538835D1*
X2296576Y540737D1*
X2290828D1*
X2281278Y538835D1*
X2275530Y534989D1*
X2273628Y529241D1*
Y525438D1*
X2275530Y519690D1*
X2281278Y515887D1*
X2290828Y513942D1*
X2296576D1*
X2306127Y515887D1*
X2311875Y519690D1*
X2313776Y525438D1*
Y529241D1*
X2306127Y515887D2*
X2281278Y538835D1*
M02*
