G04 DipTrace 3.0.0.1*
G04 TopSilk.gbr*
%MOIN*%
G04 #@! TF.FileFunction,Legend,Top*
G04 #@! TF.Part,Single*
%ADD10C,0.009843*%
%ADD12C,0.003*%
%ADD35C,0.018111*%
%ADD73C,0.00772*%
%ADD74C,0.012351*%
%ADD76C,0.004632*%
%FSLAX26Y26*%
G04*
G70*
G90*
G75*
G01*
G04 TopSilk*
%LPD*%
X1053150Y424026D2*
D10*
X415748D1*
Y750526D1*
X1053150D1*
Y424026D1*
X3537008D2*
X2899607D1*
Y750526D1*
X3537008D1*
Y424026D1*
X2271673Y2520094D2*
X2322815D1*
Y2142898D2*
X2271673D1*
X1576410Y2854362D2*
X1599969D1*
X1576410Y2917292D2*
X1599969D1*
X1177559Y2945670D2*
X823210D1*
Y2630719D1*
X821242Y2418090D2*
X821282Y2378736D1*
X890152D1*
X1110617D2*
X1177559D1*
Y2945670D1*
X1059252Y1655906D2*
Y765906D1*
X409252D2*
X1059252D1*
X409252D2*
Y1655906D1*
X1059252D2*
X409252D1*
X969227Y1380896D2*
Y1355887D1*
X759277D1*
Y1405905D1*
X734252D1*
X709227D1*
Y1305869D2*
X759277D1*
Y1355887D1*
X709227Y1405905D2*
Y1355887D1*
X499277D1*
X709227D2*
Y1305869D1*
X499277Y1355887D2*
Y1380896D1*
X709227Y1405905D2*
X759277Y1305869D1*
X734252Y1280949D2*
Y1020891D1*
X759277Y995882D1*
X881282D2*
X759277D1*
X709227D2*
X586247D1*
X759277D2*
X771237Y982888D1*
X734252Y1470875D2*
Y1430914D1*
X3543504Y1655906D2*
Y765906D1*
X2893504D2*
X3543504D1*
X2893504D2*
Y1655906D1*
X3543504D2*
X2893504D1*
X3453479Y1380896D2*
Y1355887D1*
X3243529D1*
Y1405905D1*
X3218504D1*
X3193479D1*
Y1305869D2*
X3243529D1*
Y1355887D1*
X3193479Y1405905D2*
Y1355887D1*
X2983529D1*
X3193479D2*
Y1305869D1*
X2983529Y1355887D2*
Y1380896D1*
X3193479Y1405905D2*
X3243529Y1305869D1*
X3218504Y1280949D2*
Y1020891D1*
X3243529Y995882D1*
X3365534D2*
X3243529D1*
X3193479D2*
X3070499D1*
X3243529D2*
X3255489Y982888D1*
X3218504Y1470875D2*
Y1430914D1*
X1440570Y851201D2*
Y902343D1*
X2509431Y900768D2*
Y849626D1*
X1605906Y1735035D2*
X1810630D1*
Y1939768D1*
X1605906D1*
Y1861028D1*
Y1813776D2*
Y1735035D1*
Y1813776D2*
G03X1605906Y1861028I-1J23626D01*
G01*
X2086221Y1738578D2*
X2290945D1*
Y1943312D1*
X2086221D1*
Y1864571D1*
Y1817319D2*
Y1738578D1*
Y1817319D2*
G03X2086221Y1864571I-1J23626D01*
G01*
X1944619Y1063255D2*
X1964310Y1043567D1*
X1924929D2*
X1944619Y1023878D1*
X1964310Y1043567D1*
X1745846Y1140202D2*
G02X1745846Y1140202I113949J0D01*
G01*
X2256824Y1230053D2*
X2276512Y1249743D1*
Y1210362D2*
X2296201Y1230053D1*
X2276512Y1249743D1*
X2065925Y1145229D2*
G02X2065925Y1145229I113952J0D01*
G01*
X2563780Y843701D2*
X2763780D1*
X2563780Y2843701D2*
X2763780D1*
Y843701D1*
X2563780Y2843701D2*
Y843701D1*
X1554718Y1109846D2*
X1667319D1*
Y1094879D1*
X1554718D1*
Y1109846D1*
D35*
X1537009Y1082279D3*
X2399207Y1100003D2*
D10*
X2511807D1*
Y1085036D1*
X2399207D1*
Y1100003D1*
D35*
X2381497Y1072436D3*
X1188977Y843701D2*
D10*
X1388977D1*
X1188977Y2843701D2*
X1388977D1*
Y843701D1*
X1188977Y2843701D2*
Y843701D1*
X1453150Y2185827D2*
X2102756D1*
Y2595276D1*
X1453150D1*
Y2185827D1*
X954465Y2277709D2*
D12*
X999465D1*
X954453Y2274709D2*
X999465D1*
X954348Y2271709D2*
X999476D1*
X953965Y2268709D2*
X999582D1*
X953247Y2265709D2*
X999964D1*
X952478Y2262709D2*
X1000683D1*
X951954Y2259709D2*
X1001452D1*
X951664Y2256709D2*
X1001975D1*
X951432Y2253709D2*
X1002265D1*
X950997Y2250709D2*
X1002498D1*
X882465Y2247709D2*
X888465D1*
X950235D2*
X1002956D1*
X1065465D2*
X1071465D1*
X879465Y2244709D2*
X892964D1*
X949224D2*
X1003929D1*
X1060616D2*
X1074465D1*
X876465Y2241709D2*
X897210D1*
X948042D2*
X1005347D1*
X1055999D2*
X1077465D1*
X873465Y2238709D2*
X901366D1*
X944947D2*
X1008577D1*
X1051672D2*
X1080465D1*
X870465Y2235709D2*
X905336D1*
X940321D2*
X1012892D1*
X1047487D2*
X1083465D1*
X867476Y2232709D2*
X908985D1*
X934250D2*
X1018016D1*
X1043087D2*
X1086453D1*
X864582Y2229709D2*
X912465D1*
X927465D2*
X1023465D1*
X1038465D2*
X1089336D1*
X861966Y2226709D2*
X1091836D1*
X859710Y2223709D2*
X1093607D1*
X857603Y2220709D2*
X1094789D1*
X855465Y2217709D2*
X1094678D1*
X857989Y2214709D2*
X1094002D1*
X860140Y2211709D2*
X1092817D1*
X861981Y2208709D2*
X1091209D1*
X863725Y2205709D2*
X1089337D1*
X865572Y2202709D2*
X1087433D1*
X867539Y2199709D2*
X1085467D1*
X869490Y2196709D2*
X1083437D1*
X871561Y2193709D2*
X1081470D1*
X873849Y2190709D2*
X1079504D1*
X875943Y2187709D2*
X1077688D1*
X877593Y2184709D2*
X1076235D1*
X877428Y2181709D2*
X1076352D1*
X876659Y2178709D2*
X1076858D1*
X875497Y2175709D2*
X1077602D1*
X874144Y2172709D2*
X1078632D1*
X872793Y2169709D2*
X1079894D1*
X871598Y2166709D2*
X1081284D1*
X870513Y2163709D2*
X967180D1*
X986400D2*
X1082766D1*
X869094Y2160709D2*
X959928D1*
X993282D2*
X1084504D1*
X867183Y2157709D2*
X954153D1*
X998905D2*
X1086636D1*
X861785Y2154709D2*
X949759D1*
X1003266D2*
X1092146D1*
X853781Y2151709D2*
X946452D1*
X1006481D2*
X1100686D1*
X844276Y2148709D2*
X943981D1*
X1009052D2*
X1112302D1*
X835952Y2145709D2*
X942029D1*
X1011325D2*
X1125465D1*
X829555Y2142709D2*
X940345D1*
X1013286D2*
X1125465D1*
X827039Y2139709D2*
X938877D1*
X1014918D2*
X1125465D1*
X826187Y2136709D2*
X937728D1*
X1016134D2*
X1125465D1*
X825756Y2133709D2*
X936939D1*
X1016852D2*
X1125465D1*
X825574Y2130709D2*
X936214D1*
X1017208D2*
X1125465D1*
X825503Y2127709D2*
X935356D1*
X1017365D2*
X1125465D1*
X825478Y2124709D2*
X934631D1*
X1017428D2*
X1125465D1*
X825469Y2121709D2*
X934467D1*
X1017452D2*
X1125465D1*
X825466Y2118709D2*
X934899D1*
X1017449D2*
X1125465D1*
X825465Y2115709D2*
X935549D1*
X1017346D2*
X1125465D1*
X825465Y2112709D2*
X936124D1*
X1016965D2*
X1125465D1*
X825500Y2109709D2*
X936776D1*
X1016235D2*
X1125441D1*
X825605Y2106709D2*
X937731D1*
X1015349D2*
X1125160D1*
X826836Y2103709D2*
X939050D1*
X1014326D2*
X1124457D1*
X832377Y2100709D2*
X940799D1*
X1012830D2*
X1120789D1*
X840795Y2097709D2*
X942978D1*
X1010715D2*
X1112376D1*
X850289Y2094709D2*
X945341D1*
X1008152D2*
X1103215D1*
X858174Y2091709D2*
X947847D1*
X1005343D2*
X1095560D1*
X864236Y2088709D2*
X950721D1*
X1002432D2*
X1089640D1*
X866951Y2085709D2*
X953814D1*
X999590D2*
X1086955D1*
X868846Y2082709D2*
X956445D1*
X997205D2*
X1085074D1*
X870209Y2079709D2*
X958440D1*
X995392D2*
X1083717D1*
X871488Y2076709D2*
X958358D1*
X995423D2*
X1082440D1*
X872832Y2073709D2*
X957643D1*
X995887D2*
X1081097D1*
X874150Y2070709D2*
X956592D1*
X996613D2*
X1079780D1*
X875225Y2067709D2*
X955522D1*
X997635D2*
X1078704D1*
X875874Y2064709D2*
X954522D1*
X998884D2*
X1078055D1*
X876091Y2061709D2*
X953472D1*
X1000179D2*
X1077838D1*
X875995Y2058709D2*
X952454D1*
X1001348D2*
X1078177D1*
X874658Y2055709D2*
X951478D1*
X1002387D2*
X1079230D1*
X872752Y2052709D2*
X950353D1*
X1003451D2*
X1080812D1*
X870632Y2049709D2*
X949066D1*
X1004473D2*
X1082583D1*
X868667Y2046709D2*
X947758D1*
X1005451D2*
X1084494D1*
X866903Y2043709D2*
X946583D1*
X1006576D2*
X1086504D1*
X865188Y2040709D2*
X945531D1*
X1007863D2*
X1088464D1*
X863352Y2037709D2*
X944374D1*
X1009172D2*
X1090439D1*
X861391Y2034709D2*
X943074D1*
X1010346D2*
X1092359D1*
X859467Y2031709D2*
X941760D1*
X1011387D2*
X1093830D1*
X857514Y2028709D2*
X940584D1*
X1012450D2*
X1094845D1*
X855465Y2025709D2*
X939543D1*
X1013473D2*
X1094842D1*
X858453Y2022709D2*
X938479D1*
X1014451D2*
X1093577D1*
X861348Y2019709D2*
X937447D1*
X1015585D2*
X1091606D1*
X863965Y2016709D2*
X936398D1*
X1016961D2*
X1089110D1*
X866247Y2013709D2*
X911989D1*
X921465D2*
X935055D1*
X1018613D2*
X1029465D1*
X1041928D2*
X1086328D1*
X868478Y2010709D2*
X908140D1*
X927465D2*
X933465D1*
X1020465D2*
X1026465D1*
X1045684D2*
X1083415D1*
X870954Y2007709D2*
X903981D1*
X1049566D2*
X1080459D1*
X873676Y2004709D2*
X899737D1*
X1053476D2*
X1077585D1*
X876549Y2001709D2*
X895680D1*
X1057499D2*
X1075052D1*
X879494Y1998709D2*
X891979D1*
X1061525D2*
X1073079D1*
X882465Y1995709D2*
X888465D1*
X1065465D2*
X1071465D1*
X795465Y1962709D2*
X804465D1*
X822465D2*
X831465D1*
X837465D2*
X846465D1*
X873465D2*
X882465D1*
X900465D2*
X909465D1*
X915465D2*
X924465D1*
X966465D2*
X981465D1*
X1005465D2*
X1017465D1*
X1035465D2*
X1041465D1*
X1059465D2*
X1065465D1*
X1077465D2*
X1083465D1*
X1089465D2*
X1098465D1*
X1113465D2*
X1125465D1*
X1149465D2*
X1158465D1*
X791670Y1959709D2*
X808374D1*
X822465D2*
X849698D1*
X869555D2*
X886374D1*
X900465D2*
X927698D1*
X963232D2*
X984547D1*
X1002232D2*
X1020698D1*
X1035465D2*
X1041465D1*
X1059465D2*
X1065465D1*
X1077465D2*
X1099648D1*
X1110220D2*
X1129138D1*
X1145555D2*
X1161234D1*
X788616Y1956709D2*
X811375D1*
X822465D2*
X852165D1*
X866555D2*
X889375D1*
X900465D2*
X930165D1*
X960765D2*
X985889D1*
X999765D2*
X1023165D1*
X1035465D2*
X1041465D1*
X1059465D2*
X1065465D1*
X1077465D2*
X1100527D1*
X1107647D2*
X1131919D1*
X1142555D2*
X1163286D1*
X787503Y1953709D2*
X813535D1*
X822465D2*
X853814D1*
X864395D2*
X891535D1*
X900465D2*
X931814D1*
X959127D2*
X985394D1*
X998116D2*
X1024814D1*
X1035465D2*
X1041465D1*
X1059465D2*
X1065465D1*
X1077465D2*
X1095009D1*
X1105616D2*
X1132232D1*
X1140395D2*
X1163912D1*
X786905Y1950709D2*
X792465D1*
X803875D2*
X814985D1*
X822465D2*
X835054D1*
X846588D2*
X854726D1*
X862945D2*
X870465D1*
X885465D2*
X892985D1*
X900465D2*
X913054D1*
X924465D2*
X932726D1*
X958063D2*
X966465D1*
X981465D2*
X984465D1*
X997204D2*
X1006054D1*
X1017928D2*
X1025726D1*
X1035465D2*
X1041465D1*
X1059465D2*
X1065465D1*
X1077465D2*
X1090102D1*
X1103986D2*
X1114054D1*
X1128465D2*
X1131465D1*
X1138945D2*
X1146465D1*
X1161465D2*
X1164237D1*
X786636Y1947709D2*
X792465D1*
X805630D2*
X815797D1*
X822465D2*
X833300D1*
X847054D2*
X855161D1*
X862133D2*
X870465D1*
X885465D2*
X893797D1*
X900465D2*
X911300D1*
X924465D2*
X933161D1*
X958077D2*
X966465D1*
X996768D2*
X1004300D1*
X1018672D2*
X1026161D1*
X1035465D2*
X1041465D1*
X1059465D2*
X1065465D1*
X1077465D2*
X1086184D1*
X1102781D2*
X1112300D1*
X1138133D2*
X1146465D1*
X1161465D2*
X1164378D1*
X786528Y1944709D2*
X792465D1*
X806634D2*
X816189D1*
X822465D2*
X832295D1*
X848080D2*
X855348D1*
X861741D2*
X894189D1*
X900465D2*
X910295D1*
X924465D2*
X933348D1*
X959287D2*
X975914D1*
X996581D2*
X1003295D1*
X1019437D2*
X1026348D1*
X1035465D2*
X1041476D1*
X1059465D2*
X1065465D1*
X1077465D2*
X1084775D1*
X1102083D2*
X1111307D1*
X1137741D2*
X1164434D1*
X786487Y1941709D2*
X792476D1*
X807110D2*
X816358D1*
X822465D2*
X831820D1*
X849465D2*
X855422D1*
X861571D2*
X894358D1*
X900465D2*
X909808D1*
X924465D2*
X933422D1*
X963195D2*
X982361D1*
X996507D2*
X1002831D1*
X1019845D2*
X1026422D1*
X1035465D2*
X1041594D1*
X1059441D2*
X1065465D1*
X1077465D2*
X1084019D1*
X1101836D2*
X1110937D1*
X1137571D2*
X1164454D1*
X786472Y1938709D2*
X792591D1*
X807206D2*
X816414D1*
X822465D2*
X831723D1*
X847957D2*
X855450D1*
X861516D2*
X894428D1*
X900465D2*
X909597D1*
X924465D2*
X933450D1*
X968767D2*
X986892D1*
X996480D2*
X1002849D1*
X1019903D2*
X1026450D1*
X1035465D2*
X1042092D1*
X1059213D2*
X1065465D1*
X1077465D2*
X1083680D1*
X1102063D2*
X1110955D1*
X1137516D2*
X1164461D1*
X786467Y1935709D2*
X793054D1*
X806827D2*
X816322D1*
X822465D2*
X832103D1*
X846626D2*
X855448D1*
X861596D2*
X870465D1*
X900465D2*
X909513D1*
X924465D2*
X933460D1*
X975138D2*
X988867D1*
X996482D2*
X1003288D1*
X1018615D2*
X1026448D1*
X1035476D2*
X1043300D1*
X1058668D2*
X1065465D1*
X1077465D2*
X1083544D1*
X1102731D2*
X1112281D1*
X1137607D2*
X1146465D1*
X786489Y1932709D2*
X794080D1*
X805833D2*
X815832D1*
X822465D2*
X833096D1*
X845142D2*
X855334D1*
X861992D2*
X871871D1*
X900465D2*
X909482D1*
X924465D2*
X933463D1*
X960465D2*
D3*
X981465D2*
X989496D1*
X996595D2*
X1005610D1*
X1016699D2*
X1026334D1*
X1035594D2*
X1045218D1*
X1056330D2*
X1065465D1*
X1077465D2*
X1083493D1*
X1103594D2*
X1114218D1*
X1128465D2*
D3*
X1138098D2*
X1147871D1*
X786717Y1929709D2*
X795465D1*
X804465D2*
X814617D1*
X822465D2*
X834465D1*
X843465D2*
X855054D1*
X862937D2*
X873465D1*
X885465D2*
X891465D1*
X900465D2*
X909471D1*
X924465D2*
X933464D1*
X957465D2*
X966465D1*
X978465D2*
X988878D1*
X997093D2*
X1008465D1*
X1014465D2*
X1025837D1*
X1036092D2*
X1047465D1*
X1053465D2*
X1065465D1*
X1077465D2*
X1083474D1*
X1104607D2*
X1116465D1*
X1125465D2*
X1131465D1*
X1139313D2*
X1149465D1*
X1158465D2*
X1164465D1*
X787262Y1926709D2*
X812634D1*
X822465D2*
X853666D1*
X864640D2*
X890913D1*
X900465D2*
X909467D1*
X924465D2*
X933465D1*
X954465D2*
X987776D1*
X998300D2*
X1024630D1*
X1037300D2*
X1065465D1*
X1077465D2*
X1083468D1*
X1106091D2*
X1134465D1*
X1141296D2*
X1164465D1*
X789600Y1923709D2*
X810147D1*
X822465D2*
X849418D1*
X867259D2*
X889861D1*
X900465D2*
X909465D1*
X924465D2*
X933465D1*
X958871D2*
X986248D1*
X1000218D2*
X1022711D1*
X1039218D2*
X1065465D1*
X1077465D2*
X1083466D1*
X1108141D2*
X1131465D1*
X1143782D2*
X1164465D1*
X792465Y1920709D2*
X807465D1*
X822465D2*
X843698D1*
X870465D2*
X888465D1*
X900465D2*
X909465D1*
X924465D2*
X933465D1*
X963465D2*
X984465D1*
X1002465D2*
X1020465D1*
X1041465D2*
X1065465D1*
X1077465D2*
X1083465D1*
X1110465D2*
X1128465D1*
X1146465D2*
X1164465D1*
X822465Y1917709D2*
X838252D1*
X822465Y1914709D2*
X834052D1*
X822465Y1911709D2*
X832687D1*
X954465D2*
X960465D1*
X822465Y1908709D2*
X831972D1*
X954465D2*
X960465D1*
X822465Y1905709D2*
X831659D1*
X954465D2*
X960465D1*
X822465Y1902709D2*
X831535D1*
X954465D2*
X960465D1*
X822465Y1899709D2*
X831488D1*
X954465D2*
X960465D1*
X822465Y1896709D2*
X831465D1*
X954465D2*
X960465D1*
X822465Y1893709D2*
X841263D1*
X867465D2*
X888465D1*
X903465D2*
X930465D1*
X936465D2*
X960465D1*
X966465D2*
X975465D1*
X993465D2*
X999465D1*
X1014465D2*
X1023465D1*
X1029465D2*
X1050465D1*
X1065465D2*
X1092465D1*
X1101465D2*
X1119465D1*
X822465Y1890709D2*
X848069D1*
X866284D2*
X890313D1*
X903465D2*
X960465D1*
X967861D2*
X976490D1*
X991616D2*
X999928D1*
X1014001D2*
X1052875D1*
X1065465D2*
X1090861D1*
X1099043D2*
X1121313D1*
X822465Y1887709D2*
X852801D1*
X866662D2*
X891919D1*
X903465D2*
X960465D1*
X968828D2*
X977395D1*
X990011D2*
X1000684D1*
X1013257D2*
X1020351D1*
X1026465D2*
X1054630D1*
X1065465D2*
X1088788D1*
X1097183D2*
X1122919D1*
X822465Y1884709D2*
X835054D1*
X842989D2*
X854203D1*
X867465D2*
X870465D1*
X885465D2*
X893131D1*
X903465D2*
X915591D1*
X921465D2*
X924465D1*
X930465D2*
X943054D1*
X950875D2*
X960465D1*
X969647D2*
X978078D1*
X988798D2*
X1001575D1*
X1012481D2*
X1019966D1*
X1032465D2*
X1035465D1*
X1047465D2*
X1055634D1*
X1065465D2*
X1078054D1*
X1086465D2*
D3*
X1095796D2*
X1105016D1*
X1117016D2*
X1124131D1*
X822465Y1881709D2*
X833300D1*
X845128D2*
X854939D1*
X885465D2*
X893850D1*
X903465D2*
X913092D1*
X930465D2*
X941300D1*
X952630D2*
X960465D1*
X970570D2*
X978836D1*
X988077D2*
X1002566D1*
X1011953D2*
X1019247D1*
X1047465D2*
X1056122D1*
X1065465D2*
X1076300D1*
X1094590D2*
X1103069D1*
X1118069D2*
X1124850D1*
X822465Y1878709D2*
X832295D1*
X846852D2*
X855263D1*
X873465D2*
D3*
X885465D2*
X894207D1*
X903465D2*
X911311D1*
X930465D2*
X940295D1*
X953634D2*
X960465D1*
X971523D2*
X979999D1*
X987702D2*
X1003886D1*
X1011658D2*
X1018466D1*
X1038465D2*
D3*
X1047465D2*
X1056332D1*
X1065465D2*
X1075295D1*
X1093610D2*
X1101465D1*
X1119465D2*
X1125207D1*
X822465Y1875709D2*
X831808D1*
X848109D2*
X855392D1*
X868847D2*
X894364D1*
X903465D2*
X910298D1*
X930465D2*
X939808D1*
X954110D2*
X960465D1*
X972458D2*
X981465D1*
X987465D2*
X1005465D1*
X1011465D2*
X1017837D1*
X1033273D2*
X1056416D1*
X1065465D2*
X1074808D1*
X1093015D2*
X1125365D1*
X822465Y1872709D2*
X831597D1*
X848843D2*
X855439D1*
X865518D2*
X894428D1*
X903465D2*
X909809D1*
X930465D2*
X939597D1*
X954206D2*
X960465D1*
X973478D2*
X994043D1*
X999476D2*
X1017177D1*
X1029159D2*
X1056448D1*
X1065465D2*
X1074597D1*
X1092810D2*
X1125430D1*
X822465Y1869709D2*
X831513D1*
X849205D2*
X855456D1*
X863061D2*
X894452D1*
X903465D2*
X909597D1*
X930476D2*
X939513D1*
X953827D2*
X960465D1*
X974483D2*
X992183D1*
X999582D2*
X1016319D1*
X1027205D2*
X1056459D1*
X1065465D2*
X1074513D1*
X1093066D2*
X1125465D1*
X822465Y1866709D2*
X831482D1*
X849364D2*
X855462D1*
X862358D2*
X870465D1*
X885465D2*
X894460D1*
X903465D2*
X909513D1*
X930591D2*
X939481D1*
X952833D2*
X960465D1*
X975445D2*
X990793D1*
X999966D2*
X1015383D1*
X1025366D2*
X1032465D1*
X1047465D2*
X1056463D1*
X1065465D2*
X1074482D1*
X1093843D2*
X1101465D1*
X822465Y1863709D2*
X831471D1*
X849428D2*
X855464D1*
X862091D2*
X870465D1*
X885465D2*
X894463D1*
X903465D2*
X909482D1*
X931054D2*
X939465D1*
X951465D2*
X960465D1*
X976488D2*
X989562D1*
X1000710D2*
X1014374D1*
X1023465D2*
X1032465D1*
X1047465D2*
X1056464D1*
X1065465D2*
X1074471D1*
X1095062D2*
X1104465D1*
X1119465D2*
X1122465D1*
X822465Y1860709D2*
X831467D1*
X849452D2*
X855465D1*
X863127D2*
X894464D1*
X903465D2*
X909470D1*
X932080D2*
X960465D1*
X977521D2*
X988450D1*
X1001603D2*
X1013047D1*
X1025059D2*
X1056465D1*
X1065465D2*
X1074467D1*
X1096648D2*
X1124059D1*
X822465Y1857709D2*
X831465D1*
X849465D2*
X855465D1*
X864465D2*
X894465D1*
X903465D2*
X909465D1*
X933465D2*
X960465D1*
X978465D2*
X987465D1*
X1002465D2*
X1011465D1*
X1026465D2*
X1056465D1*
X1065465D2*
X1074465D1*
X1098465D2*
X1125465D1*
X954465Y2277709D2*
X954453Y2274709D1*
X954348Y2271709D1*
X953965Y2268709D1*
X953247Y2265709D1*
X952478Y2262709D1*
X951954Y2259709D1*
X951664Y2256709D1*
X951432Y2253709D1*
X950997Y2250709D1*
X950235Y2247709D1*
X949224Y2244709D1*
X948042Y2241709D1*
X944947Y2238709D1*
X940321Y2235709D1*
X934250Y2232709D1*
X927465Y2229709D1*
X999465Y2277709D2*
Y2274709D1*
X999476Y2271709D1*
X999582Y2268709D1*
X999964Y2265709D1*
X1000683Y2262709D1*
X1001452Y2259709D1*
X1001975Y2256709D1*
X1002265Y2253709D1*
X1002498Y2250709D1*
X1002956Y2247709D1*
X1003929Y2244709D1*
X1005347Y2241709D1*
X1008577Y2238709D1*
X1012892Y2235709D1*
X1018016Y2232709D1*
X1023465Y2229709D1*
X882465Y2247709D2*
X879465Y2244709D1*
X876465Y2241709D1*
X873465Y2238709D1*
X870465Y2235709D1*
X867476Y2232709D1*
X864582Y2229709D1*
X861966Y2226709D1*
X859710Y2223709D1*
X857603Y2220709D1*
X855465Y2217709D1*
X857989Y2214709D1*
X860140Y2211709D1*
X861981Y2208709D1*
X863725Y2205709D1*
X865572Y2202709D1*
X867539Y2199709D1*
X869490Y2196709D1*
X871561Y2193709D1*
X873849Y2190709D1*
X875943Y2187709D1*
X877593Y2184709D1*
X877428Y2181709D1*
X876659Y2178709D1*
X875497Y2175709D1*
X874144Y2172709D1*
X872793Y2169709D1*
X871598Y2166709D1*
X870513Y2163709D1*
X869094Y2160709D1*
X867183Y2157709D1*
X861785Y2154709D1*
X853781Y2151709D1*
X844276Y2148709D1*
X835952Y2145709D1*
X829555Y2142709D1*
X827039Y2139709D1*
X826187Y2136709D1*
X825756Y2133709D1*
X825574Y2130709D1*
X825503Y2127709D1*
X825478Y2124709D1*
X825469Y2121709D1*
X825466Y2118709D1*
X825465Y2115709D1*
Y2112709D1*
X825500Y2109709D1*
X825605Y2106709D1*
X826836Y2103709D1*
X832377Y2100709D1*
X840795Y2097709D1*
X850289Y2094709D1*
X858174Y2091709D1*
X864236Y2088709D1*
X866951Y2085709D1*
X868846Y2082709D1*
X870209Y2079709D1*
X871488Y2076709D1*
X872832Y2073709D1*
X874150Y2070709D1*
X875225Y2067709D1*
X875874Y2064709D1*
X876091Y2061709D1*
X875995Y2058709D1*
X874658Y2055709D1*
X872752Y2052709D1*
X870632Y2049709D1*
X868667Y2046709D1*
X866903Y2043709D1*
X865188Y2040709D1*
X863352Y2037709D1*
X861391Y2034709D1*
X859467Y2031709D1*
X857514Y2028709D1*
X855465Y2025709D1*
X858453Y2022709D1*
X861348Y2019709D1*
X863965Y2016709D1*
X866247Y2013709D1*
X868478Y2010709D1*
X870954Y2007709D1*
X873676Y2004709D1*
X876549Y2001709D1*
X879494Y1998709D1*
X882465Y1995709D1*
X888465Y2247709D2*
X892964Y2244709D1*
X897210Y2241709D1*
X901366Y2238709D1*
X905336Y2235709D1*
X908985Y2232709D1*
X912465Y2229709D1*
X1065465Y2247709D2*
X1060616Y2244709D1*
X1055999Y2241709D1*
X1051672Y2238709D1*
X1047487Y2235709D1*
X1043087Y2232709D1*
X1038465Y2229709D1*
X1071465Y2247709D2*
X1074465Y2244709D1*
X1077465Y2241709D1*
X1080465Y2238709D1*
X1083465Y2235709D1*
X1086453Y2232709D1*
X1089336Y2229709D1*
X1091836Y2226709D1*
X1093607Y2223709D1*
X1094789Y2220709D1*
X1094678Y2217709D1*
X1094002Y2214709D1*
X1092817Y2211709D1*
X1091209Y2208709D1*
X1089337Y2205709D1*
X1087433Y2202709D1*
X1085467Y2199709D1*
X1083437Y2196709D1*
X1081470Y2193709D1*
X1079504Y2190709D1*
X1077688Y2187709D1*
X1076235Y2184709D1*
X1076352Y2181709D1*
X1076858Y2178709D1*
X1077602Y2175709D1*
X1078632Y2172709D1*
X1079894Y2169709D1*
X1081284Y2166709D1*
X1082766Y2163709D1*
X1084504Y2160709D1*
X1086636Y2157709D1*
X1092146Y2154709D1*
X1100686Y2151709D1*
X1112302Y2148709D1*
X1125465Y2145709D1*
Y2142709D1*
Y2139709D1*
Y2136709D1*
Y2133709D1*
Y2130709D1*
Y2127709D1*
Y2124709D1*
Y2121709D1*
Y2118709D1*
Y2115709D1*
Y2112709D1*
X1125441Y2109709D1*
X1125160Y2106709D1*
X1124457Y2103709D1*
X1120789Y2100709D1*
X1112376Y2097709D1*
X1103215Y2094709D1*
X1095560Y2091709D1*
X1089640Y2088709D1*
X1086955Y2085709D1*
X1085074Y2082709D1*
X1083717Y2079709D1*
X1082440Y2076709D1*
X1081097Y2073709D1*
X1079780Y2070709D1*
X1078704Y2067709D1*
X1078055Y2064709D1*
X1077838Y2061709D1*
X1078177Y2058709D1*
X1079230Y2055709D1*
X1080812Y2052709D1*
X1082583Y2049709D1*
X1084494Y2046709D1*
X1086504Y2043709D1*
X1088464Y2040709D1*
X1090439Y2037709D1*
X1092359Y2034709D1*
X1093830Y2031709D1*
X1094845Y2028709D1*
X1094842Y2025709D1*
X1093577Y2022709D1*
X1091606Y2019709D1*
X1089110Y2016709D1*
X1086328Y2013709D1*
X1083415Y2010709D1*
X1080459Y2007709D1*
X1077585Y2004709D1*
X1075052Y2001709D1*
X1073079Y1998709D1*
X1071465Y1995709D1*
X975465Y2166709D2*
X967180Y2163709D1*
X959928Y2160709D1*
X954153Y2157709D1*
X949759Y2154709D1*
X946452Y2151709D1*
X943981Y2148709D1*
X942029Y2145709D1*
X940345Y2142709D1*
X938877Y2139709D1*
X937728Y2136709D1*
X936939Y2133709D1*
X936214Y2130709D1*
X935356Y2127709D1*
X934631Y2124709D1*
X934467Y2121709D1*
X934899Y2118709D1*
X935549Y2115709D1*
X936124Y2112709D1*
X936776Y2109709D1*
X937731Y2106709D1*
X939050Y2103709D1*
X940799Y2100709D1*
X942978Y2097709D1*
X945341Y2094709D1*
X947847Y2091709D1*
X950721Y2088709D1*
X953814Y2085709D1*
X956445Y2082709D1*
X958440Y2079709D1*
X958358Y2076709D1*
X957643Y2073709D1*
X956592Y2070709D1*
X955522Y2067709D1*
X954522Y2064709D1*
X953472Y2061709D1*
X952454Y2058709D1*
X951478Y2055709D1*
X950353Y2052709D1*
X949066Y2049709D1*
X947758Y2046709D1*
X946583Y2043709D1*
X945531Y2040709D1*
X944374Y2037709D1*
X943074Y2034709D1*
X941760Y2031709D1*
X940584Y2028709D1*
X939543Y2025709D1*
X938479Y2022709D1*
X937447Y2019709D1*
X936398Y2016709D1*
X935055Y2013709D1*
X933465Y2010709D1*
X978465Y2166709D2*
X986400Y2163709D1*
X993282Y2160709D1*
X998905Y2157709D1*
X1003266Y2154709D1*
X1006481Y2151709D1*
X1009052Y2148709D1*
X1011325Y2145709D1*
X1013286Y2142709D1*
X1014918Y2139709D1*
X1016134Y2136709D1*
X1016852Y2133709D1*
X1017208Y2130709D1*
X1017365Y2127709D1*
X1017428Y2124709D1*
X1017452Y2121709D1*
X1017449Y2118709D1*
X1017346Y2115709D1*
X1016965Y2112709D1*
X1016235Y2109709D1*
X1015349Y2106709D1*
X1014326Y2103709D1*
X1012830Y2100709D1*
X1010715Y2097709D1*
X1008152Y2094709D1*
X1005343Y2091709D1*
X1002432Y2088709D1*
X999590Y2085709D1*
X997205Y2082709D1*
X995392Y2079709D1*
X995423Y2076709D1*
X995887Y2073709D1*
X996613Y2070709D1*
X997635Y2067709D1*
X998884Y2064709D1*
X1000179Y2061709D1*
X1001348Y2058709D1*
X1002387Y2055709D1*
X1003451Y2052709D1*
X1004473Y2049709D1*
X1005451Y2046709D1*
X1006576Y2043709D1*
X1007863Y2040709D1*
X1009172Y2037709D1*
X1010346Y2034709D1*
X1011387Y2031709D1*
X1012450Y2028709D1*
X1013473Y2025709D1*
X1014451Y2022709D1*
X1015585Y2019709D1*
X1016961Y2016709D1*
X1018613Y2013709D1*
X1020465Y2010709D1*
X915465Y2016709D2*
X911989Y2013709D1*
X908140Y2010709D1*
X903981Y2007709D1*
X899737Y2004709D1*
X895680Y2001709D1*
X891979Y1998709D1*
X888465Y1995709D1*
X915465Y2016709D2*
X921465Y2013709D1*
X927465Y2010709D1*
X1032465Y2016709D2*
X1029465Y2013709D1*
X1026465Y2010709D1*
X1038465Y2016709D2*
X1041928Y2013709D1*
X1045684Y2010709D1*
X1049566Y2007709D1*
X1053476Y2004709D1*
X1057499Y2001709D1*
X1061525Y1998709D1*
X1065465Y1995709D1*
X795465Y1962709D2*
X791670Y1959709D1*
X788616Y1956709D1*
X787503Y1953709D1*
X786905Y1950709D1*
X786636Y1947709D1*
X786528Y1944709D1*
X786487Y1941709D1*
X786472Y1938709D1*
X786467Y1935709D1*
X786489Y1932709D1*
X786717Y1929709D1*
X787262Y1926709D1*
X789600Y1923709D1*
X792465Y1920709D1*
X804465Y1962709D2*
X808374Y1959709D1*
X811375Y1956709D1*
X813535Y1953709D1*
X814985Y1950709D1*
X815797Y1947709D1*
X816189Y1944709D1*
X816358Y1941709D1*
X816414Y1938709D1*
X816322Y1935709D1*
X815832Y1932709D1*
X814617Y1929709D1*
X812634Y1926709D1*
X810147Y1923709D1*
X807465Y1920709D1*
X822465Y1962709D2*
Y1959709D1*
Y1956709D1*
Y1953709D1*
Y1950709D1*
Y1947709D1*
Y1944709D1*
Y1941709D1*
Y1938709D1*
Y1935709D1*
Y1932709D1*
Y1929709D1*
Y1926709D1*
Y1923709D1*
Y1920709D1*
Y1917709D1*
Y1914709D1*
Y1911709D1*
Y1908709D1*
Y1905709D1*
Y1902709D1*
Y1899709D1*
Y1896709D1*
Y1893709D1*
Y1890709D1*
Y1887709D1*
Y1884709D1*
Y1881709D1*
Y1878709D1*
Y1875709D1*
Y1872709D1*
Y1869709D1*
Y1866709D1*
Y1863709D1*
Y1860709D1*
Y1857709D1*
X831465Y1962709D2*
X837465D2*
X846465D2*
X849698Y1959709D1*
X852165Y1956709D1*
X853814Y1953709D1*
X854726Y1950709D1*
X855161Y1947709D1*
X855348Y1944709D1*
X855422Y1941709D1*
X855450Y1938709D1*
X855448Y1935709D1*
X855334Y1932709D1*
X855054Y1929709D1*
X853666Y1926709D1*
X849418Y1923709D1*
X843698Y1920709D1*
X838252Y1917709D1*
X834052Y1914709D1*
X832687Y1911709D1*
X831972Y1908709D1*
X831659Y1905709D1*
X831535Y1902709D1*
X831488Y1899709D1*
X831465Y1896709D1*
X841263Y1893709D1*
X848069Y1890709D1*
X852801Y1887709D1*
X854203Y1884709D1*
X854939Y1881709D1*
X855263Y1878709D1*
X855392Y1875709D1*
X855439Y1872709D1*
X855456Y1869709D1*
X855462Y1866709D1*
X855464Y1863709D1*
X855465Y1860709D1*
Y1857709D1*
X873465Y1962709D2*
X869555Y1959709D1*
X866555Y1956709D1*
X864395Y1953709D1*
X862945Y1950709D1*
X862133Y1947709D1*
X861741Y1944709D1*
X861571Y1941709D1*
X861516Y1938709D1*
X861596Y1935709D1*
X861992Y1932709D1*
X862937Y1929709D1*
X864640Y1926709D1*
X867259Y1923709D1*
X870465Y1920709D1*
X882465Y1962709D2*
X886374Y1959709D1*
X889375Y1956709D1*
X891535Y1953709D1*
X892985Y1950709D1*
X893797Y1947709D1*
X894189Y1944709D1*
X894358Y1941709D1*
X894428Y1938709D1*
X894465Y1935709D1*
X870465D1*
X871871Y1932709D1*
X873465Y1929709D1*
X900465Y1962709D2*
Y1959709D1*
Y1956709D1*
Y1953709D1*
Y1950709D1*
Y1947709D1*
Y1944709D1*
Y1941709D1*
Y1938709D1*
Y1935709D1*
Y1932709D1*
Y1929709D1*
Y1926709D1*
Y1923709D1*
Y1920709D1*
X909465Y1962709D2*
X915465D2*
X924465D2*
X927698Y1959709D1*
X930165Y1956709D1*
X931814Y1953709D1*
X932726Y1950709D1*
X933161Y1947709D1*
X933348Y1944709D1*
X933422Y1941709D1*
X933450Y1938709D1*
X933460Y1935709D1*
X933463Y1932709D1*
X933464Y1929709D1*
X933465Y1926709D1*
Y1923709D1*
Y1920709D1*
X966465Y1962709D2*
X963232Y1959709D1*
X960765Y1956709D1*
X959127Y1953709D1*
X958063Y1950709D1*
X958077Y1947709D1*
X959287Y1944709D1*
X963195Y1941709D1*
X968767Y1938709D1*
X975138Y1935709D1*
X981465Y1932709D1*
X978465Y1929709D1*
X981465Y1962709D2*
X984547Y1959709D1*
X985889Y1956709D1*
X985394Y1953709D1*
X984465Y1950709D1*
X1005465Y1962709D2*
X1002232Y1959709D1*
X999765Y1956709D1*
X998116Y1953709D1*
X997204Y1950709D1*
X996768Y1947709D1*
X996581Y1944709D1*
X996507Y1941709D1*
X996480Y1938709D1*
X996482Y1935709D1*
X996595Y1932709D1*
X997093Y1929709D1*
X998300Y1926709D1*
X1000218Y1923709D1*
X1002465Y1920709D1*
X1017465Y1962709D2*
X1020698Y1959709D1*
X1023165Y1956709D1*
X1024814Y1953709D1*
X1025726Y1950709D1*
X1026161Y1947709D1*
X1026348Y1944709D1*
X1026422Y1941709D1*
X1026450Y1938709D1*
X1026448Y1935709D1*
X1026334Y1932709D1*
X1025837Y1929709D1*
X1024630Y1926709D1*
X1022711Y1923709D1*
X1020465Y1920709D1*
X1035465Y1962709D2*
Y1959709D1*
Y1956709D1*
Y1953709D1*
Y1950709D1*
Y1947709D1*
Y1944709D1*
Y1941709D1*
Y1938709D1*
X1035476Y1935709D1*
X1035594Y1932709D1*
X1036092Y1929709D1*
X1037300Y1926709D1*
X1039218Y1923709D1*
X1041465Y1920709D1*
Y1962709D2*
Y1959709D1*
Y1956709D1*
Y1953709D1*
Y1950709D1*
Y1947709D1*
X1041476Y1944709D1*
X1041594Y1941709D1*
X1042092Y1938709D1*
X1043300Y1935709D1*
X1045218Y1932709D1*
X1047465Y1929709D1*
X1059465Y1962709D2*
Y1959709D1*
Y1956709D1*
Y1953709D1*
Y1950709D1*
Y1947709D1*
Y1944709D1*
X1059441Y1941709D1*
X1059213Y1938709D1*
X1058668Y1935709D1*
X1056330Y1932709D1*
X1053465Y1929709D1*
X1065465Y1962709D2*
Y1959709D1*
Y1956709D1*
Y1953709D1*
Y1950709D1*
Y1947709D1*
Y1944709D1*
Y1941709D1*
Y1938709D1*
Y1935709D1*
Y1932709D1*
Y1929709D1*
Y1926709D1*
Y1923709D1*
Y1920709D1*
X1077465Y1962709D2*
Y1959709D1*
Y1956709D1*
Y1953709D1*
Y1950709D1*
Y1947709D1*
Y1944709D1*
Y1941709D1*
Y1938709D1*
Y1935709D1*
Y1932709D1*
Y1929709D1*
Y1926709D1*
Y1923709D1*
Y1920709D1*
X1083465Y1962709D2*
X1089465D2*
X1098465D2*
X1099648Y1959709D1*
X1100527Y1956709D1*
X1095009Y1953709D1*
X1090102Y1950709D1*
X1086184Y1947709D1*
X1084775Y1944709D1*
X1084019Y1941709D1*
X1083680Y1938709D1*
X1083544Y1935709D1*
X1083493Y1932709D1*
X1083474Y1929709D1*
X1083468Y1926709D1*
X1083466Y1923709D1*
X1083465Y1920709D1*
X1113465Y1962709D2*
X1110220Y1959709D1*
X1107647Y1956709D1*
X1105616Y1953709D1*
X1103986Y1950709D1*
X1102781Y1947709D1*
X1102083Y1944709D1*
X1101836Y1941709D1*
X1102063Y1938709D1*
X1102731Y1935709D1*
X1103594Y1932709D1*
X1104607Y1929709D1*
X1106091Y1926709D1*
X1108141Y1923709D1*
X1110465Y1920709D1*
X1125465Y1962709D2*
X1129138Y1959709D1*
X1131919Y1956709D1*
X1132232Y1953709D1*
X1131465Y1950709D1*
X1149465Y1962709D2*
X1145555Y1959709D1*
X1142555Y1956709D1*
X1140395Y1953709D1*
X1138945Y1950709D1*
X1138133Y1947709D1*
X1137741Y1944709D1*
X1137571Y1941709D1*
X1137516Y1938709D1*
X1137607Y1935709D1*
X1138098Y1932709D1*
X1139313Y1929709D1*
X1141296Y1926709D1*
X1143782Y1923709D1*
X1146465Y1920709D1*
X1158465Y1962709D2*
X1161234Y1959709D1*
X1163286Y1956709D1*
X1163912Y1953709D1*
X1164237Y1950709D1*
X1164378Y1947709D1*
X1164434Y1944709D1*
X1164454Y1941709D1*
X1164461Y1938709D1*
X1164465Y1935709D1*
X1146465D1*
X1147871Y1932709D1*
X1149465Y1929709D1*
X792465Y1953709D2*
Y1950709D1*
Y1947709D1*
Y1944709D1*
X792476Y1941709D1*
X792591Y1938709D1*
X793054Y1935709D1*
X794080Y1932709D1*
X795465Y1929709D1*
X801465Y1953709D2*
X803875Y1950709D1*
X805630Y1947709D1*
X806634Y1944709D1*
X807110Y1941709D1*
X807206Y1938709D1*
X806827Y1935709D1*
X805833Y1932709D1*
X804465Y1929709D1*
X837465Y1953709D2*
X835054Y1950709D1*
X833300Y1947709D1*
X832295Y1944709D1*
X831820Y1941709D1*
X831723Y1938709D1*
X832103Y1935709D1*
X833096Y1932709D1*
X834465Y1929709D1*
X846465Y1953709D2*
X846588Y1950709D1*
X847054Y1947709D1*
X848080Y1944709D1*
X849465Y1941709D1*
X847957Y1938709D1*
X846626Y1935709D1*
X845142Y1932709D1*
X843465Y1929709D1*
X870465Y1953709D2*
Y1950709D1*
Y1947709D1*
X885465Y1953709D2*
Y1950709D1*
Y1947709D1*
X915465Y1953709D2*
X913054Y1950709D1*
X911300Y1947709D1*
X910295Y1944709D1*
X909808Y1941709D1*
X909597Y1938709D1*
X909513Y1935709D1*
X909482Y1932709D1*
X909471Y1929709D1*
X909467Y1926709D1*
X909465Y1923709D1*
Y1920709D1*
X924465Y1953709D2*
Y1950709D1*
Y1947709D1*
Y1944709D1*
Y1941709D1*
Y1938709D1*
Y1935709D1*
Y1932709D1*
Y1929709D1*
Y1926709D1*
Y1923709D1*
Y1920709D1*
X966465Y1953709D2*
Y1950709D1*
Y1947709D1*
X975914Y1944709D1*
X982361Y1941709D1*
X986892Y1938709D1*
X988867Y1935709D1*
X989496Y1932709D1*
X988878Y1929709D1*
X987776Y1926709D1*
X986248Y1923709D1*
X984465Y1920709D1*
X978465Y1953709D2*
X981465Y1950709D1*
X1008465Y1953709D2*
X1006054Y1950709D1*
X1004300Y1947709D1*
X1003295Y1944709D1*
X1002831Y1941709D1*
X1002849Y1938709D1*
X1003288Y1935709D1*
X1005610Y1932709D1*
X1008465Y1929709D1*
X1017465Y1953709D2*
X1017928Y1950709D1*
X1018672Y1947709D1*
X1019437Y1944709D1*
X1019845Y1941709D1*
X1019903Y1938709D1*
X1018615Y1935709D1*
X1016699Y1932709D1*
X1014465Y1929709D1*
X1116465Y1953709D2*
X1114054Y1950709D1*
X1112300Y1947709D1*
X1111307Y1944709D1*
X1110937Y1941709D1*
X1110955Y1938709D1*
X1112281Y1935709D1*
X1114218Y1932709D1*
X1116465Y1929709D1*
X1125465Y1953709D2*
X1128465Y1950709D1*
X1146465Y1953709D2*
Y1950709D1*
Y1947709D1*
X1161465Y1953709D2*
Y1950709D1*
Y1947709D1*
X960465Y1932709D2*
X957465Y1929709D1*
X954465Y1926709D1*
X958871Y1923709D1*
X963465Y1920709D1*
X1128465Y1932709D2*
X1125465Y1929709D1*
X885465D2*
X891465D2*
X890913Y1926709D1*
X889861Y1923709D1*
X888465Y1920709D1*
X966465Y1929709D2*
X1131465D2*
X1134465Y1926709D1*
X1131465Y1923709D1*
X1128465Y1920709D1*
X1158465Y1929709D2*
X1164465D2*
Y1926709D1*
Y1923709D1*
Y1920709D1*
X954465Y1911709D2*
Y1908709D1*
Y1905709D1*
Y1902709D1*
Y1899709D1*
Y1896709D1*
X936465Y1893709D1*
X960465Y1911709D2*
Y1908709D1*
Y1905709D1*
Y1902709D1*
Y1899709D1*
Y1896709D1*
Y1893709D1*
Y1890709D1*
Y1887709D1*
Y1884709D1*
Y1881709D1*
Y1878709D1*
Y1875709D1*
Y1872709D1*
Y1869709D1*
Y1866709D1*
Y1863709D1*
Y1860709D1*
Y1857709D1*
X867465Y1893709D2*
X866284Y1890709D1*
X866662Y1887709D1*
X867465Y1884709D1*
X888465Y1893709D2*
X890313Y1890709D1*
X891919Y1887709D1*
X893131Y1884709D1*
X893850Y1881709D1*
X894207Y1878709D1*
X894364Y1875709D1*
X894428Y1872709D1*
X894452Y1869709D1*
X894460Y1866709D1*
X894463Y1863709D1*
X894464Y1860709D1*
X894465Y1857709D1*
X903465Y1893709D2*
Y1890709D1*
Y1887709D1*
Y1884709D1*
Y1881709D1*
Y1878709D1*
Y1875709D1*
Y1872709D1*
Y1869709D1*
Y1866709D1*
Y1863709D1*
Y1860709D1*
Y1857709D1*
X930465Y1893709D2*
X966465D2*
X967861Y1890709D1*
X968828Y1887709D1*
X969647Y1884709D1*
X970570Y1881709D1*
X971523Y1878709D1*
X972458Y1875709D1*
X973478Y1872709D1*
X974483Y1869709D1*
X975445Y1866709D1*
X976488Y1863709D1*
X977521Y1860709D1*
X978465Y1857709D1*
X975465Y1893709D2*
X976490Y1890709D1*
X977395Y1887709D1*
X978078Y1884709D1*
X978836Y1881709D1*
X979999Y1878709D1*
X981465Y1875709D1*
X993465Y1893709D2*
X991616Y1890709D1*
X990011Y1887709D1*
X988798Y1884709D1*
X988077Y1881709D1*
X987702Y1878709D1*
X987465Y1875709D1*
X999465Y1893709D2*
X999928Y1890709D1*
X1000684Y1887709D1*
X1001575Y1884709D1*
X1002566Y1881709D1*
X1003886Y1878709D1*
X1005465Y1875709D1*
X1014465Y1893709D2*
X1014001Y1890709D1*
X1013257Y1887709D1*
X1012481Y1884709D1*
X1011953Y1881709D1*
X1011658Y1878709D1*
X1011465Y1875709D1*
X1023465Y1893709D2*
X1029465D2*
X1050465D2*
X1052875Y1890709D1*
X1054630Y1887709D1*
X1055634Y1884709D1*
X1056122Y1881709D1*
X1056332Y1878709D1*
X1056416Y1875709D1*
X1056448Y1872709D1*
X1056459Y1869709D1*
X1056463Y1866709D1*
X1056464Y1863709D1*
X1056465Y1860709D1*
Y1857709D1*
X1065465Y1893709D2*
Y1890709D1*
Y1887709D1*
Y1884709D1*
Y1881709D1*
Y1878709D1*
Y1875709D1*
Y1872709D1*
Y1869709D1*
Y1866709D1*
Y1863709D1*
Y1860709D1*
Y1857709D1*
X1092465Y1893709D2*
X1090861Y1890709D1*
X1088788Y1887709D1*
X1086465Y1884709D1*
X1101465Y1893709D2*
X1099043Y1890709D1*
X1097183Y1887709D1*
X1095796Y1884709D1*
X1094590Y1881709D1*
X1093610Y1878709D1*
X1093015Y1875709D1*
X1092810Y1872709D1*
X1093066Y1869709D1*
X1093843Y1866709D1*
X1095062Y1863709D1*
X1096648Y1860709D1*
X1098465Y1857709D1*
X1119465Y1893709D2*
X1121313Y1890709D1*
X1122919Y1887709D1*
X1124131Y1884709D1*
X1124850Y1881709D1*
X1125207Y1878709D1*
X1125365Y1875709D1*
X1125430Y1872709D1*
X1125465Y1869709D1*
X1101465Y1866709D1*
X1104465Y1863709D1*
X1020465Y1890709D2*
X1020351Y1887709D1*
X1019966Y1884709D1*
X1019247Y1881709D1*
X1018466Y1878709D1*
X1017837Y1875709D1*
X1017177Y1872709D1*
X1016319Y1869709D1*
X1015383Y1866709D1*
X1014374Y1863709D1*
X1013047Y1860709D1*
X1011465Y1857709D1*
X1020465Y1890709D2*
X1026465Y1887709D1*
X1032465Y1884709D1*
X837465Y1887709D2*
X835054Y1884709D1*
X833300Y1881709D1*
X832295Y1878709D1*
X831808Y1875709D1*
X831597Y1872709D1*
X831513Y1869709D1*
X831482Y1866709D1*
X831471Y1863709D1*
X831467Y1860709D1*
X831465Y1857709D1*
X840465Y1887709D2*
X842989Y1884709D1*
X845128Y1881709D1*
X846852Y1878709D1*
X848109Y1875709D1*
X848843Y1872709D1*
X849205Y1869709D1*
X849364Y1866709D1*
X849428Y1863709D1*
X849452Y1860709D1*
X849465Y1857709D1*
X873465Y1887709D2*
X870465Y1884709D1*
X885465Y1887709D2*
Y1884709D1*
Y1881709D1*
Y1878709D1*
X918465Y1887709D2*
X915591Y1884709D1*
X913092Y1881709D1*
X911311Y1878709D1*
X910298Y1875709D1*
X909809Y1872709D1*
X909597Y1869709D1*
X909513Y1866709D1*
X909482Y1863709D1*
X909470Y1860709D1*
X909465Y1857709D1*
X918465Y1887709D2*
X921465Y1884709D1*
X927465Y1887709D2*
X924465Y1884709D1*
X930465Y1887709D2*
Y1884709D1*
Y1881709D1*
Y1878709D1*
Y1875709D1*
Y1872709D1*
X930476Y1869709D1*
X930591Y1866709D1*
X931054Y1863709D1*
X932080Y1860709D1*
X933465Y1857709D1*
X945465Y1887709D2*
X943054Y1884709D1*
X941300Y1881709D1*
X940295Y1878709D1*
X939808Y1875709D1*
X939597Y1872709D1*
X939513Y1869709D1*
X939481Y1866709D1*
X939465Y1863709D1*
X948465Y1887709D2*
X950875Y1884709D1*
X952630Y1881709D1*
X953634Y1878709D1*
X954110Y1875709D1*
X954206Y1872709D1*
X953827Y1869709D1*
X952833Y1866709D1*
X951465Y1863709D1*
X1038465Y1887709D2*
X1035465Y1884709D1*
X1047465Y1887709D2*
Y1884709D1*
Y1881709D1*
Y1878709D1*
X1080465Y1887709D2*
X1078054Y1884709D1*
X1076300Y1881709D1*
X1075295Y1878709D1*
X1074808Y1875709D1*
X1074597Y1872709D1*
X1074513Y1869709D1*
X1074482Y1866709D1*
X1074471Y1863709D1*
X1074467Y1860709D1*
X1074465Y1857709D1*
X1107465Y1887709D2*
X1105016Y1884709D1*
X1103069Y1881709D1*
X1101465Y1878709D1*
X1116465Y1887709D2*
X1117016Y1884709D1*
X1118069Y1881709D1*
X1119465Y1878709D1*
X873465D2*
X868847Y1875709D1*
X865518Y1872709D1*
X863061Y1869709D1*
X862358Y1866709D1*
X862091Y1863709D1*
X863127Y1860709D1*
X864465Y1857709D1*
X1038465Y1878709D2*
X1033273Y1875709D1*
X1029159Y1872709D1*
X1027205Y1869709D1*
X1025366Y1866709D1*
X1023465Y1863709D1*
X1025059Y1860709D1*
X1026465Y1857709D1*
X996465Y1875709D2*
X994043Y1872709D1*
X992183Y1869709D1*
X990793Y1866709D1*
X989562Y1863709D1*
X988450Y1860709D1*
X987465Y1857709D1*
X999465Y1875709D2*
X999476Y1872709D1*
X999582Y1869709D1*
X999966Y1866709D1*
X1000710Y1863709D1*
X1001603Y1860709D1*
X1002465Y1857709D1*
X870465Y1869709D2*
Y1866709D1*
Y1863709D1*
X885465Y1869709D2*
Y1866709D1*
Y1863709D1*
X1032465Y1869709D2*
Y1866709D1*
Y1863709D1*
X1047465Y1869709D2*
Y1866709D1*
Y1863709D1*
X1119465D2*
X1122465D2*
X1124059Y1860709D1*
X1125465Y1857709D1*
X2206432Y2453439D2*
D73*
X2201679Y2451063D1*
X2196870Y2446254D1*
X2194494Y2441501D1*
Y2431940D1*
X2196870Y2427131D1*
X2201679Y2422378D1*
X2206432Y2419946D1*
X2213617Y2417569D1*
X2225610D1*
X2232740Y2419946D1*
X2237549Y2422378D1*
X2242302Y2427131D1*
X2244734Y2431940D1*
Y2441501D1*
X2242302Y2446254D1*
X2237549Y2451063D1*
X2232740Y2453439D1*
X2204111Y2468879D2*
X2201679Y2473687D1*
X2194549Y2480872D1*
X2244734D1*
X2206432Y2207241D2*
X2201679Y2204864D1*
X2196870Y2200056D1*
X2194494Y2195302D1*
Y2185741D1*
X2196870Y2180932D1*
X2201679Y2176179D1*
X2206432Y2173747D1*
X2213617Y2171371D1*
X2225610D1*
X2232740Y2173747D1*
X2237549Y2176179D1*
X2242302Y2180932D1*
X2244734Y2185741D1*
Y2195302D1*
X2242302Y2200056D1*
X2237549Y2204864D1*
X2232740Y2207241D1*
X2206487Y2225112D2*
X2204111D1*
X2199302Y2227488D1*
X2196926Y2229865D1*
X2194549Y2234673D1*
Y2244235D1*
X2196926Y2248988D1*
X2199302Y2251365D1*
X2204111Y2253797D1*
X2208864D1*
X2213672Y2251365D1*
X2220802Y2246612D1*
X2244734Y2222680D1*
Y2256173D1*
X1428352Y2887669D2*
Y2856552D1*
X1478592D1*
X1452284D2*
Y2875676D1*
X1437969Y2903108D2*
X1435537Y2907917D1*
X1428407Y2915102D1*
X1478592D1*
X703789Y1729129D2*
Y1678889D1*
X737282Y1729129D2*
X703789Y1695635D1*
X715727Y1707629D2*
X737282Y1678889D1*
X752722Y1719512D2*
X757530Y1721944D1*
X764715Y1729074D1*
Y1678889D1*
X3177291Y1729129D2*
Y1678889D1*
X3210785Y1729129D2*
X3177291Y1695635D1*
X3189229Y1707629D2*
X3210785Y1678889D1*
X3228656Y1717135D2*
Y1719512D1*
X3231032Y1724320D1*
X3233409Y1726697D1*
X3238217Y1729074D1*
X3247779D1*
X3252532Y1726697D1*
X3254909Y1724320D1*
X3257341Y1719512D1*
Y1714759D1*
X3254909Y1709950D1*
X3250155Y1702821D1*
X3226224Y1678889D1*
X3259717D1*
X1433683Y979523D2*
Y929282D1*
X1462368D1*
X1508868Y979523D2*
X1477807D1*
Y929282D1*
X1508868D1*
X1477807Y955591D2*
X1496930D1*
X1524308Y979523D2*
Y929282D1*
X1541054D1*
X1548239Y931714D1*
X1553048Y936468D1*
X1555424Y941276D1*
X1557801Y948406D1*
Y960399D1*
X1555424Y967584D1*
X1553048Y972337D1*
X1548239Y977146D1*
X1541054Y979523D1*
X1524308D1*
X1573240Y969906D2*
X1578049Y972337D1*
X1585234Y979467D1*
Y929282D1*
X2354017Y977948D2*
Y927708D1*
X2382702D1*
X2429202Y977948D2*
X2398141D1*
Y927708D1*
X2429202D1*
X2398141Y954016D2*
X2417264D1*
X2444642Y977948D2*
Y927708D1*
X2461388D1*
X2468573Y930140D1*
X2473382Y934893D1*
X2475758Y939701D1*
X2478135Y946831D1*
Y958824D1*
X2475758Y966009D1*
X2473382Y970763D1*
X2468573Y975571D1*
X2461388Y977948D1*
X2444642D1*
X2496006Y965954D2*
Y968331D1*
X2498383Y973139D1*
X2500759Y975516D1*
X2505568Y977892D1*
X2515129D1*
X2519883Y975516D1*
X2522259Y973139D1*
X2524691Y968331D1*
Y963578D1*
X2522259Y958769D1*
X2517506Y951639D1*
X2493574Y927708D1*
X2527068D1*
X1664144Y2090152D2*
X1659335Y2087776D1*
X1654582Y2082967D1*
X1652150Y2078214D1*
X1649774Y2071029D1*
Y2059036D1*
X1652150Y2051906D1*
X1654582Y2047097D1*
X1659335Y2042344D1*
X1664144Y2039912D1*
X1673705D1*
X1678459Y2042344D1*
X1683267Y2047097D1*
X1685644Y2051906D1*
X1688020Y2059036D1*
Y2071029D1*
X1685644Y2078214D1*
X1683267Y2082967D1*
X1678459Y2087776D1*
X1673705Y2090152D1*
X1664144D1*
X1739329Y2078214D2*
X1736953Y2082967D1*
X1732144Y2087776D1*
X1727391Y2090152D1*
X1717830D1*
X1713021Y2087776D1*
X1708268Y2082967D1*
X1705836Y2078214D1*
X1703459Y2071029D1*
Y2059036D1*
X1705836Y2051906D1*
X1708268Y2047097D1*
X1713021Y2042344D1*
X1717830Y2039912D1*
X1727391D1*
X1732144Y2042344D1*
X1736953Y2047097D1*
X1739329Y2051906D1*
X1754769Y2080536D2*
X1759577Y2082967D1*
X1766762Y2090097D1*
Y2039912D1*
X2133709Y2093696D2*
X2128900Y2091319D1*
X2124147Y2086511D1*
X2121715Y2081758D1*
X2119339Y2074572D1*
Y2062579D1*
X2121715Y2055449D1*
X2124147Y2050641D1*
X2128900Y2045888D1*
X2133709Y2043456D1*
X2143270D1*
X2148024Y2045888D1*
X2152832Y2050641D1*
X2155209Y2055449D1*
X2157585Y2062579D1*
Y2074572D1*
X2155209Y2081758D1*
X2152832Y2086511D1*
X2148024Y2091319D1*
X2143270Y2093696D1*
X2133709D1*
X2208894Y2081758D2*
X2206518Y2086511D1*
X2201709Y2091319D1*
X2196956Y2093696D1*
X2187395D1*
X2182586Y2091319D1*
X2177833Y2086511D1*
X2175401Y2081758D1*
X2173025Y2074572D1*
Y2062579D1*
X2175401Y2055449D1*
X2177833Y2050641D1*
X2182586Y2045888D1*
X2187395Y2043456D1*
X2196956D1*
X2201709Y2045888D1*
X2206518Y2050641D1*
X2208894Y2055449D1*
X2226766Y2081702D2*
Y2084079D1*
X2229142Y2088887D1*
X2231519Y2091264D1*
X2236327Y2093640D1*
X2245889D1*
X2250642Y2091264D1*
X2253019Y2088887D1*
X2255450Y2084079D1*
Y2079326D1*
X2253019Y2074517D1*
X2248265Y2067387D1*
X2224334Y2043456D1*
X2257827D1*
X1841298Y1327377D2*
X1836545Y1325056D1*
X1831737Y1320247D1*
X1829360Y1315439D1*
X1826928Y1308254D1*
Y1296315D1*
X1829360Y1289130D1*
X1831737Y1284377D1*
X1836545Y1279569D1*
X1841298Y1277192D1*
X1850860D1*
X1855668Y1279569D1*
X1860422Y1284377D1*
X1862798Y1289130D1*
X1865230Y1296315D1*
Y1308254D1*
X1862798Y1315439D1*
X1860422Y1320247D1*
X1855668Y1325056D1*
X1850860Y1327377D1*
X1841298D1*
X1848483Y1286754D2*
X1862798Y1272384D1*
X1880669Y1317760D2*
X1885478Y1320192D1*
X1892663Y1327322D1*
Y1277137D1*
X2151816Y1332401D2*
X2147063Y1330080D1*
X2142254Y1325271D1*
X2139878Y1320463D1*
X2137446Y1313278D1*
Y1301340D1*
X2139878Y1294155D1*
X2142254Y1289401D1*
X2147063Y1284593D1*
X2151816Y1282216D1*
X2161378D1*
X2166186Y1284593D1*
X2170939Y1289401D1*
X2173316Y1294155D1*
X2175748Y1301340D1*
Y1313278D1*
X2173316Y1320463D1*
X2170939Y1325271D1*
X2166186Y1330080D1*
X2161378Y1332401D1*
X2151816D1*
X2159001Y1291778D2*
X2173316Y1277408D1*
X2193619Y1320408D2*
Y1322784D1*
X2195996Y1327593D1*
X2198372Y1329969D1*
X2203181Y1332346D1*
X2212742D1*
X2217495Y1329969D1*
X2219872Y1327593D1*
X2222304Y1322784D1*
Y1318031D1*
X2219872Y1313223D1*
X2215119Y1306093D1*
X2191187Y1282161D1*
X2224680D1*
X1923474Y1985512D2*
X1944974D1*
X1952159Y1987944D1*
X1954591Y1990321D1*
X1956968Y1995074D1*
Y1999882D1*
X1954591Y2004635D1*
X1952159Y2007067D1*
X1944974Y2009444D1*
X1923474D1*
Y1959204D1*
X1940221Y1985512D2*
X1956968Y1959204D1*
X1972407Y1999827D2*
X1977215Y2002259D1*
X1984400Y2009388D1*
Y1959204D1*
X1758189Y870992D2*
Y892492D1*
X1755757Y899677D1*
X1753381Y902109D1*
X1748628Y904485D1*
X1743819D1*
X1739066Y902109D1*
X1736634Y899677D1*
X1734257Y892492D1*
Y870992D1*
X1784497D1*
X1758189Y887739D2*
X1784498Y904485D1*
X1746251Y922356D2*
X1743874D1*
X1739066Y924733D1*
X1736689Y927110D1*
X1734313Y931918D1*
Y941480D1*
X1736689Y946233D1*
X1739066Y948610D1*
X1743874Y951041D1*
X1748628D1*
X1753436Y948609D1*
X1760566Y943856D1*
X1784498Y919925D1*
X1784497Y953418D1*
X2335748Y1832016D2*
Y1853516D1*
X2333316Y1860701D1*
X2330940Y1863132D1*
X2326187Y1865509D1*
X2321378D1*
X2316625Y1863132D1*
X2314193Y1860701D1*
X2311817Y1853516D1*
Y1832016D1*
X2362057D1*
X2335748Y1848762D2*
X2362057Y1865509D1*
X2311872Y1885757D2*
Y1912010D1*
X2330995Y1897695D1*
Y1904880D1*
X2333372Y1909633D1*
X2335748Y1912010D1*
X2342933Y1914442D1*
X2347686D1*
X2354872Y1912010D1*
X2359680Y1907256D1*
X2362057Y1900071D1*
Y1892886D1*
X2359680Y1885757D1*
X2357248Y1883380D1*
X2352495Y1880948D1*
X2056221Y869804D2*
Y891304D1*
X2053789Y898489D1*
X2051412Y900921D1*
X2046659Y903297D1*
X2041851D1*
X2037097Y900921D1*
X2034666Y898489D1*
X2032289Y891304D1*
Y869804D1*
X2082529D1*
X2056221Y886550D2*
X2082529Y903297D1*
Y942668D2*
X2032344D1*
X2065782Y918736D1*
Y954606D1*
X1557212Y1246452D2*
Y1210582D1*
X1559589Y1203397D1*
X1564397Y1198643D1*
X1571583Y1196212D1*
X1576336D1*
X1583521Y1198643D1*
X1588329Y1203397D1*
X1590706Y1210582D1*
Y1246452D1*
X1608577Y1234458D2*
Y1236835D1*
X1610953Y1241643D1*
X1613330Y1244020D1*
X1618139Y1246396D1*
X1627700D1*
X1632453Y1244020D1*
X1634830Y1241643D1*
X1637262Y1236835D1*
Y1232082D1*
X1634830Y1227273D1*
X1630077Y1220143D1*
X1606145Y1196212D1*
X1639638D1*
X2401701Y1236609D2*
Y1200739D1*
X2404077Y1193554D1*
X2408886Y1188801D1*
X2416071Y1186369D1*
X2420824D1*
X2428009Y1188801D1*
X2432817Y1193554D1*
X2435194Y1200739D1*
Y1236609D1*
X2455442Y1236554D2*
X2481695D1*
X2467380Y1217431D1*
X2474565D1*
X2479318Y1215054D1*
X2481695Y1212677D1*
X2484127Y1205492D1*
Y1200739D1*
X2481695Y1193554D1*
X2476942Y1188746D1*
X2469756Y1186369D1*
X2462571D1*
X2455442Y1188746D1*
X2453065Y1191178D1*
X2450633Y1195931D1*
X1736740Y2168868D2*
Y2132998D1*
X1739117Y2125813D1*
X1743925Y2121060D1*
X1751110Y2118628D1*
X1755863D1*
X1763048Y2121060D1*
X1767857Y2125813D1*
X1770233Y2132998D1*
Y2168868D1*
X1814357Y2168813D2*
X1790481D1*
X1788104Y2147313D1*
X1790481Y2149690D1*
X1797666Y2152122D1*
X1804796D1*
X1811981Y2149690D1*
X1816789Y2144937D1*
X1819166Y2137752D1*
Y2132998D1*
X1816789Y2125813D1*
X1811981Y2121005D1*
X1804796Y2118628D1*
X1797666D1*
X1790481Y2121005D1*
X1788104Y2123437D1*
X1785673Y2128190D1*
X1448850Y2701639D2*
D74*
X1483339D1*
X1494746Y2705442D1*
X1498637Y2709333D1*
X1502440Y2716938D1*
Y2728434D1*
X1498637Y2736039D1*
X1494746Y2739930D1*
X1483339Y2743732D1*
X1448850D1*
Y2663348D1*
X1527143Y2743732D2*
X1530945Y2739930D1*
X1534836Y2743732D1*
X1530945Y2747623D1*
X1527143Y2743732D1*
X1530945Y2716938D2*
Y2663348D1*
X1605523Y2705442D2*
X1597830Y2713135D1*
X1590136Y2716938D1*
X1578728D1*
X1571035Y2713135D1*
X1563430Y2705442D1*
X1559539Y2693946D1*
Y2686341D1*
X1563430Y2674845D1*
X1571035Y2667239D1*
X1578728Y2663348D1*
X1590136D1*
X1597830Y2667239D1*
X1605523Y2674845D1*
X1649327Y2716938D2*
X1641722Y2713135D1*
X1634028Y2705442D1*
X1630226Y2693946D1*
Y2686341D1*
X1634028Y2674845D1*
X1641722Y2667239D1*
X1649327Y2663348D1*
X1660823D1*
X1668517Y2667239D1*
X1676122Y2674845D1*
X1680013Y2686341D1*
Y2693946D1*
X1676122Y2705442D1*
X1668517Y2713135D1*
X1660823Y2716938D1*
X1649327D1*
X1828373Y2743732D2*
Y2663348D1*
Y2705442D2*
X1820768Y2713135D1*
X1813074Y2716938D1*
X1801578D1*
X1793973Y2713135D1*
X1786280Y2705442D1*
X1782477Y2693946D1*
Y2686341D1*
X1786280Y2674845D1*
X1793973Y2667239D1*
X1801578Y2663348D1*
X1813074D1*
X1820768Y2667239D1*
X1828373Y2674845D1*
X1853076Y2693946D2*
X1898972D1*
Y2701639D1*
X1895169Y2709333D1*
X1891366Y2713135D1*
X1883673Y2716938D1*
X1872177D1*
X1864572Y2713135D1*
X1856878Y2705442D1*
X1853076Y2693946D1*
Y2686341D1*
X1856878Y2674845D1*
X1864572Y2667239D1*
X1872177Y2663348D1*
X1883673D1*
X1891366Y2667239D1*
X1898972Y2674845D1*
X2058828Y2724631D2*
X2055025Y2732236D1*
X2047332Y2739930D1*
X2039727Y2743732D1*
X2024428D1*
X2016734Y2739930D1*
X2009129Y2732236D1*
X2005238Y2724631D1*
X2001436Y2713135D1*
Y2693946D1*
X2005238Y2682538D1*
X2009129Y2674845D1*
X2016734Y2667239D1*
X2024428Y2663348D1*
X2039727D1*
X2047332Y2667239D1*
X2055025Y2674845D1*
X2058828Y2682538D1*
Y2693946D1*
X2039727D1*
X2129426Y2716938D2*
Y2663348D1*
Y2705442D2*
X2121821Y2713135D1*
X2114128Y2716938D1*
X2102720D1*
X2095027Y2713135D1*
X2087422Y2705442D1*
X2083531Y2693946D1*
Y2686341D1*
X2087422Y2674845D1*
X2095027Y2667239D1*
X2102720Y2663348D1*
X2114128D1*
X2121821Y2667239D1*
X2129426Y2674845D1*
X2154129Y2743732D2*
Y2663348D1*
X2178832Y2743732D2*
Y2663348D1*
X2222636Y2716938D2*
X2215031Y2713135D1*
X2207337Y2705442D1*
X2203535Y2693946D1*
Y2686341D1*
X2207337Y2674845D1*
X2215031Y2667239D1*
X2222636Y2663348D1*
X2234132D1*
X2241825Y2667239D1*
X2249431Y2674845D1*
X2253322Y2686341D1*
Y2693946D1*
X2249431Y2705442D1*
X2241825Y2713135D1*
X2234132Y2716938D1*
X2222636D1*
X2355786Y2743732D2*
Y2663348D1*
X2382581D1*
X2394077Y2667239D1*
X2401770Y2674845D1*
X2405573Y2682538D1*
X2409375Y2693946D1*
Y2713135D1*
X2405573Y2724631D1*
X2401770Y2732236D1*
X2394077Y2739930D1*
X2382581Y2743732D1*
X2355786D1*
X2434078D2*
X2437881Y2739930D1*
X2441772Y2743732D1*
X2437881Y2747623D1*
X2434078Y2743732D1*
X2437881Y2716938D2*
Y2663348D1*
X2466474Y2716938D2*
Y2636554D1*
Y2705442D2*
X2474168Y2713047D1*
X2481773Y2716938D1*
X2493269D1*
X2500963Y2713047D1*
X2508568Y2705442D1*
X2512459Y2693946D1*
Y2686252D1*
X2508568Y2674845D1*
X2500963Y2667151D1*
X2493269Y2663348D1*
X2481773D1*
X2474168Y2667151D1*
X2466474Y2674845D1*
X1711932Y1565985D2*
D73*
X1709555Y1570738D1*
X1704747Y1575547D1*
X1699994Y1577923D1*
X1690432D1*
X1685624Y1575547D1*
X1680871Y1570738D1*
X1678439Y1565985D1*
X1676062Y1558800D1*
Y1546807D1*
X1678439Y1539677D1*
X1680871Y1534868D1*
X1685624Y1530115D1*
X1690432Y1527683D1*
X1699994D1*
X1704747Y1530115D1*
X1709555Y1534868D1*
X1711932Y1539677D1*
X1727371Y1561177D2*
Y1537245D1*
X1729748Y1530115D1*
X1734556Y1527683D1*
X1741741D1*
X1746495Y1530115D1*
X1753680Y1537245D1*
Y1561177D2*
Y1527683D1*
X1769119Y1577923D2*
X1771495Y1575547D1*
X1773927Y1577923D1*
X1771495Y1580355D1*
X1769119Y1577923D1*
X1771495Y1561177D2*
Y1527683D1*
X1818051Y1577923D2*
Y1527683D1*
Y1553992D2*
X1813298Y1558800D1*
X1808490Y1561177D1*
X1801305D1*
X1796552Y1558800D1*
X1791743Y1553992D1*
X1789367Y1546807D1*
Y1542053D1*
X1791743Y1534868D1*
X1796552Y1530115D1*
X1801305Y1527683D1*
X1808490D1*
X1813298Y1530115D1*
X1818051Y1534868D1*
X1862176Y1561177D2*
Y1527683D1*
Y1553992D2*
X1857422Y1558800D1*
X1852614Y1561177D1*
X1845484D1*
X1840676Y1558800D1*
X1835923Y1553992D1*
X1833491Y1546807D1*
Y1542053D1*
X1835923Y1534868D1*
X1840676Y1530115D1*
X1845484Y1527683D1*
X1852614D1*
X1857422Y1530115D1*
X1862176Y1534868D1*
X1906300Y1577923D2*
Y1527683D1*
Y1553992D2*
X1901547Y1558800D1*
X1896738Y1561177D1*
X1889553D1*
X1884800Y1558800D1*
X1879991Y1553992D1*
X1877615Y1546807D1*
Y1542053D1*
X1879991Y1534868D1*
X1884800Y1530115D1*
X1889553Y1527683D1*
X1896738D1*
X1901547Y1530115D1*
X1906300Y1534868D1*
X1933677Y1561177D2*
X1928924Y1558800D1*
X1924116Y1553992D1*
X1921739Y1546807D1*
Y1542053D1*
X1924116Y1534868D1*
X1928924Y1530115D1*
X1933677Y1527683D1*
X1940862D1*
X1945671Y1530115D1*
X1950424Y1534868D1*
X1952856Y1542053D1*
Y1546807D1*
X1950424Y1553992D1*
X1945671Y1558800D1*
X1940862Y1561177D1*
X1933677D1*
X2016896D2*
Y1510937D1*
Y1553992D2*
X2021704Y1558745D1*
X2026458Y1561177D1*
X2033643D1*
X2038451Y1558745D1*
X2043204Y1553992D1*
X2045636Y1546807D1*
Y1541998D1*
X2043204Y1534868D1*
X2038451Y1530060D1*
X2033643Y1527683D1*
X2026458D1*
X2021704Y1530060D1*
X2016896Y1534868D1*
X2061075Y1577923D2*
X2063452Y1575547D1*
X2065884Y1577923D1*
X2063452Y1580355D1*
X2061075Y1577923D1*
X2063452Y1561177D2*
Y1527683D1*
X2110063Y1553992D2*
X2105255Y1558800D1*
X2100446Y1561177D1*
X2093316D1*
X2088508Y1558800D1*
X2083755Y1553992D1*
X2081323Y1546807D1*
Y1542053D1*
X2083755Y1534868D1*
X2088508Y1530115D1*
X2093316Y1527683D1*
X2100446D1*
X2105255Y1530115D1*
X2110063Y1534868D1*
X2137441Y1561177D2*
X2132687Y1558800D1*
X2127879Y1553992D1*
X2125502Y1546807D1*
Y1542053D1*
X2127879Y1534868D1*
X2132687Y1530115D1*
X2137441Y1527683D1*
X2144626D1*
X2149434Y1530115D1*
X2154187Y1534868D1*
X2156619Y1542053D1*
Y1546807D1*
X2154187Y1553992D1*
X2149434Y1558800D1*
X2144626Y1561177D1*
X2137441D1*
X2198367Y1553992D2*
X2195990Y1558800D1*
X2188805Y1561177D1*
X2181620D1*
X2174435Y1558800D1*
X2172058Y1553992D1*
X2174435Y1549239D1*
X2179243Y1546807D1*
X2191182Y1544430D1*
X2195990Y1542053D1*
X2198367Y1537245D1*
Y1534868D1*
X2195990Y1530115D1*
X2188805Y1527683D1*
X2181620D1*
X2174435Y1530115D1*
X2172058Y1534868D1*
X2225744Y1561177D2*
X2220991Y1558800D1*
X2216183Y1553992D1*
X2213806Y1546807D1*
Y1542053D1*
X2216183Y1534868D1*
X2220991Y1530115D1*
X2225744Y1527683D1*
X2232929D1*
X2237738Y1530115D1*
X2242491Y1534868D1*
X2244923Y1542053D1*
Y1546807D1*
X2242491Y1553992D1*
X2237738Y1558800D1*
X2232929Y1561177D1*
X2225744D1*
X2262794Y1577868D2*
Y1544430D1*
Y1532492D2*
X2260362Y1530060D1*
X2262794Y1527683D1*
X2265170Y1530060D1*
X2262794Y1532492D1*
X940117Y443791D2*
D76*
X937232Y442332D1*
X932921Y438054D1*
Y468165D1*
X747374Y444532D2*
Y443106D1*
X745948Y440220D1*
X744522Y438795D1*
X741637Y437369D1*
X735900D1*
X733048Y438795D1*
X731622Y440221D1*
X730163Y443106D1*
Y445958D1*
X731622Y448843D1*
X734474Y453120D1*
X748833Y467479D1*
X728737D1*
X546505Y439621D2*
X530753D1*
X539342Y451095D1*
X535031D1*
X532179Y452521D1*
X530753Y453947D1*
X529294Y458258D1*
Y461110D1*
X530753Y465421D1*
X533605Y468306D1*
X537916Y469732D1*
X542227D1*
X546505Y468306D1*
X547931Y466847D1*
X549390Y463995D1*
X3423975Y443791D2*
X3421090Y442332D1*
X3416779Y438054D1*
Y468165D1*
X3231232Y444532D2*
Y443106D1*
X3229806Y440220D1*
X3228380Y438795D1*
X3225495Y437369D1*
X3219758D1*
X3216906Y438795D1*
X3215480Y440221D1*
X3214021Y443106D1*
Y445958D1*
X3215480Y448843D1*
X3218332Y453120D1*
X3232691Y467479D1*
X3212595D1*
X3030363Y439621D2*
X3014611D1*
X3023200Y451095D1*
X3018889D1*
X3016037Y452521D1*
X3014611Y453947D1*
X3013152Y458258D1*
Y461110D1*
X3014611Y465421D1*
X3017463Y468306D1*
X3021774Y469732D1*
X3026085D1*
X3030363Y468306D1*
X3031789Y466847D1*
X3033248Y463995D1*
X1956669Y2300064D2*
Y2315816D1*
X1968143Y2307227D1*
Y2311538D1*
X1969569Y2314390D1*
X1970995Y2315816D1*
X1975306Y2317275D1*
X1978158D1*
X1982469Y2315816D1*
X1985354Y2312964D1*
X1986780Y2308653D1*
Y2304342D1*
X1985354Y2300064D1*
X1983895Y2298638D1*
X1981043Y2297179D1*
X1963832Y2386319D2*
X1962406D1*
X1959521Y2387745D1*
X1958095Y2389171D1*
X1956669Y2392056D1*
Y2397793D1*
X1958095Y2400645D1*
X1959521Y2402071D1*
X1962406Y2403530D1*
X1965258D1*
X1968143Y2402071D1*
X1972421Y2399219D1*
X1986780Y2384860D1*
Y2404956D1*
X1962406Y2472541D2*
X1960947Y2475426D1*
X1956669Y2479737D1*
X1986780D1*
M02*
