G04 DipTrace 3.0.0.1*
G04 TopSilk.gbr*
%MOIN*%
G04 #@! TF.FileFunction,Legend,Top*
G04 #@! TF.Part,Single*
%ADD10C,0.009843*%
%ADD12C,0.002992*%
%ADD34C,0.018111*%
%ADD72C,0.00772*%
%ADD73C,0.012351*%
%ADD75C,0.004632*%
%FSLAX26Y26*%
G04*
G70*
G90*
G75*
G01*
G04 TopSilk*
%LPD*%
X1053150Y424026D2*
D10*
X415748D1*
Y750526D1*
X1053150D1*
Y424026D1*
X3537008D2*
X2899607D1*
Y750526D1*
X3537008D1*
Y424026D1*
X2271673Y2520094D2*
X2322815D1*
Y2142898D2*
X2271673D1*
X1576410Y2854362D2*
X1599969D1*
X1576410Y2917292D2*
X1599969D1*
X1177559Y2945670D2*
X823210D1*
Y2630719D1*
X821242Y2418090D2*
X821282Y2378736D1*
X890152D1*
X1110617D2*
X1177559D1*
Y2945670D1*
X1059252Y1655906D2*
Y765906D1*
X409252D2*
X1059252D1*
X409252D2*
Y1655906D1*
X1059252D2*
X409252D1*
X969227Y1380896D2*
Y1355887D1*
X759277D1*
Y1405905D1*
X734252D1*
X709227D1*
Y1305869D2*
X759277D1*
Y1355887D1*
X709227Y1405905D2*
Y1355887D1*
X499277D1*
X709227D2*
Y1305869D1*
X499277Y1355887D2*
Y1380896D1*
X709227Y1405905D2*
X759277Y1305869D1*
X734252Y1280949D2*
Y1020891D1*
X759277Y995882D1*
X881282D2*
X759277D1*
X709227D2*
X586247D1*
X759277D2*
X771237Y982888D1*
X734252Y1470875D2*
Y1430914D1*
X3543504Y1655906D2*
Y765906D1*
X2893504D2*
X3543504D1*
X2893504D2*
Y1655906D1*
X3543504D2*
X2893504D1*
X3453479Y1380896D2*
Y1355887D1*
X3243529D1*
Y1405905D1*
X3218504D1*
X3193479D1*
Y1305869D2*
X3243529D1*
Y1355887D1*
X3193479Y1405905D2*
Y1355887D1*
X2983529D1*
X3193479D2*
Y1305869D1*
X2983529Y1355887D2*
Y1380896D1*
X3193479Y1405905D2*
X3243529Y1305869D1*
X3218504Y1280949D2*
Y1020891D1*
X3243529Y995882D1*
X3365534D2*
X3243529D1*
X3193479D2*
X3070499D1*
X3243529D2*
X3255489Y982888D1*
X3218504Y1470875D2*
Y1430914D1*
X1440570Y851201D2*
Y902343D1*
X2509431Y900768D2*
Y849626D1*
X1605906Y1735035D2*
X1810630D1*
Y1939768D1*
X1605906D1*
Y1861028D1*
Y1813776D2*
Y1735035D1*
Y1813776D2*
G03X1605906Y1861028I-1J23626D01*
G01*
X2086221Y1738578D2*
X2290945D1*
Y1943312D1*
X2086221D1*
Y1864571D1*
Y1817319D2*
Y1738578D1*
Y1817319D2*
G03X2086221Y1864571I-1J23626D01*
G01*
X1944619Y1063255D2*
X1964310Y1043567D1*
X1924929D2*
X1944619Y1023878D1*
X1964310Y1043567D1*
X1745846Y1140202D2*
G02X1745846Y1140202I113949J0D01*
G01*
X2256824Y1230053D2*
X2276512Y1249743D1*
Y1210362D2*
X2296201Y1230053D1*
X2276512Y1249743D1*
X2065925Y1145229D2*
G02X2065925Y1145229I113952J0D01*
G01*
X2563780Y843701D2*
X2763780D1*
X2563780Y2843701D2*
X2763780D1*
Y843701D1*
X2563780Y2843701D2*
Y843701D1*
X1554718Y1109846D2*
X1667319D1*
Y1094879D1*
X1554718D1*
Y1109846D1*
D34*
X1537009Y1082279D3*
X2399207Y1100003D2*
D10*
X2511807D1*
Y1085036D1*
X2399207D1*
Y1100003D1*
D34*
X2381497Y1072436D3*
X1188977Y843701D2*
D10*
X1388977D1*
X1188977Y2843701D2*
X1388977D1*
Y843701D1*
X1188977Y2843701D2*
Y843701D1*
X1453150Y2185827D2*
X2102756D1*
Y2595276D1*
X1453150D1*
Y2185827D1*
X916842Y2272205D2*
D12*
X967706D1*
X916380Y2269213D2*
X968168D1*
X915638Y2266221D2*
X968910D1*
X914863Y2263229D2*
X969685D1*
X914327Y2260237D2*
X970221D1*
X913944Y2257245D2*
X970604D1*
X913436Y2254253D2*
X971112D1*
X912667Y2251261D2*
X971881D1*
X911868Y2248269D2*
X972680D1*
X830074Y2245277D2*
X836058D1*
X911210D2*
X973338D1*
X1048490D2*
X1054474D1*
X827082Y2242285D2*
X841008D1*
X910315D2*
X974233D1*
X1043541D2*
X1057466D1*
X824078Y2239293D2*
X845996D1*
X908942D2*
X975606D1*
X1038552D2*
X1060470D1*
X820981Y2236301D2*
X851031D1*
X905216D2*
X979332D1*
X1033517D2*
X1063567D1*
X817608Y2233309D2*
X856005D1*
X900123D2*
X984425D1*
X1028543D2*
X1066940D1*
X813899Y2230317D2*
X861082D1*
X893605D2*
X990943D1*
X1023466D2*
X1070649D1*
X810152Y2227325D2*
X866443D1*
X886004D2*
X998544D1*
X1018105D2*
X1074396D1*
X806755Y2224333D2*
X871962D1*
X877946D2*
X1006602D1*
X1012586D2*
X1077793D1*
X803995Y2221341D2*
X1080553D1*
X801814Y2218349D2*
X1082734D1*
X801208Y2215357D2*
X1083340D1*
X802229Y2212365D2*
X1082319D1*
X803970Y2209373D2*
X1080579D1*
X806026Y2206381D2*
X1078522D1*
X808063Y2203389D2*
X1076485D1*
X810194Y2200397D2*
X1074354D1*
X812617Y2197405D2*
X1071931D1*
X815214Y2194413D2*
X1069334D1*
X817682Y2191421D2*
X1066866D1*
X819787Y2188429D2*
X1064761D1*
X821481Y2185437D2*
X1063067D1*
X822624Y2182445D2*
X1061924D1*
X823252Y2179453D2*
X1061296D1*
X822572Y2176461D2*
X1061976D1*
X821516Y2173469D2*
X1063032D1*
X820222Y2170477D2*
X1064326D1*
X818805Y2167485D2*
X1065743D1*
X817342Y2164493D2*
X1067206D1*
X815808Y2161501D2*
X926880D1*
X957668D2*
X1068740D1*
X813828Y2158509D2*
X920005D1*
X964543D2*
X1070720D1*
X811134Y2155517D2*
X914292D1*
X970256D2*
X1073414D1*
X803251Y2152525D2*
X909572D1*
X974976D2*
X1081297D1*
X792088Y2149533D2*
X905743D1*
X978805D2*
X1092460D1*
X778592Y2146541D2*
X902699D1*
X981849D2*
X1105956D1*
X764250Y2143549D2*
X900340D1*
X984209D2*
X1120298D1*
X764250Y2140557D2*
X898433D1*
X986115D2*
X1120298D1*
X764250Y2137565D2*
X896768D1*
X987780D2*
X1120298D1*
X764250Y2134573D2*
X895309D1*
X989239D2*
X1120298D1*
X764250Y2131581D2*
X894177D1*
X990371D2*
X1120298D1*
X764250Y2128589D2*
X893496D1*
X991052D2*
X1120298D1*
X764250Y2125597D2*
X893154D1*
X991394D2*
X1120298D1*
X764250Y2122605D2*
X893003D1*
X991545D2*
X1120298D1*
X764250Y2119613D2*
X892954D1*
X991594D2*
X1120298D1*
X764250Y2116621D2*
X893036D1*
X991512D2*
X1120298D1*
X764250Y2113629D2*
X893420D1*
X991128D2*
X1120298D1*
X764262Y2110637D2*
X894251D1*
X990297D2*
X1120286D1*
X764437Y2107645D2*
X895503D1*
X989045D2*
X1120111D1*
X764893Y2104653D2*
X897135D1*
X987414D2*
X1119655D1*
X767902Y2101661D2*
X899024D1*
X985524D2*
X1116646D1*
X776893Y2098669D2*
X901043D1*
X983505D2*
X1107655D1*
X788070Y2095677D2*
X903503D1*
X981045D2*
X1096479D1*
X798452Y2092685D2*
X906731D1*
X977817D2*
X1086097D1*
X805840Y2089693D2*
X910558D1*
X973990D2*
X1078709D1*
X811134Y2086701D2*
X914525D1*
X970023D2*
X1073414D1*
X813560Y2083709D2*
X917902D1*
X966646D2*
X1070988D1*
X815435Y2080717D2*
X920460D1*
X964088D2*
X1069113D1*
X816847Y2077725D2*
X920834D1*
X963714D2*
X1067702D1*
X817989Y2074733D2*
X920000D1*
X964548D2*
X1066559D1*
X819177Y2071741D2*
X918849D1*
X965699D2*
X1065371D1*
X820473Y2068749D2*
X917499D1*
X967049D2*
X1064075D1*
X821659Y2065757D2*
X916063D1*
X968485D2*
X1062889D1*
X822590Y2062765D2*
X914586D1*
X969962D2*
X1061958D1*
X822078Y2059773D2*
X913100D1*
X971449D2*
X1062470D1*
X820238Y2056781D2*
X911615D1*
X972933D2*
X1064310D1*
X818190Y2053789D2*
X910216D1*
X974332D2*
X1066358D1*
X816167Y2050797D2*
X909006D1*
X975542D2*
X1068381D1*
X814045Y2047805D2*
X907941D1*
X976607D2*
X1070504D1*
X811625Y2044813D2*
X906781D1*
X977767D2*
X1072924D1*
X809029Y2041821D2*
X905471D1*
X979077D2*
X1075519D1*
X806562Y2038829D2*
X904066D1*
X980482D2*
X1077986D1*
X804457Y2035837D2*
X902606D1*
X981942D2*
X1080091D1*
X802775Y2032845D2*
X901127D1*
X983421D2*
X1081773D1*
X801410Y2029853D2*
X899634D1*
X984914D2*
X1083138D1*
X801401Y2026861D2*
X898142D1*
X986406D2*
X1083147D1*
X803345Y2023869D2*
X896645D1*
X987904D2*
X1081203D1*
X806029Y2020877D2*
X895142D1*
X989406D2*
X1078519D1*
X809014Y2017885D2*
X893566D1*
X990982D2*
X1075534D1*
X812055Y2014893D2*
X866092D1*
X877946D2*
X891820D1*
X992728D2*
X1006602D1*
X1018456D2*
X1072493D1*
X815094Y2011901D2*
X860491D1*
X886922D2*
X889914D1*
X994634D2*
X997626D1*
X1024057D2*
X1069454D1*
X818210Y2008909D2*
X855225D1*
X1029323D2*
X1066338D1*
X821593Y2005917D2*
X850008D1*
X1034540D2*
X1062955D1*
X825330Y2002925D2*
X844548D1*
X1040000D2*
X1059218D1*
X829214Y1999933D2*
X838857D1*
X1045691D2*
X1055334D1*
X833066Y1996941D2*
D3*
X1051482D2*
D3*
X719370Y1964029D2*
X743306D1*
X761258D2*
X791178D1*
X815114D2*
X836058D1*
X854010D2*
X883930D1*
X925818D2*
X952746D1*
X970698D2*
X994634D1*
X1012586D2*
X1021562D1*
X1039514D2*
X1048490D1*
X1060458D2*
X1090378D1*
X1102346D2*
X1123290D1*
X1141242D2*
X1165178D1*
X717989Y1961037D2*
X745824D1*
X761258D2*
X793582D1*
X811889D2*
X838576D1*
X854010D2*
X886334D1*
X923414D2*
X953924D1*
X968855D2*
X997152D1*
X1012586D2*
X1021562D1*
X1039514D2*
X1048490D1*
X1060458D2*
X1089328D1*
X1099121D2*
X1126031D1*
X1138826D2*
X1166559D1*
X717130Y1958045D2*
X747957D1*
X761258D2*
X795332D1*
X809429D2*
X840709D1*
X854010D2*
X888084D1*
X921676D2*
X953547D1*
X967253D2*
X999285D1*
X1012586D2*
X1021562D1*
X1039514D2*
X1048490D1*
X1060458D2*
X1088311D1*
X1096649D2*
X1126745D1*
X1136971D2*
X1167418D1*
X716695Y1955053D2*
X725942D1*
X737196D2*
X749676D1*
X761258D2*
X773814D1*
X784606D2*
X796334D1*
X807785D2*
X818106D1*
X830074D2*
X842428D1*
X854010D2*
X866566D1*
X877358D2*
X889086D1*
X920507D2*
X931802D1*
X946762D2*
X952746D1*
X966044D2*
X977270D1*
X988176D2*
X1001004D1*
X1012586D2*
X1021562D1*
X1039514D2*
X1048490D1*
X1060458D2*
X1073014D1*
X1084394D2*
X1087386D1*
X1094900D2*
X1109506D1*
X1120298D2*
X1126282D1*
X1135588D2*
X1147226D1*
X1159194D2*
X1167853D1*
X716502Y1952061D2*
X724192D1*
X739688D2*
X750930D1*
X761258D2*
X772064D1*
X786356D2*
X796820D1*
X806875D2*
X815114D1*
X833066D2*
X843682D1*
X854010D2*
X864816D1*
X879108D2*
X889572D1*
X920474D2*
X931802D1*
X965327D2*
X975520D1*
X990298D2*
X1002258D1*
X1012586D2*
X1021562D1*
X1039514D2*
X1048490D1*
X1060458D2*
X1071264D1*
X1093620D2*
X1105461D1*
X1134385D2*
X1144234D1*
X1162186D2*
X1168046D1*
X716424Y1949069D2*
X723190D1*
X741453D2*
X751662D1*
X761258D2*
X771062D1*
X787358D2*
X797030D1*
X806441D2*
X844414D1*
X854010D2*
X863814D1*
X880110D2*
X889782D1*
X921568D2*
X941688D1*
X964971D2*
X974518D1*
X991912D2*
X1002990D1*
X1012586D2*
X1021562D1*
X1039514D2*
X1048490D1*
X1060458D2*
X1070262D1*
X1092575D2*
X1103866D1*
X1133420D2*
X1168124D1*
X716394Y1946077D2*
X722716D1*
X742633D2*
X752011D1*
X761258D2*
X770588D1*
X787832D2*
X797114D1*
X806254D2*
X844776D1*
X854010D2*
X863328D1*
X880596D2*
X889866D1*
X924391D2*
X948860D1*
X964814D2*
X974044D1*
X993108D2*
X1003339D1*
X1012586D2*
X1021574D1*
X1039502D2*
X1048490D1*
X1060458D2*
X1069776D1*
X1091744D2*
X1103020D1*
X1132920D2*
X1168155D1*
X716384Y1943085D2*
X722620D1*
X742666D2*
X752064D1*
X761258D2*
X770492D1*
X787928D2*
X797145D1*
X806192D2*
X844940D1*
X854010D2*
X863118D1*
X880806D2*
X889897D1*
X930809D2*
X954232D1*
X964763D2*
X973948D1*
X992757D2*
X1003392D1*
X1012586D2*
X1021688D1*
X1039388D2*
X1048490D1*
X1060458D2*
X1069566D1*
X1092071D2*
X1102599D1*
X1132992D2*
X1168170D1*
X716380Y1940093D2*
X722998D1*
X741426D2*
X751735D1*
X761258D2*
X770870D1*
X787550D2*
X797145D1*
X806270D2*
X815114D1*
X854010D2*
X863034D1*
X880890D2*
X889908D1*
X939597D2*
X956740D1*
X964844D2*
X974326D1*
X991819D2*
X1003063D1*
X1012598D2*
X1022150D1*
X1038926D2*
X1048490D1*
X1060458D2*
X1069482D1*
X1092698D2*
X1103194D1*
X1133582D2*
X1141242D1*
X716402Y1937101D2*
X723989D1*
X739537D2*
X750926D1*
X761258D2*
X771861D1*
X786559D2*
X797032D1*
X806665D2*
X816517D1*
X854010D2*
X863003D1*
X880921D2*
X889912D1*
X922826D2*
D3*
X949754D2*
X957613D1*
X965240D2*
X975317D1*
X990377D2*
X1002254D1*
X1012715D2*
X1023173D1*
X1037903D2*
X1048490D1*
X1060458D2*
X1069451D1*
X1093593D2*
X1105494D1*
X1134422D2*
X1144234D1*
X716630Y1934109D2*
X725354D1*
X737322D2*
X749670D1*
X761258D2*
X773226D1*
X785194D2*
X796511D1*
X807606D2*
X818106D1*
X833066D2*
X839050D1*
X854010D2*
X862992D1*
X880932D2*
X889913D1*
X919834D2*
X928810D1*
X946762D2*
X957214D1*
X966182D2*
X976682D1*
X988650D2*
X1000998D1*
X1013212D2*
X1024554D1*
X1036522D2*
X1048490D1*
X1060458D2*
X1069440D1*
X1095033D2*
X1108330D1*
X1120298D2*
X1126282D1*
X1135533D2*
X1147226D1*
X1162186D2*
X1168170D1*
X717173Y1931117D2*
X747944D1*
X761258D2*
X795508D1*
X809305D2*
X840499D1*
X854010D2*
X862988D1*
X880936D2*
X889914D1*
X916842D2*
X955667D1*
X967881D2*
X999272D1*
X1014416D2*
X1048490D1*
X1060458D2*
X1069436D1*
X1097118D2*
X1127731D1*
X1137064D2*
X1167620D1*
X719504Y1928125D2*
X745739D1*
X761258D2*
X792275D1*
X811917D2*
X838539D1*
X854010D2*
X862987D1*
X880937D2*
X889914D1*
X922534D2*
X951476D1*
X970493D2*
X997067D1*
X1016330D2*
X1048490D1*
X1060458D2*
X1069435D1*
X1099645D2*
X1125771D1*
X1140434D2*
X1166570D1*
X722362Y1925133D2*
X743306D1*
X761258D2*
X787667D1*
X815114D2*
X836058D1*
X854010D2*
X862986D1*
X880938D2*
X889914D1*
X929693D2*
X945239D1*
X973690D2*
X994634D1*
X1018570D2*
X1048490D1*
X1060458D2*
X1069434D1*
X1102346D2*
X1123290D1*
X1144234D2*
X1165178D1*
X761258Y1922141D2*
X770234D1*
X782202D2*
D3*
X937786D2*
D3*
X761258Y1919149D2*
X770234D1*
X761258Y1916157D2*
X770234D1*
X916842D2*
X925818D1*
X761258Y1913165D2*
X770234D1*
X916842D2*
X925818D1*
X761258Y1910173D2*
X770234D1*
X916842D2*
X925818D1*
X761258Y1907181D2*
X770234D1*
X916842D2*
X925818D1*
X761258Y1904189D2*
X770234D1*
X916842D2*
X925818D1*
X761258Y1901197D2*
X770234D1*
X779210D2*
X785194D1*
X818106D2*
X827082D1*
X874954D2*
X877946D1*
X898890D2*
X904874D1*
X916842D2*
X925818D1*
X1012586D2*
X1021562D1*
X1066442D2*
X1072426D1*
X1099354D2*
X1105338D1*
X761258Y1898205D2*
X789442D1*
X814443D2*
X833629D1*
X854010D2*
X886922D1*
X894309D2*
X925818D1*
X931802D2*
X940778D1*
X958730D2*
X967706D1*
X988650D2*
X997626D1*
X1008370D2*
X1027549D1*
X1048490D2*
X1075149D1*
X1093611D2*
X1109699D1*
X761258Y1895213D2*
X792792D1*
X811669D2*
X838721D1*
X854010D2*
X883930D1*
X889914D2*
X925818D1*
X932264D2*
X941813D1*
X958268D2*
X969201D1*
X987155D2*
X996489D1*
X1004989D2*
X1032326D1*
X1048490D2*
X1076400D1*
X1089018D2*
X1113434D1*
X761258Y1892221D2*
X795382D1*
X811357D2*
X840758D1*
X854010D2*
X925818D1*
X933018D2*
X942808D1*
X957514D2*
X970444D1*
X985912D2*
X995215D1*
X1005633D2*
X1034710D1*
X1048490D2*
X1074503D1*
X1085654D2*
X1116363D1*
X761258Y1889229D2*
X773814D1*
X784606D2*
X796301D1*
X812122D2*
X815114D1*
X833066D2*
X841452D1*
X854010D2*
X866566D1*
X877946D2*
X880938D1*
X886922D2*
X898428D1*
X910732D2*
X925818D1*
X933898D2*
X943757D1*
X956634D2*
X971596D1*
X984760D2*
X993919D1*
X1006602D2*
X1009594D1*
X1027546D2*
X1035655D1*
X1048490D2*
X1061046D1*
X1072426D2*
D3*
X1083116D2*
X1093370D1*
X1108330D2*
X1118661D1*
X761258Y1886237D2*
X772064D1*
X786356D2*
X796797D1*
X833066D2*
X841804D1*
X854010D2*
X864816D1*
X886922D2*
X897686D1*
X913224D2*
X925818D1*
X934815D2*
X944767D1*
X955727D2*
X972564D1*
X983792D2*
X992754D1*
X1027546D2*
X1036157D1*
X1048490D2*
X1059296D1*
X1082231D2*
X1090378D1*
X1111322D2*
X1119503D1*
X761258Y1883245D2*
X771062D1*
X787358D2*
X797019D1*
X822271D2*
X841953D1*
X854010D2*
X863814D1*
X886922D2*
X896923D1*
X914989D2*
X925818D1*
X935915D2*
X945674D1*
X954706D2*
X973212D1*
X983144D2*
X991718D1*
X1016751D2*
X1036381D1*
X1048490D2*
X1058294D1*
X1081754D2*
X1119959D1*
X761258Y1880253D2*
X770576D1*
X787844D2*
X797110D1*
X814592D2*
X842010D1*
X854010D2*
X863328D1*
X886922D2*
X896516D1*
X916169D2*
X925818D1*
X937190D2*
X946297D1*
X953683D2*
X961260D1*
X967820D2*
X973690D1*
X982666D2*
X990659D1*
X1009072D2*
X1036470D1*
X1048490D2*
X1057808D1*
X1081540D2*
X1120166D1*
X761258Y1877261D2*
X770366D1*
X788054D2*
X797144D1*
X809202D2*
X842031D1*
X854010D2*
X863118D1*
X886922D2*
X896458D1*
X916202D2*
X925818D1*
X938493D2*
X946762D1*
X952746D2*
X960506D1*
X968203D2*
X989639D1*
X1003682D2*
X1036504D1*
X1048490D2*
X1057598D1*
X1081464D2*
X1120252D1*
X761258Y1874269D2*
X770282D1*
X788138D2*
X797156D1*
X807302D2*
X818656D1*
X833066D2*
X842038D1*
X854010D2*
X863034D1*
X886934D2*
X897743D1*
X914962D2*
X925818D1*
X939663D2*
X959626D1*
X968932D2*
X988675D1*
X1001782D2*
X1013136D1*
X1027546D2*
X1036516D1*
X1048490D2*
X1057514D1*
X1081548D2*
X1090378D1*
X761258Y1871277D2*
X770251D1*
X788169D2*
X797160D1*
X806793D2*
X816714D1*
X833066D2*
X842041D1*
X854010D2*
X863003D1*
X887048D2*
X899654D1*
X913073D2*
X925818D1*
X940702D2*
X958719D1*
X969814D2*
X987658D1*
X1001273D2*
X1011194D1*
X1027546D2*
X1036520D1*
X1048490D2*
X1057483D1*
X1082034D2*
X1093183D1*
X761258Y1868285D2*
X770240D1*
X788180D2*
X797161D1*
X806674D2*
X815114D1*
X833066D2*
X842042D1*
X854010D2*
X862992D1*
X887510D2*
X901882D1*
X910858D2*
X925818D1*
X941777D2*
X957698D1*
X970800D2*
X986748D1*
X1001154D2*
X1009594D1*
X1027546D2*
X1036521D1*
X1048490D2*
X1057472D1*
X1083234D2*
X1096362D1*
X1108330D2*
X1114314D1*
X761258Y1865293D2*
X770236D1*
X788184D2*
X797162D1*
X807758D2*
X842042D1*
X854010D2*
X862988D1*
X888533D2*
X925818D1*
X942822D2*
X956675D1*
X972116D2*
X986124D1*
X1002238D2*
X1036522D1*
X1048490D2*
X1057468D1*
X1085146D2*
X1120298D1*
X761258Y1862301D2*
X770234D1*
X788186D2*
X797162D1*
X809130D2*
X842042D1*
X854010D2*
X862986D1*
X889914D2*
X925818D1*
X943770D2*
X955738D1*
X973690D2*
X985658D1*
X1003610D2*
X1036522D1*
X1048490D2*
X1057466D1*
X1087386D2*
X1117306D1*
X916842Y2272205D2*
X916380Y2269213D1*
X915638Y2266221D1*
X914863Y2263229D1*
X914327Y2260237D1*
X913944Y2257245D1*
X913436Y2254253D1*
X912667Y2251261D1*
X911868Y2248269D1*
X911210Y2245277D1*
X910315Y2242285D1*
X908942Y2239293D1*
X905216Y2236301D1*
X900123Y2233309D1*
X893605Y2230317D1*
X886004Y2227325D1*
X877946Y2224333D1*
X967706Y2272205D2*
X968168Y2269213D1*
X968910Y2266221D1*
X969685Y2263229D1*
X970221Y2260237D1*
X970604Y2257245D1*
X971112Y2254253D1*
X971881Y2251261D1*
X972680Y2248269D1*
X973338Y2245277D1*
X974233Y2242285D1*
X975606Y2239293D1*
X979332Y2236301D1*
X984425Y2233309D1*
X990943Y2230317D1*
X998544Y2227325D1*
X1006602Y2224333D1*
X830074Y2245277D2*
X827082Y2242285D1*
X824078Y2239293D1*
X820981Y2236301D1*
X817608Y2233309D1*
X813899Y2230317D1*
X810152Y2227325D1*
X806755Y2224333D1*
X803995Y2221341D1*
X801814Y2218349D1*
X801208Y2215357D1*
X802229Y2212365D1*
X803970Y2209373D1*
X806026Y2206381D1*
X808063Y2203389D1*
X810194Y2200397D1*
X812617Y2197405D1*
X815214Y2194413D1*
X817682Y2191421D1*
X819787Y2188429D1*
X821481Y2185437D1*
X822624Y2182445D1*
X823252Y2179453D1*
X822572Y2176461D1*
X821516Y2173469D1*
X820222Y2170477D1*
X818805Y2167485D1*
X817342Y2164493D1*
X815808Y2161501D1*
X813828Y2158509D1*
X811134Y2155517D1*
X803251Y2152525D1*
X792088Y2149533D1*
X778592Y2146541D1*
X764250Y2143549D1*
Y2140557D1*
Y2137565D1*
Y2134573D1*
Y2131581D1*
Y2128589D1*
Y2125597D1*
Y2122605D1*
Y2119613D1*
Y2116621D1*
Y2113629D1*
X764262Y2110637D1*
X764437Y2107645D1*
X764893Y2104653D1*
X767902Y2101661D1*
X776893Y2098669D1*
X788070Y2095677D1*
X798452Y2092685D1*
X805840Y2089693D1*
X811134Y2086701D1*
X813560Y2083709D1*
X815435Y2080717D1*
X816847Y2077725D1*
X817989Y2074733D1*
X819177Y2071741D1*
X820473Y2068749D1*
X821659Y2065757D1*
X822590Y2062765D1*
X822078Y2059773D1*
X820238Y2056781D1*
X818190Y2053789D1*
X816167Y2050797D1*
X814045Y2047805D1*
X811625Y2044813D1*
X809029Y2041821D1*
X806562Y2038829D1*
X804457Y2035837D1*
X802775Y2032845D1*
X801410Y2029853D1*
X801401Y2026861D1*
X803345Y2023869D1*
X806029Y2020877D1*
X809014Y2017885D1*
X812055Y2014893D1*
X815094Y2011901D1*
X818210Y2008909D1*
X821593Y2005917D1*
X825330Y2002925D1*
X829214Y1999933D1*
X833066Y1996941D1*
X836058Y2245277D2*
X841008Y2242285D1*
X845996Y2239293D1*
X851031Y2236301D1*
X856005Y2233309D1*
X861082Y2230317D1*
X866443Y2227325D1*
X871962Y2224333D1*
X1048490Y2245277D2*
X1043541Y2242285D1*
X1038552Y2239293D1*
X1033517Y2236301D1*
X1028543Y2233309D1*
X1023466Y2230317D1*
X1018105Y2227325D1*
X1012586Y2224333D1*
X1054474Y2245277D2*
X1057466Y2242285D1*
X1060470Y2239293D1*
X1063567Y2236301D1*
X1066940Y2233309D1*
X1070649Y2230317D1*
X1074396Y2227325D1*
X1077793Y2224333D1*
X1080553Y2221341D1*
X1082734Y2218349D1*
X1083340Y2215357D1*
X1082319Y2212365D1*
X1080579Y2209373D1*
X1078522Y2206381D1*
X1076485Y2203389D1*
X1074354Y2200397D1*
X1071931Y2197405D1*
X1069334Y2194413D1*
X1066866Y2191421D1*
X1064761Y2188429D1*
X1063067Y2185437D1*
X1061924Y2182445D1*
X1061296Y2179453D1*
X1061976Y2176461D1*
X1063032Y2173469D1*
X1064326Y2170477D1*
X1065743Y2167485D1*
X1067206Y2164493D1*
X1068740Y2161501D1*
X1070720Y2158509D1*
X1073414Y2155517D1*
X1081297Y2152525D1*
X1092460Y2149533D1*
X1105956Y2146541D1*
X1120298Y2143549D1*
Y2140557D1*
Y2137565D1*
Y2134573D1*
Y2131581D1*
Y2128589D1*
Y2125597D1*
Y2122605D1*
Y2119613D1*
Y2116621D1*
Y2113629D1*
X1120286Y2110637D1*
X1120111Y2107645D1*
X1119655Y2104653D1*
X1116646Y2101661D1*
X1107655Y2098669D1*
X1096479Y2095677D1*
X1086097Y2092685D1*
X1078709Y2089693D1*
X1073414Y2086701D1*
X1070988Y2083709D1*
X1069113Y2080717D1*
X1067702Y2077725D1*
X1066559Y2074733D1*
X1065371Y2071741D1*
X1064075Y2068749D1*
X1062889Y2065757D1*
X1061958Y2062765D1*
X1062470Y2059773D1*
X1064310Y2056781D1*
X1066358Y2053789D1*
X1068381Y2050797D1*
X1070504Y2047805D1*
X1072924Y2044813D1*
X1075519Y2041821D1*
X1077986Y2038829D1*
X1080091Y2035837D1*
X1081773Y2032845D1*
X1083138Y2029853D1*
X1083147Y2026861D1*
X1081203Y2023869D1*
X1078519Y2020877D1*
X1075534Y2017885D1*
X1072493Y2014893D1*
X1069454Y2011901D1*
X1066338Y2008909D1*
X1062955Y2005917D1*
X1059218Y2002925D1*
X1055334Y1999933D1*
X1051482Y1996941D1*
X934794Y2164493D2*
X926880Y2161501D1*
X920005Y2158509D1*
X914292Y2155517D1*
X909572Y2152525D1*
X905743Y2149533D1*
X902699Y2146541D1*
X900340Y2143549D1*
X898433Y2140557D1*
X896768Y2137565D1*
X895309Y2134573D1*
X894177Y2131581D1*
X893496Y2128589D1*
X893154Y2125597D1*
X893003Y2122605D1*
X892954Y2119613D1*
X893036Y2116621D1*
X893420Y2113629D1*
X894251Y2110637D1*
X895503Y2107645D1*
X897135Y2104653D1*
X899024Y2101661D1*
X901043Y2098669D1*
X903503Y2095677D1*
X906731Y2092685D1*
X910558Y2089693D1*
X914525Y2086701D1*
X917902Y2083709D1*
X920460Y2080717D1*
X920834Y2077725D1*
X920000Y2074733D1*
X918849Y2071741D1*
X917499Y2068749D1*
X916063Y2065757D1*
X914586Y2062765D1*
X913100Y2059773D1*
X911615Y2056781D1*
X910216Y2053789D1*
X909006Y2050797D1*
X907941Y2047805D1*
X906781Y2044813D1*
X905471Y2041821D1*
X904066Y2038829D1*
X902606Y2035837D1*
X901127Y2032845D1*
X899634Y2029853D1*
X898142Y2026861D1*
X896645Y2023869D1*
X895142Y2020877D1*
X893566Y2017885D1*
X891820Y2014893D1*
X889914Y2011901D1*
X949754Y2164493D2*
X957668Y2161501D1*
X964543Y2158509D1*
X970256Y2155517D1*
X974976Y2152525D1*
X978805Y2149533D1*
X981849Y2146541D1*
X984209Y2143549D1*
X986115Y2140557D1*
X987780Y2137565D1*
X989239Y2134573D1*
X990371Y2131581D1*
X991052Y2128589D1*
X991394Y2125597D1*
X991545Y2122605D1*
X991594Y2119613D1*
X991512Y2116621D1*
X991128Y2113629D1*
X990297Y2110637D1*
X989045Y2107645D1*
X987414Y2104653D1*
X985524Y2101661D1*
X983505Y2098669D1*
X981045Y2095677D1*
X977817Y2092685D1*
X973990Y2089693D1*
X970023Y2086701D1*
X966646Y2083709D1*
X964088Y2080717D1*
X963714Y2077725D1*
X964548Y2074733D1*
X965699Y2071741D1*
X967049Y2068749D1*
X968485Y2065757D1*
X969962Y2062765D1*
X971449Y2059773D1*
X972933Y2056781D1*
X974332Y2053789D1*
X975542Y2050797D1*
X976607Y2047805D1*
X977767Y2044813D1*
X979077Y2041821D1*
X980482Y2038829D1*
X981942Y2035837D1*
X983421Y2032845D1*
X984914Y2029853D1*
X986406Y2026861D1*
X987904Y2023869D1*
X989406Y2020877D1*
X990982Y2017885D1*
X992728Y2014893D1*
X994634Y2011901D1*
X871962Y2017885D2*
X866092Y2014893D1*
X860491Y2011901D1*
X855225Y2008909D1*
X850008Y2005917D1*
X844548Y2002925D1*
X838857Y1999933D1*
X833066Y1996941D1*
X868970Y2017885D2*
X877946Y2014893D1*
X886922Y2011901D1*
X1015578Y2017885D2*
X1006602Y2014893D1*
X997626Y2011901D1*
X1012586Y2017885D2*
X1018456Y2014893D1*
X1024057Y2011901D1*
X1029323Y2008909D1*
X1034540Y2005917D1*
X1040000Y2002925D1*
X1045691Y1999933D1*
X1051482Y1996941D1*
X719370Y1964029D2*
X717989Y1961037D1*
X717130Y1958045D1*
X716695Y1955053D1*
X716502Y1952061D1*
X716424Y1949069D1*
X716394Y1946077D1*
X716384Y1943085D1*
X716380Y1940093D1*
X716402Y1937101D1*
X716630Y1934109D1*
X717173Y1931117D1*
X719504Y1928125D1*
X722362Y1925133D1*
X743306Y1964029D2*
X745824Y1961037D1*
X747957Y1958045D1*
X749676Y1955053D1*
X750930Y1952061D1*
X751662Y1949069D1*
X752011Y1946077D1*
X752064Y1943085D1*
X751735Y1940093D1*
X750926Y1937101D1*
X749670Y1934109D1*
X747944Y1931117D1*
X745739Y1928125D1*
X743306Y1925133D1*
X761258Y1964029D2*
Y1961037D1*
Y1958045D1*
Y1955053D1*
Y1952061D1*
Y1949069D1*
Y1946077D1*
Y1943085D1*
Y1940093D1*
Y1937101D1*
Y1934109D1*
Y1931117D1*
Y1928125D1*
Y1925133D1*
Y1922141D1*
Y1919149D1*
Y1916157D1*
Y1913165D1*
Y1910173D1*
Y1907181D1*
Y1904189D1*
Y1901197D1*
Y1898205D1*
Y1895213D1*
Y1892221D1*
Y1889229D1*
Y1886237D1*
Y1883245D1*
Y1880253D1*
Y1877261D1*
Y1874269D1*
Y1871277D1*
Y1868285D1*
Y1865293D1*
Y1862301D1*
X791178Y1964029D2*
X793582Y1961037D1*
X795332Y1958045D1*
X796334Y1955053D1*
X796820Y1952061D1*
X797030Y1949069D1*
X797114Y1946077D1*
X797145Y1943085D1*
Y1940093D1*
X797032Y1937101D1*
X796511Y1934109D1*
X795508Y1931117D1*
X792275Y1928125D1*
X787667Y1925133D1*
X782202Y1922141D1*
X815114Y1964029D2*
X811889Y1961037D1*
X809429Y1958045D1*
X807785Y1955053D1*
X806875Y1952061D1*
X806441Y1949069D1*
X806254Y1946077D1*
X806192Y1943085D1*
X806270Y1940093D1*
X806665Y1937101D1*
X807606Y1934109D1*
X809305Y1931117D1*
X811917Y1928125D1*
X815114Y1925133D1*
X836058Y1964029D2*
X838576Y1961037D1*
X840709Y1958045D1*
X842428Y1955053D1*
X843682Y1952061D1*
X844414Y1949069D1*
X844776Y1946077D1*
X844940Y1943085D1*
X845034Y1940093D1*
X815114D1*
X816517Y1937101D1*
X818106Y1934109D1*
X854010Y1964029D2*
Y1961037D1*
Y1958045D1*
Y1955053D1*
Y1952061D1*
Y1949069D1*
Y1946077D1*
Y1943085D1*
Y1940093D1*
Y1937101D1*
Y1934109D1*
Y1931117D1*
Y1928125D1*
Y1925133D1*
X883930Y1964029D2*
X886334Y1961037D1*
X888084Y1958045D1*
X889086Y1955053D1*
X889572Y1952061D1*
X889782Y1949069D1*
X889866Y1946077D1*
X889897Y1943085D1*
X889908Y1940093D1*
X889912Y1937101D1*
X889913Y1934109D1*
X889914Y1931117D1*
Y1928125D1*
Y1925133D1*
X925818Y1964029D2*
X923414Y1961037D1*
X921676Y1958045D1*
X920507Y1955053D1*
X920474Y1952061D1*
X921568Y1949069D1*
X924391Y1946077D1*
X930809Y1943085D1*
X939597Y1940093D1*
X949754Y1937101D1*
X946762Y1934109D1*
X952746Y1964029D2*
X953924Y1961037D1*
X953547Y1958045D1*
X952746Y1955053D1*
X970698Y1964029D2*
X968855Y1961037D1*
X967253Y1958045D1*
X966044Y1955053D1*
X965327Y1952061D1*
X964971Y1949069D1*
X964814Y1946077D1*
X964763Y1943085D1*
X964844Y1940093D1*
X965240Y1937101D1*
X966182Y1934109D1*
X967881Y1931117D1*
X970493Y1928125D1*
X973690Y1925133D1*
X994634Y1964029D2*
X997152Y1961037D1*
X999285Y1958045D1*
X1001004Y1955053D1*
X1002258Y1952061D1*
X1002990Y1949069D1*
X1003339Y1946077D1*
X1003392Y1943085D1*
X1003063Y1940093D1*
X1002254Y1937101D1*
X1000998Y1934109D1*
X999272Y1931117D1*
X997067Y1928125D1*
X994634Y1925133D1*
X1012586Y1964029D2*
Y1961037D1*
Y1958045D1*
Y1955053D1*
Y1952061D1*
Y1949069D1*
Y1946077D1*
Y1943085D1*
X1012598Y1940093D1*
X1012715Y1937101D1*
X1013212Y1934109D1*
X1014416Y1931117D1*
X1016330Y1928125D1*
X1018570Y1925133D1*
X1021562Y1964029D2*
Y1961037D1*
Y1958045D1*
Y1955053D1*
Y1952061D1*
Y1949069D1*
X1021574Y1946077D1*
X1021688Y1943085D1*
X1022150Y1940093D1*
X1023173Y1937101D1*
X1024554Y1934109D1*
X1039514Y1964029D2*
Y1961037D1*
Y1958045D1*
Y1955053D1*
Y1952061D1*
Y1949069D1*
X1039502Y1946077D1*
X1039388Y1943085D1*
X1038926Y1940093D1*
X1037903Y1937101D1*
X1036522Y1934109D1*
X1048490Y1964029D2*
Y1961037D1*
Y1958045D1*
Y1955053D1*
Y1952061D1*
Y1949069D1*
Y1946077D1*
Y1943085D1*
Y1940093D1*
Y1937101D1*
Y1934109D1*
Y1931117D1*
Y1928125D1*
Y1925133D1*
X1060458Y1964029D2*
Y1961037D1*
Y1958045D1*
Y1955053D1*
Y1952061D1*
Y1949069D1*
Y1946077D1*
Y1943085D1*
Y1940093D1*
Y1937101D1*
Y1934109D1*
Y1931117D1*
Y1928125D1*
Y1925133D1*
X1090378Y1964029D2*
X1089328Y1961037D1*
X1088311Y1958045D1*
X1087386Y1955053D1*
X1102346Y1964029D2*
X1099121Y1961037D1*
X1096649Y1958045D1*
X1094900Y1955053D1*
X1093620Y1952061D1*
X1092575Y1949069D1*
X1091744Y1946077D1*
X1092071Y1943085D1*
X1092698Y1940093D1*
X1093593Y1937101D1*
X1095033Y1934109D1*
X1097118Y1931117D1*
X1099645Y1928125D1*
X1102346Y1925133D1*
X1123290Y1964029D2*
X1126031Y1961037D1*
X1126745Y1958045D1*
X1126282Y1955053D1*
X1141242Y1964029D2*
X1138826Y1961037D1*
X1136971Y1958045D1*
X1135588Y1955053D1*
X1134385Y1952061D1*
X1133420Y1949069D1*
X1132920Y1946077D1*
X1132992Y1943085D1*
X1133582Y1940093D1*
X1134422Y1937101D1*
X1135533Y1934109D1*
X1137064Y1931117D1*
X1140434Y1928125D1*
X1144234Y1925133D1*
X1165178Y1964029D2*
X1166559Y1961037D1*
X1167418Y1958045D1*
X1167853Y1955053D1*
X1168046Y1952061D1*
X1168124Y1949069D1*
X1168155Y1946077D1*
X1168170Y1943085D1*
X1141242Y1940093D1*
X1144234Y1937101D1*
X1147226Y1934109D1*
X728346Y1958045D2*
X725942Y1955053D1*
X724192Y1952061D1*
X723190Y1949069D1*
X722716Y1946077D1*
X722620Y1943085D1*
X722998Y1940093D1*
X723989Y1937101D1*
X725354Y1934109D1*
X734330Y1958045D2*
X737196Y1955053D1*
X739688Y1952061D1*
X741453Y1949069D1*
X742633Y1946077D1*
X742666Y1943085D1*
X741426Y1940093D1*
X739537Y1937101D1*
X737322Y1934109D1*
X776218Y1958045D2*
X773814Y1955053D1*
X772064Y1952061D1*
X771062Y1949069D1*
X770588Y1946077D1*
X770492Y1943085D1*
X770870Y1940093D1*
X771861Y1937101D1*
X773226Y1934109D1*
X782202Y1958045D2*
X784606Y1955053D1*
X786356Y1952061D1*
X787358Y1949069D1*
X787832Y1946077D1*
X787928Y1943085D1*
X787550Y1940093D1*
X786559Y1937101D1*
X785194Y1934109D1*
X821098Y1958045D2*
X818106Y1955053D1*
X815114Y1952061D1*
X827082Y1958045D2*
X830074Y1955053D1*
X833066Y1952061D1*
X868970Y1958045D2*
X866566Y1955053D1*
X864816Y1952061D1*
X863814Y1949069D1*
X863328Y1946077D1*
X863118Y1943085D1*
X863034Y1940093D1*
X863003Y1937101D1*
X862992Y1934109D1*
X862988Y1931117D1*
X862987Y1928125D1*
X862986Y1925133D1*
X874954Y1958045D2*
X877358Y1955053D1*
X879108Y1952061D1*
X880110Y1949069D1*
X880596Y1946077D1*
X880806Y1943085D1*
X880890Y1940093D1*
X880921Y1937101D1*
X880932Y1934109D1*
X880936Y1931117D1*
X880937Y1928125D1*
X880938Y1925133D1*
X931802Y1958045D2*
Y1955053D1*
Y1952061D1*
X941688Y1949069D1*
X948860Y1946077D1*
X954232Y1943085D1*
X956740Y1940093D1*
X957613Y1937101D1*
X957214Y1934109D1*
X955667Y1931117D1*
X951476Y1928125D1*
X945239Y1925133D1*
X937786Y1922141D1*
X943770Y1958045D2*
X946762Y1955053D1*
X979674Y1958045D2*
X977270Y1955053D1*
X975520Y1952061D1*
X974518Y1949069D1*
X974044Y1946077D1*
X973948Y1943085D1*
X974326Y1940093D1*
X975317Y1937101D1*
X976682Y1934109D1*
X985658Y1958045D2*
X988176Y1955053D1*
X990298Y1952061D1*
X991912Y1949069D1*
X993108Y1946077D1*
X992757Y1943085D1*
X991819Y1940093D1*
X990377Y1937101D1*
X988650Y1934109D1*
X1075418Y1958045D2*
X1073014Y1955053D1*
X1071264Y1952061D1*
X1070262Y1949069D1*
X1069776Y1946077D1*
X1069566Y1943085D1*
X1069482Y1940093D1*
X1069451Y1937101D1*
X1069440Y1934109D1*
X1069436Y1931117D1*
X1069435Y1928125D1*
X1069434Y1925133D1*
X1081402Y1958045D2*
X1084394Y1955053D1*
X1114314Y1958045D2*
X1109506Y1955053D1*
X1105461Y1952061D1*
X1103866Y1949069D1*
X1103020Y1946077D1*
X1102599Y1943085D1*
X1103194Y1940093D1*
X1105494Y1937101D1*
X1108330Y1934109D1*
X1117306Y1958045D2*
X1120298Y1955053D1*
X1150218Y1958045D2*
X1147226Y1955053D1*
X1144234Y1952061D1*
X1156202Y1958045D2*
X1159194Y1955053D1*
X1162186Y1952061D1*
X922826Y1937101D2*
X919834Y1934109D1*
X916842Y1931117D1*
X922534Y1928125D1*
X929693Y1925133D1*
X937786Y1922141D1*
X833066Y1934109D2*
X839050D2*
X840499Y1931117D1*
X838539Y1928125D1*
X836058Y1925133D1*
X928810Y1934109D2*
X1120298D2*
X1126282D2*
X1127731Y1931117D1*
X1125771Y1928125D1*
X1123290Y1925133D1*
X1162186Y1934109D2*
X1168170D2*
X1167620Y1931117D1*
X1166570Y1928125D1*
X1165178Y1925133D1*
X770234D2*
Y1922141D1*
Y1919149D1*
Y1916157D1*
Y1913165D1*
Y1910173D1*
Y1907181D1*
Y1904189D1*
Y1901197D1*
X916842Y1916157D2*
Y1913165D1*
Y1910173D1*
Y1907181D1*
Y1904189D1*
Y1901197D1*
X925818Y1916157D2*
Y1913165D1*
Y1910173D1*
Y1907181D1*
Y1904189D1*
Y1901197D1*
Y1898205D1*
Y1895213D1*
Y1892221D1*
Y1889229D1*
Y1886237D1*
Y1883245D1*
Y1880253D1*
Y1877261D1*
Y1874269D1*
Y1871277D1*
Y1868285D1*
Y1865293D1*
Y1862301D1*
X779210Y1901197D2*
X785194D2*
X789442Y1898205D1*
X792792Y1895213D1*
X795382Y1892221D1*
X796301Y1889229D1*
X796797Y1886237D1*
X797019Y1883245D1*
X797110Y1880253D1*
X797144Y1877261D1*
X797156Y1874269D1*
X797160Y1871277D1*
X797161Y1868285D1*
X797162Y1865293D1*
Y1862301D1*
X818106Y1901197D2*
X814443Y1898205D1*
X811669Y1895213D1*
X811357Y1892221D1*
X812122Y1889229D1*
X827082Y1901197D2*
X833629Y1898205D1*
X838721Y1895213D1*
X840758Y1892221D1*
X841452Y1889229D1*
X841804Y1886237D1*
X841953Y1883245D1*
X842010Y1880253D1*
X842031Y1877261D1*
X842038Y1874269D1*
X842041Y1871277D1*
X842042Y1868285D1*
Y1865293D1*
Y1862301D1*
X874954Y1901197D2*
X854010Y1898205D1*
Y1895213D1*
Y1892221D1*
Y1889229D1*
Y1886237D1*
Y1883245D1*
Y1880253D1*
Y1877261D1*
Y1874269D1*
Y1871277D1*
Y1868285D1*
Y1865293D1*
Y1862301D1*
X877946Y1901197D2*
X886922Y1898205D1*
X883930Y1895213D1*
X898890Y1901197D2*
X894309Y1898205D1*
X889914Y1895213D1*
X904874Y1901197D2*
X1012586D2*
X1008370Y1898205D1*
X1004989Y1895213D1*
X1005633Y1892221D1*
X1006602Y1889229D1*
X1021562Y1901197D2*
X1027549Y1898205D1*
X1032326Y1895213D1*
X1034710Y1892221D1*
X1035655Y1889229D1*
X1036157Y1886237D1*
X1036381Y1883245D1*
X1036470Y1880253D1*
X1036504Y1877261D1*
X1036516Y1874269D1*
X1036520Y1871277D1*
X1036521Y1868285D1*
X1036522Y1865293D1*
Y1862301D1*
X1066442Y1901197D2*
X1048490Y1898205D1*
Y1895213D1*
Y1892221D1*
Y1889229D1*
Y1886237D1*
Y1883245D1*
Y1880253D1*
Y1877261D1*
Y1874269D1*
Y1871277D1*
Y1868285D1*
Y1865293D1*
Y1862301D1*
X1072426Y1901197D2*
X1075149Y1898205D1*
X1076400Y1895213D1*
X1074503Y1892221D1*
X1072426Y1889229D1*
X1099354Y1901197D2*
X1093611Y1898205D1*
X1089018Y1895213D1*
X1085654Y1892221D1*
X1083116Y1889229D1*
X1082231Y1886237D1*
X1081754Y1883245D1*
X1081540Y1880253D1*
X1081464Y1877261D1*
X1081548Y1874269D1*
X1082034Y1871277D1*
X1083234Y1868285D1*
X1085146Y1865293D1*
X1087386Y1862301D1*
X1105338Y1901197D2*
X1109699Y1898205D1*
X1113434Y1895213D1*
X1116363Y1892221D1*
X1118661Y1889229D1*
X1119503Y1886237D1*
X1119959Y1883245D1*
X1120166Y1880253D1*
X1120252Y1877261D1*
X1120298Y1874269D1*
X1090378D1*
X1093183Y1871277D1*
X1096362Y1868285D1*
X931802Y1898205D2*
X932264Y1895213D1*
X933018Y1892221D1*
X933898Y1889229D1*
X934815Y1886237D1*
X935915Y1883245D1*
X937190Y1880253D1*
X938493Y1877261D1*
X939663Y1874269D1*
X940702Y1871277D1*
X941777Y1868285D1*
X942822Y1865293D1*
X943770Y1862301D1*
X940778Y1898205D2*
X941813Y1895213D1*
X942808Y1892221D1*
X943757Y1889229D1*
X944767Y1886237D1*
X945674Y1883245D1*
X946297Y1880253D1*
X946762Y1877261D1*
X958730Y1898205D2*
X958268Y1895213D1*
X957514Y1892221D1*
X956634Y1889229D1*
X955727Y1886237D1*
X954706Y1883245D1*
X953683Y1880253D1*
X952746Y1877261D1*
X967706Y1898205D2*
X969201Y1895213D1*
X970444Y1892221D1*
X971596Y1889229D1*
X972564Y1886237D1*
X973212Y1883245D1*
X973690Y1880253D1*
X988650Y1898205D2*
X987155Y1895213D1*
X985912Y1892221D1*
X984760Y1889229D1*
X983792Y1886237D1*
X983144Y1883245D1*
X982666Y1880253D1*
X997626Y1898205D2*
X996489Y1895213D1*
X995215Y1892221D1*
X993919Y1889229D1*
X992754Y1886237D1*
X991718Y1883245D1*
X990659Y1880253D1*
X989639Y1877261D1*
X988675Y1874269D1*
X987658Y1871277D1*
X986748Y1868285D1*
X986124Y1865293D1*
X985658Y1862301D1*
X776218Y1892221D2*
X773814Y1889229D1*
X772064Y1886237D1*
X771062Y1883245D1*
X770576Y1880253D1*
X770366Y1877261D1*
X770282Y1874269D1*
X770251Y1871277D1*
X770240Y1868285D1*
X770236Y1865293D1*
X770234Y1862301D1*
X782202Y1892221D2*
X784606Y1889229D1*
X786356Y1886237D1*
X787358Y1883245D1*
X787844Y1880253D1*
X788054Y1877261D1*
X788138Y1874269D1*
X788169Y1871277D1*
X788180Y1868285D1*
X788184Y1865293D1*
X788186Y1862301D1*
X818106Y1892221D2*
X815114Y1889229D1*
X833066Y1892221D2*
Y1889229D1*
Y1886237D1*
X822271Y1883245D1*
X814592Y1880253D1*
X809202Y1877261D1*
X807302Y1874269D1*
X806793Y1871277D1*
X806674Y1868285D1*
X807758Y1865293D1*
X809130Y1862301D1*
X868970Y1892221D2*
X866566Y1889229D1*
X864816Y1886237D1*
X863814Y1883245D1*
X863328Y1880253D1*
X863118Y1877261D1*
X863034Y1874269D1*
X863003Y1871277D1*
X862992Y1868285D1*
X862988Y1865293D1*
X862986Y1862301D1*
X874954Y1892221D2*
X877946Y1889229D1*
X883930Y1892221D2*
X880938Y1889229D1*
X886922Y1892221D2*
Y1889229D1*
Y1886237D1*
Y1883245D1*
Y1880253D1*
Y1877261D1*
X886934Y1874269D1*
X887048Y1871277D1*
X887510Y1868285D1*
X888533Y1865293D1*
X889914Y1862301D1*
X898890Y1892221D2*
X898428Y1889229D1*
X897686Y1886237D1*
X896923Y1883245D1*
X896516Y1880253D1*
X896458Y1877261D1*
X897743Y1874269D1*
X899654Y1871277D1*
X901882Y1868285D1*
X907866Y1892221D2*
X910732Y1889229D1*
X913224Y1886237D1*
X914989Y1883245D1*
X916169Y1880253D1*
X916202Y1877261D1*
X914962Y1874269D1*
X913073Y1871277D1*
X910858Y1868285D1*
X1012586Y1892221D2*
X1009594Y1889229D1*
X1027546Y1892221D2*
Y1889229D1*
Y1886237D1*
X1016751Y1883245D1*
X1009072Y1880253D1*
X1003682Y1877261D1*
X1001782Y1874269D1*
X1001273Y1871277D1*
X1001154Y1868285D1*
X1002238Y1865293D1*
X1003610Y1862301D1*
X1063450Y1892221D2*
X1061046Y1889229D1*
X1059296Y1886237D1*
X1058294Y1883245D1*
X1057808Y1880253D1*
X1057598Y1877261D1*
X1057514Y1874269D1*
X1057483Y1871277D1*
X1057472Y1868285D1*
X1057468Y1865293D1*
X1057466Y1862301D1*
X1096362Y1892221D2*
X1093370Y1889229D1*
X1090378Y1886237D1*
X1105338Y1892221D2*
X1108330Y1889229D1*
X1111322Y1886237D1*
X961722Y1883245D2*
X961260Y1880253D1*
X960506Y1877261D1*
X959626Y1874269D1*
X958719Y1871277D1*
X957698Y1868285D1*
X956675Y1865293D1*
X955738Y1862301D1*
X967706Y1883245D2*
X967820Y1880253D1*
X968203Y1877261D1*
X968932Y1874269D1*
X969814Y1871277D1*
X970800Y1868285D1*
X972116Y1865293D1*
X973690Y1862301D1*
X821098Y1877261D2*
X818656Y1874269D1*
X816714Y1871277D1*
X815114Y1868285D1*
X833066Y1877261D2*
Y1874269D1*
Y1871277D1*
Y1868285D1*
X1015578Y1877261D2*
X1013136Y1874269D1*
X1011194Y1871277D1*
X1009594Y1868285D1*
X1027546Y1877261D2*
Y1874269D1*
Y1871277D1*
Y1868285D1*
X1108330D2*
X1114314D2*
X1120298Y1865293D1*
X1117306Y1862301D1*
X2206432Y2453439D2*
D72*
X2201679Y2451063D1*
X2196870Y2446254D1*
X2194494Y2441501D1*
Y2431940D1*
X2196870Y2427131D1*
X2201679Y2422378D1*
X2206432Y2419946D1*
X2213617Y2417569D1*
X2225610D1*
X2232740Y2419946D1*
X2237549Y2422378D1*
X2242302Y2427131D1*
X2244734Y2431940D1*
Y2441501D1*
X2242302Y2446254D1*
X2237549Y2451063D1*
X2232740Y2453439D1*
X2204111Y2468879D2*
X2201679Y2473687D1*
X2194549Y2480872D1*
X2244734D1*
X2206432Y2207241D2*
X2201679Y2204864D1*
X2196870Y2200056D1*
X2194494Y2195302D1*
Y2185741D1*
X2196870Y2180932D1*
X2201679Y2176179D1*
X2206432Y2173747D1*
X2213617Y2171371D1*
X2225610D1*
X2232740Y2173747D1*
X2237549Y2176179D1*
X2242302Y2180932D1*
X2244734Y2185741D1*
Y2195302D1*
X2242302Y2200056D1*
X2237549Y2204864D1*
X2232740Y2207241D1*
X2206487Y2225112D2*
X2204111D1*
X2199302Y2227488D1*
X2196926Y2229865D1*
X2194549Y2234673D1*
Y2244235D1*
X2196926Y2248988D1*
X2199302Y2251365D1*
X2204111Y2253797D1*
X2208864D1*
X2213672Y2251365D1*
X2220802Y2246612D1*
X2244734Y2222680D1*
Y2256173D1*
X1428352Y2887669D2*
Y2856552D1*
X1478592D1*
X1452284D2*
Y2875676D1*
X1437969Y2903108D2*
X1435537Y2907917D1*
X1428407Y2915102D1*
X1478592D1*
X703789Y1729129D2*
Y1678889D1*
X737282Y1729129D2*
X703789Y1695635D1*
X715727Y1707629D2*
X737282Y1678889D1*
X752722Y1719512D2*
X757530Y1721944D1*
X764715Y1729074D1*
Y1678889D1*
X3177291Y1729129D2*
Y1678889D1*
X3210785Y1729129D2*
X3177291Y1695635D1*
X3189229Y1707629D2*
X3210785Y1678889D1*
X3228656Y1717135D2*
Y1719512D1*
X3231032Y1724320D1*
X3233409Y1726697D1*
X3238217Y1729074D1*
X3247779D1*
X3252532Y1726697D1*
X3254909Y1724320D1*
X3257341Y1719512D1*
Y1714759D1*
X3254909Y1709950D1*
X3250155Y1702821D1*
X3226224Y1678889D1*
X3259717D1*
X1433683Y979523D2*
Y929282D1*
X1462368D1*
X1508868Y979523D2*
X1477807D1*
Y929282D1*
X1508868D1*
X1477807Y955591D2*
X1496930D1*
X1524308Y979523D2*
Y929282D1*
X1541054D1*
X1548239Y931714D1*
X1553048Y936468D1*
X1555424Y941276D1*
X1557801Y948406D1*
Y960399D1*
X1555424Y967584D1*
X1553048Y972337D1*
X1548239Y977146D1*
X1541054Y979523D1*
X1524308D1*
X1573240Y969906D2*
X1578049Y972337D1*
X1585234Y979467D1*
Y929282D1*
X2354017Y977948D2*
Y927708D1*
X2382702D1*
X2429202Y977948D2*
X2398141D1*
Y927708D1*
X2429202D1*
X2398141Y954016D2*
X2417264D1*
X2444642Y977948D2*
Y927708D1*
X2461388D1*
X2468573Y930140D1*
X2473382Y934893D1*
X2475758Y939701D1*
X2478135Y946831D1*
Y958824D1*
X2475758Y966009D1*
X2473382Y970763D1*
X2468573Y975571D1*
X2461388Y977948D1*
X2444642D1*
X2496006Y965954D2*
Y968331D1*
X2498383Y973139D1*
X2500759Y975516D1*
X2505568Y977892D1*
X2515129D1*
X2519883Y975516D1*
X2522259Y973139D1*
X2524691Y968331D1*
Y963578D1*
X2522259Y958769D1*
X2517506Y951639D1*
X2493574Y927708D1*
X2527068D1*
X1664144Y2090152D2*
X1659335Y2087776D1*
X1654582Y2082967D1*
X1652150Y2078214D1*
X1649774Y2071029D1*
Y2059036D1*
X1652150Y2051906D1*
X1654582Y2047097D1*
X1659335Y2042344D1*
X1664144Y2039912D1*
X1673705D1*
X1678459Y2042344D1*
X1683267Y2047097D1*
X1685644Y2051906D1*
X1688020Y2059036D1*
Y2071029D1*
X1685644Y2078214D1*
X1683267Y2082967D1*
X1678459Y2087776D1*
X1673705Y2090152D1*
X1664144D1*
X1739329Y2078214D2*
X1736953Y2082967D1*
X1732144Y2087776D1*
X1727391Y2090152D1*
X1717830D1*
X1713021Y2087776D1*
X1708268Y2082967D1*
X1705836Y2078214D1*
X1703459Y2071029D1*
Y2059036D1*
X1705836Y2051906D1*
X1708268Y2047097D1*
X1713021Y2042344D1*
X1717830Y2039912D1*
X1727391D1*
X1732144Y2042344D1*
X1736953Y2047097D1*
X1739329Y2051906D1*
X1754769Y2080536D2*
X1759577Y2082967D1*
X1766762Y2090097D1*
Y2039912D1*
X2133709Y2093696D2*
X2128900Y2091319D1*
X2124147Y2086511D1*
X2121715Y2081758D1*
X2119339Y2074572D1*
Y2062579D1*
X2121715Y2055449D1*
X2124147Y2050641D1*
X2128900Y2045888D1*
X2133709Y2043456D1*
X2143270D1*
X2148024Y2045888D1*
X2152832Y2050641D1*
X2155209Y2055449D1*
X2157585Y2062579D1*
Y2074572D1*
X2155209Y2081758D1*
X2152832Y2086511D1*
X2148024Y2091319D1*
X2143270Y2093696D1*
X2133709D1*
X2208894Y2081758D2*
X2206518Y2086511D1*
X2201709Y2091319D1*
X2196956Y2093696D1*
X2187395D1*
X2182586Y2091319D1*
X2177833Y2086511D1*
X2175401Y2081758D1*
X2173025Y2074572D1*
Y2062579D1*
X2175401Y2055449D1*
X2177833Y2050641D1*
X2182586Y2045888D1*
X2187395Y2043456D1*
X2196956D1*
X2201709Y2045888D1*
X2206518Y2050641D1*
X2208894Y2055449D1*
X2226766Y2081702D2*
Y2084079D1*
X2229142Y2088887D1*
X2231519Y2091264D1*
X2236327Y2093640D1*
X2245889D1*
X2250642Y2091264D1*
X2253019Y2088887D1*
X2255450Y2084079D1*
Y2079326D1*
X2253019Y2074517D1*
X2248265Y2067387D1*
X2224334Y2043456D1*
X2257827D1*
X1841298Y1327377D2*
X1836545Y1325056D1*
X1831737Y1320247D1*
X1829360Y1315439D1*
X1826928Y1308254D1*
Y1296315D1*
X1829360Y1289130D1*
X1831737Y1284377D1*
X1836545Y1279569D1*
X1841298Y1277192D1*
X1850860D1*
X1855668Y1279569D1*
X1860422Y1284377D1*
X1862798Y1289130D1*
X1865230Y1296315D1*
Y1308254D1*
X1862798Y1315439D1*
X1860422Y1320247D1*
X1855668Y1325056D1*
X1850860Y1327377D1*
X1841298D1*
X1848483Y1286754D2*
X1862798Y1272384D1*
X1880669Y1317760D2*
X1885478Y1320192D1*
X1892663Y1327322D1*
Y1277137D1*
X2151816Y1332401D2*
X2147063Y1330080D1*
X2142254Y1325271D1*
X2139878Y1320463D1*
X2137446Y1313278D1*
Y1301340D1*
X2139878Y1294155D1*
X2142254Y1289401D1*
X2147063Y1284593D1*
X2151816Y1282216D1*
X2161378D1*
X2166186Y1284593D1*
X2170939Y1289401D1*
X2173316Y1294155D1*
X2175748Y1301340D1*
Y1313278D1*
X2173316Y1320463D1*
X2170939Y1325271D1*
X2166186Y1330080D1*
X2161378Y1332401D1*
X2151816D1*
X2159001Y1291778D2*
X2173316Y1277408D1*
X2193619Y1320408D2*
Y1322784D1*
X2195996Y1327593D1*
X2198372Y1329969D1*
X2203181Y1332346D1*
X2212742D1*
X2217495Y1329969D1*
X2219872Y1327593D1*
X2222304Y1322784D1*
Y1318031D1*
X2219872Y1313223D1*
X2215119Y1306093D1*
X2191187Y1282161D1*
X2224680D1*
X1923474Y1985512D2*
X1944974D1*
X1952159Y1987944D1*
X1954591Y1990321D1*
X1956968Y1995074D1*
Y1999882D1*
X1954591Y2004635D1*
X1952159Y2007067D1*
X1944974Y2009444D1*
X1923474D1*
Y1959204D1*
X1940221Y1985512D2*
X1956968Y1959204D1*
X1972407Y1999827D2*
X1977215Y2002259D1*
X1984400Y2009388D1*
Y1959204D1*
X1758189Y870992D2*
Y892492D1*
X1755757Y899677D1*
X1753381Y902109D1*
X1748628Y904485D1*
X1743819D1*
X1739066Y902109D1*
X1736634Y899677D1*
X1734257Y892492D1*
Y870992D1*
X1784497D1*
X1758189Y887739D2*
X1784498Y904485D1*
X1746251Y922356D2*
X1743874D1*
X1739066Y924733D1*
X1736689Y927110D1*
X1734313Y931918D1*
Y941480D1*
X1736689Y946233D1*
X1739066Y948610D1*
X1743874Y951041D1*
X1748628D1*
X1753436Y948609D1*
X1760566Y943856D1*
X1784498Y919925D1*
X1784497Y953418D1*
X2335748Y1832016D2*
Y1853516D1*
X2333316Y1860701D1*
X2330940Y1863132D1*
X2326187Y1865509D1*
X2321378D1*
X2316625Y1863132D1*
X2314193Y1860701D1*
X2311817Y1853516D1*
Y1832016D1*
X2362057D1*
X2335748Y1848762D2*
X2362057Y1865509D1*
X2311872Y1885757D2*
Y1912010D1*
X2330995Y1897695D1*
Y1904880D1*
X2333372Y1909633D1*
X2335748Y1912010D1*
X2342933Y1914442D1*
X2347686D1*
X2354872Y1912010D1*
X2359680Y1907256D1*
X2362057Y1900071D1*
Y1892886D1*
X2359680Y1885757D1*
X2357248Y1883380D1*
X2352495Y1880948D1*
X2056221Y869804D2*
Y891304D1*
X2053789Y898489D1*
X2051412Y900921D1*
X2046659Y903297D1*
X2041851D1*
X2037097Y900921D1*
X2034666Y898489D1*
X2032289Y891304D1*
Y869804D1*
X2082529D1*
X2056221Y886550D2*
X2082529Y903297D1*
Y942668D2*
X2032344D1*
X2065782Y918736D1*
Y954606D1*
X1557212Y1246452D2*
Y1210582D1*
X1559589Y1203397D1*
X1564397Y1198643D1*
X1571583Y1196212D1*
X1576336D1*
X1583521Y1198643D1*
X1588329Y1203397D1*
X1590706Y1210582D1*
Y1246452D1*
X1608577Y1234458D2*
Y1236835D1*
X1610953Y1241643D1*
X1613330Y1244020D1*
X1618139Y1246396D1*
X1627700D1*
X1632453Y1244020D1*
X1634830Y1241643D1*
X1637262Y1236835D1*
Y1232082D1*
X1634830Y1227273D1*
X1630077Y1220143D1*
X1606145Y1196212D1*
X1639638D1*
X2401701Y1236609D2*
Y1200739D1*
X2404077Y1193554D1*
X2408886Y1188801D1*
X2416071Y1186369D1*
X2420824D1*
X2428009Y1188801D1*
X2432817Y1193554D1*
X2435194Y1200739D1*
Y1236609D1*
X2455442Y1236554D2*
X2481695D1*
X2467380Y1217431D1*
X2474565D1*
X2479318Y1215054D1*
X2481695Y1212677D1*
X2484127Y1205492D1*
Y1200739D1*
X2481695Y1193554D1*
X2476942Y1188746D1*
X2469756Y1186369D1*
X2462571D1*
X2455442Y1188746D1*
X2453065Y1191178D1*
X2450633Y1195931D1*
X1736740Y2168868D2*
Y2132998D1*
X1739117Y2125813D1*
X1743925Y2121060D1*
X1751110Y2118628D1*
X1755863D1*
X1763048Y2121060D1*
X1767857Y2125813D1*
X1770233Y2132998D1*
Y2168868D1*
X1814357Y2168813D2*
X1790481D1*
X1788104Y2147313D1*
X1790481Y2149690D1*
X1797666Y2152122D1*
X1804796D1*
X1811981Y2149690D1*
X1816789Y2144937D1*
X1819166Y2137752D1*
Y2132998D1*
X1816789Y2125813D1*
X1811981Y2121005D1*
X1804796Y2118628D1*
X1797666D1*
X1790481Y2121005D1*
X1788104Y2123437D1*
X1785673Y2128190D1*
X1448850Y2701639D2*
D73*
X1483339D1*
X1494746Y2705442D1*
X1498637Y2709333D1*
X1502440Y2716938D1*
Y2728434D1*
X1498637Y2736039D1*
X1494746Y2739930D1*
X1483339Y2743732D1*
X1448850D1*
Y2663348D1*
X1527143Y2743732D2*
X1530945Y2739930D1*
X1534836Y2743732D1*
X1530945Y2747623D1*
X1527143Y2743732D1*
X1530945Y2716938D2*
Y2663348D1*
X1605523Y2705442D2*
X1597830Y2713135D1*
X1590136Y2716938D1*
X1578728D1*
X1571035Y2713135D1*
X1563430Y2705442D1*
X1559539Y2693946D1*
Y2686341D1*
X1563430Y2674845D1*
X1571035Y2667239D1*
X1578728Y2663348D1*
X1590136D1*
X1597830Y2667239D1*
X1605523Y2674845D1*
X1649327Y2716938D2*
X1641722Y2713135D1*
X1634028Y2705442D1*
X1630226Y2693946D1*
Y2686341D1*
X1634028Y2674845D1*
X1641722Y2667239D1*
X1649327Y2663348D1*
X1660823D1*
X1668517Y2667239D1*
X1676122Y2674845D1*
X1680013Y2686341D1*
Y2693946D1*
X1676122Y2705442D1*
X1668517Y2713135D1*
X1660823Y2716938D1*
X1649327D1*
X1828373Y2743732D2*
Y2663348D1*
Y2705442D2*
X1820768Y2713135D1*
X1813074Y2716938D1*
X1801578D1*
X1793973Y2713135D1*
X1786280Y2705442D1*
X1782477Y2693946D1*
Y2686341D1*
X1786280Y2674845D1*
X1793973Y2667239D1*
X1801578Y2663348D1*
X1813074D1*
X1820768Y2667239D1*
X1828373Y2674845D1*
X1853076Y2693946D2*
X1898972D1*
Y2701639D1*
X1895169Y2709333D1*
X1891366Y2713135D1*
X1883673Y2716938D1*
X1872177D1*
X1864572Y2713135D1*
X1856878Y2705442D1*
X1853076Y2693946D1*
Y2686341D1*
X1856878Y2674845D1*
X1864572Y2667239D1*
X1872177Y2663348D1*
X1883673D1*
X1891366Y2667239D1*
X1898972Y2674845D1*
X2058828Y2724631D2*
X2055025Y2732236D1*
X2047332Y2739930D1*
X2039727Y2743732D1*
X2024428D1*
X2016734Y2739930D1*
X2009129Y2732236D1*
X2005238Y2724631D1*
X2001436Y2713135D1*
Y2693946D1*
X2005238Y2682538D1*
X2009129Y2674845D1*
X2016734Y2667239D1*
X2024428Y2663348D1*
X2039727D1*
X2047332Y2667239D1*
X2055025Y2674845D1*
X2058828Y2682538D1*
Y2693946D1*
X2039727D1*
X2129426Y2716938D2*
Y2663348D1*
Y2705442D2*
X2121821Y2713135D1*
X2114128Y2716938D1*
X2102720D1*
X2095027Y2713135D1*
X2087422Y2705442D1*
X2083531Y2693946D1*
Y2686341D1*
X2087422Y2674845D1*
X2095027Y2667239D1*
X2102720Y2663348D1*
X2114128D1*
X2121821Y2667239D1*
X2129426Y2674845D1*
X2154129Y2743732D2*
Y2663348D1*
X2178832Y2743732D2*
Y2663348D1*
X2222636Y2716938D2*
X2215031Y2713135D1*
X2207337Y2705442D1*
X2203535Y2693946D1*
Y2686341D1*
X2207337Y2674845D1*
X2215031Y2667239D1*
X2222636Y2663348D1*
X2234132D1*
X2241825Y2667239D1*
X2249431Y2674845D1*
X2253322Y2686341D1*
Y2693946D1*
X2249431Y2705442D1*
X2241825Y2713135D1*
X2234132Y2716938D1*
X2222636D1*
X2355786Y2743732D2*
Y2663348D1*
X2382581D1*
X2394077Y2667239D1*
X2401770Y2674845D1*
X2405573Y2682538D1*
X2409375Y2693946D1*
Y2713135D1*
X2405573Y2724631D1*
X2401770Y2732236D1*
X2394077Y2739930D1*
X2382581Y2743732D1*
X2355786D1*
X2434078D2*
X2437881Y2739930D1*
X2441772Y2743732D1*
X2437881Y2747623D1*
X2434078Y2743732D1*
X2437881Y2716938D2*
Y2663348D1*
X2466474Y2716938D2*
Y2636554D1*
Y2705442D2*
X2474168Y2713047D1*
X2481773Y2716938D1*
X2493269D1*
X2500963Y2713047D1*
X2508568Y2705442D1*
X2512459Y2693946D1*
Y2686252D1*
X2508568Y2674845D1*
X2500963Y2667151D1*
X2493269Y2663348D1*
X2481773D1*
X2474168Y2667151D1*
X2466474Y2674845D1*
X1711932Y1565985D2*
D72*
X1709555Y1570738D1*
X1704747Y1575547D1*
X1699994Y1577923D1*
X1690432D1*
X1685624Y1575547D1*
X1680871Y1570738D1*
X1678439Y1565985D1*
X1676062Y1558800D1*
Y1546807D1*
X1678439Y1539677D1*
X1680871Y1534868D1*
X1685624Y1530115D1*
X1690432Y1527683D1*
X1699994D1*
X1704747Y1530115D1*
X1709555Y1534868D1*
X1711932Y1539677D1*
X1727371Y1561177D2*
Y1537245D1*
X1729748Y1530115D1*
X1734556Y1527683D1*
X1741741D1*
X1746495Y1530115D1*
X1753680Y1537245D1*
Y1561177D2*
Y1527683D1*
X1769119Y1577923D2*
X1771495Y1575547D1*
X1773927Y1577923D1*
X1771495Y1580355D1*
X1769119Y1577923D1*
X1771495Y1561177D2*
Y1527683D1*
X1818051Y1577923D2*
Y1527683D1*
Y1553992D2*
X1813298Y1558800D1*
X1808490Y1561177D1*
X1801305D1*
X1796552Y1558800D1*
X1791743Y1553992D1*
X1789367Y1546807D1*
Y1542053D1*
X1791743Y1534868D1*
X1796552Y1530115D1*
X1801305Y1527683D1*
X1808490D1*
X1813298Y1530115D1*
X1818051Y1534868D1*
X1862176Y1561177D2*
Y1527683D1*
Y1553992D2*
X1857422Y1558800D1*
X1852614Y1561177D1*
X1845484D1*
X1840676Y1558800D1*
X1835923Y1553992D1*
X1833491Y1546807D1*
Y1542053D1*
X1835923Y1534868D1*
X1840676Y1530115D1*
X1845484Y1527683D1*
X1852614D1*
X1857422Y1530115D1*
X1862176Y1534868D1*
X1906300Y1577923D2*
Y1527683D1*
Y1553992D2*
X1901547Y1558800D1*
X1896738Y1561177D1*
X1889553D1*
X1884800Y1558800D1*
X1879991Y1553992D1*
X1877615Y1546807D1*
Y1542053D1*
X1879991Y1534868D1*
X1884800Y1530115D1*
X1889553Y1527683D1*
X1896738D1*
X1901547Y1530115D1*
X1906300Y1534868D1*
X1933677Y1561177D2*
X1928924Y1558800D1*
X1924116Y1553992D1*
X1921739Y1546807D1*
Y1542053D1*
X1924116Y1534868D1*
X1928924Y1530115D1*
X1933677Y1527683D1*
X1940862D1*
X1945671Y1530115D1*
X1950424Y1534868D1*
X1952856Y1542053D1*
Y1546807D1*
X1950424Y1553992D1*
X1945671Y1558800D1*
X1940862Y1561177D1*
X1933677D1*
X2016896D2*
Y1510937D1*
Y1553992D2*
X2021704Y1558745D1*
X2026458Y1561177D1*
X2033643D1*
X2038451Y1558745D1*
X2043204Y1553992D1*
X2045636Y1546807D1*
Y1541998D1*
X2043204Y1534868D1*
X2038451Y1530060D1*
X2033643Y1527683D1*
X2026458D1*
X2021704Y1530060D1*
X2016896Y1534868D1*
X2061075Y1577923D2*
X2063452Y1575547D1*
X2065884Y1577923D1*
X2063452Y1580355D1*
X2061075Y1577923D1*
X2063452Y1561177D2*
Y1527683D1*
X2110063Y1553992D2*
X2105255Y1558800D1*
X2100446Y1561177D1*
X2093316D1*
X2088508Y1558800D1*
X2083755Y1553992D1*
X2081323Y1546807D1*
Y1542053D1*
X2083755Y1534868D1*
X2088508Y1530115D1*
X2093316Y1527683D1*
X2100446D1*
X2105255Y1530115D1*
X2110063Y1534868D1*
X2137441Y1561177D2*
X2132687Y1558800D1*
X2127879Y1553992D1*
X2125502Y1546807D1*
Y1542053D1*
X2127879Y1534868D1*
X2132687Y1530115D1*
X2137441Y1527683D1*
X2144626D1*
X2149434Y1530115D1*
X2154187Y1534868D1*
X2156619Y1542053D1*
Y1546807D1*
X2154187Y1553992D1*
X2149434Y1558800D1*
X2144626Y1561177D1*
X2137441D1*
X2198367Y1553992D2*
X2195990Y1558800D1*
X2188805Y1561177D1*
X2181620D1*
X2174435Y1558800D1*
X2172058Y1553992D1*
X2174435Y1549239D1*
X2179243Y1546807D1*
X2191182Y1544430D1*
X2195990Y1542053D1*
X2198367Y1537245D1*
Y1534868D1*
X2195990Y1530115D1*
X2188805Y1527683D1*
X2181620D1*
X2174435Y1530115D1*
X2172058Y1534868D1*
X2225744Y1561177D2*
X2220991Y1558800D1*
X2216183Y1553992D1*
X2213806Y1546807D1*
Y1542053D1*
X2216183Y1534868D1*
X2220991Y1530115D1*
X2225744Y1527683D1*
X2232929D1*
X2237738Y1530115D1*
X2242491Y1534868D1*
X2244923Y1542053D1*
Y1546807D1*
X2242491Y1553992D1*
X2237738Y1558800D1*
X2232929Y1561177D1*
X2225744D1*
X2262794Y1577868D2*
Y1544430D1*
Y1532492D2*
X2260362Y1530060D1*
X2262794Y1527683D1*
X2265170Y1530060D1*
X2262794Y1532492D1*
X940117Y443791D2*
D75*
X937232Y442332D1*
X932921Y438054D1*
Y468165D1*
X747374Y444532D2*
Y443106D1*
X745948Y440220D1*
X744522Y438795D1*
X741637Y437369D1*
X735900D1*
X733048Y438795D1*
X731622Y440221D1*
X730163Y443106D1*
Y445958D1*
X731622Y448843D1*
X734474Y453120D1*
X748833Y467479D1*
X728737D1*
X546505Y439621D2*
X530753D1*
X539342Y451095D1*
X535031D1*
X532179Y452521D1*
X530753Y453947D1*
X529294Y458258D1*
Y461110D1*
X530753Y465421D1*
X533605Y468306D1*
X537916Y469732D1*
X542227D1*
X546505Y468306D1*
X547931Y466847D1*
X549390Y463995D1*
X3423975Y443791D2*
X3421090Y442332D1*
X3416779Y438054D1*
Y468165D1*
X3231232Y444532D2*
Y443106D1*
X3229806Y440220D1*
X3228380Y438795D1*
X3225495Y437369D1*
X3219758D1*
X3216906Y438795D1*
X3215480Y440221D1*
X3214021Y443106D1*
Y445958D1*
X3215480Y448843D1*
X3218332Y453120D1*
X3232691Y467479D1*
X3212595D1*
X3030363Y439621D2*
X3014611D1*
X3023200Y451095D1*
X3018889D1*
X3016037Y452521D1*
X3014611Y453947D1*
X3013152Y458258D1*
Y461110D1*
X3014611Y465421D1*
X3017463Y468306D1*
X3021774Y469732D1*
X3026085D1*
X3030363Y468306D1*
X3031789Y466847D1*
X3033248Y463995D1*
X1956669Y2300064D2*
Y2315816D1*
X1968143Y2307227D1*
Y2311538D1*
X1969569Y2314390D1*
X1970995Y2315816D1*
X1975306Y2317275D1*
X1978158D1*
X1982469Y2315816D1*
X1985354Y2312964D1*
X1986780Y2308653D1*
Y2304342D1*
X1985354Y2300064D1*
X1983895Y2298638D1*
X1981043Y2297179D1*
X1963832Y2386319D2*
X1962406D1*
X1959521Y2387745D1*
X1958095Y2389171D1*
X1956669Y2392056D1*
Y2397793D1*
X1958095Y2400645D1*
X1959521Y2402071D1*
X1962406Y2403530D1*
X1965258D1*
X1968143Y2402071D1*
X1972421Y2399219D1*
X1986780Y2384860D1*
Y2404956D1*
X1962406Y2472541D2*
X1960947Y2475426D1*
X1956669Y2479737D1*
X1986780D1*
M02*
